<?xml version="1.0" encoding="UTF-8"?>
<svg width="1440px" height="1024px" viewBox="0 0 1440 1024" version="1.1" xmlns="http://www.w3.org/2000/svg" xmlns:xlink="http://www.w3.org/1999/xlink">
    <!-- Generator: Sketch 51.3 (57544) - http://www.bohemiancoding.com/sketch -->
    <title>Проект_№3</title>
    <desc>Created with Sketch.</desc>
    <defs></defs>
    <g id="Проект_№3" stroke="none" stroke-width="1" fill="none" fill-rule="evenodd">
        <rect id="Rectangle-4-Copy" fill="#55AE0E" x="0" y="1" width="1440" height="1024"></rect>
        <g id="Проекты-Copy" transform="translate(107.000000, 1.000000)">
            <rect id="Rectangle-5" x="13.0011273" y="0" width="1320.01417" height="1024"></rect>
            <rect id="Rectangle-5-Copy" x="13.0011273" y="0" width="1320.01417" height="1024"></rect>
            <g id="Контент-Copy" transform="translate(0.000000, 947.000000)">
                <g id="Контакты" transform="translate(0.000913, 0.000000)">
                    <g id="Социальные-сети">
                        <g id="vk" transform="translate(0.000075, 0.000000)"></g>
                    </g>
                </g>
            </g>
        </g>
        <g id="gilmon" transform="translate(203.000000, 368.000000)" fill="#FFFFFF" fill-rule="nonzero">
            <ellipse id="Oval" opacity="0.2" cx="144" cy="145.5" rx="144" ry="145.5"></ellipse>
            <path d="M188.510842,189.149287 C177.5351,200.287322 162.4501,207.24763 146.673895,207.24763 C114.437874,207.24763 87.6859257,180.100115 87.6859257,146.693718 C87.6859257,113.287322 113.746668,86.1398069 146.673895,86.1398069 C162.4501,86.1398069 176.851489,92.4063967 188.510842,104.23815 C193.311305,109.109595 201.545011,109.109595 206.345474,104.23815 C211.145937,99.3667051 211.145937,91.0112519 206.345474,85.4460884 C190.569268,68.0491716 165.875747,59 143.931858,59 C97.2944476,59 63,97.9792682 63,146 C63,194.02844 100.720094,233 147.365101,233 C170.000196,233 190.576864,223.950828 206.35307,207.941348 C211.153533,203.069903 211.153533,194.71445 206.35307,189.149287 C201.552606,184.277842 193.318901,184.277842 188.518438,189.149287 L188.510842,189.149287 Z M213.887974,132.079383 L153.532784,132.079383 C145.990284,132.079383 139.815005,138.345973 139.815005,146 C139.815005,153.654027 145.990284,159.920617 153.532784,159.920617 L213.887974,159.920617 C221.430473,159.920617 227.605753,153.654027 227.605753,146 C227.605753,138.345973 221.430473,132.079383 213.887974,132.079383 Z M473.439594,90.1094179 C486.772325,89.9000367 499.661378,94.9676702 509.374707,104.23815 C511.145162,106.171135 512.139461,108.706011 512.162317,111.34491 C512.162317,116.380943 508.139293,120.463454 503.17664,120.463454 C499.791614,120.485091 496.545113,119.101009 494.190963,116.632586 C488.056066,111.642637 480.405066,108.967417 472.543305,109.063347 C452.766093,109.65953 437.184556,126.367323 437.686778,146.439355 C437.686524,166.507205 453.664408,182.804018 473.439594,182.905821 C482.30168,183.160153 490.910426,179.887596 497.426719,173.787277 L497.426719,156.73722 L473.439594,156.73722 C470.825357,157.007242 468.225643,156.102478 466.324949,154.26115 C464.424255,152.419822 463.413068,149.826467 463.557629,147.163905 C463.544924,144.579355 464.613637,142.110745 466.49801,140.371947 C468.382384,138.633149 470.905377,137.787527 473.439594,138.045362 L507.308685,138.045362 C512.710776,138.094554 517.092121,142.499674 517.190651,147.980952 L517.190651,176.515903 C517.14871,178.850032 516.32648,181.100434 514.85878,182.898113 C504.44825,195.03327 489.300613,201.90144 473.44719,201.674759 C443.08398,201.674759 418.469735,176.696555 418.469735,145.88438 C418.469735,115.072205 443.08398,90.0940019 473.44719,90.0940019 L473.439594,90.1094179 Z M552.404174,90.1094179 C557.841211,90.1596175 562.236672,94.6200718 562.28614,100.137503 L562.28614,192.024364 C562.28614,197.588265 557.841429,202.098698 552.3586,202.098698 C546.875771,202.098698 542.43106,197.588265 542.43106,192.024364 L542.43106,100.862054 C542.256711,98.0688874 543.229963,95.3271561 545.119514,93.2884531 C547.009065,91.24975 549.646196,90.096112 552.404174,90.1017099 L552.404174,90.1094179 Z M598.213657,90.1094179 C603.671316,90.1094179 608.095623,94.5991447 608.095623,100.137503 L608.095623,181.45672 L650.403501,181.45672 C652.906237,181.3332 655.354579,182.225142 657.208449,183.935793 C659.062319,185.646443 660.169395,188.035249 660.285467,190.575264 C660.298172,193.159814 659.229459,195.628424 657.345086,197.367222 C655.460712,199.10602 652.937719,199.951642 650.403501,199.693807 L598.213657,199.693807 C592.755997,199.693807 588.331691,195.20408 588.331691,189.665722 L588.331691,100.145211 C588.381159,94.6277798 592.77662,90.1673255 598.213657,90.1171259 L598.213657,90.1094179 Z M785.872266,191.299814 C785.979152,194.13642 784.896338,196.886103 782.892446,198.86673 C780.888554,200.847358 778.151346,201.873347 775.35986,201.690175 C770.068651,201.303025 766.065497,196.674078 766.374183,191.299814 L766.374183,133.143085 L767.270472,117.187561 L758.284795,129.766989 L740.321036,152.104722 C738.003491,155.31548 734.359035,157.265568 730.43907,157.392398 C726.540864,157.278005 722.919155,155.322047 720.648252,152.104722 L703.489635,129.95198 L694.503958,117.187561 L695.400247,133.143085 L695.400247,191.215026 C695.606374,193.974364 694.647419,196.692617 692.762402,198.692255 C690.877386,200.691893 688.243876,201.784551 685.518281,201.697883 C682.802889,201.750542 680.185828,200.666796 678.282,198.70128 C676.378172,196.735765 675.355409,194.061751 675.454019,191.307522 L675.454019,102.064499 C675.380917,99.3260515 676.414978,96.6764661 678.315931,94.7313901 C680.216884,92.7863141 682.819224,91.715094 685.518281,91.7666342 L691.898644,91.7666342 C695.523128,91.7559483 698.905931,93.6101946 700.884321,96.6920351 L730.43907,133.613272 L760.176116,96.5995393 C762.154506,93.5176989 765.537309,91.6634525 769.161793,91.6741384 L775.35986,91.6741384 C778.075252,91.6214794 780.692313,92.7052252 782.596141,94.6707405 C784.499969,96.6362559 785.522732,99.3102695 785.424122,102.064499 L785.872266,191.307522 L785.872266,191.299814 Z M862.231531,90.1094179 C892.524217,90.1108969 917.107973,114.978713 917.206053,145.719161 C917.304133,176.459608 892.879578,201.488448 862.587536,201.688987 C832.295494,201.889526 807.551227,177.186193 807.254076,146.447063 C807.134695,131.563384 812.871284,117.246332 823.191885,106.670391 C833.512486,96.094449 847.564255,90.1335608 862.231531,90.1094179 Z M862.231531,183.090812 C881.827953,182.641196 897.454208,166.338069 897.353907,146.447063 C897.353907,126.760561 881.627383,110.801497 862.227733,110.801497 C842.828083,110.801497 827.10156,126.760561 827.10156,146.447063 C827.096563,166.269197 842.695626,182.465217 862.223935,182.913529 L862.223935,183.09852 L862.231531,183.090812 Z M965.183235,132.048551 L957.997731,119.106849 L958.71932,133.690352 L958.71932,192.032072 C958.569593,197.561246 954.109521,201.964601 948.658856,201.964601 C943.208191,201.964601 938.748119,197.561246 938.598392,192.032072 L938.598392,101.694516 C938.834796,96.2023411 943.246048,91.8474878 948.662654,91.7589262 L955.043016,91.7589262 C958.601553,91.9184252 961.900891,93.6929588 964.028693,96.5918313 L1007.41516,159.858953 L1014.60066,172.893151 L1013.87907,158.309648 L1013.87907,100.060423 C1014.0288,94.5312497 1018.48887,90.1278948 1023.93954,90.1278948 C1029.3902,90.1278948 1033.85027,94.5312497 1034,100.060423 L1034,190.128201 C1033.85687,195.677155 1029.40554,200.112483 1023.93574,200.156286 L1017.91997,200.156286 C1014.33999,200.078553 1011.00745,198.28616 1008.93429,195.323381 L965.183235,132.056259 L965.183235,132.048551 Z" id="Shape"></path>
        </g>
    </g>
</svg>