<?xml version="1.0" encoding="UTF-8"?>
<svg width="44px" height="44px" viewBox="0 0 44 44" version="1.1" xmlns="http://www.w3.org/2000/svg" xmlns:xlink="http://www.w3.org/1999/xlink">
    <!-- Generator: Sketch 51.3 (57544) - http://www.bohemiancoding.com/sketch -->
    <title>inst</title>
    <desc>Created with Sketch.</desc>
    <defs></defs>
    <g id="Page-1" stroke="none" stroke-width="1" fill="none" fill-rule="evenodd">
        <g id="Главная-страница" transform="translate(-157.000000, -1957.000000)">
            <g id="Проекты" transform="translate(-1.000000, 1025.000000)">
                <g id="Проекты-Copy" transform="translate(15.000000, 0.000000)">
                    <g id="Контент-Copy" transform="translate(0.000000, 20.000000)">
                        <g id="Контакты" transform="translate(85.000913, 912.000000)">
                            <g id="Социальные-сети">
                                <g id="inst" transform="translate(60.000000, 2.000000)">
                                    <path d="M20.0002147,40 C31.0460283,40 40.0004294,31.045695 40.0004294,20 C40.0004294,8.954305 31.0460283,0 20.0002147,0 C8.95440114,0 0,8.954305 0,20 C0,31.045695 8.95440114,40 20.0002147,40 Z M20.0002147,40 C31.0460283,40 40.0004294,31.045695 40.0004294,20 C40.0004294,8.954305 31.0460283,0 20.0002147,0 C8.95440114,0 0,8.954305 0,20 C0,31.045695 8.95440114,40 20.0002147,40 Z" id="Oval-2-Copy" stroke="#FFFFFF" stroke-width="3"></path>
                                    <path d="M15.8797698,10 C12.6517867,10 9.99908743,12.639687 9.99908743,15.8596795 L9.99908743,24.0688923 C9.99908743,27.2853465 12.6482366,29.9285717 15.8797698,29.9285717 L24.1184065,29.9285717 C27.3463881,29.9285717 29.9990874,27.2888856 29.9990874,24.0688923 L29.9990874,15.8596795 C29.9990874,12.6432252 27.3499411,10 24.1184065,10 L15.8797698,10 Z M15.8797698,11.8116883 L24.1184065,11.8116883 C26.3662753,11.8116883 28.1809056,13.6198385 28.1809056,15.8596795 L28.1809056,24.0688923 C28.1809056,26.3087333 26.3662753,28.1168834 24.1184065,28.1168834 L15.8797698,28.1168834 C13.6319009,28.1168834 11.8172692,26.3087333 11.8172692,24.0688923 L11.8172692,15.8596795 C11.8172692,13.6198385 13.6319009,11.8116883 15.8797698,11.8116883 Z M25.3684062,13.7932225 C24.9103096,13.7932225 24.544542,14.1576834 24.544542,14.6141437 C24.544542,15.0706041 24.9103096,15.435065 25.3684062,15.435065 C25.8265029,15.435065 26.192269,15.0706041 26.192269,14.6141437 C26.192269,14.1576834 25.8265029,13.7932225 25.3684062,13.7932225 Z M19.9990881,14.5292208 C16.9983776,14.5292208 14.5445427,16.9742926 14.5445427,19.9642859 C14.5445427,22.9542791 16.9983776,25.3993509 19.9990881,25.3993509 C22.9997972,25.3993509 25.4536336,22.9542791 25.4536336,19.9642859 C25.4536336,16.9742926 22.9997972,14.5292208 19.9990881,14.5292208 Z M19.9990881,16.3409092 C22.0196845,16.3409092 23.6354518,17.9509059 23.6354518,19.9642859 C23.6354518,21.9776658 22.0196845,23.5876625 19.9990881,23.5876625 C17.9784918,23.5876625 16.3627245,21.9776658 16.3627245,19.9642859 C16.3627245,17.9509059 17.9784918,16.3409092 19.9990881,16.3409092 Z" id="Shape" fill="#FFFFFF" fill-rule="nonzero"></path>
                                </g>
                            </g>
                        </g>
                    </g>
                </g>
            </g>
        </g>
    </g>
</svg>