<?xml version="1.0" encoding="UTF-8"?>
<svg width="15px" height="14px" viewBox="0 0 15 14" version="1.1" xmlns="http://www.w3.org/2000/svg" xmlns:xlink="http://www.w3.org/1999/xlink">
    <!-- Generator: Sketch 51.3 (57544) - http://www.bohemiancoding.com/sketch -->
    <title>Shape</title>
    <desc>Created with Sketch.</desc>
    <defs></defs>
    <g id="UI-kit" stroke="none" stroke-width="1" fill="none" fill-rule="evenodd">
        <g id="320\768-Карточка-депутата" transform="translate(-126.000000, -379.000000)" fill="#707070" fill-rule="nonzero">
            <g id="Group-4">
                <g id="Group-6" transform="translate(15.000000, 379.000000)">
                    <path d="M115.493239,0 C113.225552,0 111.362007,1.85440373 111.362007,4.11647727 L111.362007,9.88352273 C111.362007,12.1431106 113.223058,14 115.493239,14 L121.280955,14 C123.548641,14 125.412186,12.1455969 125.412186,9.88352273 L125.412186,4.11647727 C125.412186,1.85688936 123.551137,0 121.280955,0 L115.493239,0 Z M115.493239,1.27272727 L121.280955,1.27272727 C122.860103,1.27272727 124.134897,2.54296891 124.134897,4.11647727 L124.134897,9.88352273 C124.134897,11.4570311 122.860103,12.7272727 121.280955,12.7272727 L115.493239,12.7272727 C113.914091,12.7272727 112.639296,11.4570311 112.639296,9.88352273 L112.639296,4.11647727 C112.639296,2.54296891 113.914091,1.27272727 115.493239,1.27272727 Z M122.159091,2.66477273 C121.837274,2.66477273 121.580319,2.92080982 121.580319,3.24147727 C121.580319,3.56214473 121.837274,3.81818182 122.159091,3.81818182 C122.480908,3.81818182 122.737862,3.56214473 122.737862,3.24147727 C122.737862,2.92080982 122.480908,2.66477273 122.159091,2.66477273 Z M118.387097,3.18181818 C116.279071,3.18181818 114.55523,4.899503 114.55523,7 C114.55523,9.100497 116.279071,10.8181818 118.387097,10.8181818 C120.495122,10.8181818 122.218964,9.100497 122.218964,7 C122.218964,4.899503 120.495122,3.18181818 118.387097,3.18181818 Z M118.387097,4.45454545 C119.806584,4.45454545 120.941675,5.58558255 120.941675,7 C120.941675,8.41441745 119.806584,9.54545455 118.387097,9.54545455 C116.96761,9.54545455 115.832519,8.41441745 115.832519,7 C115.832519,5.58558255 116.96761,4.45454545 118.387097,4.45454545 Z" id="Shape"></path>
                </g>
            </g>
        </g>
    </g>
</svg>
