<?xml version="1.0" encoding="UTF-8"?>
<svg width="44px" height="44px" viewBox="0 0 44 44" version="1.1" xmlns="http://www.w3.org/2000/svg" xmlns:xlink="http://www.w3.org/1999/xlink">
    <!-- Generator: Sketch 51.3 (57544) - http://www.bohemiancoding.com/sketch -->
    <title>tel</title>
    <desc>Created with Sketch.</desc>
    <defs></defs>
    <g id="Page-1" stroke="none" stroke-width="1" fill="none" fill-rule="evenodd">
        <g id="Главная-страница" transform="translate(-217.000000, -1955.000000)">
            <g id="Проекты" transform="translate(-1.000000, 1025.000000)">
                <g id="Проекты-Copy" transform="translate(15.000000, 0.000000)">
                    <g id="Контент-Copy" transform="translate(0.000000, 20.000000)">
                        <g id="Контакты" transform="translate(85.000913, 912.000000)">
                            <g id="Социальные-сети">
                                <g id="tel" transform="translate(120.000000, 0.000000)">
                                    <ellipse id="Oval-2-Copy-2" stroke="#FFFFFF" stroke-width="3" cx="20.0015031" cy="20" rx="20.0002147" ry="20"></ellipse>
                                    <path d="M7.40761628,21.5899267 L12.7073401,23.5654245 L14.7586581,30.1540157 C14.889913,30.5759906 15.4065759,30.7319629 15.74951,30.4519479 L18.7036656,28.0467413 C19.013326,27.7947508 19.4543947,27.782193 19.7780086,28.0168031 L25.1062527,31.8802781 C25.4731072,32.146588 25.9928367,31.9458226 26.0848378,31.5030964 L29.9880615,12.7518728 C30.0884961,12.2682598 29.6126971,11.8648138 29.1516182,12.0429142 L7.40140622,20.4227754 C6.86465635,20.6295146 6.86933302,21.3884722 7.40761628,21.5899267 Z M14.4280675,22.5138166 L24.7857055,16.1426848 C24.9718544,16.0285196 25.16337,16.279897 25.0035182,16.427983 L16.4554652,24.3636637 C16.1550049,24.6429895 15.9611893,25.0168031 15.9062952,25.4225462 L15.6151118,27.5776761 C15.576548,27.865425 15.1718197,27.893985 15.0923155,27.6155005 L13.972432,23.6855621 C13.8441671,23.2373244 14.0310826,22.7585339 14.4280675,22.5138166 Z" id="XMLID_497_" fill="#FFFFFF" fill-rule="nonzero"></path>
                                </g>
                            </g>
                        </g>
                    </g>
                </g>
            </g>
        </g>
    </g>
</svg>