<?xml version="1.0" encoding="UTF-8"?>
<svg width="190px" height="170px" viewBox="0 0 190 170" version="1.1" xmlns="http://www.w3.org/2000/svg" xmlns:xlink="http://www.w3.org/1999/xlink">
    <!-- Generator: Sketch 51.3 (57544) - http://www.bohemiancoding.com/sketch -->
    <title>telegram</title>
    <desc>Created with Sketch.</desc>
    <defs></defs>
    <g id="Page-1" stroke="none" stroke-width="1" fill="none" fill-rule="evenodd">
        <g id="Desktop-HD" transform="translate(-465.000000, -773.000000)" fill="#bbb" fill-rule="nonzero">
            <g id="telegram" transform="translate(465.000000, 772.000000)">
                <path d="M152.531,170.476 C151.051,170.476 149.581,170.038 148.32,169.183 L100.679,136.867 L75.127,155.253 C73.123,156.694 70.54,157.057 68.213,156.225 C65.889,155.391 64.124,153.466 63.494,151.079 L50.664,102.457 L4.821,84.928 C1.935,83.824 0.021,81.063 5.61632988e-15,77.973 C-0.021,74.883 1.855,72.096 4.727,70.953 L179.039,1.593 C179.83,1.257 180.667,1.063 181.511,1.011 C181.813,0.993 182.116,0.993 182.417,1.01 C184.165,1.114 185.882,1.826 187.222,3.14 C187.361,3.276 187.493,3.415 187.618,3.56 C188.728,4.828 189.338,6.374 189.453,7.949 C189.481,8.345 189.479,8.746 189.444,9.147 C189.42,9.433 189.379,9.718 189.321,10.001 L159.898,164.38 C159.425,166.86 157.737,168.936 155.405,169.903 C154.48,170.287 153.503,170.476 152.531,170.476 Z M104.862,121.579 L147.299,150.364 L170.193,30.24 L87.506,109.806 L104.662,121.444 C104.731,121.487 104.797,121.533 104.862,121.579 Z M69.535,115.178 L75.217,136.708 L87.459,127.899 L71.429,117.025 C70.684,116.521 70.046,115.893 69.535,115.178 Z M28.136,77.782 L59.614,89.817 C61.869,90.679 63.571,92.575 64.187,94.909 L68.179,110.038 C68.362,108.293 69.153,106.651 70.438,105.414 L149.227,29.6 L28.136,77.782 Z" id="Shape"></path>
            </g>
        </g>
    </g>
</svg>
