<?xml version="1.0" encoding="UTF-8"?>
<svg xmlns="http://www.w3.org/2000/svg" xmlns:xlink="http://www.w3.org/1999/xlink" width="512" height="512" viewBox="0 0 61 60" version="1.1"><!-- Generator: Sketch 51.3 (57544) - http://www.bohemiancoding.com/sketch --><title>006 - Confusion</title><desc>Created with Sketch.</desc><defs/><g id="Page-1" stroke="none" stroke-width="1" fill="none" fill-rule="evenodd"><g id="006---Confusion" transform="translate(-1.000000, 0.000000)" fill="#000000" fill-rule="nonzero"><path d="M2.472,37.391 C2.80078202,37.6194083 3.14797678,37.8200989 3.51,37.991 C3.942,38.212 4.667,38.582 4.718,38.841 C4.78091334,39.1828671 4.73980788,39.535747 4.6,39.854 C4.451,40.174 4.295,40.449 4.16,40.686 C3.794,41.333 3.181,42.417 4.105,43.172 C4.321,43.372 4.694,43.661 5.034,43.922 C4.78370505,44.359639 4.67048978,44.8623148 4.709,45.365 C4.76206133,45.7609003 4.97674391,46.1171358 5.302,46.349 C5.524,46.505 5.761,46.641 5.994,46.774 C6.586,47.11 6.817,47.267 6.894,47.581 C6.94956021,47.9834802 6.91541128,48.3932674 6.794,48.781 C6.735,49.048 6.678,49.316 6.644,49.581 C6.54469822,50.4923539 6.65729272,51.4143284 6.973,52.275 C7.42281456,53.8638526 8.85996076,54.9707558 10.511,55 C10.7865929,54.9991845 11.0613714,54.9700312 11.331,54.913 C14.1877778,54.2358183 17.0028445,53.3934018 19.762,52.39 C22.015,53.712 23.438,57.732 23.809,59.241 C23.9197719,59.6870872 24.3203652,60.0002183 24.78,60 L49.88,59.93 C50.198095,59.9293833 50.4969218,59.7774667 50.6848608,59.5208273 C50.8727998,59.2641879 50.9274293,58.9334437 50.832,58.63 C50.584758,57.9524505 50.2437748,57.3128965 49.819,56.73 C49.5792082,56.3843183 49.3630492,56.0228282 49.172,55.648 C48.7190564,54.7315437 48.3414759,53.7797332 48.043,52.802 C47.4716514,50.8692257 47.0757155,48.8888768 46.86,46.885 C46.832,46.654 46.807,46.324 46.787,45.975 C46.858,45.975 46.925,45.996 46.997,45.996 C48.977249,45.9976785 50.6606651,44.5501702 50.9557353,42.5920276 C51.2508055,40.6338849 50.0687035,38.7545752 48.1758946,38.1726273 C46.2830857,37.5906793 44.2493694,38.4812792 43.3933906,40.2669693 C42.5374118,42.0526595 43.116849,44.1958866 44.756,45.307 C44.775,45.962 44.819,46.67 44.874,47.126 C45.1054034,49.2509065 45.5274365,51.3506972 46.135,53.4 C46.4640482,54.4749292 46.879054,55.5216399 47.376,56.53 C47.6041562,56.9828684 47.8630969,57.4195592 48.151,57.837 L48.218,57.937 L25.536,58 C24.8721602,55.6278229 23.6672676,53.4419012 22.016,51.614 L22.916,51.299 C23.586,51.065 24.091,50.889 24.35,50.806 C28.634,49.451 30.776,47.5 30.718,45.006 C30.7050213,44.4537153 30.2467847,44.0165213 29.6945,44.0295 C29.1422153,44.0424787 28.7050213,44.5007153 28.718,45.053 C28.742,46.082 27.899,47.583 23.742,48.898 C23.471,48.985 22.949,49.167 22.256,49.409 C21.513,49.669 20.568,49.999 19.526,50.353 L19.519,50.353 C16.7047997,51.3845725 13.8333482,52.2526858 10.919,52.953 C9.98843633,53.1296801 9.08382639,52.5420363 8.867,51.62 C8.65336419,51.0511056 8.5729723,50.4408114 8.632,49.836 C8.658,49.626 8.706,49.418 8.752,49.209 C8.95576498,48.5176489 8.98564963,47.7866772 8.839,47.081 C8.54814599,46.1623751 7.87220583,45.4156291 6.987,45.035 L6.78,44.917 C6.88797779,44.6989963 7.01691908,44.4920204 7.165,44.299 C7.33275906,44.0864363 7.40714209,43.8149259 7.3711438,43.5465408 C7.33514552,43.2781557 7.19184383,43.0358431 6.974,42.875 C6.734,42.699 6.168,42.275 5.754,41.941 C5.802,41.854 5.854,41.758 5.904,41.671 C6.061,41.396 6.24,41.076 6.415,40.706 C6.73144627,40.0050454 6.82465982,39.2237273 6.682,38.468 C6.442,37.248 5.273,36.65 4.421,36.214 C4.13330073,36.0772824 3.85736569,35.9170729 3.596,35.735 C3.38336862,35.5912941 3.18391862,35.42899 3,35.25 C3,35.098 3.163,34.73 3.925,33.803 C5.71607044,31.4972449 7.2517206,29.0039928 8.505,26.367 C8.73934083,25.9538574 8.87135428,25.4906102 8.89,25.016 C8.78670832,24.0108401 8.25404392,23.0993679 7.429,22.516 C7.029,22.145 6.644,21.795 6.599,21.469 C6.60563423,21.2329751 6.65864086,21.0005614 6.755,20.785 C6.918,20.356 7.106,19.936 7.295,19.515 C7.70505054,18.6694994 8.03256792,17.786408 8.273,16.878 L8.373,16.452 C8.58408599,15.4522697 8.85626318,14.4664205 9.188,13.5 C9.97629737,11.324256 11.1967986,9.33056659 12.776,7.639 C14.689,5.615 17.7,4.183 21.74,3.38 C24.8305901,2.70155325 27.9665949,2.24968514 31.123,2.028 C33.5901746,1.95060066 36.0540371,2.26448999 38.423,2.958 C36.181653,4.68333506 34.5194566,7.05087491 33.658,9.745 C33.2582819,10.9752988 33.4756712,12.3228148 34.242,13.365 C35.1299095,14.5786864 36.6245325,15.1904147 38.1085914,14.9475419 C39.5926502,14.704669 40.8142998,13.6484105 41.269,12.215 C42.1879067,9.26669524 45.1946753,7.49743398 48.2182392,8.12588599 C51.2418031,8.75433799 53.2945045,11.5752172 52.9624398,14.6454979 C52.630375,17.7157786 50.0220142,20.0325428 46.934,20 C45.8834641,19.9949917 44.8721689,20.3987926 44.114,21.126 C43.3994006,21.8279736 42.9978251,22.7882942 43,23.79 L43,32 C43,34.209139 44.790861,36 47,36 C49.209139,36 51,34.209139 51,32 L51,27.418 C56.1015458,25.9174237 59.911409,21.6545223 60.83177,16.417115 C61.752131,11.1797077 59.6238653,5.87330863 55.3395469,2.72336978 C51.0552285,-0.426569058 45.3555883,-0.875443511 40.631,1.565 C37.5515512,0.454060462 34.2902641,-0.0663613016 31.018,0.031 C27.7640828,0.25668862 24.5310865,0.720598351 21.345,1.419 C16.836,2.319 13.559,3.9 11.322,6.264 C9.55741114,8.15217091 8.19304573,10.3778111 7.311,12.807 C6.95086895,13.8522819 6.65498362,14.9186045 6.425,16 L6.325,16.422 C6.1115707,17.2063052 5.82532664,17.9689531 5.47,18.7 C5.27,19.156 5.062,19.612 4.883,20.084 C4.65284498,20.6094053 4.56192334,21.1852424 4.619,21.756 C4.82021123,22.6521932 5.3374331,23.4459531 6.076,23.992 C6.565,24.44 6.886,24.756 6.89,25.031 C6.85421996,25.1830023 6.79697882,25.3291355 6.72,25.465 C5.52247783,27.986227 4.05560327,30.370443 2.345,32.576 C1.62,33.458 0.86,34.487 1.02,35.517 C1.23211923,36.311598 1.75555427,36.9871609 2.472,37.391 Z M47,40 C48.1045695,40 49,40.8954305 49,42 C49,43.1045695 48.1045695,44 47,44 C45.8954305,44 45,43.1045695 45,42 C45,40.8954305 45.8954305,40 47,40 Z M48.371,2.076 C54.1634684,2.73810092 58.6419179,7.46779827 58.9871695,13.2877527 C59.332421,19.107707 55.4445639,24.3337107 49.771,25.676 C49.3190566,25.7823203 48.9997337,26.1857191 49,26.65 L49,32 C49,33.1045695 48.1045695,34 47,34 C45.8954305,34 45,33.1045695 45,32 L45,23.79 C44.9983177,23.3231261 45.1850827,22.8753227 45.518,22.548 C45.9064665,22.1760219 46.429601,21.9781767 46.967,22 L47,22 C51.0065036,22.0428687 54.4119477,19.0824909 54.927,15.109 C55.2480458,12.8154326 54.5594053,10.4952865 53.0390733,8.74825681 C51.5187413,7.00122714 49.3159276,5.99877238 47,6 C43.4924884,5.98640437 40.3891361,8.26945158 39.358,11.622 C39.1275453,12.3330971 38.5182043,12.8551951 37.7801833,12.973911 C37.0421623,13.092627 36.2998294,12.7879554 35.858,12.185 C35.4705127,11.6573578 35.3614083,10.9751761 35.565,10.353 C37.3295805,4.90538462 42.6793003,1.44765931 48.371,2.076 Z" id="Shape"/><path d="M12.167,17.793 L12.267,17.348 C12.4422745,16.5166167 12.6649717,15.6959424 12.934,14.89 C13.5362565,13.2205007 14.4695935,11.6898825 15.678,10.39 C16.9740184,9.16800156 18.560379,8.29686276 20.287,7.859 C20.6356132,7.76076066 20.9038574,7.48169775 20.9882433,7.12947458 C21.0726292,6.7772514 20.9599648,6.40693017 20.6937164,6.1613819 C20.4274681,5.91583364 20.0492577,5.83344433 19.705,5.946 C17.6443921,6.48150189 15.7566426,7.53920641 14.224,9.017 C12.8313939,10.5140375 11.7555448,12.2769606 11.061,14.2 C10.7609653,15.0876495 10.5135358,15.9922196 10.32,16.909 L10.22,17.342 C10.0952009,17.8796006 10.4295239,18.4166657 10.967,18.542 C11.0413988,18.5594609 11.1175799,18.5681865 11.194,18.568 C11.6590938,18.5673679 12.0623542,18.2461687 12.167,17.793 Z" id="Shape"/><circle id="Oval" cx="10" cy="21" r="1"/></g></g></svg>
