<?xml version="1.0" encoding="UTF-8"?>
<svg xmlns="http://www.w3.org/2000/svg" xmlns:xlink="http://www.w3.org/1999/xlink" width="512" height="512" viewBox="0 0 59 60" version="1.1"><!-- Generator: Sketch 51.3 (57544) - http://www.bohemiancoding.com/sketch --><title>012 - Target</title><desc>Created with Sketch.</desc><defs/><g id="Page-1" stroke="none" stroke-width="1" fill="none" fill-rule="evenodd"><g id="012---Target" transform="translate(-1.000000, -1.000000)" fill="#000000" fill-rule="nonzero"><path d="M2.471,38.391 C2.80026375,38.6192011 3.14777307,38.8198802 3.51,38.991 C3.942,39.212 4.667,39.582 4.717,39.841 C4.7807262,40.1827503 4.73995247,40.5357742 4.6,40.854 C4.451,41.174 4.294,41.449 4.16,41.687 C3.793,42.333 3.181,43.416 4.105,44.172 C4.321,44.372 4.694,44.661 5.035,44.922 C4.78441543,45.359553 4.67085435,45.8622176 4.709,46.365 C4.76229209,46.7608192 4.97692342,47.1169696 5.302,47.349 C5.524,47.505 5.761,47.641 5.995,47.774 C6.586,48.111 6.817,48.267 6.895,48.581 C6.95072661,48.9834757 6.91657463,49.3932994 6.795,49.781 C6.737,50.049 6.679,50.317 6.646,50.581 C6.54659663,51.4922755 6.6588426,52.4141982 6.974,53.275 C7.4234219,54.863697 8.8602194,55.9706445 10.511,56 C10.7865898,55.9991281 11.0613626,55.9699754 11.331,55.913 C14.1877405,55.2356794 17.0027993,54.3932653 19.762,53.39 C22.015,54.712 23.438,58.732 23.809,60.241 C23.9197719,60.6870872 24.3203652,61.0002183 24.78,61 L49.88,60.93 C50.198095,60.9293833 50.4969218,60.7774667 50.6848608,60.5208273 C50.8727998,60.2641879 50.9274293,59.9334437 50.832,59.63 C50.5840507,58.9525717 50.2427579,58.3130683 49.818,57.73 C49.5784791,57.3851857 49.3623284,57.0247119 49.171,56.651 C48.7194175,55.7335946 48.3418821,54.7815634 48.042,53.804 C47.4712015,51.8714821 47.0756037,49.8914849 46.86,47.888 C46.5170778,44.9567729 46.9480508,41.9868513 48.11,39.274 C51.6865011,36.0345529 53.8045803,31.489029 53.9845374,26.6668932 C54.1644945,21.8447575 52.3911036,17.1540079 49.066,13.657 L50.641,12 L55,12 C55.2651948,11.9999434 55.5195073,11.8945494 55.707,11.707 L59.707,7.707 C59.9929079,7.42100575 60.0784219,6.99096338 59.923678,6.61734544 C59.7689341,6.2437275 59.4043959,6.00008635 59,6 L55,6 L55,2 C54.9999137,1.5956041 54.7562725,1.23106595 54.3826546,1.07632202 C54.0090366,0.921578094 53.5789943,1.00709208 53.293,1.293 L49.293,5.293 C49.1054506,5.48049273 49.0000566,5.73480519 49,6 L49,10.824 L47.622,12.278 C40.6103797,6.31243437 30.2284409,6.5954251 23.5522092,12.934094 C16.8759776,19.2727629 16.0551842,29.6260733 21.6492579,36.9375117 C27.2433315,44.2489502 37.4509935,46.1642505 45.315,41.378 C44.7593724,43.5849667 44.6109436,45.8747703 44.877,48.135 C45.107351,50.2568727 45.5283859,52.3536802 46.135,54.4 C46.4639651,55.4752817 46.8789726,56.5223313 47.376,57.531 C47.6039597,57.981734 47.8629147,58.4161101 48.151,58.831 L48.218,58.931 L25.536,59 C24.8717541,56.627989 23.6669103,54.4421559 22.016,52.614 L22.916,52.298 C23.585,52.065 24.089,51.889 24.347,51.806 C28.632,50.451 30.774,48.5 30.716,46.006 C30.713709,45.7408657 30.6046249,45.4878514 30.4134134,45.304168 C30.222202,45.1204845 29.9650125,45.0216455 29.7,45.03 C29.1480455,45.043101 28.711146,45.5010397 28.724,46.053 C28.748,47.082 27.905,48.583 23.747,49.898 C23.476,49.985 22.955,50.167 22.264,50.408 C21.52,50.668 20.575,50.999 19.531,51.353 L19.525,51.353 C16.7107073,52.3842961 13.8392719,53.2524045 10.925,53.953 C9.99279709,54.1310907 9.08566677,53.5435277 8.867,52.62 C8.65403967,52.0505889 8.57367075,51.4401271 8.632,50.835 C8.659,50.626 8.706,50.417 8.752,50.208 C8.95538984,49.5169007 8.98493135,48.7862637 8.838,48.081 C8.54781232,47.1628818 7.87254397,46.4164365 6.988,46.036 C6.918,45.997 6.849,45.957 6.78,45.917 C6.88833948,45.6989801 7.01761396,45.492007 7.166,45.299 C7.33365336,45.0863106 7.40787187,44.8147167 7.37168403,44.5463235 C7.33549619,44.2779303 7.19199688,44.0356917 6.974,43.875 C6.734,43.699 6.168,43.275 5.753,42.941 C5.801,42.854 5.853,42.758 5.904,42.672 C6.061,42.396 6.241,42.072 6.415,41.706 C6.73195159,41.0051861 6.82518406,40.2237094 6.682,39.468 C6.442,38.248 5.273,37.65 4.42,37.214 C4.13261917,37.0772821 3.8570164,36.9170713 3.596,36.735 C3.3817006,36.5914967 3.18087589,36.4288287 2.996,36.249 C2.996,36.098 3.158,35.731 3.92,34.803 C5.71111243,32.4976314 7.24676799,30.0047058 8.5,27.368 C8.7352421,26.9548156 8.86763342,26.491103 8.886,26.016 C8.78386015,25.0104644 8.25093667,24.0985488 7.425,23.516 C7.025,23.145 6.639,22.795 6.595,22.471 C6.60291104,22.2346006 6.65550369,22.0018357 6.75,21.785 C6.913,21.357 7.102,20.937 7.29,20.517 C7.70056527,19.6709167 8.02842184,18.787144 8.269,17.878 L8.369,17.452 C8.58139683,16.4521828 8.85491022,15.4663323 9.188,14.5 C9.97697112,12.3245803 11.1973938,10.3310192 12.776,8.639 C14.689,6.615 17.7,5.183 21.74,4.38 C24.8299393,3.70168451 27.9652696,3.24981727 31.121,3.028 C34.5939822,2.82480154 38.0623096,3.49810959 41.207,4.986 C41.7054974,5.20949961 42.291101,4.99157711 42.5222161,4.49656448 C42.7533313,4.00155185 42.5444115,3.41267641 42.053,3.174 C38.6119253,1.54649093 34.8171005,0.809601688 31.017,1.031 C27.7634281,1.25682993 24.5307746,1.72073844 21.345,2.419 C16.836,3.319 13.558,4.9 11.323,7.264 C9.55800834,9.15204797 8.19329313,11.3777039 7.311,13.807 C6.95040811,14.8521387 6.65451487,15.9184898 6.425,17 L6.325,17.422 C6.11188832,18.2074692 5.82459624,18.9709027 5.467,19.702 C5.267,20.157 5.061,20.612 4.88,21.086 C4.65224528,21.611379 4.56207696,22.1861159 4.618,22.756 C4.81913234,23.6524828 5.33679367,24.4463722 6.076,24.992 C6.564,25.44 6.885,25.756 6.889,26.031 C6.85287471,26.1828944 6.79565216,26.3289802 6.719,26.465 C5.52119196,28.9879725 4.05327497,31.3735891 2.341,33.58 C1.617,34.461 0.859,35.489 1.018,36.518 C1.23142242,37.3119913 1.7549884,37.9868977 2.471,38.391 Z M56.586,8 L54.586,10 L52.535,10 L54.435,8 L56.586,8 Z M51,6.414 L53,4.414 L53,6.6 L51,8.713 L51,6.414 Z M20,26 C19.994827,19.7879072 23.5886988,14.1352503 29.2161474,11.504291 C34.8435959,8.87333177 41.4856217,9.74047556 46.249,13.728 L44.873,15.18 C38.9632231,10.2393628 30.201937,10.8676084 25.0575561,16.6009062 C19.9131751,22.334204 20.2345002,31.1121068 25.7842985,36.4539321 C31.3340969,41.7957574 40.1178677,41.7817464 45.6505963,36.4222433 C51.1833249,31.0627402 51.4766451,22.2838571 46.314,16.567 L47.691,15.113 C52.5765136,20.3584913 53.37415,28.2143519 49.642661,34.3347613 C45.9111719,40.4551707 38.5624834,43.3443828 31.661851,41.4041007 C24.7612186,39.4638187 19.9950645,33.1682214 20,26 Z M40,26 C40,28.209139 38.209139,30 36,30 C33.790861,30 32,28.209139 32,26 C32,23.790861 33.790861,22 36,22 C36.6748014,22.0044577 37.3372032,22.1817638 37.924,22.515 L35.274,25.315 C34.8940281,25.7159587 34.9110413,26.3490281 35.312,26.729 C35.7129587,27.1089719 36.3460281,27.0919587 36.726,26.691 L39.381,23.891 C39.7819049,24.5216437 39.9964794,25.2527224 40,26 Z M39.341,21.019 C36.7298119,19.2461183 33.1954766,19.7713741 31.2127069,22.2269874 C29.2299372,24.6826008 29.4610812,28.2482694 31.7442938,30.427341 C34.0275064,32.6064125 37.6000759,32.670964 39.9605182,30.575797 C42.3209605,28.48063 42.6807652,24.925639 40.788,22.4 L42.182,20.929 C44.9136255,24.2226166 44.6122282,29.0728063 41.4938532,32.002896 C38.3754783,34.9329858 33.5159331,34.9321246 30.3985968,32.0009299 C27.2812605,29.0697352 26.9815822,24.2194389 29.7143748,20.9267907 C32.4471673,17.6341424 37.2696455,17.0350719 40.725,19.559 L39.341,21.019 Z M42.107,18.099 C37.8827557,14.8353146 31.8413674,15.4572336 28.3706166,19.5130653 C24.8998657,23.5688971 25.2190341,29.6338198 29.0963138,33.3029593 C32.9735936,36.9720987 39.0468885,36.9564789 42.9052439,33.2674443 C46.7635993,29.5784097 47.051567,23.5119255 43.56,19.474 L44.937,18.02 C49.1825043,22.8094197 48.8969848,30.0944204 44.2896576,34.5368729 C39.6823304,38.9793254 32.391764,38.9992978 27.760166,34.5821553 C23.128568,30.1650128 22.8031387,22.8816857 27.0223383,18.0690771 C31.241538,13.2564684 38.5048334,12.6261537 43.49,16.64 L42.107,18.099 Z" id="Shape"/><path d="M12.167,18.794 L12.267,18.361 C12.4422611,17.5251451 12.6656327,16.7001058 12.936,15.89 C13.5388535,14.2207868 14.4721212,12.6902822 15.68,11.39 C16.9762482,10.1677817 18.56299,9.29662258 20.29,8.859 C20.6317245,8.75467845 20.8918361,8.47597349 20.9723533,8.12787058 C21.0528705,7.77976768 20.9415607,7.41515194 20.6803533,7.17137058 C20.4191459,6.92758923 20.0477245,6.84167845 19.706,6.946 C17.6458677,7.48195529 15.7585511,8.5396103 14.226,10.017 C12.8329407,11.5140596 11.7564386,13.2769381 11.061,15.2 C10.7612456,16.087314 10.5141488,16.9915545 10.321,17.908 L10.221,18.341 C10.1285742,18.6929446 10.2346177,19.0673168 10.4978861,19.3185085 C10.7611546,19.5697002 11.1400903,19.6580601 11.4873103,19.5492217 C11.8345303,19.4403832 12.095225,19.1515268 12.168,18.795 L12.167,18.794 Z" id="Shape"/><circle id="Oval" cx="10" cy="22" r="1"/></g></g></svg>
