<svg xmlns="http://www.w3.org/2000/svg" width="512" height="512" viewBox="0 0 512 512">
  <path fill="#c70efe" d="M440,6.5 L24,246.4 C-10.4,266.3 -7.1,317.2 29.7,332.3 L144,379.6 L144,464 C144,510.4 203.2,529.5 230.6,492.6 L274.4,433.5 L386.3,479.7 C392.2,482.1 398.4,483.3 404.6,483.3 C412.8,483.3 420.9,481.2 428.2,477.1 C441,469.9 449.8,457.1 452.1,442.6 L511.5,55.4 C517.6,15.3 474.6,-13.4 440,6.5 L440,6.5 Z M192,464 L192,399.4 L228.6,414.5 L192,464 Z M404.6,435.3 L250.8,371.8 L391,169.5 C401.7,154 381.5,136 367.3,148.3 L155.8,332.6 L48,288 L464,48 L404.6,435.3 Z"/>
</svg>
