<?xml version="1.0" encoding="UTF-8"?>
<svg width="16px" height="14px" viewBox="0 0 16 14" version="1.1" xmlns="http://www.w3.org/2000/svg" xmlns:xlink="http://www.w3.org/1999/xlink">
    <!-- Generator: Sketch 51.3 (57544) - http://www.bohemiancoding.com/sketch -->
    <title>XMLID_497_</title>
    <desc>Created with Sketch.</desc>
    <defs></defs>
    <g id="UI-kit" stroke="none" stroke-width="1" fill="none" fill-rule="evenodd" fill-opacity="0.5">
        <g id="Соц.-сети_b" transform="translate(-153.000000, -2.000000)" fill="#707070">
            <path d="M153.282608,8.71294914 L156.969332,10.0957974 L158.396321,14.7078107 C158.487628,15.0031936 158.847042,15.1123742 159.085602,14.9163635 L161.140645,13.232719 C161.356058,13.0563254 161.662885,13.0475352 161.888005,13.2117619 L165.59457,15.916195 C165.849771,16.1026115 166.211318,15.9620755 166.275318,15.6521675 L168.990575,2.52631115 C169.060442,2.18778132 168.729454,1.90536941 168.408707,2.03004014 L153.278288,7.89594309 C152.9049,8.04065977 152.908154,8.57193078 153.282608,8.71294914 Z M158.166347,9.3596719 L165.371583,4.89987907 C165.501077,4.8199633 165.634304,4.99592806 165.523104,5.09958808 L159.576696,10.6545646 C159.367682,10.8500929 159.232855,11.1117621 159.194669,11.395782 L158.992108,12.9043729 C158.965282,13.1057971 158.683735,13.1257894 158.628428,12.9308507 L157.849387,10.1798939 C157.76016,9.86612667 157.890187,9.53097356 158.166347,9.3596719 Z" id="XMLID_497_"></path>
        </g>
    </g>
</svg>
