<?xml version="1.0" encoding="UTF-8"?>
<svg width="16px" height="9px" viewBox="0 0 16 9" version="1.1" xmlns="http://www.w3.org/2000/svg" xmlns:xlink="http://www.w3.org/1999/xlink">
    <!-- Generator: Sketch 51.2 (57519) - http://www.bohemiancoding.com/sketch -->
    <title>vk</title>
    <desc>Created with Sketch.</desc>
    <defs></defs>
    <g id="Page-1" stroke="none" stroke-width="1" fill="none" fill-rule="evenodd">
        <g id="Styles" transform="translate(-127.000000, -2141.000000)" fill="#707070">
            <path d="M142.857387,2149.02743 C142.814384,2148.95645 142.548365,2148.38659 141.268271,2147.21531 C139.928172,2145.98883 140.108185,2146.18799 141.722304,2144.06728 C142.705376,2142.77572 143.098405,2141.98699 142.975396,2141.6498 C142.858387,2141.32839 142.135334,2141.41318 142.135334,2141.41318 L139.731158,2141.42699 C139.731158,2141.42699 139.553145,2141.40332 139.420135,2141.48121 C139.291125,2141.55811 139.208119,2141.73558 139.208119,2141.73558 C139.208119,2141.73558 138.827091,2142.7353 138.319054,2143.58516 C137.247975,2145.37855 136.818944,2145.4732 136.643931,2145.36179 C136.236901,2145.10249 136.338909,2144.31869 136.338909,2143.76263 C136.338909,2142.02445 136.605928,2141.2998 135.81787,2141.11248 C135.555851,2141.05037 135.363837,2141.00896 134.694788,2141.00206 C133.836725,2140.99318 133.109672,2141.00501 132.698642,2141.20318 C132.424621,2141.3353 132.213606,2141.63009 132.342615,2141.64685 C132.501627,2141.66755 132.861654,2141.74248 133.052668,2141.99882 C133.299686,2142.3291 133.290685,2143.07248 133.290685,2143.07248 C133.290685,2143.07248 133.432695,2145.11827 132.959661,2145.37263 C132.634637,2145.54714 132.189604,2145.19122 131.234534,2143.56347 C130.745498,2142.73037 130.375471,2141.80854 130.375471,2141.80854 C130.375471,2141.80854 130.304466,2141.63699 130.177456,2141.5453 C130.023445,2141.43389 129.807429,2141.39839 129.807429,2141.39839 L127.521262,2141.4122 C127.521262,2141.4122 127.178236,2141.42206 127.052227,2141.56896 C126.940219,2141.70009 127.043226,2141.97023 127.043226,2141.97023 C127.043226,2141.97023 128.833358,2146.09827 130.859507,2148.17954 C132.718643,2150.0873 134.828798,2149.96208 134.828798,2149.96208 L135.784868,2149.96208 C135.784868,2149.96208 136.073889,2149.93053 136.2209,2149.77377 C136.35691,2149.62983 136.35191,2149.35969 136.35191,2149.35969 C136.35191,2149.35969 136.332908,2148.09475 136.928952,2147.90842 C137.515995,2147.72503 138.27005,2149.13095 139.069109,2149.67222 C139.673153,2150.08138 140.132187,2149.99166 140.132187,2149.99166 L142.269344,2149.96208 C142.269344,2149.96208 143.387426,2149.89406 142.857387,2149.02743 Z" id="vk"></path>
        </g>
    </g>
</svg>
