<?xml version="1.0" encoding="UTF-8"?>
<svg width="44px" height="44px" viewBox="0 0 44 44" version="1.1" xmlns="http://www.w3.org/2000/svg" xmlns:xlink="http://www.w3.org/1999/xlink">
    <!-- Generator: Sketch 51.3 (57544) - http://www.bohemiancoding.com/sketch -->
    <title>vk</title>
    <desc>Created with Sketch.</desc>
    <defs></defs>
    <g id="Page-1" stroke="none" stroke-width="1" fill="none" fill-rule="evenodd">
        <g id="Главная-страница" transform="translate(-97.000000, -1955.000000)">
            <g id="Проекты" transform="translate(-1.000000, 1025.000000)">
                <g id="Проекты-Copy" transform="translate(15.000000, 0.000000)">
                    <g id="Контент-Copy" transform="translate(0.000000, 20.000000)">
                        <g id="Контакты" transform="translate(85.000913, 912.000000)">
                            <g id="Социальные-сети">
                                <g id="vk">
                                    <ellipse id="Oval-2" stroke="#FFFFFF" stroke-width="3" cx="20.0002147" cy="20" rx="20.0002147" ry="20"></ellipse>
                                    <path d="M30.7864113,26.5951783 C30.7219061,26.4926516 30.3228733,25.6695201 28.4027117,23.9776705 C26.3925416,22.2060876 26.662564,22.4937633 29.0837685,19.4305142 C30.5583923,17.5649268 31.1479421,16.4256497 30.9634267,15.9385973 C30.7879113,15.4743382 29.7033201,15.5968127 29.7033201,15.5968127 L26.0970174,15.6167605 C26.0970174,15.6167605 25.829995,15.5825704 25.6304779,15.6950783 C25.4369608,15.8061561 25.3124505,16.0625017 25.3124505,16.0625017 C25.3124505,16.0625017 24.7409023,17.5065423 23.9788386,18.7341184 C22.3722029,21.3245717 21.7286495,21.4612884 21.4661272,21.3003628 C20.8555756,20.9258182 21.0085892,19.7936622 21.0085892,18.9904641 C21.0085892,16.4797586 21.409122,15.4330415 20.2270223,15.162468 C19.8339896,15.0727536 19.5459655,15.0129391 18.5423812,15.0029724 C17.2552729,14.9901458 16.1646817,15.0072335 15.5481301,15.2934792 C15.1370942,15.4843193 14.8205683,15.9101272 15.0140839,15.9343361 C15.2526044,15.9642361 15.7926507,16.0724684 16.0791748,16.4427375 C16.4497058,16.9198088 16.4362041,17.9935803 16.4362041,17.9935803 C16.4362041,17.9935803 16.6492214,20.9486115 15.9396628,21.3160206 C15.4521216,21.5680907 14.7845649,21.0539838 13.3519445,18.7027884 C12.6183826,17.4994212 12.0633362,16.1678885 12.0633362,16.1678885 C12.0633362,16.1678885 11.9568275,15.9200939 11.7663105,15.7876527 C11.5352915,15.6267271 11.211264,15.5754493 11.211264,15.5754493 L7.78197668,15.5953971 C7.78197668,15.5953971 7.26743215,15.6096393 7.07841662,15.8218283 C6.91040281,16.0112384 7.06491497,16.4014408 7.06491497,16.4014408 C7.06491497,16.4014408 9.75014181,22.3641677 12.789398,25.3704478 C15.5781319,28.1261022 18.7433984,27.9452288 18.7433984,27.9452288 L20.1775188,27.9452288 C20.1775188,27.9452288 20.611055,27.8996566 20.8315738,27.6732254 C21.035591,27.465312 21.0280909,27.0751096 21.0280909,27.0751096 C21.0280909,27.0751096 20.9995876,25.2479733 21.8936632,24.9788298 C22.7742372,24.7139331 23.9053318,26.7447072 25.1039332,27.526542 C26.010009,28.1175511 26.6985674,27.9879555 26.6985674,27.9879555 L29.9043373,27.9452288 C29.9043373,27.9452288 31.5814783,27.8469777 30.7864113,26.5951783 Z" fill="#FFFFFF" fill-rule="nonzero"></path>
                                </g>
                            </g>
                        </g>
                    </g>
                </g>
            </g>
        </g>
    </g>
</svg>