<?xml version="1.0" standalone="no"?>
<!DOCTYPE svg PUBLIC "-//W3C//DTD SVG 1.1//EN" "http://www.w3.org/Graphics/SVG/1.1/DTD/svg11.dtd" >
<svg xmlns="http://www.w3.org/2000/svg" xmlns:xlink="http://www.w3.org/1999/xlink" version="1.1">
<metadata>
Created by FontForge 20170910 at Thu Jan 21 14:58:43 2010
 By Jimmy Wärting
The first three weights of the family were designed at ParaType (ParaGraph) in 1997 by Dmitry Kirsanov. They were based on the artworks of Moscow graphic designer Andrey Kryukov (1923-1997). The original version was developed by Kryukov in the end of sixties for Russian railways. The proportions and elements of construction was inspired by Eurostile (1962) by Aldo Novarese. For use in advertising and display typography. In 2009 Dmitry together with adding the new styles corrected the old ones and enhanced them with extended character set.
</metadata>
<defs>
<font id="MagistralCond-ExtraBold" horiz-adv-x="690" >
  <font-face 
    font-family="Magistral Cond Extra Bold"
    font-weight="800"
    font-stretch="condensed"
    units-per-em="1000"
    panose-1="2 11 9 6 3 2 4 8 3 4"
    ascent="800"
    descent="-200"
    x-height="530"
    cap-height="700"
    bbox="-495 -371 1128 1005"
    underline-thickness="50"
    underline-position="-100"
    stemh="174"
    stemv="196"
    unicode-range="U+0020-FB02"
  />
<missing-glyph horiz-adv-x="233" 
 />
    <glyph glyph-name="afii10017.var.accented" unicode="&#x410;`" 
d="M-14 0l199 623c25 77 80 85 160 85s135 -8 160 -85l199 -623h-238l-35 144h-172l-35 -144h-238zM336 481l-49 -183h116l-49 183c-1 6 -4 15 -9 15s-7 -9 -9 -15zM393 997l97 -99l-172 -158l-97 98z" />
    <glyph glyph-name="afii10022.var.accented" unicode="&#x415;`" horiz-adv-x="570" 
d="M536 700v-170h-226c-30 0 -44 -14 -44 -44v-52h262v-154h-262v-66c0 -30 14 -44 44 -44h230v-170h-380c-70 0 -110 40 -110 110v480c0 70 40 110 110 110h376zM343 997l97 -99l-172 -158l-97 98z" />
    <glyph glyph-name="afii10026.var.accented" unicode="&#x418;`" horiz-adv-x="742" 
d="M692 0h-210l10 401c0 15 0 26 -10 26c-7 0 -13 -13 -22 -44l-93 -320c-20 -67 -85 -71 -161 -71c-138 0 -156 83 -156 168v540h210l-10 -391c0 -19 0 -35 10 -35c7 0 12 13 18 35l87 317c22 81 101 82 161 82c160 0 166 -115 166 -173v-535zM409 997l97 -99l-172 -158
l-97 98z" />
    <glyph glyph-name="afii10032.var.accented" unicode="&#x41e;`" 
d="M345 708c250 0 315 -58 315 -358s-65 -358 -315 -358s-315 58 -315 358s65 358 315 358zM252 350c0 -120 3 -184 93 -184s93 64 93 184s-3 184 -93 184s-93 -64 -93 -184zM383 997l97 -99l-172 -158l-97 98z" />
    <glyph glyph-name="afii10037.var.accented" unicode="&#x423;`" horiz-adv-x="664" 
d="M391 0h-246l82 179l-241 521h252l107 -298l87 298h246zM369 997l97 -99l-172 -158l-97 98z" />
    <glyph glyph-name="afii10045.var.accented" unicode="&#x42b;`" horiz-adv-x="966" 
d="M916 0h-216v700h216v-700zM50 700h216v-242h174c160 0 190 -80 190 -230s-30 -228 -190 -228h-280c-70 0 -110 40 -110 110v590zM324 288h-58v-74c0 -30 14 -44 44 -44h14c60 0 90 8 90 58s-30 60 -90 60zM521 997l97 -99l-172 -158l-97 98z" />
    <glyph glyph-name="afii10047.var.accented" unicode="&#x42d;`" horiz-adv-x="542" 
d="M216 0h-186v174h80c122 0 172 17 176 104h-236v158h233c-7 74 -58 90 -173 90h-70v174h176c230 0 296 -110 296 -350s-66 -350 -296 -350zM314 997l97 -99l-172 -158l-97 98z" />
    <glyph glyph-name="afii10048.var.accented" unicode="&#x42e;`" horiz-adv-x="1010" 
d="M665 708c250 0 315 -58 315 -358s-65 -358 -315 -358c-230 0 -303 49 -314 289h-85v-281h-216v700h216v-264h86c13 225 89 272 313 272zM572 350c0 -120 3 -184 93 -184s93 64 93 184s-3 184 -93 184s-93 -64 -93 -184zM553 997l97 -99l-172 -158l-97 98z" />
    <glyph glyph-name="afii10049.var.accented" unicode="&#x42f;`" horiz-adv-x="699" 
d="M649 590v-590h-216v482c0 30 -14 44 -44 44h-69c-60 0 -70 -16 -70 -76s10 -79 70 -79h4c60 0 71 -19 71 -79v-25c0 -40 -14 -68 -36 -105l-97 -162h-242l154 209v4h-6c-120 0 -134 149 -134 249c0 150 30 238 180 238h325c70 0 110 -40 110 -110zM402 997l97 -99
l-172 -158l-97 98z" />
    <glyph glyph-name="afii10023.var.accented" unicode="&#x401;`" horiz-adv-x="570" 
d="M536 700v-170h-226c-30 0 -44 -14 -44 -44v-52h262v-154h-262v-66c0 -30 14 -44 44 -44h230v-170h-380c-70 0 -110 40 -110 110v480c0 70 40 110 110 110h376zM530 756h-132v129h132v-129zM193 756h-133v129h133v-129zM315 988l99 -54l-114 -212l-99 52z" />
    <glyph glyph-name="afii10065.var.accented" unicode="&#x430;`" horiz-adv-x="550" 
d="M60 530h272c110 0 180 -70 180 -180v-240c0 -70 -40 -110 -110 -110h-248c-100 0 -130 58 -130 168c0 100 30 164 130 164h162v10c0 35 -23 52 -60 52h-196v136zM316 208h-49c-34 0 -47 -19 -47 -43c0 -18 8 -41 45 -41h11c30 0 40 16 40 46v38zM333 825l87 -97
l-182 -158l-87 96z" />
    <glyph glyph-name="afii10070.var.accented" unicode="&#x435;`" horiz-adv-x="553" 
d="M510 0h-275c-160 0 -205 48 -205 268c0 230 35 268 255 268c180 0 244 -16 244 -216c0 -60 -14 -118 -84 -118h-219c0 -50 27 -66 97 -66h187v-136zM226 326h75c32 0 32 23 32 33c0 38 -18 41 -48 41c-40 0 -59 -8 -59 -74zM334 825l87 -97l-182 -158l-87 96z" />
    <glyph glyph-name="afii10074.var.accented" unicode="&#x438;`" horiz-adv-x="587" 
d="M549 0h-176l6 255c0 9 0 16 -8 16c-7 0 -11 -5 -16 -16l-106 -215c-21 -43 -56 -46 -99 -46c-63 0 -112 17 -112 100v436h176l-6 -255c0 -10 1 -15 9 -15s13 8 16 15l110 221c18 36 41 40 92 40c92 0 114 -39 114 -106v-430zM341 825l87 -97l-182 -158l-87 96z" />
    <glyph glyph-name="afii10080.var.accented" unicode="&#x43e;`" horiz-adv-x="590" 
d="M295 536c210 0 271 -51 271 -271s-61 -271 -271 -271s-271 51 -271 271s61 271 271 271zM224 265c0 -80 1 -131 71 -131s71 51 71 131s-1 131 -71 131s-71 -51 -71 -131zM353 825l87 -97l-182 -158l-87 96z" />
    <glyph glyph-name="afii10085.var.accented" unicode="&#x443;`" horiz-adv-x="552" 
d="M566 530l-236 -701h-196l73 171l-221 530h206l102 -316l70 316h202zM344 825l87 -97l-182 -158l-87 96z" />
    <glyph glyph-name="afii10093.var.accented" unicode="&#x44b;`" horiz-adv-x="836" 
d="M602 0v530h196v-530h-196zM412 0h-269c-62 0 -105 38 -105 105v425h196v-168h178c120 0 142 -71 142 -181s-22 -181 -142 -181zM234 226v-50c0 -30 10 -40 40 -40h28c40 0 52 15 52 45s-12 45 -52 45h-68zM476 825l87 -97l-182 -158l-87 96z" />
    <glyph glyph-name="afii10095.var.accented" unicode="&#x44d;`" horiz-adv-x="462" 
d="M218 0h-194v136h124c60 0 86 19 86 66h-196v130h193c-2 41 -28 62 -83 62h-116v136h186c180 0 220 -106 220 -266s-40 -264 -220 -264zM279 825l87 -97l-182 -158l-87 96z" />
    <glyph glyph-name="afii10096.var.accented" unicode="&#x44e;`" horiz-adv-x="840" 
d="M551 536c200 0 265 -51 265 -271s-65 -271 -265 -271c-182 0 -255 42 -266 217h-57v-211h-190v530h190v-195h58c14 161 89 201 265 201zM480 265c0 -80 1 -131 71 -131s71 51 71 131s-1 131 -71 131s-71 -51 -71 -131zM488 825l87 -97l-182 -158l-87 96z" />
    <glyph glyph-name="afii10097.var.accented" unicode="&#x44f;`" horiz-adv-x="589" 
d="M20 0l115 181c3 3 5 7 5 11c0 6 -9 6 -13 6h-5c-70 0 -101 82 -101 172s40 160 130 160h290c70 0 110 -40 110 -110v-420h-196v352c0 30 -14 44 -44 44h-50c-30 0 -44 -14 -44 -44s14 -41 44 -41h4c50 0 64 -11 64 -61c0 -40 -7 -68 -27 -105l-82 -145h-200zM350 825
l87 -97l-182 -158l-87 96z" />
    <glyph glyph-name="afii10071.var.accented" unicode="&#x451;`" horiz-adv-x="553" 
d="M510 0h-275c-160 0 -205 48 -205 268c0 230 35 268 255 268c180 0 244 -16 244 -216c0 -60 -14 -118 -84 -118h-219c0 -50 27 -66 97 -66h187v-136zM226 326h75c32 0 32 23 32 33c0 38 -18 41 -48 41c-40 0 -59 -8 -59 -74zM391 600v128h133v-128h-133zM167 600h-133v128
h133v-128zM298 820l97 -54l-114 -206l-97 52z" />
    <glyph glyph-name="fi" unicode="fi" horiz-adv-x="632" 
d="M269 0h-196v390h-69v140h69c10 178 133 178 293 178v-122c-70 0 -97 0 -97 -56h97v-140h-97v-390zM398 0v530h196v-530h-196zM594 586h-196v122h196v-122z" />
    <glyph glyph-name="fl" unicode="fl" horiz-adv-x="632" 
d="M269 0h-196v390h-69v140h69c10 178 133 178 293 178v-122c-70 0 -97 0 -97 -56h97v-140h-97v-390zM398 0v700h196v-700h-196z" />
    <glyph glyph-name=".notdef" horiz-adv-x="233" 
 />
    <glyph glyph-name="space" unicode=" " horiz-adv-x="233" 
 />
    <glyph glyph-name="exclam" unicode="!" horiz-adv-x="308" 
d="M66 0v182h176v-182h-176zM238 241h-168l-20 459h208z" />
    <glyph glyph-name="quotedbl" unicode="&#x22;" horiz-adv-x="503" 
d="M62 375l-12 325h166l-12 -325h-142zM299 375l-12 325h166l-12 -325h-142z" />
    <glyph glyph-name="numbersign" unicode="#" horiz-adv-x="903" 
d="M81 0l68 166h-126l50 130h127l49 117h-127l51 130h126l65 157h150l-64 -157h153l64 157h150l-63 -157h126l-50 -130h-127l-48 -117h126l-51 -130h-126l-68 -166h-151l68 166h-153l-69 -166h-150zM504 296l49 117h-154l-49 -117h154z" />
    <glyph glyph-name="dollar" unicode="$" horiz-adv-x="582" 
d="M27 0v174h278c33 0 39 9 39 20c0 17 -22 27 -45 37l-171 76c-89 40 -108 109 -108 209c0 110 34 184 154 184h66v72h96v-72h200v-174h-256c-20 0 -48 0 -48 -18c0 -20 34 -31 59 -43l136 -63c103 -48 135 -89 135 -209s-30 -193 -160 -193h-66v-72h-96v72h-213z" />
    <glyph glyph-name="percent" unicode="%" horiz-adv-x="788" 
d="M170 0l346 700h104l-346 -700h-104zM186 706c126 0 155 -46 155 -170s-29 -169 -155 -169s-156 45 -156 169s30 170 156 170zM140 536c0 -54 8 -75 46 -75s45 21 45 75s-7 76 -45 76s-46 -22 -46 -76zM603 333c126 0 155 -46 155 -170s-29 -169 -155 -169
s-156 45 -156 169s30 170 156 170zM557 163c0 -54 8 -75 46 -75s45 21 45 75s-7 76 -45 76s-46 -22 -46 -76z" />
    <glyph glyph-name="ampersand" unicode="&#x26;" horiz-adv-x="694" 
d="M613 276v-66c0 -160 -40 -210 -200 -210h-170c-130 0 -193 51 -193 191c0 80 9 152 101 160v4c-78 14 -99 75 -99 155c0 140 41 190 191 190h347v-174h-248c-40 0 -78 0 -78 -48s38 -48 78 -48h352v-154h-81zM342 174h10c36 0 45 8 45 44v58h-55c-40 0 -80 0 -80 -50
c0 -52 40 -52 80 -52z" />
    <glyph glyph-name="quotesingle" unicode="'" horiz-adv-x="268" 
d="M63 375l-13 325h168l-13 -325h-142z" />
    <glyph glyph-name="parenleft" unicode="(" horiz-adv-x="311" 
d="M190 386v-228c0 -130 1 -192 91 -192v-130c-220 0 -231 102 -231 322v228c0 220 11 322 231 322v-130c-91 0 -91 -62 -91 -192z" />
    <glyph glyph-name="parenright" unicode=")" horiz-adv-x="311" 
d="M121 158v228c0 130 0 192 -91 192v130c220 0 231 -102 231 -322v-228c0 -220 -11 -322 -231 -322v130c90 0 91 62 91 192z" />
    <glyph glyph-name="asterisk" unicode="*" horiz-adv-x="492" 
d="M31 423l120 70l-121 69l47 81l120 -70v140h97v-138l118 69l49 -83l-120 -70l121 -69l-47 -82l-121 70v-139h-97v138l-120 -69z" />
    <glyph glyph-name="plus" unicode="+" horiz-adv-x="588" 
d="M362 12h-136v235h-176v130h176v235h136v-235h176v-130h-176v-235z" />
    <glyph glyph-name="comma" unicode="," horiz-adv-x="336" 
d="M118 -141l-118 70l153 256l133 -80z" />
    <glyph glyph-name="hyphen" unicode="-" horiz-adv-x="408" 
d="M30 189v158h348v-158h-348z" />
    <glyph glyph-name="period" unicode="." horiz-adv-x="278" 
d="M228 0h-178v180h178v-180z" />
    <glyph glyph-name="slash" unicode="/" horiz-adv-x="458" 
d="M120 -170h-120l338 910h120z" />
    <glyph glyph-name="zero" unicode="0" horiz-adv-x="624" 
d="M312 708c210 0 282 -43 282 -283v-144c0 -250 -72 -289 -282 -289s-282 39 -282 289v144c0 240 72 283 282 283zM312 172c60 0 66 39 66 109v144c0 60 -6 103 -66 103s-66 -43 -66 -103v-144c0 -70 6 -109 66 -109z" />
    <glyph glyph-name="one" unicode="1" horiz-adv-x="373" 
d="M97 0v468c0 30 -2 58 -42 58h-55v174h211c70 0 112 -44 112 -114v-586h-226z" />
    <glyph glyph-name="two" unicode="2" horiz-adv-x="536" 
d="M109 0c-75 0 -89 65 -89 129c0 48 17 96 61 136l184 170c20 19 35 39 35 56c0 30 -22 35 -62 35h-197v174h315c130 0 160 -60 160 -190c0 -111 -50 -159 -96 -204l-113 -113c-3 -4 -8 -7 -8 -12c0 -3 1 -4 7 -4h208v-177h-405z" />
    <glyph glyph-name="three" unicode="3" horiz-adv-x="559" 
d="M30 0v166h200c50 0 77 15 77 55s-27 54 -77 54h-183v154h173c40 0 71 16 71 56s-31 49 -71 49h-182v166h316c110 0 155 -60 155 -180c0 -90 -24 -145 -113 -159v-4c95 -8 133 -48 133 -158c0 -120 -35 -199 -175 -199h-324z" />
    <glyph glyph-name="four" unicode="4" horiz-adv-x="616" 
d="M319 0v95h-214c-80 0 -95 72 -95 141c0 62 31 107 54 140l189 277c32 47 72 55 157 55c70 0 127 -13 127 -103v-326h69v-184h-69v-95h-218zM329 279v155c0 9 -3 14 -9 14c-7 0 -15 -13 -19 -20l-78 -127c-3 -5 -7 -11 -7 -14c0 -4 1 -8 13 -8h100z" />
    <glyph glyph-name="five" unicode="5" horiz-adv-x="562" 
d="M30 0v166h215c40 0 65 15 65 55s-25 54 -65 54h-91c-90 0 -124 41 -124 141v172c0 80 44 112 124 112h360v-166h-217c-30 0 -51 -12 -51 -52s21 -53 51 -53h63c140 0 172 -66 172 -216s-32 -213 -172 -213h-330z" />
    <glyph glyph-name="six" unicode="6" horiz-adv-x="632" 
d="M256 429h176c130 0 170 -64 170 -198c0 -129 -20 -231 -175 -231h-213c-120 0 -174 68 -174 188v327c0 120 54 185 174 185h362v-166h-253c-40 0 -67 -6 -67 -46v-59zM256 275v-59c0 -40 12 -56 52 -56h12c40 0 60 24 60 58s-20 57 -60 57h-64z" />
    <glyph glyph-name="seven" unicode="7" horiz-adv-x="513" 
d="M28 0l225 497c5 11 8 17 8 21c0 6 -4 8 -23 8h-228v174h401c84 0 92 -46 92 -87c0 -39 -14 -77 -29 -114l-206 -499h-240z" />
    <glyph glyph-name="eight" unicode="8" horiz-adv-x="648" 
d="M283 700h82c170 0 237 -25 237 -195c0 -80 -20 -131 -94 -145v-4c90 -13 110 -66 110 -166c0 -160 -69 -190 -230 -190h-128c-140 0 -230 30 -230 190c0 100 13 150 110 166v4c-70 11 -94 65 -94 145c0 170 67 195 237 195zM318 430h12c40 0 50 25 50 55s-10 55 -50 55
h-12c-40 0 -50 -25 -50 -55s10 -55 50 -55zM314 160h19c40 0 63 19 63 59s-23 59 -62 59h-20c-40 0 -62 -19 -62 -59s22 -59 62 -59z" />
    <glyph glyph-name="nine" unicode="9" horiz-adv-x="632" 
d="M376 271h-176c-130 0 -170 64 -170 198c0 129 20 231 175 231h213c120 0 174 -68 174 -188v-327c0 -120 -54 -185 -174 -185h-362v166h253c40 0 67 6 67 46v59zM376 425v59c0 40 -12 56 -52 56h-12c-40 0 -60 -24 -60 -58s20 -57 60 -57h64z" />
    <glyph glyph-name="colon" unicode=":" horiz-adv-x="278" 
d="M228 350h-178v180h178v-180zM228 0h-178v180h178v-180z" />
    <glyph glyph-name="semicolon" unicode=";" horiz-adv-x="339" 
d="M120 -143l-120 72l153 256l136 -82zM289 356h-176v174h176v-174z" />
    <glyph glyph-name="less" unicode="&#x3c;" horiz-adv-x="609" 
d="M50 317l509 310v-142l-293 -168l293 -168v-142z" />
    <glyph glyph-name="equal" unicode="=" horiz-adv-x="588" 
d="M538 151h-488v130h488v-130zM538 355h-488v130h488v-130z" />
    <glyph glyph-name="greater" unicode="&#x3e;" horiz-adv-x="609" 
d="M559 317l-509 -310v142l293 168l-293 168v142z" />
    <glyph glyph-name="question" unicode="?" horiz-adv-x="470" 
d="M94 0v182h186v-182h-186zM280 241h-186v35c0 60 8 85 55 117l31 21c40 27 46 41 46 71c0 40 -27 41 -67 41h-149v174h283c110 0 147 -46 147 -166c0 -93 -21 -139 -77 -176l-50 -34c-19 -12 -33 -36 -33 -66v-17z" />
    <glyph glyph-name="at" unicode="@" horiz-adv-x="984" 
d="M662 -189h-242c-280 0 -350 146 -350 446s71 445 351 445h136c280 0 357 -146 357 -399c0 -121 -3 -302 -172 -302c-60 0 -124 25 -140 88c-45 -80 -90 -88 -133 -88c-165 0 -198 106 -198 256s46 265 216 265h98c60 0 100 -12 100 -92v-237c0 -57 20 -84 56 -84
c53 0 53 94 53 194c0 184 -30 285 -230 285h-144c-200 0 -230 -101 -230 -331s30 -332 230 -332h242v-114zM553 372c0 23 -17 32 -41 32h-9c-90 0 -96 -57 -96 -147c0 -70 4 -138 64 -138c70 0 82 62 82 138v115z" />
    <glyph glyph-name="A" unicode="A" 
d="M-14 0l199 623c25 77 80 85 160 85s135 -8 160 -85l199 -623h-238l-35 144h-172l-35 -144h-238zM336 481l-49 -183h116l-49 183c-1 6 -4 15 -9 15s-8 -9 -9 -15z" />
    <glyph glyph-name="B" unicode="B" horiz-adv-x="665" 
d="M260 277v-63c0 -40 10 -50 50 -50h43c40 0 66 17 66 57s-26 56 -66 56h-93zM260 496v-65h84c40 0 61 13 61 53s-22 52 -62 52h-43c-30 0 -40 -10 -40 -40zM524 356c99 -18 111 -70 111 -160c0 -130 -30 -196 -180 -196h-295c-70 0 -110 40 -110 110v480
c0 70 40 110 110 110h275c140 0 184 -56 184 -196c0 -70 -16 -129 -95 -144v-4z" />
    <glyph glyph-name="C" unicode="C" horiz-adv-x="536" 
d="M512 0h-186c-230 0 -296 110 -296 350s66 350 296 350h176v-174h-80c-130 0 -170 -26 -170 -176s40 -176 170 -176h90v-174z" />
    <glyph glyph-name="D" unicode="D" horiz-adv-x="668" 
d="M352 0h-192c-70 0 -110 40 -110 110v480c0 70 40 110 110 110h192c230 0 286 -110 286 -350s-56 -350 -286 -350zM266 476v-252c0 -36 14 -50 50 -50h10c50 0 90 16 90 176c0 157 -48 176 -90 176h-10c-36 0 -50 -14 -50 -50z" />
    <glyph glyph-name="E" unicode="E" horiz-adv-x="570" 
d="M536 700v-170h-226c-30 0 -44 -14 -44 -44v-52h262v-154h-262v-66c0 -30 14 -44 44 -44h230v-170h-380c-70 0 -110 40 -110 110v480c0 70 40 110 110 110h376z" />
    <glyph glyph-name="F" unicode="F" horiz-adv-x="546" 
d="M266 0h-216v590c0 70 40 110 110 110h376v-170h-226c-30 0 -44 -14 -44 -44v-52h185v-170h-185v-264z" />
    <glyph glyph-name="G" unicode="G" horiz-adv-x="630" 
d="M584 526h-252c-60 0 -80 -36 -80 -176s20 -176 80 -176h8c30 0 44 14 44 44v152h216v-260c0 -70 -40 -110 -110 -110h-164c-230 0 -296 110 -296 350s66 350 296 350h258v-174z" />
    <glyph glyph-name="H" unicode="H" horiz-adv-x="666" 
d="M616 700v-700h-216v278h-134v-278h-216v700h216v-248h134v248h216z" />
    <glyph glyph-name="I" unicode="I" horiz-adv-x="326" 
d="M276 0h-226v700h226v-700z" />
    <glyph glyph-name="J" unicode="J" horiz-adv-x="412" 
d="M0 0v174h6c120 0 140 40 140 160v366h216v-450c0 -150 -90 -250 -240 -250h-122z" />
    <glyph glyph-name="K" unicode="K" horiz-adv-x="667" 
d="M683 0h-242l-122 271c-13 28 -21 55 -21 88c0 27 4 56 12 77l98 264h238l-133 -289c-7 -13 -11 -31 -11 -50c0 -15 7 -33 19 -55zM50 0v700h216v-700h-216z" />
    <glyph glyph-name="L" unicode="L" horiz-adv-x="536" 
d="M536 0h-376c-70 0 -110 40 -110 110v590h216v-482c0 -30 14 -44 44 -44h226v-174z" />
    <glyph glyph-name="M" unicode="M" horiz-adv-x="952" 
d="M669 424l-68 -338c-11 -53 -26 -94 -125 -94s-114 41 -125 94l-68 338c-3 14 -8 25 -13 25c-9 0 -9 -15 -9 -23l7 -426h-218v585c0 123 126 123 162 123c60 0 158 -2 180 -116l67 -340c4 -18 8 -30 17 -30s13 12 17 30l67 340c22 114 121 116 180 116
c159 0 162 -79 162 -123v-585h-218l8 426c0 10 -1 23 -9 23c-4 0 -8 -7 -14 -25z" />
    <glyph glyph-name="N" unicode="N" horiz-adv-x="724" 
d="M674 700v-583c0 -25 -5 -125 -142 -125c-73 0 -154 1 -182 89l-107 337c-3 11 -8 17 -15 17c-3 0 -14 0 -14 -20v-415h-164v584c0 91 66 124 147 124c57 0 151 -1 178 -85l109 -340c3 -11 7 -17 15 -17c11 0 11 12 11 17v417h164z" />
    <glyph glyph-name="O" unicode="O" 
d="M345 708c250 0 315 -58 315 -358s-65 -358 -315 -358s-315 58 -315 358s65 358 315 358zM252 350c0 -120 3 -184 93 -184s93 64 93 184s-3 184 -93 184s-93 -64 -93 -184z" />
    <glyph glyph-name="P" unicode="P" horiz-adv-x="661" 
d="M266 0h-216v590c0 70 40 110 110 110h287c160 0 190 -88 190 -248s-30 -250 -190 -250h-181v-202zM266 376h59c60 0 90 16 90 76s-30 74 -90 74h-15c-30 0 -44 -14 -44 -44v-106z" />
    <glyph glyph-name="Q" unicode="Q" horiz-adv-x="694" 
d="M345 708c260 0 315 -68 315 -358c0 -72 -12 -132 -35 -180v-4l49 8v-174h-329c-260 0 -315 60 -315 350s55 358 315 358zM252 350c0 -130 3 -176 93 -176s93 46 93 176s-3 184 -93 184s-93 -54 -93 -184z" />
    <glyph glyph-name="R" unicode="R" horiz-adv-x="699" 
d="M50 0v590c0 70 40 110 110 110h325c160 0 180 -88 180 -238c0 -110 -14 -249 -134 -249h-6v-4l154 -209h-242l-97 162c-22 36 -36 65 -36 105v25c0 60 11 79 71 79h4c60 0 70 19 70 79s-10 76 -70 76h-69c-30 0 -44 -14 -44 -44v-482h-216z" />
    <glyph glyph-name="S" unicode="S" horiz-adv-x="582" 
d="M27 0v174h278c33 0 39 9 39 20c0 17 -22 27 -45 37l-171 76c-89 40 -108 109 -108 209c0 110 34 184 154 184h362v-174h-256c-20 0 -48 0 -48 -18c0 -20 34 -31 59 -43l136 -63c103 -48 135 -89 135 -209s-30 -193 -160 -193h-375z" />
    <glyph glyph-name="T" unicode="T" horiz-adv-x="596" 
d="M406 0h-216v526h-190v174h596v-174h-190v-526z" />
    <glyph glyph-name="U" unicode="U" horiz-adv-x="666" 
d="M333 174c60 0 67 44 67 124v402h216v-420c0 -220 -63 -288 -283 -288s-283 68 -283 288v420h216v-402c0 -80 7 -124 67 -124z" />
    <glyph glyph-name="V" unicode="V" horiz-adv-x="650" 
d="M218 700l94 -475c3 -14 10 -15 13 -15s10 1 13 15l94 475h232l-163 -595c-20 -74 -66 -113 -176 -113s-156 40 -176 113l-163 595h232z" />
    <glyph glyph-name="W" unicode="W" horiz-adv-x="968" 
d="M290 274l65 358c13 73 89 76 129 76s116 -3 129 -76l65 -358c1 -8 7 -17 11 -17c3 0 10 2 13 21l56 422h220l-111 -563c-24 -123 -71 -145 -162 -145c-106 0 -150 43 -162 121l-49 304c-1 8 -5 18 -10 18s-9 -10 -10 -16l-49 -306c-13 -78 -56 -121 -162 -121
c-89 0 -138 23 -162 145l-111 563h220l56 -422c3 -19 10 -21 13 -21c4 0 10 9 11 17z" />
    <glyph glyph-name="X" unicode="X" horiz-adv-x="634" 
d="M654 0h-260l-77 197l-77 -197h-260l205 355l-197 345h260l69 -187l69 187h260l-197 -345z" />
    <glyph glyph-name="Y" unicode="Y" horiz-adv-x="622" 
d="M311 398l99 302h232l-223 -506v-194h-216v194l-223 506h232z" />
    <glyph glyph-name="Z" unicode="Z" horiz-adv-x="550" 
d="M538 0h-408c-40 0 -126 0 -126 92c0 60 51 124 78 163l170 243c4 6 9 12 9 20c0 7 -7 8 -18 8h-218v174h423c48 0 98 -14 98 -93c0 -48 -49 -118 -69 -146l-180 -261c-4 -6 -8 -11 -8 -16c0 -4 1 -10 12 -10h237v-174z" />
    <glyph glyph-name="bracketleft" unicode="[" horiz-adv-x="311" 
d="M190 578v-612h91v-130h-231v872h231v-130h-91z" />
    <glyph glyph-name="backslash" unicode="\" horiz-adv-x="458" 
d="M338 -170l-338 910h120l338 -910h-120z" />
    <glyph glyph-name="bracketright" unicode="]" horiz-adv-x="311" 
d="M121 -34v612h-91v130h231v-872h-231v130h91z" />
    <glyph glyph-name="asciicircum" unicode="^" horiz-adv-x="612" 
d="M494 505l-150 117c-9 7 -27 15 -36 15s-27 -8 -36 -15l-151 -117l-71 82l193 147c16 12 43 21 63 21s47 -9 63 -21l193 -147z" />
    <glyph glyph-name="underscore" unicode="_" horiz-adv-x="432" 
d="M30 0v158h372v-158h-372z" />
    <glyph glyph-name="grave" unicode="`" horiz-adv-x="339" 
d="M127 827l182 -159l-97 -98l-182 158z" />
    <glyph glyph-name="a" unicode="a" horiz-adv-x="550" 
d="M60 530h272c110 0 180 -70 180 -180v-240c0 -70 -40 -110 -110 -110h-248c-100 0 -130 58 -130 168c0 100 30 164 130 164h162v10c0 35 -23 52 -60 52h-196v136zM316 208h-49c-34 0 -47 -19 -47 -43c0 -18 8 -41 45 -41h11c30 0 40 16 40 46v38z" />
    <glyph glyph-name="b" unicode="b" horiz-adv-x="586" 
d="M352 0h-204c-70 0 -110 40 -110 110v590h196v-170h118c170 0 210 -105 210 -265s-40 -265 -210 -265zM234 390v-200c0 -40 10 -50 50 -50h6c64 0 72 61 72 125c0 51 -9 125 -68 125h-60z" />
    <glyph glyph-name="c" unicode="c" horiz-adv-x="457" 
d="M439 0h-195c-180 0 -220 104 -220 264s40 266 220 266h184v-140h-94c-80 0 -110 -46 -110 -126s30 -124 110 -124h105v-140z" />
    <glyph glyph-name="d" unicode="d" horiz-adv-x="586" 
d="M438 0h-205c-170 0 -209 105 -209 265s39 265 209 265h119v170h196v-590c0 -70 -40 -110 -110 -110zM352 190v200h-61c-59 0 -67 -74 -67 -125c0 -64 7 -125 71 -125h7c40 0 50 10 50 50z" />
    <glyph glyph-name="e" unicode="e" horiz-adv-x="553" 
d="M510 0h-275c-160 0 -205 48 -205 268c0 230 35 268 255 268c180 0 244 -16 244 -216c0 -60 -14 -118 -84 -118h-219c0 -50 27 -66 97 -66h187v-136zM226 326h75c32 0 32 23 32 33c0 38 -18 41 -48 41c-40 0 -59 -8 -59 -74z" />
    <glyph glyph-name="f" unicode="f" horiz-adv-x="370" 
d="M269 0h-196v390h-69v140h69c10 178 133 178 293 178v-122c-70 0 -97 0 -97 -56h97v-140h-97v-390z" />
    <glyph glyph-name="g" unicode="g" horiz-adv-x="586" 
d="M234 530h204c70 0 110 -40 110 -110v-370c0 -160 -70 -230 -230 -230h-267v128h211c42 0 77 5 90 52h-118c-170 0 -210 104 -210 264s40 266 210 266zM352 140v200c0 40 -10 50 -50 50h-6c-64 0 -72 -62 -72 -126c0 -51 9 -124 68 -124h60z" />
    <glyph glyph-name="h" unicode="h" horiz-adv-x="592" 
d="M38 0v700h196v-170h100c130 0 220 -70 220 -200v-330h-196v282c0 80 -30 110 -110 110h-14v-392h-196z" />
    <glyph glyph-name="i" unicode="i" horiz-adv-x="272" 
d="M38 0v530h196v-530h-196zM234 583h-196v128h196v-128z" />
    <glyph glyph-name="j" unicode="j" horiz-adv-x="324" 
d="M-20 -170v126c100 0 110 30 110 130v444h196v-490c0 -200 -86 -210 -306 -210zM286 583h-196v128h196v-128z" />
    <glyph glyph-name="k" unicode="k" horiz-adv-x="592" 
d="M606 0h-220l-103 190c-14 26 -21 58 -21 85c0 39 15 67 22 83l81 172h212l-111 -201c-8 -14 -14 -37 -14 -48c0 -15 9 -40 20 -58zM234 0h-196v700h196v-700z" />
    <glyph glyph-name="l" unicode="l" horiz-adv-x="272" 
d="M38 0v700h196v-700h-196z" />
    <glyph glyph-name="m" unicode="m" horiz-adv-x="836" 
d="M38 0v420c0 80 40 110 110 110h440c130 0 210 -70 210 -200v-330h-196v280c0 80 -6 110 -86 110v-390h-196v390h-46c-30 0 -40 -10 -40 -40v-350h-196z" />
    <glyph glyph-name="n" unicode="n" horiz-adv-x="592" 
d="M38 0v420c0 80 40 110 110 110h196c130 0 210 -70 210 -200v-330h-196v280c0 70 0 110 -80 110h-4c-30 0 -40 -10 -40 -40v-350h-196z" />
    <glyph glyph-name="o" unicode="o" horiz-adv-x="590" 
d="M295 536c210 0 271 -51 271 -271s-61 -271 -271 -271s-271 51 -271 271s61 271 271 271zM224 265c0 -80 1 -131 71 -131s71 51 71 131s-1 131 -71 131s-71 -51 -71 -131z" />
    <glyph glyph-name="p" unicode="p" horiz-adv-x="586" 
d="M148 530h204c170 0 210 -105 210 -265s-40 -265 -210 -265h-118v-170h-196v590c0 70 40 110 110 110zM234 340v-200h60c59 0 68 74 68 125c0 64 -8 125 -72 125h-6c-40 0 -50 -10 -50 -50z" />
    <glyph glyph-name="q" unicode="q" horiz-adv-x="586" 
d="M234 530h204c70 0 110 -40 110 -110v-590h-196v170h-118c-170 0 -210 105 -210 265s40 265 210 265zM352 140v200c0 40 -10 50 -50 50h-6c-64 0 -72 -61 -72 -125c0 -51 9 -125 68 -125h60z" />
    <glyph glyph-name="r" unicode="r" horiz-adv-x="367" 
d="M38 0v310c0 170 90 220 260 220h69v-138h-13c-90 0 -120 -50 -120 -140v-252h-196z" />
    <glyph glyph-name="s" unicode="s" horiz-adv-x="484" 
d="M30 0v142h209c7 0 17 4 17 14c0 16 -37 32 -59 43l-54 27c-84 42 -119 59 -119 159s50 145 140 145h282v-136h-208c-8 0 -32 0 -32 -10c0 -15 10 -22 41 -37l74 -35c92 -43 139 -62 139 -172c0 -100 -50 -140 -140 -140h-290z" />
    <glyph glyph-name="t" unicode="t" horiz-adv-x="380" 
d="M376 0h-97c-110 0 -200 50 -200 180v210h-75v140h75v170h196v-170h101v-140h-101v-120c0 -80 0 -130 90 -130h11v-140z" />
    <glyph glyph-name="u" unicode="u" horiz-adv-x="592" 
d="M554 530v-420c0 -80 -40 -110 -110 -110h-196c-130 0 -210 70 -210 200v330h196v-280c0 -70 0 -110 80 -110h4c30 0 40 10 40 40v350h196z" />
    <glyph glyph-name="v" unicode="v" horiz-adv-x="548" 
d="M190 530l71 -306c2 -9 6 -18 13 -18s11 9 13 18l71 306h204l-144 -458c-21 -67 -91 -78 -144 -78c-52 0 -123 11 -144 78l-144 458h204z" />
    <glyph glyph-name="w" unicode="w" horiz-adv-x="818" 
d="M180 530l40 -305c1 -6 5 -16 10 -16s8 10 9 15l58 256c7 33 26 56 112 56s105 -23 112 -56l58 -256c1 -5 4 -15 9 -15s9 10 10 16l40 305h186l-71 -430c-13 -80 -52 -106 -150 -106c-97 0 -120 40 -132 87l-54 221c-2 9 -4 16 -8 16s-6 -7 -8 -16l-54 -221
c-12 -47 -35 -87 -132 -87c-98 0 -137 26 -150 106l-71 430h186z" />
    <glyph glyph-name="x" unicode="x" horiz-adv-x="552" 
d="M572 0h-228l-68 150l-68 -150h-228l177 272l-160 258h223l56 -136l56 136h223l-160 -258z" />
    <glyph glyph-name="y" unicode="y" horiz-adv-x="552" 
d="M566 530l-236 -701h-196l73 171l-221 530h206l102 -316l70 316h202z" />
    <glyph glyph-name="z" unicode="z" horiz-adv-x="476" 
d="M97 0c-50 0 -87 39 -87 102c0 42 19 68 49 103l149 173c5 5 8 9 8 11c0 3 -3 5 -10 5h-177v136h339c58 0 98 -34 98 -97c0 -59 -24 -77 -48 -106l-142 -168c-5 -5 -8 -10 -8 -13s1 -4 9 -4h180v-142h-360z" />
    <glyph glyph-name="braceleft" unicode="{" horiz-adv-x="329" 
d="M151 288v-8c48 -16 51 -60 51 -94v-110c0 -60 37 -82 97 -82v-130c-170 2 -237 42 -237 222v79c0 35 -17 63 -52 66v106c35 3 52 31 52 66v79c0 180 67 222 237 222v-130c-60 0 -97 -22 -97 -82v-110c0 -34 -3 -78 -51 -94z" />
    <glyph glyph-name="bar" unicode="|" horiz-adv-x="200" 
d="M40 -170v910h120v-910h-120z" />
    <glyph glyph-name="braceright" unicode="}" horiz-adv-x="329" 
d="M178 280v8c-48 16 -51 60 -51 94v110c0 60 -37 82 -97 82v130c170 0 237 -42 237 -222v-79c0 -35 17 -63 52 -66v-106c-35 -3 -52 -31 -52 -66v-79c0 -180 -67 -220 -237 -222v130c60 0 97 22 97 82v110c0 34 3 78 51 94z" />
    <glyph glyph-name="asciitilde" unicode="~" horiz-adv-x="644" 
d="M130 330l-80 69c38 53 98 103 168 103c29 0 55 -8 74 -16l55 -23c17 -7 35 -14 63 -14c44 0 74 22 104 66l80 -66c-41 -61 -104 -114 -184 -114c-33 0 -59 10 -78 18l-47 21c-8 4 -28 11 -61 11c-40 0 -68 -24 -94 -55z" />
    <glyph glyph-name="uni00A0" unicode="&#xa0;" horiz-adv-x="233" 
 />
    <glyph glyph-name="exclamdown" unicode="&#xa1;" horiz-adv-x="328" 
d="M66 700h196v-182h-196v182zM258 459l20 -459h-228l20 459h188z" />
    <glyph glyph-name="cent" unicode="&#xa2;" horiz-adv-x="555" 
d="M321 -70h-95v71c-150 5 -202 93 -202 263s50 260 202 265v71h95v-70h107v-140h-104c-80 0 -100 -46 -100 -126s20 -124 100 -124h115v-140h-118v-70z" />
    <glyph glyph-name="sterling" unicode="&#xa3;" horiz-adv-x="573" 
d="M573 0h-380c-70 0 -110 40 -110 110v239h-63v92h63c0 190 50 259 240 259h175v-174h-109c-70 0 -80 -15 -80 -85h189v-92h-189v-132c0 -30 14 -43 44 -43h220v-174z" />
    <glyph glyph-name="currency" unicode="&#xa4;" horiz-adv-x="666" 
d="M64 304c0 39 7 92 42 145l-76 76l86 87l76 -76c31 20 77 41 142 41c69 0 116 -24 141 -40l75 75l86 -87l-74 -75c33 -49 42 -100 42 -143c0 -41 -9 -92 -42 -141l74 -75l-86 -86l-74 74c-49 -33 -101 -42 -142 -42c-40 0 -91 8 -142 43l-76 -75l-86 86l74 75
c-15 21 -40 67 -40 138zM235 307c0 -52 43 -99 99 -99c53 0 99 46 99 99c0 56 -47 99 -99 99c-56 0 -99 -43 -99 -99z" />
    <glyph glyph-name="yen" unicode="&#xa5;" horiz-adv-x="642" 
d="M321 398l99 302h232l-128 -289h73v-108h-120l-39 -89h159v-108h-168v-106h-216v106h-168v108h159l-39 89h-120v108h72l-127 289h232z" />
    <glyph glyph-name="brokenbar" unicode="&#xa6;" horiz-adv-x="200" 
d="M40 -63v300h120v-300h-120zM40 440v300h120v-300h-120z" />
    <glyph glyph-name="section" unicode="&#xa7;" horiz-adv-x="526" 
d="M79 -170v140h147c29 0 57 0 57 18c0 9 -11 16 -35 37l-168 141c-23 20 -50 51 -50 110c0 82 50 139 132 150l-67 56c-36 31 -46 69 -46 100c0 87 55 118 146 118h251v-140h-170c-35 0 -35 -4 -35 -13c0 -7 6 -12 30 -32l170 -143c26 -22 55 -53 55 -119
c0 -83 -54 -136 -139 -139l59 -51c49 -43 60 -87 60 -116c0 -90 -64 -117 -152 -117h-245zM250 208c43 0 84 10 84 43c0 27 -15 43 -28 53l-38 28c-45 0 -76 -11 -76 -46c0 -26 14 -44 31 -57z" />
    <glyph glyph-name="dieresis" unicode="&#xa8;" horiz-adv-x="484" 
d="M280 583v128h154v-128h-154zM204 583h-154v128h154v-128z" />
    <glyph glyph-name="copyright" unicode="&#xa9;" horiz-adv-x="808" 
d="M404 708c250 0 354 -107 354 -357s-104 -359 -354 -359s-354 109 -354 359s104 357 354 357zM165 351c0 -180 59 -256 239 -256s239 76 239 256s-59 254 -239 254s-239 -74 -239 -254zM551 177h-168c-117 0 -144 77 -144 177s27 180 147 180h152v-100h-86
c-60 0 -73 -20 -73 -80s13 -77 65 -77h107v-100z" />
    <glyph glyph-name="ordfeminine" unicode="&#xaa;" horiz-adv-x="440" 
d="M71 704h211c76 0 108 -45 108 -117v-133c0 -41 -9 -68 -69 -68h-187c-61 0 -84 30 -84 100s23 100 84 100h139v5c0 21 -10 34 -42 34h-160v79zM273 511h-85c-14 0 -21 -4 -21 -20s7 -20 21 -20h61c13 0 24 2 24 20v20zM54 230v80h332v-80h-332z" />
    <glyph glyph-name="guillemotleft" unicode="&#xab;" horiz-adv-x="616" 
d="M335 460l-97 -147c-7 -9 -11 -21 -11 -32s4 -23 11 -32l97 -147l-114 -88l-145 189c-18 24 -26 46 -26 78s8 54 26 78l145 189zM566 389l-54 -84c-5 -8 -11 -15 -11 -24s6 -16 11 -24l54 -84l-118 -89l-102 133c-24 32 -30 51 -30 64s6 32 30 64l102 133z" />
    <glyph glyph-name="logicalnot" unicode="&#xac;" horiz-adv-x="588" 
d="M538 389v-288h-140v158h-348v130h488z" />
    <glyph glyph-name="uni00AD" unicode="&#xad;" horiz-adv-x="408" 
d="M30 189v158h348v-158h-348z" />
    <glyph glyph-name="registered" unicode="&#xae;" horiz-adv-x="534" 
d="M267 275c-150 0 -217 57 -217 217s67 214 217 214s217 -54 217 -214s-67 -217 -217 -217zM267 337c120 0 150 37 150 151c0 126 -30 156 -150 156s-150 -30 -150 -150s30 -157 150 -157zM225 389h-70v187c0 27 7 29 47 29h98c57 0 76 -10 76 -76c0 -28 -3 -74 -47 -74
h-11l62 -66h-86l-38 52c-8 11 -14 17 -14 34c0 19 5 32 26 32h12c11 0 24 0 24 17v11c0 18 -13 18 -28 18h-31c-18 0 -20 -4 -20 -22v-142z" />
    <glyph glyph-name="macron" unicode="&#xaf;" horiz-adv-x="349" 
d="M319 590h-289v110h289v-110z" />
    <glyph glyph-name="degree" unicode="&#xb0;" horiz-adv-x="298" 
d="M30 649c0 66 53 119 119 119s119 -53 119 -119s-53 -119 -119 -119s-119 53 -119 119zM90 649c0 -33 26 -59 59 -59s59 26 59 59s-26 59 -59 59s-59 -26 -59 -59z" />
    <glyph glyph-name="plusminus" unicode="&#xb1;" horiz-adv-x="588" 
d="M362 215h-136v235h-176v130h176v235h136v-235h176v-130h-176v-235zM538 23h-488v130h488v-130z" />
    <glyph glyph-name="twosuperior" unicode="&#xb2;" horiz-adv-x="389" 
d="M108 295c-44 0 -58 37 -58 76c0 25 8 52 37 78l99 91c17 15 21 26 21 35c0 21 -16 27 -42 27h-111v98h193c79 0 90 -50 90 -99c0 -82 -31 -107 -62 -133l-72 -62c-4 -3 -6 -4 -6 -7c0 -2 2 -2 4 -2h138v-102h-231z" />
    <glyph glyph-name="threesuperior" unicode="&#xb3;" horiz-adv-x="371" 
d="M50 295v100h93c26 0 45 0 45 32c0 29 -19 29 -44 29h-85v90h78c21 0 41 0 41 31c0 27 -21 27 -40 27h-84v96h157c70 0 99 -32 99 -102c0 -50 -15 -80 -65 -90v-4c51 -3 76 -32 76 -92c0 -70 -26 -117 -106 -117h-165z" />
    <glyph glyph-name="acute" unicode="&#xb4;" horiz-adv-x="329" 
d="M212 825l87 -97l-182 -158l-87 96z" />
    <glyph glyph-name="mu" unicode="&#xb5;" horiz-adv-x="596" 
d="M38 -177v707h197v-300c0 -53 3 -96 62 -96c50 0 64 40 64 93v303h197v-530h-187v73c-16 -51 -31 -79 -75 -79c-47 0 -58 29 -71 72v-243h-187z" />
    <glyph glyph-name="paragraph" unicode="&#xb6;" horiz-adv-x="652" 
d="M587 -170h-136v740h-62v-740h-136v459h-25c-150 0 -198 81 -198 206c0 120 48 205 198 205h424v-130h-65v-740zM253 419v151h-9c-54 0 -74 -25 -74 -75s20 -76 74 -76h9z" />
    <glyph glyph-name="periodcentered" unicode="&#xb7;" horiz-adv-x="278" 
d="M228 250h-178v180h178v-180z" />
    <glyph glyph-name="cedilla" unicode="&#xb8;" horiz-adv-x="244" 
d="M30 -200v70h69c12 0 21 3 21 14c0 15 -16 15 -24 15h-30c-27 0 -35 14 -35 29c0 8 3 16 5 21l24 51h76l-11 -23c-2 -4 -3 -6 -3 -7c0 -5 5 -5 8 -5h9c50 0 75 -22 75 -82s-40 -83 -100 -83h-84z" />
    <glyph glyph-name="onesuperior" unicode="&#xb9;" horiz-adv-x="250" 
d="M72 295v276c0 20 -10 30 -30 30h-32v99h120c50 0 70 -20 70 -70v-335h-128z" />
    <glyph glyph-name="ordmasculine" unicode="&#xba;" horiz-adv-x="441" 
d="M221 708c120 0 170 -46 170 -170s-50 -169 -170 -169s-171 45 -171 169s51 170 171 170zM138 538c0 -64 19 -88 83 -88s82 24 82 88s-18 89 -82 89s-83 -25 -83 -89zM54 230v80h333v-80h-333z" />
    <glyph glyph-name="guillemotright" unicode="&#xbb;" horiz-adv-x="616" 
d="M281 459l114 89l145 -189c19 -24 26 -46 26 -78s-7 -54 -26 -78l-145 -189l-114 89l97 146c7 10 11 21 11 32s-4 22 -11 32zM50 389l118 89l102 -133c24 -31 30 -51 30 -64s-6 -33 -30 -64l-102 -133l-118 89l54 84c6 9 11 15 11 24s-5 15 -11 24z" />
    <glyph glyph-name="onequarter" unicode="&#xbc;" horiz-adv-x="802" 
d="M132 0l366 700h104l-366 -700h-104zM576 0v57h-137c-50 0 -59 31 -59 71c0 43 13 70 31 91l134 155c17 20 44 36 89 36c36 0 70 -5 70 -65v-183h48v-105h-48v-57h-128zM576 162v101c0 2 -1 3 -2 3c-2 0 -4 -1 -8 -6l-66 -84c-2 -3 -5 -6 -5 -9s3 -5 7 -5h74zM112 295v276
c0 20 -10 30 -30 30h-32v99h120c50 0 70 -20 70 -70v-335h-128z" />
    <glyph glyph-name="onehalf" unicode="&#xbd;" horiz-adv-x="830" 
d="M152 0l326 700h104l-326 -700h-104zM112 295v276c0 20 -10 30 -30 30h-32v99h120c50 0 70 -20 70 -70v-335h-128zM549 0c-44 0 -58 37 -58 76c0 25 8 52 37 78l99 91c17 15 21 26 21 35c0 21 -16 27 -42 27h-111v98h193c79 0 90 -50 90 -99c0 -82 -31 -107 -62 -133
l-72 -62c-4 -3 -6 -4 -6 -7c0 -2 2 -2 4 -2h138v-102h-231z" />
    <glyph glyph-name="threequarters" unicode="&#xbe;" horiz-adv-x="862" 
d="M191 0l366 700h104l-366 -700h-104zM50 295v100h93c26 0 45 0 45 32c0 29 -19 29 -44 29h-85v90h78c21 0 41 0 41 31c0 27 -21 27 -40 27h-84v96h157c70 0 99 -32 99 -102c0 -50 -15 -80 -65 -90v-4c51 -3 76 -32 76 -92c0 -70 -26 -117 -106 -117h-165zM636 0v57h-137
c-50 0 -59 31 -59 71c0 43 13 70 31 91l134 155c17 20 44 36 89 36c36 0 70 -5 70 -65v-183h48v-105h-48v-57h-128zM636 162v101c0 2 -1 3 -2 3c-2 0 -4 -1 -8 -6l-66 -84c-2 -3 -5 -6 -5 -9s3 -5 7 -5h74z" />
    <glyph glyph-name="questiondown" unicode="&#xbf;" horiz-adv-x="470" 
d="M376 700v-182h-186v182h186zM190 459h186v-35c0 -60 -8 -85 -55 -117l-31 -21c-40 -27 -46 -41 -46 -71c0 -40 27 -41 67 -41h149v-174h-283c-110 0 -147 46 -147 166c0 93 21 139 77 176l50 34c19 12 33 36 33 66v17z" />
    <glyph glyph-name="Agrave" unicode="&#xc0;" 
d="M-14 0l199 623c25 77 80 85 160 85s135 -8 160 -85l199 -623h-238l-35 144h-172l-35 -144h-238zM336 481l-49 -183h116l-49 183c-1 6 -4 15 -9 15s-8 -9 -9 -15zM293 997l182 -159l-97 -98l-182 158z" />
    <glyph glyph-name="Aacute" unicode="&#xc1;" 
d="M-14 0l199 623c25 77 80 85 160 85s135 -8 160 -85l199 -623h-238l-35 144h-172l-35 -144h-238zM336 481l-49 -183h116l-49 183c-1 6 -4 15 -9 15s-8 -9 -9 -15zM393 997l97 -99l-172 -158l-97 98z" />
    <glyph glyph-name="Acircumflex" unicode="&#xc2;" 
d="M-14 0l199 623c25 77 80 85 160 85s135 -8 160 -85l199 -623h-238l-35 144h-172l-35 -144h-238zM336 481l-49 -183h116l-49 183c-1 6 -4 15 -9 15s-8 -9 -9 -15zM474 740l-99 79c-16 12 -22 18 -30 18c-7 0 -12 -6 -28 -18l-99 -79l-72 89l139 114c18 15 37 23 60 23
s42 -8 60 -23l139 -114z" />
    <glyph glyph-name="Atilde" unicode="&#xc3;" 
d="M-14 0l199 623c25 77 80 85 160 85s135 -8 160 -85l199 -623h-238l-35 144h-172l-35 -144h-238zM336 481l-49 -183h116l-49 183c-1 6 -4 15 -9 15s-8 -9 -9 -15zM184 744l-68 76c44 49 107 85 153 85c70 0 105 -52 145 -52c34 0 68 32 93 59l68 -72
c-47 -53 -103 -94 -155 -94c-71 0 -105 49 -143 49c-33 0 -63 -25 -93 -51z" />
    <glyph glyph-name="Adieresis" unicode="&#xc4;" 
d="M-14 0l199 623c25 77 80 85 160 85s135 -8 160 -85l199 -623h-238l-35 144h-172l-35 -144h-238zM336 481l-49 -183h116l-49 183c-1 6 -4 15 -9 15s-8 -9 -9 -15zM560 766h-172v129h172v-129zM302 766h-172v129h172v-129z" />
    <glyph glyph-name="Aring" unicode="&#xc5;" 
d="M-14 0l199 623c25 77 80 85 160 85s135 -8 160 -85l199 -623h-238l-35 144h-172l-35 -144h-238zM336 481l-49 -183h116l-49 183c-1 6 -4 15 -9 15s-8 -9 -9 -15zM346 977c90 0 119 -39 119 -119s-29 -118 -119 -118s-120 38 -120 118s30 119 120 119zM298 858
c0 -30 8 -52 48 -52s47 22 47 52s-7 53 -47 53s-48 -23 -48 -53z" />
    <glyph glyph-name="AE" unicode="&#xc6;" horiz-adv-x="934" 
d="M899 700v-170h-216c-30 0 -44 -14 -44 -44v-52h252v-154h-252v-66c0 -30 14 -44 44 -44h221v-170h-371c-70 0 -110 40 -110 110v31h-136l-55 -141h-252l263 612c37 87 110 88 177 88h479zM411 502l-75 -199h87v198c0 9 -1 14 -3 14s-5 -4 -9 -13z" />
    <glyph glyph-name="Ccedilla" unicode="&#xc7;" horiz-adv-x="532" 
d="M228 -200v70h69c12 0 21 3 21 14c0 15 -16 15 -24 15h-30c-27 0 -35 14 -35 29c0 8 3 16 5 21l27 54c-178 20 -231 131 -231 347c0 240 66 350 296 350h176v-174h-80c-130 0 -170 -26 -170 -176s40 -176 170 -176h90v-174h-177l-12 -23c-2 -4 -3 -6 -3 -7c0 -5 5 -5 8 -5
h9c50 0 75 -22 75 -82s-40 -83 -100 -83h-84z" />
    <glyph glyph-name="Egrave" unicode="&#xc8;" horiz-adv-x="570" 
d="M536 700v-170h-226c-30 0 -44 -14 -44 -44v-52h262v-154h-262v-66c0 -30 14 -44 44 -44h230v-170h-380c-70 0 -110 40 -110 110v480c0 70 40 110 110 110h376zM243 997l182 -159l-97 -98l-182 158z" />
    <glyph glyph-name="Eacute" unicode="&#xc9;" horiz-adv-x="570" 
d="M536 700v-170h-226c-30 0 -44 -14 -44 -44v-52h262v-154h-262v-66c0 -30 14 -44 44 -44h230v-170h-380c-70 0 -110 40 -110 110v480c0 70 40 110 110 110h376zM333 997l97 -99l-172 -158l-97 98z" />
    <glyph glyph-name="Ecircumflex" unicode="&#xca;" horiz-adv-x="570" 
d="M536 700v-170h-226c-30 0 -44 -14 -44 -44v-52h262v-154h-262v-66c0 -30 14 -44 44 -44h230v-170h-380c-70 0 -110 40 -110 110v480c0 70 40 110 110 110h376zM414 740l-99 79c-16 12 -22 18 -30 18c-7 0 -12 -6 -28 -18l-99 -79l-72 89l139 114c18 15 37 23 60 23
s42 -8 60 -23l139 -114z" />
    <glyph glyph-name="Edieresis" unicode="&#xcb;" horiz-adv-x="570" 
d="M536 700v-170h-226c-30 0 -44 -14 -44 -44v-52h262v-154h-262v-66c0 -30 14 -44 44 -44h230v-170h-380c-70 0 -110 40 -110 110v480c0 70 40 110 110 110h376zM500 766h-172v129h172v-129zM242 766h-172v129h172v-129z" />
    <glyph glyph-name="Igrave" unicode="&#xcc;" horiz-adv-x="326" 
d="M276 0h-226v700h226v-700zM120 997l182 -159l-97 -98l-182 158z" />
    <glyph glyph-name="Iacute" unicode="&#xcd;" horiz-adv-x="326" 
d="M276 0h-226v700h226v-700zM201 997l97 -99l-172 -158l-97 98z" />
    <glyph glyph-name="Icircumflex" unicode="&#xce;" horiz-adv-x="326" 
d="M276 0h-226v700h226v-700zM292 740l-99 79c-16 12 -22 18 -30 18c-7 0 -12 -6 -28 -18l-99 -79l-72 89l139 114c18 15 37 23 60 23s42 -8 60 -23l139 -114z" />
    <glyph glyph-name="Idieresis" unicode="&#xcf;" horiz-adv-x="394" 
d="M311 0h-226v700h226v-700zM414 746h-177v129h177v-129zM159 746h-179v129h179v-129z" />
    <glyph glyph-name="Eth" unicode="&#xd0;" horiz-adv-x="668" 
d="M352 0h-192c-70 0 -110 40 -110 110v161h-60v148h60v171c0 70 40 110 110 110h192c230 0 286 -110 286 -350s-56 -350 -286 -350zM266 476v-57h85v-148h-85v-47c0 -36 14 -50 50 -50h10c50 0 90 16 90 176c0 157 -48 176 -90 176h-10c-36 0 -50 -14 -50 -50z" />
    <glyph glyph-name="Ntilde" unicode="&#xd1;" horiz-adv-x="724" 
d="M674 700v-583c0 -25 -5 -125 -142 -125c-73 0 -154 1 -182 89l-107 337c-3 11 -8 17 -15 17c-3 0 -14 0 -14 -20v-415h-164v584c0 91 66 124 147 124c57 0 151 -1 178 -85l109 -340c3 -11 7 -17 15 -17c11 0 11 12 11 17v417h164zM201 744l-68 76c44 49 107 85 153 85
c70 0 105 -52 145 -52c34 0 68 32 93 59l68 -72c-47 -53 -103 -94 -155 -94c-71 0 -105 49 -143 49c-33 0 -63 -25 -93 -51z" />
    <glyph glyph-name="Ograve" unicode="&#xd2;" 
d="M345 708c250 0 315 -58 315 -358s-65 -358 -315 -358s-315 58 -315 358s65 358 315 358zM252 350c0 -120 3 -184 93 -184s93 64 93 184s-3 184 -93 184s-93 -64 -93 -184zM303 997l182 -159l-97 -98l-182 158z" />
    <glyph glyph-name="Oacute" unicode="&#xd3;" 
d="M345 708c250 0 315 -58 315 -358s-65 -358 -315 -358s-315 58 -315 358s65 358 315 358zM252 350c0 -120 3 -184 93 -184s93 64 93 184s-3 184 -93 184s-93 -64 -93 -184zM393 997l97 -99l-172 -158l-97 98z" />
    <glyph glyph-name="Ocircumflex" unicode="&#xd4;" 
d="M345 708c250 0 315 -58 315 -358s-65 -358 -315 -358s-315 58 -315 358s65 358 315 358zM252 350c0 -120 3 -184 93 -184s93 64 93 184s-3 184 -93 184s-93 -64 -93 -184zM484 740l-99 79c-16 12 -22 18 -30 18c-7 0 -12 -6 -28 -18l-99 -79l-72 89l139 114
c18 15 37 23 60 23s42 -8 60 -23l139 -114z" />
    <glyph glyph-name="Otilde" unicode="&#xd5;" 
d="M345 708c250 0 315 -58 315 -358s-65 -358 -315 -358s-315 58 -315 358s65 358 315 358zM252 350c0 -120 3 -184 93 -184s93 64 93 184s-3 184 -93 184s-93 -64 -93 -184zM194 744l-68 76c44 49 107 85 153 85c70 0 105 -52 145 -52c34 0 68 32 93 59l68 -72
c-47 -53 -103 -94 -155 -94c-71 0 -105 49 -143 49c-33 0 -63 -25 -93 -51z" />
    <glyph glyph-name="Odieresis" unicode="&#xd6;" 
d="M345 708c250 0 315 -58 315 -358s-65 -358 -315 -358s-315 58 -315 358s65 358 315 358zM252 350c0 -120 3 -184 93 -184s93 64 93 184s-3 184 -93 184s-93 -64 -93 -184zM570 766h-172v129h172v-129zM312 766h-172v129h172v-129z" />
    <glyph glyph-name="multiply" unicode="&#xd7;" horiz-adv-x="632" 
d="M582 139l-96 -96l-170 170l-170 -170l-96 96l170 170l-170 170l96 96l170 -170l170 170l96 -96l-170 -170z" />
    <glyph glyph-name="Oslash" unicode="&#xd8;" 
d="M345 708c100 0 171 -9 219 -40l41 49l55 -44l-46 -55c34 -54 46 -139 46 -268c0 -300 -65 -358 -315 -358c-101 0 -172 9 -220 40l-40 -48l-55 44l45 54c-33 54 -45 139 -45 268c0 300 65 358 315 358zM438 350c0 20 0 39 -1 56l-169 -202c13 -25 36 -38 77 -38
c90 0 93 64 93 184zM252 350v-56l169 202c-13 25 -36 38 -76 38c-90 0 -93 -64 -93 -184z" />
    <glyph glyph-name="Ugrave" unicode="&#xd9;" horiz-adv-x="666" 
d="M333 174c60 0 67 44 67 124v402h216v-420c0 -220 -63 -288 -283 -288s-283 68 -283 288v420h216v-402c0 -80 7 -124 67 -124zM281 997l182 -159l-97 -98l-182 158z" />
    <glyph glyph-name="Uacute" unicode="&#xda;" horiz-adv-x="666" 
d="M333 174c60 0 67 44 67 124v402h216v-420c0 -220 -63 -288 -283 -288s-283 68 -283 288v420h216v-402c0 -80 7 -124 67 -124zM381 997l97 -99l-172 -158l-97 98z" />
    <glyph glyph-name="Ucircumflex" unicode="&#xdb;" horiz-adv-x="666" 
d="M333 174c60 0 67 44 67 124v402h216v-420c0 -220 -63 -288 -283 -288s-283 68 -283 288v420h216v-402c0 -80 7 -124 67 -124zM462 740l-99 79c-16 12 -22 18 -30 18c-7 0 -12 -6 -28 -18l-99 -79l-72 89l139 114c18 15 37 23 60 23s42 -8 60 -23l139 -114z" />
    <glyph glyph-name="Udieresis" unicode="&#xdc;" horiz-adv-x="666" 
d="M333 174c60 0 67 44 67 124v402h216v-420c0 -220 -63 -288 -283 -288s-283 68 -283 288v420h216v-402c0 -80 7 -124 67 -124zM548 766h-172v129h172v-129zM290 766h-172v129h172v-129z" />
    <glyph glyph-name="Yacute" unicode="&#xdd;" horiz-adv-x="622" 
d="M311 398l99 302h232l-223 -506v-194h-216v194l-223 506h232zM349 997l97 -99l-172 -158l-97 98z" />
    <glyph glyph-name="Thorn" unicode="&#xde;" horiz-adv-x="668" 
d="M50 0v700h216v-100h204c150 0 168 -85 168 -225s-18 -226 -168 -226h-204v-149h-216zM266 323h79c40 0 71 0 71 52c0 51 -30 51 -70 51h-80v-103z" />
    <glyph glyph-name="germandbls" unicode="&#xdf;" horiz-adv-x="591" 
d="M38 0v419c0 205 74 287 254 287c140 0 245 -30 245 -190c0 -70 -22 -135 -99 -144v-4c106 -10 129 -74 129 -174c0 -120 -50 -194 -190 -194h-85v140h9c54 0 66 27 66 77s-12 78 -66 78h-9v134h5c34 0 42 26 42 66s-3 77 -47 77c-55 0 -58 -32 -58 -112v-460h-196z" />
    <glyph glyph-name="agrave" unicode="&#xe0;" horiz-adv-x="550" 
d="M60 530h272c110 0 180 -70 180 -180v-240c0 -70 -40 -110 -110 -110h-248c-100 0 -130 58 -130 168c0 100 30 164 130 164h162v10c0 35 -23 52 -60 52h-196v136zM316 208h-49c-34 0 -47 -19 -47 -43c0 -18 8 -41 45 -41h11c30 0 40 16 40 46v38zM233 827l182 -159
l-97 -98l-182 158z" />
    <glyph glyph-name="aacute" unicode="&#xe1;" horiz-adv-x="550" 
d="M60 530h272c110 0 180 -70 180 -180v-240c0 -70 -40 -110 -110 -110h-248c-100 0 -130 58 -130 168c0 100 30 164 130 164h162v10c0 35 -23 52 -60 52h-196v136zM316 208h-49c-34 0 -47 -19 -47 -43c0 -18 8 -41 45 -41h11c30 0 40 16 40 46v38zM333 825l87 -97
l-182 -158l-87 96z" />
    <glyph glyph-name="acircumflex" unicode="&#xe2;" horiz-adv-x="550" 
d="M60 530h272c110 0 180 -70 180 -180v-240c0 -70 -40 -110 -110 -110h-248c-100 0 -130 58 -130 168c0 100 30 164 130 164h162v10c0 35 -23 52 -60 52h-196v136zM316 208h-49c-34 0 -47 -19 -47 -43c0 -18 8 -41 45 -41h11c30 0 40 16 40 46v38zM404 570l-89 75
c-18 15 -27 22 -39 22c-9 0 -20 -6 -39 -22l-89 -75l-72 89l129 110c17 14 39 27 70 27s53 -13 70 -27l129 -110z" />
    <glyph glyph-name="atilde" unicode="&#xe3;" horiz-adv-x="550" 
d="M60 530h272c110 0 180 -70 180 -180v-240c0 -70 -40 -110 -110 -110h-248c-100 0 -130 58 -130 168c0 100 30 164 130 164h162v10c0 35 -23 52 -60 52h-196v136zM316 208h-49c-34 0 -47 -19 -47 -43c0 -18 8 -41 45 -41h11c30 0 40 16 40 46v38zM124 574l-68 76
c44 49 87 85 153 85c52 0 95 -52 131 -52c34 0 60 32 87 59l68 -72c-47 -53 -83 -94 -155 -94c-55 0 -95 49 -129 49c-33 0 -59 -25 -87 -51z" />
    <glyph glyph-name="adieresis" unicode="&#xe4;" horiz-adv-x="550" 
d="M60 530h272c110 0 180 -70 180 -180v-240c0 -70 -40 -110 -110 -110h-248c-100 0 -130 58 -130 168c0 100 30 164 130 164h162v10c0 35 -23 52 -60 52h-196v136zM316 208h-49c-34 0 -47 -19 -47 -43c0 -18 8 -41 45 -41h11c30 0 40 16 40 46v38zM313 583v128h154v-128
h-154zM237 583h-154v128h154v-128z" />
    <glyph glyph-name="aring" unicode="&#xe5;" horiz-adv-x="550" 
d="M60 530h272c110 0 180 -70 180 -180v-240c0 -70 -40 -110 -110 -110h-248c-100 0 -130 58 -130 168c0 100 30 164 130 164h162v10c0 35 -23 52 -60 52h-196v136zM316 208h-49c-34 0 -47 -19 -47 -43c0 -18 8 -41 45 -41h11c30 0 40 16 40 46v38zM276 807
c90 0 119 -39 119 -119s-29 -118 -119 -118s-120 38 -120 118s30 119 120 119zM228 688c0 -30 8 -52 48 -52s47 22 47 52s-7 53 -47 53s-48 -23 -48 -53z" />
    <glyph glyph-name="ae" unicode="&#xe6;" horiz-adv-x="839" 
d="M796 0h-275c-50 0 -75 9 -97 25c-12 -15 -36 -25 -71 -25h-199c-100 0 -130 58 -130 168c0 100 30 161 130 161h162v13c0 35 -23 52 -60 52h-196v136h289c27 0 53 -4 75 -23c38 24 73 29 147 29c180 0 244 -13 244 -213c0 -60 -14 -118 -84 -118h-219
c0 -50 27 -69 97 -69h187v-136zM316 205h-49c-34 0 -47 -16 -47 -40c0 -18 8 -41 45 -41h11c30 0 40 16 40 46v35zM512 329h75c32 0 32 23 32 33c0 37 -18 38 -48 38c-40 0 -59 -5 -59 -71z" />
    <glyph glyph-name="ccedilla" unicode="&#xe7;" horiz-adv-x="451" 
d="M175 -200v70h69c12 0 21 3 21 14c0 15 -16 15 -24 15h-30c-27 0 -35 14 -35 29c0 8 3 16 5 21l24 51c-133 5 -181 108 -181 264c0 160 40 266 220 266h184v-140h-94c-80 0 -110 -46 -110 -126s30 -124 110 -124h105v-140h-158l-11 -23c-2 -4 -3 -6 -3 -7c0 -5 5 -5 8 -5
h9c50 0 75 -22 75 -82s-40 -83 -100 -83h-84z" />
    <glyph glyph-name="egrave" unicode="&#xe8;" horiz-adv-x="553" 
d="M510 0h-275c-160 0 -205 48 -205 268c0 230 35 268 255 268c180 0 244 -16 244 -216c0 -60 -14 -118 -84 -118h-219c0 -50 27 -66 97 -66h187v-136zM226 326h75c32 0 32 23 32 33c0 38 -18 41 -48 41c-40 0 -59 -8 -59 -74zM224 827l182 -159l-97 -98l-182 158z" />
    <glyph glyph-name="eacute" unicode="&#xe9;" horiz-adv-x="553" 
d="M510 0h-275c-160 0 -205 48 -205 268c0 230 35 268 255 268c180 0 244 -16 244 -216c0 -60 -14 -118 -84 -118h-219c0 -50 27 -66 97 -66h187v-136zM226 326h75c32 0 32 23 32 33c0 38 -18 41 -48 41c-40 0 -59 -8 -59 -74zM334 825l87 -97l-182 -158l-87 96z" />
    <glyph glyph-name="ecircumflex" unicode="&#xea;" horiz-adv-x="553" 
d="M510 0h-275c-160 0 -205 48 -205 268c0 230 35 268 255 268c180 0 244 -16 244 -216c0 -60 -14 -118 -84 -118h-219c0 -50 27 -66 97 -66h187v-136zM226 326h75c32 0 32 23 32 33c0 38 -18 41 -48 41c-40 0 -59 -8 -59 -74zM405 570l-89 75c-18 15 -27 22 -39 22
c-9 0 -20 -6 -39 -22l-89 -75l-72 89l129 110c17 14 39 27 70 27s53 -13 70 -27l129 -110z" />
    <glyph glyph-name="edieresis" unicode="&#xeb;" horiz-adv-x="553" 
d="M510 0h-275c-160 0 -205 48 -205 268c0 230 35 268 255 268c180 0 244 -16 244 -216c0 -60 -14 -118 -84 -118h-219c0 -50 27 -66 97 -66h187v-136zM226 326h75c32 0 32 23 32 33c0 38 -18 41 -48 41c-40 0 -59 -8 -59 -74zM314 583v128h154v-128h-154zM238 583h-154v128
h154v-128z" />
    <glyph glyph-name="igrave" unicode="&#xec;" horiz-adv-x="256" 
d="M30 0v530h196v-530h-196zM85 827l182 -159l-97 -98l-182 158z" />
    <glyph glyph-name="iacute" unicode="&#xed;" horiz-adv-x="256" 
d="M30 0v530h196v-530h-196zM176 825l87 -97l-182 -158l-87 96z" />
    <glyph glyph-name="icircumflex" unicode="&#xee;" horiz-adv-x="256" 
d="M30 0v530h196v-530h-196zM257 570l-89 75c-18 15 -27 22 -39 22c-9 0 -20 -6 -39 -22l-89 -75l-72 89l129 110c17 14 39 27 70 27s53 -13 70 -27l129 -110z" />
    <glyph glyph-name="idieresis" unicode="&#xef;" horiz-adv-x="284" 
d="M44 0v530h196v-530h-196zM162 583v128h112v-128h-112zM122 583h-112v128h112v-128z" />
    <glyph glyph-name="eth" unicode="&#xf0;" horiz-adv-x="586" 
d="M438 0h-205c-170 0 -209 105 -209 265s39 265 209 265h119c0 43 -22 73 -37 90l-112 -39l-24 67l83 29c-15 14 -47 42 -104 70l84 51c35 -15 81 -37 136 -82l110 38l26 -66l-70 -24c67 -60 104 -129 104 -237v-317c0 -70 -40 -110 -110 -110zM352 190v200h-61
c-59 0 -67 -74 -67 -125c0 -64 7 -125 71 -125h7c40 0 50 10 50 50z" />
    <glyph glyph-name="ntilde" unicode="&#xf1;" horiz-adv-x="592" 
d="M38 0v420c0 80 40 110 110 110h196c130 0 210 -70 210 -200v-330h-196v280c0 70 0 110 -80 110h-4c-30 0 -40 -10 -40 -40v-350h-196zM145 574l-68 76c44 49 87 85 153 85c52 0 95 -52 131 -52c34 0 60 32 87 59l68 -72c-47 -53 -83 -94 -155 -94c-55 0 -95 49 -129 49
c-33 0 -59 -25 -87 -51z" />
    <glyph glyph-name="ograve" unicode="&#xf2;" horiz-adv-x="590" 
d="M295 536c210 0 271 -51 271 -271s-61 -271 -271 -271s-271 51 -271 271s61 271 271 271zM224 265c0 -80 1 -131 71 -131s71 51 71 131s-1 131 -71 131s-71 -51 -71 -131zM253 827l182 -159l-97 -98l-182 158z" />
    <glyph glyph-name="oacute" unicode="&#xf3;" horiz-adv-x="590" 
d="M295 536c210 0 271 -51 271 -271s-61 -271 -271 -271s-271 51 -271 271s61 271 271 271zM224 265c0 -80 1 -131 71 -131s71 51 71 131s-1 131 -71 131s-71 -51 -71 -131zM343 825l87 -97l-182 -158l-87 96z" />
    <glyph glyph-name="ocircumflex" unicode="&#xf4;" horiz-adv-x="590" 
d="M295 536c210 0 271 -51 271 -271s-61 -271 -271 -271s-271 51 -271 271s61 271 271 271zM224 265c0 -80 1 -131 71 -131s71 51 71 131s-1 131 -71 131s-71 -51 -71 -131zM424 570l-89 75c-18 15 -27 22 -39 22c-9 0 -20 -6 -39 -22l-89 -75l-72 89l129 110
c17 14 39 27 70 27s53 -13 70 -27l129 -110z" />
    <glyph glyph-name="otilde" unicode="&#xf5;" horiz-adv-x="590" 
d="M295 536c210 0 271 -51 271 -271s-61 -271 -271 -271s-271 51 -271 271s61 271 271 271zM224 265c0 -80 1 -131 71 -131s71 51 71 131s-1 131 -71 131s-71 -51 -71 -131zM144 574l-68 76c44 49 87 85 153 85c52 0 95 -52 131 -52c34 0 60 32 87 59l68 -72
c-47 -53 -83 -94 -155 -94c-55 0 -95 49 -129 49c-33 0 -59 -25 -87 -51z" />
    <glyph glyph-name="odieresis" unicode="&#xf6;" horiz-adv-x="590" 
d="M295 536c210 0 271 -51 271 -271s-61 -271 -271 -271s-271 51 -271 271s61 271 271 271zM224 265c0 -80 1 -131 71 -131s71 51 71 131s-1 131 -71 131s-71 -51 -71 -131zM333 583v128h154v-128h-154zM257 583h-154v128h154v-128z" />
    <glyph glyph-name="divide" unicode="&#xf7;" horiz-adv-x="588" 
d="M538 259h-488v130h488v-130zM384 495h-180v180h180v-180zM384 -27h-180v180h180v-180z" />
    <glyph glyph-name="oslash" unicode="&#xf8;" horiz-adv-x="590" 
d="M295 536c78 0 136 -7 177 -28l45 49l49 -43l-43 -47c31 -42 43 -106 43 -202c0 -220 -61 -271 -271 -271c-80 0 -138 7 -180 28l-42 -46l-49 43l41 45c-30 42 -41 105 -41 201c0 220 61 271 271 271zM366 265v31l-127 -138c10 -16 27 -24 56 -24c70 0 71 51 71 131z
M224 265v-28l125 137c-11 14 -27 22 -54 22c-70 0 -71 -51 -71 -131z" />
    <glyph glyph-name="ugrave" unicode="&#xf9;" horiz-adv-x="592" 
d="M554 530v-420c0 -80 -40 -110 -110 -110h-196c-130 0 -210 70 -210 200v330h196v-280c0 -70 0 -110 80 -110h4c30 0 40 10 40 40v350h196zM244 827l182 -159l-97 -98l-182 158z" />
    <glyph glyph-name="uacute" unicode="&#xfa;" horiz-adv-x="592" 
d="M554 530v-420c0 -80 -40 -110 -110 -110h-196c-130 0 -210 70 -210 200v330h196v-280c0 -70 0 -110 80 -110h4c30 0 40 10 40 40v350h196zM354 825l87 -97l-182 -158l-87 96z" />
    <glyph glyph-name="ucircumflex" unicode="&#xfb;" horiz-adv-x="592" 
d="M554 530v-420c0 -80 -40 -110 -110 -110h-196c-130 0 -210 70 -210 200v330h196v-280c0 -70 0 -110 80 -110h4c30 0 40 10 40 40v350h196zM425 570l-89 75c-18 15 -27 22 -39 22c-9 0 -20 -6 -39 -22l-89 -75l-72 89l129 110c17 14 39 27 70 27s53 -13 70 -27l129 -110z
" />
    <glyph glyph-name="udieresis" unicode="&#xfc;" horiz-adv-x="592" 
d="M554 530v-420c0 -80 -40 -110 -110 -110h-196c-130 0 -210 70 -210 200v330h196v-280c0 -70 0 -110 80 -110h4c30 0 40 10 40 40v350h196zM334 583v128h154v-128h-154zM258 583h-154v128h154v-128z" />
    <glyph glyph-name="yacute" unicode="&#xfd;" horiz-adv-x="552" 
d="M566 530l-236 -701h-196l73 171l-221 530h206l102 -316l70 316h202zM334 825l87 -97l-182 -158l-87 96z" />
    <glyph glyph-name="thorn" unicode="&#xfe;" horiz-adv-x="586" 
d="M38 -170v870h196v-170h118c170 0 210 -105 210 -265s-40 -265 -210 -265h-118v-170h-196zM234 390v-250h60c59 0 68 61 68 125s-8 125 -72 125h-56z" />
    <glyph glyph-name="ydieresis" unicode="&#xff;" horiz-adv-x="552" 
d="M566 530l-236 -701h-196l73 171l-221 530h206l102 -316l70 316h202zM314 583v128h154v-128h-154zM238 583h-154v128h154v-128z" />
    <glyph glyph-name="Amacron" unicode="&#x100;" 
d="M-14 0l199 623c25 77 80 85 160 85s135 -8 160 -85l199 -623h-238l-35 144h-172l-35 -144h-238zM336 481l-49 -183h116l-49 183c-1 6 -4 15 -9 15s-8 -9 -9 -15zM490 766h-289v110h289v-110z" />
    <glyph glyph-name="amacron" unicode="&#x101;" horiz-adv-x="550" 
d="M60 530h272c110 0 180 -70 180 -180v-240c0 -70 -40 -110 -110 -110h-248c-100 0 -130 58 -130 168c0 100 30 164 130 164h162v10c0 35 -23 52 -60 52h-196v136zM316 208h-49c-34 0 -47 -19 -47 -43c0 -18 8 -41 45 -41h11c30 0 40 16 40 46v38zM420 590h-289v110h289
v-110z" />
    <glyph glyph-name="Abreve" unicode="&#x102;" 
d="M-14 0l199 623c25 77 80 85 160 85s135 -8 160 -85l199 -623h-238l-35 144h-172l-35 -144h-238zM336 481l-49 -183h116l-49 183c-1 6 -4 15 -9 15s-8 -9 -9 -15zM345 843c40 0 80 17 97 71h129c-36 -124 -96 -174 -226 -174s-200 50 -226 174h129c17 -54 57 -71 97 -71z
" />
    <glyph glyph-name="abreve" unicode="&#x103;" horiz-adv-x="550" 
d="M60 530h272c110 0 180 -70 180 -180v-240c0 -70 -40 -110 -110 -110h-248c-100 0 -130 58 -130 168c0 100 30 164 130 164h162v10c0 35 -23 52 -60 52h-196v136zM316 208h-49c-34 0 -47 -19 -47 -43c0 -18 8 -41 45 -41h11c30 0 40 16 40 46v38zM264 673
c40 0 70 17 87 71h129c-36 -124 -96 -174 -216 -174s-190 50 -216 174h129c17 -54 47 -71 87 -71z" />
    <glyph glyph-name="Aogonek" unicode="&#x104;" horiz-adv-x="698" 
d="M711 -209h-95c-51 0 -83 21 -83 69c0 12 4 31 11 43l58 97h-132l-35 144h-172l-35 -144h-238l199 623c25 77 80 85 160 85s135 -8 160 -85l200 -623l-55 -91c-6 -10 -9 -17 -9 -22c0 -11 9 -17 27 -17h39v-79zM340 481l-49 -183h116l-49 183c-1 6 -4 15 -9 15
s-8 -9 -9 -15z" />
    <glyph glyph-name="aogonek" unicode="&#x105;" horiz-adv-x="550" 
d="M316 208h-49c-34 0 -47 -19 -47 -43c0 -18 8 -41 45 -41h11c30 0 40 16 40 46v38zM409 -209h-85c-51 0 -83 21 -83 69c0 12 4 31 11 43l58 97h-156c-100 0 -130 58 -130 168c0 100 30 164 130 164h162v10c0 35 -23 52 -60 52h-196v136h272c110 0 180 -70 180 -180v-240
c0 -69 -38 -108 -105 -110l-55 -91c-6 -10 -9 -17 -9 -22c0 -11 9 -17 27 -17h39v-79z" />
    <glyph glyph-name="Cacute" unicode="&#x106;" horiz-adv-x="536" 
d="M512 0h-186c-230 0 -296 110 -296 350s66 350 296 350h176v-174h-80c-130 0 -170 -26 -170 -176s40 -176 170 -176h90v-174zM334 997l97 -99l-172 -158l-97 98z" />
    <glyph glyph-name="cacute" unicode="&#x107;" horiz-adv-x="457" 
d="M439 0h-195c-180 0 -220 104 -220 264s40 266 220 266h184v-140h-94c-80 0 -110 -46 -110 -126s30 -124 110 -124h105v-140zM303 825l87 -97l-182 -158l-87 96z" />
    <glyph glyph-name="Ccircumflex" unicode="&#x108;" horiz-adv-x="536" 
d="M512 0h-186c-230 0 -296 110 -296 350s66 350 296 350h176v-174h-80c-130 0 -170 -26 -170 -176s40 -176 170 -176h90v-174zM405 740l-99 79c-16 12 -22 18 -30 18c-7 0 -12 -6 -28 -18l-99 -79l-72 89l139 114c18 15 37 23 60 23s42 -8 60 -23l139 -114z" />
    <glyph glyph-name="ccircumflex" unicode="&#x109;" horiz-adv-x="457" 
d="M439 0h-195c-180 0 -220 104 -220 264s40 266 220 266h184v-140h-94c-80 0 -110 -46 -110 -126s30 -124 110 -124h105v-140zM354 570l-89 75c-18 15 -27 22 -39 22c-9 0 -20 -6 -39 -22l-89 -75l-72 89l129 110c17 14 39 27 70 27s53 -13 70 -27l129 -110z" />
    <glyph glyph-name="Cdotaccent" unicode="&#x10a;" horiz-adv-x="536" 
d="M512 0h-186c-230 0 -296 110 -296 350s66 350 296 350h176v-174h-80c-130 0 -170 -26 -170 -176s40 -176 170 -176h90v-174zM389 766h-226v130h226v-130z" />
    <glyph glyph-name="cdotaccent" unicode="&#x10b;" horiz-adv-x="457" 
d="M439 0h-195c-180 0 -220 104 -220 264s40 266 220 266h184v-140h-94c-80 0 -110 -46 -110 -126s30 -124 110 -124h105v-140zM332 583h-196v128h196v-128z" />
    <glyph glyph-name="Ccaron" unicode="&#x10c;" horiz-adv-x="536" 
d="M512 0h-186c-230 0 -296 110 -296 350s66 350 296 350h176v-174h-80c-130 0 -170 -26 -170 -176s40 -176 170 -176h90v-174zM147 966l99 -79c16 -12 22 -18 30 -18c7 0 12 6 28 18l99 79l72 -89l-139 -114c-18 -15 -37 -23 -60 -23s-42 8 -60 23l-139 114z" />
    <glyph glyph-name="ccaron" unicode="&#x10d;" horiz-adv-x="457" 
d="M439 0h-195c-180 0 -220 104 -220 264s40 266 220 266h184v-140h-94c-80 0 -110 -46 -110 -126s30 -124 110 -124h105v-140zM96 796l89 -75c19 -16 27 -22 39 -22c9 0 19 5 39 22l89 75l72 -89l-129 -110c-17 -14 -39 -27 -70 -27s-53 13 -70 27l-129 110z" />
    <glyph glyph-name="Dcaron" unicode="&#x10e;" horiz-adv-x="668" 
d="M352 0h-192c-70 0 -110 40 -110 110v480c0 70 40 110 110 110h192c230 0 286 -110 286 -350s-56 -350 -286 -350zM266 476v-252c0 -36 14 -50 50 -50h10c50 0 90 16 90 176c0 157 -48 176 -90 176h-10c-36 0 -50 -14 -50 -50zM195 966l99 -79c16 -12 22 -18 30 -18
c7 0 12 6 28 18l99 79l72 -89l-139 -114c-18 -15 -37 -23 -60 -23s-42 8 -60 23l-139 114z" />
    <glyph glyph-name="dcaron" unicode="&#x10f;" horiz-adv-x="820" 
d="M439 0h-205c-170 0 -209 105 -209 265s39 265 209 265h119v170h196v-590c0 -70 -40 -110 -110 -110zM353 190v200h-61c-59 0 -67 -74 -67 -125c0 -64 7 -125 71 -125h7c40 0 50 10 50 50zM720 392l-149 45l86 286l167 -51z" />
    <glyph glyph-name="Dcroat" unicode="&#x110;" horiz-adv-x="668" 
d="M352 0h-192c-70 0 -110 40 -110 110v161h-60v148h60v171c0 70 40 110 110 110h192c230 0 286 -110 286 -350s-56 -350 -286 -350zM266 476v-57h85v-148h-85v-47c0 -36 14 -50 50 -50h10c50 0 90 16 90 176c0 157 -48 176 -90 176h-10c-36 0 -50 -14 -50 -50z" />
    <glyph glyph-name="dcroat" unicode="&#x111;" horiz-adv-x="590" 
d="M438 0h-205c-170 0 -209 105 -209 265s39 265 209 265h119v44h-123v86h123v40h196v-40h62v-86h-62v-464c0 -70 -40 -110 -110 -110zM352 190v200h-61c-59 0 -67 -74 -67 -125c0 -64 7 -125 71 -125h7c40 0 50 10 50 50z" />
    <glyph glyph-name="Emacron" unicode="&#x112;" horiz-adv-x="570" 
d="M536 700v-170h-226c-30 0 -44 -14 -44 -44v-52h262v-154h-262v-66c0 -30 14 -44 44 -44h230v-170h-380c-70 0 -110 40 -110 110v480c0 70 40 110 110 110h376zM440 766h-289v110h289v-110z" />
    <glyph glyph-name="emacron" unicode="&#x113;" horiz-adv-x="553" 
d="M510 0h-275c-160 0 -205 48 -205 268c0 230 35 268 255 268c180 0 244 -16 244 -216c0 -60 -14 -118 -84 -118h-219c0 -50 27 -66 97 -66h187v-136zM226 326h75c32 0 32 23 32 33c0 38 -18 41 -48 41c-40 0 -59 -8 -59 -74zM421 590h-289v110h289v-110z" />
    <glyph glyph-name="Edotaccent" unicode="&#x116;" horiz-adv-x="570" 
d="M536 700v-170h-226c-30 0 -44 -14 -44 -44v-52h262v-154h-262v-66c0 -30 14 -44 44 -44h230v-170h-380c-70 0 -110 40 -110 110v480c0 70 40 110 110 110h376zM408 766h-226v130h226v-130z" />
    <glyph glyph-name="edotaccent" unicode="&#x117;" horiz-adv-x="553" 
d="M510 0h-275c-160 0 -205 48 -205 268c0 230 35 268 255 268c180 0 244 -16 244 -216c0 -60 -14 -118 -84 -118h-219c0 -50 27 -66 97 -66h187v-136zM226 326h75c32 0 32 23 32 33c0 38 -18 41 -48 41c-40 0 -59 -8 -59 -74zM373 583h-196v128h196v-128z" />
    <glyph glyph-name="Eogonek" unicode="&#x118;" horiz-adv-x="570" 
d="M540 -209h-95c-51 0 -83 21 -83 69c0 12 4 31 11 43l59 97h-272c-70 0 -110 40 -110 110v480c0 70 40 110 110 110h374v-170h-224c-30 0 -44 -14 -44 -44v-52h260v-154h-260v-66c0 -30 14 -44 44 -44h230v-170l-57 -91c-6 -10 -9 -17 -9 -22c0 -11 9 -17 27 -17h39v-79z
" />
    <glyph glyph-name="eogonek" unicode="&#x119;" horiz-adv-x="553" 
d="M512 -209h-85c-51 0 -83 21 -83 69c0 12 4 31 11 43l58 97h-178c-160 0 -205 48 -205 268c0 230 35 268 255 268c180 0 244 -16 244 -216c0 -60 -14 -118 -84 -118h-219c0 -50 27 -66 97 -66h187v-136l-55 -91c-6 -10 -9 -17 -9 -22c0 -11 9 -17 27 -17h39v-79zM226 326
h75c32 0 32 23 32 33c0 38 -18 41 -48 41c-40 0 -59 -8 -59 -74z" />
    <glyph glyph-name="Ecaron" unicode="&#x11a;" horiz-adv-x="570" 
d="M536 700v-170h-226c-30 0 -44 -14 -44 -44v-52h262v-154h-262v-66c0 -30 14 -44 44 -44h230v-170h-380c-70 0 -110 40 -110 110v480c0 70 40 110 110 110h376zM166 966l99 -79c16 -12 22 -18 30 -18c7 0 12 6 28 18l99 79l72 -89l-139 -114c-18 -15 -37 -23 -60 -23
s-42 8 -60 23l-139 114z" />
    <glyph glyph-name="ecaron" unicode="&#x11b;" horiz-adv-x="553" 
d="M510 0h-275c-160 0 -205 48 -205 268c0 230 35 268 255 268c180 0 244 -16 244 -216c0 -60 -14 -118 -84 -118h-219c0 -50 27 -66 97 -66h187v-136zM226 326h75c32 0 32 23 32 33c0 38 -18 41 -48 41c-40 0 -59 -8 -59 -74zM147 796l89 -75c19 -16 27 -22 39 -22
c9 0 19 5 39 22l89 75l72 -89l-129 -110c-17 -14 -39 -27 -70 -27s-53 13 -70 27l-129 110z" />
    <glyph glyph-name="Gcircumflex" unicode="&#x11c;" horiz-adv-x="630" 
d="M584 526h-252c-60 0 -80 -36 -80 -176s20 -176 80 -176h8c30 0 44 14 44 44v152h216v-260c0 -70 -40 -110 -110 -110h-164c-230 0 -296 110 -296 350s66 350 296 350h258v-174zM454 740l-99 79c-16 12 -22 18 -30 18c-7 0 -12 -6 -28 -18l-99 -79l-72 89l139 114
c18 15 37 23 60 23s42 -8 60 -23l139 -114z" />
    <glyph glyph-name="gcircumflex" unicode="&#x11d;" horiz-adv-x="586" 
d="M234 530h204c70 0 110 -40 110 -110v-370c0 -160 -70 -230 -230 -230h-267v128h211c42 0 77 5 90 52h-118c-170 0 -210 104 -210 264s40 266 210 266zM352 140v200c0 40 -10 50 -50 50h-6c-64 0 -72 -62 -72 -126c0 -51 9 -124 68 -124h60zM422 570l-89 75
c-18 15 -27 22 -39 22c-9 0 -20 -6 -39 -22l-89 -75l-72 89l129 110c17 14 39 27 70 27s53 -13 70 -27l129 -110z" />
    <glyph glyph-name="Gbreve" unicode="&#x11e;" horiz-adv-x="630" 
d="M584 526h-252c-60 0 -80 -36 -80 -176s20 -176 80 -176h8c30 0 44 14 44 44v152h216v-260c0 -70 -40 -110 -110 -110h-164c-230 0 -296 110 -296 350s66 350 296 350h258v-174zM325 843c40 0 80 17 97 71h129c-36 -124 -96 -174 -226 -174s-200 50 -226 174h129
c17 -54 57 -71 97 -71z" />
    <glyph glyph-name="gbreve" unicode="&#x11f;" horiz-adv-x="586" 
d="M234 530h204c70 0 110 -40 110 -110v-370c0 -160 -70 -230 -230 -230h-267v128h211c42 0 77 5 90 52h-118c-170 0 -210 104 -210 264s40 266 210 266zM352 140v200c0 40 -10 50 -50 50h-6c-64 0 -72 -62 -72 -126c0 -51 9 -124 68 -124h60zM293 673c40 0 70 17 87 71h129
c-36 -124 -96 -174 -216 -174s-190 50 -216 174h129c17 -54 47 -71 87 -71z" />
    <glyph glyph-name="Gdotaccent" unicode="&#x120;" horiz-adv-x="630" 
d="M584 526h-252c-60 0 -80 -36 -80 -176s20 -176 80 -176h8c30 0 44 14 44 44v152h216v-260c0 -70 -40 -110 -110 -110h-164c-230 0 -296 110 -296 350s66 350 296 350h258v-174zM459 766h-226v130h226v-130z" />
    <glyph glyph-name="gdotaccent" unicode="&#x121;" horiz-adv-x="586" 
d="M234 530h204c70 0 110 -40 110 -110v-370c0 -160 -70 -230 -230 -230h-267v128h211c42 0 77 5 90 52h-118c-170 0 -210 104 -210 264s40 266 210 266zM352 140v200c0 40 -10 50 -50 50h-6c-64 0 -72 -62 -72 -126c0 -51 9 -124 68 -124h60zM407 583h-196v128h196v-128z
" />
    <glyph glyph-name="Gcommaaccent" unicode="&#x122;" horiz-adv-x="630" 
d="M584 526h-252c-60 0 -80 -36 -80 -176s20 -176 80 -176h8c30 0 44 14 44 44v152h216v-260c0 -70 -40 -110 -110 -110h-164c-230 0 -296 110 -296 350s66 350 296 350h258v-174zM368 -371l-149 45l86 286l167 -51z" />
    <glyph glyph-name="gcommaaccent" unicode="&#x123;" horiz-adv-x="586" 
d="M234 530h204c70 0 110 -40 110 -110v-370c0 -160 -70 -230 -230 -230h-267v128h211c42 0 77 5 90 52h-118c-170 0 -210 104 -210 264s40 266 210 266zM352 140v200c0 40 -10 50 -50 50h-6c-64 0 -72 -62 -72 -126c0 -51 9 -124 68 -124h60zM290 901l149 -45l-86 -286
l-167 51z" />
    <glyph glyph-name="Hcircumflex" unicode="&#x124;" horiz-adv-x="666" 
d="M616 700v-700h-216v278h-134v-278h-216v700h216v-248h134v248h216zM462 740l-99 79c-16 12 -22 18 -30 18c-7 0 -12 -6 -28 -18l-99 -79l-72 89l139 114c18 15 37 23 60 23s42 -8 60 -23l139 -114z" />
    <glyph glyph-name="hcircumflex" unicode="&#x125;" horiz-adv-x="592" 
d="M38 0v700h196v-170h100c130 0 220 -70 220 -200v-330h-196v282c0 80 -30 110 -110 110h-14v-392h-196zM272 712l-89 75c-18 15 -27 22 -39 22c-9 0 -20 -6 -39 -22l-89 -75l-72 89l129 110c17 14 39 27 70 27s53 -13 70 -27l129 -110z" />
    <glyph glyph-name="Hbar" unicode="&#x126;" horiz-adv-x="726" 
d="M646 700v-64h90v-118h-90v-518h-216v278h-134v-278h-216v518h-90v118h90v64h216v-64h134v64h216zM296 452h134v66h-134v-66z" />
    <glyph glyph-name="hbar" unicode="&#x127;" horiz-adv-x="588" 
d="M34 0v577h-64v88h64v35h196v-35h107v-88h-107v-47h100c130 0 220 -70 220 -200v-330h-196v282c0 80 -30 110 -110 110h-14v-392h-196z" />
    <glyph glyph-name="Imacron" unicode="&#x12a;" horiz-adv-x="326" 
d="M276 0h-226v700h226v-700zM308 766h-289v110h289v-110z" />
    <glyph glyph-name="imacron" unicode="&#x12b;" horiz-adv-x="256" 
d="M30 0v530h196v-530h-196zM273 590h-289v110h289v-110z" />
    <glyph glyph-name="Iogonek" unicode="&#x12e;" horiz-adv-x="328" 
d="M276 700v-700l-55 -91c-6 -10 -9 -17 -9 -22c0 -11 9 -17 27 -17h39v-79h-85c-51 0 -83 21 -83 69c0 12 4 31 11 43l58 97h-129v700h226z" />
    <glyph glyph-name="iogonek" unicode="&#x12f;" horiz-adv-x="272" 
d="M234 530v-530l-55 -91c-6 -10 -9 -17 -9 -22c0 -11 9 -17 27 -17h39v-79h-85c-51 0 -83 21 -83 69c0 12 4 31 11 43l58 97h-99v530h196zM234 583h-196v128h196v-128z" />
    <glyph glyph-name="Idotaccent" unicode="&#x130;" horiz-adv-x="326" 
d="M276 0h-226v700h226v-700zM276 766h-226v130h226v-130z" />
    <glyph glyph-name="dotlessi" unicode="&#x131;" horiz-adv-x="256" 
d="M30 0v530h196v-530h-196z" />
    <glyph glyph-name="Jcircumflex" unicode="&#x134;" horiz-adv-x="412" 
d="M0 0v174h6c120 0 140 40 140 160v366h216v-450c0 -150 -90 -250 -240 -250h-122zM375 740l-99 79c-16 12 -22 18 -30 18c-7 0 -12 -6 -28 -18l-99 -79l-72 89l139 114c18 15 37 23 60 23s42 -8 60 -23l139 -114z" />
    <glyph glyph-name="jcircumflex" unicode="&#x135;" horiz-adv-x="324" 
d="M-20 -170v126c100 0 110 30 110 130v444h196v-490c0 -200 -86 -210 -306 -210zM301 570l-89 75c-18 15 -27 22 -39 22c-9 0 -20 -6 -39 -22l-89 -75l-72 89l129 110c17 14 39 27 70 27s53 -13 70 -27l129 -110z" />
    <glyph glyph-name="Kcommaaccent" unicode="&#x136;" horiz-adv-x="667" 
d="M683 0h-242l-122 271c-13 28 -21 55 -21 88c0 27 4 56 12 77l98 264h238l-133 -289c-7 -13 -11 -31 -11 -50c0 -15 7 -33 19 -55zM50 0v700h216v-700h-216zM389 -371l-149 45l86 286l167 -51z" />
    <glyph glyph-name="kcommaaccent" unicode="&#x137;" horiz-adv-x="592" 
d="M606 0h-220l-103 190c-14 26 -21 58 -21 85c0 39 15 67 22 83l81 172h212l-111 -201c-8 -14 -14 -37 -14 -48c0 -15 9 -40 20 -58zM234 0h-196v700h196v-700zM323 -371l-149 45l86 286l167 -51z" />
    <glyph glyph-name="Lacute" unicode="&#x139;" horiz-adv-x="536" 
d="M536 0h-376c-70 0 -110 40 -110 110v590h216v-482c0 -30 14 -44 44 -44h226v-174zM355 997l97 -99l-172 -158l-97 98z" />
    <glyph glyph-name="lacute" unicode="&#x13a;" horiz-adv-x="272" 
d="M38 0v700h196v-700h-196zM184 985l87 -97l-182 -158l-87 96z" />
    <glyph glyph-name="Lcommaaccent" unicode="&#x13b;" horiz-adv-x="536" 
d="M536 0h-376c-70 0 -110 40 -110 110v590h216v-482c0 -30 14 -44 44 -44h226v-174zM335 -371l-149 45l86 286l167 -51z" />
    <glyph glyph-name="lcommaaccent" unicode="&#x13c;" horiz-adv-x="272" 
d="M38 0v700h196v-700h-196zM159 -371l-149 45l86 286l167 -51z" />
    <glyph glyph-name="Lcaron" unicode="&#x13d;" horiz-adv-x="536" 
d="M536 0h-376c-70 0 -110 40 -110 110v590h216v-482c0 -30 14 -44 44 -44h226v-174zM445 400l-149 45l86 286l167 -51z" />
    <glyph glyph-name="lcaron" unicode="&#x13e;" horiz-adv-x="506" 
d="M38 0v700h196v-700h-196zM406 392l-149 45l86 286l167 -51z" />
    <glyph glyph-name="Ldot" unicode="&#x13f;" horiz-adv-x="536" 
d="M536 0h-376c-70 0 -110 40 -110 110v590h216v-482c0 -30 14 -44 44 -44h226v-174zM536 366h-226v130h226v-130z" />
    <glyph glyph-name="ldot" unicode="&#x140;" horiz-adv-x="450" 
d="M38 0v700h196v-700h-196zM456 283h-196v128h196v-128z" />
    <glyph glyph-name="Lslash" unicode="&#x141;" horiz-adv-x="582" 
d="M582 0h-376c-70 0 -110 40 -110 110v76l-56 -41l-50 67l106 80v408h226v-246l164 124l50 -67l-214 -162v-131c0 -30 14 -44 44 -44h216v-174z" />
    <glyph glyph-name="lslash" unicode="&#x142;" horiz-adv-x="409" 
d="M107 0v201l-64 -49l-53 67l117 92v389h196v-236l73 57l53 -68l-126 -99v-354h-196z" />
    <glyph glyph-name="Nacute" unicode="&#x143;" horiz-adv-x="724" 
d="M674 700v-583c0 -25 -5 -125 -142 -125c-73 0 -154 1 -182 89l-107 337c-3 11 -8 17 -15 17c-3 0 -14 0 -14 -20v-415h-164v584c0 91 66 124 147 124c57 0 151 -1 178 -85l109 -340c3 -11 7 -17 15 -17c11 0 11 12 11 17v417h164zM400 997l97 -99l-172 -158l-97 98z" />
    <glyph glyph-name="nacute" unicode="&#x144;" horiz-adv-x="592" 
d="M38 0v420c0 80 40 110 110 110h196c130 0 210 -70 210 -200v-330h-196v280c0 70 0 110 -80 110h-4c-30 0 -40 -10 -40 -40v-350h-196zM354 825l87 -97l-182 -158l-87 96z" />
    <glyph glyph-name="Ncommaaccent" unicode="&#x145;" horiz-adv-x="724" 
d="M674 700v-583c0 -25 -5 -125 -142 -125c-73 0 -154 1 -182 89l-107 337c-3 11 -8 17 -15 17c-3 0 -14 0 -14 -20v-415h-164v584c0 91 66 124 147 124c57 0 151 -1 178 -85l109 -340c3 -11 7 -17 15 -17c11 0 11 12 11 17v417h164zM374 -371l-149 45l86 286l167 -51z" />
    <glyph glyph-name="ncommaaccent" unicode="&#x146;" horiz-adv-x="592" 
d="M38 0v420c0 80 40 110 110 110h196c130 0 210 -70 210 -200v-330h-196v280c0 70 0 110 -80 110h-4c-30 0 -40 -10 -40 -40v-350h-196zM318 -371l-149 45l86 286l167 -51z" />
    <glyph glyph-name="Ncaron" unicode="&#x147;" horiz-adv-x="724" 
d="M674 700v-583c0 -25 -5 -125 -142 -125c-73 0 -154 1 -182 89l-107 337c-3 11 -8 17 -15 17c-3 0 -14 0 -14 -20v-415h-164v584c0 91 66 124 147 124c57 0 151 -1 178 -85l109 -340c3 -11 7 -17 15 -17c11 0 11 12 11 17v417h164zM233 966l99 -79c16 -12 22 -18 30 -18
c7 0 12 6 28 18l99 79l72 -89l-139 -114c-18 -15 -37 -23 -60 -23s-42 8 -60 23l-139 114z" />
    <glyph glyph-name="ncaron" unicode="&#x148;" horiz-adv-x="592" 
d="M38 0v420c0 80 40 110 110 110h196c130 0 210 -70 210 -200v-330h-196v280c0 70 0 110 -80 110h-4c-30 0 -40 -10 -40 -40v-350h-196zM167 796l89 -75c19 -16 27 -22 39 -22c9 0 19 5 39 22l89 75l72 -89l-129 -110c-17 -14 -39 -27 -70 -27s-53 13 -70 27l-129 110z" />
    <glyph glyph-name="Omacron" unicode="&#x14c;" 
d="M345 708c250 0 315 -58 315 -358s-65 -358 -315 -358s-315 58 -315 358s65 358 315 358zM252 350c0 -120 3 -184 93 -184s93 64 93 184s-3 184 -93 184s-93 -64 -93 -184zM500 766h-289v110h289v-110z" />
    <glyph glyph-name="omacron" unicode="&#x14d;" horiz-adv-x="590" 
d="M295 536c210 0 271 -51 271 -271s-61 -271 -271 -271s-271 51 -271 271s61 271 271 271zM224 265c0 -80 1 -131 71 -131s71 51 71 131s-1 131 -71 131s-71 -51 -71 -131zM440 590h-289v110h289v-110z" />
    <glyph glyph-name="Obreve" unicode="&#x14e;" 
d="M345 708c250 0 315 -58 315 -358s-65 -358 -315 -358s-315 58 -315 358s65 358 315 358zM252 350c0 -120 3 -184 93 -184s93 64 93 184s-3 184 -93 184s-93 -64 -93 -184zM355 843c40 0 80 17 97 71h129c-36 -124 -96 -174 -226 -174s-200 50 -226 174h129
c17 -54 57 -71 97 -71z" />
    <glyph glyph-name="obreve" unicode="&#x14f;" horiz-adv-x="590" 
d="M295 536c210 0 271 -51 271 -271s-61 -271 -271 -271s-271 51 -271 271s61 271 271 271zM224 265c0 -80 1 -131 71 -131s71 51 71 131s-1 131 -71 131s-71 -51 -71 -131zM295 673c40 0 70 17 87 71h129c-36 -124 -96 -174 -216 -174s-190 50 -216 174h129
c17 -54 47 -71 87 -71z" />
    <glyph glyph-name="Ohungarumlaut" unicode="&#x150;" 
d="M345 708c250 0 315 -58 315 -358s-65 -358 -315 -358s-315 58 -315 358s65 358 315 358zM252 350c0 -120 3 -184 93 -184s93 64 93 184s-3 184 -93 184s-93 -64 -93 -184zM282 1005l87 -76l-162 -189l-86 75zM521 1005l87 -76l-162 -189l-86 75z" />
    <glyph glyph-name="ohungarumlaut" unicode="&#x151;" horiz-adv-x="590" 
d="M295 536c210 0 271 -51 271 -271s-61 -271 -271 -271s-271 51 -271 271s61 271 271 271zM224 265c0 -80 1 -131 71 -131s71 51 71 131s-1 131 -71 131s-71 -51 -71 -131zM213 835l87 -76l-162 -189l-86 75zM452 835l87 -76l-162 -189l-86 75z" />
    <glyph glyph-name="OE" unicode="&#x152;" horiz-adv-x="960" 
d="M926 700v-170h-225c-30 0 -44 -14 -44 -44v-52h261v-154h-261v-66c0 -30 14 -44 44 -44h229v-170h-347c-28 0 -44 6 -57 21c-43 -27 -116 -29 -181 -29c-250 0 -315 58 -315 358s65 358 315 358c66 0 139 -2 181 -30c14 15 29 22 57 22h343zM252 350
c0 -120 3 -184 93 -184s93 64 93 184s-3 184 -93 184s-93 -64 -93 -184z" />
    <glyph glyph-name="oe" unicode="&#x153;" horiz-adv-x="892" 
d="M849 0h-275c-58 0 -85 14 -114 36c-41 -26 -84 -42 -165 -42c-210 0 -271 51 -271 271s61 271 271 271c78 0 120 -15 160 -40c38 25 82 40 169 40c180 0 244 -16 244 -216c0 -60 -14 -118 -84 -118h-218c0 -50 26 -66 96 -66h187v-136zM224 265c0 -80 1 -131 71 -131
s71 51 71 131s-1 131 -71 131s-71 -51 -71 -131zM566 326h74c32 0 32 23 32 33c0 38 -18 41 -48 41c-40 0 -58 -8 -58 -74z" />
    <glyph glyph-name="Racute" unicode="&#x154;" horiz-adv-x="699" 
d="M50 0v590c0 70 40 110 110 110h325c160 0 180 -88 180 -238c0 -110 -14 -249 -134 -249h-6v-4l154 -209h-242l-97 162c-22 36 -36 65 -36 105v25c0 60 11 79 71 79h4c60 0 70 19 70 79s-10 76 -70 76h-69c-30 0 -44 -14 -44 -44v-482h-216zM392 997l97 -99l-172 -158
l-97 98z" />
    <glyph glyph-name="racute" unicode="&#x155;" horiz-adv-x="367" 
d="M38 0v310c0 170 90 220 260 220h69v-138h-13c-90 0 -120 -50 -120 -140v-252h-196zM250 825l87 -97l-182 -158l-87 96z" />
    <glyph glyph-name="Rcommaaccent" unicode="&#x156;" horiz-adv-x="699" 
d="M50 0v590c0 70 40 110 110 110h325c160 0 180 -88 180 -238c0 -110 -14 -249 -134 -249h-6v-4l154 -209h-242l-97 162c-22 36 -36 65 -36 105v25c0 60 11 79 71 79h4c60 0 70 19 70 79s-10 76 -70 76h-69c-30 0 -44 -14 -44 -44v-482h-216zM387 -371l-149 45l86 286
l167 -51z" />
    <glyph glyph-name="rcommaaccent" unicode="&#x157;" horiz-adv-x="367" 
d="M38 0v310c0 170 90 220 260 220h69v-138h-13c-90 0 -120 -50 -120 -140v-252h-196zM225 -371l-149 45l86 286l167 -51z" />
    <glyph glyph-name="Rcaron" unicode="&#x158;" horiz-adv-x="699" 
d="M50 0v590c0 70 40 110 110 110h325c160 0 180 -88 180 -238c0 -110 -14 -249 -134 -249h-6v-4l154 -209h-242l-97 162c-22 36 -36 65 -36 105v25c0 60 11 79 71 79h4c60 0 70 19 70 79s-10 76 -70 76h-69c-30 0 -44 -14 -44 -44v-482h-216zM225 966l99 -79
c16 -12 22 -18 30 -18c7 0 12 6 28 18l99 79l72 -89l-139 -114c-18 -15 -37 -23 -60 -23s-42 8 -60 23l-139 114z" />
    <glyph glyph-name="rcaron" unicode="&#x159;" horiz-adv-x="367" 
d="M38 0v310c0 170 90 220 260 220h69v-138h-13c-90 0 -120 -50 -120 -140v-252h-196zM54 796l89 -75c19 -16 27 -22 39 -22c9 0 19 5 39 22l89 75l72 -89l-129 -110c-17 -14 -39 -27 -70 -27s-53 13 -70 27l-129 110z" />
    <glyph glyph-name="Sacute" unicode="&#x15a;" horiz-adv-x="582" 
d="M27 0v174h278c33 0 39 9 39 20c0 17 -22 27 -45 37l-171 76c-89 40 -108 109 -108 209c0 110 34 184 154 184h362v-174h-256c-20 0 -48 0 -48 -18c0 -20 34 -31 59 -43l136 -63c103 -48 135 -89 135 -209s-30 -193 -160 -193h-375zM349 997l97 -99l-172 -158l-97 98z" />
    <glyph glyph-name="sacute" unicode="&#x15b;" horiz-adv-x="484" 
d="M30 0v142h209c7 0 17 4 17 14c0 16 -37 32 -59 43l-54 27c-84 42 -119 59 -119 159s50 145 140 145h282v-136h-208c-8 0 -32 0 -32 -10c0 -15 10 -22 41 -37l74 -35c92 -43 139 -62 139 -172c0 -100 -50 -140 -140 -140h-290zM290 825l87 -97l-182 -158l-87 96z" />
    <glyph glyph-name="Scircumflex" unicode="&#x15c;" horiz-adv-x="582" 
d="M27 0v174h278c33 0 39 9 39 20c0 17 -22 27 -45 37l-171 76c-89 40 -108 109 -108 209c0 110 34 184 154 184h362v-174h-256c-20 0 -48 0 -48 -18c0 -20 34 -31 59 -43l136 -63c103 -48 135 -89 135 -209s-30 -193 -160 -193h-375zM420 740l-99 79c-16 12 -22 18 -30 18
c-7 0 -12 -6 -28 -18l-99 -79l-72 89l139 114c18 15 37 23 60 23s42 -8 60 -23l139 -114z" />
    <glyph glyph-name="scircumflex" unicode="&#x15d;" horiz-adv-x="484" 
d="M30 0v142h209c7 0 17 4 17 14c0 16 -37 32 -59 43l-54 27c-84 42 -119 59 -119 159s50 145 140 145h282v-136h-208c-8 0 -32 0 -32 -10c0 -15 10 -22 41 -37l74 -35c92 -43 139 -62 139 -172c0 -100 -50 -140 -140 -140h-290zM371 570l-89 75c-18 15 -27 22 -39 22
c-9 0 -20 -6 -39 -22l-89 -75l-72 89l129 110c17 14 39 27 70 27s53 -13 70 -27l129 -110z" />
    <glyph glyph-name="Scedilla" unicode="&#x15e;" horiz-adv-x="582" 
d="M27 0v174h278c33 0 39 9 39 20c0 17 -22 27 -45 37l-171 76c-89 40 -108 109 -108 209c0 110 34 184 154 184h362v-174h-256c-20 0 -48 0 -48 -18c0 -20 34 -31 59 -43l136 -63c103 -48 135 -89 135 -209s-30 -193 -160 -193h-69l-11 -23c-2 -4 -3 -6 -3 -7
c0 -5 5 -5 8 -5h9c50 0 75 -22 75 -82s-40 -83 -100 -83h-84v70h69c12 0 21 3 21 14c0 15 -16 15 -24 15h-30c-27 0 -35 14 -35 29c0 8 3 16 5 21l24 51h-230z" />
    <glyph glyph-name="scedilla" unicode="&#x15f;" horiz-adv-x="484" 
d="M30 0v142h209c7 0 17 4 17 14c0 16 -37 32 -59 43l-54 27c-84 42 -119 59 -119 159s50 145 140 145h282v-136h-208c-8 0 -32 0 -32 -10c0 -15 10 -22 41 -37l74 -35c92 -43 139 -62 139 -172c0 -100 -50 -140 -140 -140h-36l-11 -23c-2 -4 -3 -6 -3 -7c0 -5 5 -5 8 -5h9
c50 0 75 -22 75 -82s-40 -83 -100 -83h-84v70h69c12 0 21 3 21 14c0 15 -16 15 -24 15h-30c-27 0 -35 14 -35 29c0 8 3 16 5 21l24 51h-178z" />
    <glyph glyph-name="Scaron" unicode="&#x160;" horiz-adv-x="582" 
d="M27 0v174h278c33 0 39 9 39 20c0 17 -22 27 -45 37l-171 76c-89 40 -108 109 -108 209c0 110 34 184 154 184h362v-174h-256c-20 0 -48 0 -48 -18c0 -20 34 -31 59 -43l136 -63c103 -48 135 -89 135 -209s-30 -193 -160 -193h-375zM162 966l99 -79c16 -12 22 -18 30 -18
c7 0 12 6 28 18l99 79l72 -89l-139 -114c-18 -15 -37 -23 -60 -23s-42 8 -60 23l-139 114z" />
    <glyph glyph-name="scaron" unicode="&#x161;" horiz-adv-x="484" 
d="M30 0v142h209c7 0 17 4 17 14c0 16 -37 32 -59 43l-54 27c-84 42 -119 59 -119 159s50 145 140 145h282v-136h-208c-8 0 -32 0 -32 -10c0 -15 10 -22 41 -37l74 -35c92 -43 139 -62 139 -172c0 -100 -50 -140 -140 -140h-290zM113 796l89 -75c19 -16 27 -22 39 -22
c9 0 19 5 39 22l89 75l72 -89l-129 -110c-17 -14 -39 -27 -70 -27s-53 13 -70 27l-129 110z" />
    <glyph glyph-name="Tcommaaccent" unicode="&#x162;" horiz-adv-x="596" 
d="M406 0h-216v526h-190v174h596v-174h-190v-526zM315 -371l-149 45l86 286l167 -51z" />
    <glyph glyph-name="tcommaaccent" unicode="&#x163;" horiz-adv-x="380" 
d="M376 0h-97c-110 0 -200 50 -200 180v210h-75v140h75v170h196v-170h101v-140h-101v-120c0 -80 0 -130 90 -130h11v-140zM223 -371l-149 45l86 286l167 -51z" />
    <glyph glyph-name="Tcaron" unicode="&#x164;" horiz-adv-x="596" 
d="M406 0h-216v526h-190v174h596v-174h-190v-526zM174 966l99 -79c16 -12 22 -18 30 -18c7 0 12 6 28 18l99 79l72 -89l-139 -114c-18 -15 -37 -23 -60 -23s-42 8 -60 23l-139 114z" />
    <glyph glyph-name="tcaron" unicode="&#x165;" horiz-adv-x="520" 
d="M376 0h-97c-110 0 -200 50 -200 180v210h-75v140h75v170h196v-170h101v-140h-101v-120c0 -80 0 -130 90 -130h11v-140zM462 552l-149 45l86 286l167 -51z" />
    <glyph glyph-name="Utilde" unicode="&#x168;" horiz-adv-x="666" 
d="M333 174c60 0 67 44 67 124v402h216v-420c0 -220 -63 -288 -283 -288s-283 68 -283 288v420h216v-402c0 -80 7 -124 67 -124zM172 744l-68 76c44 49 107 85 153 85c70 0 105 -52 145 -52c34 0 68 32 93 59l68 -72c-47 -53 -103 -94 -155 -94c-71 0 -105 49 -143 49
c-33 0 -63 -25 -93 -51z" />
    <glyph glyph-name="utilde" unicode="&#x169;" horiz-adv-x="592" 
d="M554 530v-420c0 -80 -40 -110 -110 -110h-196c-130 0 -210 70 -210 200v330h196v-280c0 -70 0 -110 80 -110h4c30 0 40 10 40 40v350h196zM145 574l-68 76c44 49 87 85 153 85c52 0 95 -52 131 -52c34 0 60 32 87 59l68 -72c-47 -53 -83 -94 -155 -94
c-55 0 -95 49 -129 49c-33 0 -59 -25 -87 -51z" />
    <glyph glyph-name="Umacron" unicode="&#x16a;" horiz-adv-x="666" 
d="M333 174c60 0 67 44 67 124v402h216v-420c0 -220 -63 -288 -283 -288s-283 68 -283 288v420h216v-402c0 -80 7 -124 67 -124zM478 766h-289v110h289v-110z" />
    <glyph glyph-name="umacron" unicode="&#x16b;" horiz-adv-x="592" 
d="M554 530v-420c0 -80 -40 -110 -110 -110h-196c-130 0 -210 70 -210 200v330h196v-280c0 -70 0 -110 80 -110h4c30 0 40 10 40 40v350h196zM441 590h-289v110h289v-110z" />
    <glyph glyph-name="Ubreve" unicode="&#x16c;" horiz-adv-x="666" 
d="M333 174c60 0 67 44 67 124v402h216v-420c0 -220 -63 -288 -283 -288s-283 68 -283 288v420h216v-402c0 -80 7 -124 67 -124zM333 843c40 0 80 17 97 71h129c-36 -124 -96 -174 -226 -174s-200 50 -226 174h129c17 -54 57 -71 97 -71z" />
    <glyph glyph-name="ubreve" unicode="&#x16d;" horiz-adv-x="592" 
d="M554 530v-420c0 -80 -40 -110 -110 -110h-196c-130 0 -210 70 -210 200v330h196v-280c0 -70 0 -110 80 -110h4c30 0 40 10 40 40v350h196zM296 673c40 0 70 17 87 71h129c-36 -124 -96 -174 -216 -174s-190 50 -216 174h129c17 -54 47 -71 87 -71z" />
    <glyph glyph-name="Uring" unicode="&#x16e;" horiz-adv-x="666" 
d="M333 174c60 0 67 44 67 124v402h216v-420c0 -220 -63 -288 -283 -288s-283 68 -283 288v420h216v-402c0 -80 7 -124 67 -124zM334 977c90 0 119 -39 119 -119s-29 -118 -119 -118s-120 38 -120 118s30 119 120 119zM286 858c0 -30 8 -52 48 -52s47 22 47 52s-7 53 -47 53
s-48 -23 -48 -53z" />
    <glyph glyph-name="uring" unicode="&#x16f;" horiz-adv-x="592" 
d="M554 530v-420c0 -80 -40 -110 -110 -110h-196c-130 0 -210 70 -210 200v330h196v-280c0 -70 0 -110 80 -110h4c30 0 40 10 40 40v350h196zM297 807c90 0 119 -39 119 -119s-29 -118 -119 -118s-120 38 -120 118s30 119 120 119zM249 688c0 -30 8 -52 48 -52s47 22 47 52
s-7 53 -47 53s-48 -23 -48 -53z" />
    <glyph glyph-name="Uhungarumlaut" unicode="&#x170;" horiz-adv-x="666" 
d="M333 174c60 0 67 44 67 124v402h216v-420c0 -220 -63 -288 -283 -288s-283 68 -283 288v420h216v-402c0 -80 7 -124 67 -124zM261 1005l87 -76l-162 -189l-86 75zM500 1005l87 -76l-162 -189l-86 75z" />
    <glyph glyph-name="uhungarumlaut" unicode="&#x171;" horiz-adv-x="592" 
d="M554 530v-420c0 -80 -40 -110 -110 -110h-196c-130 0 -210 70 -210 200v330h196v-280c0 -70 0 -110 80 -110h4c30 0 40 10 40 40v350h196zM224 835l87 -76l-162 -189l-86 75zM463 835l87 -76l-162 -189l-86 75z" />
    <glyph glyph-name="Uogonek" unicode="&#x172;" horiz-adv-x="666" 
d="M448 -209h-95c-51 0 -83 21 -83 69c0 12 4 31 11 43l52 89c-220 0 -283 68 -283 288v420h216v-402c0 -80 7 -124 67 -124s67 44 67 124v402h216v-420c0 -178 -42 -257 -170 -280l-55 -91c-6 -10 -9 -17 -9 -22c0 -11 9 -17 27 -17h39v-79z" />
    <glyph glyph-name="uogonek" unicode="&#x173;" horiz-adv-x="592" 
d="M458 -209h-85c-51 0 -83 21 -83 69c0 12 4 31 11 43l58 97h-111c-130 0 -210 70 -210 200v330h196v-280c0 -70 0 -110 80 -110h4c30 0 40 10 40 40v350h196v-420c0 -76 -36 -107 -98 -110l-55 -91c-6 -10 -9 -17 -9 -22c0 -11 9 -17 27 -17h39v-79z" />
    <glyph glyph-name="Ydieresis" unicode="&#x178;" horiz-adv-x="622" 
d="M311 398l99 302h232l-223 -506v-194h-216v194l-223 506h232zM526 766h-172v129h172v-129zM268 766h-172v129h172v-129z" />
    <glyph glyph-name="Zacute" unicode="&#x179;" horiz-adv-x="550" 
d="M538 0h-408c-40 0 -126 0 -126 92c0 60 51 124 78 163l170 243c4 6 9 12 9 20c0 7 -7 8 -18 8h-218v174h423c48 0 98 -14 98 -93c0 -48 -49 -118 -69 -146l-180 -261c-4 -6 -8 -11 -8 -16c0 -4 1 -10 12 -10h237v-174zM322 997l97 -99l-172 -158l-97 98z" />
    <glyph glyph-name="zacute" unicode="&#x17a;" horiz-adv-x="476" 
d="M97 0c-50 0 -87 39 -87 102c0 42 19 68 49 103l149 173c5 5 8 9 8 11c0 3 -3 5 -10 5h-177v136h339c58 0 98 -34 98 -97c0 -59 -24 -77 -48 -106l-142 -168c-5 -5 -8 -10 -8 -13s1 -4 9 -4h180v-142h-360zM296 825l87 -97l-182 -158l-87 96z" />
    <glyph glyph-name="Zdotaccent" unicode="&#x17b;" horiz-adv-x="550" 
d="M538 0h-408c-40 0 -126 0 -126 92c0 60 51 124 78 163l170 243c4 6 9 12 9 20c0 7 -7 8 -18 8h-218v174h423c48 0 98 -14 98 -93c0 -48 -49 -118 -69 -146l-180 -261c-4 -6 -8 -11 -8 -16c0 -4 1 -10 12 -10h237v-174zM387 766h-226v130h226v-130z" />
    <glyph glyph-name="zdotaccent" unicode="&#x17c;" horiz-adv-x="476" 
d="M97 0c-50 0 -87 39 -87 102c0 42 19 68 49 103l149 173c5 5 8 9 8 11c0 3 -3 5 -10 5h-177v136h339c58 0 98 -34 98 -97c0 -59 -24 -77 -48 -106l-142 -168c-5 -5 -8 -10 -8 -13s1 -4 9 -4h180v-142h-360zM335 583h-196v128h196v-128z" />
    <glyph glyph-name="Zcaron" unicode="&#x17d;" horiz-adv-x="550" 
d="M538 0h-408c-40 0 -126 0 -126 92c0 60 51 124 78 163l170 243c4 6 9 12 9 20c0 7 -7 8 -18 8h-218v174h423c48 0 98 -14 98 -93c0 -48 -49 -118 -69 -146l-180 -261c-4 -6 -8 -11 -8 -16c0 -4 1 -10 12 -10h237v-174zM145 966l99 -79c16 -12 22 -18 30 -18
c7 0 12 6 28 18l99 79l72 -89l-139 -114c-18 -15 -37 -23 -60 -23s-42 8 -60 23l-139 114z" />
    <glyph glyph-name="zcaron" unicode="&#x17e;" horiz-adv-x="476" 
d="M97 0c-50 0 -87 39 -87 102c0 42 19 68 49 103l149 173c5 5 8 9 8 11c0 3 -3 5 -10 5h-177v136h339c58 0 98 -34 98 -97c0 -59 -24 -77 -48 -106l-142 -168c-5 -5 -8 -10 -8 -13s1 -4 9 -4h180v-142h-360zM109 796l89 -75c19 -16 27 -22 39 -22c9 0 19 5 39 22l89 75
l72 -89l-129 -110c-17 -14 -39 -27 -70 -27s-53 13 -70 27l-129 110z" />
    <glyph glyph-name="uni018F" unicode="&#x18f;" horiz-adv-x="638" 
d="M322 0h-36c-190 0 -256 50 -256 220s66 216 256 216h93c0 64 -48 90 -133 90h-190v174h266c230 0 286 -110 286 -350s-56 -350 -286 -350zM242 226c0 -34 22 -52 62 -52h6c50 0 72 31 72 104h-78c-40 0 -62 -12 -62 -52z" />
    <glyph glyph-name="florin" unicode="&#x192;" horiz-adv-x="421" 
d="M219 -170h-196l99 560h-69l24 140h69c39 178 176 178 336 178l-22 -122c-79 0 -105 0 -118 -56h108l-24 -140h-108z" />
    <glyph glyph-name="uni01CF" unicode="&#x1cf;" horiz-adv-x="326" 
d="M276 0h-226v700h226v-700zM34 966l99 -79c16 -12 22 -18 30 -18c7 0 12 6 28 18l99 79l72 -89l-139 -114c-18 -15 -37 -23 -60 -23s-42 8 -60 23l-139 114z" />
    <glyph glyph-name="uni01D0" unicode="&#x1d0;" horiz-adv-x="256" 
d="M30 0v530h196v-530h-196zM-1 796l89 -75c19 -16 27 -22 39 -22c9 0 19 5 39 22l89 75l72 -89l-129 -110c-17 -14 -39 -27 -70 -27s-53 13 -70 27l-129 110z" />
    <glyph glyph-name="uni01DD" unicode="&#x1dd;" horiz-adv-x="553" 
d="M43 530h275c160 0 205 -48 205 -268c0 -230 -35 -268 -255 -268c-180 0 -244 16 -244 216c0 60 14 118 84 118h219c0 50 -27 66 -97 66h-187v136zM327 204h-75c-32 0 -32 -23 -32 -33c0 -38 18 -41 48 -41c40 0 59 8 59 74z" />
    <glyph glyph-name="Gcaron" unicode="&#x1e6;" horiz-adv-x="630" 
d="M584 526h-252c-60 0 -80 -36 -80 -176s20 -176 80 -176h8c30 0 44 14 44 44v152h216v-260c0 -70 -40 -110 -110 -110h-164c-230 0 -296 110 -296 350s66 350 296 350h258v-174zM196 966l99 -79c16 -12 22 -18 30 -18c7 0 12 6 28 18l99 79l72 -89l-139 -114
c-18 -15 -37 -23 -60 -23s-42 8 -60 23l-139 114z" />
    <glyph glyph-name="gcaron" unicode="&#x1e7;" horiz-adv-x="586" 
d="M234 530h204c70 0 110 -40 110 -110v-370c0 -160 -70 -230 -230 -230h-267v128h211c42 0 77 5 90 52h-118c-170 0 -210 104 -210 264s40 266 210 266zM352 140v200c0 40 -10 50 -50 50h-6c-64 0 -72 -62 -72 -126c0 -51 9 -124 68 -124h60zM164 796l89 -75
c19 -16 27 -22 39 -22c9 0 19 5 39 22l89 75l72 -89l-129 -110c-17 -14 -39 -27 -70 -27s-53 13 -70 27l-129 110z" />
    <glyph glyph-name="AEacute" unicode="&#x1fc;" horiz-adv-x="1174" 
d="M899 700v-170h-216c-30 0 -44 -14 -44 -44v-52h252v-154h-252v-66c0 -30 14 -44 44 -44h221v-170h-371c-70 0 -110 40 -110 110v31h-136l-55 -141h-252l263 612c37 87 110 88 177 88h479zM411 502l-75 -199h87v198c0 9 -1 14 -3 14s-5 -4 -9 -13zM625 997l97 -99
l-172 -158l-97 98z" />
    <glyph glyph-name="aeacute" unicode="&#x1fd;" horiz-adv-x="839" 
d="M796 0h-275c-50 0 -75 9 -97 25c-12 -15 -36 -25 -71 -25h-199c-100 0 -130 58 -130 168c0 100 30 161 130 161h162v13c0 35 -23 52 -60 52h-196v136h289c27 0 53 -4 75 -23c38 24 73 29 147 29c180 0 244 -13 244 -213c0 -60 -14 -118 -84 -118h-219
c0 -50 27 -69 97 -69h187v-136zM316 205h-49c-34 0 -47 -16 -47 -40c0 -18 8 -41 45 -41h11c30 0 40 16 40 46v35zM512 329h75c32 0 32 23 32 33c0 37 -18 38 -48 38c-40 0 -59 -5 -59 -71zM516 825l87 -97l-182 -158l-87 96z" />
    <glyph glyph-name="Scommaaccent" unicode="&#x218;" horiz-adv-x="582" 
d="M27 0v174h278c33 0 39 9 39 20c0 17 -22 27 -45 37l-171 76c-89 40 -108 109 -108 209c0 110 34 184 154 184h362v-174h-256c-20 0 -48 0 -48 -18c0 -20 34 -31 59 -43l136 -63c103 -48 135 -89 135 -209s-30 -193 -160 -193h-375zM334 -371l-149 45l86 286l167 -51z" />
    <glyph glyph-name="scommaaccent" unicode="&#x219;" horiz-adv-x="484" 
d="M30 0v142h209c7 0 17 4 17 14c0 16 -37 32 -59 43l-54 27c-84 42 -119 59 -119 159s50 145 140 145h282v-136h-208c-8 0 -32 0 -32 -10c0 -15 10 -22 41 -37l74 -35c92 -43 139 -62 139 -172c0 -100 -50 -140 -140 -140h-290zM275 -371l-149 45l86 286l167 -51z" />
    <glyph glyph-name="uni021A" unicode="&#x21a;" horiz-adv-x="596" 
d="M406 0h-216v526h-190v174h596v-174h-190v-526zM315 -371l-149 45l86 286l167 -51z" />
    <glyph glyph-name="uni021B" unicode="&#x21b;" horiz-adv-x="380" 
d="M376 0h-97c-110 0 -200 50 -200 180v210h-75v140h75v170h196v-170h101v-140h-101v-120c0 -80 0 -130 90 -130h11v-140zM223 -371l-149 45l86 286l167 -51z" />
    <glyph glyph-name="uni0228" unicode="&#x228;" horiz-adv-x="570" 
d="M258 -200v70h69c12 0 21 3 21 14c0 15 -16 15 -24 15h-30c-27 0 -35 14 -35 29c0 8 3 16 5 21l24 51h-128c-70 0 -110 40 -110 110v480c0 70 40 110 110 110h376v-170h-226c-30 0 -44 -14 -44 -44v-52h262v-154h-262v-66c0 -30 14 -44 44 -44h230v-170h-176l-11 -23
c-2 -4 -3 -6 -3 -7c0 -5 5 -5 8 -5h9c50 0 75 -22 75 -82s-40 -83 -100 -83h-84z" />
    <glyph glyph-name="uni0229" unicode="&#x229;" horiz-adv-x="553" 
d="M210 -200v70h69c12 0 21 3 21 14c0 15 -16 15 -24 15h-30c-27 0 -35 14 -35 29c0 8 3 16 5 21l24 51h-5c-160 0 -205 48 -205 268c0 230 35 268 255 268c180 0 244 -16 244 -216c0 -60 -14 -118 -84 -118h-219c0 -50 27 -66 97 -66h187v-136h-194l-11 -23
c-2 -4 -3 -6 -3 -7c0 -5 5 -5 8 -5h9c50 0 75 -22 75 -82s-40 -83 -100 -83h-84zM226 326h75c32 0 32 23 32 33c0 38 -18 41 -48 41c-40 0 -59 -8 -59 -74z" />
    <glyph glyph-name="uni0237" unicode="&#x237;" horiz-adv-x="324" 
d="M-20 -170v126c100 0 110 30 110 130v444h196v-490c0 -200 -86 -210 -306 -210z" />
    <glyph glyph-name="uni0259" unicode="&#x259;" horiz-adv-x="553" 
d="M43 530h275c160 0 205 -48 205 -268c0 -230 -35 -268 -255 -268c-180 0 -244 16 -244 216c0 60 14 118 84 118h219c0 50 -27 66 -97 66h-187v136zM327 204h-75c-32 0 -32 -23 -32 -33c0 -38 18 -41 48 -41c40 0 59 8 59 74z" />
    <glyph glyph-name="afii57929" unicode="&#x2bc;" horiz-adv-x="263" 
d="M129 392l-149 45l86 286l167 -51z" />
    <glyph glyph-name="circumflex" unicode="&#x2c6;" horiz-adv-x="478" 
d="M368 570l-89 75c-18 15 -27 22 -39 22c-9 0 -20 -6 -39 -22l-89 -75l-72 89l129 110c17 14 39 27 70 27s53 -13 70 -27l129 -110z" />
    <glyph glyph-name="caron" unicode="&#x2c7;" horiz-adv-x="478" 
d="M110 796l89 -75c19 -16 27 -22 39 -22c9 0 19 5 39 22l89 75l72 -89l-129 -110c-17 -14 -39 -27 -70 -27s-53 13 -70 27l-129 110z" />
    <glyph glyph-name="uni02C9" unicode="&#x2c9;" horiz-adv-x="349" 
d="M319 590h-289v110h289v-110z" />
    <glyph glyph-name="breve" unicode="&#x2d8;" horiz-adv-x="512" 
d="M256 673c40 0 70 17 87 71h129c-36 -124 -96 -174 -216 -174s-190 50 -216 174h129c17 -54 47 -71 87 -71z" />
    <glyph glyph-name="dotaccent" unicode="&#x2d9;" horiz-adv-x="274" 
d="M234 583h-196v128h196v-128z" />
    <glyph glyph-name="ring" unicode="&#x2da;" horiz-adv-x="299" 
d="M150 807c90 0 119 -39 119 -119s-29 -118 -119 -118s-120 38 -120 118s30 119 120 119zM102 688c0 -30 8 -52 48 -52s47 22 47 52s-7 53 -47 53s-48 -23 -48 -53z" />
    <glyph glyph-name="ogonek" unicode="&#x2db;" horiz-adv-x="228" 
d="M198 -209h-85c-51 0 -83 21 -83 69c0 12 4 31 11 43l58 97h97l-55 -91c-6 -10 -9 -17 -9 -22c0 -11 9 -17 27 -17h39v-79z" />
    <glyph glyph-name="tilde" unicode="&#x2dc;" horiz-adv-x="519" 
d="M108 574l-68 76c44 49 87 85 153 85c52 0 95 -52 131 -52c34 0 60 32 87 59l68 -72c-47 -53 -83 -94 -155 -94c-55 0 -95 49 -129 49c-33 0 -59 -25 -87 -51z" />
    <glyph glyph-name="hungarumlaut" unicode="&#x2dd;" horiz-adv-x="547" 
d="M191 835l87 -76l-162 -189l-86 75zM430 835l87 -76l-162 -189l-86 75z" />
    <glyph glyph-name="acutecomb" unicode="&#x301;" horiz-adv-x="2" 
d="M-230 827l93 -99l-182 -158l-93 98z" />
    <glyph glyph-name="uni037E" unicode="&#x37e;" horiz-adv-x="339" 
d="M120 -143l-120 72l153 256l136 -82zM289 356h-176v174h176v-174z" />
    <glyph glyph-name="uni0394" unicode="&#x394;" horiz-adv-x="698" 
d="M61 223l124 386c20 62 36 99 164 99s144 -37 164 -99l124 -386c16 -51 39 -114 39 -148c0 -38 -18 -75 -92 -75h-470c-74 0 -92 37 -92 75c0 34 23 97 39 148zM337 478l-69 -262c-3 -11 -5 -23 -5 -27c0 -15 14 -15 24 -15h124c10 0 24 0 24 15c0 4 -2 16 -5 27l-69 262
c-2 9 -5 18 -12 18s-10 -9 -12 -18z" />
    <glyph glyph-name="uni03A9" unicode="&#x3a9;" horiz-adv-x="700" 
d="M184 142v7c-116 36 -154 114 -154 262c0 205 62 297 320 297s320 -92 320 -297c0 -148 -38 -226 -154 -262v-7h150v-142h-174c-80 0 -102 41 -102 114v60c0 47 5 60 32 88c25 26 26 62 26 138c0 98 -22 134 -98 134s-98 -36 -98 -134c0 -76 1 -112 26 -138
c27 -28 32 -41 32 -88v-60c0 -73 -22 -114 -102 -114h-174v142h150z" />
    <glyph glyph-name="uni03BC" unicode="&#x3bc;" horiz-adv-x="596" 
d="M38 -177v707h197v-300c0 -53 3 -96 62 -96c50 0 64 40 64 93v303h197v-530h-187v73c-16 -51 -31 -79 -75 -79c-47 0 -58 29 -71 72v-243h-187z" />
    <glyph glyph-name="pi" unicode="&#x3c0;" horiz-adv-x="654" 
d="M74 0v396c-37 0 -62 -13 -74 -21v134c28 15 57 21 94 21h560v-134h-60v-238c0 -47 15 -56 42 -56h10v-102c-25 -3 -52 -5 -91 -5c-102 0 -157 24 -157 144v257h-128v-396h-196z" />
    <glyph glyph-name="afii10023" unicode="&#x401;" horiz-adv-x="570" 
d="M536 700v-170h-226c-30 0 -44 -14 -44 -44v-52h262v-154h-262v-66c0 -30 14 -44 44 -44h230v-170h-380c-70 0 -110 40 -110 110v480c0 70 40 110 110 110h376zM505 766h-172v129h172v-129zM247 766h-172v129h172v-129z" />
    <glyph glyph-name="afii10051" unicode="&#x402;" horiz-adv-x="732" 
d="M141 0v526h-141v174h538v-174h-181v-90h161c160 0 190 -71 190 -221s-30 -215 -190 -215h-116v170h4c50 0 80 5 80 55s-30 57 -80 57h-49v-282h-216z" />
    <glyph glyph-name="afii10052" unicode="&#x403;" horiz-adv-x="546" 
d="M276 0h-226v590c0 70 40 110 110 110h386v-174h-226c-30 0 -44 -14 -44 -44v-482zM331 997l97 -99l-172 -158l-97 98z" />
    <glyph glyph-name="afii10053" unicode="&#x404;" horiz-adv-x="542" 
d="M512 0h-186c-230 0 -296 110 -296 350s66 350 296 350h176v-174h-70c-115 0 -166 -16 -173 -90h233v-158h-236c4 -87 54 -104 176 -104h80v-174z" />
    <glyph glyph-name="afii10054" unicode="&#x405;" horiz-adv-x="582" 
d="M27 0v174h278c33 0 39 9 39 20c0 17 -22 27 -45 37l-171 76c-89 40 -108 109 -108 209c0 110 34 184 154 184h362v-174h-256c-20 0 -48 0 -48 -18c0 -20 34 -31 59 -43l136 -63c103 -48 135 -89 135 -209s-30 -193 -160 -193h-375z" />
    <glyph glyph-name="afii10055" unicode="&#x406;" horiz-adv-x="326" 
d="M276 0h-226v700h226v-700z" />
    <glyph glyph-name="afii10056" unicode="&#x407;" horiz-adv-x="326" 
d="M276 0h-226v700h226v-700zM336 746h-150v129h150v-129zM140 746h-150v129h150v-129z" />
    <glyph glyph-name="afii10057" unicode="&#x408;" horiz-adv-x="412" 
d="M0 0v174h6c120 0 140 40 140 160v366h216v-450c0 -150 -90 -250 -240 -250h-122z" />
    <glyph glyph-name="afii10058" unicode="&#x409;" horiz-adv-x="1016" 
d="M408 500c0 8 0 19 -11 19c-5 0 -10 -2 -13 -11l-157 -508h-247l239 619c29 75 98 89 211 89c157 0 194 -25 194 -115v-135h172c160 0 190 -80 190 -230s-30 -228 -190 -228h-278c-70 0 -110 40 -110 110v390zM673 288h-49v-74c0 -30 14 -44 44 -44h5c60 0 91 8 91 58
s-31 60 -91 60z" />
    <glyph glyph-name="afii10059" unicode="&#x40a;" horiz-adv-x="1008" 
d="M400 700h216v-242h172c160 0 190 -80 190 -230s-30 -228 -190 -228h-278c-70 0 -110 40 -110 110v178h-134v-288h-216v700h216v-242h134v242zM665 288h-49v-74c0 -30 14 -44 44 -44h5c60 0 91 8 91 58s-31 60 -91 60z" />
    <glyph glyph-name="afii10060" unicode="&#x40b;" horiz-adv-x="745" 
d="M141 0v526h-141v174h548v-174h-191v-103h178c120 0 170 -60 170 -180v-243h-216v179c0 60 -10 70 -70 70h-62v-249h-216z" />
    <glyph glyph-name="afii10061" unicode="&#x40c;" horiz-adv-x="667" 
d="M683 0h-242l-122 271c-13 28 -21 55 -21 88c0 27 4 56 12 77l98 264h238l-133 -289c-7 -13 -11 -31 -11 -50c0 -15 7 -33 19 -55zM50 0v700h216v-700h-216zM374 997l97 -99l-172 -158l-97 98z" />
    <glyph glyph-name="afii10062" unicode="&#x40e;" horiz-adv-x="664" 
d="M391 0h-246l82 179l-241 521h252l107 -298l87 298h246zM331 843c40 0 70 17 77 71h169c-16 -124 -106 -174 -246 -174s-240 50 -246 174h169c7 -54 37 -71 77 -71z" />
    <glyph glyph-name="afii10145" unicode="&#x40f;" horiz-adv-x="666" 
d="M400 700h216v-590c0 -70 -40 -110 -110 -110h-65v-170h-216v170h-65c-70 0 -110 40 -110 110v590h216v-482c0 -30 14 -44 44 -44h46c30 0 44 14 44 44v482z" />
    <glyph glyph-name="afii10017" unicode="&#x410;" 
d="M-14 0l199 623c25 77 80 85 160 85s135 -8 160 -85l199 -623h-238l-35 144h-172l-35 -144h-238zM336 481l-49 -183h116l-49 183c-1 6 -4 15 -9 15s-7 -9 -9 -15z" />
    <glyph glyph-name="afii10018" unicode="&#x411;" horiz-adv-x="666" 
d="M50 588c0 107 84 112 109 112h444v-174h-294c-42 0 -43 -16 -43 -42v-48h180c160 0 190 -69 190 -219s-30 -217 -190 -217h-286c-70 0 -110 40 -110 110v478zM325 282h-59v-70c0 -30 14 -42 44 -42h15c60 0 89 5 89 55s-29 57 -89 57z" />
    <glyph glyph-name="afii10019" unicode="&#x412;" horiz-adv-x="665" 
d="M260 277v-63c0 -40 10 -50 50 -50h43c40 0 66 17 66 57s-26 56 -66 56h-93zM260 496v-65h84c40 0 61 13 61 53s-22 52 -62 52h-43c-30 0 -40 -10 -40 -40zM524 356c99 -18 111 -70 111 -160c0 -130 -30 -196 -180 -196h-295c-70 0 -110 40 -110 110v480
c0 70 40 110 110 110h275c140 0 184 -56 184 -196c0 -70 -16 -129 -95 -144v-4z" />
    <glyph glyph-name="afii10020" unicode="&#x413;" horiz-adv-x="546" 
d="M276 0h-226v590c0 70 40 110 110 110h386v-174h-226c-30 0 -44 -14 -44 -44v-482z" />
    <glyph glyph-name="afii10021" unicode="&#x414;" horiz-adv-x="788" 
d="M190 -135h-206v199c0 70 30 110 100 110h6l123 435c20 72 63 99 181 99s161 -27 181 -99l122 -435h6c70 0 101 -40 101 -110v-199h-206v91c0 28 -12 42 -38 44h-333c-25 -2 -37 -16 -37 -44v-91zM371 488l-64 -314h174l-64 314c-2 9 -6 28 -23 28s-21 -19 -23 -28z" />
    <glyph glyph-name="afii10022" unicode="&#x415;" horiz-adv-x="570" 
d="M536 700v-170h-226c-30 0 -44 -14 -44 -44v-52h262v-154h-262v-66c0 -30 14 -44 44 -44h230v-170h-380c-70 0 -110 40 -110 110v480c0 70 40 110 110 110h376z" />
    <glyph glyph-name="afii10024" unicode="&#x416;" horiz-adv-x="998" 
d="M226 0h-242l152 306c12 23 19 40 19 55c0 19 -5 36 -11 50l-123 289h238l88 -264c7 -22 12 -50 12 -77c0 -33 -9 -59 -21 -88zM607 700v-700h-216v700h216zM1014 0h-242l-112 271c-12 29 -21 55 -21 88c0 27 5 55 12 77l88 264h238l-123 -289c-6 -14 -11 -31 -11 -50
c0 -15 7 -32 19 -55z" />
    <glyph glyph-name="afii10025" unicode="&#x417;" horiz-adv-x="578" 
d="M427 356c99 -18 121 -70 121 -160c0 -130 -40 -196 -190 -196h-328v174h221c40 0 69 13 69 53s-29 52 -69 52h-207v152h200c40 0 61 8 61 48s-22 47 -62 47h-209v174h301c140 0 194 -56 194 -196c0 -70 -23 -129 -102 -144v-4z" />
    <glyph glyph-name="afii10026" unicode="&#x418;" horiz-adv-x="742" 
d="M692 0h-210l10 401c0 15 0 26 -10 26c-7 0 -13 -13 -22 -44l-93 -320c-20 -67 -85 -71 -161 -71c-138 0 -156 83 -156 168v540h210l-10 -391c0 -19 0 -35 10 -35c7 0 12 13 18 35l87 317c22 81 101 82 161 82c160 0 166 -115 166 -173v-535z" />
    <glyph glyph-name="afii10027" unicode="&#x419;" horiz-adv-x="742" 
d="M692 0h-210l10 401c0 15 0 26 -10 26c-7 0 -13 -13 -22 -44l-93 -320c-20 -67 -85 -71 -161 -71c-138 0 -156 83 -156 168v540h210l-10 -391c0 -19 0 -35 10 -35c7 0 12 13 18 35l87 317c22 81 101 82 161 82c160 0 166 -115 166 -173v-535zM376 843c40 0 70 17 77 71
h169c-16 -124 -106 -174 -246 -174s-240 50 -246 174h169c7 -54 37 -71 77 -71z" />
    <glyph glyph-name="afii10028" unicode="&#x41a;" horiz-adv-x="667" 
d="M683 0h-242l-122 271c-13 28 -21 55 -21 88c0 27 4 56 12 77l98 264h238l-133 -289c-7 -13 -11 -31 -11 -50c0 -15 7 -33 19 -55zM50 0v700h216v-700h-216z" />
    <glyph glyph-name="afii10029" unicode="&#x41b;" horiz-adv-x="682" 
d="M-14 0l176 606c29 102 116 102 179 102s150 0 179 -102l176 -606h-240l-104 479c-2 10 -6 17 -11 17s-9 -7 -11 -17l-104 -479h-240z" />
    <glyph glyph-name="afii10030" unicode="&#x41c;" horiz-adv-x="952" 
d="M679 424l-78 -338c-14 -62 -26 -94 -125 -94s-111 32 -125 94l-78 338c-3 14 -8 25 -13 25c-9 0 -9 -15 -9 -23l7 -426h-208v585c0 123 126 123 162 123c60 0 152 -1 176 -116l71 -340c4 -18 8 -30 17 -30s13 12 17 30l71 340c24 115 117 116 176 116
c159 0 162 -79 162 -123v-585h-208l8 426c0 10 -1 23 -9 23c-4 0 -10 -6 -14 -25z" />
    <glyph glyph-name="afii10031" unicode="&#x41d;" horiz-adv-x="666" 
d="M616 700v-700h-216v278h-134v-278h-216v700h216v-248h134v248h216z" />
    <glyph glyph-name="afii10032" unicode="&#x41e;" 
d="M345 708c250 0 315 -58 315 -358s-65 -358 -315 -358s-315 58 -315 358s65 358 315 358zM252 350c0 -120 3 -184 93 -184s93 64 93 184s-3 184 -93 184s-93 -64 -93 -184z" />
    <glyph glyph-name="afii10033" unicode="&#x41f;" horiz-adv-x="670" 
d="M266 0h-216v590c0 70 40 110 110 110h350c70 0 110 -40 110 -110v-590h-216v482c0 30 -14 44 -44 44h-50c-30 0 -44 -14 -44 -44v-482z" />
    <glyph glyph-name="afii10034" unicode="&#x420;" horiz-adv-x="660" 
d="M266 0h-216v590c0 70 40 110 110 110h286c160 0 190 -88 190 -248s-30 -250 -190 -250h-180v-202zM266 376h57c60 0 90 16 90 76s-30 74 -90 74h-13c-30 0 -44 -14 -44 -44v-106z" />
    <glyph glyph-name="afii10035" unicode="&#x421;" horiz-adv-x="536" 
d="M512 0h-186c-230 0 -296 110 -296 350s66 350 296 350h176v-174h-80c-130 0 -170 -26 -170 -176s40 -176 170 -176h90v-174z" />
    <glyph glyph-name="afii10036" unicode="&#x422;" horiz-adv-x="596" 
d="M406 0h-216v526h-190v174h596v-174h-190v-526z" />
    <glyph glyph-name="afii10037" unicode="&#x423;" horiz-adv-x="664" 
d="M391 0h-246l82 179l-241 521h252l107 -298l87 298h246z" />
    <glyph glyph-name="afii10038" unicode="&#x424;" horiz-adv-x="906" 
d="M345 700h216v-63h100c160 0 215 -92 215 -282s-55 -282 -215 -282h-100v-73h-216v73h-100c-160 0 -215 92 -215 282s55 282 215 282h100v63zM351 243v224h-16c-80 0 -93 -43 -93 -113s13 -111 93 -111h16zM555 243h16c79 0 93 41 93 111s-13 113 -93 113h-16v-224z" />
    <glyph glyph-name="afii10039" unicode="&#x425;" horiz-adv-x="634" 
d="M654 0h-260l-77 197l-77 -197h-260l205 355l-197 345h260l69 -187l69 187h260l-197 -345z" />
    <glyph glyph-name="afii10040" unicode="&#x426;" horiz-adv-x="708" 
d="M266 218c0 -30 14 -44 44 -44h92v526h216v-526h10c70 0 100 -40 100 -110v-199h-196v91c0 28 -12 42 -38 44h-334c-70 0 -110 40 -110 110v590h216v-482z" />
    <glyph glyph-name="afii10041" unicode="&#x427;" horiz-adv-x="644" 
d="M594 0h-216v277h-168c-120 0 -180 60 -180 180v243h216v-179c0 -60 10 -70 70 -70h62v249h216v-700z" />
    <glyph glyph-name="afii10042" unicode="&#x428;" horiz-adv-x="1002" 
d="M736 700h216v-590c0 -70 -40 -110 -110 -110h-682c-70 0 -110 40 -110 110v590h216v-482c0 -30 14 -44 44 -44h83v526h216v-526h83c30 0 44 14 44 44v482z" />
    <glyph glyph-name="afii10043" unicode="&#x429;" horiz-adv-x="1042" 
d="M266 218c0 -30 14 -44 44 -44h83v526h216v-526h127v526h216v-526h10c70 0 100 -40 100 -110v-199h-196v91c0 28 -12 42 -36 44h-670c-70 0 -110 40 -110 110v590h216v-482z" />
    <glyph glyph-name="afii10044" unicode="&#x42a;" horiz-adv-x="778" 
d="M271 0c-70 0 -110 40 -110 110v372c0 30 -14 44 -44 44h-117v174h267c70 0 110 -40 110 -110v-132h181c160 0 190 -80 190 -230s-30 -228 -190 -228h-287zM436 288h-59v-74c0 -30 14 -44 44 -44h15c60 0 90 8 90 58s-30 60 -90 60z" />
    <glyph glyph-name="afii10045" unicode="&#x42b;" horiz-adv-x="966" 
d="M916 0h-216v700h216v-700zM50 700h216v-242h174c160 0 190 -80 190 -230s-30 -228 -190 -228h-280c-70 0 -110 40 -110 110v590zM324 288h-58v-74c0 -30 14 -44 44 -44h14c60 0 90 8 90 58s-30 60 -90 60z" />
    <glyph glyph-name="afii10046" unicode="&#x42c;" horiz-adv-x="667" 
d="M50 700h216v-242h181c160 0 190 -80 190 -230s-30 -228 -190 -228h-287c-70 0 -110 40 -110 110v590zM325 288h-59v-74c0 -30 14 -44 44 -44h15c60 0 90 8 90 58s-30 60 -90 60z" />
    <glyph glyph-name="afii10047" unicode="&#x42d;" horiz-adv-x="542" 
d="M216 0h-186v174h80c122 0 172 17 176 104h-236v158h233c-7 74 -58 90 -173 90h-70v174h176c230 0 296 -110 296 -350s-66 -350 -296 -350z" />
    <glyph glyph-name="afii10048" unicode="&#x42e;" horiz-adv-x="1010" 
d="M665 708c250 0 315 -58 315 -358s-65 -358 -315 -358c-230 0 -303 49 -314 289h-85v-281h-216v700h216v-264h86c13 225 89 272 313 272zM572 350c0 -120 3 -184 93 -184s93 64 93 184s-3 184 -93 184s-93 -64 -93 -184z" />
    <glyph glyph-name="afii10049" unicode="&#x42f;" horiz-adv-x="699" 
d="M649 590v-590h-216v482c0 30 -14 44 -44 44h-69c-60 0 -70 -16 -70 -76s10 -79 70 -79h4c60 0 71 -19 71 -79v-25c0 -40 -14 -68 -36 -105l-97 -162h-242l154 209v4h-6c-120 0 -134 149 -134 249c0 150 30 238 180 238h325c70 0 110 -40 110 -110z" />
    <glyph glyph-name="afii10065" unicode="&#x430;" horiz-adv-x="550" 
d="M60 530h272c110 0 180 -70 180 -180v-240c0 -70 -40 -110 -110 -110h-248c-100 0 -130 58 -130 168c0 100 30 164 130 164h162v10c0 35 -23 52 -60 52h-196v136zM316 208h-49c-34 0 -47 -19 -47 -43c0 -18 8 -41 45 -41h11c30 0 40 16 40 46v38z" />
    <glyph glyph-name="afii10066" unicode="&#x431;" horiz-adv-x="586" 
d="M534 564h-215c-60 0 -85 -8 -85 -78h108c170 0 220 -68 220 -248c0 -210 -55 -244 -265 -244s-259 34 -259 222v275c0 164 116 209 202 209h294v-136zM234 350v-136c0 -60 13 -80 63 -80c60 0 65 34 65 104s-5 112 -65 112h-63z" />
    <glyph glyph-name="afii10067" unicode="&#x432;" horiz-adv-x="582" 
d="M448 274v-4c69 -7 110 -42 110 -122c0 -130 -79 -148 -179 -148h-231c-70 0 -110 40 -110 110v310c0 70 40 110 110 110h227c100 0 179 -7 179 -137c0 -80 -32 -109 -106 -119zM234 328h70c36 0 56 7 56 39s-20 39 -56 39h-30c-30 0 -40 -24 -40 -54v-24zM234 208v-28
c0 -30 10 -56 40 -56h29c36 0 57 6 57 40s-21 44 -57 44h-69z" />
    <glyph glyph-name="afii10068" unicode="&#x433;" horiz-adv-x="419" 
d="M38 0v420c0 80 40 110 110 110h271v-140h-145c-30 0 -40 -10 -40 -40v-350h-196z" />
    <glyph glyph-name="afii10069" unicode="&#x434;" 
d="M-14 -130v160c0 80 40 110 90 110h10l75 307c22 89 124 89 184 89s162 0 184 -89l75 -307h10c50 0 90 -30 90 -110v-160h-176v90c0 30 -10 40 -40 40h-293c-25 0 -33 -12 -33 -40v-90h-176zM307 353l-35 -223h146l-35 223c-4 23 -17 31 -38 31s-34 -8 -38 -31z" />
    <glyph glyph-name="afii10070" unicode="&#x435;" horiz-adv-x="553" 
d="M510 0h-275c-160 0 -205 48 -205 268c0 230 35 268 255 268c180 0 244 -16 244 -216c0 -60 -14 -118 -84 -118h-219c0 -50 27 -66 97 -66h187v-136zM226 326h75c32 0 32 23 32 33c0 38 -18 41 -48 41c-40 0 -59 -8 -59 -74z" />
    <glyph glyph-name="afii10072" unicode="&#x436;" horiz-adv-x="874" 
d="M206 0h-220l126 227c13 24 18 39 18 53c0 13 -4 30 -19 58l-101 192h214l76 -178c18 -43 20 -61 20 -80c0 -21 -6 -51 -20 -79zM530 0h-186v530h186v-530zM888 0h-220l-94 193c-14 28 -20 58 -20 79c0 19 2 37 20 80l76 178h214l-101 -192c-15 -28 -19 -45 -19 -58
c0 -14 5 -29 18 -53z" />
    <glyph glyph-name="afii10073" unicode="&#x437;" horiz-adv-x="459" 
d="M325 274v-4c69 -7 110 -42 110 -122c0 -130 -79 -148 -179 -148h-232v142h156c30 0 57 0 57 34s-27 34 -57 34h-142v122h143c30 0 56 0 56 32s-26 32 -56 32h-149v134h220c100 0 179 -7 179 -137c0 -80 -32 -109 -106 -119z" />
    <glyph glyph-name="afii10074" unicode="&#x438;" horiz-adv-x="587" 
d="M549 0h-176l6 255c0 9 0 16 -8 16c-7 0 -11 -5 -16 -16l-106 -215c-21 -43 -56 -46 -99 -46c-63 0 -112 17 -112 100v436h176l-6 -255c0 -10 1 -15 9 -15s13 8 16 15l110 221c18 36 41 40 92 40c92 0 114 -39 114 -106v-430z" />
    <glyph glyph-name="afii10075" unicode="&#x439;" horiz-adv-x="587" 
d="M549 0h-176l6 255c0 9 0 16 -8 16c-7 0 -11 -5 -16 -16l-106 -215c-21 -43 -56 -46 -99 -46c-63 0 -112 17 -112 100v436h176l-6 -255c0 -10 1 -15 9 -15s13 8 16 15l110 221c18 36 41 40 92 40c92 0 114 -39 114 -106v-430zM292 663c40 0 70 17 77 71h149
c-26 -124 -96 -174 -226 -174s-210 50 -226 174h149c7 -54 37 -71 77 -71z" />
    <glyph glyph-name="afii10076" unicode="&#x43a;" horiz-adv-x="592" 
d="M606 0h-220l-104 193c-14 26 -20 58 -20 79c0 19 1 40 20 80l86 178h214l-111 -192c-15 -26 -19 -45 -19 -58c0 -14 5 -31 18 -53zM234 0h-196v530h196v-530z" />
    <glyph glyph-name="afii10077" unicode="&#x43b;" horiz-adv-x="568" 
d="M378 0l-81 316c-3 10 -6 18 -13 18s-10 -8 -13 -18l-81 -316h-204l154 458c24 70 101 78 144 78c42 0 120 -8 144 -78l154 -458h-204z" />
    <glyph glyph-name="afii10078" unicode="&#x43c;" horiz-adv-x="786" 
d="M564 304l-79 -258c-15 -51 -52 -52 -92 -52s-76 1 -92 52l-79 257c-3 10 -7 14 -11 14c-5 0 -7 -3 -7 -12l6 -305h-172v435c0 70 70 101 141 101c73 0 117 -6 138 -82l61 -220c5 -18 8 -23 15 -23s10 5 15 23l61 220c21 76 65 82 138 82c71 0 141 -31 141 -101v-435h-172
l6 306c0 12 -4 12 -7 12c-4 0 -9 -4 -11 -14z" />
    <glyph glyph-name="afii10079" unicode="&#x43d;" horiz-adv-x="592" 
d="M554 0h-196v204h-124v-204h-196v530h196v-186h124v186h196v-530z" />
    <glyph glyph-name="afii10080" unicode="&#x43e;" horiz-adv-x="590" 
d="M295 536c210 0 271 -51 271 -271s-61 -271 -271 -271s-271 51 -271 271s61 271 271 271zM224 265c0 -80 1 -131 71 -131s71 51 71 131s-1 131 -71 131s-71 -51 -71 -131z" />
    <glyph glyph-name="afii10081" unicode="&#x43f;" horiz-adv-x="596" 
d="M38 0v420c0 80 40 110 110 110h300c70 0 110 -30 110 -110v-420h-196v350c0 30 -10 40 -40 40h-48c-30 0 -40 -10 -40 -40v-350h-196z" />
    <glyph glyph-name="afii10082" unicode="&#x440;" horiz-adv-x="586" 
d="M148 530h204c170 0 210 -105 210 -265s-40 -265 -210 -265h-118v-170h-196v590c0 70 40 110 110 110zM234 340v-200h60c59 0 68 74 68 125c0 64 -8 125 -72 125h-6c-40 0 -50 -10 -50 -50z" />
    <glyph glyph-name="afii10083" unicode="&#x441;" horiz-adv-x="457" 
d="M439 0h-195c-180 0 -220 104 -220 264s40 266 220 266h184v-140h-94c-90 0 -110 -46 -110 -126s20 -124 110 -124h105v-140z" />
    <glyph glyph-name="afii10084" unicode="&#x442;" horiz-adv-x="492" 
d="M344 0h-196v390h-148v140h492v-140h-148v-390z" />
    <glyph glyph-name="afii10085" unicode="&#x443;" horiz-adv-x="552" 
d="M566 530l-236 -701h-196l73 171l-221 530h206l102 -316l70 316h202z" />
    <glyph glyph-name="afii10086" unicode="&#x444;" horiz-adv-x="830" 
d="M323 700h184v-170h100c160 0 199 -114 199 -264s-39 -266 -199 -266h-100v-170h-184v170h-100c-160 0 -199 116 -199 266s39 264 199 264h100v170zM323 138v254h-10c-90 0 -103 -36 -103 -126s13 -128 103 -128h10zM507 138h10c90 0 103 38 103 128s-13 126 -103 126h-10
v-254z" />
    <glyph glyph-name="afii10087" unicode="&#x445;" horiz-adv-x="552" 
d="M572 0h-228l-68 150l-68 -150h-228l177 272l-160 258h223l56 -136l56 136h223l-160 -258z" />
    <glyph glyph-name="afii10088" unicode="&#x446;" horiz-adv-x="650" 
d="M554 140h10c70 0 100 -30 100 -110v-160h-186v90c0 30 -10 40 -40 40h-290c-70 0 -110 30 -110 110v420h196v-350c0 -30 10 -40 40 -40h84v390h196v-390z" />
    <glyph glyph-name="afii10089" unicode="&#x447;" horiz-adv-x="566" 
d="M528 0h-191v189h-171c-90 0 -140 60 -140 150v191h191v-110c0 -60 10 -80 70 -80h50v190h191v-530z" />
    <glyph glyph-name="afii10090" unicode="&#x448;" horiz-adv-x="840" 
d="M802 530v-420c0 -80 -40 -110 -110 -110h-544c-70 0 -110 30 -110 110v420h192v-350c0 -30 10 -40 40 -40h54v390h192v-390h54c30 0 40 10 40 40v350h192z" />
    <glyph glyph-name="afii10091" unicode="&#x449;" horiz-adv-x="897" 
d="M801 140h10c70 0 100 -30 100 -110v-160h-186v90c0 28 -9 40 -34 40h-543c-70 0 -110 30 -110 110v420h192v-350c0 -30 10 -40 40 -40h53v390h192v-390h94v390h192v-390z" />
    <glyph glyph-name="afii10092" unicode="&#x44a;" horiz-adv-x="702" 
d="M536 0h-273c-62 0 -105 38 -105 105v245c0 30 -10 40 -40 40h-118v140h244c70 0 110 -30 110 -110v-58h182c120 0 142 -71 142 -181s-22 -181 -142 -181zM354 226v-50c0 -30 10 -40 40 -40h32c40 0 52 15 52 45s-12 45 -52 45h-72z" />
    <glyph glyph-name="afii10093" unicode="&#x44b;" horiz-adv-x="836" 
d="M602 0v530h196v-530h-196zM412 0h-269c-62 0 -105 38 -105 105v425h196v-168h178c120 0 142 -71 142 -181s-22 -181 -142 -181zM234 226v-50c0 -30 10 -40 40 -40h28c40 0 52 15 52 45s-12 45 -52 45h-68z" />
    <glyph glyph-name="afii10094" unicode="&#x44c;" horiz-adv-x="582" 
d="M416 0h-273c-62 0 -105 38 -105 105v425h196v-168h182c120 0 142 -71 142 -181s-22 -181 -142 -181zM234 226v-50c0 -30 10 -40 40 -40h32c40 0 52 15 52 45s-12 45 -52 45h-72z" />
    <glyph glyph-name="afii10095" unicode="&#x44d;" horiz-adv-x="462" 
d="M218 0h-194v136h124c60 0 86 19 86 66h-196v130h193c-2 41 -28 62 -83 62h-116v136h186c180 0 220 -106 220 -266s-40 -264 -220 -264z" />
    <glyph glyph-name="afii10096" unicode="&#x44e;" horiz-adv-x="840" 
d="M551 536c200 0 265 -51 265 -271s-65 -271 -265 -271c-182 0 -255 42 -266 217h-57v-211h-190v530h190v-195h58c14 161 89 201 265 201zM480 265c0 -80 1 -131 71 -131s71 51 71 131s-1 131 -71 131s-71 -51 -71 -131z" />
    <glyph glyph-name="afii10097" unicode="&#x44f;" horiz-adv-x="589" 
d="M20 0l115 181c3 3 5 7 5 11c0 6 -9 6 -13 6h-5c-70 0 -101 82 -101 172s40 160 130 160h290c70 0 110 -40 110 -110v-420h-196v352c0 30 -14 44 -44 44h-50c-30 0 -44 -14 -44 -44s14 -41 44 -41h4c50 0 64 -11 64 -61c0 -40 -7 -68 -27 -105l-82 -145h-200z" />
    <glyph glyph-name="afii10071" unicode="&#x451;" horiz-adv-x="553" 
d="M510 0h-275c-160 0 -205 48 -205 268c0 230 35 268 255 268c180 0 244 -16 244 -216c0 -60 -14 -118 -84 -118h-219c0 -50 27 -66 97 -66h187v-136zM226 326h75c32 0 32 23 32 33c0 38 -18 41 -48 41c-40 0 -59 -8 -59 -74zM322 583v128h154v-128h-154zM246 583h-154v128
h154v-128z" />
    <glyph glyph-name="afii10099" unicode="&#x452;" horiz-adv-x="578" 
d="M34 0v577h-64v88h64v35h196v-35h107v-88h-107v-47h100c130 0 220 -70 220 -200v-180c0 -111 -33 -222 -97 -320h-204c63 93 105 186 105 320v132c0 80 -30 110 -110 110h-14v-392h-196z" />
    <glyph glyph-name="afii10100" unicode="&#x453;" horiz-adv-x="419" 
d="M38 0v420c0 80 40 110 110 110h271v-140h-145c-30 0 -40 -10 -40 -40v-350h-196zM277 825l87 -97l-182 -158l-87 96z" />
    <glyph glyph-name="afii10101" unicode="&#x454;" horiz-adv-x="464" 
d="M440 0h-196c-180 0 -220 104 -220 264s40 266 220 266h188v-136h-108c-55 0 -91 -21 -93 -62h197v-130h-200c0 -47 36 -66 96 -66h116v-136z" />
    <glyph glyph-name="afii10102" unicode="&#x455;" horiz-adv-x="484" 
d="M30 0v142h209c7 0 17 4 17 14c0 16 -37 32 -59 43l-54 27c-84 42 -119 59 -119 159s50 145 140 145h282v-136h-208c-8 0 -32 0 -32 -10c0 -15 10 -22 41 -37l74 -35c92 -43 139 -62 139 -172c0 -100 -50 -140 -140 -140h-290z" />
    <glyph glyph-name="afii10103" unicode="&#x456;" horiz-adv-x="272" 
d="M38 0v530h196v-530h-196zM234 583h-196v128h196v-128z" />
    <glyph glyph-name="afii10104" unicode="&#x457;" horiz-adv-x="284" 
d="M44 0v530h196v-530h-196zM162 583v128h112v-128h-112zM122 583h-112v128h112v-128z" />
    <glyph glyph-name="afii10105" unicode="&#x458;" horiz-adv-x="336" 
d="M-40 -170v126c57 0 83 4 110 25c25 20 40 45 40 101v448h196v-489c0 -47 -7 -127 -77 -173c-51 -33 -129 -38 -269 -38zM306 583h-196v128h196v-128z" />
    <glyph glyph-name="afii10106" unicode="&#x459;" horiz-adv-x="883" 
d="M717 0h-263c-62 0 -105 38 -105 105v258c0 21 -6 22 -10 22s-10 -3 -13 -12l-133 -373h-209l192 463c26 62 95 73 187 73c122 0 182 -8 182 -101v-73h172c120 0 142 -71 142 -181s-22 -181 -142 -181zM545 226v-50c0 -30 10 -40 40 -40h22c40 0 52 15 52 45
s-12 45 -52 45h-62z" />
    <glyph glyph-name="afii10107" unicode="&#x45a;" horiz-adv-x="892" 
d="M726 0h-263c-62 0 -105 38 -105 105v117h-124v-222h-196v530h196v-168h124v168h196v-168h172c120 0 142 -71 142 -181s-22 -181 -142 -181zM554 226v-50c0 -30 10 -40 40 -40h22c40 0 52 15 52 45s-12 45 -52 45h-62z" />
    <glyph glyph-name="afii10108" unicode="&#x45b;" horiz-adv-x="588" 
d="M34 0v577h-64v88h64v35h196v-35h107v-88h-107v-47h100c130 0 220 -70 220 -200v-330h-196v282c0 80 -30 110 -110 110h-14v-392h-196z" />
    <glyph glyph-name="afii10109" unicode="&#x45c;" horiz-adv-x="592" 
d="M606 0h-220l-104 193c-14 26 -20 58 -20 79c0 19 1 40 20 80l86 178h214l-111 -192c-15 -26 -19 -45 -19 -58c0 -14 5 -31 18 -53zM234 0h-196v530h196v-530zM379 825l87 -97l-182 -158l-87 96z" />
    <glyph glyph-name="afii10110" unicode="&#x45e;" horiz-adv-x="552" 
d="M566 530l-236 -701h-196l73 171l-221 530h206l102 -316l70 316h202zM276 663c40 0 70 17 77 71h149c-26 -124 -96 -174 -226 -174s-210 50 -226 174h149c7 -54 37 -71 77 -71z" />
    <glyph glyph-name="afii10193" unicode="&#x45f;" horiz-adv-x="592" 
d="M554 530v-420c0 -80 -40 -110 -110 -110h-55v-176h-186v176h-55c-70 0 -110 30 -110 110v420h196v-350c0 -30 10 -40 40 -40h44c30 0 40 10 40 40v350h196z" />
    <glyph glyph-name="afii10146" unicode="&#x462;" horiz-adv-x="787" 
d="M170 700h216v-57h200v-128h-200v-57h181c160 0 190 -80 190 -230s-30 -228 -190 -228h-287c-70 0 -110 40 -110 110v405h-170v128h170v57zM445 288h-59v-81c2 -25 16 -37 44 -37h15c60 0 90 8 90 58s-30 60 -90 60z" />
    <glyph glyph-name="afii10194" unicode="&#x463;" horiz-adv-x="672" 
d="M506 0h-273c-62 0 -105 38 -105 105v315h-128v110h128v170h196v-170h158v-110h-158v-58h182c120 0 142 -71 142 -181s-22 -181 -142 -181zM324 226v-50c0 -30 10 -40 40 -40h32c40 0 52 15 52 45s-12 45 -52 45h-72z" />
    <glyph glyph-name="afii10147" unicode="&#x472;" 
d="M345 708c270 0 315 -78 315 -358s-45 -358 -315 -358s-315 78 -315 358s45 358 315 358zM345 166c85 0 95 51 95 139c-18 -12 -35 -19 -55 -19c-43 0 -55 19 -81 19c-17 0 -32 0 -53 -18c1 -75 15 -121 94 -121zM345 534c-80 0 -94 -48 -94 -125c18 10 34 16 51 16
c37 0 54 -22 83 -22c16 0 33 3 52 22c-3 66 -19 109 -92 109z" />
    <glyph glyph-name="afii10195" unicode="&#x473;" horiz-adv-x="590" 
d="M295 536c220 0 271 -61 271 -271s-51 -271 -271 -271s-271 61 -271 271s51 271 271 271zM295 396c-61 0 -71 -41 -72 -83c15 7 22 10 37 10c28 0 41 -20 67 -20c16 0 25 3 39 15c-2 39 -13 78 -71 78zM295 134c62 0 71 42 72 86c-15 -8 -23 -12 -40 -12
c-33 0 -39 17 -65 17c-17 0 -23 -2 -39 -11c2 -40 13 -80 72 -80z" />
    <glyph glyph-name="afii10148" unicode="&#x474;" horiz-adv-x="671" 
d="M603 463l-98 -358c-20 -73 -66 -113 -176 -113s-156 41 -176 113l-163 595h232l94 -475c3 -13 10 -15 13 -15s10 2 13 15l45 226c38 193 81 257 250 257h44v-174h-8c-40 0 -54 -12 -70 -71z" />
    <glyph glyph-name="afii10196" unicode="&#x475;" horiz-adv-x="568" 
d="M505 356l-97 -294c-20 -60 -81 -68 -134 -68c-52 0 -115 9 -134 68l-154 468h204l71 -306c2 -8 6 -18 13 -18s11 10 13 18l34 146c38 163 111 166 261 166v-132c-50 0 -65 -12 -77 -48z" />
    <glyph glyph-name="afii10050" unicode="&#x490;" horiz-adv-x="516" 
d="M310 825h206v-189c0 -70 -40 -110 -110 -110h-96c-30 0 -44 -14 -44 -44v-482h-216v590c0 70 40 110 110 110h106c30 0 44 14 44 44v81z" />
    <glyph glyph-name="afii10098" unicode="&#x491;" horiz-adv-x="479" 
d="M479 660v-160c0 -80 -40 -110 -110 -110h-95c-30 0 -40 -10 -40 -40v-350h-196v420c0 80 40 110 110 110h105c30 0 40 10 40 40v90h186z" />
    <glyph glyph-name="uni04C1" unicode="&#x4c1;" horiz-adv-x="998" 
d="M226 0h-242l152 306c12 23 19 40 19 55c0 19 -5 36 -11 50l-123 289h238l88 -264c7 -22 12 -50 12 -77c0 -33 -9 -59 -21 -88zM607 700v-700h-216v700h216zM1014 0h-242l-112 271c-12 29 -21 55 -21 88c0 27 5 55 12 77l88 264h238l-123 -289c-6 -14 -11 -31 -11 -50
c0 -15 7 -32 19 -55zM499 843c40 0 70 17 77 71h169c-16 -124 -106 -174 -246 -174s-240 50 -246 174h169c7 -54 37 -71 77 -71z" />
    <glyph glyph-name="uni04C2" unicode="&#x4c2;" horiz-adv-x="874" 
d="M206 0h-220l126 227c13 24 18 39 18 53c0 13 -4 30 -19 58l-101 192h214l76 -178c18 -43 20 -61 20 -80c0 -21 -6 -51 -20 -79zM530 0h-186v530h186v-530zM888 0h-220l-94 193c-14 28 -20 58 -20 79c0 19 2 37 20 80l76 178h214l-101 -192c-15 -28 -19 -45 -19 -58
c0 -14 5 -29 18 -53zM437 663c40 0 70 17 77 71h149c-26 -124 -96 -174 -226 -174s-210 50 -226 174h149c7 -54 37 -71 77 -71z" />
    <glyph glyph-name="uni04D0" unicode="&#x4d0;" 
d="M-14 0l199 623c25 77 80 85 160 85s135 -8 160 -85l199 -623h-238l-35 144h-172l-35 -144h-238zM336 481l-49 -183h116l-49 183c-1 6 -4 15 -9 15s-7 -9 -9 -15zM345 843c40 0 70 17 77 71h169c-16 -124 -106 -174 -246 -174s-240 50 -246 174h169c7 -54 37 -71 77 -71z
" />
    <glyph glyph-name="uni04D1" unicode="&#x4d1;" horiz-adv-x="550" 
d="M60 530h272c110 0 180 -70 180 -180v-240c0 -70 -40 -110 -110 -110h-248c-100 0 -130 58 -130 168c0 100 30 164 130 164h162v10c0 35 -23 52 -60 52h-196v136zM316 208h-49c-34 0 -47 -19 -47 -43c0 -18 8 -41 45 -41h11c30 0 40 16 40 46v38zM275 663
c40 0 70 17 77 71h149c-26 -124 -96 -174 -226 -174s-210 50 -226 174h149c7 -54 37 -71 77 -71z" />
    <glyph glyph-name="uni04D2" unicode="&#x4d2;" 
d="M-14 0l199 623c25 77 80 85 160 85s135 -8 160 -85l199 -623h-238l-35 144h-172l-35 -144h-238zM336 481l-49 -183h116l-49 183c-1 6 -4 15 -9 15s-7 -9 -9 -15zM560 766h-172v129h172v-129zM302 766h-172v129h172v-129z" />
    <glyph glyph-name="uni04D3" unicode="&#x4d3;" horiz-adv-x="550" 
d="M60 530h272c110 0 180 -70 180 -180v-240c0 -70 -40 -110 -110 -110h-248c-100 0 -130 58 -130 168c0 100 30 164 130 164h162v10c0 35 -23 52 -60 52h-196v136zM316 208h-49c-34 0 -47 -19 -47 -43c0 -18 8 -41 45 -41h11c30 0 40 16 40 46v38zM313 583v128h154v-128
h-154zM237 583h-154v128h154v-128z" />
    <glyph glyph-name="uni04D4" unicode="&#x4d4;" horiz-adv-x="934" 
d="M899 700v-170h-216c-30 0 -44 -14 -44 -44v-52h252v-154h-252v-66c0 -30 14 -44 44 -44h221v-170h-371c-70 0 -110 40 -110 110v31h-136l-55 -141h-252l263 612c37 87 110 88 177 88h479zM411 502l-75 -199h87v198c0 9 -1 14 -3 14s-5 -4 -9 -13z" />
    <glyph glyph-name="uni04D5" unicode="&#x4d5;" horiz-adv-x="839" 
d="M796 0h-275c-50 0 -75 9 -97 25c-12 -15 -36 -25 -71 -25h-199c-100 0 -130 58 -130 168c0 100 30 161 130 161h162v13c0 35 -23 52 -60 52h-196v136h289c27 0 53 -4 75 -23c38 24 73 29 147 29c180 0 244 -13 244 -213c0 -60 -14 -118 -84 -118h-219
c0 -50 27 -69 97 -69h187v-136zM316 205h-49c-34 0 -47 -16 -47 -40c0 -18 8 -41 45 -41h11c30 0 40 16 40 46v35zM512 329h75c32 0 32 23 32 33c0 37 -18 38 -48 38c-40 0 -59 -5 -59 -71z" />
    <glyph glyph-name="uni04D6" unicode="&#x4d6;" horiz-adv-x="570" 
d="M536 700v-170h-226c-30 0 -44 -14 -44 -44v-52h262v-154h-262v-66c0 -30 14 -44 44 -44h230v-170h-380c-70 0 -110 40 -110 110v480c0 70 40 110 110 110h376zM285 843c40 0 70 17 77 71h169c-16 -124 -106 -174 -246 -174s-240 50 -246 174h169c7 -54 37 -71 77 -71z
" />
    <glyph glyph-name="uni04D7" unicode="&#x4d7;" horiz-adv-x="553" 
d="M510 0h-275c-160 0 -205 48 -205 268c0 230 35 268 255 268c180 0 244 -16 244 -216c0 -60 -14 -118 -84 -118h-219c0 -50 27 -66 97 -66h187v-136zM226 326h75c32 0 32 23 32 33c0 38 -18 41 -48 41c-40 0 -59 -8 -59 -74zM276 663c40 0 70 17 77 71h149
c-26 -124 -96 -174 -226 -174s-210 50 -226 174h149c7 -54 37 -71 77 -71z" />
    <glyph glyph-name="uni04D8" unicode="&#x4d8;" horiz-adv-x="638" 
d="M322 0h-36c-190 0 -256 50 -256 220s66 216 256 216h93c0 64 -48 90 -133 90h-190v174h266c230 0 286 -110 286 -350s-56 -350 -286 -350zM242 226c0 -34 22 -52 62 -52h6c50 0 72 31 72 104h-78c-40 0 -62 -12 -62 -52z" />
    <glyph glyph-name="uni04D9" unicode="&#x4d9;" horiz-adv-x="553" 
d="M43 530h275c160 0 205 -48 205 -268c0 -230 -35 -268 -255 -268c-180 0 -244 16 -244 216c0 60 14 118 84 118h219c0 50 -27 66 -97 66h-187v136zM327 204h-75c-32 0 -32 -23 -32 -33c0 -38 18 -41 48 -41c40 0 59 8 59 74z" />
    <glyph glyph-name="uni04DA" unicode="&#x4da;" horiz-adv-x="638" 
d="M322 0h-36c-190 0 -256 50 -256 220s66 216 256 216h93c0 64 -48 90 -133 90h-190v174h266c230 0 286 -110 286 -350s-56 -350 -286 -350zM242 226c0 -34 22 -52 62 -52h6c50 0 72 31 72 104h-78c-40 0 -62 -12 -62 -52zM534 766h-172v129h172v-129zM276 766h-172v129
h172v-129z" />
    <glyph glyph-name="uni04DB" unicode="&#x4db;" horiz-adv-x="553" 
d="M43 530h275c160 0 205 -48 205 -268c0 -230 -35 -268 -255 -268c-180 0 -244 16 -244 216c0 60 14 118 84 118h219c0 50 -27 66 -97 66h-187v136zM327 204h-75c-32 0 -32 -23 -32 -33c0 -38 18 -41 48 -41c40 0 59 8 59 74zM314 583v128h154v-128h-154zM238 583h-154v128
h154v-128z" />
    <glyph glyph-name="uni04DC" unicode="&#x4dc;" horiz-adv-x="998" 
d="M226 0h-242l152 306c12 23 19 40 19 55c0 19 -5 36 -11 50l-123 289h238l88 -264c7 -22 12 -50 12 -77c0 -33 -9 -59 -21 -88zM607 700v-700h-216v700h216zM1014 0h-242l-112 271c-12 29 -21 55 -21 88c0 27 5 55 12 77l88 264h238l-123 -289c-6 -14 -11 -31 -11 -50
c0 -15 7 -32 19 -55zM714 766h-172v129h172v-129zM456 766h-172v129h172v-129z" />
    <glyph glyph-name="uni04DD" unicode="&#x4dd;" horiz-adv-x="874" 
d="M206 0h-220l126 227c13 24 18 39 18 53c0 13 -4 30 -19 58l-101 192h214l76 -178c18 -43 20 -61 20 -80c0 -21 -6 -51 -20 -79zM530 0h-186v530h186v-530zM888 0h-220l-94 193c-14 28 -20 58 -20 79c0 19 2 37 20 80l76 178h214l-101 -192c-15 -28 -19 -45 -19 -58
c0 -14 5 -29 18 -53zM475 583v128h154v-128h-154zM399 583h-154v128h154v-128z" />
    <glyph glyph-name="uni04DE" unicode="&#x4de;" horiz-adv-x="578" 
d="M427 356c99 -18 121 -70 121 -160c0 -130 -40 -196 -190 -196h-328v174h221c40 0 69 13 69 53s-29 52 -69 52h-207v152h200c40 0 61 8 61 48s-22 47 -62 47h-209v174h301c140 0 194 -56 194 -196c0 -70 -23 -129 -102 -144v-4zM504 766h-172v129h172v-129zM246 766h-172
v129h172v-129z" />
    <glyph glyph-name="uni04DF" unicode="&#x4df;" horiz-adv-x="459" 
d="M325 274v-4c69 -7 110 -42 110 -122c0 -130 -79 -148 -179 -148h-232v142h156c30 0 57 0 57 34s-27 34 -57 34h-142v122h143c30 0 56 0 56 32s-26 32 -56 32h-149v134h220c100 0 179 -7 179 -137c0 -80 -32 -109 -106 -119zM261 583v128h154v-128h-154zM185 583h-154v128
h154v-128z" />
    <glyph glyph-name="uni04E2" unicode="&#x4e2;" horiz-adv-x="742" 
d="M692 0h-210l10 401c0 15 0 26 -10 26c-7 0 -13 -13 -22 -44l-93 -320c-20 -67 -85 -71 -161 -71c-138 0 -156 83 -156 168v540h210l-10 -391c0 -19 0 -35 10 -35c7 0 12 13 18 35l87 317c22 81 101 82 161 82c160 0 166 -115 166 -173v-535zM516 766h-289v110h289v-110z
" />
    <glyph glyph-name="uni04E3" unicode="&#x4e3;" horiz-adv-x="587" 
d="M549 0h-176l6 255c0 9 0 16 -8 16c-7 0 -11 -5 -16 -16l-106 -215c-21 -43 -56 -46 -99 -46c-63 0 -112 17 -112 100v436h176l-6 -255c0 -10 1 -15 9 -15s13 8 16 15l110 221c18 36 41 40 92 40c92 0 114 -39 114 -106v-430zM438 590h-289v110h289v-110z" />
    <glyph glyph-name="uni04E4" unicode="&#x4e4;" horiz-adv-x="742" 
d="M692 0h-210l10 401c0 15 0 26 -10 26c-7 0 -13 -13 -22 -44l-93 -320c-20 -67 -85 -71 -161 -71c-138 0 -156 83 -156 168v540h210l-10 -391c0 -19 0 -35 10 -35c7 0 12 13 18 35l87 317c22 81 101 82 161 82c160 0 166 -115 166 -173v-535zM586 766h-172v129h172v-129z
M328 766h-172v129h172v-129z" />
    <glyph glyph-name="uni04E5" unicode="&#x4e5;" horiz-adv-x="587" 
d="M549 0h-176l6 255c0 9 0 16 -8 16c-7 0 -11 -5 -16 -16l-106 -215c-21 -43 -56 -46 -99 -46c-63 0 -112 17 -112 100v436h176l-6 -255c0 -10 1 -15 9 -15s13 8 16 15l110 221c18 36 41 40 92 40c92 0 114 -39 114 -106v-430zM331 583v128h154v-128h-154zM255 583h-154
v128h154v-128z" />
    <glyph glyph-name="uni04E6" unicode="&#x4e6;" 
d="M345 708c250 0 315 -58 315 -358s-65 -358 -315 -358s-315 58 -315 358s65 358 315 358zM252 350c0 -120 3 -184 93 -184s93 64 93 184s-3 184 -93 184s-93 -64 -93 -184zM560 766h-172v129h172v-129zM302 766h-172v129h172v-129z" />
    <glyph glyph-name="uni04E7" unicode="&#x4e7;" horiz-adv-x="590" 
d="M295 536c210 0 271 -51 271 -271s-61 -271 -271 -271s-271 51 -271 271s61 271 271 271zM224 265c0 -80 1 -131 71 -131s71 51 71 131s-1 131 -71 131s-71 -51 -71 -131zM333 583v128h154v-128h-154zM257 583h-154v128h154v-128z" />
    <glyph glyph-name="uni04EE" unicode="&#x4ee;" horiz-adv-x="664" 
d="M391 0h-246l82 179l-241 521h252l107 -298l87 298h246zM476 766h-289v110h289v-110z" />
    <glyph glyph-name="uni04EF" unicode="&#x4ef;" horiz-adv-x="552" 
d="M566 530l-236 -701h-196l73 171l-221 530h206l102 -316l70 316h202zM421 590h-289v110h289v-110z" />
    <glyph glyph-name="uni04F0" unicode="&#x4f0;" horiz-adv-x="664" 
d="M391 0h-246l82 179l-241 521h252l107 -298l87 298h246zM546 766h-172v129h172v-129zM288 766h-172v129h172v-129z" />
    <glyph glyph-name="uni04F1" unicode="&#x4f1;" horiz-adv-x="552" 
d="M566 530l-236 -701h-196l73 171l-221 530h206l102 -316l70 316h202zM314 583v128h154v-128h-154zM238 583h-154v128h154v-128z" />
    <glyph glyph-name="uni04F2" unicode="&#x4f2;" horiz-adv-x="664" 
d="M391 0h-246l82 179l-241 521h252l107 -298l87 298h246zM259 1005l87 -76l-162 -189l-86 75zM498 1005l87 -76l-162 -189l-86 75z" />
    <glyph glyph-name="uni04F3" unicode="&#x4f3;" horiz-adv-x="552" 
d="M566 530l-236 -701h-196l73 171l-221 530h206l102 -316l70 316h202zM204 835l87 -76l-162 -189l-86 75zM443 835l87 -76l-162 -189l-86 75z" />
    <glyph glyph-name="uni04F4" unicode="&#x4f4;" horiz-adv-x="644" 
d="M594 0h-216v277h-168c-120 0 -180 60 -180 180v243h216v-179c0 -60 10 -70 70 -70h62v249h216v-700zM532 766h-172v129h172v-129zM274 766h-172v129h172v-129z" />
    <glyph glyph-name="uni04F5" unicode="&#x4f5;" horiz-adv-x="566" 
d="M528 0h-191v189h-171c-90 0 -140 60 -140 150v191h191v-110c0 -60 10 -80 70 -80h50v190h191v-530zM321 583v128h154v-128h-154zM245 583h-154v128h154v-128z" />
    <glyph glyph-name="uni04F8" unicode="&#x4f8;" horiz-adv-x="966" 
d="M916 0h-216v700h216v-700zM50 700h216v-242h174c160 0 190 -80 190 -230s-30 -228 -190 -228h-280c-70 0 -110 40 -110 110v590zM324 288h-58v-74c0 -30 14 -44 44 -44h14c60 0 90 8 90 58s-30 60 -90 60zM698 766h-172v129h172v-129zM440 766h-172v129h172v-129z" />
    <glyph glyph-name="uni04F9" unicode="&#x4f9;" horiz-adv-x="836" 
d="M602 0v530h196v-530h-196zM412 0h-269c-62 0 -105 38 -105 105v425h196v-168h178c120 0 142 -71 142 -181s-22 -181 -142 -181zM234 226v-50c0 -30 10 -40 40 -40h28c40 0 52 15 52 45s-12 45 -52 45h-68zM456 583v128h154v-128h-154zM380 583h-154v128h154v-128z" />
    <glyph glyph-name="uni2010" unicode="&#x2010;" horiz-adv-x="408" 
d="M30 189v158h348v-158h-348z" />
    <glyph glyph-name="uni2011" unicode="&#x2011;" horiz-adv-x="408" 
d="M30 189v158h348v-158h-348z" />
    <glyph glyph-name="figuredash" unicode="&#x2012;" horiz-adv-x="552" 
d="M30 275v158h492v-158h-492z" />
    <glyph glyph-name="endash" unicode="&#x2013;" horiz-adv-x="552" 
d="M30 189v158h492v-158h-492z" />
    <glyph glyph-name="emdash" unicode="&#x2014;" horiz-adv-x="788" 
d="M30 189v158h728v-158h-728z" />
    <glyph glyph-name="afii00208" unicode="&#x2015;" horiz-adv-x="788" 
d="M30 189v158h728v-158h-728z" />
    <glyph glyph-name="quoteleft" unicode="&#x2018;" horiz-adv-x="359" 
d="M160 781l169 -246l-146 -87l-153 256z" />
    <glyph glyph-name="quoteright" unicode="&#x2019;" horiz-adv-x="359" 
d="M329 694l-169 -246l-130 77l153 256z" />
    <glyph glyph-name="quotesinglbase" unicode="&#x201a;" horiz-adv-x="349" 
d="M130 -148l-130 77l153 256l146 -87z" />
    <glyph glyph-name="quotedblleft" unicode="&#x201c;" horiz-adv-x="628" 
d="M30 702l130 77l169 -246l-146 -87zM299 702l130 77l169 -246l-146 -87z" />
    <glyph glyph-name="quotedblright" unicode="&#x201d;" horiz-adv-x="628" 
d="M30 523l153 256l146 -87l-169 -246zM299 523l153 256l146 -87l-169 -246z" />
    <glyph glyph-name="quotedblbase" unicode="&#x201e;" horiz-adv-x="618" 
d="M0 -71l153 256l146 -87l-169 -246zM269 -71l153 256l146 -87l-169 -246z" />
    <glyph glyph-name="dagger" unicode="&#x2020;" horiz-adv-x="507" 
d="M352 -170h-196v544h-126v140h126v186h196v-186h125v-140h-125v-544z" />
    <glyph glyph-name="daggerdbl" unicode="&#x2021;" horiz-adv-x="507" 
d="M156 -170v190h-126v140h126v214h-126v140h126v186h197v-186h124v-140h-124v-214h124v-140h-124v-190h-197z" />
    <glyph glyph-name="bullet" unicode="&#x2022;" horiz-adv-x="440" 
d="M50 350c0 93 77 170 170 170s170 -77 170 -170s-77 -170 -170 -170s-170 77 -170 170z" />
    <glyph glyph-name="ellipsis" unicode="&#x2026;" horiz-adv-x="894" 
d="M248 0h-198v180h198v-180zM546 0h-198v180h198v-180zM844 0h-198v180h198v-180z" />
    <glyph glyph-name="perthousand" unicode="&#x2030;" horiz-adv-x="1158" 
d="M170 0l346 700h104l-346 -700h-104zM186 706c126 0 155 -46 155 -170s-29 -169 -155 -169s-156 45 -156 169s30 170 156 170zM140 536c0 -54 8 -75 46 -75s45 21 45 75s-7 76 -45 76s-46 -22 -46 -76zM603 333c126 0 155 -46 155 -170s-29 -169 -155 -169
s-156 45 -156 169s30 170 156 170zM557 163c0 -54 8 -75 46 -75s45 21 45 75s-7 76 -45 76s-46 -22 -46 -76zM973 333c126 0 155 -46 155 -170s-29 -169 -155 -169s-156 45 -156 169s30 170 156 170zM927 163c0 -54 8 -75 46 -75s45 21 45 75s-7 76 -45 76s-46 -22 -46 -76z
" />
    <glyph glyph-name="guilsinglleft" unicode="&#x2039;" horiz-adv-x="395" 
d="M345 452l-97 -139c-7 -9 -11 -21 -11 -32s4 -23 11 -32l97 -139l-124 -96l-145 189c-19 23 -26 46 -26 78s7 55 26 78l145 189z" />
    <glyph glyph-name="guilsinglright" unicode="&#x203a;" horiz-adv-x="395" 
d="M50 452l124 96l145 -189c19 -23 26 -46 26 -78s-7 -55 -26 -78l-145 -189l-124 96l97 139c7 9 11 21 11 32s-4 23 -11 32z" />
    <glyph glyph-name="fraction" unicode="&#x2044;" horiz-adv-x="518" 
d="M90 -170h-100l438 910h100z" />
    <glyph glyph-name="Euro" unicode="&#x20ac;" horiz-adv-x="562" 
d="M542 0h-176c-188 0 -273 66 -298 227h-68v98h60c-1 7 -1 13 -1 25s0 20 1 27h-60v98h68c26 159 111 225 298 225h166v-164h-60c-113 0 -152 -11 -174 -61h177v-98h-193c-1 -7 -1 -15 -1 -27s0 -18 1 -25h139v-98h-124c22 -52 60 -63 175 -63h70v-164z" />
    <glyph glyph-name="uni20B4" unicode="&#x20b4;" horiz-adv-x="570" 
d="M10 483h251c18 21 25 32 25 45c0 18 -20 18 -40 18h-192v154h308c90 0 154 -14 154 -94c0 -49 -17 -80 -47 -123h91v-108h-550v108zM10 326h550v-108h-275c-13 -20 -19 -33 -19 -46s6 -18 35 -18h215v-154h-322c-100 0 -140 23 -140 113c0 41 13 67 36 105h-80v108z" />
    <glyph glyph-name="uni20B6" unicode="&#x20b6;" horiz-adv-x="648" 
d="M-20 87v124h70v71h-70v144h70v164c0 70 40 110 110 110h268c160 0 190 -78 190 -218c0 -130 -30 -200 -190 -200h-162v-71h139v-124h-139v-87h-216v87h-70zM266 426h60c50 0 70 16 70 56s-20 54 -70 54h-16c-30 0 -44 -14 -44 -44v-66z" />
    <glyph glyph-name="uni20B7" unicode="&#x20b7;" horiz-adv-x="648" 
d="M-20 87v124h70v71h-70v144h70v164c0 70 40 110 110 110h268c160 0 190 -78 190 -218c0 -130 -30 -200 -190 -200h-162v-71h139v-124h-139v-87h-216v87h-70zM266 426h60c50 0 70 16 70 56s-20 54 -70 54h-16c-30 0 -44 -14 -44 -44v-66z" />
    <glyph glyph-name="uni20B8" unicode="&#x20b8;" horiz-adv-x="648" 
d="M-20 87v124h70v71h-70v144h70v164c0 70 40 110 110 110h268c160 0 190 -78 190 -218c0 -130 -30 -200 -190 -200h-162v-71h139v-124h-139v-87h-216v87h-70zM266 426h60c50 0 70 16 70 56s-20 54 -70 54h-16c-30 0 -44 -14 -44 -44v-66z" />
    <glyph glyph-name="uni20B9" unicode="&#x20b9;" horiz-adv-x="648" 
d="M-20 87v124h70v71h-70v144h70v164c0 70 40 110 110 110h268c160 0 190 -78 190 -218c0 -130 -30 -200 -190 -200h-162v-71h139v-124h-139v-87h-216v87h-70zM266 426h60c50 0 70 16 70 56s-20 54 -70 54h-16c-30 0 -44 -14 -44 -44v-66z" />
    <glyph glyph-name="uni20BA" unicode="&#x20ba;" horiz-adv-x="648" 
d="M-20 87v124h70v71h-70v144h70v164c0 70 40 110 110 110h268c160 0 190 -78 190 -218c0 -130 -30 -200 -190 -200h-162v-71h139v-124h-139v-87h-216v87h-70zM266 426h60c50 0 70 16 70 56s-20 54 -70 54h-16c-30 0 -44 -14 -44 -44v-66z" />
    <glyph glyph-name="uni20BB" unicode="&#x20bb;" horiz-adv-x="648" 
d="M-20 87v124h70v71h-70v144h70v164c0 70 40 110 110 110h268c160 0 190 -78 190 -218c0 -130 -30 -200 -190 -200h-162v-71h139v-124h-139v-87h-216v87h-70zM266 426h60c50 0 70 16 70 56s-20 54 -70 54h-16c-30 0 -44 -14 -44 -44v-66z" />
    <glyph glyph-name="uni20BC" unicode="&#x20bc;" horiz-adv-x="648" 
d="M-20 87v124h70v71h-70v144h70v164c0 70 40 110 110 110h268c160 0 190 -78 190 -218c0 -130 -30 -200 -190 -200h-162v-71h139v-124h-139v-87h-216v87h-70zM266 426h60c50 0 70 16 70 56s-20 54 -70 54h-16c-30 0 -44 -14 -44 -44v-66z" />
    <glyph glyph-name="uni20BD" unicode="&#x20bd;" horiz-adv-x="648" 
d="M-20 87v124h70v71h-70v144h70v164c0 70 40 110 110 110h268c160 0 190 -78 190 -218c0 -130 -30 -200 -190 -200h-162v-71h139v-124h-139v-87h-216v87h-70zM266 426h60c50 0 70 16 70 56s-20 54 -70 54h-16c-30 0 -44 -14 -44 -44v-66z" />
    <glyph glyph-name="uni20BE" unicode="&#x20be;" horiz-adv-x="648" 
d="M-20 87v124h70v71h-70v144h70v164c0 70 40 110 110 110h268c160 0 190 -78 190 -218c0 -130 -30 -200 -190 -200h-162v-71h139v-124h-139v-87h-216v87h-70zM266 426h60c50 0 70 16 70 56s-20 54 -70 54h-16c-30 0 -44 -14 -44 -44v-66z" />
    <glyph glyph-name="uni20BF" unicode="&#x20bf;" horiz-adv-x="648" 
d="M-20 87v124h70v71h-70v144h70v164c0 70 40 110 110 110h268c160 0 190 -78 190 -218c0 -130 -30 -200 -190 -200h-162v-71h139v-124h-139v-87h-216v87h-70zM266 426h60c50 0 70 16 70 56s-20 54 -70 54h-16c-30 0 -44 -14 -44 -44v-66z" />
    <glyph glyph-name="uni20C0" unicode="&#x20c0;" horiz-adv-x="648" 
d="M-20 87v124h70v71h-70v144h70v164c0 70 40 110 110 110h268c160 0 190 -78 190 -218c0 -130 -30 -200 -190 -200h-162v-71h139v-124h-139v-87h-216v87h-70zM266 426h60c50 0 70 16 70 56s-20 54 -70 54h-16c-30 0 -44 -14 -44 -44v-66z" />
    <glyph glyph-name="uni20C1" unicode="&#x20c1;" horiz-adv-x="648" 
d="M-20 87v124h70v71h-70v144h70v164c0 70 40 110 110 110h268c160 0 190 -78 190 -218c0 -130 -30 -200 -190 -200h-162v-71h139v-124h-139v-87h-216v87h-70zM266 426h60c50 0 70 16 70 56s-20 54 -70 54h-16c-30 0 -44 -14 -44 -44v-66z" />
    <glyph glyph-name="uni20C2" unicode="&#x20c2;" horiz-adv-x="648" 
d="M-20 87v124h70v71h-70v144h70v164c0 70 40 110 110 110h268c160 0 190 -78 190 -218c0 -130 -30 -200 -190 -200h-162v-71h139v-124h-139v-87h-216v87h-70zM266 426h60c50 0 70 16 70 56s-20 54 -70 54h-16c-30 0 -44 -14 -44 -44v-66z" />
    <glyph glyph-name="uni20C3" unicode="&#x20c3;" horiz-adv-x="648" 
d="M-20 87v124h70v71h-70v144h70v164c0 70 40 110 110 110h268c160 0 190 -78 190 -218c0 -130 -30 -200 -190 -200h-162v-71h139v-124h-139v-87h-216v87h-70zM266 426h60c50 0 70 16 70 56s-20 54 -70 54h-16c-30 0 -44 -14 -44 -44v-66z" />
    <glyph glyph-name="uni20C4" unicode="&#x20c4;" horiz-adv-x="648" 
d="M-20 87v124h70v71h-70v144h70v164c0 70 40 110 110 110h268c160 0 190 -78 190 -218c0 -130 -30 -200 -190 -200h-162v-71h139v-124h-139v-87h-216v87h-70zM266 426h60c50 0 70 16 70 56s-20 54 -70 54h-16c-30 0 -44 -14 -44 -44v-66z" />
    <glyph glyph-name="uni20C5" unicode="&#x20c5;" horiz-adv-x="648" 
d="M-20 87v124h70v71h-70v144h70v164c0 70 40 110 110 110h268c160 0 190 -78 190 -218c0 -130 -30 -200 -190 -200h-162v-71h139v-124h-139v-87h-216v87h-70zM266 426h60c50 0 70 16 70 56s-20 54 -70 54h-16c-30 0 -44 -14 -44 -44v-66z" />
    <glyph glyph-name="uni20C6" unicode="&#x20c6;" horiz-adv-x="648" 
d="M-20 87v124h70v71h-70v144h70v164c0 70 40 110 110 110h268c160 0 190 -78 190 -218c0 -130 -30 -200 -190 -200h-162v-71h139v-124h-139v-87h-216v87h-70zM266 426h60c50 0 70 16 70 56s-20 54 -70 54h-16c-30 0 -44 -14 -44 -44v-66z" />
    <glyph glyph-name="uni20C7" unicode="&#x20c7;" horiz-adv-x="648" 
d="M-20 87v124h70v71h-70v144h70v164c0 70 40 110 110 110h268c160 0 190 -78 190 -218c0 -130 -30 -200 -190 -200h-162v-71h139v-124h-139v-87h-216v87h-70zM266 426h60c50 0 70 16 70 56s-20 54 -70 54h-16c-30 0 -44 -14 -44 -44v-66z" />
    <glyph glyph-name="uni20C8" unicode="&#x20c8;" horiz-adv-x="648" 
d="M-20 87v124h70v71h-70v144h70v164c0 70 40 110 110 110h268c160 0 190 -78 190 -218c0 -130 -30 -200 -190 -200h-162v-71h139v-124h-139v-87h-216v87h-70zM266 426h60c50 0 70 16 70 56s-20 54 -70 54h-16c-30 0 -44 -14 -44 -44v-66z" />
    <glyph glyph-name="uni20C9" unicode="&#x20c9;" horiz-adv-x="648" 
d="M-20 87v124h70v71h-70v144h70v164c0 70 40 110 110 110h268c160 0 190 -78 190 -218c0 -130 -30 -200 -190 -200h-162v-71h139v-124h-139v-87h-216v87h-70zM266 426h60c50 0 70 16 70 56s-20 54 -70 54h-16c-30 0 -44 -14 -44 -44v-66z" />
    <glyph glyph-name="uni20CA" unicode="&#x20ca;" horiz-adv-x="648" 
d="M-20 87v124h70v71h-70v144h70v164c0 70 40 110 110 110h268c160 0 190 -78 190 -218c0 -130 -30 -200 -190 -200h-162v-71h139v-124h-139v-87h-216v87h-70zM266 426h60c50 0 70 16 70 56s-20 54 -70 54h-16c-30 0 -44 -14 -44 -44v-66z" />
    <glyph glyph-name="uni20CB" unicode="&#x20cb;" horiz-adv-x="648" 
d="M-20 87v124h70v71h-70v144h70v164c0 70 40 110 110 110h268c160 0 190 -78 190 -218c0 -130 -30 -200 -190 -200h-162v-71h139v-124h-139v-87h-216v87h-70zM266 426h60c50 0 70 16 70 56s-20 54 -70 54h-16c-30 0 -44 -14 -44 -44v-66z" />
    <glyph glyph-name="uni20CC" unicode="&#x20cc;" horiz-adv-x="648" 
d="M-20 87v124h70v71h-70v144h70v164c0 70 40 110 110 110h268c160 0 190 -78 190 -218c0 -130 -30 -200 -190 -200h-162v-71h139v-124h-139v-87h-216v87h-70zM266 426h60c50 0 70 16 70 56s-20 54 -70 54h-16c-30 0 -44 -14 -44 -44v-66z" />
    <glyph glyph-name="uni20CD" unicode="&#x20cd;" horiz-adv-x="648" 
d="M-20 87v124h70v71h-70v144h70v164c0 70 40 110 110 110h268c160 0 190 -78 190 -218c0 -130 -30 -200 -190 -200h-162v-71h139v-124h-139v-87h-216v87h-70zM266 426h60c50 0 70 16 70 56s-20 54 -70 54h-16c-30 0 -44 -14 -44 -44v-66z" />
    <glyph glyph-name="uni20CE" unicode="&#x20ce;" horiz-adv-x="648" 
d="M-20 87v124h70v71h-70v144h70v164c0 70 40 110 110 110h268c160 0 190 -78 190 -218c0 -130 -30 -200 -190 -200h-162v-71h139v-124h-139v-87h-216v87h-70zM266 426h60c50 0 70 16 70 56s-20 54 -70 54h-16c-30 0 -44 -14 -44 -44v-66z" />
    <glyph glyph-name="uni20CF" unicode="&#x20cf;" horiz-adv-x="648" 
d="M-20 87v124h70v71h-70v144h70v164c0 70 40 110 110 110h268c160 0 190 -78 190 -218c0 -130 -30 -200 -190 -200h-162v-71h139v-124h-139v-87h-216v87h-70zM266 426h60c50 0 70 16 70 56s-20 54 -70 54h-16c-30 0 -44 -14 -44 -44v-66z" />
    <glyph glyph-name="afii61352" unicode="&#x2116;" horiz-adv-x="1115" 
d="M900 708c130 0 165 -42 165 -176s-35 -175 -165 -175s-166 41 -166 175s36 176 166 176zM854 532c0 -54 12 -75 46 -75s45 21 45 75s-11 76 -45 76s-46 -22 -46 -76zM762 190v110h275v-110h-275zM674 700v-583c0 -25 -5 -125 -142 -125c-73 0 -154 1 -182 89l-107 337
c-3 11 -8 17 -15 17c-3 0 -14 0 -14 -20v-415h-164v584c0 91 66 124 147 124c57 0 151 -1 178 -85l109 -340c3 -11 7 -17 15 -17c11 0 11 12 11 17v417h164z" />
    <glyph glyph-name="trademark" unicode="&#x2122;" horiz-adv-x="998" 
d="M279 296h-139v298h-110v107h359v-107h-110v-298zM800 554l-37 -215c-6 -33 -40 -47 -80 -47s-74 14 -79 47l-36 216c0 1 -4 11 -11 11c-3 0 -8 0 -8 -11v-259h-129v349c0 43 36 61 111 61c65 0 105 -6 112 -54l30 -213c1 -7 6 -13 10 -13s9 6 10 13l30 213
c7 48 61 54 113 54c70 0 112 -18 112 -61v-349h-129v259c0 11 -5 11 -8 11c-7 0 -11 -10 -11 -12z" />
    <glyph glyph-name="Omega" unicode="&#x2126;" horiz-adv-x="700" 
d="M184 142v7c-116 36 -154 114 -154 262c0 205 62 297 320 297s320 -92 320 -297c0 -148 -38 -226 -154 -262v-7h150v-142h-174c-80 0 -102 41 -102 114v60c0 47 5 60 32 88c25 26 26 62 26 138c0 98 -22 134 -98 134s-98 -36 -98 -134c0 -76 1 -112 26 -138
c27 -28 32 -41 32 -88v-60c0 -73 -22 -114 -102 -114h-174v142h150z" />
    <glyph glyph-name="partialdiff" unicode="&#x2202;" horiz-adv-x="612" 
d="M218 528h168c-9 44 -40 54 -90 54h-241v128h297c160 0 230 -70 230 -230v-370c0 -70 -40 -110 -110 -110h-254c-180 0 -200 113 -200 263s20 265 200 265zM386 388h-56c-84 0 -112 -31 -112 -119c0 -70 12 -129 100 -129h22c24 0 46 12 46 42v206z" />
    <glyph glyph-name="Delta" unicode="&#x2206;" horiz-adv-x="698" 
d="M61 223l124 386c20 62 36 99 164 99s144 -37 164 -99l124 -386c16 -51 39 -114 39 -148c0 -38 -18 -75 -92 -75h-470c-74 0 -92 37 -92 75c0 34 23 97 39 148zM337 478l-69 -262c-3 -11 -5 -23 -5 -27c0 -15 14 -15 24 -15h124c10 0 24 0 24 15c0 4 -2 16 -5 27l-69 262
c-2 9 -5 18 -12 18s-10 -9 -12 -18z" />
    <glyph glyph-name="product" unicode="&#x220f;" horiz-adv-x="670" 
d="M266 0h-216v590c0 70 40 110 110 110h350c70 0 110 -40 110 -110v-590h-216v482c0 30 -14 44 -44 44h-50c-30 0 -44 -14 -44 -44v-482z" />
    <glyph glyph-name="summation" unicode="&#x2211;" horiz-adv-x="561" 
d="M254 514l143 -61c38 -16 67 -33 67 -97c0 -60 -31 -77 -67 -95l-143 -72c-12 -6 -18 -13 -18 -19s9 -6 16 -6h279v-164h-413c-80 0 -88 75 -88 128c0 62 7 99 82 138l145 75c5 3 21 8 21 15s-14 12 -21 15l-145 63c-55 24 -82 52 -82 140c0 108 44 126 88 126h410v-164
h-276c-5 0 -15 0 -15 -7s9 -12 17 -15z" />
    <glyph glyph-name="minus" unicode="&#x2212;" horiz-adv-x="588" 
d="M538 259h-488v130h488v-130z" />
    <glyph glyph-name="uni2215" unicode="&#x2215;" horiz-adv-x="518" 
d="M90 -170h-100l438 910h100z" />
    <glyph glyph-name="uni2219" unicode="&#x2219;" horiz-adv-x="278" 
d="M228 250h-178v180h178v-180z" />
    <glyph glyph-name="radical" unicode="&#x221a;" horiz-adv-x="728" 
d="M411 827h317v-140h-188l-166 -687h-220l-53 244h-101v140h224l21 -91c3 -13 10 -55 10 -71l5 -61v-12h11c12 133 30 220 49 297z" />
    <glyph glyph-name="infinity" unicode="&#x221e;" horiz-adv-x="856" 
d="M432 243c-58 -76 -133 -108 -200 -108c-124 0 -202 88 -202 213s78 213 199 213c83 0 146 -44 197 -108c80 102 161 108 197 108c127 0 203 -88 203 -212s-79 -214 -201 -214c-61 0 -136 27 -193 108zM597 417c-43 0 -82 -55 -90 -69c22 -32 52 -70 90 -70
c40 0 63 31 63 71c0 35 -15 68 -63 68zM259 278c37 0 67 35 90 70c-8 16 -36 69 -90 69c-56 0 -63 -42 -63 -69c0 -45 35 -70 63 -70z" />
    <glyph glyph-name="integral" unicode="&#x222b;" horiz-adv-x="500" 
d="M348 569v-561c0 -178 -194 -178 -344 -178v122c96 0 148 0 148 56v561c0 178 194 178 344 178v-122c-90 0 -148 0 -148 -56z" />
    <glyph glyph-name="approxequal" unicode="&#x2248;" horiz-adv-x="539" 
d="M108 342l-68 66c34 49 87 95 153 95c19 0 36 -4 52 -11l44 -21c37 -19 56 -20 65 -20c34 0 60 32 77 59l68 -62c-37 -53 -83 -104 -155 -104c-31 0 -51 7 -66 14l-42 21c-11 6 -28 14 -51 14c-33 0 -55 -25 -77 -51zM108 137l-68 66c34 49 87 95 153 95
c19 0 36 -4 52 -11l44 -21c37 -19 56 -20 65 -20c34 0 60 32 77 59l68 -62c-37 -53 -83 -104 -155 -104c-31 0 -51 7 -66 14l-42 21c-11 6 -28 14 -51 14c-33 0 -55 -25 -77 -51z" />
    <glyph glyph-name="notequal" unicode="&#x2260;" horiz-adv-x="588" 
d="M538 151h-290l-91 -161h-100l91 161h-98v130h172l42 74h-214v130h288l88 155h100l-88 -155h100v-130h-174l-42 -74h216v-130z" />
    <glyph glyph-name="lessequal" unicode="&#x2264;" horiz-adv-x="609" 
d="M558 23h-508v130h508v-130zM50 515l509 310v-142l-283 -168l283 -168v-142z" />
    <glyph glyph-name="greaterequal" unicode="&#x2265;" horiz-adv-x="609" 
d="M51 23v130h508v-130h-508zM559 515l-509 -310v142l283 168l-283 168v142z" />
    <glyph glyph-name="dotmath" unicode="&#x22c5;" horiz-adv-x="278" 
d="M228 250h-178v180h178v-180z" />
    <glyph glyph-name="lozenge" unicode="&#x25ca;" horiz-adv-x="440" 
d="M400 350l-180 -350l-180 350l180 350zM300 350l-80 156l-80 -156l80 -156z" />
    <glyph glyph-name="uniF400" unicode="&#xf400;" horiz-adv-x="2" 
d="M-230 827l93 -99l-182 -158l-93 98z" />
    <glyph glyph-name="uniF401" unicode="&#xf401;" horiz-adv-x="2" 
d="M-323 997l97 -99l-172 -158l-97 98z" />
    <glyph glyph-name="uniF406" unicode="&#xf406;" horiz-adv-x="512" 
d="M256 843c40 0 80 17 97 71h129c-36 -124 -96 -174 -226 -174s-200 50 -226 174h129c17 -54 57 -71 97 -71z" />
    <glyph glyph-name="uniF407" unicode="&#xf407;" horiz-adv-x="244" 
d="M30 -200v70h69c12 0 21 3 21 14c0 15 -16 15 -24 15h-30c-27 0 -35 14 -35 29c0 8 3 16 5 21l24 51h76l-11 -23c-2 -4 -3 -6 -3 -7c0 -5 5 -5 8 -5h9c50 0 75 -22 75 -82s-40 -83 -100 -83h-84z" />
    <glyph glyph-name="uniF408" unicode="&#xf408;" horiz-adv-x="478" 
d="M368 740l-99 79c-16 12 -22 18 -30 18c-7 0 -12 -6 -28 -18l-99 -79l-72 89l139 114c18 15 37 23 60 23s42 -8 60 -23l139 -114z" />
    <glyph glyph-name="uniF409" unicode="&#xf409;" horiz-adv-x="273" 
d="M139 -371l-149 45l86 286l167 -51z" />
    <glyph glyph-name="uniF40A" unicode="&#xf40a;" horiz-adv-x="273" 
d="M139 400l-149 45l86 286l167 -51z" />
    <glyph glyph-name="uniF40B" unicode="&#xf40b;" horiz-adv-x="286" 
d="M256 766h-226v130h226v-130z" />
    <glyph glyph-name="uniF40C" unicode="&#xf40c;" horiz-adv-x="299" 
d="M150 977c90 0 119 -39 119 -119s-29 -118 -119 -118s-120 38 -120 118s30 119 120 119zM102 858c0 -30 8 -52 48 -52s47 22 47 52s-7 53 -47 53s-48 -23 -48 -53z" />
    <glyph glyph-name="uniF40D" unicode="&#xf40d;" horiz-adv-x="519" 
d="M98 744l-68 76c44 49 107 85 153 85c70 0 105 -52 145 -52c34 0 68 32 93 59l68 -72c-47 -53 -103 -94 -155 -94c-71 0 -105 49 -143 49c-33 0 -63 -25 -93 -51z" />
    <glyph glyph-name="uniF40E" unicode="&#xf40e;" horiz-adv-x="228" 
d="M198 -209h-85c-51 0 -83 21 -83 69c0 12 4 31 11 43l58 97h97l-55 -91c-6 -10 -9 -17 -9 -22c0 -11 9 -17 27 -17h39v-79z" />
    <glyph glyph-name="uniF43E" unicode="&#xf43e;" horiz-adv-x="596" 
d="M218 -200v70h69c12 0 21 3 21 14c0 15 -16 15 -24 15h-30c-27 0 -35 14 -35 29c0 8 3 16 5 21l24 51h-58v526h-190v174h596v-174h-190v-526h-82l-11 -23c-2 -4 -3 -6 -3 -7c0 -5 5 -5 8 -5h9c50 0 75 -22 75 -82s-40 -83 -100 -83h-84z" />
    <glyph glyph-name="uniF43F" unicode="&#xf43f;" horiz-adv-x="380" 
d="M124 -200v70h69c12 0 21 3 21 14c0 15 -16 15 -24 15h-30c-27 0 -35 14 -35 29c0 8 3 16 5 21l34 75c-51 26 -85 76 -85 156v210h-75v140h75v170h196v-170h101v-140h-101v-120c0 -80 0 -130 90 -130h11v-140h-97c-17 0 -33 1 -48 3l-12 -26c-2 -4 -3 -6 -3 -7
c0 -5 5 -5 8 -5h9c50 0 75 -22 75 -82s-40 -83 -100 -83h-84z" />
    <glyph glyph-name="uniF47E" unicode="&#xf47e;" horiz-adv-x="666" 
d="M333 174c60 0 67 44 67 124v402h216v-420c0 -220 -63 -288 -283 -288s-283 68 -283 288v420h216v-402c0 -80 7 -124 67 -124zM446 766h-226v130h226v-130z" />
    <glyph glyph-name="uniF47F" unicode="&#xf47f;" horiz-adv-x="592" 
d="M554 530v-420c0 -80 -40 -110 -110 -110h-196c-130 0 -210 70 -210 200v330h196v-280c0 -70 0 -110 80 -110h4c30 0 40 10 40 40v350h196zM393 583h-196v128h196v-128z" />
    <glyph glyph-name="uniF483" unicode="&#xf483;" horiz-adv-x="550" 
d="M538 0h-408c-40 0 -126 0 -126 92c0 60 51 124 78 163l170 243c4 6 9 12 9 20c0 7 -7 8 -18 8h-218v174h423c48 0 98 -14 98 -93c0 -48 -49 -118 -69 -146l-180 -261c-4 -6 -8 -11 -8 -16c0 -4 1 -10 12 -10h237v-174zM285 977c90 0 119 -39 119 -119s-29 -118 -119 -118
s-120 38 -120 118s30 119 120 119zM237 858c0 -30 8 -52 48 -52s47 22 47 52s-7 53 -47 53s-48 -23 -48 -53z" />
    <glyph glyph-name="uniF484" unicode="&#xf484;" horiz-adv-x="476" 
d="M97 0c-50 0 -87 39 -87 102c0 42 19 68 49 103l149 173c5 5 8 9 8 11c0 3 -3 5 -10 5h-177v136h339c58 0 98 -34 98 -97c0 -59 -24 -77 -48 -106l-142 -168c-5 -5 -8 -10 -8 -13s1 -4 9 -4h180v-142h-360zM239 807c90 0 119 -39 119 -119s-29 -118 -119 -118
s-120 38 -120 118s30 119 120 119zM191 688c0 -30 8 -52 48 -52s47 22 47 52s-7 53 -47 53s-48 -23 -48 -53z" />
    <glyph glyph-name="uniF4C4" unicode="&#xf4c4;" horiz-adv-x="596" 
d="M218 -200v70h69c12 0 21 3 21 14c0 15 -16 15 -24 15h-30c-27 0 -35 14 -35 29c0 8 3 16 5 21l24 51h-58v526h-190v174h596v-174h-190v-526h-82l-11 -23c-2 -4 -3 -6 -3 -7c0 -5 5 -5 8 -5h9c50 0 75 -22 75 -82s-40 -83 -100 -83h-84z" />
    <glyph glyph-name="uniF4C5" unicode="&#xf4c5;" horiz-adv-x="492" 
d="M164 -200v70h69c12 0 21 3 21 14c0 15 -16 15 -24 15h-30c-27 0 -35 14 -35 29c0 8 3 16 5 21l24 51h-46v390h-148v140h492v-140h-148v-390h-74l-11 -23c-2 -4 -3 -6 -3 -7c0 -5 5 -5 8 -5h9c50 0 75 -22 75 -82s-40 -83 -100 -83h-84z" />
    <glyph glyph-name="uniF4C8" unicode="&#xf4c8;" horiz-adv-x="532" 
d="M228 -200v70h69c12 0 21 3 21 14c0 15 -16 15 -24 15h-30c-27 0 -35 14 -35 29c0 8 3 16 5 21l27 54c-178 20 -231 131 -231 347c0 240 66 350 296 350h176v-174h-80c-130 0 -170 -26 -170 -176s40 -176 170 -176h90v-174h-177l-12 -23c-2 -4 -3 -6 -3 -7c0 -5 5 -5 8 -5
h9c50 0 75 -22 75 -82s-40 -83 -100 -83h-84z" />
    <glyph glyph-name="uniF4C9" unicode="&#xf4c9;" horiz-adv-x="451" 
d="M175 -200v70h69c12 0 21 3 21 14c0 15 -16 15 -24 15h-30c-27 0 -35 14 -35 29c0 8 3 16 5 21l24 51c-133 5 -181 108 -181 264c0 160 40 266 220 266h184v-140h-94c-80 0 -110 -46 -110 -126s30 -124 110 -124h105v-140h-158l-11 -23c-2 -4 -3 -6 -3 -7c0 -5 5 -5 8 -5
h9c50 0 75 -22 75 -82s-40 -83 -100 -83h-84z" />
    <glyph glyph-name="uniF4CC" unicode="&#xf4cc;" horiz-adv-x="664" 
d="M391 0h-246l82 179l-241 521h252l107 -298l87 298h246zM369 997l97 -99l-172 -158l-97 98z" />
    <glyph glyph-name="uniF4CD" unicode="&#xf4cd;" horiz-adv-x="552" 
d="M566 530l-236 -701h-196l73 171l-221 530h206l102 -316l70 316h202zM334 825l87 -97l-182 -158l-87 96z" />
    <glyph glyph-name="uniF6BA" unicode="&#xf6ba;" horiz-adv-x="408" 
d="M30 275v158h348v-158h-348z" />
    <glyph glyph-name="uniF6BB" unicode="&#xf6bb;" horiz-adv-x="552" 
d="M30 275v158h492v-158h-492z" />
    <glyph glyph-name="uniF6BC" unicode="&#xf6bc;" horiz-adv-x="788" 
d="M30 275v158h728v-158h-728z" />
    <glyph glyph-name="uniF6C3" unicode="&#xf6c3;" horiz-adv-x="263" 
d="M129 -371l-149 45l86 286l167 -51z" />
    <glyph glyph-name="uniF6C9" unicode="&#xf6c9;" horiz-adv-x="329" 
d="M202 997l97 -99l-172 -158l-97 98z" />
    <glyph glyph-name="uniF6CA" unicode="&#xf6ca;" horiz-adv-x="478" 
d="M110 966l99 -79c16 -12 22 -18 30 -18c7 0 12 6 28 18l99 79l72 -89l-139 -114c-18 -15 -37 -23 -60 -23s-42 8 -60 23l-139 114z" />
    <glyph glyph-name="uniF6CB" unicode="&#xf6cb;" horiz-adv-x="530" 
d="M480 766h-172v129h172v-129zM222 766h-172v129h172v-129z" />
    <glyph glyph-name="uniF6CE" unicode="&#xf6ce;" horiz-adv-x="339" 
d="M127 997l182 -159l-97 -98l-182 158z" />
    <glyph glyph-name="uniF6CF" unicode="&#xf6cf;" horiz-adv-x="547" 
d="M191 1005l87 -76l-162 -189l-86 75zM430 1005l87 -76l-162 -189l-86 75z" />
    <glyph glyph-name="uniF6D0" unicode="&#xf6d0;" horiz-adv-x="349" 
d="M319 766h-289v110h289v-110z" />
    <glyph glyph-name="uniF6D1" unicode="&#xf6d1;" horiz-adv-x="552" 
d="M276 843c40 0 70 17 77 71h169c-16 -124 -106 -174 -246 -174s-240 50 -246 174h169c7 -54 37 -71 77 -71z" />
    <glyph glyph-name="uniF6D4" unicode="&#xf6d4;" horiz-adv-x="512" 
d="M256 663c40 0 70 17 77 71h149c-26 -124 -96 -174 -226 -174s-210 50 -226 174h149c7 -54 37 -71 77 -71z" />
    <glyph glyph-name="uniF6DE" unicode="&#xf6de;" horiz-adv-x="621" 
d="M37 189v158h546v-158h-546z" />
    <glyph glyph-name="afii10091.alt.1" horiz-adv-x="875" 
d="M801 140h70v-140h-723c-70 0 -110 30 -110 110v420h192v-350c0 -30 10 -40 40 -40h53v390h192v-390h94v390h192v-390z" />
    <glyph glyph-name="afii10040.alt.1" horiz-adv-x="708" 
d="M266 218c0 -30 14 -44 44 -44h92v526h216v-526h90v-174h-548c-70 0 -110 40 -110 110v590h216v-482z" />
    <glyph glyph-name="afii10069.alt.1" horiz-adv-x="646" 
d="M4 0v140h60l85 307c25 89 124 89 174 89s149 0 174 -89l85 -307h60v-140h-638zM295 353l-45 -223h146l-45 223c-6 29 -13 31 -28 31s-22 -2 -28 -31z" />
    <glyph glyph-name="afii10088.alt.1" horiz-adv-x="628" 
d="M554 140h70v-140h-476c-70 0 -110 30 -110 110v420h196v-350c0 -30 10 -40 40 -40h84v390h196v-390z" />
    <glyph glyph-name="mu1" horiz-adv-x="596" 
d="M38 -177v707h197v-300c0 -53 3 -96 62 -96c50 0 64 40 64 93v303h197v-530h-187v73c-16 -51 -31 -79 -75 -79c-47 0 -58 29 -71 72v-243h-187z" />
    <glyph glyph-name="afii10021.alt.1" horiz-adv-x="747" 
d="M0 0v174h70l125 443c16 55 51 91 179 91s163 -36 179 -91l124 -443h70v-174h-747zM351 488l-64 -314h174l-64 314c-5 27 -16 28 -23 28s-18 -1 -23 -28z" />
    <glyph glyph-name="hyphenminus" horiz-adv-x="408" 
d="M30 189v158h348v-158h-348z" />
    <glyph glyph-name="dotlessi1" horiz-adv-x="272" 
d="M38 0v530h196v-530h-196z" />
    <glyph glyph-name="afii10043.alt.1" horiz-adv-x="1042" 
d="M266 700v-482c0 -30 14 -44 44 -44h83v526h216v-526h127v526h216v-526h90v-174h-882c-70 0 -110 40 -110 110v590h216z" />
    </font>
</defs>
</svg>
