<?xml version="1.0" standalone="no"?>
<!DOCTYPE svg PUBLIC "-//W3C//DTD SVG 1.1//EN" "http://www.w3.org/Graphics/SVG/1.1/DTD/svg11.dtd" >
<svg xmlns="http://www.w3.org/2000/svg" xmlns:xlink="http://www.w3.org/1999/xlink" version="1.1">
<metadata>
Created by FontForge 20170910 at Thu Jan 21 14:48:17 2010
 By Jimmy Wärting
The first three weights of the family were designed at ParaType (ParaGraph) in 1997 by Dmitry Kirsanov. They were based on the artworks of Moscow graphic designer Andrey Kryukov (1923-1997). The original version was developed by Kryukov in the end of sixties for Russian railways. The proportions and elements of construction was inspired by Eurostile (1962) by Aldo Novarese. For use in advertising and display typography. In 2009 Dmitry together with adding the new styles corrected the old ones and enhanced them with extended character set.
</metadata>
<defs>
<font id="MagistralCond-Medium" horiz-adv-x="548" >
  <font-face 
    font-family="Magistral Cond Medium"
    font-weight="500"
    font-stretch="condensed"
    units-per-em="1000"
    panose-1="2 11 7 6 3 2 4 8 3 4"
    ascent="800"
    descent="-200"
    x-height="530"
    cap-height="700"
    bbox="-463 -289 1047 959"
    underline-thickness="50"
    underline-position="-100"
    stemh="90"
    stemv="117"
    unicode-range="U+0020-FB02"
  />
<missing-glyph horiz-adv-x="233" 
 />
    <glyph glyph-name="afii10017.var.accented" unicode="&#x410;`" horiz-adv-x="626" 
d="M-6 0l194 619c22 70 62 89 125 89c60 0 103 -19 125 -89l194 -619h-139l-52 177h-257l-51 -177h-139zM293 556l-85 -285h209l-84 285c-6 20 -11 29 -20 29s-14 -9 -20 -29zM363 947l66 -75l-168 -132l-65 74z" />
    <glyph glyph-name="afii10022.var.accented" unicode="&#x415;`" horiz-adv-x="531" 
d="M501 105v-105h-339c-60 0 -102 25 -102 105v490c0 80 42 105 102 105h335v-105h-255c-40 0 -50 -10 -50 -50v-135h295v-105h-295v-150c0 -40 10 -50 50 -50h259zM346 947l66 -75l-168 -132l-65 74z" />
    <glyph glyph-name="afii10026.var.accented" unicode="&#x418;`" horiz-adv-x="666" 
d="M606 0h-133l5 532c0 11 -3 23 -12 23c-10 0 -18 -12 -24 -32l-148 -455c-14 -42 -50 -76 -121 -76c-101 0 -113 70 -113 120v588h133l-4 -522c0 -16 3 -32 14 -32c8 0 13 9 17 22l142 452c24 75 79 88 127 88c105 0 117 -81 117 -126v-582zM393 947l66 -75l-168 -132
l-65 74z" />
    <glyph glyph-name="afii10032.var.accented" unicode="&#x41e;`" horiz-adv-x="680" 
d="M340 708c241 0 300 -85 300 -358s-59 -358 -300 -358c-239 0 -300 85 -300 358s61 358 300 358zM176 350c0 -190 22 -253 164 -253s164 63 164 253s-22 253 -164 253s-164 -63 -164 -253zM390 947l66 -75l-168 -132l-65 74z" />
    <glyph glyph-name="afii10037.var.accented" unicode="&#x423;`" horiz-adv-x="576" 
d="M323 0h-143l71 149l-265 551h146l177 -404l137 404h144zM358 947l66 -75l-168 -132l-65 74z" />
    <glyph glyph-name="afii10045.var.accented" unicode="&#x42b;`" horiz-adv-x="825" 
d="M765 0h-132v700h132v-700zM60 700h132v-280h203c130 0 160 -89 160 -209s-30 -211 -158 -211h-235c-60 0 -102 25 -102 105v595zM329 315h-137v-160c0 -40 10 -50 50 -50h87c66 0 90 36 90 106s-20 104 -90 104zM463 947l66 -75l-168 -132l-65 74z" />
    <glyph glyph-name="afii10047.var.accented" unicode="&#x42d;`" horiz-adv-x="550" 
d="M223 0h-183v105h121c155 0 202 46 211 198h-308v105h308c-11 143 -60 187 -211 187h-110v105h172c240 0 287 -150 287 -350s-47 -350 -287 -350zM325 947l66 -75l-168 -132l-65 74z" />
    <glyph glyph-name="afii10048.var.accented" unicode="&#x42e;`" horiz-adv-x="909" 
d="M569 708c251 0 300 -75 300 -358s-49 -358 -300 -358c-235 0 -293 67 -299 313h-78v-305h-132v700h131v-290h80c7 233 67 298 298 298zM406 350c0 -200 11 -253 163 -253s164 53 164 253s-12 253 -164 253s-163 -53 -163 -253zM505 947l66 -75l-168 -132l-65 74z" />
    <glyph glyph-name="afii10049.var.accented" unicode="&#x42f;`" horiz-adv-x="638" 
d="M578 0h-132v545c0 40 -10 50 -50 50h-113c-84 0 -99 -36 -99 -116s11 -129 84 -129h46c39 0 59 -19 59 -47v-16c0 -30 -16 -55 -33 -79l-146 -208h-160l186 240v5h-10c-117 0 -162 90 -162 234c0 140 45 221 175 221h253c60 0 102 -25 102 -105v-595zM399 947l66 -75
l-168 -132l-65 74z" />
    <glyph glyph-name="afii10023.var.accented" unicode="&#x401;`" horiz-adv-x="531" 
d="M501 105v-105h-339c-60 0 -102 25 -102 105v490c0 80 42 105 102 105h335v-105h-255c-40 0 -50 -10 -50 -50v-135h295v-105h-295v-150c0 -40 10 -50 50 -50h259zM490 760h-100v110h100v-110zM168 760h-100v110h100v-110zM307 947l77 -57l-121 -170l-76 56z" />
    <glyph glyph-name="afii10065.var.accented" unicode="&#x430;`" horiz-adv-x="485" 
d="M69 530h221c100 0 149 -66 149 -156v-284c0 -60 -30 -90 -90 -90h-187c-90 0 -132 55 -132 165c0 100 42 165 132 165h160v34c0 50 -24 76 -74 76h-179v90zM322 240h-115c-40 0 -56 -25 -56 -75s16 -75 56 -75h85c20 0 30 10 30 30v120zM293 767l60 -75l-162 -132l-59 74
z" />
    <glyph glyph-name="afii10070.var.accented" unicode="&#x435;`" horiz-adv-x="491" 
d="M444 0h-214c-160 0 -200 96 -200 266c0 210 46 270 216 270c140 0 215 -40 215 -210c0 -60 -22 -100 -82 -100h-228c0 -80 24 -136 114 -136h179v-90zM151 316h163c23 0 26 16 26 31c0 70 -34 99 -94 99c-80 0 -95 -40 -95 -130zM296 767l60 -75l-162 -132l-59 74z" />
    <glyph glyph-name="afii10074.var.accented" unicode="&#x438;`" horiz-adv-x="531" 
d="M485 0h-117l4 377c0 11 -2 14 -6 14c-3 0 -9 0 -14 -14l-103 -311c-19 -57 -66 -72 -116 -72c-68 0 -87 37 -87 75v461h117l-5 -377c0 -9 0 -14 8 -14c7 0 11 6 14 14l106 317c20 61 78 66 112 66c26 0 87 -2 87 -81v-455zM316 767l60 -75l-162 -132l-59 74z" />
    <glyph glyph-name="afii10080.var.accented" unicode="&#x43e;`" horiz-adv-x="544" 
d="M272 536c180 0 242 -60 242 -270c0 -212 -62 -272 -242 -272s-242 60 -242 272c0 210 62 270 242 270zM151 266c0 -130 21 -182 121 -182s121 52 121 182s-21 180 -121 180s-121 -50 -121 -180zM322 767l60 -75l-162 -132l-59 74z" />
    <glyph glyph-name="afii10085.var.accented" unicode="&#x443;`" horiz-adv-x="490" 
d="M500 530l-246 -701h-119l63 171l-208 530h121l144 -387l126 387h119zM315 767l60 -75l-162 -132l-59 74z" />
    <glyph glyph-name="afii10093.var.accented" unicode="&#x44b;`" horiz-adv-x="672" 
d="M509 0v530h117v-530h-117zM312 0h-176c-60 0 -90 30 -90 90v440h117v-201h149c104 0 134 -64 134 -164s-30 -165 -134 -165zM163 239v-119c0 -20 10 -30 30 -30h70c50 0 62 25 62 75s-12 74 -62 74h-100zM406 767l60 -75l-162 -132l-59 74z" />
    <glyph glyph-name="afii10095.var.accented" unicode="&#x44d;`" horiz-adv-x="450" 
d="M176 440h-134v90h161c180 0 217 -104 217 -264s-37 -266 -217 -266h-173v90h146c108 0 121 59 124 142h-251v90h250c-7 70 -25 118 -123 118zM285 767l60 -75l-162 -132l-59 74z" />
    <glyph glyph-name="afii10096.var.accented" unicode="&#x44e;`" horiz-adv-x="752" 
d="M480 536c180 0 242 -60 242 -270c0 -212 -62 -272 -242 -272c-169 0 -234 53 -241 234h-76v-228h-117v530h117v-212h76c11 168 77 218 241 218zM359 266c0 -130 21 -182 121 -182s121 52 121 182s-21 180 -121 180s-121 -50 -121 -180zM436 767l60 -75l-162 -132l-59 74z
" />
    <glyph glyph-name="afii10097.var.accented" unicode="&#x44f;`" horiz-adv-x="514" 
d="M30 0l134 183c5 6 7 9 7 12c0 6 -6 6 -10 6h-4c-90 0 -120 75 -120 165s30 164 130 164h211c60 0 90 -30 90 -90v-440h-117v410c0 20 -10 30 -30 30h-105c-42 0 -58 -22 -58 -74s16 -79 58 -79h25c13 0 51 -2 51 -55c0 -38 -9 -61 -24 -84l-95 -148h-143zM335 767l60 -75
l-162 -132l-59 74z" />
    <glyph glyph-name="afii10071.var.accented" unicode="&#x451;`" horiz-adv-x="491" 
d="M354 600v108h88v-108h-88zM140 600h-88v108h88v-108zM279 777l67 -49l-123 -170l-66 49zM444 0h-214c-160 0 -200 96 -200 266c0 210 46 270 216 270c140 0 215 -40 215 -210c0 -60 -22 -100 -82 -100h-228c0 -80 24 -136 114 -136h179v-90zM151 316h163
c23 0 26 16 26 31c0 70 -34 99 -94 99c-80 0 -95 -40 -95 -130z" />
    <glyph glyph-name="fi" unicode="fi" horiz-adv-x="485" 
d="M322 0v530h117v-530h-117zM439 607h-117v93h117v-93zM181 0h-117v440h-64v90h64c0 140 62 178 182 178c10 0 20 -1 30 -1v-86c-7 1 -13 1 -20 1c-54 0 -75 -15 -75 -92h95v-90h-95v-440z" />
    <glyph glyph-name="fl" unicode="fl" horiz-adv-x="485" 
d="M322 0v700h117v-700h-117zM181 0h-117v440h-64v90h64c0 140 62 178 182 178c10 0 20 -1 30 -1v-86c-7 1 -13 1 -20 1c-54 0 -75 -15 -75 -92h95v-90h-95v-440z" />
    <glyph glyph-name=".notdef" horiz-adv-x="233" 
 />
    <glyph glyph-name="space" unicode=" " horiz-adv-x="233" 
 />
    <glyph glyph-name="exclam" unicode="!" horiz-adv-x="258" 
d="M68 0v124h122v-124h-122zM189 195h-120l-9 505h138z" />
    <glyph glyph-name="quotedbl" unicode="&#x22;" horiz-adv-x="389" 
d="M66 451l-6 249h109l-5 -249h-98zM226 451l-6 249h109l-5 -249h-98z" />
    <glyph glyph-name="numbersign" unicode="#" horiz-adv-x="794" 
d="M101 0l71 180h-132l34 86h133l71 176h-133l35 86h133l69 172h100l-69 -172h108l69 172h100l-69 -172h133l-35 -86h-133l-71 -176h133l-35 -87h-133l-72 -179h-100l72 179h-107l-73 -179h-99zM415 266l71 176h-108l-71 -176h108z" />
    <glyph glyph-name="dollar" unicode="$" horiz-adv-x="539" 
d="M39 0v105h193v195l-83 47c-83 46 -119 98 -119 194c0 100 49 159 160 159h42v68h68v-68h183v-105h-183v-193l63 -37c90 -53 146 -85 146 -195c0 -103 -42 -170 -150 -170h-59v-68h-68v68h-193zM305 260l-5 3v-158h7c63 0 66 42 66 66c0 27 -13 58 -68 89zM166 535
c0 -31 11 -59 61 -89l5 -3v152h-7c-33 0 -59 -10 -59 -60z" />
    <glyph glyph-name="percent" unicode="%" horiz-adv-x="757" 
d="M176 0l317 700h88l-317 -700h-88zM195 706c120 0 145 -58 145 -168c0 -112 -25 -168 -145 -168s-145 56 -145 168c0 110 25 168 145 168zM142 538c0 -60 3 -91 53 -91s53 31 53 91s-3 91 -53 91s-53 -31 -53 -91zM562 330c120 0 145 -58 145 -168
c0 -112 -25 -168 -145 -168s-145 56 -145 168c0 110 25 168 145 168zM509 162c0 -60 3 -91 53 -91s53 31 53 91s-3 91 -53 91s-53 -31 -53 -91z" />
    <glyph glyph-name="ampersand" unicode="&#x26;" horiz-adv-x="625" 
d="M520 303v-170c0 -92 -20 -133 -140 -133h-133c-129 0 -187 53 -187 200c0 74 24 133 106 149v4c-76 8 -105 83 -105 166c0 123 53 181 185 181h266v-104h-215c-71 0 -102 -14 -102 -91c0 -83 32 -108 111 -108h299v-94h-85zM344 104c42 0 47 11 47 37v161h-118
c-54 0 -79 -26 -79 -97c0 -67 20 -101 93 -101h57z" />
    <glyph glyph-name="quotesingle" unicode="'" horiz-adv-x="230" 
d="M66 451l-6 249h110l-6 -249h-98z" />
    <glyph glyph-name="parenleft" unicode="(" horiz-adv-x="312" 
d="M151 419v-291c0 -130 3 -203 121 -203v-84c-161 0 -212 78 -212 288v290c0 210 51 287 212 287v-84c-118 0 -121 -73 -121 -203z" />
    <glyph glyph-name="parenright" unicode=")" horiz-adv-x="312" 
d="M161 128v291c0 130 -3 203 -121 203v84c161 0 212 -77 212 -287v-290c0 -210 -51 -288 -212 -288v84c118 0 121 73 121 203z" />
    <glyph glyph-name="asterisk" unicode="*" horiz-adv-x="511" 
d="M40 450l142 82l-142 82l36 62l144 -82v164h72v-163l141 82l38 -66l-142 -82l141 -82l-36 -63l-142 82v-164h-72v164l-142 -82z" />
    <glyph glyph-name="plus" unicode="+" horiz-adv-x="480" 
d="M286 84h-92v184h-134v85h134v184h92v-184h134v-85h-134v-184z" />
    <glyph glyph-name="comma" unicode="," horiz-adv-x="278" 
d="M89 -116l-89 53l122 203l96 -57z" />
    <glyph glyph-name="hyphen" unicode="-" horiz-adv-x="380" 
d="M40 218v103h300v-103h-300z" />
    <glyph glyph-name="period" unicode="." horiz-adv-x="242" 
d="M182 0h-122v129h122v-129z" />
    <glyph glyph-name="slash" unicode="/" horiz-adv-x="427" 
d="M89 -166h-89l338 906h89z" />
    <glyph glyph-name="zero" unicode="0" horiz-adv-x="564" 
d="M40 253v201c0 200 52 253 242 253s242 -53 242 -253v-201c0 -200 -52 -258 -242 -258s-242 58 -242 258zM172 448v-190c0 -120 20 -158 110 -158s110 38 110 158v190c0 120 -20 154 -110 154s-110 -34 -110 -154z" />
    <glyph glyph-name="one" unicode="1" horiz-adv-x="272" 
d="M80 0v547c0 30 -2 48 -33 48h-47v105h121c60 0 91 -28 91 -88v-612h-132z" />
    <glyph glyph-name="two" unicode="2" horiz-adv-x="520" 
d="M98 0c-13 0 -74 1 -74 74c0 62 24 84 43 102l244 226c36 34 45 57 45 97c0 68 -16 96 -86 96h-209v105h270c116 0 159 -59 159 -186c0 -96 -25 -132 -92 -195l-202 -190c-5 -5 -11 -11 -11 -16c0 -3 1 -8 8 -8h268v-105h-363z" />
    <glyph glyph-name="three" unicode="3" horiz-adv-x="539" 
d="M40 0v105h201c82 0 122 2 122 95c0 59 -11 101 -95 101h-210v105h202c75 0 93 29 93 96c0 52 -9 93 -82 93h-219v105h271c124 0 166 -62 166 -184c0 -64 -11 -146 -105 -158v-4c92 -5 115 -82 115 -161c0 -108 -29 -193 -165 -193h-294z" />
    <glyph glyph-name="four" unicode="4" horiz-adv-x="590" 
d="M360 0v118h-256c-56 0 -86 19 -86 87c0 27 10 58 39 101l238 352c32 47 84 50 107 50c53 0 90 -13 90 -76v-409h88v-105h-88v-118h-132zM360 223v332c0 3 -1 4 -4 4s-6 0 -12 -10l-188 -287c-4 -7 -12 -18 -12 -27c0 -8 2 -12 18 -12h198z" />
    <glyph glyph-name="five" unicode="5" horiz-adv-x="538" 
d="M44 0v105h242c58 0 76 37 76 107c0 60 -15 96 -76 96h-116c-76 0 -130 20 -130 125v177c0 54 30 90 93 90h342v-105h-270c-17 0 -33 -3 -33 -36v-87c0 -39 8 -59 52 -59h119c122 0 155 -84 155 -196c0 -113 -22 -217 -155 -217h-299z" />
    <glyph glyph-name="six" unicode="6" horiz-adv-x="559" 
d="M192 429h145c135 0 182 -69 182 -202c0 -131 -28 -227 -187 -227h-95c-128 0 -177 74 -177 193v325c0 111 56 182 183 182h241v-105h-194c-65 0 -98 -26 -98 -91v-75zM192 324v-125c0 -63 12 -94 91 -94h5c74 0 95 43 95 114c0 68 -20 105 -106 105h-85z" />
    <glyph glyph-name="seven" unicode="7" horiz-adv-x="458" 
d="M32 0l271 556c7 14 11 19 11 26c0 13 -13 13 -21 13h-293v105h381c67 0 77 -27 77 -63c0 -33 -11 -63 -24 -91l-255 -546h-147z" />
    <glyph glyph-name="eight" unicode="8" horiz-adv-x="564" 
d="M264 700h35c130 0 209 -23 209 -193c0 -70 -23 -136 -96 -149v-4c96 -16 112 -79 112 -169c0 -130 -61 -185 -191 -185h-102c-130 0 -191 55 -191 185c0 90 16 153 112 169v4c-68 9 -96 79 -96 149c0 170 78 193 208 193zM274 407h16c59 0 82 23 82 93s-23 95 -93 95h5
c-70 0 -92 -25 -92 -95s22 -93 82 -93zM264 105h36c66 0 88 31 88 101s-32 96 -92 96h-28c-60 0 -92 -26 -92 -96s22 -101 88 -101z" />
    <glyph glyph-name="nine" unicode="9" horiz-adv-x="559" 
d="M367 271h-145c-135 0 -182 69 -182 202c0 131 28 227 187 227h95c128 0 177 -74 177 -193v-325c0 -111 -56 -182 -183 -182h-241v105h194c65 0 98 26 98 91v75zM367 376v125c0 63 -12 94 -91 94h-5c-74 0 -95 -43 -95 -114c0 -68 20 -105 106 -105h85z" />
    <glyph glyph-name="colon" unicode=":" horiz-adv-x="242" 
d="M182 404h-122v126h122v-126zM182 0h-122v126h122v-126z" />
    <glyph glyph-name="semicolon" unicode=";" horiz-adv-x="242" 
d="M182 404h-122v126h122v-126zM89 -116l-89 53l122 203l96 -57z" />
    <glyph glyph-name="less" unicode="&#x3c;" horiz-adv-x="581" 
d="M60 314l361 232v-114l-197 -118l197 -118v-114z" />
    <glyph glyph-name="equal" unicode="=" horiz-adv-x="480" 
d="M420 197h-360v85h360v-85zM420 348h-360v85h360v-85z" />
    <glyph glyph-name="greater" unicode="&#x3e;" horiz-adv-x="581" 
d="M521 314l-361 -232v114l197 118l-197 118v114z" />
    <glyph glyph-name="question" unicode="?" horiz-adv-x="424" 
d="M115 0v124h122v-124h-122zM237 195h-122v58c0 53 25 85 56 119l35 39c21 23 46 56 46 106c0 62 -23 78 -79 78h-153v105h203c110 0 161 -35 161 -162c0 -60 -26 -112 -76 -175l-37 -47c-12 -15 -34 -34 -34 -76v-45z" />
    <glyph glyph-name="at" unicode="@" horiz-adv-x="935" 
d="M646 -194h-259c-272 0 -327 180 -327 474c0 302 90 422 353 422h154c238 0 308 -123 308 -387c0 -134 0 -318 -155 -318c-59 0 -110 28 -126 93c-45 -84 -102 -93 -151 -93c-151 0 -178 99 -178 258c0 145 12 266 180 266h115c52 0 90 -13 90 -89v-249
c0 -90 41 -102 68 -102c56 0 57 113 57 234c0 226 -32 293 -214 293h-141c-228 0 -260 -90 -260 -328c0 -188 0 -380 243 -380h243v-94zM553 393c0 23 -18 36 -42 36h-45c-100 0 -101 -66 -101 -172c0 -98 9 -167 80 -167c88 0 108 62 108 160v143z" />
    <glyph glyph-name="A" unicode="A" horiz-adv-x="626" 
d="M-6 0l194 619c22 70 62 89 125 89c60 0 103 -19 125 -89l194 -619h-139l-52 177h-257l-51 -177h-139zM293 556l-85 -285h209l-84 285c-6 20 -11 29 -20 29s-14 -9 -20 -29z" />
    <glyph glyph-name="B" unicode="B" horiz-adv-x="612" 
d="M192 301v-146c0 -40 10 -50 50 -50h89c69 0 95 26 95 96s-26 100 -86 100h-148zM192 545v-139h146c59 0 77 26 77 96c0 60 -18 93 -78 93h-95c-40 0 -50 -10 -50 -50zM452 354c82 -7 110 -71 110 -162c0 -107 -28 -192 -162 -192h-238c-60 0 -102 25 -102 105v490
c0 80 42 105 102 105h238c101 0 151 -66 151 -192c0 -75 -23 -139 -99 -150v-4z" />
    <glyph glyph-name="C" unicode="C" horiz-adv-x="539" 
d="M509 0h-192c-240 0 -277 150 -277 350s37 350 277 350h181v-105h-119c-170 0 -203 -55 -203 -245s33 -245 203 -245h130v-105z" />
    <glyph glyph-name="D" unicode="D" horiz-adv-x="649" 
d="M371 0h-209c-60 0 -102 25 -102 105v490c0 80 42 105 102 105h191c238 0 256 -180 256 -350s-18 -350 -238 -350zM307 595h-65c-40 0 -50 -10 -50 -50v-390c0 -40 10 -50 50 -50h65c160 0 166 105 166 245s-6 245 -166 245z" />
    <glyph glyph-name="E" unicode="E" horiz-adv-x="531" 
d="M501 105v-105h-339c-60 0 -102 25 -102 105v490c0 80 42 105 102 105h335v-105h-255c-40 0 -50 -10 -50 -50v-135h295v-105h-295v-150c0 -40 10 -50 50 -50h259z" />
    <glyph glyph-name="F" unicode="F" horiz-adv-x="507" 
d="M192 0h-132v595c0 80 42 105 102 105h335v-105h-255c-40 0 -50 -10 -50 -50v-139h210v-105h-210v-301z" />
    <glyph glyph-name="G" unicode="G" horiz-adv-x="627" 
d="M571 595h-192c-170 0 -203 -55 -203 -245s33 -245 203 -245h26c40 0 50 10 50 50v188h132v-238c0 -80 -42 -105 -102 -105h-168c-240 0 -277 150 -277 350s37 350 277 350h254v-105z" />
    <glyph glyph-name="H" unicode="H" horiz-adv-x="648" 
d="M588 700v-700h-132v308h-264v-308h-132v700h132v-287h264v287h132z" />
    <glyph glyph-name="I" unicode="I" horiz-adv-x="252" 
d="M192 0h-132v700h132v-700z" />
    <glyph glyph-name="J" unicode="J" horiz-adv-x="365" 
d="M0 0v105h25c110 0 148 50 148 165v430h132v-465c0 -136 -65 -235 -216 -235h-89z" />
    <glyph glyph-name="K" unicode="K" horiz-adv-x="580" 
d="M600 0h-160l-183 267c-23 33 -26 73 -26 93c0 23 8 50 24 78l155 262h154l-183 -287c-12 -19 -23 -36 -23 -52c0 -21 16 -43 31 -64zM60 0v700h132v-700h-132z" />
    <glyph glyph-name="L" unicode="L" horiz-adv-x="498" 
d="M498 0h-336c-60 0 -102 25 -102 105v595h132v-545c0 -40 10 -50 50 -50h256v-105z" />
    <glyph glyph-name="M" unicode="M" horiz-adv-x="872" 
d="M655 543l-109 -467c-15 -65 -50 -84 -110 -84s-95 19 -110 84l-109 467c-4 18 -10 23 -17 23c-11 0 -11 -18 -11 -21l3 -545h-132v616c0 64 43 92 113 92c80 0 119 -30 133 -90l111 -467c4 -16 12 -26 19 -26s15 10 19 26l111 467c14 60 53 90 133 90
c70 0 113 -28 113 -92v-616h-132l4 545c0 20 -8 21 -12 21c-7 0 -13 -6 -17 -23z" />
    <glyph glyph-name="N" unicode="N" horiz-adv-x="670" 
d="M610 700v-609c0 -81 -57 -99 -114 -99c-53 0 -121 7 -143 79l-135 446c-5 15 -13 17 -16 17c-5 0 -14 -5 -14 -20v-514h-128v613c0 70 50 95 117 95c63 0 122 -14 141 -75l137 -449c3 -10 7 -17 16 -17c11 0 11 12 11 17v516h128z" />
    <glyph glyph-name="O" unicode="O" horiz-adv-x="680" 
d="M340 708c241 0 300 -85 300 -358s-59 -358 -300 -358c-239 0 -300 85 -300 358s61 358 300 358zM176 350c0 -190 22 -253 164 -253s164 63 164 253s-22 253 -164 253s-164 -63 -164 -253z" />
    <glyph glyph-name="P" unicode="P" horiz-adv-x="598" 
d="M60 0v595c0 80 42 105 102 105h228c150 0 178 -105 178 -225s-28 -227 -178 -227h-198v-248h-132zM192 353h133c90 0 107 42 107 122s-17 120 -107 120h-83c-40 0 -50 -10 -50 -50v-192z" />
    <glyph glyph-name="Q" unicode="Q" horiz-adv-x="686" 
d="M339 708c241 0 300 -85 300 -358c0 -136 -38 -209 -77 -241v-4l100 4v-109h-343c-219 0 -279 77 -279 350s60 358 299 358zM176 350c0 -190 21 -245 163 -245s164 55 164 245s-22 253 -164 253s-163 -63 -163 -253z" />
    <glyph glyph-name="R" unicode="R" horiz-adv-x="638" 
d="M192 0h-132v595c0 80 42 105 102 105h253c130 0 175 -81 175 -221c0 -144 -45 -234 -152 -234h-10v-5l176 -240h-160l-156 227c-13 19 -23 39 -23 59v16c0 28 20 48 59 48h46c73 0 84 49 84 129s-15 116 -99 116h-113c-40 0 -50 -10 -50 -50v-545z" />
    <glyph glyph-name="S" unicode="S" horiz-adv-x="538" 
d="M39 0v105h267c63 0 66 42 66 66c0 27 -13 58 -68 89l-155 87c-83 46 -119 98 -119 194c0 100 49 159 160 159h292v-105h-257c-33 0 -59 -10 -59 -60c0 -31 11 -59 61 -89l135 -81c90 -53 146 -85 146 -195c0 -103 -42 -170 -150 -170h-319z" />
    <glyph glyph-name="T" unicode="T" horiz-adv-x="559" 
d="M345 0h-132v595h-213v105h559v-105h-214v-595z" />
    <glyph glyph-name="U" unicode="U" horiz-adv-x="628" 
d="M314 97c100 0 122 47 122 157v446h132v-446c0 -200 -74 -262 -254 -262s-254 62 -254 262v446h132v-446c0 -110 22 -157 122 -157z" />
    <glyph glyph-name="V" unicode="V" horiz-adv-x="602" 
d="M137 700l149 -565c2 -7 6 -15 15 -15s13 8 15 15l149 565h143l-184 -622c-17 -57 -53 -86 -123 -86s-106 29 -123 86l-184 622h143z" />
    <glyph glyph-name="W" unicode="W" horiz-adv-x="941" 
d="M273 157l100 479c8 37 22 72 97 72c68 0 88 -31 97 -72l100 -479c2 -8 8 -17 15 -17c9 0 14 12 16 21l109 539h134l-139 -610c-13 -56 -33 -98 -113 -98s-102 41 -112 90l-93 453c-3 13 -7 19 -13 19c-7 0 -10 -6 -14 -19l-94 -453c-10 -49 -31 -90 -111 -90
s-101 41 -114 98l-138 610h134l109 -539c2 -9 5 -21 15 -21c7 0 13 9 15 17z" />
    <glyph glyph-name="X" unicode="X" horiz-adv-x="540" 
d="M554 0h-157l-127 252l-127 -252h-157l199 355l-191 345h157l119 -242l119 242h157l-191 -345z" />
    <glyph glyph-name="Y" unicode="Y" horiz-adv-x="576" 
d="M288 343l160 357h142l-236 -486v-214h-132v214l-236 486h142z" />
    <glyph glyph-name="Z" unicode="Z" horiz-adv-x="509" 
d="M488 0h-382c-32 0 -96 0 -96 63c0 47 22 72 43 103l262 395c6 9 12 18 12 27c0 6 -3 7 -19 7h-271v105h383c39 0 79 -1 79 -58c0 -45 -23 -73 -40 -100l-267 -408c-4 -6 -10 -15 -10 -22s5 -7 12 -7h294v-105z" />
    <glyph glyph-name="bracketleft" unicode="[" horiz-adv-x="292" 
d="M151 622v-697h101v-84h-192v865h192v-84h-101z" />
    <glyph glyph-name="backslash" unicode="\" horiz-adv-x="427" 
d="M338 -166l-338 906h89l338 -906h-89z" />
    <glyph glyph-name="bracketright" unicode="]" horiz-adv-x="292" 
d="M142 -75v697h-102v84h192v-865h-192v84h102z" />
    <glyph glyph-name="asciicircum" unicode="^" horiz-adv-x="590" 
d="M472 521l-148 145c-7 7 -16 14 -28 14s-21 -7 -28 -14l-149 -145l-59 68l181 169c15 15 31 23 54 23s39 -8 54 -23l181 -169z" />
    <glyph glyph-name="underscore" unicode="_" horiz-adv-x="472" 
d="M40 0v103h392v-103h-392z" />
    <glyph glyph-name="grave" unicode="`" horiz-adv-x="301" 
d="M100 767l161 -133l-59 -74l-162 132z" />
    <glyph glyph-name="a" unicode="a" horiz-adv-x="485" 
d="M69 530h221c100 0 149 -66 149 -156v-284c0 -60 -30 -90 -90 -90h-187c-90 0 -132 55 -132 165c0 100 42 165 132 165h160v34c0 50 -24 76 -74 76h-179v90zM322 240h-115c-40 0 -56 -25 -56 -75s16 -75 56 -75h85c20 0 30 10 30 30v120z" />
    <glyph glyph-name="b" unicode="b" horiz-adv-x="508" 
d="M271 0h-135c-60 0 -90 30 -90 90v610h117v-170h108c170 0 207 -104 207 -264s-37 -266 -207 -266zM163 440v-320c0 -20 10 -30 30 -30h49c113 0 115 76 115 176s-2 174 -115 174h-79z" />
    <glyph glyph-name="c" unicode="c" horiz-adv-x="431" 
d="M399 440h-113c-123 0 -135 -74 -135 -174s12 -176 135 -176h125v-90h-154c-180 0 -227 106 -227 266s47 264 227 264h142v-90z" />
    <glyph glyph-name="d" unicode="d" horiz-adv-x="508" 
d="M462 700v-610c0 -60 -30 -90 -90 -90h-135c-170 0 -207 106 -207 266s37 264 207 264h108v170h117zM345 440h-79c-113 0 -115 -74 -115 -174s2 -176 115 -176h49c20 0 30 10 30 30v320z" />
    <glyph glyph-name="e" unicode="e" horiz-adv-x="491" 
d="M444 0h-214c-160 0 -200 96 -200 266c0 210 46 270 216 270c140 0 215 -40 215 -210c0 -60 -22 -100 -82 -100h-228c0 -80 24 -136 114 -136h179v-90zM151 316h163c23 0 26 16 26 31c0 70 -34 99 -94 99c-80 0 -95 -40 -95 -130z" />
    <glyph glyph-name="f" unicode="f" horiz-adv-x="276" 
d="M181 0h-117v440h-64v90h64c0 140 62 178 182 178c10 0 20 -1 30 -1v-86c-7 1 -13 1 -20 1c-54 0 -75 -15 -75 -92h95v-90h-95v-440z" />
    <glyph glyph-name="g" unicode="g" horiz-adv-x="520" 
d="M357 0h-120c-170 0 -207 106 -207 266s37 264 207 264h147c60 0 90 -30 90 -90v-399c0 -150 -59 -216 -219 -216h-188v90h188c60 0 94 27 102 85zM327 440h-61c-113 0 -115 -74 -115 -174s2 -176 115 -176h91v320c0 20 -10 30 -30 30z" />
    <glyph glyph-name="h" unicode="h" horiz-adv-x="504" 
d="M46 0v700h117v-170h89c120 0 206 -41 206 -181v-349h-117v318c0 80 -31 122 -111 122h-67v-440h-117z" />
    <glyph glyph-name="i" unicode="i" horiz-adv-x="209" 
d="M46 0v530h117v-530h-117zM163 600h-117v108h117v-108z" />
    <glyph glyph-name="j" unicode="j" horiz-adv-x="231" 
d="M-40 -178v90c8 -1 12 -1 17 -1c76 0 91 26 91 126v493h117v-507c0 -160 -60 -202 -190 -202c-11 0 -23 0 -35 1zM185 600h-117v108h117v-108z" />
    <glyph glyph-name="k" unicode="k" horiz-adv-x="457" 
d="M471 0h-138l-108 184c-21 35 -27 53 -27 90c0 34 8 51 27 86l90 170h130l-122 -214c-4 -8 -8 -19 -8 -38c0 -17 9 -37 15 -47zM163 0h-117v700h117v-700z" />
    <glyph glyph-name="l" unicode="l" horiz-adv-x="209" 
d="M46 0v700h117v-700h-117z" />
    <glyph glyph-name="m" unicode="m" horiz-adv-x="767" 
d="M46 0v440c0 60 30 90 90 90h379c120 0 206 -41 206 -181v-349h-117v318c0 80 -31 122 -111 122h-51v-440h-117v440h-132c-20 0 -30 -10 -30 -30v-410h-117z" />
    <glyph glyph-name="n" unicode="n" horiz-adv-x="504" 
d="M46 0v440c0 60 30 90 90 90h116c120 0 206 -41 206 -181v-349h-117v318c0 80 -31 122 -111 122h-37c-20 0 -30 -10 -30 -30v-410h-117z" />
    <glyph glyph-name="o" unicode="o" horiz-adv-x="544" 
d="M272 536c180 0 242 -60 242 -270c0 -212 -62 -272 -242 -272s-242 60 -242 272c0 210 62 270 242 270zM151 266c0 -130 21 -182 121 -182s121 52 121 182s-21 180 -121 180s-121 -50 -121 -180z" />
    <glyph glyph-name="p" unicode="p" horiz-adv-x="508" 
d="M136 530h135c170 0 207 -104 207 -264s-37 -266 -207 -266h-108v-170h-117v610c0 60 30 90 90 90zM163 414v-324h79c113 0 115 76 115 176s-2 174 -115 174h-49c-19 0 -30 -9 -30 -26z" />
    <glyph glyph-name="q" unicode="q" horiz-adv-x="508" 
d="M237 530h135c60 0 90 -30 90 -90v-610h-117v170h-108c-170 0 -207 106 -207 266s37 264 207 264zM345 90v324c0 17 -11 26 -30 26h-49c-113 0 -115 -74 -115 -174s2 -176 115 -176h79z" />
    <glyph glyph-name="r" unicode="r" horiz-adv-x="299" 
d="M46 0v330c0 142 62 200 204 200h49v-90h-19c-94 0 -117 -47 -117 -141v-299h-117z" />
    <glyph glyph-name="s" unicode="s" horiz-adv-x="448" 
d="M33 0v90h218c24 0 49 3 49 38c0 56 -45 63 -91 84l-62 28c-107 48 -121 86 -121 162c0 96 45 128 152 128h219v-90h-201c-38 0 -56 -1 -56 -40c0 -45 25 -58 63 -76l74 -34c90 -41 145 -63 145 -165c0 -81 -29 -125 -130 -125h-259z" />
    <glyph glyph-name="t" unicode="t" horiz-adv-x="290" 
d="M290 0h-52c-120 0 -175 43 -175 173v267h-63v90h63v170h117v-170h110v-90h-110v-243c0 -80 22 -107 102 -107h8v-90z" />
    <glyph glyph-name="u" unicode="u" horiz-adv-x="512" 
d="M466 530v-440c0 -60 -30 -90 -90 -90h-124c-120 0 -206 41 -206 181v349h117v-318c0 -80 31 -122 111 -122h45c20 0 30 10 30 30v410h117z" />
    <glyph glyph-name="v" unicode="v" horiz-adv-x="479" 
d="M117 530l109 -393c4 -13 8 -21 14 -21s10 7 14 21l108 393h121l-152 -479c-15 -48 -51 -57 -91 -57s-77 9 -92 57l-152 479h121z" />
    <glyph glyph-name="w" unicode="w" horiz-adv-x="736" 
d="M112 529l82 -391c2 -9 5 -16 10 -16c6 0 8 6 10 15l67 340c12 59 67 59 87 59s75 0 87 -59l68 -340c2 -9 4 -15 10 -15c5 0 8 6 10 16l81 391h112l-106 -463c-12 -52 -41 -72 -91 -72s-92 20 -101 69l-62 322c-2 8 -3 17 -8 17s-6 -9 -8 -17l-62 -322
c-9 -49 -51 -69 -101 -69s-79 20 -91 72l-106 463h112z" />
    <glyph glyph-name="x" unicode="x" horiz-adv-x="441" 
d="M451 0h-137l-94 186l-93 -186h-137l153 272l-140 258h133l84 -172l84 172h133l-139 -258z" />
    <glyph glyph-name="y" unicode="y" horiz-adv-x="490" 
d="M500 530l-246 -701h-119l63 171l-208 530h121l144 -387l126 387h119z" />
    <glyph glyph-name="z" unicode="z" horiz-adv-x="401" 
d="M85 0c-29 0 -75 1 -75 61c0 42 20 64 36 86l192 273c5 7 8 12 8 15s-2 5 -10 5h-219v90h305c41 0 69 -14 69 -57c0 -38 -18 -64 -31 -82l-195 -283c-4 -6 -8 -11 -8 -14s1 -4 9 -4h222v-90h-303z" />
    <glyph glyph-name="braceleft" unicode="{" horiz-adv-x="277" 
d="M116 288v-8c44 -16 47 -60 47 -94v-126c0 -74 9 -112 74 -112v-84c-147 0 -165 77 -165 202v121c0 29 -17 53 -52 56v82c35 3 52 27 52 56v121c0 125 18 202 165 202v-84c-65 0 -74 -38 -74 -112v-126c0 -34 -3 -78 -47 -94z" />
    <glyph glyph-name="bar" unicode="|" horiz-adv-x="190" 
d="M50 -166v906h90v-906h-90z" />
    <glyph glyph-name="braceright" unicode="}" horiz-adv-x="277" 
d="M161 280v8c-44 16 -47 60 -47 94v126c0 74 -9 112 -74 112v84c147 0 165 -77 165 -202v-121c0 -29 17 -53 52 -56v-82c-35 -3 -52 -27 -52 -56v-121c0 -125 -18 -202 -165 -202v84c65 0 74 38 74 112v126c0 34 3 78 47 94z" />
    <glyph glyph-name="asciitilde" unicode="~" horiz-adv-x="633" 
d="M119 299l-59 53c35 50 90 102 157 102c24 0 53 -6 74 -18l54 -30c14 -8 36 -21 67 -21c48 0 76 40 101 74l60 -52c-50 -64 -91 -110 -161 -110c-35 0 -60 9 -79 20l-46 26c-26 15 -52 22 -69 22c-45 0 -73 -35 -99 -66z" />
    <glyph glyph-name="uni00A0" unicode="&#xa0;" horiz-adv-x="233" 
 />
    <glyph glyph-name="exclamdown" unicode="&#xa1;" horiz-adv-x="258" 
d="M68 700h122v-124h-122v124zM189 505l9 -505h-138l9 505h120z" />
    <glyph glyph-name="cent" unicode="&#xa2;" horiz-adv-x="435" 
d="M399 440h-101v-350h113v-90h-113v-68h-74v69c-153 13 -194 115 -194 265s41 250 194 263v69h74v-68h101v-90zM151 266c0 -80 7 -145 73 -168v333c-66 -22 -73 -85 -73 -165z" />
    <glyph glyph-name="sterling" unicode="&#xa3;" horiz-adv-x="527" 
d="M527 0h-345c-60 0 -101 25 -101 105v276h-61v88h61c0 190 77 231 187 231h149v-105h-95c-94 0 -109 -32 -109 -126h206v-88h-206v-226c0 -40 9 -50 49 -50h265v-105z" />
    <glyph glyph-name="currency" unicode="&#xa4;" horiz-adv-x="602" 
d="M60 163l64 64c-12 19 -30 53 -30 105c0 49 15 82 30 105l-63 62l71 71l62 -63c28 19 59 30 106 30c51 0 81 -14 104 -30l65 65l73 -71l-66 -65c8 -15 29 -53 29 -104c0 -29 -7 -67 -30 -104l64 -64l-71 -70l-64 63c-35 -23 -69 -30 -104 -30c-28 0 -66 6 -105 29l-64 -65
zM194 332c0 -60 46 -106 106 -106s106 46 106 106s-46 106 -106 106s-106 -46 -106 -106z" />
    <glyph glyph-name="yen" unicode="&#xa5;" horiz-adv-x="504" 
d="M458 268h-124l-16 -34v-41h140v-89h-140v-104h-132v104h-140v89h140v41l-16 34h-124v89h84l-150 343h142l130 -343l130 343h142l-150 -343h84v-89z" />
    <glyph glyph-name="brokenbar" unicode="&#xa6;" horiz-adv-x="190" 
d="M50 -63v300h90v-300h-90zM50 440v300h90v-300h-90z" />
    <glyph glyph-name="section" unicode="&#xa7;" horiz-adv-x="525" 
d="M111 -173v102h170c20 0 55 0 55 34c0 16 -16 32 -36 49l-184 157c-45 39 -56 82 -56 117c0 80 56 138 133 138l-70 60c-23 19 -46 47 -46 100c0 80 59 116 129 116h208v-102h-180c-19 0 -46 0 -46 -29c0 -15 15 -32 30 -44l185 -157c29 -25 62 -61 62 -128
c0 -80 -61 -127 -140 -127l63 -54c24 -21 59 -58 59 -114c0 -80 -71 -118 -141 -118h-195zM237 189c44 0 117 0 117 68c0 16 -4 36 -21 49l-51 40c-45 0 -111 0 -111 -68c0 -15 5 -38 24 -54z" />
    <glyph glyph-name="dieresis" unicode="&#xa8;" horiz-adv-x="444" 
d="M276 597v108h108v-108h-108zM168 597h-108v108h108v-108z" />
    <glyph glyph-name="copyright" unicode="&#xa9;" horiz-adv-x="783" 
d="M392 708c250 0 331 -85 331 -357c0 -268 -81 -359 -331 -359s-332 91 -332 361s82 355 332 355zM154 353c0 -190 26 -278 238 -278c209 0 237 88 237 276c0 192 -32 274 -237 274c-207 0 -238 -82 -238 -272zM501 162h-115c-120 0 -143 82 -143 191c0 113 23 191 143 191
h102v-80h-66c-70 0 -77 -41 -77 -111s7 -111 77 -111h79v-80z" />
    <glyph glyph-name="ordfeminine" unicode="&#xaa;" horiz-adv-x="325" 
d="M73 700h96c64 0 96 -32 96 -96v-157c0 -30 -20 -50 -50 -50h-85c-60 0 -80 46 -80 96s20 95 80 95h69v16c0 30 -11 40 -41 40h-85v56zM199 532h-50c-23 0 -31 -13 -31 -39s8 -39 31 -39h28c20 0 22 2 22 22v56zM55 275v62h206v-62h-206z" />
    <glyph glyph-name="guillemotleft" unicode="&#xab;" horiz-adv-x="537" 
d="M298 473l-113 -162c-4 -7 -12 -17 -12 -30c0 -11 5 -22 12 -30l113 -162l-80 -59l-137 190c-9 13 -21 32 -21 61s12 48 21 61l137 191zM477 413l-83 -108c-8 -10 -12 -18 -12 -24c0 -9 8 -17 12 -24l83 -120l-80 -59l-110 152c-8 11 -21 31 -21 51c0 17 10 36 21 51
l110 141z" />
    <glyph glyph-name="logicalnot" unicode="&#xac;" horiz-adv-x="434" 
d="M374 359v-227h-90v142h-224v85h314z" />
    <glyph glyph-name="uni00AD" unicode="&#xad;" horiz-adv-x="380" 
d="M40 218v103h300v-103h-300z" />
    <glyph glyph-name="registered" unicode="&#xae;" horiz-adv-x="529" 
d="M269 265c-153 0 -209 64 -209 226c0 154 38 225 216 225c152 0 193 -53 193 -225c0 -162 -28 -226 -200 -226zM268 319c115 0 141 45 141 172c0 113 -8 171 -141 171c-116 0 -148 -42 -148 -171c0 -108 17 -172 148 -172zM236 380h-61v199c0 26 13 37 45 37h76
c48 0 65 -26 65 -83c0 -62 -26 -72 -40 -72h-11l55 -81h-69l-36 59c-7 10 -7 18 -7 35c0 9 0 26 20 26h6c18 0 19 13 19 33s-1 33 -29 33h-13c-14 0 -20 -2 -20 -20v-166z" />
    <glyph glyph-name="macron" unicode="&#xaf;" horiz-adv-x="420" 
d="M380 600h-340v84h340v-84z" />
    <glyph glyph-name="degree" unicode="&#xb0;" horiz-adv-x="340" 
d="M60 663c0 59 49 110 110 110c59 0 110 -51 110 -110c0 -61 -51 -110 -110 -110c-61 0 -110 49 -110 110zM110 663c0 -33 27 -60 60 -60s60 27 60 60s-27 60 -60 60s-60 -27 -60 -60z" />
    <glyph glyph-name="plusminus" unicode="&#xb1;" horiz-adv-x="500" 
d="M296 198h-91v184h-145v85h145v184h91v-184h144v-85h-144v-184zM440 67h-380v85h380v-85z" />
    <glyph glyph-name="twosuperior" unicode="&#xb2;" horiz-adv-x="352" 
d="M83 297c-41 0 -43 24 -43 43c0 25 5 46 27 68l124 126c19 19 26 28 26 53c0 30 -9 32 -49 32h-112v81h154c69 0 102 -18 102 -98c0 -60 -19 -86 -50 -122l-90 -92c-2 -2 -5 -5 -5 -8s1 -3 4 -3h126v-80h-214z" />
    <glyph glyph-name="threesuperior" unicode="&#xb3;" horiz-adv-x="334" 
d="M40 297v81h105c40 0 56 12 56 42s-16 42 -56 42h-96v79h92c30 0 53 10 53 40s-23 39 -53 39h-95v80h144c65 0 100 -36 100 -106c0 -50 -15 -83 -67 -90v-4c52 -4 71 -31 71 -91c0 -70 -22 -112 -100 -112h-154z" />
    <glyph glyph-name="acute" unicode="&#xb4;" horiz-adv-x="301" 
d="M201 767l60 -75l-162 -132l-59 74z" />
    <glyph glyph-name="mu" unicode="&#xb5;" horiz-adv-x="520" 
d="M46 -178v708h117v-327c0 -58 34 -120 95 -120c50 0 99 58 99 117v330h117v-530h-113v72c-29 -62 -55 -78 -104 -78c-41 0 -72 17 -99 71v-243h-112z" />
    <glyph glyph-name="paragraph" unicode="&#xb6;" horiz-adv-x="627" 
d="M547 -170h-107v767h-57v-767h-108v459h-14c-140 0 -201 66 -201 206s61 205 201 205h346v-103h-60v-767zM275 392v205h-14c-60 0 -90 -22 -90 -102s30 -103 90 -103h14z" />
    <glyph glyph-name="periodcentered" unicode="&#xb7;" horiz-adv-x="242" 
d="M182 250h-122v129h122v-129z" />
    <glyph glyph-name="cedilla" unicode="&#xb8;" horiz-adv-x="258" 
d="M40 -190v56h78c12 0 28 1 28 17s-15 16 -26 16h-37c-20 0 -33 4 -33 24c0 9 4 17 7 24l26 53h60l-16 -32c-1 -3 -3 -7 -3 -8c0 -5 5 -5 8 -5h13c41 0 73 -20 73 -70s-28 -75 -82 -75h-96z" />
    <glyph glyph-name="onesuperior" unicode="&#xb9;" horiz-adv-x="216" 
d="M66 296v293c0 14 0 30 -20 30h-26v81h86c30 0 50 -20 50 -50v-354h-90z" />
    <glyph glyph-name="ordmasculine" unicode="&#xba;" horiz-adv-x="380" 
d="M190 715c105 0 130 -50 130 -160s-25 -159 -130 -159s-130 49 -130 159s25 160 130 160zM125 555c0 -70 5 -99 65 -99s65 29 65 99s-5 100 -65 100s-65 -30 -65 -100zM64 283v62h252v-62h-252z" />
    <glyph glyph-name="guillemotright" unicode="&#xbb;" horiz-adv-x="537" 
d="M239 473l80 60l137 -191c9 -13 21 -32 21 -61s-12 -48 -21 -61l-137 -190l-80 59l113 162c7 8 12 19 12 30c0 13 -8 23 -12 30zM60 413l80 60l110 -141c11 -15 21 -34 21 -51c0 -20 -13 -40 -21 -51l-110 -152l-80 59l83 120c4 7 12 15 12 24c0 6 -4 14 -12 24z" />
    <glyph glyph-name="onequarter" unicode="&#xbc;" horiz-adv-x="703" 
d="M111 0l317 700h88l-317 -700h-88zM506 0v62h-141c-36 0 -50 24 -50 51c0 29 9 43 21 62l116 190c14 23 31 44 74 44c33 0 65 -4 65 -44v-234h52v-69h-52v-62h-85zM506 131v177c0 2 -1 6 -4 6c-4 0 -7 -4 -9 -8l-86 -148c-5 -9 -8 -15 -8 -21s5 -6 12 -6h95zM106 296v293
c0 14 0 30 -20 30h-26v81h86c30 0 50 -20 50 -50v-354h-90z" />
    <glyph glyph-name="onehalf" unicode="&#xbd;" horiz-adv-x="743" 
d="M115 0l317 700h88l-317 -700h-88zM106 296v293c0 14 0 30 -20 30h-26v81h86c30 0 50 -20 50 -50v-354h-90zM454 0c-41 0 -43 24 -43 43c0 25 5 46 27 68l124 126c19 19 26 28 26 53c0 30 -9 32 -49 32h-112v81h154c69 0 102 -18 102 -98c0 -60 -19 -86 -50 -122l-90 -92
c-2 -2 -5 -5 -5 -8s1 -3 4 -3h126v-80h-214z" />
    <glyph glyph-name="threequarters" unicode="&#xbe;" horiz-adv-x="803" 
d="M206 0l317 700h88l-317 -700h-88zM60 297v81h105c40 0 56 12 56 42s-16 42 -56 42h-96v79h92c30 0 53 10 53 40s-23 39 -53 39h-95v80h144c65 0 100 -36 100 -106c0 -50 -15 -83 -67 -90v-4c52 -4 71 -31 71 -91c0 -70 -22 -112 -100 -112h-154zM606 0v62h-141
c-36 0 -50 24 -50 51c0 29 9 43 21 62l116 190c14 23 31 44 74 44c33 0 65 -4 65 -44v-234h52v-69h-52v-62h-85zM606 131v177c0 2 -1 6 -4 6c-4 0 -7 -4 -9 -8l-86 -148c-5 -9 -8 -15 -8 -21s5 -6 12 -6h95z" />
    <glyph glyph-name="questiondown" unicode="&#xbf;" horiz-adv-x="424" 
d="M309 700v-124h-122v124h122zM187 505h122v-58c0 -53 -25 -85 -56 -119l-35 -39c-21 -23 -46 -56 -46 -106c0 -62 23 -78 79 -78h153v-105h-203c-110 0 -161 35 -161 162c0 60 26 112 76 175l37 47c12 15 34 34 34 76v45z" />
    <glyph glyph-name="Agrave" unicode="&#xc0;" horiz-adv-x="626" 
d="M-6 0l194 619c22 70 62 89 125 89c60 0 103 -19 125 -89l194 -619h-139l-52 177h-257l-51 -177h-139zM293 556l-85 -285h209l-84 285c-6 20 -11 29 -20 29s-14 -9 -20 -29zM252 947l167 -133l-65 -74l-168 132z" />
    <glyph glyph-name="Aacute" unicode="&#xc1;" horiz-adv-x="626" 
d="M-6 0l194 619c22 70 62 89 125 89c60 0 103 -19 125 -89l194 -619h-139l-52 177h-257l-51 -177h-139zM293 556l-85 -285h209l-84 285c-6 20 -11 29 -20 29s-14 -9 -20 -29zM373 947l66 -75l-168 -132l-65 74z" />
    <glyph glyph-name="Acircumflex" unicode="&#xc2;" horiz-adv-x="626" 
d="M-6 0l194 619c22 70 62 89 125 89c60 0 103 -19 125 -89l194 -619h-139l-52 177h-257l-51 -177h-139zM293 556l-85 -285h209l-84 285c-6 20 -11 29 -20 29s-14 -9 -20 -29zM455 740l-117 87c-9 6 -17 12 -25 12c-7 0 -16 -5 -26 -12l-117 -87l-56 70l152 107
c17 12 27 16 46 16s29 -4 46 -16l153 -107z" />
    <glyph glyph-name="Atilde" unicode="&#xc3;" horiz-adv-x="626" 
d="M-6 0l194 619c22 70 62 89 125 89c60 0 103 -19 125 -89l194 -619h-139l-52 177h-257l-51 -177h-139zM293 556l-85 -285h209l-84 285c-6 20 -11 29 -20 29s-14 -9 -20 -29zM167 745l-61 56c34 46 86 83 136 83c15 0 29 -2 51 -16l36 -22c16 -9 36 -19 54 -19
c24 0 50 24 75 54l61 -53c-34 -46 -86 -89 -136 -89c-16 0 -38 4 -56 15l-32 20c-18 11 -32 19 -53 19s-51 -22 -75 -48z" />
    <glyph glyph-name="Adieresis" unicode="&#xc4;" horiz-adv-x="626" 
d="M-6 0l194 619c22 70 62 89 125 89c60 0 103 -19 125 -89l194 -619h-139l-52 177h-257l-51 -177h-139zM293 556l-85 -285h209l-84 285c-6 20 -11 29 -20 29s-14 -9 -20 -29zM484 760h-120v110h120v-110zM262 760h-120v110h120v-110z" />
    <glyph glyph-name="Aring" unicode="&#xc5;" horiz-adv-x="626" 
d="M-6 0l194 619c22 70 62 89 125 89c60 0 103 -19 125 -89l194 -619h-139l-52 177h-257l-51 -177h-139zM293 556l-85 -285h209l-84 285c-6 20 -11 29 -20 29s-14 -9 -20 -29zM313 959c80 0 115 -38 115 -114s-35 -114 -115 -114s-116 38 -116 114s36 114 116 114zM257 845
c0 -36 16 -59 56 -59s55 23 55 59s-15 59 -55 59s-56 -23 -56 -59z" />
    <glyph glyph-name="AE" unicode="&#xc6;" horiz-adv-x="834" 
d="M804 105v-105h-339c-60 0 -102 25 -102 105v71h-170l-65 -176h-148l261 636c24 59 83 64 123 64h436v-105h-255c-40 0 -50 -10 -50 -50v-135h295v-105h-295v-150c0 -40 10 -50 50 -50h259zM335 566l-109 -291h137v320c-13 -3 -20 -7 -28 -29z" />
    <glyph glyph-name="Ccedilla" unicode="&#xc7;" horiz-adv-x="539" 
d="M236 -190v56h78c12 0 28 1 28 17s-15 16 -26 16h-37c-20 0 -33 4 -33 24c0 9 4 17 7 24l27 55c-200 19 -240 162 -240 348c0 200 47 350 287 350h171v-105h-109c-170 0 -213 -55 -213 -245s43 -245 213 -245h120v-105h-170l-16 -32c-1 -3 -3 -7 -3 -8c0 -5 5 -5 8 -5h13
c41 0 73 -20 73 -70s-28 -75 -82 -75h-96z" />
    <glyph glyph-name="Egrave" unicode="&#xc8;" horiz-adv-x="531" 
d="M501 105v-105h-339c-60 0 -102 25 -102 105v490c0 80 42 105 102 105h335v-105h-255c-40 0 -50 -10 -50 -50v-135h295v-105h-295v-150c0 -40 10 -50 50 -50h259zM215 947l167 -133l-65 -74l-168 132z" />
    <glyph glyph-name="Eacute" unicode="&#xc9;" horiz-adv-x="531" 
d="M501 105v-105h-339c-60 0 -102 25 -102 105v490c0 80 42 105 102 105h335v-105h-255c-40 0 -50 -10 -50 -50v-135h295v-105h-295v-150c0 -40 10 -50 50 -50h259zM336 947l66 -75l-168 -132l-65 74z" />
    <glyph glyph-name="Ecircumflex" unicode="&#xca;" horiz-adv-x="531" 
d="M501 105v-105h-339c-60 0 -102 25 -102 105v490c0 80 42 105 102 105h335v-105h-255c-40 0 -50 -10 -50 -50v-135h295v-105h-295v-150c0 -40 10 -50 50 -50h259zM424 740l-117 87c-9 6 -17 12 -25 12c-7 0 -16 -5 -26 -12l-117 -87l-56 70l152 107c17 12 27 16 46 16
s29 -4 46 -16l153 -107z" />
    <glyph glyph-name="Edieresis" unicode="&#xcb;" horiz-adv-x="531" 
d="M501 105v-105h-339c-60 0 -102 25 -102 105v490c0 80 42 105 102 105h335v-105h-255c-40 0 -50 -10 -50 -50v-135h295v-105h-295v-150c0 -40 10 -50 50 -50h259zM452 760h-120v110h120v-110zM230 760h-120v110h120v-110z" />
    <glyph glyph-name="Igrave" unicode="&#xcc;" horiz-adv-x="252" 
d="M192 0h-132v700h132v-700zM75 947l167 -133l-65 -74l-168 132z" />
    <glyph glyph-name="Iacute" unicode="&#xcd;" horiz-adv-x="252" 
d="M192 0h-132v700h132v-700zM176 947l66 -75l-168 -132l-65 74z" />
    <glyph glyph-name="Icircumflex" unicode="&#xce;" horiz-adv-x="252" 
d="M192 0h-132v700h132v-700zM268 740l-117 87c-9 6 -17 12 -25 12c-7 0 -16 -5 -26 -12l-117 -87l-56 70l152 107c17 12 27 16 46 16s29 -4 46 -16l153 -107z" />
    <glyph glyph-name="Idieresis" unicode="&#xcf;" horiz-adv-x="264" 
d="M198 0h-132v700h132v-700zM294 760h-116v110h116v-110zM86 760h-116v110h116v-110z" />
    <glyph glyph-name="Eth" unicode="&#xd0;" horiz-adv-x="659" 
d="M0 301v93h70v201c0 80 42 105 102 105h181c238 0 266 -180 266 -350s-28 -350 -248 -350h-199c-60 0 -102 25 -102 105v196h-70zM307 595h-55c-40 0 -50 -10 -50 -50v-151h126v-93h-126v-146c0 -40 10 -50 50 -50h55c160 0 176 105 176 245s-16 245 -176 245z" />
    <glyph glyph-name="Ntilde" unicode="&#xd1;" horiz-adv-x="670" 
d="M610 700v-609c0 -81 -57 -99 -114 -99c-53 0 -121 7 -143 79l-135 446c-5 15 -13 17 -16 17c-5 0 -14 -5 -14 -20v-514h-128v613c0 70 50 95 117 95c63 0 122 -14 141 -75l137 -449c3 -10 7 -17 16 -17c11 0 11 12 11 17v516h128zM189 745l-61 56c34 46 86 83 136 83
c15 0 29 -2 51 -16l36 -22c16 -9 36 -19 54 -19c24 0 50 24 75 54l61 -53c-34 -46 -86 -89 -136 -89c-16 0 -38 4 -56 15l-32 20c-18 11 -32 19 -53 19s-51 -22 -75 -48z" />
    <glyph glyph-name="Ograve" unicode="&#xd2;" horiz-adv-x="680" 
d="M340 708c241 0 300 -85 300 -358s-59 -358 -300 -358c-239 0 -300 85 -300 358s61 358 300 358zM176 350c0 -190 22 -253 164 -253s164 63 164 253s-22 253 -164 253s-164 -63 -164 -253zM279 947l167 -133l-65 -74l-168 132z" />
    <glyph glyph-name="Oacute" unicode="&#xd3;" horiz-adv-x="680" 
d="M340 708c241 0 300 -85 300 -358s-59 -358 -300 -358c-239 0 -300 85 -300 358s61 358 300 358zM176 350c0 -190 22 -253 164 -253s164 63 164 253s-22 253 -164 253s-164 -63 -164 -253zM400 947l66 -75l-168 -132l-65 74z" />
    <glyph glyph-name="Ocircumflex" unicode="&#xd4;" horiz-adv-x="680" 
d="M340 708c241 0 300 -85 300 -358s-59 -358 -300 -358c-239 0 -300 85 -300 358s61 358 300 358zM176 350c0 -190 22 -253 164 -253s164 63 164 253s-22 253 -164 253s-164 -63 -164 -253zM482 740l-117 87c-9 6 -17 12 -25 12c-7 0 -16 -5 -26 -12l-117 -87l-56 70
l152 107c17 12 27 16 46 16s29 -4 46 -16l153 -107z" />
    <glyph glyph-name="Otilde" unicode="&#xd5;" horiz-adv-x="680" 
d="M340 708c241 0 300 -85 300 -358s-59 -358 -300 -358c-239 0 -300 85 -300 358s61 358 300 358zM176 350c0 -190 22 -253 164 -253s164 63 164 253s-22 253 -164 253s-164 -63 -164 -253zM194 745l-61 56c34 46 86 83 136 83c15 0 29 -2 51 -16l36 -22
c16 -9 36 -19 54 -19c24 0 50 24 75 54l61 -53c-34 -46 -86 -89 -136 -89c-16 0 -38 4 -56 15l-32 20c-18 11 -32 19 -53 19s-51 -22 -75 -48z" />
    <glyph glyph-name="Odieresis" unicode="&#xd6;" horiz-adv-x="680" 
d="M340 708c241 0 300 -85 300 -358s-59 -358 -300 -358c-239 0 -300 85 -300 358s61 358 300 358zM176 350c0 -190 22 -253 164 -253s164 63 164 253s-22 253 -164 253s-164 -63 -164 -253zM511 760h-120v110h120v-110zM289 760h-120v110h120v-110z" />
    <glyph glyph-name="multiply" unicode="&#xd7;" horiz-adv-x="578" 
d="M492 193l-64 -64l-139 138l-140 -140l-64 65l140 140l-139 138l64 64l139 -138l140 140l65 -65l-141 -139z" />
    <glyph glyph-name="Oslash" unicode="&#xd8;" horiz-adv-x="682" 
d="M340 708c105 0 174 -13 220 -49l47 57l43 -35l-53 -64c33 -56 43 -141 43 -267c0 -283 -49 -358 -300 -358c-105 0 -174 13 -220 49l-45 -55l-43 36l51 62c-33 55 -43 140 -43 266c0 283 51 358 300 358zM504 350c0 62 -1 109 -7 146l-293 -353c23 -34 64 -46 136 -46
c152 0 164 53 164 253zM176 350c0 -62 1 -110 7 -146l292 353c-22 34 -63 46 -135 46c-152 0 -164 -53 -164 -253z" />
    <glyph glyph-name="Ugrave" unicode="&#xd9;" horiz-adv-x="628" 
d="M314 97c100 0 122 47 122 157v446h132v-446c0 -200 -74 -262 -254 -262s-254 62 -254 262v446h132v-446c0 -110 22 -157 122 -157zM263 947l167 -133l-65 -74l-168 132z" />
    <glyph glyph-name="Uacute" unicode="&#xda;" horiz-adv-x="628" 
d="M314 97c100 0 122 47 122 157v446h132v-446c0 -200 -74 -262 -254 -262s-254 62 -254 262v446h132v-446c0 -110 22 -157 122 -157zM374 947l66 -75l-168 -132l-65 74z" />
    <glyph glyph-name="Ucircumflex" unicode="&#xdb;" horiz-adv-x="628" 
d="M314 97c100 0 122 47 122 157v446h132v-446c0 -200 -74 -262 -254 -262s-254 62 -254 262v446h132v-446c0 -110 22 -157 122 -157zM456 740l-117 87c-9 6 -17 12 -25 12c-7 0 -16 -5 -26 -12l-117 -87l-56 70l152 107c17 12 27 16 46 16s29 -4 46 -16l153 -107z" />
    <glyph glyph-name="Udieresis" unicode="&#xdc;" horiz-adv-x="628" 
d="M314 97c100 0 122 47 122 157v446h132v-446c0 -200 -74 -262 -254 -262s-254 62 -254 262v446h132v-446c0 -110 22 -157 122 -157zM485 760h-120v110h120v-110zM263 760h-120v110h120v-110z" />
    <glyph glyph-name="Yacute" unicode="&#xdd;" horiz-adv-x="576" 
d="M288 343l160 357h142l-236 -486v-214h-132v214l-236 486h142zM358 947l66 -75l-168 -132l-65 74z" />
    <glyph glyph-name="Thorn" unicode="&#xde;" horiz-adv-x="608" 
d="M60 0v700h132v-115h208c140 0 168 -85 168 -215s-28 -216 -168 -216h-208v-154h-132zM192 259h140c90 0 100 41 100 111s-10 110 -100 110h-140v-221z" />
    <glyph glyph-name="germandbls" unicode="&#xdf;" horiz-adv-x="519" 
d="M46 0v439c0 160 27 267 217 267c120 0 192 -45 192 -175c0 -70 -21 -130 -94 -141v-4c99 -8 128 -83 128 -183c0 -130 -40 -203 -180 -203h-72v89h23c80 0 108 36 108 126s-28 124 -108 124h-20v86h14c55 0 81 38 81 98s-26 97 -82 97c-90 0 -90 -59 -90 -159v-461h-117z
" />
    <glyph glyph-name="agrave" unicode="&#xe0;" horiz-adv-x="485" 
d="M69 530h221c100 0 149 -66 149 -156v-284c0 -60 -30 -90 -90 -90h-187c-90 0 -132 55 -132 165c0 100 42 165 132 165h160v34c0 50 -24 76 -74 76h-179v90zM322 240h-115c-40 0 -56 -25 -56 -75s16 -75 56 -75h85c20 0 30 10 30 30v120zM182 767l161 -133l-59 -74
l-162 132z" />
    <glyph glyph-name="aacute" unicode="&#xe1;" horiz-adv-x="485" 
d="M69 530h221c100 0 149 -66 149 -156v-284c0 -60 -30 -90 -90 -90h-187c-90 0 -132 55 -132 165c0 100 42 165 132 165h160v34c0 50 -24 76 -74 76h-179v90zM322 240h-115c-40 0 -56 -25 -56 -75s16 -75 56 -75h85c20 0 30 10 30 30v120zM303 767l60 -75l-162 -132l-59 74
z" />
    <glyph glyph-name="acircumflex" unicode="&#xe2;" horiz-adv-x="485" 
d="M69 530h221c100 0 149 -66 149 -156v-284c0 -60 -30 -90 -90 -90h-187c-90 0 -132 55 -132 165c0 100 42 165 132 165h160v34c0 50 -24 76 -74 76h-179v90zM322 240h-115c-40 0 -56 -25 -56 -75s16 -75 56 -75h85c20 0 30 10 30 30v120zM385 560l-117 97
c-8 6 -13 10 -25 10c-11 0 -17 -3 -26 -10l-117 -97l-46 62l140 113c14 12 29 18 48 18s33 -6 48 -18l141 -113z" />
    <glyph glyph-name="atilde" unicode="&#xe3;" horiz-adv-x="485" 
d="M69 530h221c100 0 149 -66 149 -156v-284c0 -60 -30 -90 -90 -90h-187c-90 0 -132 55 -132 165c0 100 42 165 132 165h160v34c0 50 -24 76 -74 76h-179v90zM322 240h-115c-40 0 -56 -25 -56 -75s16 -75 56 -75h85c20 0 30 10 30 30v120zM103 582l-61 46
c26 46 76 83 126 83c60 0 98 -57 141 -57c28 0 46 24 65 54l61 -43c-26 -46 -76 -89 -126 -89c-66 0 -99 54 -141 54c-25 0 -47 -22 -65 -48z" />
    <glyph glyph-name="adieresis" unicode="&#xe4;" horiz-adv-x="485" 
d="M69 530h221c100 0 149 -66 149 -156v-284c0 -60 -30 -90 -90 -90h-187c-90 0 -132 55 -132 165c0 100 42 165 132 165h160v34c0 50 -24 76 -74 76h-179v90zM322 240h-115c-40 0 -56 -25 -56 -75s16 -75 56 -75h85c20 0 30 10 30 30v120zM296 597v108h108v-108h-108z
M188 597h-108v108h108v-108z" />
    <glyph glyph-name="aring" unicode="&#xe5;" horiz-adv-x="485" 
d="M69 530h221c100 0 149 -66 149 -156v-284c0 -60 -30 -90 -90 -90h-187c-90 0 -132 55 -132 165c0 100 42 165 132 165h160v34c0 50 -24 76 -74 76h-179v90zM322 240h-115c-40 0 -56 -25 -56 -75s16 -75 56 -75h85c20 0 30 10 30 30v120zM243 788c80 0 115 -38 115 -114
s-35 -114 -115 -114s-116 38 -116 114s36 114 116 114zM187 674c0 -36 16 -59 56 -59s55 23 55 59s-15 59 -55 59s-56 -23 -56 -59z" />
    <glyph glyph-name="ae" unicode="&#xe6;" horiz-adv-x="779" 
d="M732 0h-214c-47 0 -83 12 -110 34c-13 -21 -37 -34 -69 -34h-177c-90 0 -132 55 -132 165c0 100 42 165 132 165h160v34c0 50 -24 76 -74 76h-179v90h211c41 0 75 -13 101 -45c32 40 80 51 153 51c140 0 215 -40 215 -210c0 -60 -22 -100 -82 -100h-228v-12
c2 -74 28 -124 114 -124h179v-90zM322 240h-115c-40 0 -56 -25 -56 -75s16 -75 56 -75h85c20 0 30 10 30 30v120zM439 316h163c23 0 26 16 26 31c0 70 -34 99 -94 99c-80 0 -95 -40 -95 -130z" />
    <glyph glyph-name="ccedilla" unicode="&#xe7;" horiz-adv-x="435" 
d="M182 -190v56h78c12 0 28 1 28 17s-15 16 -26 16h-37c-20 0 -33 4 -33 24c0 9 4 17 7 24l27 54c-155 12 -196 114 -196 265c0 160 47 264 227 264h142v-90h-113c-123 0 -135 -74 -135 -174s12 -176 135 -176h125v-90h-125l-17 -32c-1 -3 -3 -7 -3 -8c0 -5 5 -5 8 -5h13
c41 0 73 -20 73 -70s-28 -75 -82 -75h-96z" />
    <glyph glyph-name="egrave" unicode="&#xe8;" horiz-adv-x="491" 
d="M444 0h-214c-160 0 -200 96 -200 266c0 210 46 270 216 270c140 0 215 -40 215 -210c0 -60 -22 -100 -82 -100h-228c0 -80 24 -136 114 -136h179v-90zM151 316h163c23 0 26 16 26 31c0 70 -34 99 -94 99c-80 0 -95 -40 -95 -130zM195 767l161 -133l-59 -74l-162 132z" />
    <glyph glyph-name="eacute" unicode="&#xe9;" horiz-adv-x="491" 
d="M444 0h-214c-160 0 -200 96 -200 266c0 210 46 270 216 270c140 0 215 -40 215 -210c0 -60 -22 -100 -82 -100h-228c0 -80 24 -136 114 -136h179v-90zM151 316h163c23 0 26 16 26 31c0 70 -34 99 -94 99c-80 0 -95 -40 -95 -130zM296 767l60 -75l-162 -132l-59 74z" />
    <glyph glyph-name="ecircumflex" unicode="&#xea;" horiz-adv-x="491" 
d="M444 0h-214c-160 0 -200 96 -200 266c0 210 46 270 216 270c140 0 215 -40 215 -210c0 -60 -22 -100 -82 -100h-228c0 -80 24 -136 114 -136h179v-90zM151 316h163c23 0 26 16 26 31c0 70 -34 99 -94 99c-80 0 -95 -40 -95 -130zM388 560l-117 97c-8 6 -13 10 -25 10
c-11 0 -17 -3 -26 -10l-117 -97l-46 62l140 113c14 12 29 18 48 18s33 -6 48 -18l141 -113z" />
    <glyph glyph-name="edieresis" unicode="&#xeb;" horiz-adv-x="491" 
d="M444 0h-214c-160 0 -200 96 -200 266c0 210 46 270 216 270c140 0 215 -40 215 -210c0 -60 -22 -100 -82 -100h-228c0 -80 24 -136 114 -136h179v-90zM151 316h163c23 0 26 16 26 31c0 70 -34 99 -94 99c-80 0 -95 -40 -95 -130zM299 597v108h108v-108h-108zM191 597
h-108v108h108v-108z" />
    <glyph glyph-name="igrave" unicode="&#xec;" horiz-adv-x="197" 
d="M40 0v530h117v-530h-117zM48 767l161 -133l-59 -74l-162 132z" />
    <glyph glyph-name="iacute" unicode="&#xed;" horiz-adv-x="197" 
d="M40 0v530h117v-530h-117zM149 767l60 -75l-162 -132l-59 74z" />
    <glyph glyph-name="icircumflex" unicode="&#xee;" horiz-adv-x="197" 
d="M40 0v530h117v-530h-117zM241 560l-117 97c-8 6 -13 10 -25 10c-11 0 -17 -3 -26 -10l-117 -97l-46 62l140 113c14 12 29 18 48 18s33 -6 48 -18l141 -113z" />
    <glyph glyph-name="idieresis" unicode="&#xef;" horiz-adv-x="213" 
d="M48 0v530h117v-530h-117zM133 600v108h94v-108h-94zM80 600h-94v108h94v-108z" />
    <glyph glyph-name="eth" unicode="&#xf0;" horiz-adv-x="508" 
d="M422 730l32 -52l-57 -29c45 -51 65 -117 65 -190v-369c0 -60 -30 -90 -90 -90h-125c-170 0 -217 106 -217 266s47 264 217 264h98c-1 41 -16 67 -27 79l-82 -42l-30 53l67 34c-29 19 -64 23 -76 24l12 63c49 -4 95 -20 139 -49zM345 440h-69c-113 0 -125 -74 -125 -174
s12 -176 125 -176h39c20 0 30 10 30 30v320z" />
    <glyph glyph-name="ntilde" unicode="&#xf1;" horiz-adv-x="504" 
d="M46 0v440c0 60 30 90 90 90h116c120 0 206 -41 206 -181v-349h-117v318c0 80 -31 122 -111 122h-37c-20 0 -30 -10 -30 -30v-410h-117zM116 582l-61 46c26 46 76 83 126 83c60 0 98 -57 141 -57c28 0 46 24 65 54l61 -43c-26 -46 -76 -89 -126 -89c-66 0 -99 54 -141 54
c-25 0 -47 -22 -65 -48z" />
    <glyph glyph-name="ograve" unicode="&#xf2;" horiz-adv-x="544" 
d="M272 536c180 0 242 -60 242 -270c0 -212 -62 -272 -242 -272s-242 60 -242 272c0 210 62 270 242 270zM151 266c0 -130 21 -182 121 -182s121 52 121 182s-21 180 -121 180s-121 -50 -121 -180zM221 767l161 -133l-59 -74l-162 132z" />
    <glyph glyph-name="oacute" unicode="&#xf3;" horiz-adv-x="544" 
d="M272 536c180 0 242 -60 242 -270c0 -212 -62 -272 -242 -272s-242 60 -242 272c0 210 62 270 242 270zM151 266c0 -130 21 -182 121 -182s121 52 121 182s-21 180 -121 180s-121 -50 -121 -180zM322 767l60 -75l-162 -132l-59 74z" />
    <glyph glyph-name="ocircumflex" unicode="&#xf4;" horiz-adv-x="544" 
d="M272 536c180 0 242 -60 242 -270c0 -212 -62 -272 -242 -272s-242 60 -242 272c0 210 62 270 242 270zM151 266c0 -130 21 -182 121 -182s121 52 121 182s-21 180 -121 180s-121 -50 -121 -180zM414 560l-117 97c-8 6 -13 10 -25 10c-11 0 -17 -3 -26 -10l-117 -97
l-46 62l140 113c14 12 29 18 48 18s33 -6 48 -18l141 -113z" />
    <glyph glyph-name="otilde" unicode="&#xf5;" horiz-adv-x="544" 
d="M272 536c180 0 242 -60 242 -270c0 -212 -62 -272 -242 -272s-242 60 -242 272c0 210 62 270 242 270zM151 266c0 -130 21 -182 121 -182s121 52 121 182s-21 180 -121 180s-121 -50 -121 -180zM136 582l-61 46c26 46 76 83 126 83c60 0 98 -57 141 -57c28 0 46 24 65 54
l61 -43c-26 -46 -76 -89 -126 -89c-66 0 -99 54 -141 54c-25 0 -47 -22 -65 -48z" />
    <glyph glyph-name="odieresis" unicode="&#xf6;" horiz-adv-x="544" 
d="M272 536c180 0 242 -60 242 -270c0 -212 -62 -272 -242 -272s-242 60 -242 272c0 210 62 270 242 270zM151 266c0 -130 21 -182 121 -182s121 52 121 182s-21 180 -121 180s-121 -50 -121 -180zM326 597v108h108v-108h-108zM218 597h-108v108h108v-108z" />
    <glyph glyph-name="divide" unicode="&#xf7;" horiz-adv-x="580" 
d="M520 274h-460v85h460v-85zM351 449h-122v126h122v-126zM351 58h-122v126h122v-126z" />
    <glyph glyph-name="oslash" unicode="&#xf8;" horiz-adv-x="540" 
d="M272 536c74 0 128 -11 166 -37l42 47l40 -34l-45 -52c27 -42 39 -104 39 -194c0 -212 -62 -272 -242 -272c-76 0 -131 10 -169 39l-42 -48l-41 37l46 52c-25 42 -36 104 -36 192c0 210 62 270 242 270zM393 266c0 37 -2 67 -7 92l-208 -239c18 -24 48 -35 94 -35
c100 0 121 52 121 182zM151 266c0 -35 1 -64 5 -88l208 236c-19 22 -48 32 -92 32c-100 0 -121 -50 -121 -180z" />
    <glyph glyph-name="ugrave" unicode="&#xf9;" horiz-adv-x="512" 
d="M466 530v-440c0 -60 -30 -90 -90 -90h-124c-120 0 -206 41 -206 181v349h117v-318c0 -80 31 -122 111 -122h45c20 0 30 10 30 30v410h117zM195 767l161 -133l-59 -74l-162 132z" />
    <glyph glyph-name="uacute" unicode="&#xfa;" horiz-adv-x="512" 
d="M466 530v-440c0 -60 -30 -90 -90 -90h-124c-120 0 -206 41 -206 181v349h117v-318c0 -80 31 -122 111 -122h45c20 0 30 10 30 30v410h117zM316 767l60 -75l-162 -132l-59 74z" />
    <glyph glyph-name="ucircumflex" unicode="&#xfb;" horiz-adv-x="512" 
d="M466 530v-440c0 -60 -30 -90 -90 -90h-124c-120 0 -206 41 -206 181v349h117v-318c0 -80 31 -122 111 -122h45c20 0 30 10 30 30v410h117zM398 560l-117 97c-8 6 -13 10 -25 10c-11 0 -17 -3 -26 -10l-117 -97l-46 62l140 113c14 12 29 18 48 18s33 -6 48 -18l141 -113z
" />
    <glyph glyph-name="udieresis" unicode="&#xfc;" horiz-adv-x="512" 
d="M466 530v-440c0 -60 -30 -90 -90 -90h-124c-120 0 -206 41 -206 181v349h117v-318c0 -80 31 -122 111 -122h45c20 0 30 10 30 30v410h117zM310 597v108h108v-108h-108zM202 597h-108v108h108v-108z" />
    <glyph glyph-name="yacute" unicode="&#xfd;" horiz-adv-x="490" 
d="M500 530l-246 -701h-119l63 171l-208 530h121l144 -387l126 387h119zM315 767l60 -75l-162 -132l-59 74z" />
    <glyph glyph-name="thorn" unicode="&#xfe;" horiz-adv-x="508" 
d="M46 -170v870h117v-170h108c170 0 207 -104 207 -264s-37 -266 -207 -266h-108v-170h-117zM163 440v-350h79c113 0 115 76 115 176s-2 174 -115 174h-79z" />
    <glyph glyph-name="ydieresis" unicode="&#xff;" horiz-adv-x="490" 
d="M500 530l-246 -701h-119l63 171l-208 530h121l144 -387l126 387h119zM299 597v108h108v-108h-108zM191 597h-108v108h108v-108z" />
    <glyph glyph-name="Amacron" unicode="&#x100;" horiz-adv-x="626" 
d="M-6 0l194 619c22 70 62 89 125 89c60 0 103 -19 125 -89l194 -619h-139l-52 177h-257l-51 -177h-139zM293 556l-85 -285h209l-84 285c-6 20 -11 29 -20 29s-14 -9 -20 -29zM483 760h-340v84h340v-84z" />
    <glyph glyph-name="amacron" unicode="&#x101;" horiz-adv-x="485" 
d="M69 530h221c100 0 149 -66 149 -156v-284c0 -60 -30 -90 -90 -90h-187c-90 0 -132 55 -132 165c0 100 42 165 132 165h160v34c0 50 -24 76 -74 76h-179v90zM322 240h-115c-40 0 -56 -25 -56 -75s16 -75 56 -75h85c20 0 30 10 30 30v120zM412 600h-340v84h340v-84z" />
    <glyph glyph-name="Abreve" unicode="&#x102;" horiz-adv-x="626" 
d="M-6 0l194 619c22 70 62 89 125 89c60 0 103 -19 125 -89l194 -619h-139l-52 177h-257l-51 -177h-139zM293 556l-85 -285h209l-84 285c-6 20 -11 29 -20 29s-14 -9 -20 -29zM312 811c50 0 80 22 95 67h90c-25 -98 -85 -140 -185 -140s-160 42 -184 140h90
c14 -45 44 -67 94 -67z" />
    <glyph glyph-name="abreve" unicode="&#x103;" horiz-adv-x="485" 
d="M69 530h221c100 0 149 -66 149 -156v-284c0 -60 -30 -90 -90 -90h-187c-90 0 -132 55 -132 165c0 100 42 165 132 165h160v34c0 50 -24 76 -74 76h-179v90zM322 240h-115c-40 0 -56 -25 -56 -75s16 -75 56 -75h85c20 0 30 10 30 30v120zM242 633c50 0 80 22 95 67h90
c-25 -98 -85 -140 -185 -140s-160 42 -184 140h90c14 -45 44 -67 94 -67z" />
    <glyph glyph-name="Aogonek" unicode="&#x104;" horiz-adv-x="606" 
d="M632 -180h-87c-30 0 -58 15 -58 55c0 13 3 25 10 37l47 88h-61l-52 177h-257l-51 -177h-139l194 619c22 70 62 89 125 89c60 0 103 -19 125 -89l195 -619l-48 -88c-7 -13 -8 -16 -8 -19c0 -13 16 -13 23 -13h42v-60zM283 556l-85 -285h209l-84 285c-6 20 -11 29 -20 29
s-14 -9 -20 -29z" />
    <glyph glyph-name="aogonek" unicode="&#x105;" horiz-adv-x="485" 
d="M361 -180h-87c-30 0 -58 15 -58 55c0 13 3 25 10 37l46 88h-110c-90 0 -132 55 -132 165c0 100 42 165 132 165h160v34c0 50 -24 76 -74 76h-179v90h221c100 0 149 -66 149 -156v-284c0 -59 -29 -89 -87 -90l-48 -88c-7 -13 -8 -16 -8 -19c0 -13 16 -13 23 -13h42v-60z
M322 240h-115c-40 0 -56 -25 -56 -75s16 -75 56 -75h85c20 0 30 10 30 30v120z" />
    <glyph glyph-name="Cacute" unicode="&#x106;" horiz-adv-x="539" 
d="M509 0h-192c-240 0 -277 150 -277 350s37 350 277 350h181v-105h-119c-170 0 -203 -55 -203 -245s33 -245 203 -245h130v-105zM340 947l66 -75l-168 -132l-65 74z" />
    <glyph glyph-name="cacute" unicode="&#x107;" horiz-adv-x="431" 
d="M399 440h-113c-123 0 -135 -74 -135 -174s12 -176 135 -176h125v-90h-154c-180 0 -227 106 -227 266s47 264 227 264h142v-90zM288 767l60 -75l-162 -132l-59 74z" />
    <glyph glyph-name="Ccircumflex" unicode="&#x108;" horiz-adv-x="539" 
d="M509 0h-192c-240 0 -277 150 -277 350s37 350 277 350h181v-105h-119c-170 0 -203 -55 -203 -245s33 -245 203 -245h130v-105zM422 740l-117 87c-9 6 -17 12 -25 12c-7 0 -16 -5 -26 -12l-117 -87l-56 70l152 107c17 12 27 16 46 16s29 -4 46 -16l153 -107z" />
    <glyph glyph-name="ccircumflex" unicode="&#x109;" horiz-adv-x="431" 
d="M399 440h-113c-123 0 -135 -74 -135 -174s12 -176 135 -176h125v-90h-154c-180 0 -227 106 -227 266s47 264 227 264h142v-90zM360 560l-117 97c-8 6 -13 10 -25 10c-11 0 -17 -3 -26 -10l-117 -97l-46 62l140 113c14 12 29 18 48 18s33 -6 48 -18l141 -113z" />
    <glyph glyph-name="Cdotaccent" unicode="&#x10a;" horiz-adv-x="539" 
d="M509 0h-192c-240 0 -277 150 -277 350s37 350 277 350h181v-105h-119c-170 0 -203 -55 -203 -245s33 -245 203 -245h130v-105zM355 757h-132v116h132v-116z" />
    <glyph glyph-name="cdotaccent" unicode="&#x10b;" horiz-adv-x="431" 
d="M399 440h-113c-123 0 -135 -74 -135 -174s12 -176 135 -176h125v-90h-154c-180 0 -227 106 -227 266s47 264 227 264h142v-90zM172 600v100h119v-100h-119z" />
    <glyph glyph-name="Ccaron" unicode="&#x10c;" horiz-adv-x="539" 
d="M509 0h-192c-240 0 -277 150 -277 350s37 350 277 350h181v-105h-119c-170 0 -203 -55 -203 -245s33 -245 203 -245h130v-105zM137 923l117 -87c9 -6 17 -12 25 -12c7 0 16 5 26 12l117 87l56 -70l-152 -107c-17 -12 -27 -16 -46 -16s-29 4 -46 16l-153 107z" />
    <glyph glyph-name="ccaron" unicode="&#x10d;" horiz-adv-x="431" 
d="M399 440h-113c-123 0 -135 -74 -135 -174s12 -176 135 -176h125v-90h-154c-180 0 -227 106 -227 266s47 264 227 264h142v-90zM360 753l46 -62l-141 -113c-15 -12 -29 -18 -48 -18s-34 6 -48 18l-140 113l46 62l117 -95c7 -5 14 -12 26 -12s17 6 25 12z" />
    <glyph glyph-name="Dcaron" unicode="&#x10e;" horiz-adv-x="649" 
d="M371 0h-209c-60 0 -102 25 -102 105v490c0 80 42 105 102 105h191c238 0 256 -180 256 -350s-18 -350 -238 -350zM307 595h-65c-40 0 -50 -10 -50 -50v-390c0 -40 10 -50 50 -50h65c160 0 166 105 166 245s-6 245 -166 245zM178 923l117 -87c9 -6 17 -12 25 -12
c7 0 16 5 26 12l117 87l56 -70l-152 -107c-17 -12 -27 -16 -46 -16s-29 4 -46 16l-153 107z" />
    <glyph glyph-name="dcaron" unicode="&#x10f;" horiz-adv-x="689" 
d="M462 700v-610c0 -60 -30 -90 -90 -90h-135c-170 0 -207 106 -207 266s37 264 207 264h108v170h117zM345 440h-79c-113 0 -115 -74 -115 -174s2 -176 115 -176h49c20 0 30 10 30 30v320zM597 462l-96 37l85 222l103 -41z" />
    <glyph glyph-name="Dcroat" unicode="&#x110;" horiz-adv-x="659" 
d="M0 301v93h70v201c0 80 42 105 102 105h181c238 0 266 -180 266 -350s-28 -350 -248 -350h-199c-60 0 -102 25 -102 105v196h-70zM307 595h-55c-40 0 -50 -10 -50 -50v-151h126v-93h-126v-146c0 -40 10 -50 50 -50h55c160 0 176 105 176 245s-16 245 -176 245z" />
    <glyph glyph-name="dcroat" unicode="&#x111;" horiz-adv-x="516" 
d="M462 700v-46h64v-61h-64v-503c0 -60 -30 -90 -90 -90h-125c-170 0 -217 106 -217 266s47 264 217 264h98v63h-142v61h142v46h117zM345 440h-69c-113 0 -125 -74 -125 -174s12 -176 125 -176h39c20 0 30 10 30 30v320z" />
    <glyph glyph-name="Emacron" unicode="&#x112;" horiz-adv-x="531" 
d="M501 105v-105h-339c-60 0 -102 25 -102 105v490c0 80 42 105 102 105h335v-105h-255c-40 0 -50 -10 -50 -50v-135h295v-105h-295v-150c0 -40 10 -50 50 -50h259zM451 760h-340v84h340v-84z" />
    <glyph glyph-name="emacron" unicode="&#x113;" horiz-adv-x="491" 
d="M444 0h-214c-160 0 -200 96 -200 266c0 210 46 270 216 270c140 0 215 -40 215 -210c0 -60 -22 -100 -82 -100h-228c0 -80 24 -136 114 -136h179v-90zM151 316h163c23 0 26 16 26 31c0 70 -34 99 -94 99c-80 0 -95 -40 -95 -130zM415 600h-340v84h340v-84z" />
    <glyph glyph-name="Edotaccent" unicode="&#x116;" horiz-adv-x="531" 
d="M501 105v-105h-339c-60 0 -102 25 -102 105v490c0 80 42 105 102 105h335v-105h-255c-40 0 -50 -10 -50 -50v-135h295v-105h-295v-150c0 -40 10 -50 50 -50h259zM351 757h-132v116h132v-116z" />
    <glyph glyph-name="edotaccent" unicode="&#x117;" horiz-adv-x="491" 
d="M444 0h-214c-160 0 -200 96 -200 266c0 210 46 270 216 270c140 0 215 -40 215 -210c0 -60 -22 -100 -82 -100h-228c0 -80 24 -136 114 -136h179v-90zM151 316h163c23 0 26 16 26 31c0 70 -34 99 -94 99c-80 0 -95 -40 -95 -130zM186 600v100h119v-100h-119z" />
    <glyph glyph-name="Eogonek" unicode="&#x118;" horiz-adv-x="531" 
d="M510 -180h-87c-30 0 -58 15 -58 55c0 13 3 25 10 37l46 88h-259c-60 0 -102 25 -102 105v490c0 80 42 105 102 105h335v-105h-255c-40 0 -50 -10 -50 -50v-135h295v-105h-295v-150c0 -40 10 -50 50 -50h259v-105l-48 -88c-7 -13 -8 -16 -8 -19c0 -13 16 -13 23 -13h42
v-60z" />
    <glyph glyph-name="eogonek" unicode="&#x119;" horiz-adv-x="491" 
d="M453 -180h-87c-30 0 -58 15 -58 55c0 13 3 25 10 37l46 88h-134c-160 0 -200 96 -200 266c0 210 46 270 216 270c140 0 215 -40 215 -210c0 -60 -22 -100 -82 -100h-228c0 -80 24 -136 114 -136h179v-90l-48 -88c-7 -13 -8 -16 -8 -19c0 -13 16 -13 23 -13h42v-60z
M151 316h163c23 0 26 16 26 31c0 70 -34 99 -94 99c-80 0 -95 -40 -95 -130z" />
    <glyph glyph-name="Ecaron" unicode="&#x11a;" horiz-adv-x="531" 
d="M501 105v-105h-339c-60 0 -102 25 -102 105v490c0 80 42 105 102 105h335v-105h-255c-40 0 -50 -10 -50 -50v-135h295v-105h-295v-150c0 -40 10 -50 50 -50h259zM133 923l117 -87c9 -6 17 -12 25 -12c7 0 16 5 26 12l117 87l56 -70l-152 -107c-17 -12 -27 -16 -46 -16
s-29 4 -46 16l-153 107z" />
    <glyph glyph-name="ecaron" unicode="&#x11b;" horiz-adv-x="491" 
d="M444 0h-214c-160 0 -200 96 -200 266c0 210 46 270 216 270c140 0 215 -40 215 -210c0 -60 -22 -100 -82 -100h-228c0 -80 24 -136 114 -136h179v-90zM151 316h163c23 0 26 16 26 31c0 70 -34 99 -94 99c-80 0 -95 -40 -95 -130zM388 753l46 -62l-141 -113
c-15 -12 -29 -18 -48 -18s-34 6 -48 18l-140 113l46 62l117 -95c7 -5 14 -12 26 -12s17 6 25 12z" />
    <glyph glyph-name="Gcircumflex" unicode="&#x11c;" horiz-adv-x="627" 
d="M571 595h-192c-170 0 -203 -55 -203 -245s33 -245 203 -245h26c40 0 50 10 50 50v188h132v-238c0 -80 -42 -105 -102 -105h-168c-240 0 -277 150 -277 350s37 350 277 350h254v-105zM463 740l-117 87c-9 6 -17 12 -25 12c-7 0 -16 -5 -26 -12l-117 -87l-56 70l152 107
c17 12 27 16 46 16s29 -4 46 -16l153 -107z" />
    <glyph glyph-name="gcircumflex" unicode="&#x11d;" horiz-adv-x="520" 
d="M357 0h-120c-170 0 -207 106 -207 266s37 264 207 264h147c60 0 90 -30 90 -90v-399c0 -150 -59 -216 -219 -216h-188v90h188c60 0 94 27 102 85zM327 440h-61c-113 0 -115 -74 -115 -174s2 -176 115 -176h91v320c0 20 -10 30 -30 30zM402 560l-117 97
c-8 6 -13 10 -25 10c-11 0 -17 -3 -26 -10l-117 -97l-46 62l140 113c14 12 29 18 48 18s33 -6 48 -18l141 -113z" />
    <glyph glyph-name="Gbreve" unicode="&#x11e;" horiz-adv-x="627" 
d="M571 595h-192c-170 0 -203 -55 -203 -245s33 -245 203 -245h26c40 0 50 10 50 50v188h132v-238c0 -80 -42 -105 -102 -105h-168c-240 0 -277 150 -277 350s37 350 277 350h254v-105zM323 811c50 0 80 22 95 67h90c-25 -98 -85 -140 -185 -140s-160 42 -184 140h90
c14 -45 44 -67 94 -67z" />
    <glyph glyph-name="gbreve" unicode="&#x11f;" horiz-adv-x="520" 
d="M357 0h-120c-170 0 -207 106 -207 266s37 264 207 264h147c60 0 90 -30 90 -90v-399c0 -150 -59 -216 -219 -216h-188v90h188c60 0 94 27 102 85zM327 440h-61c-113 0 -115 -74 -115 -174s2 -176 115 -176h91v320c0 20 -10 30 -30 30zM259 633c50 0 80 22 95 67h90
c-25 -98 -85 -140 -185 -140s-160 42 -184 140h90c14 -45 44 -67 94 -67z" />
    <glyph glyph-name="Gdotaccent" unicode="&#x120;" horiz-adv-x="627" 
d="M571 595h-192c-170 0 -203 -55 -203 -245s33 -245 203 -245h26c40 0 50 10 50 50v188h132v-238c0 -80 -42 -105 -102 -105h-168c-240 0 -277 150 -277 350s37 350 277 350h254v-105zM399 757h-132v116h132v-116z" />
    <glyph glyph-name="gdotaccent" unicode="&#x121;" horiz-adv-x="520" 
d="M357 0h-120c-170 0 -207 106 -207 266s37 264 207 264h147c60 0 90 -30 90 -90v-399c0 -150 -59 -216 -219 -216h-188v90h188c60 0 94 27 102 85zM327 440h-61c-113 0 -115 -74 -115 -174s2 -176 115 -176h91v320c0 20 -10 30 -30 30zM208 600v100h119v-100h-119z" />
    <glyph glyph-name="Gcommaaccent" unicode="&#x122;" horiz-adv-x="627" 
d="M571 595h-192c-170 0 -203 -55 -203 -245s33 -245 203 -245h26c40 0 50 10 50 50v188h132v-238c0 -80 -42 -105 -102 -105h-168c-240 0 -277 150 -277 350s37 350 277 350h254v-105zM350 -289l-96 37l85 222l103 -41z" />
    <glyph glyph-name="gcommaaccent" unicode="&#x123;" horiz-adv-x="520" 
d="M357 0h-120c-170 0 -207 106 -207 266s37 264 207 264h147c60 0 90 -30 90 -90v-399c0 -150 -59 -216 -219 -216h-188v90h188c60 0 94 27 102 85zM327 440h-61c-113 0 -115 -74 -115 -174s2 -176 115 -176h91v320c0 20 -10 30 -30 30zM278 819l96 -37l-85 -222l-103 41z
" />
    <glyph glyph-name="Hcircumflex" unicode="&#x124;" horiz-adv-x="648" 
d="M588 700v-700h-132v308h-264v-308h-132v700h132v-287h264v287h132zM466 740l-117 87c-9 6 -17 12 -25 12c-7 0 -16 -5 -26 -12l-117 -87l-56 70l152 107c17 12 27 16 46 16s29 -4 46 -16l153 -107z" />
    <glyph glyph-name="hcircumflex" unicode="&#x125;" horiz-adv-x="504" 
d="M46 0v700h117v-170h89c120 0 206 -41 206 -181v-349h-117v318c0 80 -31 122 -111 122h-67v-440h-117zM254 724l-117 97c-8 6 -13 10 -25 10c-11 0 -17 -3 -26 -10l-117 -97l-46 62l140 113c14 12 29 18 48 18s33 -6 48 -18l141 -113z" />
    <glyph glyph-name="Hbar" unicode="&#x126;" horiz-adv-x="668" 
d="M0 507v103h80v90h132v-90h244v90h132v-90h80v-103h-80v-507h-132v308h-244v-308h-132v507h-80zM212 413h244v94h-244v-94z" />
    <glyph glyph-name="hbar" unicode="&#x127;" horiz-adv-x="516" 
d="M58 0v590h-68v66h68v44h117v-44h105v-66h-105v-60h99c120 0 196 -41 196 -181v-349h-117v318c0 80 -21 122 -101 122h-77v-440h-117z" />
    <glyph glyph-name="Imacron" unicode="&#x12a;" horiz-adv-x="252" 
d="M192 0h-132v700h132v-700zM296 760h-340v84h340v-84z" />
    <glyph glyph-name="imacron" unicode="&#x12b;" horiz-adv-x="197" 
d="M40 0v530h117v-530h-117zM268 600h-340v84h340v-84z" />
    <glyph glyph-name="Iogonek" unicode="&#x12e;" horiz-adv-x="265" 
d="M196 700v-700l-48 -88c-7 -13 -8 -16 -8 -19c0 -13 16 -13 23 -13h42v-60h-87c-28 -5 -61 20 -58 55c0 13 3 25 10 37l46 88h-52v700h132z" />
    <glyph glyph-name="iogonek" unicode="&#x12f;" horiz-adv-x="225" 
d="M176 530v-530l-48 -88c-7 -13 -8 -16 -8 -19c0 -13 16 -13 23 -13h42v-60h-87c-28 -5 -61 20 -58 55c0 13 3 25 10 37l46 88h-37v530h117zM176 607h-117v93h117v-93z" />
    <glyph glyph-name="Idotaccent" unicode="&#x130;" horiz-adv-x="252" 
d="M192 0h-132v700h132v-700zM192 757h-132v116h132v-116z" />
    <glyph glyph-name="dotlessi" unicode="&#x131;" horiz-adv-x="197" 
d="M40 0v530h117v-530h-117z" />
    <glyph glyph-name="Jcircumflex" unicode="&#x134;" horiz-adv-x="365" 
d="M0 0v105h25c110 0 148 50 148 165v430h132v-465c0 -136 -65 -235 -216 -235h-89zM379 740l-117 87c-9 6 -17 12 -25 12c-7 0 -16 -5 -26 -12l-117 -87l-56 70l152 107c17 12 27 16 46 16s29 -4 46 -16l153 -107z" />
    <glyph glyph-name="jcircumflex" unicode="&#x135;" horiz-adv-x="231" 
d="M-40 -178v90c8 -1 12 -1 17 -1c76 0 91 26 91 126v493h117v-507c0 -160 -60 -202 -190 -202c-11 0 -23 0 -35 1zM258 560l-117 97c-8 6 -13 10 -25 10c-11 0 -17 -3 -26 -10l-117 -97l-46 62l140 113c14 12 29 18 48 18s33 -6 48 -18l141 -113z" />
    <glyph glyph-name="Kcommaaccent" unicode="&#x136;" horiz-adv-x="580" 
d="M600 0h-160l-183 267c-23 33 -26 73 -26 93c0 23 8 50 24 78l155 262h154l-183 -287c-12 -19 -23 -36 -23 -52c0 -21 16 -43 31 -64zM60 0v700h132v-700h-132zM287 -289l-96 37l85 222l103 -41z" />
    <glyph glyph-name="kcommaaccent" unicode="&#x137;" horiz-adv-x="457" 
d="M471 0h-138l-108 184c-21 35 -27 53 -27 90c0 34 8 51 27 86l90 170h130l-122 -214c-4 -8 -8 -19 -8 -38c0 -17 9 -37 15 -47zM163 0h-117v700h117v-700zM225 -279l-96 37l85 222l103 -41z" />
    <glyph glyph-name="Lacute" unicode="&#x139;" horiz-adv-x="498" 
d="M498 0h-336c-60 0 -102 25 -102 105v595h132v-545c0 -40 10 -50 50 -50h256v-105zM309 947l66 -75l-168 -132l-65 74z" />
    <glyph glyph-name="lacute" unicode="&#x13a;" horiz-adv-x="209" 
d="M46 0v700h117v-700h-117zM155 937l60 -75l-162 -132l-59 74z" />
    <glyph glyph-name="Lcommaaccent" unicode="&#x13b;" horiz-adv-x="498" 
d="M498 0h-336c-60 0 -102 25 -102 105v595h132v-545c0 -40 10 -50 50 -50h256v-105zM266 -289l-96 37l85 222l103 -41z" />
    <glyph glyph-name="lcommaaccent" unicode="&#x13c;" horiz-adv-x="209" 
d="M46 0v700h117v-700h-117zM108 -279l-96 37l85 222l103 -41z" />
    <glyph glyph-name="Lcaron" unicode="&#x13d;" horiz-adv-x="498" 
d="M498 0h-336c-60 0 -102 25 -102 105v595h132v-545c0 -40 10 -50 50 -50h256v-105zM366 464l-96 37l85 222l103 -41z" />
    <glyph glyph-name="lcaron" unicode="&#x13e;" horiz-adv-x="390" 
d="M46 0v700h117v-700h-117zM298 462l-96 37l85 222l103 -41z" />
    <glyph glyph-name="Ldot" unicode="&#x13f;" horiz-adv-x="498" 
d="M498 0h-336c-60 0 -102 25 -102 105v595h132v-545c0 -40 10 -50 50 -50h256v-105zM432 347h-132v116h132v-116z" />
    <glyph glyph-name="ldot" unicode="&#x140;" horiz-adv-x="334" 
d="M46 0v700h117v-700h-117zM209 310v100h119v-100h-119z" />
    <glyph glyph-name="Lslash" unicode="&#x141;" horiz-adv-x="531" 
d="M531 0h-336c-60 0 -102 25 -102 105v131l-66 -49l-37 49l103 78v386h132v-290l193 146l37 -49l-230 -174v-178c0 -40 10 -50 50 -50h256v-105z" />
    <glyph glyph-name="lslash" unicode="&#x142;" horiz-adv-x="288" 
d="M83 0v234l-37 -40l-48 44l85 93v369h117v-241l61 67l49 -44l-110 -120v-362h-117z" />
    <glyph glyph-name="Nacute" unicode="&#x143;" horiz-adv-x="670" 
d="M610 700v-609c0 -81 -57 -99 -114 -99c-53 0 -121 7 -143 79l-135 446c-5 15 -13 17 -16 17c-5 0 -14 -5 -14 -20v-514h-128v613c0 70 50 95 117 95c63 0 122 -14 141 -75l137 -449c3 -10 7 -17 16 -17c11 0 11 12 11 17v516h128zM395 947l66 -75l-168 -132l-65 74z" />
    <glyph glyph-name="nacute" unicode="&#x144;" horiz-adv-x="504" 
d="M46 0v440c0 60 30 90 90 90h116c120 0 206 -41 206 -181v-349h-117v318c0 80 -31 122 -111 122h-37c-20 0 -30 -10 -30 -30v-410h-117zM312 767l60 -75l-162 -132l-59 74z" />
    <glyph glyph-name="Ncommaaccent" unicode="&#x145;" horiz-adv-x="670" 
d="M610 700v-609c0 -81 -57 -99 -114 -99c-53 0 -121 7 -143 79l-135 446c-5 15 -13 17 -16 17c-5 0 -14 -5 -14 -20v-514h-128v613c0 70 50 95 117 95c63 0 122 -14 141 -75l137 -449c3 -10 7 -17 16 -17c11 0 11 12 11 17v516h128zM337 -279l-96 37l85 222l103 -41z" />
    <glyph glyph-name="ncommaaccent" unicode="&#x146;" horiz-adv-x="504" 
d="M46 0v440c0 60 30 90 90 90h116c120 0 206 -41 206 -181v-349h-117v318c0 80 -31 122 -111 122h-37c-20 0 -30 -10 -30 -30v-410h-117zM254 -279l-96 37l85 222l103 -41z" />
    <glyph glyph-name="Ncaron" unicode="&#x147;" horiz-adv-x="670" 
d="M610 700v-609c0 -81 -57 -99 -114 -99c-53 0 -121 7 -143 79l-135 446c-5 15 -13 17 -16 17c-5 0 -14 -5 -14 -20v-514h-128v613c0 70 50 95 117 95c63 0 122 -14 141 -75l137 -449c3 -10 7 -17 16 -17c11 0 11 12 11 17v516h128zM192 923l117 -87c9 -6 17 -12 25 -12
c7 0 16 5 26 12l117 87l56 -70l-152 -107c-17 -12 -27 -16 -46 -16s-29 4 -46 16l-153 107z" />
    <glyph glyph-name="ncaron" unicode="&#x148;" horiz-adv-x="504" 
d="M46 0v440c0 60 30 90 90 90h116c120 0 206 -41 206 -181v-349h-117v318c0 80 -31 122 -111 122h-37c-20 0 -30 -10 -30 -30v-410h-117zM394 753l46 -62l-141 -113c-15 -12 -29 -18 -48 -18s-34 6 -48 18l-140 113l46 62l117 -95c7 -5 14 -12 26 -12s17 6 25 12z" />
    <glyph glyph-name="Omacron" unicode="&#x14c;" horiz-adv-x="680" 
d="M340 708c241 0 300 -85 300 -358s-59 -358 -300 -358c-239 0 -300 85 -300 358s61 358 300 358zM176 350c0 -190 22 -253 164 -253s164 63 164 253s-22 253 -164 253s-164 -63 -164 -253zM510 760h-340v84h340v-84z" />
    <glyph glyph-name="omacron" unicode="&#x14d;" horiz-adv-x="544" 
d="M272 536c180 0 242 -60 242 -270c0 -212 -62 -272 -242 -272s-242 60 -242 272c0 210 62 270 242 270zM151 266c0 -130 21 -182 121 -182s121 52 121 182s-21 180 -121 180s-121 -50 -121 -180zM442 600h-340v84h340v-84z" />
    <glyph glyph-name="Obreve" unicode="&#x14e;" horiz-adv-x="680" 
d="M340 708c241 0 300 -85 300 -358s-59 -358 -300 -358c-239 0 -300 85 -300 358s61 358 300 358zM176 350c0 -190 22 -253 164 -253s164 63 164 253s-22 253 -164 253s-164 -63 -164 -253zM339 811c50 0 80 22 95 67h90c-25 -98 -85 -140 -185 -140s-160 42 -184 140h90
c14 -45 44 -67 94 -67z" />
    <glyph glyph-name="obreve" unicode="&#x14f;" horiz-adv-x="544" 
d="M272 536c180 0 242 -60 242 -270c0 -212 -62 -272 -242 -272s-242 60 -242 272c0 210 62 270 242 270zM151 266c0 -130 21 -182 121 -182s121 52 121 182s-21 180 -121 180s-121 -50 -121 -180zM271 633c50 0 80 22 95 67h90c-25 -98 -85 -140 -185 -140
s-160 42 -184 140h90c14 -45 44 -67 94 -67z" />
    <glyph glyph-name="Ohungarumlaut" unicode="&#x150;" horiz-adv-x="680" 
d="M340 708c241 0 300 -85 300 -358s-59 -358 -300 -358c-239 0 -300 85 -300 358s61 358 300 358zM176 350c0 -190 22 -253 164 -253s164 63 164 253s-22 253 -164 253s-164 -63 -164 -253zM284 953l67 -66l-148 -147l-67 66zM496 953l67 -66l-148 -147l-66 66z" />
    <glyph glyph-name="ohungarumlaut" unicode="&#x151;" horiz-adv-x="544" 
d="M272 536c180 0 242 -60 242 -270c0 -212 -62 -272 -242 -272s-242 60 -242 272c0 210 62 270 242 270zM151 266c0 -130 21 -182 121 -182s121 52 121 182s-21 180 -121 180s-121 -50 -121 -180zM208 773l63 -62l-148 -147l-63 62zM420 773l63 -62l-148 -147l-62 62z" />
    <glyph glyph-name="OE" unicode="&#x152;" horiz-adv-x="979" 
d="M949 105v-105h-329c-31 0 -68 7 -86 34c-45 -33 -107 -42 -194 -42c-249 0 -300 75 -300 358s51 358 300 358c87 0 149 -9 194 -43c18 28 55 35 86 35h325v-105h-255c-40 0 -50 -10 -50 -50v-135h295v-105h-295v-150c0 -40 10 -50 50 -50h259zM176 350
c0 -200 12 -253 164 -253s164 53 164 253s-12 253 -164 253s-164 -53 -164 -253z" />
    <glyph glyph-name="oe" unicode="&#x153;" horiz-adv-x="853" 
d="M806 0h-214c-64 0 -108 15 -138 54c-39 -47 -97 -60 -182 -60c-180 0 -242 60 -242 272c0 210 62 270 242 270c80 0 137 -12 176 -54c33 42 84 54 160 54c140 0 215 -40 215 -210c0 -60 -22 -100 -82 -100h-228c0 -80 24 -136 114 -136h179v-90zM151 266
c0 -130 21 -182 121 -182s121 52 121 182s-21 180 -121 180s-121 -50 -121 -180zM513 316h163c23 0 26 16 26 31c0 70 -34 99 -94 99c-80 0 -95 -40 -95 -130z" />
    <glyph glyph-name="Racute" unicode="&#x154;" horiz-adv-x="638" 
d="M192 0h-132v595c0 80 42 105 102 105h253c130 0 175 -81 175 -221c0 -144 -45 -234 -152 -234h-10v-5l176 -240h-160l-156 227c-13 19 -23 39 -23 59v16c0 28 20 48 59 48h46c73 0 84 49 84 129s-15 116 -99 116h-113c-40 0 -50 -10 -50 -50v-545zM369 947l66 -75
l-168 -132l-65 74z" />
    <glyph glyph-name="racute" unicode="&#x155;" horiz-adv-x="299" 
d="M46 0v330c0 142 62 200 204 200h49v-90h-19c-94 0 -117 -47 -117 -141v-299h-117zM210 767l60 -75l-162 -132l-59 74z" />
    <glyph glyph-name="Rcommaaccent" unicode="&#x156;" horiz-adv-x="638" 
d="M192 0h-132v595c0 80 42 105 102 105h253c130 0 175 -81 175 -221c0 -144 -45 -234 -152 -234h-10v-5l176 -240h-160l-156 227c-13 19 -23 39 -23 59v16c0 28 20 48 59 48h46c73 0 84 49 84 129s-15 116 -99 116h-113c-40 0 -50 -10 -50 -50v-545zM296 -289l-96 37
l85 222l103 -41z" />
    <glyph glyph-name="rcommaaccent" unicode="&#x157;" horiz-adv-x="299" 
d="M46 0v330c0 142 62 200 204 200h49v-90h-19c-94 0 -117 -47 -117 -141v-299h-117zM136 -279l-96 37l85 222l103 -41z" />
    <glyph glyph-name="Rcaron" unicode="&#x158;" horiz-adv-x="638" 
d="M192 0h-132v595c0 80 42 105 102 105h253c130 0 175 -81 175 -221c0 -144 -45 -234 -152 -234h-10v-5l176 -240h-160l-156 227c-13 19 -23 39 -23 59v16c0 28 20 48 59 48h46c73 0 84 49 84 129s-15 116 -99 116h-113c-40 0 -50 -10 -50 -50v-545zM176 923l117 -87
c9 -6 17 -12 25 -12c7 0 16 5 26 12l117 87l56 -70l-152 -107c-17 -12 -27 -16 -46 -16s-29 4 -46 16l-153 107z" />
    <glyph glyph-name="rcaron" unicode="&#x159;" horiz-adv-x="299" 
d="M46 0v330c0 142 62 200 204 200h49v-90h-19c-94 0 -117 -47 -117 -141v-299h-117zM292 753l46 -62l-141 -113c-15 -12 -29 -18 -48 -18s-34 6 -48 18l-140 113l46 62l117 -95c7 -5 14 -12 26 -12s17 6 25 12z" />
    <glyph glyph-name="Sacute" unicode="&#x15a;" horiz-adv-x="538" 
d="M39 0v105h267c63 0 66 42 66 66c0 27 -13 58 -68 89l-155 87c-83 46 -119 98 -119 194c0 100 49 159 160 159h292v-105h-257c-33 0 -59 -10 -59 -60c0 -31 11 -59 61 -89l135 -81c90 -53 146 -85 146 -195c0 -103 -42 -170 -150 -170h-319zM320 947l66 -75l-168 -132
l-65 74z" />
    <glyph glyph-name="sacute" unicode="&#x15b;" horiz-adv-x="448" 
d="M33 0v90h218c24 0 49 3 49 38c0 56 -45 63 -91 84l-62 28c-107 48 -121 86 -121 162c0 96 45 128 152 128h219v-90h-201c-38 0 -56 -1 -56 -40c0 -45 25 -58 63 -76l74 -34c90 -41 145 -63 145 -165c0 -81 -29 -125 -130 -125h-259zM274 767l60 -75l-162 -132l-59 74z
" />
    <glyph glyph-name="Scircumflex" unicode="&#x15c;" horiz-adv-x="538" 
d="M39 0v105h267c63 0 66 42 66 66c0 27 -13 58 -68 89l-155 87c-83 46 -119 98 -119 194c0 100 49 159 160 159h292v-105h-257c-33 0 -59 -10 -59 -60c0 -31 11 -59 61 -89l135 -81c90 -53 146 -85 146 -195c0 -103 -42 -170 -150 -170h-319zM412 740l-117 87
c-9 6 -17 12 -25 12c-7 0 -16 -5 -26 -12l-117 -87l-56 70l152 107c17 12 27 16 46 16s29 -4 46 -16l153 -107z" />
    <glyph glyph-name="scircumflex" unicode="&#x15d;" horiz-adv-x="448" 
d="M33 0v90h218c24 0 49 3 49 38c0 56 -45 63 -91 84l-62 28c-107 48 -121 86 -121 162c0 96 45 128 152 128h219v-90h-201c-38 0 -56 -1 -56 -40c0 -45 25 -58 63 -76l74 -34c90 -41 145 -63 145 -165c0 -81 -29 -125 -130 -125h-259zM366 560l-117 97c-8 6 -13 10 -25 10
c-11 0 -17 -3 -26 -10l-117 -97l-46 62l140 113c14 12 29 18 48 18s33 -6 48 -18l141 -113z" />
    <glyph glyph-name="Scedilla" unicode="&#x15e;" horiz-adv-x="539" 
d="M39 0v105h268c63 0 66 42 66 66c0 27 -13 58 -68 89l-156 87c-83 46 -119 98 -119 194c0 100 49 159 160 159h293v-105h-258c-33 0 -59 -10 -59 -60c0 -31 11 -59 61 -89l136 -81c90 -53 146 -85 146 -195c0 -103 -42 -170 -150 -170h-36l-16 -32c-1 -3 -3 -7 -3 -8
c0 -5 5 -5 8 -5h13c41 0 73 -20 73 -70s-28 -75 -82 -75h-96v56h78c12 0 28 1 28 17s-15 16 -26 16h-37c-20 0 -33 4 -33 24c0 9 4 17 7 24l26 53h-224z" />
    <glyph glyph-name="scedilla" unicode="&#x15f;" horiz-adv-x="448" 
d="M33 0v90h218c24 0 49 3 49 38c0 56 -45 63 -91 84l-62 28c-107 48 -121 86 -121 162c0 96 45 128 152 128h219v-90h-201c-38 0 -56 -1 -56 -40c0 -45 25 -58 63 -76l74 -34c90 -41 145 -63 145 -165c0 -81 -29 -125 -130 -125h-29l-16 -32c-1 -3 -3 -7 -3 -8
c0 -5 5 -5 8 -5h13c41 0 73 -20 73 -70s-28 -75 -82 -75h-96v56h78c12 0 28 1 28 17s-15 16 -26 16h-37c-20 0 -33 4 -33 24c0 9 4 17 7 24l26 53h-170z" />
    <glyph glyph-name="Scaron" unicode="&#x160;" horiz-adv-x="538" 
d="M39 0v105h267c63 0 66 42 66 66c0 27 -13 58 -68 89l-155 87c-83 46 -119 98 -119 194c0 100 49 159 160 159h292v-105h-257c-33 0 -59 -10 -59 -60c0 -31 11 -59 61 -89l135 -81c90 -53 146 -85 146 -195c0 -103 -42 -170 -150 -170h-319zM127 923l117 -87
c9 -6 17 -12 25 -12c7 0 16 5 26 12l117 87l56 -70l-152 -107c-17 -12 -27 -16 -46 -16s-29 4 -46 16l-153 107z" />
    <glyph glyph-name="scaron" unicode="&#x161;" horiz-adv-x="448" 
d="M33 0v90h218c24 0 49 3 49 38c0 56 -45 63 -91 84l-62 28c-107 48 -121 86 -121 162c0 96 45 128 152 128h219v-90h-201c-38 0 -56 -1 -56 -40c0 -45 25 -58 63 -76l74 -34c90 -41 145 -63 145 -165c0 -81 -29 -125 -130 -125h-259zM366 753l46 -62l-141 -113
c-15 -12 -29 -18 -48 -18s-34 6 -48 18l-140 113l46 62l117 -95c7 -5 14 -12 26 -12s17 6 25 12z" />
    <glyph glyph-name="Tcommaaccent" unicode="&#x162;" horiz-adv-x="559" 
d="M345 0h-132v595h-213v105h559v-105h-214v-595zM281 -289l-96 37l85 222l103 -41z" />
    <glyph glyph-name="tcommaaccent" unicode="&#x163;" horiz-adv-x="290" 
d="M290 0h-52c-120 0 -175 43 -175 173v267h-63v90h63v170h117v-170h110v-90h-110v-243c0 -80 22 -107 102 -107h8v-90zM142 -279l-96 37l85 222l103 -41z" />
    <glyph glyph-name="Tcaron" unicode="&#x164;" horiz-adv-x="559" 
d="M345 0h-132v595h-213v105h559v-105h-214v-595zM137 923l117 -87c9 -6 17 -12 25 -12c7 0 16 5 26 12l117 87l56 -70l-152 -107c-17 -12 -27 -16 -46 -16s-29 4 -46 16l-153 107z" />
    <glyph glyph-name="tcaron" unicode="&#x165;" horiz-adv-x="290" 
d="M290 0h-52c-120 0 -175 43 -175 173v267h-63v90h63v170h117v-170h110v-90h-110v-243c0 -80 22 -107 102 -107h8v-90zM316 568l-96 37l85 222l103 -41z" />
    <glyph glyph-name="Utilde" unicode="&#x168;" horiz-adv-x="628" 
d="M314 97c100 0 122 47 122 157v446h132v-446c0 -200 -74 -262 -254 -262s-254 62 -254 262v446h132v-446c0 -110 22 -157 122 -157zM168 745l-61 56c34 46 86 83 136 83c15 0 29 -2 51 -16l36 -22c16 -9 36 -19 54 -19c24 0 50 24 75 54l61 -53c-34 -46 -86 -89 -136 -89
c-16 0 -38 4 -56 15l-32 20c-18 11 -32 19 -53 19s-51 -22 -75 -48z" />
    <glyph glyph-name="utilde" unicode="&#x169;" horiz-adv-x="512" 
d="M466 530v-440c0 -60 -30 -90 -90 -90h-124c-120 0 -206 41 -206 181v349h117v-318c0 -80 31 -122 111 -122h45c20 0 30 10 30 30v410h117zM120 582l-61 46c26 46 76 83 126 83c60 0 98 -57 141 -57c28 0 46 24 65 54l61 -43c-26 -46 -76 -89 -126 -89
c-66 0 -99 54 -141 54c-25 0 -47 -22 -65 -48z" />
    <glyph glyph-name="Umacron" unicode="&#x16a;" horiz-adv-x="628" 
d="M314 97c100 0 122 47 122 157v446h132v-446c0 -200 -74 -262 -254 -262s-254 62 -254 262v446h132v-446c0 -110 22 -157 122 -157zM484 760h-340v84h340v-84z" />
    <glyph glyph-name="umacron" unicode="&#x16b;" horiz-adv-x="512" 
d="M466 530v-440c0 -60 -30 -90 -90 -90h-124c-120 0 -206 41 -206 181v349h117v-318c0 -80 31 -122 111 -122h45c20 0 30 10 30 30v410h117zM426 600h-340v84h340v-84z" />
    <glyph glyph-name="Ubreve" unicode="&#x16c;" horiz-adv-x="628" 
d="M314 97c100 0 122 47 122 157v446h132v-446c0 -200 -74 -262 -254 -262s-254 62 -254 262v446h132v-446c0 -110 22 -157 122 -157zM313 811c50 0 80 22 95 67h90c-25 -98 -85 -140 -185 -140s-160 42 -184 140h90c14 -45 44 -67 94 -67z" />
    <glyph glyph-name="ubreve" unicode="&#x16d;" horiz-adv-x="512" 
d="M466 530v-440c0 -60 -30 -90 -90 -90h-124c-120 0 -206 41 -206 181v349h117v-318c0 -80 31 -122 111 -122h45c20 0 30 10 30 30v410h117zM255 633c50 0 80 22 95 67h90c-25 -98 -85 -140 -185 -140s-160 42 -184 140h90c14 -45 44 -67 94 -67z" />
    <glyph glyph-name="Uring" unicode="&#x16e;" horiz-adv-x="628" 
d="M314 97c100 0 122 47 122 157v446h132v-446c0 -200 -74 -262 -254 -262s-254 62 -254 262v446h132v-446c0 -110 22 -157 122 -157zM314 959c80 0 115 -38 115 -114s-35 -114 -115 -114s-116 38 -116 114s36 114 116 114zM258 845c0 -36 16 -59 56 -59s55 23 55 59
s-15 59 -55 59s-56 -23 -56 -59z" />
    <glyph glyph-name="uring" unicode="&#x16f;" horiz-adv-x="512" 
d="M466 530v-440c0 -60 -30 -90 -90 -90h-124c-120 0 -206 41 -206 181v349h117v-318c0 -80 31 -122 111 -122h45c20 0 30 10 30 30v410h117zM256 788c80 0 115 -38 115 -114s-35 -114 -115 -114s-116 38 -116 114s36 114 116 114zM200 674c0 -36 16 -59 56 -59s55 23 55 59
s-15 59 -55 59s-56 -23 -56 -59z" />
    <glyph glyph-name="Uhungarumlaut" unicode="&#x170;" horiz-adv-x="628" 
d="M314 97c100 0 122 47 122 157v446h132v-446c0 -200 -74 -262 -254 -262s-254 62 -254 262v446h132v-446c0 -110 22 -157 122 -157zM258 953l67 -66l-148 -147l-67 66zM470 953l67 -66l-148 -147l-66 66z" />
    <glyph glyph-name="uhungarumlaut" unicode="&#x171;" horiz-adv-x="512" 
d="M466 530v-440c0 -60 -30 -90 -90 -90h-124c-120 0 -206 41 -206 181v349h117v-318c0 -80 31 -122 111 -122h45c20 0 30 10 30 30v410h117zM202 773l63 -62l-148 -147l-63 62zM414 773l63 -62l-148 -147l-62 62z" />
    <glyph glyph-name="Uogonek" unicode="&#x172;" horiz-adv-x="628" 
d="M423 -180h-87c-30 0 -58 15 -58 55c0 13 3 25 10 37l42 80h-16c-180 0 -254 62 -254 262v446h132v-446c0 -110 22 -157 122 -157s122 47 122 157v446h132v-446c0 -160 -48 -232 -154 -254l-48 -88c-7 -13 -8 -16 -8 -19c0 -13 16 -13 23 -13h42v-60z" />
    <glyph glyph-name="uogonek" unicode="&#x173;" horiz-adv-x="512" 
d="M391 -180h-87c-30 0 -58 15 -58 55c0 13 3 25 10 37l46 88h-50c-120 0 -206 41 -206 181v349h117v-318c0 -80 31 -122 111 -122h45c20 0 30 10 30 30v410h117v-440c0 -58 -28 -88 -84 -90l-48 -88c-7 -13 -8 -16 -8 -19c0 -13 16 -13 23 -13h42v-60z" />
    <glyph glyph-name="Ydieresis" unicode="&#x178;" horiz-adv-x="576" 
d="M288 343l160 357h142l-236 -486v-214h-132v214l-236 486h142zM459 760h-120v110h120v-110zM237 760h-120v110h120v-110z" />
    <glyph glyph-name="Zacute" unicode="&#x179;" horiz-adv-x="509" 
d="M488 0h-382c-32 0 -96 0 -96 63c0 47 22 72 43 103l262 395c6 9 12 18 12 27c0 6 -3 7 -19 7h-271v105h383c39 0 79 -1 79 -58c0 -45 -23 -73 -40 -100l-267 -408c-4 -6 -10 -15 -10 -22s5 -7 12 -7h294v-105zM315 947l66 -75l-168 -132l-65 74z" />
    <glyph glyph-name="zacute" unicode="&#x17a;" horiz-adv-x="401" 
d="M85 0c-29 0 -75 1 -75 61c0 42 20 64 36 86l192 273c5 7 8 12 8 15s-2 5 -10 5h-219v90h305c41 0 69 -14 69 -57c0 -38 -18 -64 -31 -82l-195 -283c-4 -6 -8 -11 -8 -14s1 -4 9 -4h222v-90h-303zM251 767l60 -75l-162 -132l-59 74z" />
    <glyph glyph-name="Zdotaccent" unicode="&#x17b;" horiz-adv-x="509" 
d="M488 0h-382c-32 0 -96 0 -96 63c0 47 22 72 43 103l262 395c6 9 12 18 12 27c0 6 -3 7 -19 7h-271v105h383c39 0 79 -1 79 -58c0 -45 -23 -73 -40 -100l-267 -408c-4 -6 -10 -15 -10 -22s5 -7 12 -7h294v-105zM320 757h-132v116h132v-116z" />
    <glyph glyph-name="zdotaccent" unicode="&#x17c;" horiz-adv-x="401" 
d="M85 0c-29 0 -75 1 -75 61c0 42 20 64 36 86l192 273c5 7 8 12 8 15s-2 5 -10 5h-219v90h305c41 0 69 -14 69 -57c0 -38 -18 -64 -31 -82l-195 -283c-4 -6 -8 -11 -8 -14s1 -4 9 -4h222v-90h-303zM141 600v100h119v-100h-119z" />
    <glyph glyph-name="Zcaron" unicode="&#x17d;" horiz-adv-x="509" 
d="M488 0h-382c-32 0 -96 0 -96 63c0 47 22 72 43 103l262 395c6 9 12 18 12 27c0 6 -3 7 -19 7h-271v105h383c39 0 79 -1 79 -58c0 -45 -23 -73 -40 -100l-267 -408c-4 -6 -10 -15 -10 -22s5 -7 12 -7h294v-105zM112 923l117 -87c9 -6 17 -12 25 -12c7 0 16 5 26 12l117 87
l56 -70l-152 -107c-17 -12 -27 -16 -46 -16s-29 4 -46 16l-153 107z" />
    <glyph glyph-name="zcaron" unicode="&#x17e;" horiz-adv-x="401" 
d="M85 0c-29 0 -75 1 -75 61c0 42 20 64 36 86l192 273c5 7 8 12 8 15s-2 5 -10 5h-219v90h305c41 0 69 -14 69 -57c0 -38 -18 -64 -31 -82l-195 -283c-4 -6 -8 -11 -8 -14s1 -4 9 -4h222v-90h-303zM343 753l46 -62l-141 -113c-15 -12 -29 -18 -48 -18s-34 6 -48 18
l-140 113l46 62l117 -95c7 -5 14 -12 26 -12s17 6 25 12z" />
    <glyph glyph-name="uni018F" unicode="&#x18f;" horiz-adv-x="620" 
d="M293 0h-46c-129 0 -207 53 -207 200c0 113 48 208 187 208h215c-1 143 -40 187 -191 187h-190v105h232c240 0 287 -150 287 -350s-47 -350 -287 -350zM273 105h8c115 0 161 46 161 198h-169c-64 0 -99 -27 -99 -98c0 -67 36 -100 99 -100z" />
    <glyph glyph-name="florin" unicode="&#x192;" horiz-adv-x="352" 
d="M169 -170h-117l108 610h-74l15 89h74c42 167 134 178 294 178l-16 -86c-90 0 -141 0 -161 -91h145l-15 -90h-145z" />
    <glyph glyph-name="uni01CF" unicode="&#x1cf;" horiz-adv-x="252" 
d="M192 0h-132v700h132v-700zM-17 923l117 -87c9 -6 17 -12 25 -12c7 0 16 5 26 12l117 87l56 -70l-152 -107c-17 -12 -27 -16 -46 -16s-29 4 -46 16l-153 107z" />
    <glyph glyph-name="uni01D0" unicode="&#x1d0;" horiz-adv-x="197" 
d="M40 0v530h117v-530h-117zM241 753l46 -62l-141 -113c-15 -12 -29 -18 -48 -18s-34 6 -48 18l-140 113l46 62l117 -95c7 -5 14 -12 26 -12s17 6 25 12z" />
    <glyph glyph-name="uni01DD" unicode="&#x1dd;" horiz-adv-x="491" 
d="M47 530h214c160 0 200 -96 200 -266c0 -210 -46 -270 -216 -270c-140 0 -215 40 -215 210c0 60 22 100 82 100h228c0 80 -24 136 -114 136h-179v90zM340 214h-163c-23 0 -26 -16 -26 -31c0 -70 34 -99 94 -99c80 0 95 40 95 130z" />
    <glyph glyph-name="Gcaron" unicode="&#x1e6;" horiz-adv-x="627" 
d="M571 595h-192c-170 0 -203 -55 -203 -245s33 -245 203 -245h26c40 0 50 10 50 50v188h132v-238c0 -80 -42 -105 -102 -105h-168c-240 0 -277 150 -277 350s37 350 277 350h254v-105zM185 923l117 -87c9 -6 17 -12 25 -12c7 0 16 5 26 12l117 87l56 -70l-152 -107
c-17 -12 -27 -16 -46 -16s-29 4 -46 16l-153 107z" />
    <glyph glyph-name="gcaron" unicode="&#x1e7;" horiz-adv-x="520" 
d="M357 0h-120c-170 0 -207 106 -207 266s37 264 207 264h147c60 0 90 -30 90 -90v-399c0 -150 -59 -216 -219 -216h-188v90h188c60 0 94 27 102 85zM327 440h-61c-113 0 -115 -74 -115 -174s2 -176 115 -176h91v320c0 20 -10 30 -30 30zM402 753l46 -62l-141 -113
c-15 -12 -29 -18 -48 -18s-34 6 -48 18l-140 113l46 62l117 -95c7 -5 14 -12 26 -12s17 6 25 12z" />
    <glyph glyph-name="AEacute" unicode="&#x1fc;" horiz-adv-x="834" 
d="M804 105v-105h-339c-60 0 -102 25 -102 105v71h-170l-65 -176h-148l261 636c24 59 83 64 123 64h436v-105h-255c-40 0 -50 -10 -50 -50v-135h295v-105h-295v-150c0 -40 10 -50 50 -50h259zM335 566l-109 -291h137v320c-13 -3 -20 -7 -28 -29zM520 947l66 -75l-168 -132
l-65 74z" />
    <glyph glyph-name="aeacute" unicode="&#x1fd;" horiz-adv-x="779" 
d="M732 0h-214c-47 0 -83 12 -110 34c-13 -21 -37 -34 -69 -34h-177c-90 0 -132 55 -132 165c0 100 42 165 132 165h160v34c0 50 -24 76 -74 76h-179v90h211c41 0 75 -13 101 -45c32 40 80 51 153 51c140 0 215 -40 215 -210c0 -60 -22 -100 -82 -100h-228v-12
c2 -74 28 -124 114 -124h179v-90zM322 240h-115c-40 0 -56 -25 -56 -75s16 -75 56 -75h85c20 0 30 10 30 30v120zM439 316h163c23 0 26 16 26 31c0 70 -34 99 -94 99c-80 0 -95 -40 -95 -130zM440 767l60 -75l-162 -132l-59 74z" />
    <glyph glyph-name="Scommaaccent" unicode="&#x218;" horiz-adv-x="538" 
d="M39 0v105h267c63 0 66 42 66 66c0 27 -13 58 -68 89l-155 87c-83 46 -119 98 -119 194c0 100 49 159 160 159h292v-105h-257c-33 0 -59 -10 -59 -60c0 -31 11 -59 61 -89l135 -81c90 -53 146 -85 146 -195c0 -103 -42 -170 -150 -170h-319zM266 -279l-96 37l85 222
l103 -41z" />
    <glyph glyph-name="scommaaccent" unicode="&#x219;" horiz-adv-x="448" 
d="M33 0v90h218c24 0 49 3 49 38c0 56 -45 63 -91 84l-62 28c-107 48 -121 86 -121 162c0 96 45 128 152 128h219v-90h-201c-38 0 -56 -1 -56 -40c0 -45 25 -58 63 -76l74 -34c90 -41 145 -63 145 -165c0 -81 -29 -125 -130 -125h-259zM222 -279l-96 37l85 222l103 -41z" />
    <glyph glyph-name="uni021A" unicode="&#x21a;" horiz-adv-x="559" 
d="M345 0h-132v595h-213v105h559v-105h-214v-595zM281 -289l-96 37l85 222l103 -41z" />
    <glyph glyph-name="uni021B" unicode="&#x21b;" horiz-adv-x="290" 
d="M290 0h-52c-120 0 -175 43 -175 173v267h-63v90h63v170h117v-170h110v-90h-110v-243c0 -80 22 -107 102 -107h8v-90zM142 -279l-96 37l85 222l103 -41z" />
    <glyph glyph-name="uni0228" unicode="&#x228;" horiz-adv-x="531" 
d="M224 -190v56h78c12 0 28 1 28 17s-15 16 -26 16h-37c-20 0 -33 4 -33 24c0 9 4 17 7 24l26 53h-105c-60 0 -102 25 -102 105v490c0 80 42 105 102 105h335v-105h-255c-40 0 -50 -10 -50 -50v-135h295v-105h-295v-150c0 -40 10 -50 50 -50h259v-105h-174l-16 -32
c-1 -3 -3 -7 -3 -8c0 -5 5 -5 8 -5h13c41 0 73 -20 73 -70s-28 -75 -82 -75h-96z" />
    <glyph glyph-name="uni0229" unicode="&#x229;" horiz-adv-x="491" 
d="M176 -190v56h78c12 0 28 1 28 17s-15 16 -26 16h-37c-20 0 -33 4 -33 24c0 9 4 17 7 24l26 53c-151 4 -189 100 -189 266c0 210 46 270 216 270c140 0 215 -40 215 -210c0 -60 -22 -100 -82 -100h-228c0 -80 24 -136 114 -136h179v-90h-165l-16 -32c-1 -3 -3 -7 -3 -8
c0 -5 5 -5 8 -5h13c41 0 73 -20 73 -70s-28 -75 -82 -75h-96zM151 316h163c23 0 26 16 26 31c0 70 -34 99 -94 99c-80 0 -95 -40 -95 -130z" />
    <glyph glyph-name="uni0237" unicode="&#x237;" horiz-adv-x="231" 
d="M-40 -178v90c8 -1 12 -1 17 -1c76 0 91 26 91 126v493h117v-507c0 -160 -60 -202 -190 -202c-11 0 -23 0 -35 1z" />
    <glyph glyph-name="uni0259" unicode="&#x259;" horiz-adv-x="491" 
d="M47 530h214c160 0 200 -96 200 -266c0 -210 -46 -270 -216 -270c-140 0 -215 40 -215 210c0 60 22 100 82 100h228c0 80 -24 136 -114 136h-179v90zM340 214h-163c-23 0 -26 -16 -26 -31c0 -70 34 -99 94 -99c80 0 95 40 95 130z" />
    <glyph glyph-name="afii57929" unicode="&#x2bc;" horiz-adv-x="218" 
d="M86 462l-96 37l85 222l103 -41z" />
    <glyph glyph-name="circumflex" unicode="&#x2c6;" horiz-adv-x="457" 
d="M371 560l-117 97c-8 6 -13 10 -25 10c-11 0 -17 -3 -26 -10l-117 -97l-46 62l140 113c14 12 29 18 48 18s33 -6 48 -18l141 -113z" />
    <glyph glyph-name="caron" unicode="&#x2c7;" horiz-adv-x="457" 
d="M371 753l46 -62l-141 -113c-15 -12 -29 -18 -48 -18s-34 6 -48 18l-140 113l46 62l117 -95c7 -5 14 -12 26 -12s17 6 25 12z" />
    <glyph glyph-name="uni02C9" unicode="&#x2c9;" horiz-adv-x="420" 
d="M380 600h-340v84h340v-84z" />
    <glyph glyph-name="breve" unicode="&#x2d8;" horiz-adv-x="449" 
d="M224 633c50 0 80 22 95 67h90c-25 -98 -85 -140 -185 -140s-160 42 -184 140h90c14 -45 44 -67 94 -67z" />
    <glyph glyph-name="dotaccent" unicode="&#x2d9;" horiz-adv-x="199" 
d="M40 600v100h119v-100h-119z" />
    <glyph glyph-name="ring" unicode="&#x2da;" horiz-adv-x="311" 
d="M156 788c80 0 115 -38 115 -114s-35 -114 -115 -114s-116 38 -116 114s36 114 116 114zM100 674c0 -36 16 -59 56 -59s55 23 55 59s-15 59 -55 59s-56 -23 -56 -59z" />
    <glyph glyph-name="ogonek" unicode="&#x2db;" horiz-adv-x="225" 
d="M185 -180h-87c-30 0 -58 15 -58 55c0 13 3 25 10 37l46 88h80l-48 -88c-7 -13 -8 -16 -8 -19c0 -13 16 -13 23 -13h42v-60z" />
    <glyph glyph-name="tilde" unicode="&#x2dc;" horiz-adv-x="473" 
d="M101 582l-61 46c26 46 76 83 126 83c60 0 98 -57 141 -57c28 0 46 24 65 54l61 -43c-26 -46 -76 -89 -126 -89c-66 0 -99 54 -141 54c-25 0 -47 -22 -65 -48z" />
    <glyph glyph-name="hungarumlaut" unicode="&#x2dd;" horiz-adv-x="503" 
d="M188 773l63 -62l-148 -147l-63 62zM400 773l63 -62l-148 -147l-62 62z" />
    <glyph glyph-name="acutecomb" unicode="&#x301;" horiz-adv-x="2" 
d="M-221 767l60 -75l-162 -132l-59 74z" />
    <glyph glyph-name="uni037E" unicode="&#x37e;" horiz-adv-x="242" 
d="M182 404h-122v126h122v-126zM89 -116l-89 53l122 203l96 -57z" />
    <glyph glyph-name="uni0394" unicode="&#x394;" horiz-adv-x="560" 
d="M14 164l144 460c17 54 50 84 123 84c69 0 103 -27 121 -84l144 -460c9 -27 24 -73 24 -100c0 -62 -43 -64 -77 -64h-426c-33 0 -77 1 -77 65c0 27 15 72 24 99zM263 559l-119 -405c-5 -17 -10 -32 -10 -39c0 -10 14 -10 21 -10h250c7 0 21 0 21 12c0 9 -6 25 -10 37
l-120 405c-4 12 -8 22 -16 22s-14 -10 -17 -22z" />
    <glyph glyph-name="uni03A9" unicode="&#x3a9;" horiz-adv-x="616" 
d="M167 106v14c-121 43 -127 159 -127 279c0 210 78 322 268 322s268 -112 268 -322c0 -120 -6 -236 -127 -279v-14h111v-106h-126c-60 0 -91 28 -91 88v73c0 28 12 39 32 48c41 18 65 45 65 192c0 125 -18 188 -132 188s-132 -63 -132 -188c0 -147 24 -174 65 -192
c18 -8 32 -20 32 -48v-73c0 -60 -31 -88 -91 -88h-126v106h111z" />
    <glyph glyph-name="uni03BC" unicode="&#x3bc;" horiz-adv-x="520" 
d="M46 -178v708h117v-327c0 -58 34 -120 95 -120c50 0 99 58 99 117v330h117v-530h-113v72c-29 -62 -55 -78 -104 -78c-41 0 -72 17 -99 71v-243h-112z" />
    <glyph glyph-name="pi" unicode="&#x3c0;" horiz-adv-x="574" 
d="M86 0v440h-13c-23 0 -50 -9 -67 -20v90c31 17 56 20 85 20h477v-90h-64v-297c0 -56 16 -61 39 -61c6 0 11 0 14 1v-83c-19 -3 -59 -5 -79 -5c-60 0 -91 28 -91 108v337h-184v-440h-117z" />
    <glyph glyph-name="afii10023" unicode="&#x401;" horiz-adv-x="531" 
d="M501 105v-105h-339c-60 0 -102 25 -102 105v490c0 80 42 105 102 105h335v-105h-255c-40 0 -50 -10 -50 -50v-135h295v-105h-295v-150c0 -40 10 -50 50 -50h259zM337 761v108h108v-108h-108zM229 761h-108v108h108v-108z" />
    <glyph glyph-name="afii10051" unicode="&#x402;" horiz-adv-x="706" 
d="M161 0v595h-161v105h477v-105h-184v-181h213c130 0 160 -86 160 -206s-30 -208 -158 -208h-148v105h80c66 0 90 33 90 103s-20 101 -90 101h-147v-309h-132z" />
    <glyph glyph-name="afii10052" unicode="&#x403;" horiz-adv-x="496" 
d="M192 0h-132v595c0 80 42 105 102 105h334v-105h-254c-40 0 -50 -10 -50 -50v-545zM338 947l66 -75l-168 -132l-65 74z" />
    <glyph glyph-name="afii10053" unicode="&#x404;" horiz-adv-x="550" 
d="M510 0h-183c-240 0 -287 150 -287 350s47 350 287 350h172v-105h-110c-151 0 -200 -44 -211 -187h308v-105h-308c9 -152 56 -198 211 -198h121v-105z" />
    <glyph glyph-name="afii10054" unicode="&#x405;" horiz-adv-x="539" 
d="M39 0v105h268c63 0 66 42 66 66c0 27 -13 58 -68 89l-156 87c-83 46 -119 98 -119 194c0 100 49 159 160 159h293v-105h-258c-33 0 -59 -10 -59 -60c0 -31 11 -59 61 -89l136 -81c90 -53 146 -85 146 -195c0 -103 -42 -170 -150 -170h-320z" />
    <glyph glyph-name="afii10055" unicode="&#x406;" horiz-adv-x="252" 
d="M192 0h-132v700h132v-700z" />
    <glyph glyph-name="afii10056" unicode="&#x407;" horiz-adv-x="264" 
d="M198 0h-132v700h132v-700zM264 760h-110v110h110v-110zM110 760h-110v110h110v-110z" />
    <glyph glyph-name="afii10057" unicode="&#x408;" horiz-adv-x="365" 
d="M0 0v105h25c110 0 148 50 148 165v430h132v-465c0 -136 -65 -235 -216 -235h-89z" />
    <glyph glyph-name="afii10058" unicode="&#x409;" horiz-adv-x="941" 
d="M-10 0l270 633c19 46 50 75 141 75c109 0 127 -35 127 -92v-202h213c130 0 160 -86 160 -206s-30 -208 -158 -208h-245c-60 0 -102 25 -102 105v474c0 5 0 18 -14 18c-9 0 -13 -10 -15 -15l-228 -582h-149zM675 309h-147v-154c0 -40 10 -50 50 -50h97c66 0 90 33 90 103
s-20 101 -90 101z" />
    <glyph glyph-name="afii10059" unicode="&#x40a;" horiz-adv-x="961" 
d="M426 700h132v-286h203c130 0 160 -86 160 -206s-30 -208 -158 -208h-235c-60 0 -102 25 -102 105v204h-234v-309h-132v700h132v-286h234v286zM695 309h-137v-154c0 -40 10 -50 50 -50h87c66 0 90 33 90 103s-20 101 -90 101z" />
    <glyph glyph-name="afii10060" unicode="&#x40b;" horiz-adv-x="697" 
d="M0 700h477v-105h-184v-193h201c100 0 153 -64 153 -164v-238h-132v214c0 60 -23 83 -83 83h-139v-297h-132v595h-161v105z" />
    <glyph glyph-name="afii10061" unicode="&#x40c;" horiz-adv-x="580" 
d="M600 0h-160l-183 267c-23 33 -26 73 -26 93c0 23 8 50 24 78l155 262h154l-183 -287c-12 -19 -23 -36 -23 -52c0 -21 16 -43 31 -64zM60 0v700h132v-700h-132zM340 947l66 -75l-168 -132l-65 74z" />
    <glyph glyph-name="afii10062" unicode="&#x40e;" horiz-adv-x="576" 
d="M323 0h-143l71 149l-265 551h146l177 -404l137 404h144zM287 811c46 0 70 22 85 67h100c-25 -98 -85 -140 -185 -140s-160 42 -184 140h100c14 -45 37 -67 84 -67z" />
    <glyph glyph-name="afii10145" unicode="&#x40f;" horiz-adv-x="643" 
d="M451 700h132v-595c0 -80 -42 -105 -102 -105h-94v-169h-131v169h-94c-60 0 -102 25 -102 105v595h132v-545c0 -40 10 -50 50 -50h159c40 0 50 10 50 50v545z" />
    <glyph glyph-name="afii10017" unicode="&#x410;" horiz-adv-x="626" 
d="M-6 0l194 619c22 70 62 89 125 89c60 0 103 -19 125 -89l194 -619h-139l-52 177h-257l-51 -177h-139zM293 556l-85 -285h209l-84 285c-6 20 -11 29 -20 29s-14 -9 -20 -29z" />
    <glyph glyph-name="afii10018" unicode="&#x411;" horiz-adv-x="605" 
d="M529 700v-105h-287c-40 0 -50 -10 -50 -50v-135h213c130 0 160 -84 160 -204s-30 -206 -158 -206h-245c-60 0 -102 25 -102 105v490c0 80 42 105 102 105h367zM339 305h-147v-150c0 -40 10 -50 50 -50h97c66 0 90 31 90 101s-20 99 -90 99z" />
    <glyph glyph-name="afii10019" unicode="&#x412;" horiz-adv-x="612" 
d="M192 301v-146c0 -40 10 -50 50 -50h89c69 0 95 26 95 96s-26 100 -86 100h-148zM192 545v-139h146c59 0 77 26 77 96c0 60 -18 93 -78 93h-95c-40 0 -50 -10 -50 -50zM452 354c82 -7 110 -71 110 -162c0 -107 -28 -192 -162 -192h-238c-60 0 -102 25 -102 105v490
c0 80 42 105 102 105h238c101 0 151 -66 151 -192c0 -75 -23 -139 -99 -150v-4z" />
    <glyph glyph-name="afii10020" unicode="&#x413;" horiz-adv-x="496" 
d="M192 0h-132v595c0 80 42 105 102 105h334v-105h-254c-40 0 -50 -10 -50 -50v-545z" />
    <glyph glyph-name="afii10021" unicode="&#x414;" horiz-adv-x="736" 
d="M78 105l158 519c21 68 72 84 132 84s112 -17 132 -84l157 -519h17c60 0 82 -25 82 -105v-135h-132v85c0 37 -9 50 -42 50h-429c-33 0 -41 -13 -41 -50v-85h-132v135c0 80 22 105 82 105h16zM341 559l-124 -454h301l-124 454c-5 18 -18 22 -26 22s-22 -4 -27 -22z" />
    <glyph glyph-name="afii10022" unicode="&#x415;" horiz-adv-x="531" 
d="M501 105v-105h-339c-60 0 -102 25 -102 105v490c0 80 42 105 102 105h335v-105h-255c-40 0 -50 -10 -50 -50v-135h295v-105h-295v-150c0 -40 10 -50 50 -50h259z" />
    <glyph glyph-name="afii10024" unicode="&#x416;" horiz-adv-x="888" 
d="M140 0h-160l201 297c15 22 31 45 31 64c0 16 -11 32 -23 52l-173 287h154l145 -262c16 -29 24 -55 24 -78c0 -20 -4 -59 -26 -93zM510 700v-700h-132v700h132zM908 0h-160l-173 267c-22 34 -26 73 -26 93c0 23 8 49 24 78l145 262h154l-173 -287c-12 -20 -23 -36 -23 -52
c0 -19 16 -42 31 -64z" />
    <glyph glyph-name="afii10025" unicode="&#x417;" horiz-adv-x="557" 
d="M393 354c82 -7 114 -71 114 -162c0 -107 -32 -192 -176 -192h-281v105h212c79 0 109 26 109 96s-30 100 -100 100h-207v105h205c69 0 87 26 87 96c0 60 -18 93 -88 93h-214v105h277c111 0 161 -66 161 -192c0 -75 -23 -139 -99 -150v-4z" />
    <glyph glyph-name="afii10026" unicode="&#x418;" horiz-adv-x="666" 
d="M606 0h-133l5 532c0 11 -3 23 -12 23c-10 0 -18 -12 -24 -32l-148 -455c-14 -42 -50 -76 -121 -76c-101 0 -113 70 -113 120v588h133l-4 -522c0 -16 3 -32 14 -32c8 0 13 9 17 22l142 452c24 75 79 88 127 88c105 0 117 -81 117 -126v-582z" />
    <glyph glyph-name="afii10027" unicode="&#x419;" horiz-adv-x="666" 
d="M606 0h-133l5 532c0 11 -3 23 -12 23c-10 0 -18 -12 -24 -32l-148 -455c-14 -42 -50 -76 -121 -76c-101 0 -113 70 -113 120v588h133l-4 -522c0 -16 3 -32 14 -32c8 0 13 9 17 22l142 452c24 75 79 88 127 88c105 0 117 -81 117 -126v-582zM332 811c46 0 70 22 85 67h100
c-25 -98 -85 -140 -185 -140s-160 42 -184 140h100c14 -45 37 -67 84 -67z" />
    <glyph glyph-name="afii10028" unicode="&#x41a;" horiz-adv-x="580" 
d="M600 0h-160l-183 267c-23 33 -26 73 -26 93c0 23 8 50 24 78l155 262h154l-183 -287c-12 -19 -23 -36 -23 -52c0 -21 16 -43 31 -64zM60 0v700h132v-700h-132z" />
    <glyph glyph-name="afii10029" unicode="&#x41b;" horiz-adv-x="623" 
d="M-6 0l201 632c13 42 43 76 117 76s104 -34 117 -76l200 -632h-140l-161 559c-3 11 -6 20 -16 20s-14 -10 -17 -20l-161 -559h-140z" />
    <glyph glyph-name="afii10030" unicode="&#x41c;" horiz-adv-x="872" 
d="M655 543l-109 -467c-15 -65 -50 -84 -110 -84s-95 19 -110 84l-109 467c-4 18 -10 23 -17 23c-11 0 -11 -18 -11 -21l3 -545h-132v616c0 64 43 92 113 92c80 0 119 -30 133 -90l111 -467c4 -16 12 -26 19 -26s15 10 19 26l111 467c14 60 53 90 133 90
c70 0 113 -28 113 -92v-616h-132l4 545c0 20 -8 21 -12 21c-7 0 -13 -6 -17 -23z" />
    <glyph glyph-name="afii10031" unicode="&#x41d;" horiz-adv-x="648" 
d="M588 700v-700h-132v308h-264v-308h-132v700h132v-287h264v287h132z" />
    <glyph glyph-name="afii10032" unicode="&#x41e;" horiz-adv-x="680" 
d="M340 708c241 0 300 -85 300 -358s-59 -358 -300 -358c-239 0 -300 85 -300 358s61 358 300 358zM176 350c0 -190 22 -253 164 -253s164 63 164 253s-22 253 -164 253s-164 -63 -164 -253z" />
    <glyph glyph-name="afii10033" unicode="&#x41f;" horiz-adv-x="648" 
d="M192 0h-132v595c0 80 42 105 102 105h324c60 0 102 -25 102 -105v-595h-132v545c0 40 -10 50 -50 50h-164c-40 0 -50 -10 -50 -50v-545z" />
    <glyph glyph-name="afii10034" unicode="&#x420;" horiz-adv-x="598" 
d="M60 0v595c0 80 42 105 102 105h228c150 0 178 -105 178 -225s-28 -227 -178 -227h-198v-248h-132zM192 353h133c90 0 107 42 107 122s-17 120 -107 120h-83c-40 0 -50 -10 -50 -50v-192z" />
    <glyph glyph-name="afii10035" unicode="&#x421;" horiz-adv-x="539" 
d="M509 0h-192c-240 0 -277 150 -277 350s37 350 277 350h181v-105h-119c-170 0 -203 -55 -203 -245s33 -245 203 -245h130v-105z" />
    <glyph glyph-name="afii10036" unicode="&#x422;" horiz-adv-x="559" 
d="M345 0h-132v595h-213v105h559v-105h-214v-595z" />
    <glyph glyph-name="afii10037" unicode="&#x423;" horiz-adv-x="576" 
d="M323 0h-143l71 149l-265 551h146l177 -404l137 404h144z" />
    <glyph glyph-name="afii10038" unicode="&#x424;" horiz-adv-x="812" 
d="M340 700h132v-57h59c200 0 241 -106 241 -286s-41 -289 -241 -289h-59v-68h-132v68h-60c-200 0 -240 109 -240 289s40 286 240 286h60v57zM340 172v366h-20c-120 0 -144 -51 -144 -181s23 -185 144 -185h20zM472 172h20c120 0 144 55 144 185s-24 181 -144 181h-20v-366z
" />
    <glyph glyph-name="afii10039" unicode="&#x425;" horiz-adv-x="540" 
d="M554 0h-157l-127 252l-127 -252h-157l199 355l-191 345h157l119 -242l119 242h157l-191 -345z" />
    <glyph glyph-name="afii10040" unicode="&#x426;" horiz-adv-x="680" 
d="M192 700v-545c0 -40 10 -50 50 -50h214v595h132v-595h20c60 0 92 -25 92 -105v-135h-132v85c0 40 -10 50 -50 50h-356c-60 0 -102 25 -102 105v595h132z" />
    <glyph glyph-name="afii10041" unicode="&#x427;" horiz-adv-x="596" 
d="M536 0h-132v298h-201c-100 0 -153 64 -153 164v238h132v-214c0 -60 23 -83 83 -83h139v297h132v-700z" />
    <glyph glyph-name="afii10042" unicode="&#x428;" horiz-adv-x="924" 
d="M732 700h132v-595c0 -80 -42 -105 -102 -105h-600c-60 0 -102 25 -102 105v595h132v-545c0 -40 10 -50 50 -50h154v595h132v-595h154c40 0 50 10 50 50v545z" />
    <glyph glyph-name="afii10043" unicode="&#x429;" horiz-adv-x="962" 
d="M800 0h-638c-60 0 -102 25 -102 105v595h132v-545c0 -40 10 -50 50 -50h154v595h132v-595h210v595h132v-595h20c60 0 92 -25 92 -105v-135h-132v85c0 40 -10 50 -50 50z" />
    <glyph glyph-name="afii10044" unicode="&#x42a;" horiz-adv-x="670" 
d="M0 595v105h165c60 0 102 -25 102 -105v-175h213c130 0 160 -89 160 -209s-30 -211 -158 -211h-245c-60 0 -102 25 -102 105v440c0 40 -10 50 -50 50h-85zM414 315h-147v-160c0 -40 10 -50 50 -50h97c66 0 90 36 90 106s-20 104 -90 104z" />
    <glyph glyph-name="afii10045" unicode="&#x42b;" horiz-adv-x="825" 
d="M765 0h-132v700h132v-700zM60 700h132v-280h203c130 0 160 -89 160 -209s-30 -211 -158 -211h-235c-60 0 -102 25 -102 105v595zM329 315h-137v-160c0 -40 10 -50 50 -50h87c66 0 90 36 90 106s-20 104 -90 104z" />
    <glyph glyph-name="afii10046" unicode="&#x42c;" horiz-adv-x="595" 
d="M60 700h132v-280h213c130 0 160 -89 160 -209s-30 -211 -158 -211h-245c-60 0 -102 25 -102 105v595zM339 315h-147v-160c0 -40 10 -50 50 -50h97c66 0 90 36 90 106s-20 104 -90 104z" />
    <glyph glyph-name="afii10047" unicode="&#x42d;" horiz-adv-x="550" 
d="M223 0h-183v105h121c155 0 202 46 211 198h-308v105h308c-11 143 -60 187 -211 187h-110v105h172c240 0 287 -150 287 -350s-47 -350 -287 -350z" />
    <glyph glyph-name="afii10048" unicode="&#x42e;" horiz-adv-x="909" 
d="M569 708c251 0 300 -75 300 -358s-49 -358 -300 -358c-235 0 -293 67 -299 313h-78v-305h-132v700h131v-290h80c7 233 67 298 298 298zM406 350c0 -200 11 -253 163 -253s164 53 164 253s-12 253 -164 253s-163 -53 -163 -253z" />
    <glyph glyph-name="afii10049" unicode="&#x42f;" horiz-adv-x="638" 
d="M578 0h-132v545c0 40 -10 50 -50 50h-113c-84 0 -99 -36 -99 -116s11 -129 84 -129h46c39 0 59 -19 59 -47v-16c0 -30 -16 -55 -33 -79l-146 -208h-160l186 240v5h-10c-117 0 -162 90 -162 234c0 140 45 221 175 221h253c60 0 102 -25 102 -105v-595z" />
    <glyph glyph-name="afii10065" unicode="&#x430;" horiz-adv-x="485" 
d="M69 530h221c100 0 149 -66 149 -156v-284c0 -60 -30 -90 -90 -90h-187c-90 0 -132 55 -132 165c0 100 42 165 132 165h160v34c0 50 -24 76 -74 76h-179v90zM322 240h-115c-40 0 -56 -25 -56 -75s16 -75 56 -75h85c20 0 30 10 30 30v120z" />
    <glyph glyph-name="afii10066" unicode="&#x431;" horiz-adv-x="524" 
d="M463 610h-181c-80 0 -119 -22 -119 -102h128c157 0 203 -78 203 -248c0 -190 -27 -266 -227 -266c-160 0 -221 42 -221 212v287c0 130 52 207 182 207h235v-90zM163 418v-212c0 -90 32 -122 102 -122c90 0 108 66 108 176c0 80 -8 158 -108 158h-102z" />
    <glyph glyph-name="afii10067" unicode="&#x432;" horiz-adv-x="487" 
d="M308 0h-172c-60 0 -90 30 -90 90v350c0 60 30 90 90 90h165c90 0 148 -26 148 -126c0 -70 -14 -119 -87 -128v-4c72 -12 91 -52 91 -122c0 -100 -35 -150 -145 -150zM163 229v-109c0 -20 10 -30 30 -30h71c50 0 68 20 68 70c0 40 -18 69 -68 69h-101zM163 319h101
c44 0 64 21 64 61s-20 60 -64 60h-71c-20 0 -30 -10 -30 -30v-91z" />
    <glyph glyph-name="afii10068" unicode="&#x433;" horiz-adv-x="389" 
d="M46 0v440c0 60 30 90 90 90h253v-90h-196c-20 0 -30 -10 -30 -30v-410h-117z" />
    <glyph glyph-name="afii10069" unicode="&#x434;" horiz-adv-x="581" 
d="M-14 -125v125c0 60 14 90 64 90h14l103 374c17 61 69 72 124 72c56 0 107 -14 123 -72l104 -374h13c50 0 64 -30 64 -90v-125h-117v95c0 20 -10 30 -30 30h-319c-17 0 -26 -11 -26 -30v-95h-117zM266 413l-80 -323h210l-81 323c-4 14 -11 24 -24 24c-12 0 -21 -9 -25 -24
z" />
    <glyph glyph-name="afii10070" unicode="&#x435;" horiz-adv-x="491" 
d="M444 0h-214c-160 0 -200 96 -200 266c0 210 46 270 216 270c140 0 215 -40 215 -210c0 -60 -22 -100 -82 -100h-228c0 -80 24 -136 114 -136h179v-90zM151 316h163c23 0 26 16 26 31c0 70 -34 99 -94 99c-80 0 -95 -40 -95 -130z" />
    <glyph glyph-name="afii10072" unicode="&#x436;" horiz-adv-x="646" 
d="M111 0h-125l130 226c12 21 19 33 19 47s-7 28 -15 43l-115 214h123l89 -186c10 -21 27 -45 27 -71s-11 -47 -20 -64zM380 0h-114v530h114v-530zM660 0h-125l-113 209c-9 17 -20 38 -20 64s17 50 27 71l89 186h123l-115 -214c-8 -15 -15 -29 -15 -43s7 -26 19 -47z" />
    <glyph glyph-name="afii10073" unicode="&#x437;" horiz-adv-x="454" 
d="M275 0h-235v90h191c50 0 68 20 68 70c0 40 -18 69 -68 69h-176v90h176c44 0 64 21 64 61s-20 60 -64 60h-182v90h219c90 0 148 -26 148 -126c0 -70 -14 -119 -87 -128v-4c72 -12 91 -52 91 -122c0 -100 -35 -150 -145 -150z" />
    <glyph glyph-name="afii10074" unicode="&#x438;" horiz-adv-x="531" 
d="M485 0h-117l4 377c0 11 -2 14 -6 14c-3 0 -9 0 -14 -14l-103 -311c-19 -57 -66 -72 -116 -72c-68 0 -87 37 -87 75v461h117l-5 -377c0 -9 0 -14 8 -14c7 0 11 6 14 14l106 317c20 61 78 66 112 66c26 0 87 -2 87 -81v-455z" />
    <glyph glyph-name="afii10075" unicode="&#x439;" horiz-adv-x="531" 
d="M485 0h-117l4 377c0 11 -2 14 -6 14c-3 0 -9 0 -14 -14l-103 -311c-19 -57 -66 -72 -116 -72c-68 0 -87 37 -87 75v461h117l-5 -377c0 -9 0 -14 8 -14c7 0 11 6 14 14l106 317c20 61 78 66 112 66c26 0 87 -2 87 -81v-455zM265 633c46 0 70 22 85 67h100
c-25 -98 -85 -140 -185 -140s-160 42 -184 140h100c14 -45 38 -67 84 -67z" />
    <glyph glyph-name="afii10076" unicode="&#x43a;" horiz-adv-x="450" 
d="M464 0h-135l-123 209c-9 16 -20 37 -20 64s16 51 27 71l99 186h133l-125 -216c-7 -13 -15 -24 -15 -41s8 -27 19 -45zM163 0h-117v530h117v-530z" />
    <glyph glyph-name="afii10077" unicode="&#x43b;" horiz-adv-x="486" 
d="M-10 0l159 482c15 46 52 54 94 54s79 -8 94 -54l159 -482h-128l-115 409c-2 7 -5 15 -10 15s-8 -8 -10 -15l-115 -409h-128z" />
    <glyph glyph-name="afii10078" unicode="&#x43c;" horiz-adv-x="672" 
d="M499 382l-79 -334c-10 -41 -41 -54 -84 -54s-74 14 -84 54l-80 334c-1 5 -4 11 -8 11c-6 0 -6 -6 -6 -9l5 -384h-117v460c0 62 53 76 101 76c44 0 88 -15 100 -67l76 -327c4 -15 7 -21 13 -21s9 6 13 21l76 327c12 52 56 67 100 67c48 0 101 -14 101 -76v-460h-117l5 384
c0 7 -3 10 -6 10c-5 0 -7 -5 -9 -12z" />
    <glyph glyph-name="afii10079" unicode="&#x43d;" horiz-adv-x="509" 
d="M463 0h-117v228h-183v-228h-117v530h117v-212h183v212h117v-530z" />
    <glyph glyph-name="afii10080" unicode="&#x43e;" horiz-adv-x="544" 
d="M272 536c180 0 242 -60 242 -270c0 -212 -62 -272 -242 -272s-242 60 -242 272c0 210 62 270 242 270zM151 266c0 -130 21 -182 121 -182s121 52 121 182s-21 180 -121 180s-121 -50 -121 -180z" />
    <glyph glyph-name="afii10081" unicode="&#x43f;" horiz-adv-x="510" 
d="M46 0v440c0 60 30 90 90 90h238c60 0 90 -30 90 -90v-440h-117v410c0 20 -10 30 -30 30h-124c-20 0 -30 -10 -30 -30v-410h-117z" />
    <glyph glyph-name="afii10082" unicode="&#x440;" horiz-adv-x="508" 
d="M136 530h135c170 0 207 -104 207 -264s-37 -266 -207 -266h-108v-170h-117v610c0 60 30 90 90 90zM163 414v-324h79c113 0 115 76 115 176s-2 174 -115 174h-49c-19 0 -30 -9 -30 -26z" />
    <glyph glyph-name="afii10083" unicode="&#x441;" horiz-adv-x="411" 
d="M379 440h-103c-123 0 -125 -74 -125 -174s2 -176 125 -176h115v-90h-144c-180 0 -217 106 -217 266s37 264 217 264h132v-90z" />
    <glyph glyph-name="afii10084" unicode="&#x442;" horiz-adv-x="435" 
d="M276 0h-117v440h-159v90h435v-90h-159v-440z" />
    <glyph glyph-name="afii10085" unicode="&#x443;" horiz-adv-x="490" 
d="M500 530l-246 -701h-119l63 171l-208 530h121l144 -387l126 387h119z" />
    <glyph glyph-name="afii10086" unicode="&#x444;" horiz-adv-x="734" 
d="M309 700h117v-170h80c168 0 198 -114 198 -264s-30 -266 -198 -266h-80v-170h-117v170h-80c-169 0 -199 116 -199 266s30 264 199 264h80v170zM309 90v350h-30c-120 0 -128 -64 -128 -174s8 -176 128 -176h30zM426 90h29c121 0 128 66 128 176s-7 174 -127 174h-30v-350z
" />
    <glyph glyph-name="afii10087" unicode="&#x445;" horiz-adv-x="441" 
d="M451 0h-137l-94 186l-93 -186h-137l153 272l-140 258h133l84 -172l84 172h133l-139 -258z" />
    <glyph glyph-name="afii10088" unicode="&#x446;" horiz-adv-x="535" 
d="M46 90v440h117v-410c0 -20 10 -30 30 -30h152v440h117v-440h17c60 0 70 -30 70 -90v-125h-117v95c0 19 -9 29 -26 30h-270c-60 0 -90 30 -90 90z" />
    <glyph glyph-name="afii10089" unicode="&#x447;" horiz-adv-x="481" 
d="M435 0h-117v222h-154c-100 0 -134 50 -134 150v158h117v-133c0 -60 14 -85 74 -85h97v218h117v-530z" />
    <glyph glyph-name="afii10090" unicode="&#x448;" horiz-adv-x="751" 
d="M705 530v-440c0 -60 -30 -90 -90 -90h-479c-60 0 -90 30 -90 90v440h117v-410c0 -20 10 -30 30 -30h124v440h117v-440h124c20 0 30 10 30 30v410h117z" />
    <glyph glyph-name="afii10091" unicode="&#x449;" horiz-adv-x="778" 
d="M649 0h-513c-60 0 -90 30 -90 90v440h117v-410c0 -20 10 -30 30 -30h124v440h117v-440h154v440h117v-440h17c60 0 70 -30 70 -90v-125h-117v95c0 19 -9 29 -26 30z" />
    <glyph glyph-name="afii10092" unicode="&#x44a;" horiz-adv-x="574" 
d="M0 440v90h165c60 0 90 -30 90 -90v-111h159c104 0 134 -64 134 -164s-30 -165 -134 -165h-186c-60 0 -90 30 -90 90v320c0 20 -10 30 -30 30h-108zM255 239v-119c0 -20 10 -30 30 -30h80c50 0 62 25 62 75s-12 74 -62 74h-110z" />
    <glyph glyph-name="afii10093" unicode="&#x44b;" horiz-adv-x="672" 
d="M509 0v530h117v-530h-117zM312 0h-176c-60 0 -90 30 -90 90v440h117v-201h149c104 0 134 -64 134 -164s-30 -165 -134 -165zM163 239v-119c0 -20 10 -30 30 -30h70c50 0 62 25 62 75s-12 74 -62 74h-100z" />
    <glyph glyph-name="afii10094" unicode="&#x44c;" horiz-adv-x="482" 
d="M322 0h-186c-60 0 -90 30 -90 90v440h117v-201h159c104 0 134 -64 134 -164s-30 -165 -134 -165zM163 239v-119c0 -20 10 -30 30 -30h80c50 0 62 25 62 75s-12 74 -62 74h-110z" />
    <glyph glyph-name="afii10095" unicode="&#x44d;" horiz-adv-x="450" 
d="M176 440h-134v90h161c180 0 217 -104 217 -264s-37 -266 -217 -266h-173v90h146c108 0 121 59 124 142h-251v90h250c-7 70 -25 118 -123 118z" />
    <glyph glyph-name="afii10096" unicode="&#x44e;" horiz-adv-x="752" 
d="M480 536c180 0 242 -60 242 -270c0 -212 -62 -272 -242 -272c-169 0 -234 53 -241 234h-76v-228h-117v530h117v-212h76c11 168 77 218 241 218zM359 266c0 -130 21 -182 121 -182s121 52 121 182s-21 180 -121 180s-121 -50 -121 -180z" />
    <glyph glyph-name="afii10097" unicode="&#x44f;" horiz-adv-x="514" 
d="M30 0l134 183c5 6 7 9 7 12c0 6 -6 6 -10 6h-4c-90 0 -120 75 -120 165s30 164 130 164h211c60 0 90 -30 90 -90v-440h-117v410c0 20 -10 30 -30 30h-105c-42 0 -58 -22 -58 -74s16 -79 58 -79h25c13 0 51 -2 51 -55c0 -38 -9 -61 -24 -84l-95 -148h-143z" />
    <glyph glyph-name="afii10071" unicode="&#x451;" horiz-adv-x="491" 
d="M444 0h-214c-160 0 -200 96 -200 266c0 210 46 270 216 270c140 0 215 -40 215 -210c0 -60 -22 -100 -82 -100h-228c0 -80 24 -136 114 -136h179v-90zM151 316h163c23 0 26 16 26 31c0 70 -34 99 -94 99c-80 0 -95 -40 -95 -130zM299 597v108h108v-108h-108zM191 597
h-108v108h108v-108z" />
    <glyph glyph-name="afii10099" unicode="&#x452;" horiz-adv-x="510" 
d="M58 0v590h-68v66h68v44h117v-44h105v-66h-105v-60h99c120 0 196 -41 196 -181v-200c0 -120 -36 -226 -107 -319h-130c71 93 120 194 120 324v164c0 80 -21 122 -101 122h-77v-440h-117z" />
    <glyph glyph-name="afii10100" unicode="&#x453;" horiz-adv-x="389" 
d="M46 0v440c0 60 30 90 90 90h253v-90h-196c-20 0 -30 -10 -30 -30v-410h-117zM265 767l60 -75l-162 -132l-59 74z" />
    <glyph glyph-name="afii10101" unicode="&#x454;" horiz-adv-x="430" 
d="M388 440h-104c-98 0 -126 -48 -133 -118h230v-90h-231c3 -83 26 -142 134 -142h116v-90h-143c-180 0 -227 106 -227 266s47 264 227 264h131v-90z" />
    <glyph glyph-name="afii10102" unicode="&#x455;" horiz-adv-x="448" 
d="M33 0v90h218c24 0 49 3 49 38c0 56 -45 63 -91 84l-62 28c-107 48 -121 86 -121 162c0 96 45 128 152 128h219v-90h-201c-38 0 -56 -1 -56 -40c0 -45 25 -58 63 -76l74 -34c90 -41 145 -63 145 -165c0 -81 -29 -125 -130 -125h-259z" />
    <glyph glyph-name="afii10103" unicode="&#x456;" horiz-adv-x="209" 
d="M46 0v530h117v-530h-117zM163 600h-117v108h117v-108z" />
    <glyph glyph-name="afii10104" unicode="&#x457;" horiz-adv-x="213" 
d="M48 0v530h117v-530h-117zM123 600v108h94v-108h-94zM90 600h-94v108h94v-108z" />
    <glyph glyph-name="afii10105" unicode="&#x458;" horiz-adv-x="231" 
d="M-40 -178v90c8 -1 12 -1 17 -1c76 0 91 26 91 126v493h117v-507c0 -160 -60 -202 -190 -202c-11 0 -23 0 -35 1zM185 607h-117v93h117v-93z" />
    <glyph glyph-name="afii10106" unicode="&#x459;" horiz-adv-x="734" 
d="M574 0h-176c-60 0 -90 30 -90 90v332c0 21 -7 25 -14 25c-8 0 -15 -12 -19 -24l-154 -423h-135l191 474c18 46 51 62 127 62c91 0 121 -25 121 -78v-129h149c104 0 134 -64 134 -164s-30 -165 -134 -165zM425 239v-119c0 -20 10 -30 30 -30h70c50 0 62 25 62 75
s-12 74 -62 74h-100z" />
    <glyph glyph-name="afii10107" unicode="&#x45a;" horiz-adv-x="752" 
d="M592 0h-176c-60 0 -90 30 -90 90v141h-163v-231h-117v530h117v-209h163v209h117v-209h149c104 0 134 -60 134 -160s-30 -161 -134 -161zM443 231v-111c0 -20 10 -30 30 -30h70c50 0 62 21 62 71s-12 70 -62 70h-100z" />
    <glyph glyph-name="afii10108" unicode="&#x45b;" horiz-adv-x="516" 
d="M58 0v590h-68v66h68v44h117v-44h105v-66h-105v-60h99c120 0 196 -41 196 -181v-349h-117v318c0 80 -21 122 -101 122h-77v-440h-117z" />
    <glyph glyph-name="afii10109" unicode="&#x45c;" horiz-adv-x="450" 
d="M464 0h-135l-123 209c-9 16 -20 37 -20 64s16 51 27 71l99 186h133l-125 -216c-7 -13 -15 -24 -15 -41s8 -27 19 -45zM163 0h-117v530h117v-530zM285 767l60 -75l-162 -132l-59 74z" />
    <glyph glyph-name="afii10110" unicode="&#x45e;" horiz-adv-x="490" 
d="M500 530l-246 -701h-119l63 171l-208 530h121l144 -387l126 387h119zM244 633c46 0 70 22 85 67h100c-25 -98 -85 -140 -185 -140s-160 42 -184 140h100c14 -45 38 -67 84 -67z" />
    <glyph glyph-name="afii10193" unicode="&#x45f;" horiz-adv-x="520" 
d="M474 530v-440c0 -60 -30 -90 -90 -90h-64v-176h-120v176h-64c-60 0 -90 30 -90 90v440h117v-410c0 -20 10 -30 30 -30h134c20 0 30 10 30 30v410h117z" />
    <glyph glyph-name="afii10146" unicode="&#x462;" horiz-adv-x="727" 
d="M192 700h132v-84h196v-105h-196v-91h213c130 0 160 -89 160 -209s-30 -211 -158 -211h-245c-60 0 -102 25 -102 105v406h-192v105h192v84zM324 315v-160c0 -40 10 -50 50 -50h97c66 0 90 36 90 106s-20 104 -90 104h-147z" />
    <glyph glyph-name="afii10194" unicode="&#x463;" horiz-adv-x="574" 
d="M414 0h-186c-60 0 -90 30 -90 90v350h-138v90h138v170h117v-170h150v-90h-150v-111h159c104 0 134 -64 134 -164s-30 -165 -134 -165zM255 120c0 -20 10 -30 30 -30h80c50 0 62 25 62 75s-12 74 -62 74h-110v-119z" />
    <glyph glyph-name="afii10147" unicode="&#x472;" horiz-adv-x="680" 
d="M340 708c261 0 300 -75 300 -358s-39 -358 -300 -358c-259 0 -300 75 -300 358s41 358 300 358zM177 291c10 -152 9 -194 163 -194c164 0 161 48 164 228c-34 -25 -62 -36 -97 -36c-66 0 -88 48 -135 48c-35 0 -69 -15 -95 -46zM340 603c-159 0 -157 -45 -164 -210
c35 21 54 33 95 33c62 0 86 -49 136 -49c38 0 72 20 97 53c-14 135 -18 173 -164 173z" />
    <glyph glyph-name="afii10195" unicode="&#x473;" horiz-adv-x="544" 
d="M272 536c190 0 242 -60 242 -270c0 -212 -52 -272 -242 -272s-242 60 -242 272c0 210 52 270 242 270zM151 212c11 -91 19 -128 121 -128c114 0 117 47 121 163c-22 -19 -37 -31 -66 -31c-56 0 -77 34 -109 34c-21 0 -43 -12 -67 -38zM272 446c-111 0 -115 -43 -121 -152
c23 17 37 27 67 27c50 0 76 -37 109 -37c23 0 40 13 66 42c-13 85 -22 120 -121 120z" />
    <glyph glyph-name="afii10148" unicode="&#x474;" horiz-adv-x="611" 
d="M509 478l-95 -400c-12 -49 -53 -86 -123 -86s-109 38 -123 86l-184 622h143l149 -561c3 -10 6 -19 15 -19s13 9 15 19l66 338c37 194 90 232 200 232h39v-105h-5c-54 0 -67 -9 -97 -126z" />
    <glyph glyph-name="afii10196" unicode="&#x475;" horiz-adv-x="490" 
d="M412 358l-81 -307c-15 -56 -61 -57 -91 -57s-74 1 -92 57l-152 479h121l109 -393c5 -17 8 -21 14 -21s10 3 14 21l44 221c30 150 73 178 179 178c6 0 7 0 13 -1v-86c-3 1 -5 1 -8 1c-24 0 -46 -2 -70 -92z" />
    <glyph glyph-name="afii10050" unicode="&#x490;" horiz-adv-x="500" 
d="M368 825h132v-125c0 -80 -42 -105 -102 -105h-156c-40 0 -50 -10 -50 -50v-545h-132v595c0 80 42 105 102 105h156c40 0 50 10 50 50v75z" />
    <glyph glyph-name="afii10098" unicode="&#x491;" horiz-adv-x="398" 
d="M398 658v-128c0 -60 -30 -90 -90 -90h-121c-20 0 -30 -10 -30 -30v-410h-117v440c0 60 30 90 90 90h121c20 0 30 10 30 30v98h117z" />
    <glyph glyph-name="uni04C1" unicode="&#x4c1;" horiz-adv-x="888" 
d="M140 0h-160l201 297c15 22 31 45 31 64c0 16 -11 32 -23 52l-173 287h154l145 -262c16 -29 24 -55 24 -78c0 -20 -4 -59 -26 -93zM510 700v-700h-132v700h132zM908 0h-160l-173 267c-22 34 -26 73 -26 93c0 23 8 49 24 78l145 262h154l-173 -287c-12 -20 -23 -36 -23 -52
c0 -19 16 -42 31 -64zM443 811c46 0 70 22 85 67h100c-25 -98 -85 -140 -185 -140s-160 42 -184 140h100c14 -45 37 -67 84 -67z" />
    <glyph glyph-name="uni04C2" unicode="&#x4c2;" horiz-adv-x="646" 
d="M111 0h-125l130 226c12 21 19 33 19 47s-7 28 -15 43l-115 214h123l89 -186c10 -21 27 -45 27 -71s-11 -47 -20 -64zM380 0h-114v530h114v-530zM660 0h-125l-113 209c-9 17 -20 38 -20 64s17 50 27 71l89 186h123l-115 -214c-8 -15 -15 -29 -15 -43s7 -26 19 -47z
M322 633c46 0 70 22 85 67h100c-25 -98 -85 -140 -185 -140s-160 42 -184 140h100c14 -45 38 -67 84 -67z" />
    <glyph glyph-name="uni04D0" unicode="&#x4d0;" horiz-adv-x="626" 
d="M-6 0l194 619c22 70 62 89 125 89c60 0 103 -19 125 -89l194 -619h-139l-52 177h-257l-51 -177h-139zM293 556l-85 -285h209l-84 285c-6 20 -11 29 -20 29s-14 -9 -20 -29zM312 811c46 0 70 22 85 67h100c-25 -98 -85 -140 -185 -140s-160 42 -184 140h100
c14 -45 37 -67 84 -67z" />
    <glyph glyph-name="uni04D1" unicode="&#x4d1;" horiz-adv-x="485" 
d="M69 530h221c100 0 149 -66 149 -156v-284c0 -60 -30 -90 -90 -90h-187c-90 0 -132 55 -132 165c0 100 42 165 132 165h160v34c0 50 -24 76 -74 76h-179v90zM322 240h-115c-40 0 -56 -25 -56 -75s16 -75 56 -75h85c20 0 30 10 30 30v120zM242 633c46 0 70 22 85 67h100
c-25 -98 -85 -140 -185 -140s-160 42 -184 140h100c14 -45 38 -67 84 -67z" />
    <glyph glyph-name="uni04D2" unicode="&#x4d2;" horiz-adv-x="626" 
d="M-6 0l194 619c22 70 62 89 125 89c60 0 103 -19 125 -89l194 -619h-139l-52 177h-257l-51 -177h-139zM293 556l-85 -285h209l-84 285c-6 20 -11 29 -20 29s-14 -9 -20 -29zM484 760h-120v110h120v-110zM262 760h-120v110h120v-110z" />
    <glyph glyph-name="uni04D3" unicode="&#x4d3;" horiz-adv-x="485" 
d="M69 530h221c100 0 149 -66 149 -156v-284c0 -60 -30 -90 -90 -90h-187c-90 0 -132 55 -132 165c0 100 42 165 132 165h160v34c0 50 -24 76 -74 76h-179v90zM322 240h-115c-40 0 -56 -25 -56 -75s16 -75 56 -75h85c20 0 30 10 30 30v120zM296 597v108h108v-108h-108z
M188 597h-108v108h108v-108z" />
    <glyph glyph-name="uni04D4" unicode="&#x4d4;" horiz-adv-x="834" 
d="M804 105v-105h-339c-60 0 -102 25 -102 105v71h-170l-65 -176h-148l261 636c24 59 83 64 123 64h436v-105h-255c-40 0 -50 -10 -50 -50v-135h295v-105h-295v-150c0 -40 10 -50 50 -50h259zM335 566l-109 -291h137v320c-13 -3 -20 -7 -28 -29z" />
    <glyph glyph-name="uni04D5" unicode="&#x4d5;" horiz-adv-x="779" 
d="M732 0h-214c-47 0 -83 12 -110 34c-13 -21 -37 -34 -69 -34h-177c-90 0 -132 55 -132 165c0 100 42 165 132 165h160v34c0 50 -24 76 -74 76h-179v90h211c41 0 75 -13 101 -45c32 40 80 51 153 51c140 0 215 -40 215 -210c0 -60 -22 -100 -82 -100h-228v-12
c2 -74 28 -124 114 -124h179v-90zM322 240h-115c-40 0 -56 -25 -56 -75s16 -75 56 -75h85c20 0 30 10 30 30v120zM439 316h163c23 0 26 16 26 31c0 70 -34 99 -94 99c-80 0 -95 -40 -95 -130z" />
    <glyph glyph-name="uni04D6" unicode="&#x4d6;" horiz-adv-x="531" 
d="M501 105v-105h-339c-60 0 -102 25 -102 105v490c0 80 42 105 102 105h335v-105h-255c-40 0 -50 -10 -50 -50v-135h295v-105h-295v-150c0 -40 10 -50 50 -50h259zM265 811c46 0 70 22 85 67h100c-25 -98 -85 -140 -185 -140s-160 42 -184 140h100c14 -45 37 -67 84 -67z
" />
    <glyph glyph-name="uni04D7" unicode="&#x4d7;" horiz-adv-x="491" 
d="M444 0h-214c-160 0 -200 96 -200 266c0 210 46 270 216 270c140 0 215 -40 215 -210c0 -60 -22 -100 -82 -100h-228c0 -80 24 -136 114 -136h179v-90zM151 316h163c23 0 26 16 26 31c0 70 -34 99 -94 99c-80 0 -95 -40 -95 -130zM245 633c46 0 70 22 85 67h100
c-25 -98 -85 -140 -185 -140s-160 42 -184 140h100c14 -45 38 -67 84 -67z" />
    <glyph glyph-name="uni04D8" unicode="&#x4d8;" horiz-adv-x="620" 
d="M293 0h-46c-129 0 -207 53 -207 200c0 113 48 208 187 208h215c-1 143 -40 187 -191 187h-190v105h232c240 0 287 -150 287 -350s-47 -350 -287 -350zM273 105h8c115 0 161 46 161 198h-169c-64 0 -99 -27 -99 -98c0 -67 36 -100 99 -100z" />
    <glyph glyph-name="uni04D9" unicode="&#x4d9;" horiz-adv-x="491" 
d="M47 530h214c160 0 200 -96 200 -266c0 -210 -46 -270 -216 -270c-140 0 -215 40 -215 210c0 60 22 100 82 100h228c0 80 -24 136 -114 136h-179v90zM340 214h-163c-23 0 -26 -16 -26 -31c0 -70 34 -99 94 -99c80 0 95 40 95 130z" />
    <glyph glyph-name="uni04DA" unicode="&#x4da;" horiz-adv-x="620" 
d="M293 0h-46c-129 0 -207 53 -207 200c0 113 48 208 187 208h215c-1 143 -40 187 -191 187h-190v105h232c240 0 287 -150 287 -350s-47 -350 -287 -350zM273 105h8c115 0 161 46 161 198h-169c-64 0 -99 -27 -99 -98c0 -67 36 -100 99 -100zM471 760h-120v110h120v-110z
M249 760h-120v110h120v-110z" />
    <glyph glyph-name="uni04DB" unicode="&#x4db;" horiz-adv-x="491" 
d="M47 530h214c160 0 200 -96 200 -266c0 -210 -46 -270 -216 -270c-140 0 -215 40 -215 210c0 60 22 100 82 100h228c0 80 -24 136 -114 136h-179v90zM340 214h-163c-23 0 -26 -16 -26 -31c0 -70 34 -99 94 -99c80 0 95 40 95 130zM289 597v108h108v-108h-108zM181 597
h-108v108h108v-108z" />
    <glyph glyph-name="uni04DC" unicode="&#x4dc;" horiz-adv-x="888" 
d="M140 0h-160l201 297c15 22 31 45 31 64c0 16 -11 32 -23 52l-173 287h154l145 -262c16 -29 24 -55 24 -78c0 -20 -4 -59 -26 -93zM510 700v-700h-132v700h132zM908 0h-160l-173 267c-22 34 -26 73 -26 93c0 23 8 49 24 78l145 262h154l-173 -287c-12 -20 -23 -36 -23 -52
c0 -19 16 -42 31 -64zM615 760h-120v110h120v-110zM393 760h-120v110h120v-110z" />
    <glyph glyph-name="uni04DD" unicode="&#x4dd;" horiz-adv-x="646" 
d="M111 0h-125l130 226c12 21 19 33 19 47s-7 28 -15 43l-115 214h123l89 -186c10 -21 27 -45 27 -71s-11 -47 -20 -64zM380 0h-114v530h114v-530zM660 0h-125l-113 209c-9 17 -20 38 -20 64s17 50 27 71l89 186h123l-115 -214c-8 -15 -15 -29 -15 -43s7 -26 19 -47z
M377 597v108h108v-108h-108zM269 597h-108v108h108v-108z" />
    <glyph glyph-name="uni04DE" unicode="&#x4de;" horiz-adv-x="557" 
d="M393 354c82 -7 114 -71 114 -162c0 -107 -32 -192 -176 -192h-281v105h212c79 0 109 26 109 96s-30 100 -100 100h-207v105h205c69 0 87 26 87 96c0 60 -18 93 -88 93h-214v105h277c111 0 161 -66 161 -192c0 -75 -23 -139 -99 -150v-4zM449 760h-120v110h120v-110z
M227 760h-120v110h120v-110z" />
    <glyph glyph-name="uni04DF" unicode="&#x4df;" horiz-adv-x="454" 
d="M275 0h-235v90h191c50 0 68 20 68 70c0 40 -18 69 -68 69h-176v90h176c44 0 64 21 64 61s-20 60 -64 60h-182v90h219c90 0 148 -26 148 -126c0 -70 -14 -119 -87 -128v-4c72 -12 91 -52 91 -122c0 -100 -35 -150 -145 -150zM281 597v108h108v-108h-108zM173 597h-108v108
h108v-108z" />
    <glyph glyph-name="uni04E2" unicode="&#x4e2;" horiz-adv-x="666" 
d="M606 0h-133l5 532c0 11 -3 23 -12 23c-10 0 -18 -12 -24 -32l-148 -455c-14 -42 -50 -76 -121 -76c-101 0 -113 70 -113 120v588h133l-4 -522c0 -16 3 -32 14 -32c8 0 13 9 17 22l142 452c24 75 79 88 127 88c105 0 117 -81 117 -126v-582zM503 760h-340v84h340v-84z" />
    <glyph glyph-name="uni04E3" unicode="&#x4e3;" horiz-adv-x="531" 
d="M485 0h-117l4 377c0 11 -2 14 -6 14c-3 0 -9 0 -14 -14l-103 -311c-19 -57 -66 -72 -116 -72c-68 0 -87 37 -87 75v461h117l-5 -377c0 -9 0 -14 8 -14c7 0 11 6 14 14l106 317c20 61 78 66 112 66c26 0 87 -2 87 -81v-455zM435 600h-340v84h340v-84z" />
    <glyph glyph-name="uni04E4" unicode="&#x4e4;" horiz-adv-x="666" 
d="M606 0h-133l5 532c0 11 -3 23 -12 23c-10 0 -18 -12 -24 -32l-148 -455c-14 -42 -50 -76 -121 -76c-101 0 -113 70 -113 120v588h133l-4 -522c0 -16 3 -32 14 -32c8 0 13 9 17 22l142 452c24 75 79 88 127 88c105 0 117 -81 117 -126v-582zM504 760h-120v110h120v-110z
M282 760h-120v110h120v-110z" />
    <glyph glyph-name="uni04E5" unicode="&#x4e5;" horiz-adv-x="531" 
d="M485 0h-117l4 377c0 11 -2 14 -6 14c-3 0 -9 0 -14 -14l-103 -311c-19 -57 -66 -72 -116 -72c-68 0 -87 37 -87 75v461h117l-5 -377c0 -9 0 -14 8 -14c7 0 11 6 14 14l106 317c20 61 78 66 112 66c26 0 87 -2 87 -81v-455zM319 597v108h108v-108h-108zM211 597h-108v108
h108v-108z" />
    <glyph glyph-name="uni04E6" unicode="&#x4e6;" horiz-adv-x="680" 
d="M340 708c241 0 300 -85 300 -358s-59 -358 -300 -358c-239 0 -300 85 -300 358s61 358 300 358zM176 350c0 -190 22 -253 164 -253s164 63 164 253s-22 253 -164 253s-164 -63 -164 -253zM511 760h-120v110h120v-110zM289 760h-120v110h120v-110z" />
    <glyph glyph-name="uni04E7" unicode="&#x4e7;" horiz-adv-x="544" 
d="M272 536c180 0 242 -60 242 -270c0 -212 -62 -272 -242 -272s-242 60 -242 272c0 210 62 270 242 270zM151 266c0 -130 21 -182 121 -182s121 52 121 182s-21 180 -121 180s-121 -50 -121 -180zM326 597v108h108v-108h-108zM218 597h-108v108h108v-108z" />
    <glyph glyph-name="uni04EE" unicode="&#x4ee;" horiz-adv-x="576" 
d="M323 0h-143l71 149l-265 551h146l177 -404l137 404h144zM458 760h-340v84h340v-84z" />
    <glyph glyph-name="uni04EF" unicode="&#x4ef;" horiz-adv-x="490" 
d="M500 530l-246 -701h-119l63 171l-208 530h121l144 -387l126 387h119zM415 600h-340v84h340v-84z" />
    <glyph glyph-name="uni04F0" unicode="&#x4f0;" horiz-adv-x="576" 
d="M323 0h-143l71 149l-265 551h146l177 -404l137 404h144zM459 760h-120v110h120v-110zM237 760h-120v110h120v-110z" />
    <glyph glyph-name="uni04F1" unicode="&#x4f1;" horiz-adv-x="490" 
d="M500 530l-246 -701h-119l63 171l-208 530h121l144 -387l126 387h119zM299 597v108h108v-108h-108zM191 597h-108v108h108v-108z" />
    <glyph glyph-name="uni04F2" unicode="&#x4f2;" horiz-adv-x="576" 
d="M323 0h-143l71 149l-265 551h146l177 -404l137 404h144zM222 953l67 -66l-148 -147l-67 66zM434 953l67 -66l-148 -147l-66 66z" />
    <glyph glyph-name="uni04F3" unicode="&#x4f3;" horiz-adv-x="490" 
d="M500 530l-246 -701h-119l63 171l-208 530h121l144 -387l126 387h119zM181 773l63 -62l-148 -147l-63 62zM393 773l63 -62l-148 -147l-62 62z" />
    <glyph glyph-name="uni04F4" unicode="&#x4f4;" horiz-adv-x="596" 
d="M536 0h-132v298h-201c-100 0 -153 64 -153 164v238h132v-214c0 -60 23 -83 83 -83h139v297h132v-700zM469 760h-120v110h120v-110zM247 760h-120v110h120v-110z" />
    <glyph glyph-name="uni04F5" unicode="&#x4f5;" horiz-adv-x="481" 
d="M435 0h-117v222h-154c-100 0 -134 50 -134 150v158h117v-133c0 -60 14 -85 74 -85h97v218h117v-530zM294 597v108h108v-108h-108zM186 597h-108v108h108v-108z" />
    <glyph glyph-name="uni04F8" unicode="&#x4f8;" horiz-adv-x="825" 
d="M765 0h-132v700h132v-700zM60 700h132v-280h203c130 0 160 -89 160 -209s-30 -211 -158 -211h-235c-60 0 -102 25 -102 105v595zM329 315h-137v-160c0 -40 10 -50 50 -50h87c66 0 90 36 90 106s-20 104 -90 104zM583 760h-120v110h120v-110zM361 760h-120v110h120v-110z
" />
    <glyph glyph-name="uni04F9" unicode="&#x4f9;" horiz-adv-x="672" 
d="M509 0v530h117v-530h-117zM312 0h-176c-60 0 -90 30 -90 90v440h117v-201h149c104 0 134 -64 134 -164s-30 -165 -134 -165zM163 239v-119c0 -20 10 -30 30 -30h70c50 0 62 25 62 75s-12 74 -62 74h-100zM390 597v108h108v-108h-108zM282 597h-108v108h108v-108z" />
    <glyph glyph-name="uni2010" unicode="&#x2010;" horiz-adv-x="380" 
d="M40 218v103h300v-103h-300z" />
    <glyph glyph-name="uni2011" unicode="&#x2011;" horiz-adv-x="380" 
d="M40 218v103h300v-103h-300z" />
    <glyph glyph-name="figuredash" unicode="&#x2012;" horiz-adv-x="512" 
d="M40 302v103h432v-103h-432z" />
    <glyph glyph-name="endash" unicode="&#x2013;" horiz-adv-x="512" 
d="M40 218v103h432v-103h-432z" />
    <glyph glyph-name="emdash" unicode="&#x2014;" horiz-adv-x="827" 
d="M40 218v103h747v-103h-747z" />
    <glyph glyph-name="afii00208" unicode="&#x2015;" horiz-adv-x="827" 
d="M40 218v103h747v-103h-747z" />
    <glyph glyph-name="quoteleft" unicode="&#x2018;" horiz-adv-x="300" 
d="M260 542l-94 -58l-126 201l87 53z" />
    <glyph glyph-name="quoteright" unicode="&#x2019;" horiz-adv-x="302" 
d="M128 484l-88 53l127 201l95 -58z" />
    <glyph glyph-name="quotesinglbase" unicode="&#x201a;" horiz-adv-x="281" 
d="M87 -116l-87 53l127 201l94 -58z" />
    <glyph glyph-name="quotedblleft" unicode="&#x201c;" horiz-adv-x="504" 
d="M127 738l132 -196l-93 -58l-126 201zM331 738l133 -196l-93 -58l-127 201z" />
    <glyph glyph-name="quotedblright" unicode="&#x201d;" horiz-adv-x="504" 
d="M40 537l126 201l94 -58l-134 -196zM245 537l125 201l94 -58l-134 -196z" />
    <glyph glyph-name="quotedblbase" unicode="&#x201e;" horiz-adv-x="485" 
d="M0 -63l126 201l94 -58l-133 -196zM204 -63l127 201l94 -58l-134 -196z" />
    <glyph glyph-name="dagger" unicode="&#x2020;" horiz-adv-x="413" 
d="M265 -170h-117v581h-108v90h108v199h117v-199h108v-90h-108v-581z" />
    <glyph glyph-name="daggerdbl" unicode="&#x2021;" horiz-adv-x="413" 
d="M265 -170h-117v193h-108v90h108v298h-108v90h108v199h117v-199h108v-90h-108v-298h108v-90h-108v-193z" />
    <glyph glyph-name="bullet" unicode="&#x2022;" horiz-adv-x="493" 
d="M60 349c0 102 83 186 187 186c102 0 186 -83 186 -186c0 -101 -84 -187 -186 -187c-104 0 -187 86 -187 187z" />
    <glyph glyph-name="ellipsis" unicode="&#x2026;" horiz-adv-x="664" 
d="M182 0h-122v129h122v-129zM393 0h-122v129h122v-129zM604 0h-122v129h122v-129z" />
    <glyph glyph-name="perthousand" unicode="&#x2030;" horiz-adv-x="1097" 
d="M176 0l317 700h88l-317 -700h-88zM195 706c120 0 145 -58 145 -168c0 -112 -25 -168 -145 -168s-145 56 -145 168c0 110 25 168 145 168zM142 538c0 -60 3 -91 53 -91s53 31 53 91s-3 91 -53 91s-53 -31 -53 -91zM562 330c120 0 145 -58 145 -168
c0 -112 -25 -168 -145 -168s-145 56 -145 168c0 110 25 168 145 168zM509 162c0 -60 3 -91 53 -91s53 31 53 91s-3 91 -53 91s-53 -31 -53 -91zM902 330c120 0 145 -58 145 -168c0 -112 -25 -168 -145 -168s-145 56 -145 168c0 110 25 168 145 168zM849 162
c0 -60 3 -91 53 -91s53 31 53 91s-3 91 -53 91s-53 -31 -53 -91z" />
    <glyph glyph-name="guilsinglleft" unicode="&#x2039;" horiz-adv-x="358" 
d="M298 473l-113 -162c-4 -7 -12 -17 -12 -30c0 -11 5 -22 12 -30l113 -162l-80 -59l-137 190c-9 13 -21 32 -21 61s12 48 21 61l137 191z" />
    <glyph glyph-name="guilsinglright" unicode="&#x203a;" horiz-adv-x="358" 
d="M60 473l80 60l137 -191c9 -13 21 -32 21 -61s-12 -48 -21 -61l-137 -190l-80 59l113 162c7 8 12 19 12 30c0 13 -8 23 -12 30z" />
    <glyph glyph-name="fraction" unicode="&#x2044;" horiz-adv-x="426" 
d="M69 -166h-69l357 906h69z" />
    <glyph glyph-name="Euro" unicode="&#x20ac;" horiz-adv-x="562" 
d="M532 0h-182c-186 0 -232 90 -256 224h-74v89h65c-1 12 -1 24 -1 37s0 25 1 38h-65v89h74c25 133 70 223 256 223h171v-105h-109c-124 0 -165 -29 -179 -118h214v-89h-226c-1 -12 -1 -25 -1 -38s0 -26 1 -37h168v-89h-156c14 -90 55 -119 179 -119h120v-105z" />
    <glyph glyph-name="uni20B4" unicode="&#x20b4;" horiz-adv-x="540" 
d="M471 105v-105h-251c-108 0 -150 33 -150 116c0 49 24 82 49 112h-109v89h520v-89h-267c-44 -49 -57 -70 -57 -95c0 -18 9 -28 66 -28h199zM530 392h-520v89h267c36 42 57 63 57 84c0 30 -26 30 -59 30h-205v105h240c111 0 160 -29 160 -119c0 -44 -12 -70 -37 -100h97
v-89z" />
    <glyph glyph-name="uni20B6" unicode="&#x20b6;" 
d="M70 393v202c0 80 42 105 102 105h168c150 0 178 -95 178 -205s-28 -207 -178 -207h-138v-85h110v-105h-110v-98h-132v98h-70v105h70v85h-70v105h70zM202 393h83c80 0 97 32 97 102s-17 100 -97 100h-33c-40 0 -50 -10 -50 -50v-152z" />
    <glyph glyph-name="uni20B7" unicode="&#x20b7;" 
d="M70 393v202c0 80 42 105 102 105h168c150 0 178 -95 178 -205s-28 -207 -178 -207h-138v-85h110v-105h-110v-98h-132v98h-70v105h70v85h-70v105h70zM202 393h83c80 0 97 32 97 102s-17 100 -97 100h-33c-40 0 -50 -10 -50 -50v-152z" />
    <glyph glyph-name="uni20B8" unicode="&#x20b8;" 
d="M70 393v202c0 80 42 105 102 105h168c150 0 178 -95 178 -205s-28 -207 -178 -207h-138v-85h110v-105h-110v-98h-132v98h-70v105h70v85h-70v105h70zM202 393h83c80 0 97 32 97 102s-17 100 -97 100h-33c-40 0 -50 -10 -50 -50v-152z" />
    <glyph glyph-name="uni20B9" unicode="&#x20b9;" 
d="M70 393v202c0 80 42 105 102 105h168c150 0 178 -95 178 -205s-28 -207 -178 -207h-138v-85h110v-105h-110v-98h-132v98h-70v105h70v85h-70v105h70zM202 393h83c80 0 97 32 97 102s-17 100 -97 100h-33c-40 0 -50 -10 -50 -50v-152z" />
    <glyph glyph-name="uni20BA" unicode="&#x20ba;" 
d="M70 393v202c0 80 42 105 102 105h168c150 0 178 -95 178 -205s-28 -207 -178 -207h-138v-85h110v-105h-110v-98h-132v98h-70v105h70v85h-70v105h70zM202 393h83c80 0 97 32 97 102s-17 100 -97 100h-33c-40 0 -50 -10 -50 -50v-152z" />
    <glyph glyph-name="uni20BB" unicode="&#x20bb;" 
d="M70 393v202c0 80 42 105 102 105h168c150 0 178 -95 178 -205s-28 -207 -178 -207h-138v-85h110v-105h-110v-98h-132v98h-70v105h70v85h-70v105h70zM202 393h83c80 0 97 32 97 102s-17 100 -97 100h-33c-40 0 -50 -10 -50 -50v-152z" />
    <glyph glyph-name="uni20BC" unicode="&#x20bc;" 
d="M70 393v202c0 80 42 105 102 105h168c150 0 178 -95 178 -205s-28 -207 -178 -207h-138v-85h110v-105h-110v-98h-132v98h-70v105h70v85h-70v105h70zM202 393h83c80 0 97 32 97 102s-17 100 -97 100h-33c-40 0 -50 -10 -50 -50v-152z" />
    <glyph glyph-name="uni20BD" unicode="&#x20bd;" 
d="M70 393v202c0 80 42 105 102 105h168c150 0 178 -95 178 -205s-28 -207 -178 -207h-138v-85h110v-105h-110v-98h-132v98h-70v105h70v85h-70v105h70zM202 393h83c80 0 97 32 97 102s-17 100 -97 100h-33c-40 0 -50 -10 -50 -50v-152z" />
    <glyph glyph-name="uni20BE" unicode="&#x20be;" 
d="M70 393v202c0 80 42 105 102 105h168c150 0 178 -95 178 -205s-28 -207 -178 -207h-138v-85h110v-105h-110v-98h-132v98h-70v105h70v85h-70v105h70zM202 393h83c80 0 97 32 97 102s-17 100 -97 100h-33c-40 0 -50 -10 -50 -50v-152z" />
    <glyph glyph-name="uni20BF" unicode="&#x20bf;" 
d="M70 393v202c0 80 42 105 102 105h168c150 0 178 -95 178 -205s-28 -207 -178 -207h-138v-85h110v-105h-110v-98h-132v98h-70v105h70v85h-70v105h70zM202 393h83c80 0 97 32 97 102s-17 100 -97 100h-33c-40 0 -50 -10 -50 -50v-152z" />
    <glyph glyph-name="uni20C0" unicode="&#x20c0;" 
d="M70 393v202c0 80 42 105 102 105h168c150 0 178 -95 178 -205s-28 -207 -178 -207h-138v-85h110v-105h-110v-98h-132v98h-70v105h70v85h-70v105h70zM202 393h83c80 0 97 32 97 102s-17 100 -97 100h-33c-40 0 -50 -10 -50 -50v-152z" />
    <glyph glyph-name="uni20C1" unicode="&#x20c1;" 
d="M70 393v202c0 80 42 105 102 105h168c150 0 178 -95 178 -205s-28 -207 -178 -207h-138v-85h110v-105h-110v-98h-132v98h-70v105h70v85h-70v105h70zM202 393h83c80 0 97 32 97 102s-17 100 -97 100h-33c-40 0 -50 -10 -50 -50v-152z" />
    <glyph glyph-name="uni20C2" unicode="&#x20c2;" 
d="M70 393v202c0 80 42 105 102 105h168c150 0 178 -95 178 -205s-28 -207 -178 -207h-138v-85h110v-105h-110v-98h-132v98h-70v105h70v85h-70v105h70zM202 393h83c80 0 97 32 97 102s-17 100 -97 100h-33c-40 0 -50 -10 -50 -50v-152z" />
    <glyph glyph-name="uni20C3" unicode="&#x20c3;" 
d="M70 393v202c0 80 42 105 102 105h168c150 0 178 -95 178 -205s-28 -207 -178 -207h-138v-85h110v-105h-110v-98h-132v98h-70v105h70v85h-70v105h70zM202 393h83c80 0 97 32 97 102s-17 100 -97 100h-33c-40 0 -50 -10 -50 -50v-152z" />
    <glyph glyph-name="uni20C4" unicode="&#x20c4;" 
d="M70 393v202c0 80 42 105 102 105h168c150 0 178 -95 178 -205s-28 -207 -178 -207h-138v-85h110v-105h-110v-98h-132v98h-70v105h70v85h-70v105h70zM202 393h83c80 0 97 32 97 102s-17 100 -97 100h-33c-40 0 -50 -10 -50 -50v-152z" />
    <glyph glyph-name="uni20C5" unicode="&#x20c5;" 
d="M70 393v202c0 80 42 105 102 105h168c150 0 178 -95 178 -205s-28 -207 -178 -207h-138v-85h110v-105h-110v-98h-132v98h-70v105h70v85h-70v105h70zM202 393h83c80 0 97 32 97 102s-17 100 -97 100h-33c-40 0 -50 -10 -50 -50v-152z" />
    <glyph glyph-name="uni20C6" unicode="&#x20c6;" 
d="M70 393v202c0 80 42 105 102 105h168c150 0 178 -95 178 -205s-28 -207 -178 -207h-138v-85h110v-105h-110v-98h-132v98h-70v105h70v85h-70v105h70zM202 393h83c80 0 97 32 97 102s-17 100 -97 100h-33c-40 0 -50 -10 -50 -50v-152z" />
    <glyph glyph-name="uni20C7" unicode="&#x20c7;" 
d="M70 393v202c0 80 42 105 102 105h168c150 0 178 -95 178 -205s-28 -207 -178 -207h-138v-85h110v-105h-110v-98h-132v98h-70v105h70v85h-70v105h70zM202 393h83c80 0 97 32 97 102s-17 100 -97 100h-33c-40 0 -50 -10 -50 -50v-152z" />
    <glyph glyph-name="uni20C8" unicode="&#x20c8;" 
d="M70 393v202c0 80 42 105 102 105h168c150 0 178 -95 178 -205s-28 -207 -178 -207h-138v-85h110v-105h-110v-98h-132v98h-70v105h70v85h-70v105h70zM202 393h83c80 0 97 32 97 102s-17 100 -97 100h-33c-40 0 -50 -10 -50 -50v-152z" />
    <glyph glyph-name="uni20C9" unicode="&#x20c9;" 
d="M70 393v202c0 80 42 105 102 105h168c150 0 178 -95 178 -205s-28 -207 -178 -207h-138v-85h110v-105h-110v-98h-132v98h-70v105h70v85h-70v105h70zM202 393h83c80 0 97 32 97 102s-17 100 -97 100h-33c-40 0 -50 -10 -50 -50v-152z" />
    <glyph glyph-name="uni20CA" unicode="&#x20ca;" 
d="M70 393v202c0 80 42 105 102 105h168c150 0 178 -95 178 -205s-28 -207 -178 -207h-138v-85h110v-105h-110v-98h-132v98h-70v105h70v85h-70v105h70zM202 393h83c80 0 97 32 97 102s-17 100 -97 100h-33c-40 0 -50 -10 -50 -50v-152z" />
    <glyph glyph-name="uni20CB" unicode="&#x20cb;" 
d="M70 393v202c0 80 42 105 102 105h168c150 0 178 -95 178 -205s-28 -207 -178 -207h-138v-85h110v-105h-110v-98h-132v98h-70v105h70v85h-70v105h70zM202 393h83c80 0 97 32 97 102s-17 100 -97 100h-33c-40 0 -50 -10 -50 -50v-152z" />
    <glyph glyph-name="uni20CC" unicode="&#x20cc;" 
d="M70 393v202c0 80 42 105 102 105h168c150 0 178 -95 178 -205s-28 -207 -178 -207h-138v-85h110v-105h-110v-98h-132v98h-70v105h70v85h-70v105h70zM202 393h83c80 0 97 32 97 102s-17 100 -97 100h-33c-40 0 -50 -10 -50 -50v-152z" />
    <glyph glyph-name="uni20CD" unicode="&#x20cd;" 
d="M70 393v202c0 80 42 105 102 105h168c150 0 178 -95 178 -205s-28 -207 -178 -207h-138v-85h110v-105h-110v-98h-132v98h-70v105h70v85h-70v105h70zM202 393h83c80 0 97 32 97 102s-17 100 -97 100h-33c-40 0 -50 -10 -50 -50v-152z" />
    <glyph glyph-name="uni20CE" unicode="&#x20ce;" 
d="M70 393v202c0 80 42 105 102 105h168c150 0 178 -95 178 -205s-28 -207 -178 -207h-138v-85h110v-105h-110v-98h-132v98h-70v105h70v85h-70v105h70zM202 393h83c80 0 97 32 97 102s-17 100 -97 100h-33c-40 0 -50 -10 -50 -50v-152z" />
    <glyph glyph-name="uni20CF" unicode="&#x20cf;" 
d="M70 393v202c0 80 42 105 102 105h168c150 0 178 -95 178 -205s-28 -207 -178 -207h-138v-85h110v-105h-110v-98h-132v98h-70v105h70v85h-70v105h70zM202 393h83c80 0 97 32 97 102s-17 100 -97 100h-33c-40 0 -50 -10 -50 -50v-152z" />
    <glyph glyph-name="afii61352" unicode="&#x2116;" horiz-adv-x="1029" 
d="M689 263v82h270v-82h-270zM824 706c120 0 145 -48 145 -158c0 -112 -25 -158 -145 -158s-145 46 -145 158c0 110 25 158 145 158zM771 548c0 -50 3 -81 53 -81s53 31 53 81s-3 81 -53 81s-53 -31 -53 -81zM610 700v-609c0 -81 -57 -99 -114 -99c-53 0 -121 7 -143 79
l-135 446c-5 15 -13 17 -16 17c-5 0 -14 -5 -14 -20v-514h-128v613c0 70 50 95 117 95c63 0 122 -14 141 -75l137 -449c3 -10 7 -17 16 -17c11 0 11 12 11 17v516h128z" />
    <glyph glyph-name="trademark" unicode="&#x2122;" horiz-adv-x="949" 
d="M251 298h-109v313h-112v90h333v-90h-112v-313zM765 597l-38 -248c-5 -35 -35 -55 -75 -55s-70 20 -75 55l-37 248c-2 6 -7 12 -11 12c-3 0 -8 0 -8 -11v-300h-105v356c0 28 35 52 95 52c40 0 96 -3 102 -52l29 -232c3 -7 6 -13 10 -13s7 6 10 13l29 232
c6 49 62 52 102 52c60 0 96 -24 96 -52v-356h-105v300c0 11 -5 11 -8 11c-4 0 -9 -6 -11 -12z" />
    <glyph glyph-name="Omega" unicode="&#x2126;" horiz-adv-x="616" 
d="M167 106v14c-121 43 -127 159 -127 279c0 210 78 322 268 322s268 -112 268 -322c0 -120 -6 -236 -127 -279v-14h111v-106h-126c-60 0 -91 28 -91 88v73c0 28 12 39 32 48c41 18 65 45 65 192c0 125 -18 188 -132 188s-132 -63 -132 -188c0 -147 24 -174 65 -192
c18 -8 32 -20 32 -48v-73c0 -60 -31 -88 -91 -88h-126v106h111z" />
    <glyph glyph-name="partialdiff" unicode="&#x2202;" horiz-adv-x="573" 
d="M63 705h241c170 0 229 -66 229 -236v-379c0 -60 -30 -90 -90 -90h-225c-150 0 -192 105 -192 265c0 150 42 265 192 265h198c-10 59 -52 85 -112 85h-241v90zM416 440h-153c-100 0 -116 -75 -116 -175s16 -175 116 -175h123c20 0 30 10 30 30v320z" />
    <glyph glyph-name="Delta" unicode="&#x2206;" horiz-adv-x="560" 
d="M14 164l144 460c17 54 50 84 123 84c69 0 103 -27 121 -84l144 -460c9 -27 24 -73 24 -100c0 -62 -43 -64 -77 -64h-426c-33 0 -77 1 -77 65c0 27 15 72 24 99zM263 559l-119 -405c-5 -17 -10 -32 -10 -39c0 -10 14 -10 21 -10h250c7 0 21 0 21 12c0 9 -6 25 -10 37
l-120 405c-4 12 -8 22 -16 22s-14 -10 -17 -22z" />
    <glyph glyph-name="product" unicode="&#x220f;" horiz-adv-x="648" 
d="M192 0h-132v595c0 80 42 105 102 105h324c60 0 102 -25 102 -105v-595h-132v545c0 40 -10 50 -50 50h-164c-40 0 -50 -10 -50 -50v-545z" />
    <glyph glyph-name="summation" unicode="&#x2211;" horiz-adv-x="502" 
d="M158 564l143 -105c35 -26 67 -49 67 -99c0 -42 -23 -63 -65 -99l-145 -125c-6 -6 -17 -15 -17 -24c0 -7 10 -7 15 -7h316v-105h-365c-77 0 -77 63 -77 87c0 53 17 85 76 136l135 117c8 7 18 14 18 25s-12 20 -19 25l-138 101c-59 43 -72 78 -72 123c0 68 30 86 73 86h365
v-105h-312c-3 0 -17 0 -17 -9c0 -8 9 -13 19 -22z" />
    <glyph glyph-name="minus" unicode="&#x2212;" horiz-adv-x="580" 
d="M520 274h-460v85h460v-85z" />
    <glyph glyph-name="uni2215" unicode="&#x2215;" horiz-adv-x="426" 
d="M69 -166h-69l357 906h69z" />
    <glyph glyph-name="uni2219" unicode="&#x2219;" horiz-adv-x="242" 
d="M182 250h-122v129h122v-129z" />
    <glyph glyph-name="radical" unicode="&#x221a;" horiz-adv-x="658" 
d="M376 827h282v-105h-185l-174 -722h-140l-61 279h-98v105h189l21 -91c3 -13 10 -55 10 -71l5 -61v-12h11c12 133 30 220 49 297z" />
    <glyph glyph-name="infinity" unicode="&#x221e;" horiz-adv-x="842" 
d="M424 315c-43 -55 -112 -99 -192 -99c-110 0 -192 81 -192 196c0 113 82 196 189 196c58 0 137 -28 190 -100c49 65 123 100 192 100c109 0 191 -82 191 -195c0 -116 -83 -197 -191 -197c-68 0 -136 32 -187 99zM581 503c-44 0 -87 -40 -110 -91c20 -53 65 -91 113 -91
c69 0 89 55 89 92c0 56 -44 90 -92 90zM259 321c51 0 93 39 112 91c-20 53 -66 91 -114 91c-53 0 -87 -36 -87 -92c0 -60 38 -90 89 -90z" />
    <glyph glyph-name="integral" unicode="&#x222b;" horiz-adv-x="423" 
d="M270 530v-522c0 -139 -100 -178 -221 -178c-18 0 -29 0 -41 1v86c93 0 145 0 145 91v523c0 139 100 177 221 177c18 0 29 0 41 -1v-86c-93 0 -145 0 -145 -91z" />
    <glyph glyph-name="approxequal" unicode="&#x2248;" horiz-adv-x="473" 
d="M91 332l-51 36c27 41 67 83 121 83c27 0 47 -9 60 -16l41 -22c13 -7 30 -19 57 -19c33 0 48 26 63 54l51 -33c-25 -47 -64 -89 -124 -89c-19 0 -43 6 -64 17l-34 18c-19 10 -37 19 -56 19c-29 0 -50 -23 -64 -48zM91 186l-51 36c27 41 67 83 121 83c15 0 37 -3 60 -16
l40 -22c19 -11 36 -19 56 -19c34 0 50 24 65 54l51 -33c-25 -47 -64 -89 -124 -89c-19 0 -43 6 -64 17l-34 18c-19 10 -37 19 -56 19c-29 0 -50 -23 -64 -48z" />
    <glyph glyph-name="notequal" unicode="&#x2260;" horiz-adv-x="580" 
d="M520 197h-251l-62 -113h-69l62 113h-140v85h187l37 66h-224v85h271l59 107h69l-59 -107h120v-85h-167l-37 -66h204v-85z" />
    <glyph glyph-name="lessequal" unicode="&#x2264;" horiz-adv-x="581" 
d="M520 67h-460v85h460v-85zM60 424l461 232v-104l-277 -128l277 -128v-104z" />
    <glyph glyph-name="greaterequal" unicode="&#x2265;" horiz-adv-x="581" 
d="M61 67v85h460v-85h-460zM521 424l-461 -232v104l277 128l-277 128v104z" />
    <glyph glyph-name="dotmath" unicode="&#x22c5;" horiz-adv-x="242" 
d="M182 250h-122v129h122v-129z" />
    <glyph glyph-name="lozenge" unicode="&#x25ca;" horiz-adv-x="440" 
d="M390 350l-170 -375l-170 375l170 375zM306 350l-86 189l-86 -189l86 -189z" />
    <glyph glyph-name="uniF400" unicode="&#xf400;" horiz-adv-x="2" 
d="M-221 767l60 -75l-162 -132l-59 74z" />
    <glyph glyph-name="uniF401" unicode="&#xf401;" horiz-adv-x="2" 
d="M-298 947l64 -75l-166 -132l-63 74z" />
    <glyph glyph-name="uniF406" unicode="&#xf406;" horiz-adv-x="489" 
d="M244 811c50 0 80 22 95 67h90c-25 -98 -85 -140 -185 -140s-160 42 -184 140h90c14 -45 44 -67 94 -67z" />
    <glyph glyph-name="uniF407" unicode="&#xf407;" horiz-adv-x="258" 
d="M40 -190v56h78c12 0 28 1 28 17s-15 16 -26 16h-37c-20 0 -33 4 -33 24c0 9 4 17 7 24l26 53h60l-16 -32c-1 -3 -3 -7 -3 -8c0 -5 5 -5 8 -5h13c41 0 73 -20 73 -70s-28 -75 -82 -75h-96z" />
    <glyph glyph-name="uniF408" unicode="&#xf408;" horiz-adv-x="457" 
d="M371 740l-117 87c-9 6 -17 12 -25 12c-7 0 -16 -5 -26 -12l-117 -87l-56 70l152 107c17 12 27 16 46 16s29 -4 46 -16l153 -107z" />
    <glyph glyph-name="uniF409" unicode="&#xf409;" horiz-adv-x="218" 
d="M86 -289l-96 37l85 222l103 -41z" />
    <glyph glyph-name="uniF40A" unicode="&#xf40a;" horiz-adv-x="218" 
d="M86 464l-96 37l85 222l103 -41z" />
    <glyph glyph-name="uniF40B" unicode="&#xf40b;" horiz-adv-x="252" 
d="M192 757h-132v116h132v-116z" />
    <glyph glyph-name="uniF40C" unicode="&#xf40c;" horiz-adv-x="311" 
d="M156 959c80 0 115 -38 115 -114s-35 -114 -115 -114s-116 38 -116 114s36 114 116 114zM100 845c0 -36 16 -59 56 -59s55 23 55 59s-15 59 -55 59s-56 -23 -56 -59z" />
    <glyph glyph-name="uniF40D" unicode="&#xf40d;" horiz-adv-x="473" 
d="M91 745l-61 56c34 46 86 83 136 83c15 0 29 -2 51 -16l36 -22c16 -9 36 -19 54 -19c24 0 50 24 75 54l61 -53c-34 -46 -86 -89 -136 -89c-16 0 -38 4 -56 15l-32 20c-18 11 -32 19 -53 19s-51 -22 -75 -48z" />
    <glyph glyph-name="uniF40E" unicode="&#xf40e;" horiz-adv-x="225" 
d="M185 -180h-87c-30 0 -58 15 -58 55c0 13 3 25 10 37l46 88h80l-48 -88c-7 -13 -8 -16 -8 -19c0 -13 16 -13 23 -13h42v-60z" />
    <glyph glyph-name="uniF43E" unicode="&#xf43e;" horiz-adv-x="559" 
d="M192 -190v56h78c12 0 28 1 28 17s-15 16 -26 16h-37c-20 0 -33 4 -33 24c0 9 4 17 7 24l26 53h-22v595h-213v105h559v-105h-214v-595h-50l-16 -32c-1 -3 -3 -7 -3 -8c0 -5 5 -5 8 -5h13c41 0 73 -20 73 -70s-28 -75 -82 -75h-96z" />
    <glyph glyph-name="uniF43F" unicode="&#xf43f;" horiz-adv-x="290" 
d="M80 -190v56h78c12 0 28 1 28 17s-15 16 -26 16h-37c-20 0 -33 4 -33 24c0 9 4 17 7 24l35 72c-47 23 -69 71 -69 154v267h-63v90h63v170h117v-170h110v-90h-110v-243c0 -80 22 -107 102 -107h8v-90h-52c-20 0 -38 1 -54 3l-17 -35c-1 -3 -3 -7 -3 -8c0 -5 5 -5 8 -5h13
c41 0 73 -20 73 -70s-28 -75 -82 -75h-96z" />
    <glyph glyph-name="uniF47E" unicode="&#xf47e;" horiz-adv-x="628" 
d="M314 97c100 0 122 47 122 157v446h132v-446c0 -200 -74 -262 -254 -262s-254 62 -254 262v446h132v-446c0 -110 22 -157 122 -157zM380 757h-132v116h132v-116z" />
    <glyph glyph-name="uniF47F" unicode="&#xf47f;" horiz-adv-x="512" 
d="M466 530v-440c0 -60 -30 -90 -90 -90h-124c-120 0 -206 41 -206 181v349h117v-318c0 -80 31 -122 111 -122h45c20 0 30 10 30 30v410h117zM196 600v100h119v-100h-119z" />
    <glyph glyph-name="uniF483" unicode="&#xf483;" horiz-adv-x="509" 
d="M488 0h-382c-32 0 -96 0 -96 63c0 47 22 72 43 103l262 395c6 9 12 18 12 27c0 6 -3 7 -19 7h-271v105h383c39 0 79 -1 79 -58c0 -45 -23 -73 -40 -100l-267 -408c-4 -6 -10 -15 -10 -22s5 -7 12 -7h294v-105zM255 959c80 0 115 -38 115 -114s-35 -114 -115 -114
s-116 38 -116 114s36 114 116 114zM199 845c0 -36 16 -59 56 -59s55 23 55 59s-15 59 -55 59s-56 -23 -56 -59z" />
    <glyph glyph-name="uniF484" unicode="&#xf484;" horiz-adv-x="401" 
d="M85 0c-29 0 -75 1 -75 61c0 42 20 64 36 86l192 273c5 7 8 12 8 15s-2 5 -10 5h-219v90h305c41 0 69 -14 69 -57c0 -38 -18 -64 -31 -82l-195 -283c-4 -6 -8 -11 -8 -14s1 -4 9 -4h222v-90h-303zM201 788c80 0 115 -38 115 -114s-35 -114 -115 -114s-116 38 -116 114
s36 114 116 114zM145 674c0 -36 16 -59 56 -59s55 23 55 59s-15 59 -55 59s-56 -23 -56 -59z" />
    <glyph glyph-name="uniF4C4" unicode="&#xf4c4;" horiz-adv-x="559" 
d="M194 -190v56h78c12 0 28 1 28 17s-15 16 -26 16h-37c-20 0 -33 4 -33 24c0 9 4 17 7 24l26 53h-24v595h-213v105h559v-105h-214v-595h-48l-16 -32c-1 -3 -3 -7 -3 -8c0 -5 5 -5 8 -5h13c41 0 73 -20 73 -70s-28 -75 -82 -75h-96z" />
    <glyph glyph-name="uniF4C5" unicode="&#xf4c5;" horiz-adv-x="435" 
d="M132 -190v56h78c12 0 28 1 28 17s-15 16 -26 16h-37c-20 0 -33 4 -33 24c0 9 4 17 7 24l26 53h-16v440h-159v90h435v-90h-159v-440h-41l-16 -32c-1 -3 -3 -7 -3 -8c0 -5 5 -5 8 -5h13c41 0 73 -20 73 -70s-28 -75 -82 -75h-96z" />
    <glyph glyph-name="uniF4C8" unicode="&#xf4c8;" horiz-adv-x="539" 
d="M236 -190v56h78c12 0 28 1 28 17s-15 16 -26 16h-37c-20 0 -33 4 -33 24c0 9 4 17 7 24l27 55c-200 19 -240 162 -240 348c0 200 47 350 287 350h171v-105h-109c-170 0 -213 -55 -213 -245s43 -245 213 -245h120v-105h-170l-16 -32c-1 -3 -3 -7 -3 -8c0 -5 5 -5 8 -5h13
c41 0 73 -20 73 -70s-28 -75 -82 -75h-96z" />
    <glyph glyph-name="uniF4C9" unicode="&#xf4c9;" horiz-adv-x="435" 
d="M182 -190v56h78c12 0 28 1 28 17s-15 16 -26 16h-37c-20 0 -33 4 -33 24c0 9 4 17 7 24l27 54c-155 12 -196 114 -196 265c0 160 47 264 227 264h142v-90h-113c-123 0 -135 -74 -135 -174s12 -176 135 -176h125v-90h-125l-17 -32c-1 -3 -3 -7 -3 -8c0 -5 5 -5 8 -5h13
c41 0 73 -20 73 -70s-28 -75 -82 -75h-96z" />
    <glyph glyph-name="uniF4CC" unicode="&#xf4cc;" horiz-adv-x="576" 
d="M323 0h-143l71 149l-265 551h146l177 -404l137 404h144zM358 947l66 -75l-168 -132l-65 74z" />
    <glyph glyph-name="uniF4CD" unicode="&#xf4cd;" horiz-adv-x="490" 
d="M500 530l-246 -701h-119l63 171l-208 530h121l144 -387l126 387h119zM313 767l60 -75l-162 -132l-59 74z" />
    <glyph glyph-name="uniF6BA" unicode="&#xf6ba;" horiz-adv-x="380" 
d="M40 302v103h300v-103h-300z" />
    <glyph glyph-name="uniF6BB" unicode="&#xf6bb;" horiz-adv-x="512" 
d="M40 302v103h432v-103h-432z" />
    <glyph glyph-name="uniF6BC" unicode="&#xf6bc;" horiz-adv-x="827" 
d="M40 302v103h747v-103h-747z" />
    <glyph glyph-name="uniF6C3" unicode="&#xf6c3;" horiz-adv-x="218" 
d="M86 -279l-96 37l85 222l103 -41z" />
    <glyph glyph-name="uniF6C9" unicode="&#xf6c9;" horiz-adv-x="301" 
d="M201 947l66 -75l-168 -132l-65 74z" />
    <glyph glyph-name="uniF6CA" unicode="&#xf6ca;" horiz-adv-x="457" 
d="M86 923l117 -87c9 -6 17 -12 25 -12c7 0 16 5 26 12l117 87l56 -70l-152 -107c-17 -12 -27 -16 -46 -16s-29 4 -46 16l-153 107z" />
    <glyph glyph-name="uniF6CB" unicode="&#xf6cb;" horiz-adv-x="462" 
d="M402 760h-120v110h120v-110zM180 760h-120v110h120v-110z" />
    <glyph glyph-name="uniF6CE" unicode="&#xf6ce;" horiz-adv-x="301" 
d="M100 947l167 -133l-65 -74l-168 132z" />
    <glyph glyph-name="uniF6CF" unicode="&#xf6cf;" horiz-adv-x="507" 
d="M188 953l67 -66l-148 -147l-67 66zM400 953l67 -66l-148 -147l-66 66z" />
    <glyph glyph-name="uniF6D0" unicode="&#xf6d0;" horiz-adv-x="420" 
d="M380 760h-340v84h340v-84z" />
    <glyph glyph-name="uniF6D1" unicode="&#xf6d1;" horiz-adv-x="489" 
d="M244 811c46 0 70 22 85 67h100c-25 -98 -85 -140 -185 -140s-160 42 -184 140h100c14 -45 37 -67 84 -67z" />
    <glyph glyph-name="uniF6D4" unicode="&#xf6d4;" horiz-adv-x="449" 
d="M224 633c46 0 70 22 85 67h100c-25 -98 -85 -140 -185 -140s-160 42 -184 140h100c14 -45 38 -67 84 -67z" />
    <glyph glyph-name="uniF6DE" unicode="&#xf6de;" horiz-adv-x="650" 
d="M45 218v103h560v-103h-560z" />
    <glyph glyph-name="mu1" 
d="M60 -178v708h117v-327c0 -58 34 -120 95 -120c50 0 99 58 99 117v330h117v-530h-113v72c-29 -62 -55 -78 -104 -78c-41 0 -72 17 -99 71v-243h-112z" />
    <glyph glyph-name="afii10069.alt.1" horiz-adv-x="554" 
d="M0 0v90h50l113 384c12 42 49 62 114 62c66 0 101 -20 113 -62l114 -384h50v-90h-554zM252 413l-80 -323h210l-81 323c-6 23 -13 30 -24 30c-12 0 -19 -7 -25 -30z" />
    <glyph glyph-name="afii10043.alt.1" horiz-adv-x="960" 
d="M970 0h-808c-60 0 -102 25 -102 105v595h132v-545c0 -40 10 -50 50 -50h154v595h132v-595h210v595h132v-595h100v-105z" />
    <glyph glyph-name="afii10091.alt.1" horiz-adv-x="781" 
d="M785 0h-649c-60 0 -90 30 -90 90v440h117v-410c0 -20 10 -30 30 -30h124v440h117v-440h154v440h117v-440h80v-90z" />
    <glyph glyph-name="hyphenminus" horiz-adv-x="380" 
d="M40 218v103h300v-103h-300z" />
    <glyph glyph-name="afii10021.alt.1" horiz-adv-x="686" 
d="M56 105l155 519c20 67 72 84 132 84s112 -17 132 -84l155 -519h60v-105h-694v105h60zM316 559l-125 -454h304l-126 454c-5 17 -12 32 -26 32s-22 -15 -27 -32z" />
    <glyph glyph-name="afii10088.alt.1" horiz-adv-x="538" 
d="M46 90v440h117v-410c0 -20 10 -30 30 -30h152v440h117v-440h80v-90h-406c-60 0 -90 30 -90 90z" />
    <glyph glyph-name="afii10040.alt.1" horiz-adv-x="673" 
d="M192 700v-545c0 -40 10 -50 50 -50h209v595h132v-595h100v-105h-521c-60 0 -102 25 -102 105v595h132z" />
    <glyph glyph-name="dotlessi1" horiz-adv-x="197" 
d="M40 0v530h117v-530h-117z" />
    </font>
</defs>
</svg>
