<?xml version="1.0" encoding="UTF-8"?>
<svg width="60px" height="60px" viewBox="0 0 60 60" version="1.1" xmlns="http://www.w3.org/2000/svg" xmlns:xlink="http://www.w3.org/1999/xlink">
    <!-- Generator: Sketch 53.2 (72643) - https://sketchapp.com -->
    <title>icon / serivce</title>
    <desc>Created with Sketch.</desc>
    <g id="icon-/-serivce" stroke="none" stroke-width="1" fill="none" fill-rule="evenodd">
        <path d="M46.8,37.7733333 L44.3466667,36.3866667 L46.5066667,35.1866667 L49.4666667,36.84 C49.7866667,37.0266667 50,37.3733333 50,37.7466667 C50,38.12 49.7866667,38.4666667 49.4666667,38.6533333 L30.5066667,49.24 C30.3466667,49.32 30.16,49.3733333 30,49.3733333 C29.84,49.3733333 29.6533333,49.32 29.4933333,49.24 L10.5333333,38.6533333 C10.2133333,38.4666667 10,38.12 10,37.7466667 C10,37.3733333 10.2133333,37.0266667 10.5333333,36.84 L13.4933333,35.2133333 L15.6533333,36.4133333 L13.2,37.7733333 L30,47.16 L46.8,37.7733333 Z M49.4666667,21.7733333 C49.7866667,21.96 50,22.3066667 50,22.7066667 C50,23.08 49.7866667,23.4266667 49.4666667,23.6133333 L30.5066667,34.1733333 C30.3466667,34.2533333 30.16,34.3066667 30,34.3066667 C29.84,34.3066667 29.6533333,34.2533333 29.4933333,34.1733333 L10.5333333,23.5866667 C10.2133333,23.4 10,23.0533333 10,22.68 C10,22.3066667 10.2133333,21.96 10.5333333,21.7733333 L29.4933333,11.1866667 C29.8133333,11 30.1866667,11 30.5066667,11.1866667 L49.4666667,21.7733333 Z M30,32.0666667 L46.8,22.68 L30,13.2933333 L13.2,22.68 L30,32.0666667 Z M46.8,30.2266667 L44.3466667,28.8666667 L46.5066667,27.6666667 L49.4666667,29.32 C49.7866667,29.5066667 50,29.8533333 50,30.2266667 C50,30.6 49.7866667,30.9466667 49.4666667,31.1333333 L30.5066667,41.72 C30.3466667,41.8 30.16,41.8533333 30,41.8533333 C29.84,41.8533333 29.6533333,41.8 29.4933333,41.72 L10.5333333,31.1333333 C10.2133333,30.9466667 10,30.6 10,30.2266667 C10,29.8533333 10.2133333,29.5066667 10.5333333,29.32 L13.4933333,27.6666667 L15.6533333,28.8666667 L13.2,30.2266667 L30,39.6133333 L46.8,30.2266667 Z" id="Combined-Shape" fill="#000000"></path>
    </g>
</svg>