<?xml version="1.0" standalone="no"?>
<!DOCTYPE svg PUBLIC "-//W3C//DTD SVG 1.1//EN" "http://www.w3.org/Graphics/SVG/1.1/DTD/svg11.dtd" >
<svg xmlns="http://www.w3.org/2000/svg" xmlns:xlink="http://www.w3.org/1999/xlink" version="1.1">
<metadata>
Created by FontForge 20170910 at Fri Mar 24 13:02:09 2017
 By Jimmy Wärting
Copyright \(c\) 2015 by Noel Leu. All rights reserved.
</metadata>
<defs>
<font id="GTWalsheimPro-Medium" horiz-adv-x="640" >
  <font-face 
    font-family="GT Walsheim Pro Medium"
    font-weight="500"
    font-stretch="normal"
    units-per-em="1000"
    panose-1="0 0 6 0 0 0 0 0 0 0"
    ascent="700"
    descent="-300"
    x-height="466"
    cap-height="700"
    bbox="-524 -223 1153 907"
    underline-thickness="50"
    underline-position="-100"
    stemh="103"
    stemv="115"
    unicode-range="U+000D-FB02"
  />
<missing-glyph horiz-adv-x="800" 
d="M400 -17c-225 0 -364 177 -364 367s139 367 364 367s364 -177 364 -367s-139 -367 -364 -367zM400 6c187 0 339 153 339 344c0 180 -145 345 -339 345c-195 0 -340 -164 -340 -345c0 -191 151 -344 340 -344zM243 457c-23 0 -42 20 -42 43c0 24 19 43 42 43
c24 0 43 -19 43 -43c0 -23 -19 -43 -43 -43zM540 457c-23 0 -42 20 -42 43c0 24 19 43 42 43c24 0 43 -19 43 -43c0 -23 -19 -43 -43 -43zM219 259l179 268l-110 -243h178v-25h-247zM132 207c0 15 4 40 26 52l23 13c16 9 15 28 15 57h17c0 -49 -7 -61 -20 -69l-22 -13
c-21 -12 -23 -31 -23 -40h-16zM616 157l-16 4c6 23 6 32 -13 41l-41 20c-51 25 -40 71 -31 98l15 -5c-12 -37 -10 -65 27 -82l40 -19c30 -14 24 -38 19 -57zM366 66c-65 0 -129 46 -198 162c67 -40 113 -71 188 -71c55 0 158 5 220 37c1 0 2 1 3 2
c-30 -66 -135 -130 -213 -130zM366 92c70 0 156 60 166 68c-59 -13 -106 -28 -174 -28c-35 0 -99 14 -133 42c40 -63 114 -82 141 -82z" />
    <glyph glyph-name="fi" unicode="fi" horiz-adv-x="610" 
d="M115 534c0 150 109 172 158 172c34 0 58 -4 73 -9v-92c-15 1 -27 4 -43 4c-33 0 -79 -5 -79 -73v-70h122v-91h-122v-375h-109v375h-95v91h95v68zM486 695c48 0 81 -36 81 -81s-33 -81 -81 -81s-81 36 -81 81s33 81 81 81zM431 0v466h109v-466h-109z" />
    <glyph glyph-name="fl" unicode="fl" horiz-adv-x="610" 
d="M115 534c0 150 109 172 158 172c34 0 58 -4 73 -9v-92c-15 1 -27 4 -43 4c-33 0 -79 -5 -79 -73v-70h122v-91h-122v-375h-109v375h-95v91h95v68zM431 700h109v-700h-109v700z" />
    <glyph glyph-name="f_f" unicode="ff" horiz-adv-x="742" 
d="M115 534c0 150 109 172 158 172c34 0 58 -4 73 -9v-92c-15 1 -27 4 -43 4c-33 0 -79 -5 -79 -73v-70h122v-91h-122v-375h-109v375h-95v91h95v68zM684 609c-33 0 -79 -5 -79 -73v-70h122v-91h-122v-375h-109v375h-95v91h95v68c0 150 109 172 158 172c34 0 58 -4 73 -9v-92
c-15 1 -27 4 -43 4z" />
    <glyph glyph-name="f_f_i" unicode="ffi" horiz-adv-x="991" 
d="M115 534c0 150 109 172 158 172c34 0 58 -4 73 -9v-92c-15 1 -27 4 -43 4c-33 0 -79 -5 -79 -73v-70h122v-91h-122v-375h-109v375h-95v91h95v68zM496 534c0 150 109 172 158 172c34 0 58 -4 73 -9v-92c-15 1 -27 4 -43 4c-33 0 -79 -5 -79 -73v-70h122v-91h-122v-375
h-109v375h-95v91h95v68zM867 695c48 0 81 -36 81 -81s-33 -81 -81 -81s-81 36 -81 81s33 81 81 81zM812 0v466h109v-466h-109z" />
    <glyph glyph-name="f_f_l" unicode="ffl" horiz-adv-x="991" 
d="M115 534c0 150 109 172 158 172c34 0 58 -4 73 -9v-92c-15 1 -27 4 -43 4c-33 0 -79 -5 -79 -73v-70h122v-91h-122v-375h-109v375h-95v91h95v68zM496 534c0 150 109 172 158 172c34 0 58 -4 73 -9v-92c-15 1 -27 4 -43 4c-33 0 -79 -5 -79 -73v-70h122v-91h-122v-375
h-109v375h-95v91h95v68zM812 700h109v-700h-109v700z" />
    <glyph glyph-name=".notdef" horiz-adv-x="800" 
d="M400 -17c-225 0 -364 177 -364 367s139 367 364 367s364 -177 364 -367s-139 -367 -364 -367zM400 6c187 0 339 153 339 344c0 180 -145 345 -339 345c-195 0 -340 -164 -340 -345c0 -191 151 -344 340 -344zM243 457c-23 0 -42 20 -42 43c0 24 19 43 42 43
c24 0 43 -19 43 -43c0 -23 -19 -43 -43 -43zM540 457c-23 0 -42 20 -42 43c0 24 19 43 42 43c24 0 43 -19 43 -43c0 -23 -19 -43 -43 -43zM219 259l179 268l-110 -243h178v-25h-247zM132 207c0 15 4 40 26 52l23 13c16 9 15 28 15 57h17c0 -49 -7 -61 -20 -69l-22 -13
c-21 -12 -23 -31 -23 -40h-16zM616 157l-16 4c6 23 6 32 -13 41l-41 20c-51 25 -40 71 -31 98l15 -5c-12 -37 -10 -65 27 -82l40 -19c30 -14 24 -38 19 -57zM366 66c-65 0 -129 46 -198 162c67 -40 113 -71 188 -71c55 0 158 5 220 37c1 0 2 1 3 2
c-30 -66 -135 -130 -213 -130zM366 92c70 0 156 60 166 68c-59 -13 -106 -28 -174 -28c-35 0 -99 14 -133 42c40 -63 114 -82 141 -82z" />
    <glyph glyph-name="CR" unicode="&#xd;" horiz-adv-x="250" 
 />
    <glyph glyph-name=".null" horiz-adv-x="0" 
 />
    <glyph glyph-name="space" unicode=" " horiz-adv-x="250" 
 />
    <glyph glyph-name="A" unicode="A" horiz-adv-x="603" 
d="M463 0l-27 89h-269l-27 -89h-125l236 700h101l236 -700h-125zM197 192h208l-104 347z" />
    <glyph glyph-name="B" unicode="B" horiz-adv-x="585" 
d="M401 360c76 -7 144 -65 144 -165c0 -121 -84 -195 -223 -195h-247v700h234c140 0 225 -68 225 -182c0 -95 -52 -142 -133 -158zM304 599h-114v-192h114c72 0 115 36 115 96c0 61 -42 96 -115 96zM320 101c69 0 110 39 110 106c0 59 -44 99 -109 99h-131v-205h130z" />
    <glyph glyph-name="C" unicode="C" horiz-adv-x="769" 
d="M399 -17c-228 0 -364 153 -364 367s136 367 364 367c193 0 318 -109 339 -257h-126c-22 95 -96 154 -212 154c-155 0 -244 -104 -244 -264s89 -264 244 -264c116 0 190 59 212 154h126c-21 -148 -146 -257 -339 -257z" />
    <glyph glyph-name="D" unicode="D" horiz-adv-x="695" 
d="M75 0v700h237c232 0 353 -168 353 -350s-121 -350 -353 -350h-237zM190 103h112c171 0 245 122 245 247s-74 247 -245 247h-112v-494z" />
    <glyph glyph-name="E" unicode="E" horiz-adv-x="544" 
d="M75 0v700h404v-103h-289v-198h289v-103h-289v-193h289v-103h-404z" />
    <glyph glyph-name="F" unicode="F" horiz-adv-x="529" 
d="M75 0v700h404v-103h-289v-222h289v-103h-289v-272h-115z" />
    <glyph glyph-name="G" unicode="G" horiz-adv-x="833" 
d="M813 351v-103h-77c-35 -162 -155 -265 -341 -265c-221 0 -361 157 -360 362c1 195 126 372 370 372c171 0 292 -101 304 -227h-126c-15 70 -78 124 -178 124c-171 0 -250 -124 -249 -269c-1 -145 91 -259 239 -259c115 0 192 52 220 162h-135v103h333z" />
    <glyph glyph-name="H" unicode="H" horiz-adv-x="669" 
d="M75 0v700h115v-301h289v301h115v-700h-115v296h-289v-296h-115z" />
    <glyph glyph-name="I" unicode="I" horiz-adv-x="265" 
d="M75 0v700h115v-700h-115z" />
    <glyph glyph-name="J" unicode="J" horiz-adv-x="536" 
d="M247 -17c-145 0 -227 99 -227 245h115c0 -83 37 -142 112 -142c76 0 114 58 114 141v473h115v-473c0 -146 -82 -244 -229 -244z" />
    <glyph glyph-name="K" unicode="K" horiz-adv-x="606" 
d="M596 700l-301 -345l301 -355h-146l-260 314v-314h-115v700h115v-316l261 316h145z" />
    <glyph glyph-name="L" unicode="L" horiz-adv-x="511" 
d="M75 0v700h115v-592h281v-108h-396z" />
    <glyph glyph-name="M" unicode="M" horiz-adv-x="817" 
d="M75 0v700h110l224 -536l223 536h110v-700h-110v463l-180 -463h-87l-180 468v-468h-110z" />
    <glyph glyph-name="N" unicode="N" horiz-adv-x="658" 
d="M75 0v700h121l277 -508v508h110v-700h-121l-277 508v-508h-110z" />
    <glyph glyph-name="O" unicode="O" horiz-adv-x="794" 
d="M397 -17c-227 0 -362 167 -362 367s135 367 362 367s362 -167 362 -367s-135 -367 -362 -367zM397 86c155 0 242 119 241 264c1 145 -86 264 -241 264s-242 -119 -241 -264c-1 -145 86 -264 241 -264z" />
    <glyph glyph-name="P" unicode="P" horiz-adv-x="583" 
d="M333 700c140 0 240 -102 240 -245s-100 -245 -240 -245h-143v-210h-115v700h258zM326 313c76 0 132 60 132 142s-56 142 -132 142h-136v-284h136z" />
    <glyph glyph-name="Q" unicode="Q" horiz-adv-x="794" 
d="M759 350c0 -159 -86 -297 -235 -347l75 -99l-101 -51l-99 130h-2c-227 0 -362 167 -362 367s135 367 362 367s362 -167 362 -367zM397 86c155 0 242 119 241 264c1 145 -86 264 -241 264s-242 -119 -241 -264c-1 -145 86 -264 241 -264z" />
    <glyph glyph-name="R" unicode="R" horiz-adv-x="608" 
d="M573 455c0 -109 -59 -195 -149 -229l138 -226h-131l-128 210h-113v-210h-115v700h258c140 0 240 -102 240 -245zM190 597v-284h136c76 0 132 60 132 142s-56 142 -132 142h-136z" />
    <glyph glyph-name="S" unicode="S" horiz-adv-x="552" 
d="M285 -17c-162 0 -255 89 -255 246h115c0 -91 52 -146 139 -146c76 0 118 35 118 98c0 53 -25 80 -104 112l-114 46c-88 34 -134 97 -134 186c0 114 92 192 224 192c139 0 231 -87 231 -219h-115c0 77 -42 121 -120 121c-66 0 -104 -34 -104 -87c0 -48 34 -80 116 -113
l103 -42c88 -36 132 -98 132 -193c0 -120 -93 -201 -232 -201z" />
    <glyph glyph-name="T" unicode="T" horiz-adv-x="532" 
d="M208 0v592h-203v108h522v-108h-204v-592h-115z" />
    <glyph glyph-name="U" unicode="U" 
d="M320 -17c-157 0 -260 86 -260 249v468h115v-461c0 -101 57 -153 145 -153s145 52 145 153v461h115v-468c0 -163 -103 -249 -260 -249z" />
    <glyph glyph-name="V" unicode="V" horiz-adv-x="574" 
d="M232 0l-232 700h125l162 -519l162 519h125l-232 -700h-110z" />
    <glyph glyph-name="W" unicode="W" horiz-adv-x="973" 
d="M242 0l-242 700h121l166 -509l157 509h85l157 -509l166 509h121l-242 -700h-83l-161 499l-162 -499h-83z" />
    <glyph glyph-name="X" unicode="X" horiz-adv-x="616" 
d="M15 0l228 350l-228 350h130l163 -256l163 256h130l-228 -350l228 -350h-130l-163 255l-163 -255h-130z" />
    <glyph glyph-name="Y" unicode="Y" horiz-adv-x="561" 
d="M455 700h126l-347 -700h-126l139 281l-262 419h133l188 -301z" />
    <glyph glyph-name="Z" unicode="Z" horiz-adv-x="581" 
d="M20 0l347 597h-304v103h493l-342 -597h330v-103h-524z" />
    <glyph glyph-name="Aacute" unicode="&#xc1;" horiz-adv-x="603" 
d="M429 824l-206 -93l-39 74l207 92zM463 0l-27 89h-269l-27 -89h-125l236 700h101l236 -700h-125zM197 192h208l-104 347z" />
    <glyph glyph-name="Abreve" unicode="&#x102;" horiz-adv-x="603" 
d="M302 732c-96 0 -166 63 -172 142h89c7 -48 42 -65 83 -65s76 17 83 65h89c-6 -79 -76 -142 -172 -142zM463 0l-27 89h-269l-27 -89h-125l236 700h101l236 -700h-125zM197 192h208l-104 347z" />
    <glyph glyph-name="Acircumflex" unicode="&#xc2;" horiz-adv-x="603" 
d="M298 809l-84 -76l-57 50l141 119l141 -119l-57 -50zM463 0l-27 89h-269l-27 -89h-125l236 700h101l236 -700h-125zM197 192h208l-104 347z" />
    <glyph glyph-name="Adieresis" unicode="&#xc4;" horiz-adv-x="603" 
d="M182 738c-42 0 -76 34 -76 76c0 43 34 77 76 77c43 0 77 -34 77 -77c0 -42 -34 -76 -77 -76zM421 738c-42 0 -76 34 -76 76c0 43 34 77 76 77c43 0 77 -34 77 -77c0 -42 -34 -76 -77 -76zM463 0l-27 89h-269l-27 -89h-125l236 700h101l236 -700h-125zM197 192h208
l-104 347z" />
    <glyph glyph-name="AE" unicode="&#xc6;" horiz-adv-x="863" 
d="M798 597h-269v-198h269v-103h-269v-193h269v-103h-384v94h-235l-44 -94h-125l345 700h443v-103zM224 192h190v410z" />
    <glyph glyph-name="AEacute" unicode="&#x1fc;" horiz-adv-x="863" 
d="M736 824l-206 -93l-39 74l207 92zM798 597h-269v-198h269v-103h-269v-193h269v-103h-384v94h-235l-44 -94h-125l345 700h443v-103zM224 192h190v410z" />
    <glyph glyph-name="Agrave" unicode="&#xc0;" horiz-adv-x="603" 
d="M419 805l-39 -74l-206 93l38 73zM463 0l-27 89h-269l-27 -89h-125l236 700h101l236 -700h-125zM197 192h208l-104 347z" />
    <glyph glyph-name="Amacron" unicode="&#x100;" horiz-adv-x="603" 
d="M497 850v-86h-390v86h390zM463 0l-27 89h-269l-27 -89h-125l236 700h101l236 -700h-125zM197 192h208l-104 347z" />
    <glyph glyph-name="Aogonek" unicode="&#x104;" horiz-adv-x="603" 
d="M555 -131c16 0 32 3 51 12v-78c-21 -8 -46 -15 -81 -15c-76 0 -125 46 -125 102c0 41 26 79 79 110h-16l-27 89h-269l-27 -89h-125l236 700h101l236 -700c-68 -10 -89 -45 -89 -77c0 -31 24 -54 56 -54zM197 192h208l-104 347z" />
    <glyph glyph-name="Aring" unicode="&#xc5;" horiz-adv-x="603" 
d="M463 0l-27 89h-269l-27 -89h-125l224 663c-40 22 -66 63 -66 109c0 71 57 127 129 127c74 0 134 -59 134 -127c0 -47 -29 -89 -71 -110l223 -662h-125zM302 835c-33 0 -61 -28 -61 -63c0 -34 28 -60 61 -60c36 0 63 26 63 61s-26 62 -63 62zM197 192h208l-104 347z" />
    <glyph glyph-name="Atilde" unicode="&#xc3;" horiz-adv-x="603" 
d="M218 790c-29 0 -45 -10 -71 -43l-45 43c38 65 75 82 108 82c72 0 111 -63 166 -63c30 0 52 9 82 47l43 -49c-35 -63 -82 -78 -117 -80c-75 -6 -116 63 -166 63zM463 0l-27 89h-269l-27 -89h-125l236 700h101l236 -700h-125zM197 192h208l-104 347z" />
    <glyph glyph-name="Cacute" unicode="&#x106;" horiz-adv-x="769" 
d="M321 731l-39 74l207 92l38 -73zM399 -17c-228 0 -364 153 -364 367s136 367 364 367c193 0 318 -109 339 -257h-126c-22 95 -96 154 -212 154c-155 0 -244 -104 -244 -264s89 -264 244 -264c116 0 190 59 212 154h126c-21 -148 -146 -257 -339 -257z" />
    <glyph glyph-name="Ccaron" unicode="&#x10c;" horiz-adv-x="769" 
d="M400 734l-141 119l57 50l84 -76l84 76l57 -50zM399 -17c-228 0 -364 153 -364 367s136 367 364 367c193 0 318 -109 339 -257h-126c-22 95 -96 154 -212 154c-155 0 -244 -104 -244 -264s89 -264 244 -264c116 0 190 59 212 154h126c-21 -148 -146 -257 -339 -257z" />
    <glyph glyph-name="Ccedilla" unicode="&#xc7;" horiz-adv-x="769" 
d="M400 86c116 0 190 59 212 154h126c-20 -140 -134 -246 -310 -256v-43c7 6 24 11 41 11c39 0 76 -26 76 -79c0 -49 -31 -89 -93 -89c-50 0 -85 25 -90 74h55c1 -18 17 -28 34 -28c21 0 36 14 36 42c0 27 -14 40 -35 40c-14 0 -25 -6 -32 -16h-49v88
c-211 12 -336 161 -336 366c0 214 136 367 364 367c193 0 318 -109 339 -257h-126c-22 95 -96 154 -212 154c-155 0 -244 -104 -244 -264s89 -264 244 -264z" />
    <glyph glyph-name="Ccircumflex" unicode="&#x108;" horiz-adv-x="769" 
d="M396 902l141 -119l-57 -50l-84 76l-84 -76l-57 50zM399 -17c-228 0 -364 153 -364 367s136 367 364 367c193 0 318 -109 339 -257h-126c-22 95 -96 154 -212 154c-155 0 -244 -104 -244 -264s89 -264 244 -264c116 0 190 59 212 154h126c-21 -148 -146 -257 -339 -257z
" />
    <glyph glyph-name="Cdotaccent" unicode="&#x10a;" horiz-adv-x="769" 
d="M400 734c-46 0 -77 34 -77 77s31 77 77 77s77 -34 77 -77s-31 -77 -77 -77zM399 -17c-228 0 -364 153 -364 367s136 367 364 367c193 0 318 -109 339 -257h-126c-22 95 -96 154 -212 154c-155 0 -244 -104 -244 -264s89 -264 244 -264c116 0 190 59 212 154h126
c-21 -148 -146 -257 -339 -257z" />
    <glyph glyph-name="Dcaron" unicode="&#x10e;" horiz-adv-x="695" 
d="M323 734l-141 119l57 50l84 -76l84 76l57 -50zM75 0v700h237c232 0 353 -168 353 -350s-121 -350 -353 -350h-237zM190 103h112c171 0 245 122 245 247s-74 247 -245 247h-112v-494z" />
    <glyph glyph-name="Dcroat" unicode="&#x110;" horiz-adv-x="695" 
d="M312 700c232 0 353 -168 353 -350s-121 -350 -353 -350h-237v302h-78v97h78v301h237zM302 103c171 0 245 122 245 247s-74 247 -245 247h-112v-198h122v-97h-122v-199h112z" />
    <glyph glyph-name="Eacute" unicode="&#xc9;" horiz-adv-x="544" 
d="M203 731l-39 74l207 92l38 -73zM75 0v700h404v-103h-289v-198h289v-103h-289v-193h289v-103h-404z" />
    <glyph glyph-name="Ebreve" unicode="&#x114;" horiz-adv-x="544" 
d="M282 732c-96 0 -166 63 -172 142h89c7 -48 42 -65 83 -65s76 17 83 65h89c-6 -79 -76 -142 -172 -142zM75 0v700h404v-103h-289v-198h289v-103h-289v-193h289v-103h-404z" />
    <glyph glyph-name="Ecaron" unicode="&#x11a;" horiz-adv-x="544" 
d="M282 734l-141 119l57 50l84 -76l84 76l57 -50zM75 0v700h404v-103h-289v-198h289v-103h-289v-193h289v-103h-404z" />
    <glyph glyph-name="Ecircumflex" unicode="&#xca;" horiz-adv-x="544" 
d="M278 902l141 -119l-57 -50l-84 76l-84 -76l-57 50zM75 0v700h404v-103h-289v-198h289v-103h-289v-193h289v-103h-404z" />
    <glyph glyph-name="Edieresis" unicode="&#xcb;" horiz-adv-x="544" 
d="M162 738c-42 0 -76 34 -76 76c0 43 34 77 76 77c43 0 77 -34 77 -77c0 -42 -34 -76 -77 -76zM401 738c-42 0 -76 34 -76 76c0 43 34 77 76 77c43 0 77 -34 77 -77c0 -42 -34 -76 -77 -76zM75 0v700h404v-103h-289v-198h289v-103h-289v-193h289v-103h-404z" />
    <glyph glyph-name="Edotaccent" unicode="&#x116;" horiz-adv-x="544" 
d="M282 734c-46 0 -77 34 -77 77s31 77 77 77s77 -34 77 -77s-31 -77 -77 -77zM75 0v700h404v-103h-289v-198h289v-103h-289v-193h289v-103h-404z" />
    <glyph glyph-name="Egrave" unicode="&#xc8;" horiz-adv-x="544" 
d="M360 731l-206 93l38 73l207 -92zM75 0v700h404v-103h-289v-198h289v-103h-289v-193h289v-103h-404z" />
    <glyph glyph-name="Emacron" unicode="&#x112;" horiz-adv-x="544" 
d="M87 764v86h390v-86h-390zM75 0v700h404v-103h-289v-198h289v-103h-289v-193h289v-103h-404z" />
    <glyph glyph-name="Eogonek" unicode="&#x118;" horiz-adv-x="544" 
d="M446 -131c16 0 32 3 51 12v-78c-21 -8 -46 -15 -81 -15c-76 0 -125 46 -125 102c0 41 26 79 79 110h-295v700h404v-103h-289v-198h289v-103h-289v-193h289v-103c-68 -10 -89 -45 -89 -77c0 -31 24 -54 56 -54z" />
    <glyph glyph-name="Eth" unicode="&#xd0;" horiz-adv-x="695" 
d="M312 700c232 0 353 -168 353 -350s-121 -350 -353 -350h-237v302h-78v97h78v301h237zM302 103c171 0 245 122 245 247s-74 247 -245 247h-112v-198h122v-97h-122v-199h112z" />
    <glyph glyph-name="Gbreve" unicode="&#x11e;" horiz-adv-x="833" 
d="M407 732c-96 0 -166 63 -172 142h89c7 -48 42 -65 83 -65s76 17 83 65h89c-6 -79 -76 -142 -172 -142zM813 351v-103h-77c-35 -162 -155 -265 -341 -265c-221 0 -361 157 -360 362c1 195 126 372 370 372c171 0 292 -101 304 -227h-126c-15 70 -78 124 -178 124
c-171 0 -250 -124 -249 -269c-1 -145 91 -259 239 -259c115 0 192 52 220 162h-135v103h333z" />
    <glyph glyph-name="Gcircumflex" unicode="&#x11c;" horiz-adv-x="833" 
d="M403 809l-84 -76l-57 50l141 119l141 -119l-57 -50zM813 351v-103h-77c-35 -162 -155 -265 -341 -265c-221 0 -361 157 -360 362c1 195 126 372 370 372c171 0 292 -101 304 -227h-126c-15 70 -78 124 -178 124c-171 0 -250 -124 -249 -269c-1 -145 91 -259 239 -259
c115 0 192 52 220 162h-135v103h333z" />
    <glyph glyph-name="Gcommaaccent" unicode="&#x122;" horiz-adv-x="833" 
d="M813 351v-103h-77c-35 -162 -155 -265 -341 -265c-221 0 -361 157 -360 362c1 195 126 372 370 372c171 0 292 -101 304 -227h-126c-15 70 -78 124 -178 124c-171 0 -250 -124 -249 -269c-1 -145 91 -259 239 -259c115 0 192 52 220 162h-135v103h333zM402 -30
c40 0 65 -28 65 -69c0 -78 -40 -109 -108 -110v34c22 0 38 5 49 13c10 8 12 19 13 30c-2 -2 -8 -4 -14 -4c-35 0 -58 23 -58 52c0 30 23 54 53 54z" />
    <glyph glyph-name="Gdotaccent" unicode="&#x120;" horiz-adv-x="833" 
d="M407 734c-46 0 -77 34 -77 77s31 77 77 77s77 -34 77 -77s-31 -77 -77 -77zM813 351v-103h-77c-35 -162 -155 -265 -341 -265c-221 0 -361 157 -360 362c1 195 126 372 370 372c171 0 292 -101 304 -227h-126c-15 70 -78 124 -178 124c-171 0 -250 -124 -249 -269
c-1 -145 91 -259 239 -259c115 0 192 52 220 162h-135v103h333z" />
    <glyph glyph-name="Hbar" unicode="&#x126;" horiz-adv-x="669" 
d="M629 573v-72h-35v-501h-115v296h-289v-296h-115v501h-35v72h35v127h115v-127h289v127h115v-127h35zM479 399v102h-289v-102h289z" />
    <glyph glyph-name="Hcircumflex" unicode="&#x124;" horiz-adv-x="669" 
d="M331 902l141 -119l-57 -50l-84 76l-84 -76l-57 50zM75 0v700h115v-301h289v301h115v-700h-115v296h-289v-296h-115z" />
    <glyph glyph-name="Iacute" unicode="&#xcd;" horiz-adv-x="265" 
d="M71 730l-49 70l172 107l50 -70zM75 0v700h115v-700h-115z" />
    <glyph glyph-name="Ibreve" unicode="&#x12c;" horiz-adv-x="265" 
d="M133 732c-64 0 -127 29 -127 142h83c2 -47 20 -65 44 -65s42 18 44 65h83c0 -113 -63 -142 -127 -142zM75 0v700h115v-700h-115z" />
    <glyph glyph-name="Icircumflex" unicode="&#xce;" horiz-adv-x="265" 
d="M199 738l-67 56l-67 -56l-49 54l116 94l116 -94zM75 0v700h115v-700h-115z" />
    <glyph glyph-name="Idieresis" unicode="&#xcf;" horiz-adv-x="265" 
d="M54 743c-39 0 -70 28 -70 70s31 70 70 70s70 -28 70 -70s-31 -70 -70 -70zM212 743c-39 0 -70 28 -70 70s31 70 70 70s70 -28 70 -70s-31 -70 -70 -70zM75 0v700h115v-700h-115z" />
    <glyph glyph-name="Idotaccent" unicode="&#x130;" horiz-adv-x="265" 
d="M133 734c-46 0 -77 34 -77 77s31 77 77 77s77 -34 77 -77s-31 -77 -77 -77zM75 0v700h115v-700h-115z" />
    <glyph glyph-name="Igrave" unicode="&#xcc;" horiz-adv-x="265" 
d="M186 731l-156 93l49 73l156 -93zM75 0v700h115v-700h-115z" />
    <glyph glyph-name="IJ" unicode="&#x132;" horiz-adv-x="801" 
d="M75 0v700h115v-700h-115zM512 -17c-145 0 -227 99 -227 245h115c0 -83 37 -142 112 -142c76 0 114 58 114 141v473h115v-473c0 -146 -82 -244 -229 -244z" />
    <glyph glyph-name="Imacron" unicode="&#x12a;" horiz-adv-x="265" 
d="M33 764v76h200v-76h-200zM75 0v700h115v-700h-115z" />
    <glyph glyph-name="Iogonek" unicode="&#x12e;" horiz-adv-x="265" 
d="M157 -131c16 0 32 3 51 12v-78c-21 -8 -46 -15 -81 -15c-76 0 -125 46 -125 102c0 41 26 79 79 110h-6v700h115v-700c-68 -10 -89 -45 -89 -77c0 -31 24 -54 56 -54z" />
    <glyph glyph-name="Itilde" unicode="&#x128;" horiz-adv-x="265" 
d="M175 751c-42 0 -57 37 -83 37c-15 0 -28 -9 -41 -27l-24 51c16 33 38 49 66 49c42 0 57 -37 83 -37c15 0 28 9 41 27l24 -51c-16 -33 -38 -49 -66 -49zM75 0v700h115v-700h-115z" />
    <glyph glyph-name="Jcircumflex" unicode="&#x134;" horiz-adv-x="536" 
d="M485 738l-67 56l-67 -56l-49 54l116 94l116 -94zM247 -17c-145 0 -227 99 -227 245h115c0 -83 37 -142 112 -142c76 0 114 58 114 141v473h115v-473c0 -146 -82 -244 -229 -244z" />
    <glyph glyph-name="Kcommaaccent" unicode="&#x136;" horiz-adv-x="606" 
d="M596 700l-301 -345l301 -355h-146l-260 314v-314h-115v700h115v-316l261 316h145zM291 -30c40 0 65 -28 65 -69c0 -78 -40 -109 -108 -110v34c22 0 38 5 49 13c10 8 12 19 13 30c-2 -2 -8 -4 -14 -4c-35 0 -58 23 -58 52c0 30 23 54 53 54z" />
    <glyph glyph-name="Lacute" unicode="&#x139;" horiz-adv-x="511" 
d="M71 730l-49 70l172 107l50 -70zM75 0v700h115v-592h281v-108h-396z" />
    <glyph glyph-name="Lcaron" unicode="&#x13d;" horiz-adv-x="511" 
d="M331 489c-7 0 -14 0 -21 1v47c7 -1 13 -1 19 -1c23 0 39 6 50 17c8 10 12 25 12 44c-8 -10 -24 -16 -42 -16c-35 0 -60 28 -60 67c0 41 29 69 72 69c49 0 85 -34 85 -103c0 -77 -42 -125 -115 -125zM75 0v700h115v-592h281v-108h-396z" />
    <glyph glyph-name="Lcommaaccent" unicode="&#x13b;" horiz-adv-x="511" 
d="M75 0v700h115v-592h281v-108h-396zM232 -209v34c22 0 38 5 49 13c10 8 12 19 13 30c-2 -2 -8 -4 -14 -4c-35 0 -58 23 -58 52c0 30 23 54 53 54c40 0 65 -28 65 -69c0 -78 -40 -109 -108 -110z" />
    <glyph glyph-name="Ldot" unicode="&#x13f;" horiz-adv-x="511" 
d="M75 0v700h115v-592h281v-108h-396zM377 316c-47 0 -84 39 -84 85s37 84 84 84s85 -38 85 -84s-38 -85 -85 -85z" />
    <glyph glyph-name="Lslash" unicode="&#x141;" horiz-adv-x="499" 
d="M190 108h281v-108h-396v256l-47 -20v90l47 20v354h115v-307l165 69v-90l-165 -69v-195z" />
    <glyph glyph-name="Nacute" unicode="&#x143;" horiz-adv-x="658" 
d="M250 731l-39 74l207 92l38 -73zM75 0v700h121l277 -508v508h110v-700h-121l-277 508v-508h-110z" />
    <glyph glyph-name="Ncaron" unicode="&#x147;" horiz-adv-x="658" 
d="M329 734l-141 119l57 50l84 -76l84 76l57 -50zM75 0v700h121l277 -508v508h110v-700h-121l-277 508v-508h-110z" />
    <glyph glyph-name="Ncommaaccent" unicode="&#x145;" horiz-adv-x="658" 
d="M75 0v700h121l277 -508v508h110v-700h-121l-277 508v-508h-110zM281 -209v34c22 0 38 5 49 13c10 8 12 19 13 30c-2 -2 -8 -4 -14 -4c-35 0 -58 23 -58 52c0 30 23 54 53 54c40 0 65 -28 65 -69c0 -78 -40 -109 -108 -110z" />
    <glyph glyph-name="Ntilde" unicode="&#xd1;" horiz-adv-x="658" 
d="M411 727c-75 -6 -116 63 -166 63c-29 0 -45 -10 -71 -43l-45 43c38 65 75 82 108 82c72 0 111 -63 166 -63c30 0 52 9 82 47l43 -49c-35 -63 -82 -78 -117 -80zM75 0v700h121l277 -508v508h110v-700h-121l-277 508v-508h-110z" />
    <glyph glyph-name="Eng" unicode="&#x14a;" horiz-adv-x="658" 
d="M473 700h110v-776c0 -91 -56 -140 -156 -140c-32 0 -53 4 -67 10v102c10 -2 31 -4 49 -4c41 0 59 16 59 69v39h-6l-277 508v-508h-110v700h121l277 -508v508z" />
    <glyph glyph-name="Oacute" unicode="&#xd3;" horiz-adv-x="794" 
d="M318 731l-39 74l207 92l38 -73zM397 -17c-227 0 -362 167 -362 367s135 367 362 367s362 -167 362 -367s-135 -367 -362 -367zM397 86c155 0 242 119 241 264c1 145 -86 264 -241 264s-242 -119 -241 -264c-1 -145 86 -264 241 -264z" />
    <glyph glyph-name="Obreve" unicode="&#x14e;" horiz-adv-x="794" 
d="M397 732c-96 0 -166 63 -172 142h89c7 -48 42 -65 83 -65s76 17 83 65h89c-6 -79 -76 -142 -172 -142zM397 -17c-227 0 -362 167 -362 367s135 367 362 367s362 -167 362 -367s-135 -367 -362 -367zM397 86c155 0 242 119 241 264c1 145 -86 264 -241 264
s-242 -119 -241 -264c-1 -145 86 -264 241 -264z" />
    <glyph glyph-name="Ocircumflex" unicode="&#xd4;" horiz-adv-x="794" 
d="M393 902l141 -119l-57 -50l-84 76l-84 -76l-57 50zM397 -17c-227 0 -362 167 -362 367s135 367 362 367s362 -167 362 -367s-135 -367 -362 -367zM397 86c155 0 242 119 241 264c1 145 -86 264 -241 264s-242 -119 -241 -264c-1 -145 86 -264 241 -264z" />
    <glyph glyph-name="Odieresis" unicode="&#xd6;" horiz-adv-x="794" 
d="M277 738c-42 0 -76 34 -76 76c0 43 34 77 76 77c43 0 77 -34 77 -77c0 -42 -34 -76 -77 -76zM516 738c-42 0 -76 34 -76 76c0 43 34 77 76 77c43 0 77 -34 77 -77c0 -42 -34 -76 -77 -76zM397 -17c-227 0 -362 167 -362 367s135 367 362 367s362 -167 362 -367
s-135 -367 -362 -367zM397 86c155 0 242 119 241 264c1 145 -86 264 -241 264s-242 -119 -241 -264c-1 -145 86 -264 241 -264z" />
    <glyph glyph-name="OE" unicode="&#x152;" horiz-adv-x="894" 
d="M829 597h-270v-198h270v-103h-270v-193h270v-103h-452c-214 0 -342 159 -342 350s128 350 342 350h452v-103zM377 103h67v494h-67c-142 0 -221 -111 -221 -247s79 -247 221 -247z" />
    <glyph glyph-name="Ograve" unicode="&#xd2;" horiz-adv-x="794" 
d="M475 731l-206 93l38 73l207 -92zM397 -17c-227 0 -362 167 -362 367s135 367 362 367s362 -167 362 -367s-135 -367 -362 -367zM397 86c155 0 242 119 241 264c1 145 -86 264 -241 264s-242 -119 -241 -264c-1 -145 86 -264 241 -264z" />
    <glyph glyph-name="Ohungarumlaut" unicode="&#x150;" horiz-adv-x="794" 
d="M315 735l-59 25l124 132l98 -38zM487 734l-58 26l124 132l97 -40zM397 -17c-227 0 -362 167 -362 367s135 367 362 367s362 -167 362 -367s-135 -367 -362 -367zM397 86c155 0 242 119 241 264c1 145 -86 264 -241 264s-242 -119 -241 -264c-1 -145 86 -264 241 -264z
" />
    <glyph glyph-name="Omacron" unicode="&#x14c;" horiz-adv-x="794" 
d="M202 764v86h390v-86h-390zM397 -17c-227 0 -362 167 -362 367s135 367 362 367s362 -167 362 -367s-135 -367 -362 -367zM397 86c155 0 242 119 241 264c1 145 -86 264 -241 264s-242 -119 -241 -264c-1 -145 86 -264 241 -264z" />
    <glyph glyph-name="Oslash" unicode="&#xd8;" horiz-adv-x="794" 
d="M584 671c112 -63 175 -184 175 -321c0 -200 -135 -367 -362 -367c-37 0 -71 4 -102 12l-38 -88l-76 34l36 84c-116 62 -182 186 -182 325c0 200 135 367 362 367c40 0 77 -5 110 -15l37 86l75 -34zM156 350c-1 -94 36 -178 104 -224l206 479c-21 6 -44 9 -69 9
c-155 0 -242 -119 -241 -264zM397 86c155 0 242 119 241 264c1 91 -34 172 -98 220l-204 -477c19 -5 39 -7 61 -7z" />
    <glyph glyph-name="Oslashacute" unicode="&#x1fe;" horiz-adv-x="794" 
d="M529 824l-206 -93l-39 74l207 92zM584 671c112 -63 175 -184 175 -321c0 -200 -135 -367 -362 -367c-37 0 -71 4 -102 12l-38 -88l-76 34l36 84c-116 62 -182 186 -182 325c0 200 135 367 362 367c40 0 77 -5 110 -15l37 86l75 -34zM156 350c-1 -94 36 -178 104 -224
l206 479c-21 6 -44 9 -69 9c-155 0 -242 -119 -241 -264zM397 86c155 0 242 119 241 264c1 91 -34 172 -98 220l-204 -477c19 -5 39 -7 61 -7z" />
    <glyph glyph-name="Otilde" unicode="&#xd5;" horiz-adv-x="794" 
d="M479 727c-75 -6 -116 63 -166 63c-29 0 -45 -10 -71 -43l-45 43c38 65 75 82 108 82c72 0 111 -63 166 -63c30 0 52 9 82 47l43 -49c-35 -63 -82 -78 -117 -80zM397 -17c-227 0 -362 167 -362 367s135 367 362 367s362 -167 362 -367s-135 -367 -362 -367zM397 86
c155 0 242 119 241 264c1 145 -86 264 -241 264s-242 -119 -241 -264c-1 -145 86 -264 241 -264z" />
    <glyph glyph-name="Racute" unicode="&#x154;" horiz-adv-x="608" 
d="M429 824l-206 -93l-39 74l207 92zM573 455c0 -109 -59 -195 -149 -229l138 -226h-131l-128 210h-113v-210h-115v700h258c140 0 240 -102 240 -245zM190 597v-284h136c76 0 132 60 132 142s-56 142 -132 142h-136z" />
    <glyph glyph-name="Rcaron" unicode="&#x158;" horiz-adv-x="608" 
d="M443 853l-141 -119l-141 119l57 50l84 -76l84 76zM573 455c0 -109 -59 -195 -149 -229l138 -226h-131l-128 210h-113v-210h-115v700h258c140 0 240 -102 240 -245zM190 597v-284h136c76 0 132 60 132 142s-56 142 -132 142h-136z" />
    <glyph glyph-name="Rcommaaccent" unicode="&#x156;" horiz-adv-x="608" 
d="M573 455c0 -109 -59 -195 -149 -229l138 -226h-131l-128 210h-113v-210h-115v700h258c140 0 240 -102 240 -245zM190 597v-284h136c76 0 132 60 132 142s-56 142 -132 142h-136zM297 -30c40 0 65 -28 65 -69c0 -78 -40 -109 -108 -110v34c22 0 38 5 49 13
c10 8 12 19 13 30c-2 -2 -8 -4 -14 -4c-35 0 -58 23 -58 52c0 30 23 54 53 54z" />
    <glyph glyph-name="Sacute" unicode="&#x15a;" horiz-adv-x="552" 
d="M197 731l-39 74l207 92l38 -73zM285 -17c-162 0 -255 89 -255 246h115c0 -91 52 -146 139 -146c76 0 118 35 118 98c0 53 -25 80 -104 112l-114 46c-88 34 -134 97 -134 186c0 114 92 192 224 192c139 0 231 -87 231 -219h-115c0 77 -42 121 -120 121
c-66 0 -104 -34 -104 -87c0 -48 34 -80 116 -113l103 -42c88 -36 132 -98 132 -193c0 -120 -93 -201 -232 -201z" />
    <glyph glyph-name="Scaron" unicode="&#x160;" horiz-adv-x="552" 
d="M276 734l-141 119l57 50l84 -76l84 76l57 -50zM285 -17c-162 0 -255 89 -255 246h115c0 -91 52 -146 139 -146c76 0 118 35 118 98c0 53 -25 80 -104 112l-114 46c-88 34 -134 97 -134 186c0 114 92 192 224 192c139 0 231 -87 231 -219h-115c0 77 -42 121 -120 121
c-66 0 -104 -34 -104 -87c0 -48 34 -80 116 -113l103 -42c88 -36 132 -98 132 -193c0 -120 -93 -201 -232 -201z" />
    <glyph glyph-name="Scedilla" unicode="&#x15e;" horiz-adv-x="552" 
d="M517 184c0 -114 -85 -193 -213 -200v-43c7 6 24 11 41 11c39 0 76 -26 76 -79c0 -49 -31 -89 -93 -89c-50 0 -85 25 -90 74h55c1 -18 17 -28 34 -28c21 0 36 14 36 42c0 27 -14 40 -35 40c-14 0 -25 -6 -32 -16h-49v89c-138 13 -217 100 -217 244h115
c0 -91 52 -146 139 -146c76 0 118 35 118 98c0 53 -25 80 -104 112l-114 46c-88 34 -134 97 -134 186c0 114 92 192 224 192c139 0 231 -87 231 -219h-115c0 77 -42 121 -120 121c-66 0 -104 -34 -104 -87c0 -48 34 -80 116 -113l103 -42c88 -36 132 -98 132 -193z" />
    <glyph glyph-name="Scircumflex" unicode="&#x15c;" horiz-adv-x="552" 
d="M272 902l141 -119l-57 -50l-84 76l-84 -76l-57 50zM285 -17c-162 0 -255 89 -255 246h115c0 -91 52 -146 139 -146c76 0 118 35 118 98c0 53 -25 80 -104 112l-114 46c-88 34 -134 97 -134 186c0 114 92 192 224 192c139 0 231 -87 231 -219h-115c0 77 -42 121 -120 121
c-66 0 -104 -34 -104 -87c0 -48 34 -80 116 -113l103 -42c88 -36 132 -98 132 -193c0 -120 -93 -201 -232 -201z" />
    <glyph glyph-name="Scommaaccent" unicode="&#x218;" horiz-adv-x="552" 
d="M285 -17c-162 0 -255 89 -255 246h115c0 -91 52 -146 139 -146c76 0 118 35 118 98c0 53 -25 80 -104 112l-114 46c-88 34 -134 97 -134 186c0 114 92 192 224 192c139 0 231 -87 231 -219h-115c0 77 -42 121 -120 121c-66 0 -104 -34 -104 -87c0 -48 34 -80 116 -113
l103 -42c88 -36 132 -98 132 -193c0 -120 -93 -201 -232 -201zM228 -209v34c22 0 38 5 49 13c10 8 12 19 13 30c-2 -2 -8 -4 -14 -4c-35 0 -58 23 -58 52c0 30 23 54 53 54c40 0 65 -28 65 -69c0 -78 -40 -109 -108 -110z" />
    <glyph glyph-name="Tbar" unicode="&#x166;" horiz-adv-x="532" 
d="M527 592h-204v-151h142v-82h-142v-359h-115v359h-140v82h140v151h-203v108h522v-108z" />
    <glyph glyph-name="Tcaron" unicode="&#x164;" horiz-adv-x="532" 
d="M266 734l-141 119l57 50l84 -76l84 76l57 -50zM208 0v592h-203v108h522v-108h-204v-592h-115z" />
    <glyph glyph-name="uni0162" unicode="&#x162;" horiz-adv-x="532" 
d="M323 0h-29v-59c7 6 24 11 41 11c39 0 76 -26 76 -79c0 -49 -31 -89 -93 -89c-50 0 -85 25 -90 74h55c1 -18 17 -28 34 -28c21 0 36 14 36 42c0 27 -14 40 -35 40c-14 0 -25 -6 -32 -16h-49v104h-29v592h-203v108h522v-108h-204v-592z" />
    <glyph glyph-name="uni021A" unicode="&#x21a;" horiz-adv-x="532" 
d="M208 0v592h-203v108h522v-108h-204v-592h-115zM218 -209v34c22 0 38 5 49 13c10 8 12 19 13 30c-2 -2 -8 -4 -14 -4c-35 0 -58 23 -58 52c0 30 23 54 53 54c40 0 65 -28 65 -69c0 -78 -40 -109 -108 -110z" />
    <glyph glyph-name="Thorn" unicode="&#xde;" horiz-adv-x="584" 
d="M334 595c150 0 240 -113 240 -245s-90 -245 -240 -245h-144v-105h-115v700h115v-105h144zM327 208c80 0 132 65 132 142s-52 142 -132 142h-137v-284h137z" />
    <glyph glyph-name="Uacute" unicode="&#xda;" 
d="M241 731l-39 74l207 92l38 -73zM320 -17c-157 0 -260 86 -260 249v468h115v-461c0 -101 57 -153 145 -153s145 52 145 153v461h115v-468c0 -163 -103 -249 -260 -249z" />
    <glyph glyph-name="Ubreve" unicode="&#x16c;" 
d="M320 732c-96 0 -166 63 -172 142h89c7 -48 42 -65 83 -65s76 17 83 65h89c-6 -79 -76 -142 -172 -142zM320 -17c-157 0 -260 86 -260 249v468h115v-461c0 -101 57 -153 145 -153s145 52 145 153v461h115v-468c0 -163 -103 -249 -260 -249z" />
    <glyph glyph-name="Ucircumflex" unicode="&#xdb;" 
d="M316 902l141 -119l-57 -50l-84 76l-84 -76l-57 50zM320 -17c-157 0 -260 86 -260 249v468h115v-461c0 -101 57 -153 145 -153s145 52 145 153v461h115v-468c0 -163 -103 -249 -260 -249z" />
    <glyph glyph-name="Udieresis" unicode="&#xdc;" 
d="M200 738c-42 0 -76 34 -76 76c0 43 34 77 76 77c43 0 77 -34 77 -77c0 -42 -34 -76 -77 -76zM439 738c-42 0 -76 34 -76 76c0 43 34 77 76 77c43 0 77 -34 77 -77c0 -42 -34 -76 -77 -76zM320 -17c-157 0 -260 86 -260 249v468h115v-461c0 -101 57 -153 145 -153
s145 52 145 153v461h115v-468c0 -163 -103 -249 -260 -249z" />
    <glyph glyph-name="Ugrave" unicode="&#xd9;" 
d="M398 731l-206 93l38 73l207 -92zM320 -17c-157 0 -260 86 -260 249v468h115v-461c0 -101 57 -153 145 -153s145 52 145 153v461h115v-468c0 -163 -103 -249 -260 -249z" />
    <glyph glyph-name="Uhungarumlaut" unicode="&#x170;" 
d="M238 735l-59 25l124 132l98 -38zM410 734l-58 26l124 132l97 -40zM320 -17c-157 0 -260 86 -260 249v468h115v-461c0 -101 57 -153 145 -153s145 52 145 153v461h115v-468c0 -163 -103 -249 -260 -249z" />
    <glyph glyph-name="Umacron" unicode="&#x16a;" 
d="M125 764v86h390v-86h-390zM320 -17c-157 0 -260 86 -260 249v468h115v-461c0 -101 57 -153 145 -153s145 52 145 153v461h115v-468c0 -163 -103 -249 -260 -249z" />
    <glyph glyph-name="Uogonek" unicode="&#x172;" 
d="M465 700h115v-468c0 -139 -75 -222 -195 -244c-35 -15 -47 -41 -47 -65c0 -31 24 -54 56 -54c16 0 32 3 51 12v-78c-21 -8 -46 -15 -81 -15c-76 0 -125 46 -125 102c0 34 18 66 55 94c-142 9 -234 94 -234 248v468h115v-461c0 -101 57 -153 145 -153s145 52 145 153v461z
" />
    <glyph glyph-name="Uring" unicode="&#x16e;" 
d="M320 647c-73 0 -132 57 -132 126s59 126 132 126s132 -57 132 -126s-59 -126 -132 -126zM320 711c35 0 62 27 62 62s-27 62 -62 62s-62 -27 -62 -62s27 -62 62 -62zM320 -17c-157 0 -260 86 -260 249v468h115v-461c0 -101 57 -153 145 -153s145 52 145 153v461h115v-468
c0 -163 -103 -249 -260 -249z" />
    <glyph glyph-name="Utilde" unicode="&#x168;" 
d="M402 727c-75 -6 -116 63 -166 63c-29 0 -45 -10 -71 -43l-45 43c38 65 75 82 108 82c72 0 111 -63 166 -63c30 0 52 9 82 47l43 -49c-35 -63 -82 -78 -117 -80zM320 -17c-157 0 -260 86 -260 249v468h115v-461c0 -101 57 -153 145 -153s145 52 145 153v461h115v-468
c0 -163 -103 -249 -260 -249z" />
    <glyph glyph-name="Wacute" unicode="&#x1e82;" horiz-adv-x="973" 
d="M408 731l-39 74l207 92l38 -73zM242 0l-242 700h121l166 -509l157 509h85l157 -509l166 509h121l-242 -700h-83l-161 499l-162 -499h-83z" />
    <glyph glyph-name="Wcircumflex" unicode="&#x174;" horiz-adv-x="973" 
d="M483 902l141 -119l-57 -50l-84 76l-84 -76l-57 50zM242 0l-242 700h121l166 -509l157 509h85l157 -509l166 509h121l-242 -700h-83l-161 499l-162 -499h-83z" />
    <glyph glyph-name="Wdieresis" unicode="&#x1e84;" horiz-adv-x="973" 
d="M367 738c-42 0 -76 34 -76 76c0 43 34 77 76 77c43 0 77 -34 77 -77c0 -42 -34 -76 -77 -76zM606 738c-42 0 -76 34 -76 76c0 43 34 77 76 77c43 0 77 -34 77 -77c0 -42 -34 -76 -77 -76zM242 0l-242 700h121l166 -509l157 509h85l157 -509l166 509h121l-242 -700h-83
l-161 499l-162 -499h-83z" />
    <glyph glyph-name="Wgrave" unicode="&#x1e80;" horiz-adv-x="973" 
d="M565 731l-206 93l38 73l207 -92zM242 0l-242 700h121l166 -509l157 509h85l157 -509l166 509h121l-242 -700h-83l-161 499l-162 -499h-83z" />
    <glyph glyph-name="Yacute" unicode="&#xdd;" horiz-adv-x="561" 
d="M419 824l-206 -93l-39 74l207 92zM455 700h126l-347 -700h-126l139 281l-262 419h133l188 -301z" />
    <glyph glyph-name="Ycircumflex" unicode="&#x176;" horiz-adv-x="561" 
d="M288 809l-84 -76l-57 50l141 119l141 -119l-57 -50zM455 700h126l-347 -700h-126l139 281l-262 419h133l188 -301z" />
    <glyph glyph-name="Ydieresis" unicode="&#x178;" horiz-adv-x="561" 
d="M172 738c-42 0 -76 34 -76 76c0 43 34 77 76 77c43 0 77 -34 77 -77c0 -42 -34 -76 -77 -76zM411 738c-42 0 -76 34 -76 76c0 43 34 77 76 77c43 0 77 -34 77 -77c0 -42 -34 -76 -77 -76zM455 700h126l-347 -700h-126l139 281l-262 419h133l188 -301z" />
    <glyph glyph-name="Ygrave" unicode="&#x1ef2;" horiz-adv-x="561" 
d="M409 805l-39 -74l-206 93l38 73zM455 700h126l-347 -700h-126l139 281l-262 419h133l188 -301z" />
    <glyph glyph-name="Zacute" unicode="&#x179;" horiz-adv-x="581" 
d="M234 731l-39 74l207 92l38 -73zM20 0l347 597h-304v103h493l-342 -597h330v-103h-524z" />
    <glyph glyph-name="Zcaron" unicode="&#x17d;" horiz-adv-x="581" 
d="M313 734l-141 119l57 50l84 -76l84 76l57 -50zM20 0l347 597h-304v103h493l-342 -597h330v-103h-524z" />
    <glyph glyph-name="Zdotaccent" unicode="&#x17b;" horiz-adv-x="581" 
d="M313 734c-46 0 -77 34 -77 77s31 77 77 77s77 -34 77 -77s-31 -77 -77 -77zM20 0l347 597h-304v103h493l-342 -597h330v-103h-524z" />
    <glyph glyph-name="a" unicode="a" horiz-adv-x="592" 
d="M264 -12c-150 0 -229 108 -229 245s87 245 232 245c62 0 118 -28 146 -75v63h109v-466h-109v63c-28 -47 -92 -75 -149 -75zM280 85c93 0 138 68 138 148s-45 148 -138 148c-85 0 -136 -63 -136 -148s51 -148 136 -148z" />
    <glyph glyph-name="b" unicode="b" horiz-adv-x="592" 
d="M335 478c133 0 222 -98 222 -245c0 -144 -94 -245 -229 -245c-62 0 -121 30 -149 75v-63h-109v700h109v-297c28 45 90 75 156 75zM312 85c80 0 136 61 136 148s-56 148 -136 148c-82 0 -138 -60 -138 -148s56 -148 138 -148z" />
    <glyph glyph-name="c" unicode="c" horiz-adv-x="523" 
d="M267 -12c-145 0 -232 100 -232 245s87 245 232 245c130 0 211 -71 221 -178h-109c-12 53 -46 81 -112 81c-77 0 -123 -53 -123 -148s46 -148 123 -148c66 0 100 27 112 76h109c-10 -104 -91 -173 -221 -173z" />
    <glyph glyph-name="d" unicode="d" horiz-adv-x="592" 
d="M413 700h109v-700h-109v63c-28 -47 -92 -75 -149 -75c-150 0 -229 108 -229 245s87 245 232 245c62 0 118 -28 146 -75v297zM280 85c93 0 138 68 138 148s-45 148 -138 148c-85 0 -136 -63 -136 -148s51 -148 136 -148z" />
    <glyph glyph-name="e" unicode="e" horiz-adv-x="527" 
d="M492 257c0 -21 -1 -32 -3 -60h-346c3 -74 51 -114 130 -114c54 0 86 17 104 53h110c-14 -87 -102 -148 -214 -148c-147 0 -238 94 -238 245c0 149 92 245 234 245c133 0 223 -90 223 -221zM143 280h242c-1 72 -43 112 -118 112c-77 0 -123 -46 -124 -112z" />
    <glyph glyph-name="f" unicode="f" horiz-adv-x="361" 
d="M303 609c-33 0 -79 -5 -79 -73v-70h122v-91h-122v-375h-109v375h-95v91h95v68c0 150 109 172 158 172c34 0 58 -4 73 -9v-92c-15 1 -27 4 -43 4z" />
    <glyph glyph-name="g" unicode="g" horiz-adv-x="592" 
d="M413 466h109v-446c0 -92 -29 -161 -84 -201c-39 -29 -93 -41 -160 -41c-62 0 -121 13 -164 42c-44 30 -72 75 -74 127h114c9 -48 48 -79 123 -79c89 0 136 39 136 144v51c-28 -47 -92 -75 -149 -75c-145 0 -229 108 -229 245s92 245 232 245c62 0 118 -28 146 -75v63z
M280 85c89 0 138 68 138 148s-49 148 -138 148c-82 0 -136 -63 -136 -148s54 -148 136 -148z" />
    <glyph glyph-name="h" unicode="h" horiz-adv-x="566" 
d="M331 478c112 0 170 -63 170 -185v-293h-109v243c0 99 -26 142 -102 142c-71 0 -111 -47 -111 -129v-256h-109v700h109v-299c29 50 83 77 152 77z" />
    <glyph glyph-name="i" unicode="i" horiz-adv-x="249" 
d="M125 533c-48 0 -81 36 -81 81s33 81 81 81s81 -36 81 -81s-33 -81 -81 -81zM70 0v466h109v-466h-109z" />
    <glyph glyph-name="j" unicode="j" horiz-adv-x="252" 
d="M128 533c-48 0 -81 36 -81 81s33 81 81 81s81 -36 81 -81s-33 -81 -81 -81zM54 -216c-31 0 -51 3 -64 10v97c14 -3 26 -4 41 -4c29 0 42 15 42 48v531h109v-563c0 -77 -45 -119 -128 -119z" />
    <glyph glyph-name="k" unicode="k" horiz-adv-x="518" 
d="M493 466l-202 -223l202 -243h-143l-171 212v-212h-109v700h109v-438l176 204h138z" />
    <glyph glyph-name="l" unicode="l" horiz-adv-x="249" 
d="M70 0v700h109v-700h-109z" />
    <glyph glyph-name="m" unicode="m" horiz-adv-x="832" 
d="M70 0v466h109v-65c20 43 69 77 130 77c85 0 127 -37 147 -83c22 47 77 83 143 83c140 0 168 -96 168 -183v-295h-109v274c0 77 -30 111 -87 111c-55 0 -98 -27 -98 -138v-247h-109v275c0 77 -28 110 -85 110c-55 0 -100 -27 -100 -138v-247h-109z" />
    <glyph glyph-name="n" unicode="n" horiz-adv-x="566" 
d="M70 0v466h109v-65c29 50 83 77 152 77c112 0 170 -63 170 -185v-293h-109v243c0 99 -26 142 -102 142c-71 0 -111 -47 -111 -129v-256h-109z" />
    <glyph glyph-name="o" unicode="o" horiz-adv-x="562" 
d="M281 -12c-154 0 -246 108 -246 245s92 245 246 245s246 -108 246 -245s-92 -245 -246 -245zM281 85c88 0 137 63 137 148s-49 148 -137 148s-137 -63 -137 -148s49 -148 137 -148z" />
    <glyph glyph-name="p" unicode="p" horiz-adv-x="592" 
d="M335 478c133 0 222 -98 222 -245c0 -144 -94 -245 -229 -245c-62 0 -121 30 -149 75v-273h-109v676h109v-63c28 45 90 75 156 75zM312 85c80 0 136 61 136 148s-56 148 -136 148c-82 0 -138 -60 -138 -148s56 -148 138 -148z" />
    <glyph glyph-name="q" unicode="q" horiz-adv-x="592" 
d="M413 466h109v-676h-109v273c-28 -47 -92 -75 -149 -75c-150 0 -229 108 -229 245s87 245 232 245c62 0 118 -28 146 -75v63zM280 85c93 0 138 68 138 148s-45 148 -138 148c-85 0 -136 -63 -136 -148s51 -148 136 -148z" />
    <glyph glyph-name="r" unicode="r" horiz-adv-x="366" 
d="M70 0v466h109v-90c17 66 73 96 124 96c17 0 31 -1 43 -4v-100c-17 2 -26 2 -43 2c-77 0 -124 -58 -124 -164v-206h-109z" />
    <glyph glyph-name="s" unicode="s" horiz-adv-x="457" 
d="M233 -12c-120 0 -198 70 -198 155h109c0 -40 39 -68 95 -68c41 0 67 22 67 55c0 21 -8 42 -35 49l-120 33c-69 19 -101 67 -101 129c0 76 71 137 179 137c122 0 184 -62 184 -145h-107c0 39 -30 62 -81 62c-38 0 -67 -19 -67 -48c0 -26 16 -43 40 -50l111 -32
c63 -18 108 -65 108 -125c0 -89 -65 -152 -184 -152z" />
    <glyph glyph-name="t" unicode="t" horiz-adv-x="366" 
d="M281 92c17 0 44 2 55 4v-96c-17 -3 -49 -6 -81 -6c-53 0 -151 7 -151 164v217h-79v91h79v141h109v-141h107v-91h-107v-192c0 -81 25 -91 68 -91z" />
    <glyph glyph-name="u" unicode="u" horiz-adv-x="561" 
d="M238 -12c-102 0 -173 60 -173 185v293h109v-266c0 -75 24 -119 95 -119c83 0 113 55 113 122v263h109v-466h-109v65c-28 -50 -77 -77 -144 -77z" />
    <glyph glyph-name="v" unicode="v" horiz-adv-x="492" 
d="M202 0l-202 466h117l129 -320l129 320h117l-202 -466h-88z" />
    <glyph glyph-name="w" unicode="w" horiz-adv-x="764" 
d="M177 0l-172 466h120l97 -308l101 308h118l101 -308l97 308h120l-172 -466h-92l-113 332l-113 -332h-92z" />
    <glyph glyph-name="x" unicode="x" horiz-adv-x="490" 
d="M10 0l172 235l-169 231h135l97 -151l97 151h135l-169 -231l172 -235h-135l-100 156l-100 -156h-135z" />
    <glyph glyph-name="y" unicode="y" horiz-adv-x="566" 
d="M387 466h109v-468c0 -73 -22 -128 -61 -166c-38 -35 -92 -54 -158 -54c-69 0 -123 17 -160 48c-33 29 -51 70 -52 121h110c5 -51 30 -79 100 -79c65 0 112 39 112 138v59c-29 -50 -81 -77 -150 -77c-115 0 -172 82 -172 194v284h109v-261c0 -69 23 -121 101 -121
c76 0 112 61 112 141v241z" />
    <glyph glyph-name="z" unicode="z" horiz-adv-x="443" 
d="M5 0l252 374h-231v92h412l-253 -375h235v-91h-415z" />
    <glyph glyph-name="aacute" unicode="&#xe1;" horiz-adv-x="592" 
d="M148 502l-35 84l282 107l35 -81zM264 -12c-150 0 -229 108 -229 245s87 245 232 245c62 0 118 -28 146 -75v63h109v-466h-109v63c-28 -47 -92 -75 -149 -75zM280 85c93 0 138 68 138 148s-45 148 -138 148c-85 0 -136 -63 -136 -148s51 -148 136 -148z" />
    <glyph glyph-name="abreve" unicode="&#x103;" horiz-adv-x="592" 
d="M282 507c-107 0 -176 59 -182 156h92c3 -53 39 -77 90 -77s87 24 90 77h92c-6 -97 -75 -156 -182 -156zM264 -12c-150 0 -229 108 -229 245s87 245 232 245c62 0 118 -28 146 -75v63h109v-466h-109v63c-28 -47 -92 -75 -149 -75zM280 85c93 0 138 68 138 148
s-45 148 -138 148c-85 0 -136 -63 -136 -148s51 -148 136 -148z" />
    <glyph glyph-name="acircumflex" unicode="&#xe2;" horiz-adv-x="592" 
d="M282 708l180 -147l-58 -64l-122 105l-121 -104l-59 63zM264 -12c-150 0 -229 108 -229 245s87 245 232 245c62 0 118 -28 146 -75v63h109v-466h-109v63c-28 -47 -92 -75 -149 -75zM280 85c93 0 138 68 138 148s-45 148 -138 148c-85 0 -136 -63 -136 -148
s51 -148 136 -148z" />
    <glyph glyph-name="adieresis" unicode="&#xe4;" horiz-adv-x="592" 
d="M180 532c-42 0 -76 34 -76 76c0 43 34 77 76 77c43 0 77 -34 77 -77c0 -42 -34 -76 -77 -76zM383 532c-42 0 -76 34 -76 76c0 43 34 77 76 77c43 0 77 -34 77 -77c0 -42 -34 -76 -77 -76zM264 -12c-150 0 -229 108 -229 245s87 245 232 245c62 0 118 -28 146 -75v63h109
v-466h-109v63c-28 -47 -92 -75 -149 -75zM280 85c93 0 138 68 138 148s-45 148 -138 148c-85 0 -136 -63 -136 -148s51 -148 136 -148z" />
    <glyph glyph-name="ae" unicode="&#xe6;" horiz-adv-x="863" 
d="M828 255c0 -21 -1 -32 -3 -60h-346c3 -74 51 -114 130 -114c54 0 86 19 104 61h110c-14 -92 -102 -156 -214 -156c-78 0 -144 32 -185 88c-38 -51 -100 -86 -196 -86c-111 0 -188 54 -188 138c0 44 13 87 56 116c40 28 85 34 198 34h85v41c0 37 -24 74 -105 74
c-77 0 -105 -30 -108 -76h-109c7 99 94 163 219 163c85 0 139 -27 169 -66c41 41 97 64 160 64c133 0 223 -90 223 -221zM479 277h242c0 72 -43 115 -116 115c-74 0 -125 -48 -126 -115zM379 179v15v1h-121c-81 0 -108 -27 -108 -60c0 -44 39 -61 96 -61
c59 0 133 26 133 105z" />
    <glyph glyph-name="aeacute" unicode="&#x1fd;" horiz-adv-x="863" 
d="M590 612l-282 -110l-35 84l282 107zM828 255c0 -21 -1 -32 -3 -60h-346c3 -74 51 -114 130 -114c54 0 86 19 104 61h110c-14 -92 -102 -156 -214 -156c-78 0 -144 32 -185 88c-38 -51 -100 -86 -196 -86c-111 0 -188 54 -188 138c0 44 13 87 56 116c40 28 85 34 198 34
h85v41c0 37 -24 74 -105 74c-77 0 -105 -30 -108 -76h-109c7 99 94 163 219 163c85 0 139 -27 169 -66c41 41 97 64 160 64c133 0 223 -90 223 -221zM479 277h242c0 72 -43 115 -116 115c-74 0 -125 -48 -126 -115zM379 179v15v1h-121c-81 0 -108 -27 -108 -60
c0 -44 39 -61 96 -61c59 0 133 26 133 105z" />
    <glyph glyph-name="agrave" unicode="&#xe0;" horiz-adv-x="592" 
d="M396 502l-282 110l35 81l282 -107zM264 -12c-150 0 -229 108 -229 245s87 245 232 245c62 0 118 -28 146 -75v63h109v-466h-109v63c-28 -47 -92 -75 -149 -75zM280 85c93 0 138 68 138 148s-45 148 -138 148c-85 0 -136 -63 -136 -148s51 -148 136 -148z" />
    <glyph glyph-name="amacron" unicode="&#x101;" horiz-adv-x="592" 
d="M123 556v86h318v-86h-318zM264 -12c-150 0 -229 108 -229 245s87 245 232 245c62 0 118 -28 146 -75v63h109v-466h-109v63c-28 -47 -92 -75 -149 -75zM280 85c93 0 138 68 138 148s-45 148 -138 148c-85 0 -136 -63 -136 -148s51 -148 136 -148z" />
    <glyph glyph-name="aogonek" unicode="&#x105;" horiz-adv-x="592" 
d="M497 -131c16 0 32 3 51 12v-78c-21 -8 -46 -15 -81 -15c-76 0 -125 46 -125 102c0 41 26 79 79 110h-8v63c-28 -47 -92 -75 -149 -75c-150 0 -229 108 -229 245s87 245 232 245c62 0 118 -28 146 -75v63h109v-466h8c-68 -10 -89 -45 -89 -77c0 -31 24 -54 56 -54zM280 85
c93 0 138 68 138 148s-45 148 -138 148c-85 0 -136 -63 -136 -148s51 -148 136 -148z" />
    <glyph glyph-name="aring" unicode="&#xe5;" horiz-adv-x="592" 
d="M282 503c-63 0 -113 45 -113 110s50 110 113 110s113 -45 113 -110s-50 -110 -113 -110zM282 556c30 0 53 23 53 57s-23 57 -53 57s-53 -23 -53 -57s23 -57 53 -57zM264 -12c-150 0 -229 108 -229 245s87 245 232 245c62 0 118 -28 146 -75v63h109v-466h-109v63
c-28 -47 -92 -75 -149 -75zM280 85c93 0 138 68 138 148s-45 148 -138 148c-85 0 -136 -63 -136 -148s51 -148 136 -148z" />
    <glyph glyph-name="atilde" unicode="&#xe3;" horiz-adv-x="592" 
d="M356 521c-56 0 -96 56 -141 56c-26 0 -43 -12 -68 -38l-39 59c32 54 70 68 100 68c56 0 95 -56 141 -56c26 0 43 11 68 38l39 -59c-32 -54 -70 -68 -100 -68zM264 -12c-150 0 -229 108 -229 245s87 245 232 245c62 0 118 -28 146 -75v63h109v-466h-109v63
c-28 -47 -92 -75 -149 -75zM280 85c93 0 138 68 138 148s-45 148 -138 148c-85 0 -136 -63 -136 -148s51 -148 136 -148z" />
    <glyph glyph-name="cacute" unicode="&#x107;" horiz-adv-x="523" 
d="M131 502l-35 84l282 107l35 -81zM267 -12c-145 0 -232 100 -232 245s87 245 232 245c130 0 211 -71 221 -178h-109c-12 53 -46 81 -112 81c-77 0 -123 -53 -123 -148s46 -148 123 -148c66 0 100 27 112 76h109c-10 -104 -91 -173 -221 -173z" />
    <glyph glyph-name="ccaron" unicode="&#x10d;" horiz-adv-x="523" 
d="M265 496l-180 147l59 63l121 -104l122 105l58 -64zM267 -12c-145 0 -232 100 -232 245s87 245 232 245c130 0 211 -71 221 -178h-109c-12 53 -46 81 -112 81c-77 0 -123 -53 -123 -148s46 -148 123 -148c66 0 100 27 112 76h109c-10 -104 -91 -173 -221 -173z" />
    <glyph glyph-name="ccedilla" unicode="&#xe7;" horiz-adv-x="523" 
d="M267 85c66 0 100 27 112 76h109c-9 -97 -80 -163 -195 -172v-48c7 6 24 11 41 11c39 0 76 -26 76 -79c0 -49 -31 -89 -93 -89c-50 0 -85 25 -90 74h55c1 -18 17 -28 34 -28c21 0 36 14 36 42c0 27 -14 40 -35 40c-14 0 -25 -6 -32 -16h-49v94c-126 13 -201 109 -201 243
c0 145 87 245 232 245c130 0 211 -71 221 -178h-109c-12 53 -46 81 -112 81c-77 0 -123 -53 -123 -148s46 -148 123 -148z" />
    <glyph glyph-name="ccircumflex" unicode="&#x109;" horiz-adv-x="523" 
d="M265 708l180 -147l-58 -64l-122 105l-121 -104l-59 63zM267 -12c-145 0 -232 100 -232 245s87 245 232 245c130 0 211 -71 221 -178h-109c-12 53 -46 81 -112 81c-77 0 -123 -53 -123 -148s46 -148 123 -148c66 0 100 27 112 76h109c-10 -104 -91 -173 -221 -173z" />
    <glyph glyph-name="cdotaccent" unicode="&#x10b;" horiz-adv-x="523" 
d="M265 533c-48 0 -81 36 -81 81s33 81 81 81s81 -36 81 -81s-33 -81 -81 -81zM267 -12c-145 0 -232 100 -232 245s87 245 232 245c130 0 211 -71 221 -178h-109c-12 53 -46 81 -112 81c-77 0 -123 -53 -123 -148s46 -148 123 -148c66 0 100 27 112 76h109
c-10 -104 -91 -173 -221 -173z" />
    <glyph glyph-name="dcaron" unicode="&#x10f;" horiz-adv-x="734" 
d="M644 717c49 0 85 -34 85 -103c0 -77 -42 -125 -115 -125c-7 0 -14 0 -21 1v47c7 -1 13 -1 19 -1c23 0 39 6 50 17c8 10 12 25 12 44c-8 -10 -24 -16 -42 -16c-35 0 -60 28 -60 67c0 41 29 69 72 69zM413 700h109v-700h-109v63c-28 -47 -92 -75 -149 -75
c-150 0 -229 108 -229 245s87 245 232 245c62 0 118 -28 146 -75v297zM280 85c93 0 138 68 138 148s-45 148 -138 148c-85 0 -136 -63 -136 -148s51 -148 136 -148z" />
    <glyph glyph-name="dcroat" unicode="&#x111;" horiz-adv-x="597" 
d="M570 602v-72h-48v-530h-109v63c-28 -47 -92 -75 -149 -75c-150 0 -229 108 -229 245s87 245 232 245c62 0 118 -28 146 -75v127h-136v72h136v98h109v-98h48zM280 85c93 0 138 68 138 148s-45 148 -138 148c-85 0 -136 -63 -136 -148s51 -148 136 -148z" />
    <glyph glyph-name="eacute" unicode="&#xe9;" horiz-adv-x="527" 
d="M417 612l-282 -110l-35 84l282 107zM492 257c0 -21 -1 -32 -3 -60h-346c3 -74 51 -114 130 -114c54 0 86 17 104 53h110c-14 -87 -102 -148 -214 -148c-147 0 -238 94 -238 245c0 149 92 245 234 245c133 0 223 -90 223 -221zM143 280h242c-1 72 -43 112 -118 112
c-77 0 -123 -46 -124 -112z" />
    <glyph glyph-name="ebreve" unicode="&#x115;" horiz-adv-x="527" 
d="M269 507c-107 0 -176 59 -182 156h92c3 -53 39 -77 90 -77s87 24 90 77h92c-6 -97 -75 -156 -182 -156zM492 257c0 -21 -1 -32 -3 -60h-346c3 -74 51 -114 130 -114c54 0 86 17 104 53h110c-14 -87 -102 -148 -214 -148c-147 0 -238 94 -238 245c0 149 92 245 234 245
c133 0 223 -90 223 -221zM143 280h242c-1 72 -43 112 -118 112c-77 0 -123 -46 -124 -112z" />
    <glyph glyph-name="ecaron" unicode="&#x11b;" horiz-adv-x="527" 
d="M449 643l-180 -147l-180 147l59 63l121 -104l122 105zM492 257c0 -21 -1 -32 -3 -60h-346c3 -74 51 -114 130 -114c54 0 86 17 104 53h110c-14 -87 -102 -148 -214 -148c-147 0 -238 94 -238 245c0 149 92 245 234 245c133 0 223 -90 223 -221zM143 280h242
c-1 72 -43 112 -118 112c-77 0 -123 -46 -124 -112z" />
    <glyph glyph-name="ecircumflex" unicode="&#xea;" horiz-adv-x="527" 
d="M269 602l-121 -104l-59 63l180 147l180 -147l-58 -64zM492 257c0 -21 -1 -32 -3 -60h-346c3 -74 51 -114 130 -114c54 0 86 17 104 53h110c-14 -87 -102 -148 -214 -148c-147 0 -238 94 -238 245c0 149 92 245 234 245c133 0 223 -90 223 -221zM143 280h242
c-1 72 -43 112 -118 112c-77 0 -123 -46 -124 -112z" />
    <glyph glyph-name="edieresis" unicode="&#xeb;" horiz-adv-x="527" 
d="M167 532c-42 0 -76 34 -76 76c0 43 34 77 76 77c43 0 77 -34 77 -77c0 -42 -34 -76 -77 -76zM370 532c-42 0 -76 34 -76 76c0 43 34 77 76 77c43 0 77 -34 77 -77c0 -42 -34 -76 -77 -76zM492 257c0 -21 -1 -32 -3 -60h-346c3 -74 51 -114 130 -114c54 0 86 17 104 53
h110c-14 -87 -102 -148 -214 -148c-147 0 -238 94 -238 245c0 149 92 245 234 245c133 0 223 -90 223 -221zM143 280h242c-1 72 -43 112 -118 112c-77 0 -123 -46 -124 -112z" />
    <glyph glyph-name="edotaccent" unicode="&#x117;" horiz-adv-x="527" 
d="M269 533c-48 0 -81 36 -81 81s33 81 81 81s81 -36 81 -81s-33 -81 -81 -81zM492 257c0 -21 -1 -32 -3 -60h-346c3 -74 51 -114 130 -114c54 0 86 17 104 53h110c-14 -87 -102 -148 -214 -148c-147 0 -238 94 -238 245c0 149 92 245 234 245c133 0 223 -90 223 -221z
M143 280h242c-1 72 -43 112 -118 112c-77 0 -123 -46 -124 -112z" />
    <glyph glyph-name="egrave" unicode="&#xe8;" horiz-adv-x="527" 
d="M418 586l-35 -84l-282 110l35 81zM492 257c0 -21 -1 -32 -3 -60h-346c3 -74 51 -114 130 -114c54 0 86 17 104 53h110c-14 -87 -102 -148 -214 -148c-147 0 -238 94 -238 245c0 149 92 245 234 245c133 0 223 -90 223 -221zM143 280h242c-1 72 -43 112 -118 112
c-77 0 -123 -46 -124 -112z" />
    <glyph glyph-name="emacron" unicode="&#x113;" horiz-adv-x="527" 
d="M428 642v-86h-318v86h318zM492 257c0 -21 -1 -32 -3 -60h-346c3 -74 51 -114 130 -114c54 0 86 17 104 53h110c-14 -87 -102 -148 -214 -148c-147 0 -238 94 -238 245c0 149 92 245 234 245c133 0 223 -90 223 -221zM143 280h242c-1 72 -43 112 -118 112
c-77 0 -123 -46 -124 -112z" />
    <glyph glyph-name="eogonek" unicode="&#x119;" horiz-adv-x="527" 
d="M492 257c0 -21 -1 -32 -3 -60h-346c3 -74 51 -114 130 -114c54 0 86 17 104 53h110c-12 -74 -78 -130 -167 -144c-41 -15 -55 -43 -55 -69c0 -31 24 -54 56 -54c16 0 32 3 51 12v-78c-21 -8 -46 -15 -81 -15c-76 0 -125 46 -125 102c0 37 21 72 64 101
c-121 16 -195 106 -195 242c0 149 92 245 234 245c133 0 223 -90 223 -221zM143 280h242c-1 72 -43 112 -118 112c-77 0 -123 -46 -124 -112z" />
    <glyph glyph-name="gbreve" unicode="&#x11f;" horiz-adv-x="592" 
d="M288 507c-107 0 -176 59 -182 156h92c3 -53 39 -77 90 -77s87 24 90 77h92c-6 -97 -75 -156 -182 -156zM413 466h109v-446c0 -92 -29 -161 -84 -201c-39 -29 -93 -41 -160 -41c-62 0 -121 13 -164 42c-44 30 -72 75 -74 127h114c9 -48 48 -79 123 -79
c89 0 136 39 136 144v51c-28 -47 -92 -75 -149 -75c-145 0 -229 108 -229 245s92 245 232 245c62 0 118 -28 146 -75v63zM280 85c89 0 138 68 138 148s-49 148 -138 148c-82 0 -136 -63 -136 -148s54 -148 136 -148z" />
    <glyph glyph-name="gcircumflex" unicode="&#x11d;" horiz-adv-x="592" 
d="M288 602l-121 -104l-59 63l180 147l180 -147l-58 -64zM413 466h109v-446c0 -92 -29 -161 -84 -201c-39 -29 -93 -41 -160 -41c-62 0 -121 13 -164 42c-44 30 -72 75 -74 127h114c9 -48 48 -79 123 -79c89 0 136 39 136 144v51c-28 -47 -92 -75 -149 -75
c-145 0 -229 108 -229 245s92 245 232 245c62 0 118 -28 146 -75v63zM280 85c89 0 138 68 138 148s-49 148 -138 148c-82 0 -136 -63 -136 -148s54 -148 136 -148z" />
    <glyph glyph-name="gcommaaccent" unicode="&#x123;" horiz-adv-x="592" 
d="M270 508c-36 0 -63 33 -63 82c0 62 43 104 115 105v-35c-24 0 -39 -6 -50 -14c-13 -9 -18 -22 -18 -33c3 4 11 6 19 6c31 0 53 -25 53 -55c0 -32 -26 -56 -56 -56zM413 466h109v-446c0 -92 -29 -161 -84 -201c-39 -29 -93 -41 -160 -41c-62 0 -121 13 -164 42
c-44 30 -72 75 -74 127h114c9 -48 48 -79 123 -79c89 0 136 39 136 144v51c-28 -47 -92 -75 -149 -75c-145 0 -229 108 -229 245s92 245 232 245c62 0 118 -28 146 -75v63zM280 85c89 0 138 68 138 148s-49 148 -138 148c-82 0 -136 -63 -136 -148s54 -148 136 -148z" />
    <glyph glyph-name="gdotaccent" unicode="&#x121;" horiz-adv-x="592" 
d="M288 533c-48 0 -81 36 -81 81s33 81 81 81s81 -36 81 -81s-33 -81 -81 -81zM413 466h109v-446c0 -92 -29 -161 -84 -201c-39 -29 -93 -41 -160 -41c-62 0 -121 13 -164 42c-44 30 -72 75 -74 127h114c9 -48 48 -79 123 -79c89 0 136 39 136 144v51
c-28 -47 -92 -75 -149 -75c-145 0 -229 108 -229 245s92 245 232 245c62 0 118 -28 146 -75v63zM280 85c89 0 138 68 138 148s-49 148 -138 148c-82 0 -136 -63 -136 -148s54 -148 136 -148z" />
    <glyph glyph-name="hbar" unicode="&#x127;" horiz-adv-x="566" 
d="M331 478c112 0 170 -63 170 -185v-293h-109v243c0 99 -26 142 -102 142c-71 0 -111 -47 -111 -129v-256h-109v530h-37v72h37v98h109v-98h147v-72h-147v-129c29 50 83 77 152 77z" />
    <glyph glyph-name="hcircumflex" unicode="&#x125;" horiz-adv-x="566" 
d="M191 738l-67 56l-67 -56l-49 54l116 94l116 -94zM331 478c112 0 170 -63 170 -185v-293h-109v243c0 99 -26 142 -102 142c-71 0 -111 -47 -111 -129v-256h-109v700h109v-299c29 50 83 77 152 77z" />
    <glyph glyph-name="iacute" unicode="&#xed;" horiz-adv-x="249" 
d="M74 512l-50 74l151 107l50 -74zM70 0v466h109v-466h-109z" />
    <glyph glyph-name="ibreve" unicode="&#x12d;" horiz-adv-x="249" 
d="M125 507c-63 0 -117 31 -117 136h73c2 -47 16 -68 44 -68s42 21 44 68h73c0 -105 -54 -136 -117 -136zM70 0v466h109v-466h-109z" />
    <glyph glyph-name="icircumflex" unicode="&#xee;" horiz-adv-x="249" 
d="M54 513l-59 63l130 114l130 -114l-58 -64l-72 67zM70 0v466h109v-466h-109z" />
    <glyph glyph-name="idieresis" unicode="&#xef;" horiz-adv-x="249" 
d="M54 542c-35 0 -63 29 -63 63c0 36 28 64 63 64s64 -28 64 -64c0 -34 -29 -63 -64 -63zM195 542c-34 0 -63 29 -63 63c0 36 29 64 63 64c36 0 64 -28 64 -64c0 -34 -28 -63 -64 -63zM70 0v466h109v-466h-109z" />
    <glyph glyph-name="dotlessi" unicode="&#x131;" horiz-adv-x="249" 
d="M70 0v466h109v-466h-109z" />
    <glyph glyph-name="igrave" unicode="&#xec;" horiz-adv-x="249" 
d="M175 512l-151 107l50 74l151 -107zM70 0v466h109v-466h-109z" />
    <glyph glyph-name="ij" unicode="&#x133;" horiz-adv-x="501" 
d="M125 533c-48 0 -81 36 -81 81s33 81 81 81s81 -36 81 -81s-33 -81 -81 -81zM377 533c-48 0 -81 36 -81 81s33 81 81 81s81 -36 81 -81s-33 -81 -81 -81zM70 0v466h109v-466h-109zM303 -216c-31 0 -51 3 -64 10v97c14 -3 26 -4 41 -4c29 0 42 15 42 48v531h109v-563
c0 -77 -45 -119 -128 -119z" />
    <glyph glyph-name="imacron" unicode="&#x12b;" horiz-adv-x="249" 
d="M21 556v86h208v-86h-208zM70 0v466h109v-466h-109z" />
    <glyph glyph-name="iogonek" unicode="&#x12f;" horiz-adv-x="249" 
d="M125 533c-48 0 -81 36 -81 81s33 81 81 81s81 -36 81 -81s-33 -81 -81 -81zM90 -77c0 -31 24 -54 56 -54c16 0 32 3 51 12v-78c-21 -8 -46 -15 -81 -15c-76 0 -125 46 -125 102c0 41 26 79 79 110v466h109v-466c-68 -10 -89 -45 -89 -77z" />
    <glyph glyph-name="itilde" unicode="&#x129;" horiz-adv-x="249" 
d="M163 521c-42 0 -55 53 -86 53c-16 0 -26 -6 -40 -31l-22 58c17 45 44 65 68 65c45 0 69 -53 94 -53c15 0 24 6 37 27l20 -59c-14 -47 -46 -60 -71 -60zM70 0v466h109v-466h-109z" />
    <glyph glyph-name="jcircumflex" unicode="&#x135;" horiz-adv-x="252" 
d="M57 513l-59 63l130 114l130 -114l-58 -64l-72 67zM54 -216c-31 0 -51 3 -64 10v97c14 -3 26 -4 41 -4c29 0 42 15 42 48v531h109v-563c0 -77 -45 -119 -128 -119z" />
    <glyph glyph-name="uni0237" unicode="&#x237;" horiz-adv-x="252" 
d="M54 -216c-31 0 -51 3 -64 10v97c14 -3 26 -4 41 -4c29 0 42 15 42 48v531h109v-563c0 -77 -45 -119 -128 -119z" />
    <glyph glyph-name="kcommaaccent" unicode="&#x137;" horiz-adv-x="518" 
d="M493 466l-202 -223l202 -243h-143l-171 212v-212h-109v700h109v-438l176 204h138zM264 -30c40 0 65 -28 65 -69c0 -78 -40 -109 -108 -110v34c22 0 38 5 49 13c10 8 12 19 13 30c-2 -2 -8 -4 -14 -4c-35 0 -58 23 -58 52c0 30 23 54 53 54z" />
    <glyph glyph-name="kgreenlandic" unicode="&#x138;" horiz-adv-x="518" 
d="M493 466l-202 -223l202 -243h-143l-171 212v-212h-109v466h109v-204l176 204h138z" />
    <glyph glyph-name="lacute" unicode="&#x13a;" horiz-adv-x="249" 
d="M63 730l-49 70l172 107l50 -70zM70 0v700h109v-700h-109z" />
    <glyph glyph-name="lcaron" unicode="&#x13e;" horiz-adv-x="395" 
d="M285 489c-7 0 -14 0 -21 1v47c7 -1 13 -1 19 -1c23 0 39 6 50 17c8 10 12 25 12 44c-8 -10 -24 -16 -42 -16c-35 0 -60 28 -60 67c0 41 29 69 72 69c49 0 85 -34 85 -103c0 -77 -42 -125 -115 -125zM70 0v700h109v-700h-109z" />
    <glyph glyph-name="lcommaaccent" unicode="&#x13c;" horiz-adv-x="249" 
d="M70 0v700h109v-700h-109zM77 -209v34c22 0 38 5 49 13c10 8 12 19 13 30c-2 -2 -8 -4 -14 -4c-35 0 -58 23 -58 52c0 30 23 54 53 54c40 0 65 -28 65 -69c0 -78 -40 -109 -108 -110z" />
    <glyph glyph-name="ldot" unicode="&#x140;" horiz-adv-x="393" 
d="M70 0v700h109v-700h-109zM303 266c-47 0 -84 39 -84 85s37 84 84 84s85 -38 85 -84s-38 -85 -85 -85z" />
    <glyph glyph-name="lslash" unicode="&#x142;" horiz-adv-x="249" 
d="M246 470v-82l-70 -37v-351h-109v292l-64 -34v82l64 34v326h109v-267z" />
    <glyph glyph-name="nacute" unicode="&#x144;" horiz-adv-x="566" 
d="M149 502l-35 84l282 107l35 -81zM70 0v466h109v-65c29 50 83 77 152 77c112 0 170 -63 170 -185v-293h-109v243c0 99 -26 142 -102 142c-71 0 -111 -47 -111 -129v-256h-109z" />
    <glyph glyph-name="napostrophe" unicode="&#x149;" horiz-adv-x="592" 
d="M57 489c-7 0 -14 0 -21 1v47c7 -1 13 -1 19 -1c23 0 39 6 50 17c8 10 12 25 12 44c-8 -10 -24 -16 -42 -16c-35 0 -60 28 -60 67c0 41 29 69 72 69c49 0 85 -34 85 -103c0 -77 -42 -125 -115 -125zM96 0v466h109v-65c29 50 83 77 152 77c112 0 170 -63 170 -185v-293
h-109v243c0 99 -26 142 -102 142c-71 0 -111 -47 -111 -129v-256h-109z" />
    <glyph glyph-name="ncaron" unicode="&#x148;" horiz-adv-x="566" 
d="M283 496l-180 147l59 63l121 -104l122 105l58 -64zM70 0v466h109v-65c29 50 83 77 152 77c112 0 170 -63 170 -185v-293h-109v243c0 99 -26 142 -102 142c-71 0 -111 -47 -111 -129v-256h-109z" />
    <glyph glyph-name="ncommaaccent" unicode="&#x146;" horiz-adv-x="566" 
d="M70 0v466h109v-65c29 50 83 77 152 77c112 0 170 -63 170 -185v-293h-109v243c0 99 -26 142 -102 142c-71 0 -111 -47 -111 -129v-256h-109zM235 -209v34c22 0 38 5 49 13c10 8 12 19 13 30c-2 -2 -8 -4 -14 -4c-35 0 -58 23 -58 52c0 30 23 54 53 54c40 0 65 -28 65 -69
c0 -78 -40 -109 -108 -110z" />
    <glyph glyph-name="ntilde" unicode="&#xf1;" horiz-adv-x="566" 
d="M357 521c-56 0 -96 56 -141 56c-26 0 -43 -12 -68 -38l-39 59c32 54 70 68 100 68c56 0 95 -56 141 -56c26 0 43 11 68 38l39 -59c-32 -54 -70 -68 -100 -68zM70 0v466h109v-65c29 50 83 77 152 77c112 0 170 -63 170 -185v-293h-109v243c0 99 -26 142 -102 142
c-71 0 -111 -47 -111 -129v-256h-109z" />
    <glyph glyph-name="eng" unicode="&#x14b;" horiz-adv-x="566" 
d="M331 478c112 0 170 -63 170 -185v-390c0 -77 -45 -119 -128 -119c-31 0 -51 3 -64 10v97c14 -3 26 -4 41 -4c29 0 42 15 42 48v308c0 99 -26 142 -102 142c-71 0 -111 -47 -111 -129v-256h-109v466h109v-65c29 50 83 77 152 77z" />
    <glyph glyph-name="oacute" unicode="&#xf3;" horiz-adv-x="562" 
d="M147 502l-35 84l282 107l35 -81zM281 -12c-154 0 -246 108 -246 245s92 245 246 245s246 -108 246 -245s-92 -245 -246 -245zM281 85c88 0 137 63 137 148s-49 148 -137 148s-137 -63 -137 -148s49 -148 137 -148z" />
    <glyph glyph-name="obreve" unicode="&#x14f;" horiz-adv-x="562" 
d="M281 507c-107 0 -176 59 -182 156h92c3 -53 39 -77 90 -77s87 24 90 77h92c-6 -97 -75 -156 -182 -156zM281 -12c-154 0 -246 108 -246 245s92 245 246 245s246 -108 246 -245s-92 -245 -246 -245zM281 85c88 0 137 63 137 148s-49 148 -137 148s-137 -63 -137 -148
s49 -148 137 -148z" />
    <glyph glyph-name="ocircumflex" unicode="&#xf4;" horiz-adv-x="562" 
d="M281 708l180 -147l-58 -64l-122 105l-121 -104l-59 63zM281 -12c-154 0 -246 108 -246 245s92 245 246 245s246 -108 246 -245s-92 -245 -246 -245zM281 85c88 0 137 63 137 148s-49 148 -137 148s-137 -63 -137 -148s49 -148 137 -148z" />
    <glyph glyph-name="odieresis" unicode="&#xf6;" horiz-adv-x="562" 
d="M179 532c-42 0 -76 34 -76 76c0 43 34 77 76 77c43 0 77 -34 77 -77c0 -42 -34 -76 -77 -76zM382 532c-42 0 -76 34 -76 76c0 43 34 77 76 77c43 0 77 -34 77 -77c0 -42 -34 -76 -77 -76zM281 -12c-154 0 -246 108 -246 245s92 245 246 245s246 -108 246 -245
s-92 -245 -246 -245zM281 85c88 0 137 63 137 148s-49 148 -137 148s-137 -63 -137 -148s49 -148 137 -148z" />
    <glyph glyph-name="oe" unicode="&#x153;" horiz-adv-x="910" 
d="M875 257c0 -21 -1 -32 -3 -60h-346c3 -74 51 -114 130 -114c54 0 86 17 104 53h110c-14 -87 -102 -148 -214 -148c-81 0 -145 29 -186 80c-43 -49 -107 -80 -189 -80c-154 0 -246 108 -246 245s92 245 246 245c82 0 147 -31 189 -80c41 51 104 80 182 80
c133 0 223 -90 223 -221zM526 280h242c-1 72 -43 112 -118 112c-77 0 -123 -46 -124 -112zM281 85c88 0 137 63 137 148s-49 148 -137 148s-137 -63 -137 -148s49 -148 137 -148z" />
    <glyph glyph-name="ograve" unicode="&#xf2;" horiz-adv-x="562" 
d="M395 502l-282 110l35 81l282 -107zM281 -12c-154 0 -246 108 -246 245s92 245 246 245s246 -108 246 -245s-92 -245 -246 -245zM281 85c88 0 137 63 137 148s-49 148 -137 148s-137 -63 -137 -148s49 -148 137 -148z" />
    <glyph glyph-name="ohungarumlaut" unicode="&#x151;" horiz-adv-x="562" 
d="M165 491l-52 28l125 166l96 -48zM360 491l-52 28l125 166l96 -48zM281 -12c-154 0 -246 108 -246 245s92 245 246 245s246 -108 246 -245s-92 -245 -246 -245zM281 85c88 0 137 63 137 148s-49 148 -137 148s-137 -63 -137 -148s49 -148 137 -148z" />
    <glyph glyph-name="omacron" unicode="&#x14d;" horiz-adv-x="562" 
d="M122 556v86h318v-86h-318zM281 -12c-154 0 -246 108 -246 245s92 245 246 245s246 -108 246 -245s-92 -245 -246 -245zM281 85c88 0 137 63 137 148s-49 148 -137 148s-137 -63 -137 -148s49 -148 137 -148z" />
    <glyph glyph-name="ordfeminine" unicode="&#xaa;" horiz-adv-x="372" 
d="M157 394c-84 0 -136 60 -136 142s55 144 137 144c43 0 77 -20 93 -47v39h88v-272h-88v39c-16 -28 -52 -45 -94 -45zM182 466c45 0 72 32 72 70c0 39 -27 70 -72 70c-43 0 -71 -30 -71 -70s28 -70 71 -70z" />
    <glyph glyph-name="ordmasculine" unicode="&#xba;" horiz-adv-x="365" 
d="M182 393c-99 0 -160 61 -160 144c0 82 61 143 160 143s161 -61 161 -143c0 -83 -62 -144 -161 -144zM182 466c45 0 72 30 72 71c0 40 -27 69 -72 69s-73 -29 -73 -69c0 -41 28 -71 73 -71z" />
    <glyph glyph-name="oslash" unicode="&#xf8;" horiz-adv-x="562" 
d="M414 444c73 -42 113 -120 113 -211c0 -137 -92 -245 -246 -245c-22 0 -42 2 -62 6l-33 -77l-61 28l31 72c-77 41 -121 122 -121 216c0 137 92 245 246 245c25 0 49 -3 71 -8l35 80l61 -28zM144 233c0 -52 18 -96 53 -122l116 267c-10 2 -21 3 -32 3
c-88 0 -137 -63 -137 -148zM281 85c88 0 137 63 137 148c0 48 -16 89 -45 116l-114 -263c7 -1 14 -1 22 -1z" />
    <glyph glyph-name="oslashacute" unicode="&#x1ff;" horiz-adv-x="562" 
d="M429 612l-282 -110l-35 84l282 107zM414 444c73 -42 113 -120 113 -211c0 -137 -92 -245 -246 -245c-22 0 -42 2 -62 6l-33 -77l-61 28l31 72c-77 41 -121 122 -121 216c0 137 92 245 246 245c25 0 49 -3 71 -8l35 80l61 -28zM144 233c0 -52 18 -96 53 -122l116 267
c-10 2 -21 3 -32 3c-88 0 -137 -63 -137 -148zM281 85c88 0 137 63 137 148c0 48 -16 89 -45 116l-114 -263c7 -1 14 -1 22 -1z" />
    <glyph glyph-name="otilde" unicode="&#xf5;" horiz-adv-x="562" 
d="M355 521c-56 0 -96 56 -141 56c-26 0 -43 -12 -68 -38l-39 59c32 54 70 68 100 68c56 0 95 -56 141 -56c26 0 43 11 68 38l39 -59c-32 -54 -70 -68 -100 -68zM281 -12c-154 0 -246 108 -246 245s92 245 246 245s246 -108 246 -245s-92 -245 -246 -245zM281 85
c88 0 137 63 137 148s-49 148 -137 148s-137 -63 -137 -148s49 -148 137 -148z" />
    <glyph glyph-name="racute" unicode="&#x155;" horiz-adv-x="366" 
d="M42 502l-35 84l282 107l35 -81zM70 0v466h109v-90c17 66 73 96 124 96c17 0 31 -1 43 -4v-100c-17 2 -26 2 -43 2c-77 0 -124 -58 -124 -164v-206h-109z" />
    <glyph glyph-name="rcaron" unicode="&#x159;" horiz-adv-x="366" 
d="M176 496l-180 147l59 63l121 -104l122 105l58 -64zM70 0v466h109v-90c17 66 73 96 124 96c17 0 31 -1 43 -4v-100c-17 2 -26 2 -43 2c-77 0 -124 -58 -124 -164v-206h-109z" />
    <glyph glyph-name="rcommaaccent" unicode="&#x157;" horiz-adv-x="366" 
d="M70 0v466h109v-90c17 66 73 96 124 96c17 0 31 -1 43 -4v-100c-17 2 -26 2 -43 2c-77 0 -124 -58 -124 -164v-206h-109zM84 -209v34c22 0 38 5 49 13c10 8 12 19 13 30c-2 -2 -8 -4 -14 -4c-35 0 -58 23 -58 52c0 30 23 54 53 54c40 0 65 -28 65 -69
c0 -78 -40 -109 -108 -110z" />
    <glyph glyph-name="sacute" unicode="&#x15b;" horiz-adv-x="457" 
d="M92 502l-35 84l282 107l35 -81zM233 -12c-120 0 -198 70 -198 155h109c0 -40 39 -68 95 -68c41 0 67 22 67 55c0 21 -8 42 -35 49l-120 33c-69 19 -101 67 -101 129c0 76 71 137 179 137c122 0 184 -62 184 -145h-107c0 39 -30 62 -81 62c-38 0 -67 -19 -67 -48
c0 -26 16 -43 40 -50l111 -32c63 -18 108 -65 108 -125c0 -89 -65 -152 -184 -152z" />
    <glyph glyph-name="scaron" unicode="&#x161;" horiz-adv-x="457" 
d="M226 496l-180 147l59 63l121 -104l122 105l58 -64zM233 -12c-120 0 -198 70 -198 155h109c0 -40 39 -68 95 -68c41 0 67 22 67 55c0 21 -8 42 -35 49l-120 33c-69 19 -101 67 -101 129c0 76 71 137 179 137c122 0 184 -62 184 -145h-107c0 39 -30 62 -81 62
c-38 0 -67 -19 -67 -48c0 -26 16 -43 40 -50l111 -32c63 -18 108 -65 108 -125c0 -89 -65 -152 -184 -152z" />
    <glyph glyph-name="scedilla" unicode="&#x15f;" horiz-adv-x="457" 
d="M417 140c0 -84 -57 -144 -163 -151v-48c7 6 24 11 41 11c39 0 76 -26 76 -79c0 -49 -31 -89 -93 -89c-50 0 -85 25 -90 74h55c1 -18 17 -28 34 -28c21 0 36 14 36 42c0 27 -14 40 -35 40c-14 0 -25 -6 -32 -16h-49v94c-99 13 -162 77 -162 153h109c0 -40 39 -68 95 -68
c41 0 67 22 67 55c0 21 -8 42 -35 49l-120 33c-69 19 -101 67 -101 129c0 76 71 137 179 137c122 0 184 -62 184 -145h-107c0 39 -30 62 -81 62c-38 0 -67 -19 -67 -48c0 -26 16 -43 40 -50l111 -32c63 -18 108 -65 108 -125z" />
    <glyph glyph-name="scircumflex" unicode="&#x15d;" horiz-adv-x="457" 
d="M226 708l180 -147l-58 -64l-122 105l-121 -104l-59 63zM233 -12c-120 0 -198 70 -198 155h109c0 -40 39 -68 95 -68c41 0 67 22 67 55c0 21 -8 42 -35 49l-120 33c-69 19 -101 67 -101 129c0 76 71 137 179 137c122 0 184 -62 184 -145h-107c0 39 -30 62 -81 62
c-38 0 -67 -19 -67 -48c0 -26 16 -43 40 -50l111 -32c63 -18 108 -65 108 -125c0 -89 -65 -152 -184 -152z" />
    <glyph glyph-name="scommaaccent" unicode="&#x219;" horiz-adv-x="457" 
d="M233 -12c-120 0 -198 70 -198 155h109c0 -40 39 -68 95 -68c41 0 67 22 67 55c0 21 -8 42 -35 49l-120 33c-69 19 -101 67 -101 129c0 76 71 137 179 137c122 0 184 -62 184 -145h-107c0 39 -30 62 -81 62c-38 0 -67 -19 -67 -48c0 -26 16 -43 40 -50l111 -32
c63 -18 108 -65 108 -125c0 -89 -65 -152 -184 -152zM178 -209v34c22 0 38 5 49 13c10 8 12 19 13 30c-2 -2 -8 -4 -14 -4c-35 0 -58 23 -58 52c0 30 23 54 53 54c40 0 65 -28 65 -69c0 -78 -40 -109 -108 -110z" />
    <glyph glyph-name="tbar" unicode="&#x167;" horiz-adv-x="371" 
d="M286 92c17 0 44 2 55 4v-96c-17 -3 -49 -6 -81 -6c-53 0 -151 7 -151 164v54h-84v72h84v91h-79v91h79v141h109v-141h107v-91h-107v-91h102v-72h-102v-29c0 -81 25 -91 68 -91z" />
    <glyph glyph-name="tcaron" unicode="&#x165;" horiz-adv-x="388" 
d="M319 715c45 0 77 -31 77 -93c0 -70 -38 -113 -104 -113c-6 0 -12 0 -19 1v42h17c21 0 36 5 46 15c7 9 10 23 10 40c-7 -9 -21 -15 -38 -15c-31 0 -54 26 -54 61c0 37 26 62 65 62zM213 183c0 -81 25 -91 68 -91c17 0 44 2 55 4v-96c-17 -3 -49 -6 -81 -6
c-53 0 -151 7 -151 164v217h-79v91h79v141h109v-141h107v-91h-107v-192z" />
    <glyph glyph-name="uni0163" unicode="&#x163;" horiz-adv-x="366" 
d="M307 -48c39 0 76 -26 76 -79c0 -49 -31 -89 -93 -89c-50 0 -85 25 -90 74h55c1 -18 17 -28 34 -28c21 0 36 14 36 42c0 27 -14 40 -35 40c-14 0 -25 -6 -32 -16h-49v102c-50 9 -105 42 -105 160v217h-79v91h79v141h109v-141h107v-91h-107v-192c0 -81 25 -91 68 -91
c17 0 44 2 55 4v-96c-15 -3 -42 -5 -70 -6v-53c7 6 24 11 41 11z" />
    <glyph glyph-name="uni021B" unicode="&#x21b;" horiz-adv-x="366" 
d="M281 92c17 0 44 2 55 4v-96c-17 -3 -49 -6 -81 -6c-53 0 -151 7 -151 164v217h-79v91h79v141h109v-141h107v-91h-107v-192c0 -81 25 -91 68 -91zM233 -30c40 0 65 -28 65 -69c0 -78 -40 -109 -108 -110v34c22 0 38 5 49 13c10 8 12 19 13 30c-2 -2 -8 -4 -14 -4
c-35 0 -58 23 -58 52c0 30 23 54 53 54z" />
    <glyph glyph-name="thorn" unicode="&#xfe;" horiz-adv-x="592" 
d="M335 478c133 0 222 -98 222 -245c0 -144 -94 -245 -229 -245c-62 0 -121 30 -149 75v-273h-109v910h109v-297c28 45 90 75 156 75zM312 85c80 0 136 61 136 148s-56 148 -136 148c-82 0 -138 -60 -138 -148s56 -148 138 -148z" />
    <glyph glyph-name="uacute" unicode="&#xfa;" horiz-adv-x="561" 
d="M147 502l-35 84l282 107l35 -81zM238 -12c-102 0 -173 60 -173 185v293h109v-266c0 -75 24 -119 95 -119c83 0 113 55 113 122v263h109v-466h-109v65c-28 -50 -77 -77 -144 -77z" />
    <glyph glyph-name="ubreve" unicode="&#x16d;" horiz-adv-x="561" 
d="M281 507c-107 0 -176 59 -182 156h92c3 -53 39 -77 90 -77s87 24 90 77h92c-6 -97 -75 -156 -182 -156zM238 -12c-102 0 -173 60 -173 185v293h109v-266c0 -75 24 -119 95 -119c83 0 113 55 113 122v263h109v-466h-109v65c-28 -50 -77 -77 -144 -77z" />
    <glyph glyph-name="ucircumflex" unicode="&#xfb;" horiz-adv-x="561" 
d="M281 708l180 -147l-58 -64l-122 105l-121 -104l-59 63zM238 -12c-102 0 -173 60 -173 185v293h109v-266c0 -75 24 -119 95 -119c83 0 113 55 113 122v263h109v-466h-109v65c-28 -50 -77 -77 -144 -77z" />
    <glyph glyph-name="udieresis" unicode="&#xfc;" horiz-adv-x="561" 
d="M179 532c-42 0 -76 34 -76 76c0 43 34 77 76 77c43 0 77 -34 77 -77c0 -42 -34 -76 -77 -76zM382 532c-42 0 -76 34 -76 76c0 43 34 77 76 77c43 0 77 -34 77 -77c0 -42 -34 -76 -77 -76zM238 -12c-102 0 -173 60 -173 185v293h109v-266c0 -75 24 -119 95 -119
c83 0 113 55 113 122v263h109v-466h-109v65c-28 -50 -77 -77 -144 -77z" />
    <glyph glyph-name="ugrave" unicode="&#xf9;" horiz-adv-x="561" 
d="M395 502l-282 110l35 81l282 -107zM238 -12c-102 0 -173 60 -173 185v293h109v-266c0 -75 24 -119 95 -119c83 0 113 55 113 122v263h109v-466h-109v65c-28 -50 -77 -77 -144 -77z" />
    <glyph glyph-name="uhungarumlaut" unicode="&#x171;" horiz-adv-x="561" 
d="M165 491l-52 28l125 166l96 -48zM360 491l-52 28l125 166l96 -48zM238 -12c-102 0 -173 60 -173 185v293h109v-266c0 -75 24 -119 95 -119c83 0 113 55 113 122v263h109v-466h-109v65c-28 -50 -77 -77 -144 -77z" />
    <glyph glyph-name="umacron" unicode="&#x16b;" horiz-adv-x="561" 
d="M122 556v86h318v-86h-318zM238 -12c-102 0 -173 60 -173 185v293h109v-266c0 -75 24 -119 95 -119c83 0 113 55 113 122v263h109v-466h-109v65c-28 -50 -77 -77 -144 -77z" />
    <glyph glyph-name="uogonek" unicode="&#x173;" horiz-adv-x="561" 
d="M458 -131c16 0 32 3 51 12v-78c-21 -8 -46 -15 -81 -15c-76 0 -125 46 -125 102c0 41 26 79 79 110v65c-28 -50 -77 -77 -144 -77c-102 0 -173 60 -173 185v293h109v-266c0 -75 24 -119 95 -119c83 0 113 55 113 122v263h109v-466c-68 -10 -89 -45 -89 -77
c0 -31 24 -54 56 -54z" />
    <glyph glyph-name="uring" unicode="&#x16f;" horiz-adv-x="561" 
d="M281 503c-63 0 -113 45 -113 110s50 110 113 110s113 -45 113 -110s-50 -110 -113 -110zM281 556c30 0 53 23 53 57s-23 57 -53 57s-53 -23 -53 -57s23 -57 53 -57zM238 -12c-102 0 -173 60 -173 185v293h109v-266c0 -75 24 -119 95 -119c83 0 113 55 113 122v263h109
v-466h-109v65c-28 -50 -77 -77 -144 -77z" />
    <glyph glyph-name="utilde" unicode="&#x169;" horiz-adv-x="561" 
d="M355 521c-56 0 -96 56 -141 56c-26 0 -43 -12 -68 -38l-39 59c32 54 70 68 100 68c56 0 95 -56 141 -56c26 0 43 11 68 38l39 -59c-32 -54 -70 -68 -100 -68zM238 -12c-102 0 -173 60 -173 185v293h109v-266c0 -75 24 -119 95 -119c83 0 113 55 113 122v263h109v-466
h-109v65c-28 -50 -77 -77 -144 -77z" />
    <glyph glyph-name="wacute" unicode="&#x1e83;" horiz-adv-x="764" 
d="M248 502l-35 84l282 107l35 -81zM177 0l-172 466h120l97 -308l101 308h118l101 -308l97 308h120l-172 -466h-92l-113 332l-113 -332h-92z" />
    <glyph glyph-name="wcircumflex" unicode="&#x175;" horiz-adv-x="764" 
d="M382 708l180 -147l-58 -64l-122 105l-121 -104l-59 63zM177 0l-172 466h120l97 -308l101 308h118l101 -308l97 308h120l-172 -466h-92l-113 332l-113 -332h-92z" />
    <glyph glyph-name="wdieresis" unicode="&#x1e85;" horiz-adv-x="764" 
d="M280 532c-42 0 -76 34 -76 76c0 43 34 77 76 77c43 0 77 -34 77 -77c0 -42 -34 -76 -77 -76zM483 532c-42 0 -76 34 -76 76c0 43 34 77 76 77c43 0 77 -34 77 -77c0 -42 -34 -76 -77 -76zM177 0l-172 466h120l97 -308l101 308h118l101 -308l97 308h120l-172 -466h-92
l-113 332l-113 -332h-92z" />
    <glyph glyph-name="wgrave" unicode="&#x1e81;" horiz-adv-x="764" 
d="M496 502l-282 110l35 81l282 -107zM177 0l-172 466h120l97 -308l101 308h118l101 -308l97 308h120l-172 -466h-92l-113 332l-113 -332h-92z" />
    <glyph glyph-name="yacute" unicode="&#xfd;" horiz-adv-x="566" 
d="M140 502l-35 84l282 107l35 -81zM387 466h109v-468c0 -73 -22 -128 -61 -166c-38 -35 -92 -54 -158 -54c-69 0 -123 17 -160 48c-33 29 -51 70 -52 121h110c5 -51 30 -79 100 -79c65 0 112 39 112 138v59c-29 -50 -81 -77 -150 -77c-115 0 -172 82 -172 194v284h109v-261
c0 -69 23 -121 101 -121c76 0 112 61 112 141v241z" />
    <glyph glyph-name="ycircumflex" unicode="&#x177;" horiz-adv-x="566" 
d="M274 708l180 -147l-58 -64l-122 105l-121 -104l-59 63zM387 466h109v-468c0 -73 -22 -128 -61 -166c-38 -35 -92 -54 -158 -54c-69 0 -123 17 -160 48c-33 29 -51 70 -52 121h110c5 -51 30 -79 100 -79c65 0 112 39 112 138v59c-29 -50 -81 -77 -150 -77
c-115 0 -172 82 -172 194v284h109v-261c0 -69 23 -121 101 -121c76 0 112 61 112 141v241z" />
    <glyph glyph-name="ydieresis" unicode="&#xff;" horiz-adv-x="566" 
d="M172 532c-42 0 -76 34 -76 76c0 43 34 77 76 77c43 0 77 -34 77 -77c0 -42 -34 -76 -77 -76zM375 532c-42 0 -76 34 -76 76c0 43 34 77 76 77c43 0 77 -34 77 -77c0 -42 -34 -76 -77 -76zM387 466h109v-468c0 -73 -22 -128 -61 -166c-38 -35 -92 -54 -158 -54
c-69 0 -123 17 -160 48c-33 29 -51 70 -52 121h110c5 -51 30 -79 100 -79c65 0 112 39 112 138v59c-29 -50 -81 -77 -150 -77c-115 0 -172 82 -172 194v284h109v-261c0 -69 23 -121 101 -121c76 0 112 61 112 141v241z" />
    <glyph glyph-name="ygrave" unicode="&#x1ef3;" horiz-adv-x="566" 
d="M388 502l-282 110l35 81l282 -107zM387 466h109v-468c0 -73 -22 -128 -61 -166c-38 -35 -92 -54 -158 -54c-69 0 -123 17 -160 48c-33 29 -51 70 -52 121h110c5 -51 30 -79 100 -79c65 0 112 39 112 138v59c-29 -50 -81 -77 -150 -77c-115 0 -172 82 -172 194v284h109
v-261c0 -69 23 -121 101 -121c76 0 112 61 112 141v241z" />
    <glyph glyph-name="zacute" unicode="&#x17a;" horiz-adv-x="443" 
d="M83 502l-35 84l282 107l35 -81zM5 0l252 374h-231v92h412l-253 -375h235v-91h-415z" />
    <glyph glyph-name="zcaron" unicode="&#x17e;" horiz-adv-x="443" 
d="M217 496l-180 147l59 63l121 -104l122 105l58 -64zM5 0l252 374h-231v92h412l-253 -375h235v-91h-415z" />
    <glyph glyph-name="zdotaccent" unicode="&#x17c;" horiz-adv-x="443" 
d="M217 533c-48 0 -81 36 -81 81s33 81 81 81s81 -36 81 -81s-33 -81 -81 -81zM5 0l252 374h-231v92h412l-253 -375h235v-91h-415z" />
    <glyph glyph-name="germandbls" unicode="&#xdf;" horiz-adv-x="567" 
d="M310 -12c-39 0 -76 7 -92 12v94c27 -7 64 -9 82 -9c66 0 118 34 118 113c0 45 -23 120 -127 120h-59v97h46c92 0 123 46 123 103c0 58 -41 102 -108 102c-76 0 -114 -52 -114 -127v-493h-109v493c0 133 83 224 223 224c139 0 217 -78 217 -189c0 -90 -61 -145 -129 -158
c87 -7 146 -96 146 -187c0 -136 -104 -195 -217 -195z" />
    <glyph glyph-name="ampersand" unicode="&#x26;" horiz-adv-x="597" 
d="M587 328v-101h-51c-4 -169 -119 -244 -252 -244c-141 0 -244 89 -244 215c0 91 67 154 132 171c-68 24 -115 73 -115 153c0 117 93 195 230 195c131 0 234 -71 234 -223h-120c0 70 -32 125 -114 125c-58 0 -111 -33 -111 -97c0 -62 26 -104 111 -104h26v-104h-24
c-99 0 -131 -50 -131 -117c0 -59 46 -114 126 -114c66 0 130 42 133 144h-60v101h230z" />
    <glyph glyph-name="grave" unicode="`" horiz-adv-x="600" 
d="M296 502l-282 110l35 81l282 -107z" />
    <glyph glyph-name="acute" unicode="&#xb4;" horiz-adv-x="600" 
d="M111 502l-35 84l282 107l35 -81z" />
    <glyph glyph-name="circumflex" unicode="&#x2c6;" horiz-adv-x="600" 
d="M220 708l180 -147l-58 -64l-122 105l-121 -104l-59 63z" />
    <glyph glyph-name="tilde" unicode="&#x2dc;" horiz-adv-x="600" 
d="M292 521c-56 0 -96 56 -141 56c-26 0 -43 -12 -68 -38l-39 59c32 54 70 68 100 68c56 0 95 -56 141 -56c26 0 43 11 68 38l39 -59c-32 -54 -70 -68 -100 -68z" />
    <glyph glyph-name="caron" unicode="&#x2c7;" horiz-adv-x="600" 
d="M220 496l-180 147l59 63l121 -104l122 105l58 -64z" />
    <glyph glyph-name="dieresis" unicode="&#xa8;" horiz-adv-x="600" 
d="M129 532c-42 0 -76 34 -76 76c0 43 34 77 76 77c43 0 77 -34 77 -77c0 -42 -34 -76 -77 -76zM332 532c-42 0 -76 34 -76 76c0 43 34 77 76 77c43 0 77 -34 77 -77c0 -42 -34 -76 -77 -76z" />
    <glyph glyph-name="macron" unicode="&#xaf;" horiz-adv-x="600" 
d="M60 556v86h318v-86h-318z" />
    <glyph glyph-name="breve" unicode="&#x2d8;" horiz-adv-x="600" 
d="M232 507c-107 0 -176 59 -182 156h92c3 -53 39 -77 90 -77s87 24 90 77h92c-6 -97 -75 -156 -182 -156z" />
    <glyph glyph-name="ring" unicode="&#x2da;" horiz-adv-x="600" 
d="M155 479c-63 0 -113 45 -113 110s50 110 113 110s113 -45 113 -110s-50 -110 -113 -110zM155 532c30 0 53 23 53 57s-23 57 -53 57s-53 -23 -53 -57s23 -57 53 -57z" />
    <glyph glyph-name="hungarumlaut" unicode="&#x2dd;" horiz-adv-x="600" 
d="M92 491l-52 28l125 166l96 -48zM287 491l-52 28l125 166l96 -48z" />
    <glyph glyph-name="dotaccent" unicode="&#x2d9;" horiz-adv-x="600" 
d="M300 533c-48 0 -81 36 -81 81s33 81 81 81s81 -36 81 -81s-33 -81 -81 -81z" />
    <glyph glyph-name="cedilla" unicode="&#xb8;" horiz-adv-x="600" 
d="M140 -216c-50 0 -85 25 -90 74h55c1 -18 17 -28 34 -28c21 0 36 14 36 42c0 27 -14 40 -35 40c-14 0 -25 -6 -32 -16h-49v104h57v-59c7 6 24 11 41 11c39 0 76 -26 76 -79c0 -49 -31 -89 -93 -89z" />
    <glyph glyph-name="ogonek" unicode="&#x2db;" horiz-adv-x="600" 
d="M165 -212c-76 0 -125 46 -125 102c0 41 26 79 79 110h109c-68 -10 -89 -45 -89 -77c0 -31 24 -54 56 -54c16 0 32 3 51 12v-78c-21 -8 -46 -15 -81 -15z" />
    <glyph glyph-name="comma" unicode="," horiz-adv-x="301" 
d="M99 -121c-13 0 -29 1 -39 3v49c15 -2 22 -2 44 -2c25 0 44 9 56 24c13 15 20 36 22 58c-11 -13 -29 -17 -45 -17c-42 0 -77 30 -77 79s35 82 83 82c42 0 98 -33 98 -121s-47 -155 -142 -155z" />
    <glyph glyph-name="semicolon" unicode=";" horiz-adv-x="301" 
d="M144 308c-47 0 -84 39 -84 85s37 84 84 84s85 -38 85 -84s-38 -85 -85 -85zM99 -121c-13 0 -29 1 -39 3v49c15 -2 22 -2 44 -2c25 0 44 9 56 24c13 15 20 36 22 58c-11 -13 -29 -17 -45 -17c-42 0 -77 30 -77 79s35 82 83 82c42 0 98 -33 98 -121s-47 -155 -142 -155z
" />
    <glyph glyph-name="colon" unicode=":" horiz-adv-x="289" 
d="M144 309c-47 0 -84 39 -84 85s37 84 84 84s85 -38 85 -84s-38 -85 -85 -85zM144 -8c-47 0 -84 39 -84 85s37 84 84 84s85 -38 85 -84s-38 -85 -85 -85z" />
    <glyph glyph-name="period" unicode="." horiz-adv-x="289" 
d="M144 -8c-47 0 -84 39 -84 85s37 84 84 84s85 -38 85 -84s-38 -85 -85 -85z" />
    <glyph glyph-name="ellipsis" unicode="&#x2026;" horiz-adv-x="790" 
d="M144 -12c-47 0 -84 39 -84 85s37 84 84 84s85 -38 85 -84s-38 -85 -85 -85zM393 -12c-47 0 -84 39 -84 85s37 84 84 84s85 -38 85 -84s-38 -85 -85 -85zM645 -12c-47 0 -84 39 -84 85s37 84 84 84s85 -38 85 -84s-38 -85 -85 -85z" />
    <glyph glyph-name="hyphen" unicode="-" horiz-adv-x="409" 
d="M50 216v97h309v-97h-309z" />
    <glyph glyph-name="exclam" unicode="!" horiz-adv-x="281" 
d="M86 223v477h109v-477h-109zM140 -8c-47 0 -84 39 -84 85s37 84 84 84s85 -38 85 -84s-38 -85 -85 -85z" />
    <glyph glyph-name="exclamdown" unicode="&#xa1;" horiz-adv-x="281" 
d="M140 498c47 0 85 -39 85 -85s-38 -84 -85 -84s-84 38 -84 84s37 85 84 85zM86 267h109v-477h-109v477z" />
    <glyph glyph-name="question" unicode="?" horiz-adv-x="468" 
d="M156 223v11c0 60 6 95 64 138l46 34c44 32 63 65 63 115c0 59 -38 96 -93 96c-67 0 -116 -38 -116 -123h-115c0 143 90 223 236 223c132 0 207 -79 207 -192c0 -86 -43 -135 -104 -183l-36 -28c-36 -28 -43 -45 -43 -77v-14h-109zM210 -8c-47 0 -84 39 -84 85
s37 84 84 84s85 -38 85 -84s-38 -85 -85 -85z" />
    <glyph glyph-name="questiondown" unicode="&#xbf;" horiz-adv-x="468" 
d="M258 529c47 0 84 -39 84 -85s-37 -84 -84 -84s-85 38 -85 84s38 85 85 85zM312 298v-11c0 -60 -6 -95 -64 -138l-46 -34c-44 -32 -63 -65 -63 -115c0 -59 38 -96 93 -96c67 0 116 38 116 123h115c0 -143 -90 -223 -236 -223c-132 0 -207 79 -207 192c0 86 43 135 104 183
l36 28c36 28 43 45 43 77v14h109z" />
    <glyph glyph-name="quoteleft" unicode="&#x2018;" horiz-adv-x="284" 
d="M151 481c-39 0 -91 31 -91 113s44 145 133 145c12 0 27 -1 36 -3v-46c-14 2 -16 2 -36 2c-23 0 -42 -9 -55 -23c-13 -13 -21 -32 -23 -53c10 12 27 16 42 16c39 0 72 -28 72 -74s-33 -77 -78 -77z" />
    <glyph glyph-name="quoteright" unicode="&#x2019;" horiz-adv-x="284" 
d="M133 719c39 0 91 -31 91 -113s-44 -145 -133 -145c-12 0 -27 1 -36 3v46c14 -2 16 -2 36 -2c23 0 42 9 55 23c13 13 21 32 23 53c-10 -12 -27 -16 -42 -16c-39 0 -72 28 -72 74s33 77 78 77z" />
    <glyph glyph-name="quotedblleft" unicode="&#x201c;" horiz-adv-x="483" 
d="M151 481c-39 0 -91 31 -91 113s44 145 133 145c12 0 27 -1 36 -3v-46c-14 2 -16 2 -36 2c-23 0 -42 -9 -55 -23c-13 -13 -21 -32 -23 -53c10 12 27 16 42 16c39 0 72 -28 72 -74s-33 -77 -78 -77zM350 481c-39 0 -91 31 -91 113s44 145 133 145c12 0 27 -1 36 -3v-46
c-14 2 -16 2 -36 2c-23 0 -42 -9 -55 -23c-13 -13 -21 -32 -23 -53c10 12 27 16 42 16c39 0 72 -28 72 -74s-33 -77 -78 -77z" />
    <glyph glyph-name="quotedblright" unicode="&#x201d;" horiz-adv-x="483" 
d="M133 719c39 0 91 -31 91 -113s-44 -145 -133 -145c-12 0 -27 1 -36 3v46c14 -2 16 -2 36 -2c23 0 42 9 55 23c13 13 21 32 23 53c-10 -12 -27 -16 -42 -16c-39 0 -72 28 -72 74s33 77 78 77zM332 719c39 0 91 -31 91 -113s-44 -145 -133 -145c-12 0 -27 1 -36 3v46
c14 -2 16 -2 36 -2c23 0 42 9 55 23c13 13 21 32 23 53c-10 -12 -27 -16 -42 -16c-39 0 -72 28 -72 74s33 77 78 77z" />
    <glyph glyph-name="quotesinglbase" unicode="&#x201a;" horiz-adv-x="284" 
d="M133 141c39 0 91 -31 91 -113s-44 -145 -133 -145c-12 0 -27 1 -36 3v46c14 -2 16 -2 36 -2c23 0 42 9 55 23c13 13 21 32 23 53c-10 -12 -27 -16 -42 -16c-39 0 -72 28 -72 74s33 77 78 77z" />
    <glyph glyph-name="quotedblbase" unicode="&#x201e;" horiz-adv-x="483" 
d="M133 141c39 0 91 -31 91 -113s-44 -145 -133 -145c-12 0 -27 1 -36 3v46c14 -2 16 -2 36 -2c23 0 42 9 55 23c13 13 21 32 23 53c-10 -12 -27 -16 -42 -16c-39 0 -72 28 -72 74s33 77 78 77zM332 141c39 0 91 -31 91 -113s-44 -145 -133 -145c-12 0 -27 1 -36 3v46
c14 -2 16 -2 36 -2c23 0 42 9 55 23c13 13 21 32 23 53c-10 -12 -27 -16 -42 -16c-39 0 -72 28 -72 74s33 77 78 77z" />
    <glyph glyph-name="guilsinglleft" unicode="&#x2039;" horiz-adv-x="284" 
d="M213 65l-208 196l208 196l61 -63l-141 -133l141 -133z" />
    <glyph glyph-name="guilsinglright" unicode="&#x203a;" horiz-adv-x="284" 
d="M71 65l-61 63l141 133l-141 133l61 63l208 -196z" />
    <glyph glyph-name="slash" unicode="/" horiz-adv-x="451" 
d="M98 -69l-88 38l343 795l88 -38z" />
    <glyph glyph-name="bar" unicode="|" horiz-adv-x="234" 
d="M75 -192v925h84v-925h-84z" />
    <glyph glyph-name="endash" unicode="&#x2013;" horiz-adv-x="628" 
d="M50 231v87h528v-87h-528z" />
    <glyph glyph-name="emdash" unicode="&#x2014;" horiz-adv-x="817" 
d="M50 231v87h717v-87h-717z" />
    <glyph glyph-name="bullet" unicode="&#x2022;" horiz-adv-x="353" 
d="M176 196c-64 0 -116 52 -116 116c0 65 52 117 116 117c65 0 117 -52 117 -117c0 -64 -52 -116 -117 -116z" />
    <glyph glyph-name="parenleft" unicode="(" horiz-adv-x="325" 
d="M273 -195c-124 107 -223 253 -223 468s99 361 223 468l67 -61c-115 -114 -181 -236 -181 -407s66 -293 181 -407z" />
    <glyph glyph-name="parenright" unicode=")" horiz-adv-x="325" 
d="M52 -195l-67 61c115 114 181 236 181 407s-66 293 -181 407l67 61c124 -107 223 -253 223 -468s-99 -361 -223 -468z" />
    <glyph glyph-name="bracketleft" unicode="[" horiz-adv-x="292" 
d="M75 -193v926h202v-87h-103v-753h103v-86h-202z" />
    <glyph glyph-name="bracketright" unicode="]" horiz-adv-x="292" 
d="M217 -193h-202v86h103v753h-103v87h202v-926z" />
    <glyph glyph-name="asterisk" unicode="*" horiz-adv-x="412" 
d="M126 348l-70 49l101 121l-137 34l26 76l130 -54l-12 143h84l-12 -143l130 54l26 -76l-137 -34l101 -121l-70 -49l-80 133z" />
    <glyph glyph-name="dagger" unicode="&#x2020;" horiz-adv-x="440" 
d="M166 -182v551h-116v97h116v251h109v-251h115v-97h-115v-551h-109z" />
    <glyph glyph-name="asciitilde" unicode="~" horiz-adv-x="547" 
d="M386 180c-39 0 -73 15 -108 33c-34 18 -74 35 -122 35c-41 0 -79 -29 -106 -55v93c33 44 77 59 111 59c36 0 77 -15 118 -32c39 -16 80 -36 108 -36c45 0 83 29 110 55v-93c-33 -44 -77 -59 -111 -59z" />
    <glyph glyph-name="brokenbar" unicode="&#xa6;" horiz-adv-x="234" 
d="M75 324v409h84v-409h-84zM75 -192v424h84v-424h-84z" />
    <glyph glyph-name="backslash" unicode="\" horiz-adv-x="451" 
d="M353 -69l-343 795l88 38l343 -795z" />
    <glyph glyph-name="underscore" unicode="_" horiz-adv-x="520" 
d="M0 -210v75h520v-75h-520z" />
    <glyph glyph-name="quotesingle" unicode="'" horiz-adv-x="254" 
d="M204 616c0 -8 -1 -16 -3 -24l-48 -190h-52l-48 190c-2 8 -3 16 -3 24c0 42 34 76 77 76s77 -34 77 -76z" />
    <glyph glyph-name="quotedbl" unicode="&#x22;" horiz-adv-x="439" 
d="M204 616c0 -8 -1 -16 -3 -24l-48 -190h-52l-48 190c-2 8 -3 16 -3 24c0 42 34 76 77 76s77 -34 77 -76zM389 616c0 -8 -1 -16 -3 -24l-48 -190h-52l-48 190c-2 8 -3 16 -3 24c0 42 34 76 77 76s77 -34 77 -76z" />
    <glyph glyph-name="at" unicode="@" horiz-adv-x="884" 
d="M457 -193c-277 0 -422 182 -422 413c0 248 163 404 411 404c237 0 403 -129 403 -402c0 -169 -62 -253 -173 -253c-83 0 -126 39 -143 105c-23 -36 -67 -63 -129 -63c-116 0 -193 95 -193 204c0 112 80 207 195 207c55 0 101 -22 127 -63v53h91v-271
c0 -67 16 -100 56 -100c34 0 83 23 83 171c0 241 -123 336 -318 336c-199 0 -324 -128 -324 -330c0 -191 115 -333 338 -333c56 0 113 9 179 41l33 -72c-78 -37 -146 -47 -214 -47zM417 93c70 0 116 56 116 123c0 68 -47 124 -116 124s-114 -56 -114 -124
c0 -67 44 -123 114 -123z" />
    <glyph glyph-name="copyright" unicode="&#xa9;" horiz-adv-x="794" 
d="M397 -17c-225 0 -362 163 -362 367s137 367 362 367s362 -163 362 -367s-137 -367 -362 -367zM397 58c170 0 274 131 274 292s-104 292 -274 292s-274 -131 -274 -292s104 -292 274 -292zM403 146c-127 0 -202 96 -202 204s75 204 202 204c104 0 167 -62 178 -143h-75
c-9 45 -45 79 -104 79c-80 0 -128 -66 -128 -140s48 -140 128 -140c59 0 95 34 104 79h75c-11 -81 -74 -143 -178 -143z" />
    <glyph glyph-name="registered" unicode="&#xae;" horiz-adv-x="614" 
d="M307 165c-169 0 -272 123 -272 276s103 276 272 276s272 -123 272 -276s-103 -276 -272 -276zM307 222c128 0 206 98 206 219s-78 219 -206 219c-127 0 -206 -98 -206 -219s79 -219 206 -219zM209 303v283h115c60 0 99 -46 99 -100c0 -40 -22 -75 -60 -91l57 -92h-60
l-51 85h-47v-85h-53zM264 434h56c30 0 48 24 48 52c0 29 -18 53 -48 53h-56v-105z" />
    <glyph glyph-name="trademark" unicode="&#x2122;" horiz-adv-x="837" 
d="M98 293v335h-93v72h268v-72h-94v-335h-81zM327 293v407h136l82 -266l81 266h136v-407h-80v326l-102 -326h-71l-102 326v-326h-80z" />
    <glyph glyph-name="dollar" unicode="$" horiz-adv-x="532" 
d="M497 180c0 -106 -72 -181 -183 -195v-85h-82v85c-129 16 -202 102 -202 244h115c0 -91 48 -146 129 -146c70 0 108 34 108 94c0 44 -22 73 -90 98l-108 35c-90 31 -134 104 -134 193c0 93 73 174 182 187v90h82v-93c102 -19 167 -98 167 -211h-115c0 75 -37 118 -106 118
c-60 0 -94 -33 -94 -84c0 -48 21 -84 98 -111l113 -40c82 -29 120 -93 120 -179z" />
    <glyph glyph-name="cent" unicode="&#xa2;" horiz-adv-x="523" 
d="M267 190c66 0 100 27 112 76h109c-9 -92 -73 -156 -177 -170v-96h-82v95c-122 17 -194 111 -194 243s72 226 194 243v99h82v-100c104 -14 168 -81 177 -175h-109c-12 53 -46 81 -112 81c-77 0 -123 -53 -123 -148s46 -148 123 -148z" />
    <glyph glyph-name="sterling" unicode="&#xa3;" horiz-adv-x="512" 
d="M208 274c0 -81 -23 -151 -43 -171h311v-103h-438v75c27 25 55 85 55 175v68h-58v82h58v75c0 159 94 217 205 217c127 0 204 -72 204 -199h-115c0 68 -27 106 -90 106c-55 0 -89 -31 -89 -121v-78h153v-82h-153v-44z" />
    <glyph glyph-name="florin" unicode="&#x192;" horiz-adv-x="431" 
d="M378 595c-54 0 -77 -20 -89 -87l-8 -42h120l-16 -91h-120l-76 -417c-20 -112 -81 -173 -178 -173c-31 0 -62 5 -81 12l16 92c15 -5 31 -7 47 -7c53 0 77 20 87 74l76 419h-97l16 91h97l8 44c23 127 86 182 190 182c27 0 56 -5 71 -12l-16 -92c-15 5 -31 7 -47 7z" />
    <glyph glyph-name="yen" unicode="&#xa5;" horiz-adv-x="560" 
d="M555 680l-214 -401h131v-75h-134v-50h134v-75h-134v-79h-116v79h-134v75h134v50h-134v75h131l-214 401h128l147 -308l147 308h128z" />
    <glyph glyph-name="Euro" unicode="&#x20ac;" horiz-adv-x="601" 
d="M330 88c65 0 106 44 114 109h112c-14 -116 -94 -209 -226 -209c-158 0 -226 105 -245 251h-65l20 75h39v26v26h-59l20 75h45c19 146 87 251 245 251c132 0 212 -93 226 -209h-112c-9 65 -49 109 -114 109c-86 0 -122 -57 -134 -151h189l-20 -75h-175v-26v-26h195l-20 -75
h-169c12 -94 48 -151 134 -151z" />
    <glyph glyph-name="uni20A9" unicode="&#x20a9;" horiz-adv-x="746" 
d="M731 365h-83l-13 -68h96v-82h-111l-40 -215h-108l-99 504l-99 -504h-108l-40 215h-111v82h96l-13 68h-83v82h68l-44 233h117l70 -514l102 514h90l102 -514l70 514h117l-44 -233h68v-82z" />
    <glyph glyph-name="uni20B4" unicode="&#x20b4;" horiz-adv-x="557" 
d="M366 328l-38 -19h208l-20 -60h-306c-42 -23 -55 -39 -55 -78c0 -51 40 -83 113 -83c84 0 134 34 134 90h105c0 -111 -87 -190 -240 -190c-132 0 -221 68 -221 173c0 35 6 64 19 88h-44l20 60h77c15 11 32 20 51 29l80 38h-228l20 60h313c22 22 27 46 27 76
c0 50 -38 82 -101 82c-75 0 -113 -30 -113 -83h-105c0 109 86 181 216 181c123 0 210 -63 210 -174c0 -30 -6 -57 -17 -82h65l-20 -60h-85c-18 -19 -40 -35 -65 -48z" />
    <glyph glyph-name="uni20B8" unicode="&#x20b8;" horiz-adv-x="532" 
d="M5 577v103h522v-103h-522zM208 0v413h-203v103h522v-103h-204v-413h-115z" />
    <glyph glyph-name="uni20AE" unicode="&#x20ae;" horiz-adv-x="532" 
d="M527 577h-204v-116l116 55v-85l-116 -55v-52l116 55v-85l-116 -55v-239h-115v184l-114 -55v85l114 55v52l-114 -55v85l114 55v171h-203v103h522v-103z" />
    <glyph glyph-name="dollar.tf" 
d="M553 180c0 -106 -72 -181 -183 -195v-85h-82v85c-129 16 -202 102 -202 244h115c0 -91 48 -146 129 -146c70 0 108 34 108 94c0 44 -22 73 -90 98l-108 35c-90 31 -134 104 -134 193c0 93 73 174 182 187v90h82v-93c102 -19 167 -98 167 -211h-115c0 75 -37 118 -106 118
c-60 0 -94 -33 -94 -84c0 -48 21 -84 98 -111l113 -40c82 -29 120 -93 120 -179z" />
    <glyph glyph-name="cent.tf" 
d="M325 190c66 0 100 27 112 76h109c-9 -92 -73 -156 -177 -170v-96h-82v95c-122 17 -194 111 -194 243s72 226 194 243v99h82v-100c104 -14 168 -81 177 -175h-109c-12 53 -46 81 -112 81c-77 0 -123 -53 -123 -148s46 -148 123 -148z" />
    <glyph glyph-name="sterling.tf" 
d="M259 274c0 -81 -23 -151 -43 -171h311v-103h-438v75c27 25 55 85 55 175v68h-58v82h58v75c0 159 94 217 205 217c127 0 204 -72 204 -199h-115c0 68 -27 106 -90 106c-55 0 -89 -31 -89 -121v-78h153v-82h-153v-44z" />
    <glyph glyph-name="florin.tf" 
d="M512 595c-54 0 -77 -20 -89 -87l-8 -42h120l-16 -91h-120l-76 -417c-20 -112 -81 -173 -178 -173c-31 0 -62 5 -81 12l16 92c15 -5 31 -7 47 -7c53 0 77 20 87 74l76 419h-97l16 91h97l8 44c23 127 86 182 190 182c27 0 56 -5 71 -12l-16 -92c-15 5 -31 7 -47 7z" />
    <glyph glyph-name="yen.tf" 
d="M595 680l-214 -401h131v-75h-134v-50h134v-75h-134v-79h-116v79h-134v75h134v50h-134v75h131l-214 401h128l147 -308l147 308h128z" />
    <glyph glyph-name="Euro.tf" 
d="M362 88c65 0 106 44 114 109h112c-14 -116 -94 -209 -226 -209c-158 0 -226 105 -245 251h-65l20 75h39v26v26h-59l20 75h45c19 146 87 251 245 251c132 0 212 -93 226 -209h-112c-9 65 -49 109 -114 109c-86 0 -122 -57 -134 -151h189l-20 -75h-175v-26v-26h195l-20 -75
h-169c12 -94 48 -151 134 -151z" />
    <glyph glyph-name="uni20A9.tf" 
d="M623 365h-64l-11 -68h75v-82h-88l-34 -215h-107l-74 504l-74 -504h-107l-34 215h-88v82h75l-11 68h-64v82h51l-37 233h113l55 -514l76 514h90l76 -514l56 514h112l-37 -233h51v-82z" />
    <glyph glyph-name="uni20B4.tf" 
d="M472 376c-18 -19 -40 -35 -65 -48l-38 -19h198v-60h-316c-42 -23 -55 -39 -55 -78c0 -51 40 -83 113 -83c84 0 134 34 134 90h105c0 -111 -87 -190 -240 -190c-132 0 -221 68 -221 173c0 35 6 64 19 88h-51v60h104c15 11 32 20 51 29l80 38h-235v60h340
c22 22 27 46 27 76c0 50 -38 82 -101 82c-75 0 -113 -30 -113 -83h-105c0 109 86 181 216 181c123 0 210 -63 210 -174c0 -30 -6 -57 -17 -82h55v-60h-95z" />
    <glyph glyph-name="uni20B8.tf" 
d="M59 577v103h522v-103h-522zM262 0v413h-203v103h522v-103h-204v-413h-115z" />
    <glyph glyph-name="uni20AE.tf" 
d="M581 577h-204v-116l116 55v-85l-116 -55v-52l116 55v-85l-116 -55v-239h-115v184l-114 -55v85l114 55v52l-114 -55v85l114 55v171h-203v103h522v-103z" />
    <glyph glyph-name="currency" unicode="&#xa4;" horiz-adv-x="593" 
d="M94 100l-69 68l65 65c-25 40 -39 87 -39 137s14 97 39 136l-64 65l68 69l64 -65c38 25 85 40 138 40c54 0 101 -15 139 -40l64 64l69 -68l-65 -65c26 -39 40 -86 40 -136s-14 -98 -40 -137l64 -64l-68 -69l-64 64c-38 -25 -85 -39 -139 -39c-53 0 -99 14 -137 39z
M296 222c84 0 138 68 138 148s-54 148 -138 148c-82 0 -136 -68 -136 -148s54 -148 136 -148z" />
    <glyph glyph-name="fraction" unicode="&#x2044;" horiz-adv-x="164" 
d="M-118 -25l-72 47l472 682l72 -47z" />
    <glyph glyph-name="onequarter" unicode="&#xbc;" horiz-adv-x="845" 
d="M567 704l72 -47l-472 -682l-72 47zM120 286v252h-93v71c85 0 105 23 105 71h79v-394h-91zM810 192v-80h-50v-112h-93v112h-170v282h92v-202h78v102h93v-102h50z" />
    <glyph glyph-name="onehalf" unicode="&#xbd;" horiz-adv-x="825" 
d="M167 -25l-72 47l472 682l72 -47zM120 286v252h-93v71c85 0 105 23 105 71h79v-394h-91zM468 0c0 95 31 149 106 187l66 33c31 15 46 36 46 63c0 29 -20 47 -50 47c-40 0 -62 -24 -62 -68h-96c0 85 62 141 157 141c92 0 148 -44 148 -116c0 -51 -29 -93 -81 -120l-61 -32
c-36 -19 -49 -31 -56 -58h195v-77h-312z" />
    <glyph glyph-name="threequarters" unicode="&#xbe;" horiz-adv-x="932" 
d="M654 704l72 -47l-472 -682l-72 47zM352 398c0 -72 -62 -121 -159 -121c-103 0 -160 50 -160 139h95c0 -42 25 -65 67 -65c38 0 60 20 60 51c0 35 -21 53 -66 53h-40v72h41c40 0 60 16 60 48c0 26 -23 44 -55 44c-36 0 -60 -20 -60 -55h-94c0 75 59 125 156 125
c89 0 148 -42 148 -109c0 -43 -25 -75 -77 -88c52 -9 84 -45 84 -94zM897 192v-80h-50v-112h-93v112h-170v282h92v-202h78v102h93v-102h50z" />
    <glyph glyph-name="percent" unicode="%" horiz-adv-x="794" 
d="M197 -18l-73 40l472 682l71 -40zM199 346c-112 0 -178 80 -178 170s66 170 178 170s178 -80 178 -170s-66 -170 -178 -170zM199 430c54 0 83 38 83 86s-29 86 -83 86s-83 -38 -83 -86s29 -86 83 -86zM595 -5c-112 0 -178 80 -178 170s66 170 178 170s178 -80 178 -170
s-66 -170 -178 -170zM595 79c54 0 83 38 83 86s-29 86 -83 86s-83 -38 -83 -86s29 -86 83 -86z" />
    <glyph glyph-name="perthousand" unicode="&#x2030;" horiz-adv-x="1174" 
d="M197 -18l-73 40l472 682l71 -40zM199 346c-112 0 -178 80 -178 170s66 170 178 170s178 -80 178 -170s-66 -170 -178 -170zM199 430c54 0 83 38 83 86s-29 86 -83 86s-83 -38 -83 -86s29 -86 83 -86zM595 -5c-112 0 -178 80 -178 170s66 170 178 170s178 -80 178 -170
s-66 -170 -178 -170zM975 -5c-112 0 -178 80 -178 170s66 170 178 170s178 -80 178 -170s-66 -170 -178 -170zM595 79c54 0 83 38 83 86s-29 86 -83 86s-83 -38 -83 -86s29 -86 83 -86zM975 79c54 0 83 38 83 86s-29 86 -83 86s-83 -38 -83 -86s29 -86 83 -86z" />
    <glyph glyph-name="perthousand.tf" 
d="M386 687l25 -13l-335 -692l-26 13zM128 337c-78 0 -124 70 -124 170s46 170 124 170c77 0 123 -70 123 -170s-45 -170 -123 -170zM128 603c-33 0 -51 -37 -51 -96s18 -96 51 -96c32 0 50 37 50 96c0 60 -18 96 -50 96zM512 337c78 0 124 -70 124 -170s-46 -170 -124 -170
c-37 0 -66 16 -87 43c-21 -27 -51 -43 -88 -43c-78 0 -124 70 -124 170s45 170 124 170c37 0 67 -16 88 -43c21 27 50 43 87 43zM337 71c33 0 51 37 51 96s-18 96 -51 96c-32 0 -50 -37 -50 -96s18 -96 50 -96zM512 71c33 0 51 37 51 96s-18 96 -51 96
c-32 0 -50 -37 -50 -96s18 -96 50 -96z" />
    <glyph glyph-name="zero.zero" horiz-adv-x="612" 
d="M306 692c171 0 261 -122 261 -352s-90 -352 -261 -352s-261 122 -261 352s90 352 261 352zM306 592c-102 0 -152 -83 -152 -252c0 -82 12 -143 35 -185l183 422c-19 10 -41 15 -66 15zM306 88c102 0 152 83 152 252c0 83 -12 146 -37 188l-183 -424c20 -11 42 -16 68 -16
z" />
    <glyph glyph-name="zero" unicode="0" horiz-adv-x="612" 
d="M306 -12c-171 0 -261 122 -261 352s90 352 261 352s261 -122 261 -352s-90 -352 -261 -352zM306 88c102 0 152 83 152 252s-50 252 -152 252s-152 -83 -152 -252s50 -252 152 -252z" />
    <glyph glyph-name="one" unicode="1" horiz-adv-x="398" 
d="M179 0v468h-144v96c127 0 154 32 154 116h104v-680h-114z" />
    <glyph glyph-name="two" unicode="2" horiz-adv-x="580" 
d="M50 0c0 150 50 242 168 307l100 55c56 31 85 74 85 129c0 60 -41 101 -100 101c-76 0 -119 -51 -119 -143h-119c0 148 93 243 238 243c137 0 222 -75 222 -195c0 -83 -49 -160 -133 -208l-98 -56c-75 -43 -96 -68 -108 -130h337v-103h-473z" />
    <glyph glyph-name="three" unicode="3" horiz-adv-x="572" 
d="M287 -12c-159 0 -252 88 -252 239h117c0 -91 49 -142 135 -142c71 0 119 44 119 109c0 74 -43 112 -128 112h-48v99h49c73 0 109 33 109 100c0 54 -43 92 -105 92c-73 0 -118 -44 -118 -118h-113c0 130 90 213 231 213c133 0 222 -75 222 -187c0 -72 -40 -123 -115 -147
c80 -14 132 -78 132 -163c0 -122 -97 -207 -235 -207z" />
    <glyph glyph-name="four" unicode="4" horiz-adv-x="580" 
d="M540 313v-103h-97v-210h-114v210h-269v470h114v-367h155v190h114v-190h97z" />
    <glyph glyph-name="five" unicode="5" horiz-adv-x="584" 
d="M294 -12c-127 0 -226 80 -234 194h116c4 -60 57 -92 120 -92c84 0 133 56 133 140s-46 139 -120 139c-65 0 -107 -22 -132 -79h-105v390h427v-102h-323v-176c38 44 93 60 149 60c131 0 214 -92 214 -228s-94 -246 -245 -246z" />
    <glyph glyph-name="six" unicode="6" horiz-adv-x="572" 
d="M286 478c154 0 246 -108 246 -245s-92 -245 -246 -245s-246 108 -246 245c0 60 18 115 51 158l214 289h137l-158 -202h2zM286 85c88 0 137 63 137 148s-49 148 -137 148s-137 -63 -137 -148s49 -148 137 -148z" />
    <glyph glyph-name="seven" unicode="7" horiz-adv-x="527" 
d="M57 0l298 575h-310v105h482l-343 -680h-127z" />
    <glyph glyph-name="eight" unicode="8" horiz-adv-x="590" 
d="M295 -12c-149 0 -245 79 -245 202c0 80 38 139 106 163c-59 24 -96 86 -96 157c0 108 96 182 235 182s235 -74 235 -182c0 -71 -39 -133 -98 -157c68 -24 108 -83 108 -163c0 -123 -96 -202 -245 -202zM295 399c72 0 117 40 117 100c0 63 -45 101 -117 101
s-117 -38 -117 -101c0 -60 49 -100 117 -100zM295 85c77 0 128 44 128 112s-51 112 -128 112c-73 0 -128 -44 -128 -112s51 -112 128 -112z" />
    <glyph glyph-name="nine" unicode="9" horiz-adv-x="567" 
d="M527 447c0 -60 -18 -115 -51 -158l-214 -289h-137l158 202h-2c-154 0 -246 108 -246 245s92 245 246 245s246 -108 246 -245zM144 447c0 -85 49 -148 137 -148s137 63 137 148s-49 148 -137 148s-137 -63 -137 -148z" />
    <glyph glyph-name="zero.tf.zero" 
d="M320 692c147 0 256 -109 256 -255v-204c0 -140 -109 -245 -256 -245s-256 105 -256 245v204c0 146 109 255 256 255zM179 437v-204c0 -28 7 -53 19 -74l180 418c-17 8 -37 12 -58 12c-82 0 -141 -64 -141 -152zM461 233v204c0 32 -8 61 -22 85l-181 -418
c19 -8 39 -13 62 -13c82 0 141 60 141 142z" />
    <glyph glyph-name="zero.tf" 
d="M320 -12c-147 0 -256 105 -256 245v204c0 146 109 255 256 255s256 -109 256 -255v-204c0 -140 -109 -245 -256 -245zM320 91c82 0 141 60 141 142v204c0 88 -59 152 -141 152s-141 -64 -141 -152v-204c0 -82 59 -142 141 -142z" />
    <glyph glyph-name="one.tf" 
d="M377 103h203v-103h-520v103h203v365h-182v96h28c101 0 156 31 169 116h99v-577z" />
    <glyph glyph-name="two.tf" 
d="M57 0c0 150 55 242 189 307l114 55c65 31 98 74 98 129c0 60 -49 101 -120 101c-90 0 -143 -51 -143 -143h-121c0 148 103 243 264 243c150 0 244 -75 244 -195c0 -83 -52 -166 -147 -214l-112 -56c-88 -44 -115 -62 -127 -124h395v-103h-534z" />
    <glyph glyph-name="three.tf" 
d="M328 -12c-171 0 -272 88 -272 239h119c0 -91 56 -142 153 -142c82 0 137 44 137 109c0 74 -50 112 -146 112h-53v99h54c83 0 126 33 126 100c0 54 -50 92 -122 92c-83 0 -135 -44 -135 -118h-115c0 130 97 213 250 213c144 0 241 -75 241 -187c0 -72 -45 -123 -129 -147
c88 -14 147 -78 147 -163c0 -122 -105 -207 -255 -207z" />
    <glyph glyph-name="four.tf" 
d="M580 313v-103h-129v-210h-116v210h-275v470h116v-367h159v190h116v-190h129z" />
    <glyph glyph-name="five.tf" 
d="M311 -12c-139 0 -245 70 -253 194h117c5 -60 64 -92 138 -92c95 0 152 56 152 140c0 81 -53 134 -138 134c-74 0 -121 -21 -149 -74h-107v390h482v-102h-376v-176c40 44 101 60 166 60c146 0 239 -92 239 -228c0 -144 -105 -246 -271 -246z" />
    <glyph glyph-name="six.tf" 
d="M320 478c166 0 266 -108 266 -245s-100 -245 -266 -245s-266 108 -266 245c0 58 18 111 51 153l-1 -1l236 295h139l-173 -202h14zM320 85c99 0 155 63 155 148s-56 148 -155 148s-155 -63 -155 -148s56 -148 155 -148z" />
    <glyph glyph-name="seven.tf" 
d="M75 0l337 575h-353v105h532l-388 -680h-128z" />
    <glyph glyph-name="eight.tf" 
d="M320 -12c-158 0 -260 79 -260 202c0 80 42 139 127 163c-75 24 -116 86 -116 157c0 108 101 182 249 182s249 -74 249 -182c0 -71 -43 -133 -118 -157c85 -24 129 -83 129 -163c0 -123 -102 -202 -260 -202zM320 399c80 0 130 40 130 100c0 63 -50 101 -130 101
s-130 -38 -130 -101c0 -60 54 -100 130 -100zM320 85c85 0 142 44 142 112s-57 112 -142 112c-81 0 -142 -44 -142 -112s57 -112 142 -112z" />
    <glyph glyph-name="nine.tf" 
d="M586 447c0 -58 -18 -111 -51 -153l1 1l-236 -295h-139l173 202h-14c-166 0 -266 108 -266 245s100 245 266 245s266 -108 266 -245zM165 447c0 -85 56 -148 155 -148s155 63 155 148s-56 148 -155 148s-155 -63 -155 -148z" />
    <glyph glyph-name="uni03BC" unicode="&#x3bc;" horiz-adv-x="566" 
d="M387 466h109v-466h-109v65c-28 -50 -77 -77 -144 -77c-23 0 -45 3 -64 9v-207h-109v676h109v-266c0 -75 24 -119 95 -119c83 0 113 55 113 122v263z" />
    <glyph glyph-name="uni02BC" unicode="&#x2bc;" horiz-adv-x="284" 
d="M138 739c39 0 91 -31 91 -113s-44 -145 -133 -145c-12 0 -27 1 -36 3v46c14 -2 16 -2 36 -2c23 0 42 9 55 23c13 13 21 32 23 53c-10 -12 -27 -16 -42 -16c-39 0 -72 28 -72 74s33 77 78 77z" />
    <glyph glyph-name="eth" unicode="&#xf0;" horiz-adv-x="562" 
d="M477 389c32 -42 50 -96 50 -156c0 -137 -92 -245 -246 -245s-246 108 -246 245s91 244 245 245l-49 67l-79 -43l-31 57l73 39l-74 102h137l35 -50l74 40l31 -55l-68 -37zM281 85c88 0 137 63 137 148s-49 148 -137 148s-137 -63 -137 -148s49 -148 137 -148z" />
    <glyph glyph-name="numbersign" unicode="#" horiz-adv-x="532" 
d="M81 0l28 204h-89v84h101l17 124h-88v84h100l28 204h89l-28 -204h102l28 204h89l-28 -204h82v-84h-94l-17 -124h81v-84h-93l-29 -204h-88l28 204h-102l-29 -204h-88zM210 288h102l17 124h-102z" />
    <glyph glyph-name="uni2116" unicode="&#x2116;" horiz-adv-x="1120" 
d="M75 0v700h121l277 -508v508h110v-700h-121l-277 508v-508h-110zM837 126c-128 0 -207 92 -207 200c0 109 79 201 207 201c129 0 208 -92 208 -201c0 -108 -79 -200 -208 -200zM837 220c60 0 99 48 99 106s-39 106 -99 106c-59 0 -98 -48 -98 -106s39 -106 98 -106zM630 0
v97h415v-97h-415z" />
    <glyph glyph-name="uni0394" unicode="&#x394;" horiz-adv-x="595" 
d="M15 0l242 700h81l242 -700h-565zM174 103h247l-123 406z" />
    <glyph glyph-name="uni03A9" unicode="&#x3a9;" horiz-adv-x="696" 
d="M53 0v103h165v18c-116 46 -183 153 -183 278c0 165 118 313 313 313s313 -148 313 -313c0 -125 -67 -233 -183 -279v-17h165v-103h-255v181c113 25 158 119 158 223c0 107 -66 205 -198 205s-198 -98 -198 -205c0 -104 45 -198 158 -223v-181h-255z" />
    <glyph glyph-name="pi" unicode="&#x3c0;" horiz-adv-x="656" 
d="M140 0v369h-70v97h516v-97h-70v-369h-109v369h-158v-369h-109z" />
    <glyph glyph-name="periodcentered" unicode="&#xb7;" horiz-adv-x="289" 
d="M144 228c-47 0 -84 39 -84 85s37 84 84 84s85 -38 85 -84s-38 -85 -85 -85z" />
    <glyph glyph-name="braceleft" unicode="{" horiz-adv-x="319" 
d="M249 -193c-65 0 -137 45 -137 139v190c0 66 -60 89 -92 89v90c32 0 92 23 92 89v190c0 94 72 139 137 139h65v-86h-49c-48 0 -54 -42 -54 -75v-183c0 -93 -69 -115 -99 -119c30 -4 99 -26 99 -119v-183c0 -33 6 -75 54 -75h49v-86h-65z" />
    <glyph glyph-name="braceright" unicode="}" horiz-adv-x="319" 
d="M70 -193h-65v86h49c48 0 54 42 54 75v183c0 93 69 115 99 119c-30 4 -99 26 -99 119v183c0 33 -6 75 -54 75h-49v86h65c65 0 137 -45 137 -139v-190c0 -66 60 -89 92 -89v-90c-32 0 -92 -23 -92 -89v-190c0 -94 -72 -139 -137 -139z" />
    <glyph glyph-name="uni00AD" unicode="&#xad;" horiz-adv-x="409" 
d="M50 216v97h309v-97h-309z" />
    <glyph glyph-name="guillemotleft" unicode="&#xab;" horiz-adv-x="515" 
d="M213 65l-208 196l208 196l61 -63l-141 -133l141 -133zM444 65l-208 196l208 196l61 -63l-141 -133l141 -133z" />
    <glyph glyph-name="guillemotright" unicode="&#xbb;" horiz-adv-x="515" 
d="M71 65l-61 63l141 133l-141 133l61 63l208 -196zM302 65l-61 63l141 133l-141 133l61 63l208 -196z" />
    <glyph glyph-name="plus" unicode="+" horiz-adv-x="504" 
d="M200 113v153h-150v97h150v154h104v-154h150v-97h-150v-153h-104z" />
    <glyph glyph-name="minus" unicode="&#x2212;" horiz-adv-x="504" 
d="M50 266v97h404v-97h-404z" />
    <glyph glyph-name="plusminus" unicode="&#xb1;" horiz-adv-x="504" 
d="M197 286v103h-147v97h147v104h109v-104h148v-97h-148v-103h-109zM50 130v97h404v-97h-404z" />
    <glyph glyph-name="multiply" unicode="&#xd7;" horiz-adv-x="495" 
d="M445 444l-129 -129l128 -129l-68 -69l-129 129l-128 -128l-69 68l129 129l-129 128l68 69l129 -129l129 129z" />
    <glyph glyph-name="divide" unicode="&#xf7;" horiz-adv-x="504" 
d="M252 399c-44 0 -80 36 -80 80c0 45 36 81 80 81c45 0 81 -36 81 -81c0 -44 -36 -80 -81 -80zM50 262v97h404v-97h-404zM252 70c-44 0 -80 36 -80 80c0 45 36 81 80 81c45 0 81 -36 81 -81c0 -44 -36 -80 -81 -80z" />
    <glyph glyph-name="equal" unicode="=" horiz-adv-x="524" 
d="M50 353v97h424v-97h-424zM50 177v97h424v-97h-424z" />
    <glyph glyph-name="less" unicode="&#x3c;" horiz-adv-x="498" 
d="M448 99l-398 176v78l398 176v-103l-247 -112l247 -112v-103z" />
    <glyph glyph-name="greater" unicode="&#x3e;" horiz-adv-x="498" 
d="M50 99v103l247 112l-247 112v103l398 -176v-78z" />
    <glyph glyph-name="degree" unicode="&#xb0;" horiz-adv-x="355" 
d="M178 377c-89 0 -158 69 -158 157c0 89 69 158 158 158c88 0 157 -69 157 -158c0 -88 -69 -157 -157 -157zM178 459c46 0 72 35 72 75c0 41 -26 75 -72 75c-47 0 -73 -34 -73 -75c0 -40 26 -75 73 -75z" />
    <glyph glyph-name="approxequal" unicode="&#x2248;" horiz-adv-x="525" 
d="M365 305c-80 0 -120 68 -209 68c-40 0 -78 -29 -106 -55v93c33 44 78 59 111 59c63 0 156 -68 205 -68c43 0 82 29 108 55v-93c-32 -44 -76 -59 -109 -59zM365 149c-79 0 -121 68 -209 68c-40 0 -78 -29 -105 -55v93c32 44 77 59 110 59c63 0 156 -68 205 -68
c43 0 81 29 109 55v-93c-33 -44 -77 -59 -110 -59z" />
    <glyph glyph-name="greaterequal" unicode="&#x2265;" horiz-adv-x="504" 
d="M53 209v103l227 52l-227 51v103l398 -116v-77zM50 66v97h404v-97h-404z" />
    <glyph glyph-name="infinity" unicode="&#x221e;" horiz-adv-x="877" 
d="M258 87c-139 0 -208 101 -208 202s69 202 208 202c63 0 126 -33 180 -104c54 71 118 104 181 104c136 0 208 -94 208 -202s-72 -202 -208 -202c-63 0 -127 32 -181 104c-54 -72 -117 -104 -180 -104zM258 184c39 0 84 32 124 105c-40 72 -85 105 -124 105
c-69 0 -105 -49 -105 -105s36 -105 105 -105zM619 184c69 0 105 49 105 105s-36 105 -105 105c-40 0 -85 -33 -124 -105c39 -73 84 -105 124 -105z" />
    <glyph glyph-name="lessequal" unicode="&#x2264;" horiz-adv-x="504" 
d="M451 209l-398 116v77l398 116v-103l-227 -51l227 -52v-103zM454 66h-404v97h404v-97z" />
    <glyph glyph-name="logicalnot" unicode="&#xac;" horiz-adv-x="504" 
d="M345 190v153h-295v97h404v-250h-109z" />
    <glyph glyph-name="notequal" unicode="&#x2260;" horiz-adv-x="524" 
d="M474 353h-150l-34 -79h184v-97h-226l-41 -95h-90l41 95h-108v97h150l34 79h-184v97h226l41 95h90l-41 -95h108v-97z" />
    <glyph glyph-name="integral" unicode="&#x222b;" horiz-adv-x="354" 
d="M134 -214c-35 0 -69 5 -84 11v90c21 -5 29 -6 38 -6c23 0 35 12 35 47v731c0 105 49 135 97 135c35 0 69 -5 84 -11v-90c-21 5 -29 6 -38 6c-23 0 -35 -12 -35 -47v-731c0 -105 -49 -135 -97 -135z" />
    <glyph glyph-name="partialdiff" unicode="&#x2202;" horiz-adv-x="584" 
d="M283 717c151 0 251 -101 251 -375c0 -271 -98 -360 -247 -360c-170 0 -237 116 -237 229c0 134 94 234 229 234c56 0 107 -18 145 -49c-8 171 -53 221 -137 221c-86 0 -119 -53 -119 -115h-115c0 119 83 215 230 215zM283 82c102 0 136 72 141 217c-34 31 -83 46 -131 46
c-101 0 -136 -65 -136 -135c0 -63 29 -128 126 -128z" />
    <glyph glyph-name="product" unicode="&#x220f;" horiz-adv-x="759" 
d="M120 -210v902h-70v102h659v-102h-70v-902h-115v902h-289v-902h-115z" />
    <glyph glyph-name="radical" unicode="&#x221a;" horiz-adv-x="780" 
d="M294 -210l-128 369h-116v97h197l88 -275l274 813h121l-355 -1004h-81z" />
    <glyph glyph-name="summation" unicode="&#x2211;" horiz-adv-x="620" 
d="M50 -210v102l358 400l-358 400v102h520v-107h-374l357 -395l-357 -395h374v-107h-520z" />
    <glyph glyph-name="lozenge" unicode="&#x25ca;" horiz-adv-x="575" 
d="M239 0l-189 396l189 398h98l188 -398l-188 -396h-98zM287 115l126 281l-125 281l-126 -281z" />
    <glyph glyph-name="paragraph" unicode="&#xb6;" horiz-adv-x="680" 
d="M266 -148v477c-123 0 -216 61 -216 191c0 176 162 197 249 197h331v-90h-53v-775h-103v774h-105v-774h-103z" />
    <glyph glyph-name="section" unicode="&#xa7;" horiz-adv-x="564" 
d="M506 234c0 -58 -29 -101 -89 -131c42 -33 73 -78 73 -151c0 -110 -88 -174 -218 -174c-148 0 -222 81 -222 193h118c0 -59 34 -98 105 -98c63 0 98 31 98 77c0 155 -314 112 -314 322c0 57 27 99 85 129c-40 31 -68 74 -68 142c0 100 87 174 216 174
c150 0 224 -81 224 -193h-119c0 59 -34 98 -105 98c-63 0 -97 -31 -97 -77c0 -150 313 -108 313 -311zM171 278c0 -69 80 -91 160 -126c37 14 62 38 62 76c0 68 -84 89 -165 124c-35 -15 -57 -37 -57 -74z" />
    <glyph glyph-name="asciicircum" unicode="^" horiz-adv-x="568" 
d="M50 303l194 397h76l198 -397h-123l-112 259l-114 -259h-119z" />
    <glyph glyph-name="daggerdbl" unicode="&#x2021;" horiz-adv-x="440" 
d="M166 -182v182h-116v94h116v278h-116v94h116v251h109v-251h115v-94h-115v-278h115v-94h-115v-182h-109z" />
    <glyph glyph-name="uni0243" unicode="&#x243;" horiz-adv-x="585" 
d="M545 189c0 -102 -63 -169 -171 -185v-104h-82v100h-48v-100h-82v100h-87v680h87v100h82v-100h48v100h82v-105c101 -18 160 -79 160 -172c0 -92 -51 -141 -133 -154c76 -6 144 -63 144 -160zM419 488c0 58 -42 92 -115 92h-114v-184h114c72 0 115 35 115 92zM320 101
c69 0 110 37 110 101c0 56 -44 95 -109 95h-131v-196h130z" />
    <glyph glyph-name="Jacute" horiz-adv-x="536" 
d="M340 731l-39 74l207 92l38 -73zM247 -17c-145 0 -227 99 -227 245h115c0 -83 37 -142 112 -142c76 0 114 58 114 141v473h115v-473c0 -146 -82 -244 -229 -244z" />
    <glyph glyph-name="uni0243.case" horiz-adv-x="585" 
d="M545 194c0 -104 -63 -174 -171 -190v-107h-82v103h-48v-103h-82v103h-87v700h87v103h82v-103h48v103h82v-109c101 -18 160 -81 160 -176s-51 -146 -133 -159c76 -7 144 -65 144 -165zM419 503c0 61 -42 96 -115 96h-114v-193h114c72 0 115 37 115 97zM320 102
c69 0 110 38 110 105c0 59 -44 100 -109 100h-131v-205h130z" />
    <glyph glyph-name="uni0243.tf" 
d="M555 189c0 -102 -63 -169 -171 -185v-104h-82v100h-48v-100h-82v100h-87v680h87v100h82v-100h48v100h82v-105c101 -18 160 -79 160 -172c0 -92 -51 -141 -133 -154c76 -6 144 -63 144 -160zM429 488c0 58 -42 92 -115 92h-114v-184h114c72 0 115 35 115 92zM330 101
c69 0 110 37 110 101c0 56 -44 95 -109 95h-131v-196h130z" />
    <glyph glyph-name="uni0243.tf.tf.case" 
d="M555 194c0 -104 -63 -174 -171 -190v-107h-82v103h-48v-103h-82v103h-87v700h87v103h82v-103h48v103h82v-109c101 -18 160 -81 160 -176s-51 -146 -133 -159c76 -7 144 -65 144 -165zM429 503c0 61 -42 96 -115 96h-114v-193h114c72 0 115 37 115 97zM330 102
c69 0 110 38 110 105c0 59 -44 100 -109 100h-131v-205h130z" />
    <glyph glyph-name="Y.ss02" horiz-adv-x="620" 
d="M252 0v289l-257 411h133l182 -302l182 302h133l-257 -411v-289h-116z" />
    <glyph glyph-name="Yacute.ss02" horiz-adv-x="620" 
d="M231 731l-39 74l207 92l38 -73zM252 0v289l-257 411h133l182 -302l182 302h133l-257 -411v-289h-116z" />
    <glyph glyph-name="Ycircumflex.ss02" horiz-adv-x="620" 
d="M306 902l141 -119l-57 -50l-84 76l-84 -76l-57 50zM252 0v289l-257 411h133l182 -302l182 302h133l-257 -411v-289h-116z" />
    <glyph glyph-name="Ydieresis.ss02" horiz-adv-x="620" 
d="M190 738c-42 0 -76 34 -76 76c0 43 34 77 76 77c43 0 77 -34 77 -77c0 -42 -34 -76 -77 -76zM429 738c-42 0 -76 34 -76 76c0 43 34 77 76 77c43 0 77 -34 77 -77c0 -42 -34 -76 -77 -76zM252 0v289l-257 411h133l182 -302l182 302h133l-257 -411v-289h-116z" />
    <glyph glyph-name="Ygrave.ss02" horiz-adv-x="620" 
d="M388 731l-206 93l38 73l207 -92zM252 0v289l-257 411h133l182 -302l182 302h133l-257 -411v-289h-116z" />
    <glyph glyph-name="Adieresis.ss05" horiz-adv-x="603" 
d="M353 845l-87 -111h-90l87 111h90zM403 734h-90l87 111h90zM463 0l-27 89h-269l-27 -89h-125l236 700h101l236 -700h-125zM197 192h208l-104 347z" />
    <glyph glyph-name="Edieresis.ss05" horiz-adv-x="544" 
d="M246 734h-90l87 111h90zM383 734h-90l87 111h90zM75 0v700h404v-103h-289v-198h289v-103h-289v-193h289v-103h-404z" />
    <glyph glyph-name="Odieresis.ss05" horiz-adv-x="794" 
d="M361 734h-90l87 111h90zM498 734h-90l87 111h90zM397 -17c-227 0 -362 167 -362 367s135 367 362 367s362 -167 362 -367s-135 -367 -362 -367zM397 86c155 0 242 119 241 264c1 145 -86 264 -241 264s-242 -119 -241 -264c-1 -145 86 -264 241 -264z" />
    <glyph glyph-name="Udieresis.ss05" 
d="M284 734h-90l87 111h90zM421 734h-90l87 111h90zM320 -17c-157 0 -260 86 -260 249v468h115v-461c0 -101 57 -153 145 -153s145 52 145 153v461h115v-468c0 -163 -103 -249 -260 -249z" />
    <glyph glyph-name="jacute" horiz-adv-x="252" 
d="M77 512l-50 74l151 107l50 -74zM54 -216c-31 0 -51 3 -64 10v97c14 -3 26 -4 41 -4c29 0 42 15 42 48v531h109v-563c0 -77 -45 -119 -128 -119z" />
    <glyph glyph-name="a.ss03" horiz-adv-x="532" 
d="M206 -12c-100 0 -166 52 -166 142c0 47 18 87 55 113c36 27 92 41 175 44l88 3v26c0 52 -35 74 -91 74c-59 0 -97 -23 -101 -60h-109c8 83 71 148 214 148c144 0 196 -67 196 -195v-283h-110v56c-24 -38 -69 -68 -151 -68zM237 75c76 0 121 41 121 114v21l-114 -6
c-60 -3 -95 -28 -95 -70c0 -38 32 -59 88 -59z" />
    <glyph glyph-name="aacute.ss03" horiz-adv-x="532" 
d="M136 502l-35 84l282 107l35 -81zM206 -12c-100 0 -166 52 -166 142c0 47 18 87 55 113c36 27 92 41 175 44l88 3v26c0 52 -35 74 -91 74c-59 0 -97 -23 -101 -60h-109c8 83 71 148 214 148c144 0 196 -67 196 -195v-283h-110v56c-24 -38 -69 -68 -151 -68zM237 75
c76 0 121 41 121 114v21l-114 -6c-60 -3 -95 -28 -95 -70c0 -38 32 -59 88 -59z" />
    <glyph glyph-name="abreve.ss03" horiz-adv-x="532" 
d="M270 507c-107 0 -176 59 -182 156h92c3 -53 39 -77 90 -77s87 24 90 77h92c-6 -97 -75 -156 -182 -156zM206 -12c-100 0 -166 52 -166 142c0 47 18 87 55 113c36 27 92 41 175 44l88 3v26c0 52 -35 74 -91 74c-59 0 -97 -23 -101 -60h-109c8 83 71 148 214 148
c144 0 196 -67 196 -195v-283h-110v56c-24 -38 -69 -68 -151 -68zM237 75c76 0 121 41 121 114v21l-114 -6c-60 -3 -95 -28 -95 -70c0 -38 32 -59 88 -59z" />
    <glyph glyph-name="acircumflex.ss03" horiz-adv-x="532" 
d="M270 708l180 -147l-58 -64l-122 105l-121 -104l-59 63zM206 -12c-100 0 -166 52 -166 142c0 47 18 87 55 113c36 27 92 41 175 44l88 3v26c0 52 -35 74 -91 74c-59 0 -97 -23 -101 -60h-109c8 83 71 148 214 148c144 0 196 -67 196 -195v-283h-110v56
c-24 -38 -69 -68 -151 -68zM237 75c76 0 121 41 121 114v21l-114 -6c-60 -3 -95 -28 -95 -70c0 -38 32 -59 88 -59z" />
    <glyph glyph-name="adieresis.ss03" horiz-adv-x="532" 
d="M168 532c-42 0 -76 34 -76 76c0 43 34 77 76 77c43 0 77 -34 77 -77c0 -42 -34 -76 -77 -76zM371 532c-42 0 -76 34 -76 76c0 43 34 77 76 77c43 0 77 -34 77 -77c0 -42 -34 -76 -77 -76zM206 -12c-100 0 -166 52 -166 142c0 47 18 87 55 113c36 27 92 41 175 44l88 3v26
c0 52 -35 74 -91 74c-59 0 -97 -23 -101 -60h-109c8 83 71 148 214 148c144 0 196 -67 196 -195v-283h-110v56c-24 -38 -69 -68 -151 -68zM237 75c76 0 121 41 121 114v21l-114 -6c-60 -3 -95 -28 -95 -70c0 -38 32 -59 88 -59z" />
    <glyph glyph-name="agrave.ss03" horiz-adv-x="532" 
d="M384 502l-282 110l35 81l282 -107zM206 -12c-100 0 -166 52 -166 142c0 47 18 87 55 113c36 27 92 41 175 44l88 3v26c0 52 -35 74 -91 74c-59 0 -97 -23 -101 -60h-109c8 83 71 148 214 148c144 0 196 -67 196 -195v-283h-110v56c-24 -38 -69 -68 -151 -68zM237 75
c76 0 121 41 121 114v21l-114 -6c-60 -3 -95 -28 -95 -70c0 -38 32 -59 88 -59z" />
    <glyph glyph-name="amacron.ss03" horiz-adv-x="532" 
d="M111 556v86h318v-86h-318zM206 -12c-100 0 -166 52 -166 142c0 47 18 87 55 113c36 27 92 41 175 44l88 3v26c0 52 -35 74 -91 74c-59 0 -97 -23 -101 -60h-109c8 83 71 148 214 148c144 0 196 -67 196 -195v-283h-110v56c-24 -38 -69 -68 -151 -68zM237 75
c76 0 121 41 121 114v21l-114 -6c-60 -3 -95 -28 -95 -70c0 -38 32 -59 88 -59z" />
    <glyph glyph-name="aogonek.ss03" horiz-adv-x="532" 
d="M434 -131c16 0 32 3 51 12v-78c-21 -8 -46 -15 -81 -15c-76 0 -125 46 -125 102c0 41 26 79 79 110h-1v56c-24 -38 -69 -68 -151 -68c-100 0 -166 52 -166 142c0 47 18 87 55 113c36 27 92 41 175 44l88 3v26c0 52 -35 74 -91 74c-59 0 -97 -23 -101 -60h-109
c8 83 71 148 214 148c144 0 196 -67 196 -195v-283c-68 -10 -89 -45 -89 -77c0 -31 24 -54 56 -54zM237 75c76 0 121 41 121 114v21l-114 -6c-60 -3 -95 -28 -95 -70c0 -38 32 -59 88 -59z" />
    <glyph glyph-name="aring.ss03" horiz-adv-x="532" 
d="M270 503c-63 0 -113 45 -113 110s50 110 113 110s113 -45 113 -110s-50 -110 -113 -110zM270 556c30 0 53 23 53 57s-23 57 -53 57s-53 -23 -53 -57s23 -57 53 -57zM206 -12c-100 0 -166 52 -166 142c0 47 18 87 55 113c36 27 92 41 175 44l88 3v26c0 52 -35 74 -91 74
c-59 0 -97 -23 -101 -60h-109c8 83 71 148 214 148c144 0 196 -67 196 -195v-283h-110v56c-24 -38 -69 -68 -151 -68zM237 75c76 0 121 41 121 114v21l-114 -6c-60 -3 -95 -28 -95 -70c0 -38 32 -59 88 -59z" />
    <glyph glyph-name="atilde.ss03" horiz-adv-x="532" 
d="M344 521c-56 0 -96 56 -141 56c-26 0 -43 -12 -68 -38l-39 59c32 54 70 68 100 68c56 0 95 -56 141 -56c26 0 43 11 68 38l39 -59c-32 -54 -70 -68 -100 -68zM206 -12c-100 0 -166 52 -166 142c0 47 18 87 55 113c36 27 92 41 175 44l88 3v26c0 52 -35 74 -91 74
c-59 0 -97 -23 -101 -60h-109c8 83 71 148 214 148c144 0 196 -67 196 -195v-283h-110v56c-24 -38 -69 -68 -151 -68zM237 75c76 0 121 41 121 114v21l-114 -6c-60 -3 -95 -28 -95 -70c0 -38 32 -59 88 -59z" />
    <glyph glyph-name="y.ss04" horiz-adv-x="507" 
d="M89 -222c-23 0 -34 2 -56 8v102c17 -5 39 -7 54 -7c42 0 88 19 106 75l7 22l-190 488h113l138 -368l120 368h116l-201 -536c-45 -121 -122 -152 -207 -152z" />
    <glyph glyph-name="yacute.ss04" horiz-adv-x="507" 
d="M123 502l-35 84l282 107l35 -81zM89 -222c-23 0 -34 2 -56 8v102c17 -5 39 -7 54 -7c42 0 88 19 106 75l7 22l-190 488h113l138 -368l120 368h116l-201 -536c-45 -121 -122 -152 -207 -152z" />
    <glyph glyph-name="ycircumflex.ss04" horiz-adv-x="507" 
d="M257 708l180 -147l-58 -64l-122 105l-121 -104l-59 63zM89 -222c-23 0 -34 2 -56 8v102c17 -5 39 -7 54 -7c42 0 88 19 106 75l7 22l-190 488h113l138 -368l120 368h116l-201 -536c-45 -121 -122 -152 -207 -152z" />
    <glyph glyph-name="ydieresis.ss04" horiz-adv-x="507" 
d="M155 532c-42 0 -76 34 -76 76c0 43 34 77 76 77c43 0 77 -34 77 -77c0 -42 -34 -76 -77 -76zM358 532c-42 0 -76 34 -76 76c0 43 34 77 76 77c43 0 77 -34 77 -77c0 -42 -34 -76 -77 -76zM89 -222c-23 0 -34 2 -56 8v102c17 -5 39 -7 54 -7c42 0 88 19 106 75l7 22
l-190 488h113l138 -368l120 368h116l-201 -536c-45 -121 -122 -152 -207 -152z" />
    <glyph glyph-name="ygrave.ss04" horiz-adv-x="507" 
d="M371 502l-282 110l35 81l282 -107zM89 -222c-23 0 -34 2 -56 8v102c17 -5 39 -7 54 -7c42 0 88 19 106 75l7 22l-190 488h113l138 -368l120 368h116l-201 -536c-45 -121 -122 -152 -207 -152z" />
    <glyph glyph-name="a.sups" horiz-adv-x="372" 
d="M157 394c-84 0 -136 60 -136 142s55 144 137 144c43 0 77 -20 93 -47v39h88v-272h-88v39c-16 -28 -52 -45 -94 -45zM182 466c45 0 72 32 72 70c0 39 -27 70 -72 70c-43 0 -71 -30 -71 -70s28 -70 71 -70z" />
    <glyph glyph-name="b.sups" horiz-adv-x="372" 
d="M217 680c79 0 134 -58 134 -144c0 -84 -56 -142 -136 -142c-44 0 -79 20 -95 45v-39h-88v394h88v-161c17 26 54 47 97 47zM190 466c41 0 71 29 71 70s-30 70 -71 70c-43 0 -73 -29 -73 -70s30 -70 73 -70z" />
    <glyph glyph-name="c.sups" horiz-adv-x="345" 
d="M174 393c-94 0 -154 58 -154 144s60 143 154 143c86 0 142 -46 151 -116h-89c-6 28 -26 42 -62 42c-41 0 -67 -25 -67 -69s26 -71 67 -71c36 0 56 15 62 42h89c-9 -70 -65 -115 -151 -115z" />
    <glyph glyph-name="d.sups" horiz-adv-x="373" 
d="M251 794h88v-394h-88v39c-16 -28 -51 -45 -94 -45c-84 0 -135 60 -135 142s54 144 137 144c42 0 76 -20 92 -47v161zM184 466c44 0 71 32 71 70c0 39 -27 70 -71 70s-72 -30 -72 -70s28 -70 72 -70z" />
    <glyph glyph-name="e.sups" horiz-adv-x="347" 
d="M326 551c0 -15 0 -21 -2 -37h-217c1 -36 28 -55 70 -55c31 0 51 9 59 25h86c-9 -55 -67 -91 -144 -91c-97 0 -158 53 -158 144c0 88 62 143 156 143c89 0 150 -52 150 -129zM107 565h133c0 36 -24 58 -65 58c-40 0 -67 -25 -68 -58z" />
    <glyph glyph-name="f.sups" horiz-adv-x="237" 
d="M194 732c-30 0 -47 -13 -47 -41v-21h75v-64h-75v-206h-88v206h-49v64h49v21c0 66 48 109 112 109c21 0 37 -2 51 -6v-64c-10 1 -17 2 -28 2z" />
    <glyph glyph-name="g.sups" horiz-adv-x="373" 
d="M251 672h89v-254c0 -51 -21 -89 -54 -113c-24 -18 -62 -25 -106 -25c-41 0 -74 7 -101 23c-32 19 -53 50 -54 81h90c5 -25 27 -38 65 -38c46 0 71 15 71 62v37c-15 -27 -55 -45 -92 -45c-86 0 -137 59 -137 138c0 80 54 140 137 140c41 0 77 -18 92 -46v40zM184 467
c44 0 71 32 71 70c0 39 -27 71 -71 71s-72 -30 -72 -71c0 -40 28 -70 72 -70z" />
    <glyph glyph-name="h.sups" horiz-adv-x="348" 
d="M213 679c69 0 107 -37 107 -111v-168h-90v139c0 46 -13 66 -53 66s-62 -23 -62 -64v-141h-87v394h87v-162c17 32 52 47 98 47z" />
    <glyph glyph-name="i.sups" horiz-adv-x="208" 
d="M98 700c-35 0 -57 24 -57 53c0 30 22 54 57 54c33 0 56 -24 56 -54c0 -29 -23 -53 -56 -53zM52 400v272h90v-272h-90z" />
    <glyph glyph-name="j.sups" horiz-adv-x="179" 
d="M86 700c-35 0 -56 24 -56 53c0 30 21 54 56 54c34 0 57 -24 57 -54c0 -29 -23 -53 -57 -53zM33 285c-22 0 -34 2 -48 6v70c9 -2 16 -2 27 -2c20 0 30 7 30 25v288h88v-300c0 -59 -35 -87 -97 -87z" />
    <glyph glyph-name="k.sups" horiz-adv-x="312" 
d="M323 400h-109l-101 121v-121h-88v394h88v-238l105 116h104l-123 -129z" />
    <glyph glyph-name="l.sups" horiz-adv-x="185" 
d="M49 400v394h91v-394h-91z" />
    <glyph glyph-name="m.sups" horiz-adv-x="493" 
d="M27 400v272h87v-40c13 28 43 47 83 47c49 0 76 -21 88 -50c16 30 50 50 92 50c80 0 101 -53 101 -110v-169h-90v152c0 37 -15 53 -43 53c-30 0 -49 -15 -49 -66v-139h-89v152c0 38 -15 53 -43 53c-30 0 -50 -15 -50 -66v-139h-87z" />
    <glyph glyph-name="n.sups" horiz-adv-x="347" 
d="M29 400v272h87v-40c16 32 51 47 97 47c70 0 107 -37 107 -111v-168h-89v139c0 46 -14 66 -54 66s-61 -23 -61 -64v-141h-87z" />
    <glyph glyph-name="o.sups" horiz-adv-x="365" 
d="M182 393c-99 0 -160 61 -160 144c0 82 61 143 160 143s161 -61 161 -143c0 -83 -62 -144 -161 -144zM182 466c45 0 72 30 72 71c0 40 -27 69 -72 69s-73 -29 -73 -69c0 -41 28 -71 73 -71z" />
    <glyph glyph-name="p.sups" horiz-adv-x="373" 
d="M217 679c79 0 134 -57 134 -143c0 -85 -56 -143 -136 -143c-44 0 -79 21 -95 46v-151h-88v384h88v-39c17 26 53 46 97 46zM190 465c41 0 71 29 71 71c0 41 -30 70 -71 70c-43 0 -73 -29 -73 -70c0 -42 30 -71 73 -71z" />
    <glyph glyph-name="q.sups" horiz-adv-x="373" 
d="M251 672h89v-384h-89v151c-16 -27 -51 -46 -94 -46c-84 0 -135 62 -135 143s54 143 137 143c42 0 76 -19 92 -46v39zM184 465c44 0 71 32 71 71s-27 70 -71 70s-72 -30 -72 -70c0 -41 28 -71 72 -71z" />
    <glyph glyph-name="r.sups" horiz-adv-x="233" 
d="M31 400v272h88v-57c12 40 48 62 89 62c10 0 18 -2 25 -3v-82c-11 1 -18 1 -29 1c-52 0 -85 -24 -85 -89v-104h-88z" />
    <glyph glyph-name="s.sups" horiz-adv-x="288" 
d="M145 393c-81 0 -137 37 -137 93h87c0 -21 22 -35 52 -35c25 0 38 10 38 26c0 12 -7 18 -29 23l-60 14c-53 13 -80 41 -80 81c0 53 50 85 129 85c76 0 126 -31 126 -85h-87c0 18 -17 30 -43 30c-24 0 -39 -9 -39 -23c0 -11 11 -20 36 -26l58 -13c53 -12 77 -40 77 -79
c0 -54 -48 -91 -128 -91z" />
    <glyph glyph-name="t.sups" horiz-adv-x="237" 
d="M185 468c11 0 25 0 34 3v-71c-14 -2 -36 -3 -62 -3c-43 0 -104 9 -104 99v106h-49v70h49v81h88v-81h70v-70h-70v-88c0 -39 19 -46 44 -46z" />
    <glyph glyph-name="u.sups" horiz-adv-x="347" 
d="M134 394c-70 0 -109 41 -109 111v167h90v-148c0 -36 15 -56 52 -56c42 0 60 22 60 59v145h87v-272h-87v40c-15 -29 -49 -46 -93 -46z" />
    <glyph glyph-name="v.sups" horiz-adv-x="327" 
d="M124 400l-126 272h97l68 -169l69 169h97l-126 -272h-79z" />
    <glyph glyph-name="w.sups" horiz-adv-x="460" 
d="M96 400l-101 272h90l54 -165l52 165h77l53 -165l53 165h91l-101 -272h-80l-54 164l-56 -164h-78z" />
    <glyph glyph-name="x.sups" horiz-adv-x="312" 
d="M-5 400l107 137l-106 135h104l55 -78l54 78h105l-106 -135l109 -137h-106l-56 80l-57 -80h-103z" />
    <glyph glyph-name="y.sups" horiz-adv-x="350" 
d="M229 672h88v-263c0 -44 -17 -76 -41 -97c-26 -23 -58 -33 -106 -33c-49 0 -81 10 -107 29c-23 17 -37 42 -37 71h89c1 -23 16 -36 54 -36c37 0 60 18 60 60v43c-16 -30 -50 -46 -93 -46c-77 0 -110 47 -110 114v158h88v-144c0 -35 14 -58 54 -58c41 0 61 26 61 67v135z
" />
    <glyph glyph-name="z.sups" horiz-adv-x="280" 
d="M-2 400l147 198h-134v74h269l-146 -199h135v-73h-271z" />
    <glyph glyph-name="uni0410" unicode="&#x410;" horiz-adv-x="603" 
d="M463 0l-27 89h-269l-27 -89h-125l236 700h101l236 -700h-125zM197 192h208l-104 347z" />
    <glyph glyph-name="uni0411" unicode="&#x411;" horiz-adv-x="575" 
d="M75 0v700h409v-103h-294v-191h150c124 0 205 -93 205 -203s-81 -203 -205 -203h-265zM190 102h150c54 0 90 46 90 101s-36 101 -90 101h-150v-202z" />
    <glyph glyph-name="uni0412" unicode="&#x412;" horiz-adv-x="585" 
d="M401 360c76 -7 144 -65 144 -165c0 -121 -84 -195 -223 -195h-247v700h234c140 0 225 -68 225 -182c0 -95 -52 -142 -133 -158zM304 599h-114v-192h114c72 0 115 36 115 96c0 61 -42 96 -115 96zM320 101c69 0 110 39 110 106c0 59 -44 99 -109 99h-131v-205h130z" />
    <glyph glyph-name="uni0413" unicode="&#x413;" horiz-adv-x="484" 
d="M75 700h404v-108h-289v-592h-115v700z" />
    <glyph glyph-name="uni0403" unicode="&#x403;" horiz-adv-x="484" 
d="M205 731l-39 74l207 92l38 -73zM75 700h404v-108h-289v-592h-115v700z" />
    <glyph glyph-name="uni0490" unicode="&#x490;" horiz-adv-x="484" 
d="M364 791h115v-199h-289v-592h-115v700h289v91z" />
    <glyph glyph-name="uni0414" unicode="&#x414;" horiz-adv-x="654" 
d="M570 103h54v-223h-109v120h-380v-120h-115v223h39c43 0 69 39 69 173v424h442v-597zM208 103h246v494h-208v-319c0 -74 -14 -132 -38 -175z" />
    <glyph glyph-name="uni0415" unicode="&#x415;" horiz-adv-x="544" 
d="M75 0v700h404v-103h-289v-198h289v-103h-289v-193h289v-103h-404z" />
    <glyph glyph-name="uni0401" unicode="&#x401;" horiz-adv-x="544" 
d="M162 738c-42 0 -76 34 -76 76c0 43 34 77 76 77c43 0 77 -34 77 -77c0 -42 -34 -76 -77 -76zM401 738c-42 0 -76 34 -76 76c0 43 34 77 76 77c43 0 77 -34 77 -77c0 -42 -34 -76 -77 -76zM75 0v700h404v-103h-289v-198h289v-103h-289v-193h289v-103h-404z" />
    <glyph glyph-name="uni0416" unicode="&#x416;" horiz-adv-x="951" 
d="M642 357l299 -357h-144l-264 333v-333h-115v333l-264 -333h-144l299 357h-8c-18 0 -39 10 -53 31l-102 159c-30 46 -48 54 -71 54h-33v104h59c59 0 90 -33 133 -100l104 -159c14 -24 39 -39 60 -39h20v293h115v-293h20c21 0 46 15 60 39l104 159c43 67 74 100 133 100h59
v-104h-33c-23 0 -41 -8 -71 -54l-102 -159c-14 -21 -35 -31 -53 -31h-8z" />
    <glyph glyph-name="uni0417" unicode="&#x417;" horiz-adv-x="572" 
d="M155 224c0 -88 55 -138 136 -138c79 0 121 54 121 114c0 66 -31 107 -126 107h-52v102h53c87 0 113 51 113 101c0 57 -43 104 -113 104s-127 -43 -127 -121h-115c0 133 99 224 238 224c125 0 232 -66 232 -197c0 -81 -49 -139 -111 -156c66 -13 123 -70 123 -163
c0 -130 -92 -218 -234 -218c-146 0 -253 87 -253 241h115z" />
    <glyph glyph-name="uni0418" unicode="&#x418;" horiz-adv-x="668" 
d="M478 484l-288 -436v-48h-115v700h115v-484l288 436v48h115v-700h-115v484z" />
    <glyph glyph-name="uni0419" unicode="&#x419;" horiz-adv-x="668" 
d="M335 712c-102 0 -176 46 -182 122h89c8 -37 47 -50 93 -50s85 13 93 50h89c-6 -76 -80 -122 -182 -122zM478 484l-288 -436v-48h-115v700h115v-484l288 436v48h115v-700h-115v484z" />
    <glyph glyph-name="uni048A" unicode="&#x48a;" horiz-adv-x="677" 
d="M335 712c-102 0 -176 46 -182 122h89c8 -37 47 -50 93 -50s85 13 93 50h89c-6 -76 -80 -122 -182 -122zM593 103h54v-223h-109v120h-60v484l-288 -436v-48h-115v700h115v-484l288 436v48h115v-597z" />
    <glyph glyph-name="uni041A" unicode="&#x41a;" horiz-adv-x="608" 
d="M299 357l299 -357h-144l-264 333v-333h-115v700h115v-293h20c21 0 46 15 60 39l104 159c43 67 74 100 133 100h59v-104h-33c-23 0 -41 -8 -71 -54l-102 -159c-14 -21 -35 -31 -53 -31h-8z" />
    <glyph glyph-name="uni040C" unicode="&#x40c;" horiz-adv-x="608" 
d="M425 824l-206 -93l-39 74l207 92zM299 357l299 -357h-144l-264 333v-333h-115v700h115v-293h20c21 0 46 15 60 39l104 159c43 67 74 100 133 100h59v-104h-33c-23 0 -41 -8 -71 -54l-102 -159c-14 -21 -35 -31 -53 -31h-8z" />
    <glyph glyph-name="uni041B" unicode="&#x41b;" horiz-adv-x="672" 
d="M20 100h24c61 0 99 40 99 176v424h454v-700h-115v599h-224v-326c0 -200 -78 -281 -196 -281h-42v108z" />
    <glyph glyph-name="uni041C" unicode="&#x41c;" horiz-adv-x="817" 
d="M75 0v700h110l224 -536l223 536h110v-700h-110v463l-180 -463h-87l-180 468v-468h-110z" />
    <glyph glyph-name="uni041D" unicode="&#x41d;" horiz-adv-x="669" 
d="M75 0v700h115v-301h289v301h115v-700h-115v296h-289v-296h-115z" />
    <glyph glyph-name="uni041E" unicode="&#x41e;" horiz-adv-x="794" 
d="M397 -17c-227 0 -362 167 -362 367s135 367 362 367s362 -167 362 -367s-135 -367 -362 -367zM397 86c155 0 242 119 241 264c1 145 -86 264 -241 264s-242 -119 -241 -264c-1 -145 86 -264 241 -264z" />
    <glyph glyph-name="uni041F" unicode="&#x41f;" horiz-adv-x="668" 
d="M190 597v-597h-115v700h518v-700h-115v597h-288z" />
    <glyph glyph-name="uni0420" unicode="&#x420;" horiz-adv-x="583" 
d="M333 700c140 0 240 -102 240 -245s-100 -245 -240 -245h-143v-210h-115v700h258zM326 313c76 0 132 60 132 142s-56 142 -132 142h-136v-284h136z" />
    <glyph glyph-name="uni0421" unicode="&#x421;" horiz-adv-x="769" 
d="M399 -17c-228 0 -364 153 -364 367s136 367 364 367c193 0 318 -109 339 -257h-126c-22 95 -96 154 -212 154c-155 0 -244 -104 -244 -264s89 -264 244 -264c116 0 190 59 212 154h126c-21 -148 -146 -257 -339 -257z" />
    <glyph glyph-name="uni0422" unicode="&#x422;" horiz-adv-x="532" 
d="M208 0v592h-203v108h522v-108h-204v-592h-115z" />
    <glyph glyph-name="uni0423" unicode="&#x423;" horiz-adv-x="561" 
d="M455 700h126l-347 -700h-126l139 281l-262 419h133l188 -301z" />
    <glyph glyph-name="uni040E" unicode="&#x40e;" horiz-adv-x="561" 
d="M292 732c-96 0 -166 63 -172 142h89c7 -48 42 -65 83 -65s76 17 83 65h89c-6 -79 -76 -142 -172 -142zM455 700h126l-347 -700h-126l139 281l-262 419h133l188 -301z" />
    <glyph glyph-name="uni0424" unicode="&#x424;" horiz-adv-x="705" 
d="M448 609c150 0 247 -118 247 -259s-97 -259 -247 -259h-38v-91h-115v91h-38c-150 0 -247 118 -247 259s97 259 247 259h38v91h115v-91h38zM125 350c0 -86 52 -156 132 -156h38v312h-38c-80 0 -132 -70 -132 -156zM448 194c80 0 132 70 132 156s-52 156 -132 156h-38v-312
h38z" />
    <glyph glyph-name="uni0425" unicode="&#x425;" horiz-adv-x="616" 
d="M15 0l228 350l-228 350h130l163 -256l163 256h130l-228 -350l228 -350h-130l-163 255l-163 -255h-130z" />
    <glyph glyph-name="uni0427" unicode="&#x427;" horiz-adv-x="583" 
d="M393 0v242c-47 -27 -96 -32 -143 -32c-132 0 -210 98 -210 215v275h115v-245c0 -99 50 -142 127 -142c37 0 74 0 111 31v356h115v-700h-115z" />
    <glyph glyph-name="uni0426" unicode="&#x426;" horiz-adv-x="663" 
d="M579 103h54v-223h-109v120h-449v700h115v-597h274v597h115v-597z" />
    <glyph glyph-name="uni0428" unicode="&#x428;" horiz-adv-x="909" 
d="M75 0v700h115v-597h207v597h115v-597h207v597h115v-700h-759z" />
    <glyph glyph-name="uni0429" unicode="&#x429;" horiz-adv-x="918" 
d="M834 103h54v-223h-109v120h-704v700h115v-597h207v597h115v-597h207v597h115v-597z" />
    <glyph glyph-name="uni040F" unicode="&#x40f;" horiz-adv-x="654" 
d="M579 700v-700h-195v-120h-115v120h-194v700h115v-597h274v597h115z" />
    <glyph glyph-name="uni042C" unicode="&#x42c;" horiz-adv-x="575" 
d="M75 0v700h115v-294h150c124 0 205 -93 205 -203s-81 -203 -205 -203h-265zM190 102h150c54 0 90 46 90 101s-36 101 -90 101h-150v-202z" />
    <glyph glyph-name="uni042A" unicode="&#x42a;" horiz-adv-x="690" 
d="M455 406c124 0 205 -93 205 -203s-81 -203 -205 -203h-265v597h-185v103h300v-294h150zM455 102c54 0 90 46 90 101s-36 101 -90 101h-150v-202h150z" />
    <glyph glyph-name="uni042B" unicode="&#x42b;" horiz-adv-x="789" 
d="M75 0v700h115v-294h150c124 0 205 -93 205 -203s-81 -203 -205 -203h-265zM599 0v700h115v-700h-115zM190 102h150c54 0 90 46 90 101s-36 101 -90 101h-150v-202z" />
    <glyph glyph-name="uni0409" unicode="&#x409;" horiz-adv-x="982" 
d="M747 406c124 0 205 -93 205 -203s-81 -203 -205 -203h-265v599h-224v-326c0 -200 -78 -281 -196 -281h-42v108h24c61 0 99 40 99 176v424h454v-294h150zM747 102c54 0 90 46 90 101s-36 101 -90 101h-150v-202h150z" />
    <glyph glyph-name="uni040A" unicode="&#x40a;" horiz-adv-x="979" 
d="M744 406c124 0 205 -93 205 -203s-81 -203 -205 -203h-265v296h-289v-296h-115v700h115v-301h289v301h115v-294h150zM744 102c54 0 90 46 90 101s-36 101 -90 101h-150v-202h150z" />
    <glyph glyph-name="uni0405" unicode="&#x405;" horiz-adv-x="552" 
d="M285 -17c-162 0 -255 89 -255 246h115c0 -91 52 -146 139 -146c76 0 118 35 118 98c0 53 -25 80 -104 112l-114 46c-88 34 -134 97 -134 186c0 114 92 192 224 192c139 0 231 -87 231 -219h-115c0 77 -42 121 -120 121c-66 0 -104 -34 -104 -87c0 -48 34 -80 116 -113
l103 -42c88 -36 132 -98 132 -193c0 -120 -93 -201 -232 -201z" />
    <glyph glyph-name="uni0404" unicode="&#x404;" horiz-adv-x="727" 
d="M383 86c103 0 175 58 188 139h125c-21 -141 -140 -242 -313 -242c-207 0 -348 145 -348 367s141 367 348 367c164 0 289 -92 313 -240h-126c-13 80 -85 137 -187 137c-122 0 -206 -80 -224 -212h314v-104h-314c18 -132 102 -212 224 -212z" />
    <glyph glyph-name="uni042D" unicode="&#x42d;" horiz-adv-x="727" 
d="M344 717c207 0 348 -145 348 -367s-141 -367 -348 -367c-173 0 -292 101 -313 242h125c13 -81 85 -139 188 -139c122 0 206 80 224 212h-314v104h314c-18 132 -102 212 -224 212c-102 0 -174 -57 -187 -137h-126c24 148 149 240 313 240z" />
    <glyph glyph-name="uni0406" unicode="&#x406;" horiz-adv-x="265" 
d="M75 0v700h115v-700h-115z" />
    <glyph glyph-name="uni0407" unicode="&#x407;" horiz-adv-x="265" 
d="M54 743c-39 0 -70 28 -70 70s31 70 70 70s70 -28 70 -70s-31 -70 -70 -70zM212 743c-39 0 -70 28 -70 70s31 70 70 70s70 -28 70 -70s-31 -70 -70 -70zM75 0v700h115v-700h-115z" />
    <glyph glyph-name="uni0408" unicode="&#x408;" horiz-adv-x="536" 
d="M247 -17c-145 0 -227 99 -227 245h115c0 -83 37 -142 112 -142c76 0 114 58 114 141v473h115v-473c0 -146 -82 -244 -229 -244z" />
    <glyph glyph-name="uni040B" unicode="&#x40b;" horiz-adv-x="741" 
d="M466 490c132 0 210 -98 210 -215v-275h-115v245c0 99 -50 142 -127 142c-37 0 -74 0 -111 -31v-356h-115v592h-203v108h522v-108h-204v-134c47 27 96 32 143 32z" />
    <glyph glyph-name="uni042E" unicode="&#x42e;" horiz-adv-x="1039" 
d="M642 717c227 0 362 -167 362 -367s-135 -367 -362 -367c-206 0 -337 138 -359 313h-93v-296h-115v700h115v-301h93c20 178 151 318 359 318zM642 86c155 0 242 119 241 264c1 145 -86 264 -241 264s-242 -119 -241 -264c-1 -145 86 -264 241 -264z" />
    <glyph glyph-name="uni042F" unicode="&#x42f;" horiz-adv-x="608" 
d="M275 700h258v-700h-115v210h-113l-128 -210h-131l138 226c-90 34 -149 120 -149 229c0 143 100 245 240 245zM282 313h136v284h-136c-76 0 -132 -60 -132 -142s56 -142 132 -142z" />
    <glyph glyph-name="uni0402" unicode="&#x402;" horiz-adv-x="720" 
d="M455 490c124 0 230 -89 230 -241c0 -181 -94 -259 -246 -259c-6 0 -29 1 -44 4v100c7 -1 30 -3 31 -3c87 0 144 47 144 151c0 108 -62 145 -138 145c-37 0 -72 -5 -109 -30v-357h-115v592h-203v108h522v-108h-204v-134c44 26 88 32 132 32z" />
    <glyph glyph-name="uni0462" unicode="&#x462;" horiz-adv-x="708" 
d="M473 406c124 0 205 -93 205 -203s-81 -203 -205 -203h-265v592h-203v108h522v-108h-204v-186h150zM473 102c54 0 90 46 90 101s-36 101 -90 101h-150v-202h150z" />
    <glyph glyph-name="uni0472" unicode="&#x472;" horiz-adv-x="794" 
d="M397 717c227 0 362 -167 362 -367s-135 -367 -362 -367s-362 167 -362 367s135 367 362 367zM397 614c-142 0 -226 -99 -239 -227h478c-13 128 -97 227 -239 227zM397 86c142 0 227 100 239 229h-478c12 -129 97 -229 239 -229z" />
    <glyph glyph-name="uni0474" unicode="&#x474;" horiz-adv-x="590" 
d="M323 0h-81l-242 700h121l162 -519l128 412c25 79 55 112 129 112h45v-103h-18c-25 0 -41 -13 -54 -51z" />
    <glyph glyph-name="uni0492" unicode="&#x492;" horiz-adv-x="484" 
d="M479 592h-289v-174h153v-87h-153v-331h-115v331h-60v87h60v282h404v-108z" />
    <glyph glyph-name="uni0494" unicode="&#x494;" horiz-adv-x="608" 
d="M333 430c132 0 210 -98 210 -215v-291c0 -91 -56 -140 -156 -140c-32 0 -53 4 -67 10v102c10 -2 31 -4 49 -4c41 0 59 16 59 69v224c0 99 -50 142 -127 142c-37 0 -74 0 -111 -31v-296h-115v700h404v-108h-289v-194c47 27 96 32 143 32z" />
    <glyph glyph-name="uni0496" unicode="&#x496;" horiz-adv-x="970" 
d="M855 103h105v-223h-109v120h-54l-264 333v-333h-115v333l-264 -333h-144l299 357h-8c-18 0 -39 10 -53 31l-102 159c-30 46 -48 54 -71 54h-33v104h59c59 0 90 -33 133 -100l104 -159c14 -24 39 -39 60 -39h20v293h115v-293h20c21 0 46 15 60 39l104 159
c43 67 74 100 133 100h59v-104h-33c-23 0 -41 -8 -71 -54l-102 -159c-14 -21 -35 -31 -53 -31h-8z" />
    <glyph glyph-name="uni0498" unicode="&#x498;" horiz-adv-x="572" 
d="M527 201c0 -121 -80 -206 -206 -217v-43c7 6 24 11 41 11c39 0 76 -26 76 -79c0 -49 -31 -89 -93 -89c-50 0 -85 25 -90 74h55c1 -18 17 -28 34 -28c21 0 36 14 36 42c0 27 -14 40 -35 40c-14 0 -25 -6 -32 -16h-49v88c-131 11 -224 96 -224 240h115
c0 -88 55 -138 136 -138c79 0 121 54 121 114c0 66 -31 107 -126 107h-52v102h53c87 0 113 51 113 101c0 57 -43 104 -113 104s-127 -43 -127 -121h-115c0 133 99 224 238 224c125 0 232 -66 232 -197c0 -81 -49 -139 -111 -156c66 -13 123 -70 123 -163z" />
    <glyph glyph-name="uni049A" unicode="&#x49a;" horiz-adv-x="621" 
d="M512 103h99v-223h-109v120h-48l-264 333v-333h-115v700h115v-293h20c21 0 46 15 60 39l104 159c43 67 74 100 133 100h59v-104h-33c-23 0 -41 -8 -71 -54l-102 -159c-14 -21 -35 -31 -53 -31h-8z" />
    <glyph glyph-name="uni049C" unicode="&#x49c;" horiz-adv-x="668" 
d="M658 0h-144l-249 314v-128h-40v146h-35v-332h-115v700h115v-293h35v146h40v-146h5c21 0 45 16 60 39l104 159c44 67 74 100 133 100h59v-104h-33c-23 0 -41 -8 -71 -54l-102 -159c-14 -21 -35 -31 -53 -31h-8z" />
    <glyph glyph-name="uni049E" unicode="&#x49e;" horiz-adv-x="650" 
d="M341 357l299 -357h-144l-264 333v-333h-115v529h-42v87h42v84h115v-84h91v-87h-91v-122h20c21 0 46 15 60 39l104 159c43 67 74 100 133 100h59v-104h-33c-23 0 -41 -8 -71 -54l-102 -159c-14 -21 -35 -31 -53 -31h-8z" />
    <glyph glyph-name="uni04A0" unicode="&#x4a0;" horiz-adv-x="723" 
d="M414 357l299 -357h-144l-264 333v-333h-115v597h-185v103h300v-293h20c21 0 46 15 60 39l104 159c43 67 74 100 133 100h59v-104h-33c-23 0 -41 -8 -71 -54l-102 -159c-14 -21 -35 -31 -53 -31h-8z" />
    <glyph glyph-name="uni04A2" unicode="&#x4a2;" horiz-adv-x="678" 
d="M594 103h54v-223h-109v120h-60v296h-289v-296h-115v700h115v-301h289v301h115v-597z" />
    <glyph glyph-name="uni04A4" unicode="&#x4a4;" horiz-adv-x="888" 
d="M883 700v-108h-289v-592h-115v296h-289v-296h-115v700h115v-301h289v301h404z" />
    <glyph glyph-name="uni04A6" unicode="&#x4a6;" horiz-adv-x="1011" 
d="M736 480c132 0 210 -98 210 -215v-341c0 -91 -56 -140 -156 -140c-32 0 -53 4 -67 10v102c10 -2 31 -4 49 -4c41 0 59 16 59 69v274c0 99 -50 142 -127 142c-37 0 -74 0 -111 -31v-346h-115v597h-288v-597h-115v700h518v-252c47 27 96 32 143 32z" />
    <glyph glyph-name="uni0524" unicode="&#x524;" horiz-adv-x="668" 
d="M593 103h54v-223h-109v120h-60v597h-288v-597h-115v700h518v-597z" />
    <glyph glyph-name="uni04A8" unicode="&#x4a8;" horiz-adv-x="784" 
d="M640 77c36 -2 80 9 104 20v-96c-29 -10 -60 -18 -107 -18c-44 0 -90 7 -125 22c-34 -15 -82 -22 -133 -22c-217 0 -344 147 -344 355c0 231 152 379 426 379c49 0 98 -6 147 -23v-106c-49 17 -98 23 -147 23c-184 0 -304 -105 -304 -269c0 -142 78 -262 236 -262
c-61 53 -88 129 -88 213c0 156 99 237 223 237c126 0 214 -80 214 -215c0 -81 -33 -178 -102 -238zM421 289c0 -88 42 -148 99 -181c74 38 114 111 114 195c0 79 -40 121 -106 121s-107 -45 -107 -135z" />
    <glyph glyph-name="uni04AA" unicode="&#x4aa;" horiz-adv-x="769" 
d="M400 86c116 0 190 59 212 154h126c-20 -140 -134 -246 -310 -256v-43c7 6 24 11 41 11c39 0 76 -26 76 -79c0 -49 -31 -89 -93 -89c-50 0 -85 25 -90 74h55c1 -18 17 -28 34 -28c21 0 36 14 36 42c0 27 -14 40 -35 40c-14 0 -25 -6 -32 -16h-49v88
c-211 12 -336 161 -336 366c0 214 136 367 364 367c193 0 318 -109 339 -257h-126c-22 95 -96 154 -212 154c-155 0 -244 -104 -244 -264s89 -264 244 -264z" />
    <glyph glyph-name="uni04AC" unicode="&#x4ac;" horiz-adv-x="532" 
d="M527 592h-204v-489h54v-223h-109v120h-60v592h-203v108h522v-108z" />
    <glyph glyph-name="uni04AE" unicode="&#x4ae;" horiz-adv-x="620" 
d="M252 0v289l-257 411h133l182 -302l182 302h133l-257 -411v-289h-116z" />
    <glyph glyph-name="uni04B0" unicode="&#x4b0;" horiz-adv-x="620" 
d="M368 289v-48h111v-87h-111v-154h-116v154h-110v87h110v48l-257 411h133l182 -302l182 302h133z" />
    <glyph glyph-name="uni04B2" unicode="&#x4b2;" horiz-adv-x="644" 
d="M534 103h80v-223h-109v120h-34l-163 255l-163 -255h-130l228 350l-228 350h130l163 -256l163 256h130l-228 -350z" />
    <glyph glyph-name="uni04B4" unicode="&#x4b4;" horiz-adv-x="765" 
d="M681 103h54v-223h-109v120h-449v592h-172v108h462v-108h-174v-489h273v597h115v-597z" />
    <glyph glyph-name="uni04B6" unicode="&#x4b6;" horiz-adv-x="587" 
d="M508 103h49v-223h-109v120h-55v242c-47 -27 -96 -32 -143 -32c-132 0 -210 98 -210 215v275h115v-245c0 -99 50 -142 127 -142c37 0 74 0 111 31v356h115v-597z" />
    <glyph glyph-name="uni04B8" unicode="&#x4b8;" horiz-adv-x="583" 
d="M393 700h115v-700h-115v242c-25 -14 -50 -22 -75 -27v-91h-72v86c-130 2 -206 99 -206 215v275h115v-245c0 -83 35 -126 91 -138v106h72v-109c25 2 50 9 75 30v356z" />
    <glyph glyph-name="uni04BA" unicode="&#x4ba;" horiz-adv-x="583" 
d="M190 700v-242c47 27 96 32 143 32c132 0 210 -98 210 -215v-275h-115v245c0 99 -50 142 -127 142c-37 0 -74 0 -111 -31v-356h-115v700h115z" />
    <glyph glyph-name="uni0526" unicode="&#x526;" horiz-adv-x="627" 
d="M543 103h54v-223h-109v120h-60v245c0 99 -50 142 -127 142c-37 0 -74 0 -111 -31v-356h-115v700h115v-242c47 27 96 32 143 32c132 0 210 -98 210 -215v-172z" />
    <glyph glyph-name="uni04BC" unicode="&#x4bc;" horiz-adv-x="923" 
d="M888 369v-71h-576c11 -116 74 -210 229 -210c132 0 181 55 207 121h135c-21 -119 -146 -227 -342 -227c-208 0 -332 136 -350 316h-23c-80 0 -133 57 -133 135v50h102v-48c0 -28 17 -47 44 -47h9c16 188 143 324 359 324c191 0 339 -139 339 -343zM312 388h455
c0 137 -91 222 -223 222c-130 0 -232 -75 -232 -222z" />
    <glyph glyph-name="uni04BE" unicode="&#x4be;" horiz-adv-x="923" 
d="M410 738c-42 0 -76 34 -76 76c0 43 34 77 76 77c43 0 77 -34 77 -77c0 -42 -34 -76 -77 -76zM649 738c-42 0 -76 34 -76 76c0 43 34 77 76 77c43 0 77 -34 77 -77c0 -42 -34 -76 -77 -76zM888 369v-71h-576c11 -116 74 -210 229 -210c132 0 181 55 207 121h135
c-21 -119 -146 -227 -342 -227c-208 0 -332 136 -350 316h-23c-80 0 -133 57 -133 135v50h102v-48c0 -28 17 -47 44 -47h9c16 188 143 324 359 324c191 0 339 -139 339 -343zM312 388h455c0 137 -91 222 -223 222c-130 0 -232 -75 -232 -222z" />
    <glyph glyph-name="uni04C0" unicode="&#x4c0;" horiz-adv-x="265" 
d="M75 0v700h115v-700h-115z" />
    <glyph glyph-name="uni04C1" unicode="&#x4c1;" horiz-adv-x="951" 
d="M475 732c-102 0 -176 46 -182 122h89c8 -37 47 -50 93 -50s85 13 93 50h89c-6 -76 -80 -122 -182 -122zM642 357l299 -357h-144l-264 333v-333h-115v333l-264 -333h-144l299 357h-8c-18 0 -39 10 -53 31l-102 159c-30 46 -48 54 -71 54h-33v104h59c59 0 90 -33 133 -100
l104 -159c14 -24 39 -39 60 -39h20v293h115v-293h20c21 0 46 15 60 39l104 159c43 67 74 100 133 100h59v-104h-33c-23 0 -41 -8 -71 -54l-102 -159c-14 -21 -35 -31 -53 -31h-8z" />
    <glyph glyph-name="uni04C3" unicode="&#x4c3;" horiz-adv-x="627" 
d="M388 432c111 -7 204 -90 204 -225c0 -147 -83 -223 -234 -223c-21 0 -35 1 -52 4v95c10 -1 24 -2 39 -2c90 0 138 39 138 124c0 92 -62 130 -132 130h-64h-1l-96 -1v-334h-115v700h115v-293h20c21 0 45 15 60 39l104 159c44 67 74 100 133 100h59v-104h-33
c-23 0 -41 -8 -71 -54z" />
    <glyph glyph-name="uni04C5" unicode="&#x4c5;" horiz-adv-x="672" 
d="M597 103h62l-85 -223h-107l45 120h-30v599h-224v-326c0 -200 -78 -281 -196 -281h-42v108h24c61 0 99 40 99 176v424h454v-597z" />
    <glyph glyph-name="uni04C7" unicode="&#x4c7;" horiz-adv-x="669" 
d="M479 700h115v-776c0 -91 -56 -140 -156 -140c-32 0 -53 4 -67 10v102c10 -2 31 -4 49 -4c41 0 59 16 59 69v335h-289v-296h-115v700h115v-301h289v301z" />
    <glyph glyph-name="uni04C9" unicode="&#x4c9;" horiz-adv-x="669" 
d="M594 103h62l-85 -223h-107l45 120h-30v296h-289v-296h-115v700h115v-301h289v301h115v-597z" />
    <glyph glyph-name="uni04CB" unicode="&#x4cb;" horiz-adv-x="583" 
d="M508 700v-700h-58v-120h-115v223h58v139c-47 -27 -96 -32 -143 -32c-132 0 -210 98 -210 215v275h115v-245c0 -99 50 -142 127 -142c37 0 74 0 111 31v356h115z" />
    <glyph glyph-name="uni04CD" unicode="&#x4cd;" horiz-adv-x="817" 
d="M742 103h62l-85 -223h-107l45 120h-25v463l-180 -463h-87l-180 468v-468h-110v700h110l224 -536l223 536h110v-597z" />
    <glyph glyph-name="uni04D0" unicode="&#x4d0;" horiz-adv-x="603" 
d="M302 732c-102 0 -176 46 -182 122h89c8 -37 47 -50 93 -50s85 13 93 50h89c-6 -76 -80 -122 -182 -122zM463 0l-27 89h-269l-27 -89h-125l236 700h101l236 -700h-125zM197 192h208l-104 347z" />
    <glyph glyph-name="uni04D2" unicode="&#x4d2;" horiz-adv-x="603" 
d="M182 738c-42 0 -76 34 -76 76c0 43 34 77 76 77c43 0 77 -34 77 -77c0 -42 -34 -76 -77 -76zM421 738c-42 0 -76 34 -76 76c0 43 34 77 76 77c43 0 77 -34 77 -77c0 -42 -34 -76 -77 -76zM463 0l-27 89h-269l-27 -89h-125l236 700h101l236 -700h-125zM197 192h208
l-104 347z" />
    <glyph glyph-name="uni04D4" unicode="&#x4d4;" horiz-adv-x="863" 
d="M798 597h-269v-198h269v-103h-269v-193h269v-103h-384v94h-235l-44 -94h-125l345 700h443v-103zM224 192h190v410z" />
    <glyph glyph-name="uni04D6" unicode="&#x4d6;" horiz-adv-x="544" 
d="M282 732c-102 0 -176 46 -182 122h89c8 -37 47 -50 93 -50s85 13 93 50h89c-6 -76 -80 -122 -182 -122zM75 0v700h404v-103h-289v-198h289v-103h-289v-193h289v-103h-404z" />
    <glyph glyph-name="uni04D8" unicode="&#x4d8;" horiz-adv-x="770" 
d="M374 -12c-191 0 -339 139 -339 343v71h576c-11 116 -74 210 -229 210c-132 0 -181 -55 -207 -121h-135c21 119 146 227 342 227c227 0 353 -161 353 -365c0 -209 -130 -365 -361 -365zM379 90c130 0 232 75 232 222h-455c0 -137 91 -222 223 -222z" />
    <glyph glyph-name="uni04DA" unicode="&#x4da;" horiz-adv-x="770" 
d="M254 738c-42 0 -76 34 -76 76c0 43 34 77 76 77c43 0 77 -34 77 -77c0 -42 -34 -76 -77 -76zM493 738c-42 0 -76 34 -76 76c0 43 34 77 76 77c43 0 77 -34 77 -77c0 -42 -34 -76 -77 -76zM374 -12c-191 0 -339 139 -339 343v71h576c-11 116 -74 210 -229 210
c-132 0 -181 -55 -207 -121h-135c21 119 146 227 342 227c227 0 353 -161 353 -365c0 -209 -130 -365 -361 -365zM379 90c130 0 232 75 232 222h-455c0 -137 91 -222 223 -222z" />
    <glyph glyph-name="uni04DC" unicode="&#x4dc;" horiz-adv-x="951" 
d="M355 738c-42 0 -76 34 -76 76c0 43 34 77 76 77c43 0 77 -34 77 -77c0 -42 -34 -76 -77 -76zM594 738c-42 0 -76 34 -76 76c0 43 34 77 76 77c43 0 77 -34 77 -77c0 -42 -34 -76 -77 -76zM642 357l299 -357h-144l-264 333v-333h-115v333l-264 -333h-144l299 357h-8
c-18 0 -39 10 -53 31l-102 159c-30 46 -48 54 -71 54h-33v104h59c59 0 90 -33 133 -100l104 -159c14 -24 39 -39 60 -39h20v293h115v-293h20c21 0 46 15 60 39l104 159c43 67 74 100 133 100h59v-104h-33c-23 0 -41 -8 -71 -54l-102 -159c-14 -21 -35 -31 -53 -31h-8z" />
    <glyph glyph-name="uni04DE" unicode="&#x4de;" horiz-adv-x="572" 
d="M163 738c-42 0 -76 34 -76 76c0 43 34 77 76 77c43 0 77 -34 77 -77c0 -42 -34 -76 -77 -76zM402 738c-42 0 -76 34 -76 76c0 43 34 77 76 77c43 0 77 -34 77 -77c0 -42 -34 -76 -77 -76zM155 224c0 -88 55 -138 136 -138c79 0 121 54 121 114c0 66 -31 107 -126 107h-52
v102h53c87 0 113 51 113 101c0 57 -43 104 -113 104s-127 -43 -127 -121h-115c0 133 99 224 238 224c125 0 232 -66 232 -197c0 -81 -49 -139 -111 -156c66 -13 123 -70 123 -163c0 -130 -92 -218 -234 -218c-146 0 -253 87 -253 241h115z" />
    <glyph glyph-name="uni04E0" unicode="&#x4e0;" horiz-adv-x="575" 
d="M292 -12c-145 0 -252 87 -252 241h115c0 -88 65 -138 139 -138c76 0 117 57 117 119c0 79 -32 127 -131 127h-94l172 260h-259v103h446l-197 -284c101 -9 178 -89 178 -200c0 -133 -102 -228 -234 -228z" />
    <glyph glyph-name="uni04E2" unicode="&#x4e2;" horiz-adv-x="668" 
d="M140 744v86h390v-86h-390zM478 484l-288 -436v-48h-115v700h115v-484l288 436v48h115v-700h-115v484z" />
    <glyph glyph-name="uni04E4" unicode="&#x4e4;" horiz-adv-x="668" 
d="M215 718c-42 0 -76 34 -76 76c0 43 34 77 76 77c43 0 77 -34 77 -77c0 -42 -34 -76 -77 -76zM454 718c-42 0 -76 34 -76 76c0 43 34 77 76 77c43 0 77 -34 77 -77c0 -42 -34 -76 -77 -76zM478 484l-288 -436v-48h-115v700h115v-484l288 436v48h115v-700h-115v484z" />
    <glyph glyph-name="uni04E6" unicode="&#x4e6;" horiz-adv-x="794" 
d="M277 738c-42 0 -76 34 -76 76c0 43 34 77 76 77c43 0 77 -34 77 -77c0 -42 -34 -76 -77 -76zM516 738c-42 0 -76 34 -76 76c0 43 34 77 76 77c43 0 77 -34 77 -77c0 -42 -34 -76 -77 -76zM397 -17c-227 0 -362 167 -362 367s135 367 362 367s362 -167 362 -367
s-135 -367 -362 -367zM397 86c155 0 242 119 241 264c1 145 -86 264 -241 264s-242 -119 -241 -264c-1 -145 86 -264 241 -264z" />
    <glyph glyph-name="uni04E8" unicode="&#x4e8;" horiz-adv-x="794" 
d="M397 717c227 0 362 -167 362 -367s-135 -367 -362 -367s-362 167 -362 367s135 367 362 367zM397 614c-142 0 -226 -99 -239 -227h478c-13 128 -97 227 -239 227zM397 86c142 0 227 100 239 229h-478c12 -129 97 -229 239 -229z" />
    <glyph glyph-name="uni04EA" unicode="&#x4ea;" horiz-adv-x="794" 
d="M277 738c-42 0 -76 34 -76 76c0 43 34 77 76 77c43 0 77 -34 77 -77c0 -42 -34 -76 -77 -76zM516 738c-42 0 -76 34 -76 76c0 43 34 77 76 77c43 0 77 -34 77 -77c0 -42 -34 -76 -77 -76zM397 717c227 0 362 -167 362 -367s-135 -367 -362 -367s-362 167 -362 367
s135 367 362 367zM397 614c-142 0 -226 -99 -239 -227h478c-13 128 -97 227 -239 227zM397 86c142 0 227 100 239 229h-478c12 -129 97 -229 239 -229z" />
    <glyph glyph-name="uni04EC" unicode="&#x4ec;" horiz-adv-x="727" 
d="M220 738c-42 0 -76 34 -76 76c0 43 34 77 76 77c43 0 77 -34 77 -77c0 -42 -34 -76 -77 -76zM459 738c-42 0 -76 34 -76 76c0 43 34 77 76 77c43 0 77 -34 77 -77c0 -42 -34 -76 -77 -76zM344 717c207 0 348 -145 348 -367s-141 -367 -348 -367c-173 0 -292 101 -313 242
h125c13 -81 85 -139 188 -139c122 0 206 80 224 212h-314v104h314c-18 132 -102 212 -224 212c-102 0 -174 -57 -187 -137h-126c24 148 149 240 313 240z" />
    <glyph glyph-name="uni04EE" unicode="&#x4ee;" horiz-adv-x="561" 
d="M487 850v-86h-390v86h390zM455 700h126l-347 -700h-126l139 281l-262 419h133l188 -301z" />
    <glyph glyph-name="uni04F0" unicode="&#x4f0;" horiz-adv-x="561" 
d="M172 738c-42 0 -76 34 -76 76c0 43 34 77 76 77c43 0 77 -34 77 -77c0 -42 -34 -76 -77 -76zM411 738c-42 0 -76 34 -76 76c0 43 34 77 76 77c43 0 77 -34 77 -77c0 -42 -34 -76 -77 -76zM455 700h126l-347 -700h-126l139 281l-262 419h133l188 -301z" />
    <glyph glyph-name="uni04F2" unicode="&#x4f2;" horiz-adv-x="561" 
d="M373 854l-163 -119l-59 25l124 132zM382 734l-58 26l124 132l97 -40zM455 700h126l-347 -700h-126l139 281l-262 419h133l188 -301z" />
    <glyph glyph-name="uni04F4" unicode="&#x4f4;" horiz-adv-x="583" 
d="M150 738c-42 0 -76 34 -76 76c0 43 34 77 76 77c43 0 77 -34 77 -77c0 -42 -34 -76 -77 -76zM389 738c-42 0 -76 34 -76 76c0 43 34 77 76 77c43 0 77 -34 77 -77c0 -42 -34 -76 -77 -76zM393 0v242c-47 -27 -96 -32 -143 -32c-132 0 -210 98 -210 215v275h115v-245
c0 -99 50 -142 127 -142c37 0 74 0 111 31v356h115v-700h-115z" />
    <glyph glyph-name="uni04F6" unicode="&#x4f6;" horiz-adv-x="484" 
d="M479 592h-289v-489h54v-223h-109v120h-60v700h404v-108z" />
    <glyph glyph-name="uni04F8" unicode="&#x4f8;" horiz-adv-x="789" 
d="M285 738c-42 0 -76 34 -76 76c0 43 34 77 76 77c43 0 77 -34 77 -77c0 -42 -34 -76 -77 -76zM524 738c-42 0 -76 34 -76 76c0 43 34 77 76 77c43 0 77 -34 77 -77c0 -42 -34 -76 -77 -76zM75 0v700h115v-294h150c124 0 205 -93 205 -203s-81 -203 -205 -203h-265zM599 0
v700h115v-700h-115zM190 102h150c54 0 90 46 90 101s-36 101 -90 101h-150v-202z" />
    <glyph glyph-name="uni04FC" unicode="&#x4fc;" horiz-adv-x="616" 
d="M436 -212c-30 0 -52 4 -66 10v102c10 -2 32 -4 48 -4c45 0 60 16 60 50c0 42 -22 76 -63 139l-107 170l-163 -255h-130l228 350l-228 350h130l163 -256l163 256h130l-228 -350l134 -206c71 -109 86 -152 86 -206c0 -105 -56 -150 -157 -150z" />
    <glyph glyph-name="uni0510" unicode="&#x510;" horiz-adv-x="572" 
d="M417 224h115c0 -154 -107 -241 -253 -241c-142 0 -234 88 -234 218c0 93 57 150 123 163c-62 17 -111 75 -111 156c0 131 107 197 232 197c139 0 238 -91 238 -224h-115c0 78 -57 121 -127 121s-113 -47 -113 -104c0 -50 26 -101 113 -101h53v-102h-52
c-95 0 -126 -41 -126 -107c0 -60 42 -114 121 -114c81 0 136 50 136 138z" />
    <glyph glyph-name="uni0512" unicode="&#x512;" horiz-adv-x="672" 
d="M143 700h454v-776c0 -91 -56 -140 -156 -140c-32 0 -53 4 -67 10v102c10 -2 31 -4 49 -4c41 0 59 16 59 69v638h-224v-326c0 -200 -78 -281 -196 -281h-42v108h24c61 0 99 40 99 176v424z" />
    <glyph glyph-name="uni051C" unicode="&#x51c;" horiz-adv-x="973" 
d="M242 0l-242 700h121l166 -509l157 509h85l157 -509l166 509h121l-242 -700h-83l-161 499l-162 -499h-83z" />
    <glyph glyph-name="uni048C" unicode="&#x48c;" horiz-adv-x="575" 
d="M340 406c124 0 205 -93 205 -203s-81 -203 -205 -203h-265v529h-40v87h40v84h115v-84h173v-87h-173v-123h150zM340 102c54 0 90 46 90 101s-36 101 -90 101h-150v-202h150z" />
    <glyph glyph-name="uni048E" unicode="&#x48e;" horiz-adv-x="583" 
d="M573 455c0 -89 -39 -162 -102 -205l51 -50l-51 -51l-70 70c-21 -6 -44 -9 -68 -9h-143v-210h-115v700h258c140 0 240 -102 240 -245zM190 313h116l-48 48l51 51l82 -82c41 23 67 69 67 125c0 82 -56 142 -132 142h-136v-284z" />
    <glyph glyph-name="uni0414.loclBGR" horiz-adv-x="644" 
d="M15 -120v223h60l206 597h82l206 -597h60v-223h-115v120h-384v-120h-115zM193 103h258l-129 406z" />
    <glyph glyph-name="uni041B.loclBGR" horiz-adv-x="596" 
d="M136 0h-121l242 700h82l242 -700h-121l-162 509z" />
    <glyph glyph-name="uni0424.loclBGR" horiz-adv-x="705" 
d="M448 609c150 0 247 -118 247 -259s-97 -259 -247 -259h-38v-91h-115v91h-38c-150 0 -247 118 -247 259s97 259 247 259h38v91h115v-91h38zM125 350c0 -86 52 -156 132 -156h38v312h-38c-80 0 -132 -70 -132 -156zM448 194c80 0 132 70 132 156s-52 156 -132 156h-38v-312
h38z" />
    <glyph glyph-name="uni0430" unicode="&#x430;" horiz-adv-x="592" 
d="M264 -12c-150 0 -229 108 -229 245s87 245 232 245c62 0 118 -28 146 -75v63h109v-466h-109v63c-28 -47 -92 -75 -149 -75zM280 85c93 0 138 68 138 148s-45 148 -138 148c-85 0 -136 -63 -136 -148s51 -148 136 -148z" />
    <glyph glyph-name="uni0431" unicode="&#x431;" horiz-adv-x="577" 
d="M303 -13c-178 0 -258 145 -258 331c0 257 113 382 354 382h95v-105h-124c-147 0 -210 -75 -222 -228c26 74 103 111 170 111c145 0 224 -113 224 -245c0 -133 -97 -246 -239 -246zM297 84c87 0 136 68 136 148s-49 148 -136 148c-90 0 -138 -63 -138 -148
s48 -148 138 -148z" />
    <glyph glyph-name="uni0432" unicode="&#x432;" horiz-adv-x="487" 
d="M70 466h214c133 0 154 -76 154 -123c0 -55 -50 -98 -108 -102c60 -2 117 -40 117 -112c0 -46 -29 -129 -170 -129h-207v466zM275 275c33 0 54 26 54 57c0 32 -21 58 -54 58h-99v-115h99zM176 199v-123h103c34 0 59 28 59 61s-25 62 -59 62h-103z" />
    <glyph glyph-name="uni0433" unicode="&#x433;" horiz-adv-x="376" 
d="M356 466v-101h-177v-365h-109v466h286z" />
    <glyph glyph-name="uni0453" unicode="&#x453;" horiz-adv-x="376" 
d="M120 502l-35 84l282 107l35 -81zM356 466v-101h-177v-365h-109v466h286z" />
    <glyph glyph-name="uni0491" unicode="&#x491;" horiz-adv-x="376" 
d="M241 557h115v-192h-177v-365h-109v466h171v91z" />
    <glyph glyph-name="uni0434" unicode="&#x434;" horiz-adv-x="573" 
d="M484 103h54v-223h-109v120h-294v-120h-115v223h48c25 16 39 52 39 104v259h377v-363zM184 90h191v286h-159v-164c0 -50 -12 -90 -32 -122z" />
    <glyph glyph-name="uni0435" unicode="&#x435;" horiz-adv-x="527" 
d="M492 257c0 -21 -1 -32 -3 -60h-346c3 -74 51 -114 130 -114c54 0 86 17 104 53h110c-14 -87 -102 -148 -214 -148c-147 0 -238 94 -238 245c0 149 92 245 234 245c133 0 223 -90 223 -221zM143 280h242c-1 72 -43 112 -118 112c-77 0 -123 -46 -124 -112z" />
    <glyph glyph-name="uni0451" unicode="&#x451;" horiz-adv-x="527" 
d="M167 532c-42 0 -76 34 -76 76c0 43 34 77 76 77c43 0 77 -34 77 -77c0 -42 -34 -76 -77 -76zM370 532c-42 0 -76 34 -76 76c0 43 34 77 76 77c43 0 77 -34 77 -77c0 -42 -34 -76 -77 -76zM492 257c0 -21 -1 -32 -3 -60h-346c3 -74 51 -114 130 -114c54 0 86 17 104 53
h110c-14 -87 -102 -148 -214 -148c-147 0 -238 94 -238 245c0 149 92 245 234 245c133 0 223 -90 223 -221zM143 280h242c-1 72 -43 112 -118 112c-77 0 -123 -46 -124 -112z" />
    <glyph glyph-name="uni0436" unicode="&#x436;" horiz-adv-x="793" 
d="M758 0h-134l-173 213v-213h-109v213l-173 -213h-134l205 246h-7c-27 0 -43 5 -72 46l-38 53c-18 25 -32 28 -52 28h-16v98h37c49 0 72 -12 105 -57l82 -112c18 -24 33 -31 53 -31h10v195h109v-195h10c20 0 35 7 53 31l82 112c33 45 56 57 105 57h37v-98h-16
c-20 0 -34 -3 -52 -28l-38 -53c-29 -41 -45 -46 -72 -46h-7z" />
    <glyph glyph-name="uni0437" unicode="&#x437;" horiz-adv-x="479" 
d="M148 144c0 -40 34 -67 99 -67c57 0 86 20 86 62c0 31 -25 55 -75 55h-69v80h63c40 0 70 21 70 59c0 32 -31 59 -81 59c-62 0 -86 -30 -86 -67h-108c0 91 76 153 193 153c115 0 188 -54 188 -129c0 -65 -42 -100 -103 -108c63 -7 114 -46 114 -115
c0 -90 -93 -138 -200 -138c-126 0 -199 62 -199 156h108z" />
    <glyph glyph-name="uni0438" unicode="&#x438;" horiz-adv-x="565" 
d="M386 300l-207 -261v-39h-109v466h109v-305l207 263v42h109v-466h-109v300z" />
    <glyph glyph-name="uni0439" unicode="&#x439;" horiz-adv-x="565" 
d="M278 495c-107 0 -176 56 -182 147h92c3 -47 39 -68 90 -68s87 21 90 68h92c-6 -91 -75 -147 -182 -147zM386 300l-207 -261v-39h-109v466h109v-305l207 263v42h109v-466h-109v300z" />
    <glyph glyph-name="uni048B" unicode="&#x48b;" horiz-adv-x="584" 
d="M278 495c-107 0 -176 56 -182 147h92c3 -47 39 -68 90 -68s87 21 90 68h92c-6 -91 -75 -147 -182 -147zM495 103h54v-223h-109v120h-54v300l-207 -261v-39h-109v466h109v-305l207 263v42h109v-363z" />
    <glyph glyph-name="uni043A" unicode="&#x43a;" horiz-adv-x="521" 
d="M486 0h-134l-173 213v-213h-109v466h109v-195h10c20 0 35 7 53 31l82 112c33 45 56 57 105 57h37v-98h-16c-20 0 -34 -3 -52 -28l-38 -53c-29 -41 -45 -46 -72 -46h-7z" />
    <glyph glyph-name="uni045C" unicode="&#x45c;" horiz-adv-x="521" 
d="M426 612l-282 -110l-35 84l282 107zM486 0h-134l-173 213v-213h-109v466h109v-195h10c20 0 35 7 53 31l82 112c33 45 56 57 105 57h37v-98h-16c-20 0 -34 -3 -52 -28l-38 -53c-29 -41 -45 -46 -72 -46h-7z" />
    <glyph glyph-name="uni043B" unicode="&#x43b;" horiz-adv-x="556" 
d="M30 98h18c45 0 73 29 73 101v267h365v-466h-109v365h-147v-161c0 -128 -58 -209 -160 -209h-40v103z" />
    <glyph glyph-name="uni043C" unicode="&#x43c;" horiz-adv-x="722" 
d="M70 0v466h163l128 -319l128 319h163v-466h-104v359l-150 -359h-74l-150 359v-359h-104z" />
    <glyph glyph-name="uni043D" unicode="&#x43d;" horiz-adv-x="571" 
d="M70 0v466h109v-184h213v184h109v-466h-109v191h-213v-191h-109z" />
    <glyph glyph-name="uni043E" unicode="&#x43e;" horiz-adv-x="562" 
d="M281 -12c-154 0 -246 108 -246 245s92 245 246 245s246 -108 246 -245s-92 -245 -246 -245zM281 85c88 0 137 63 137 148s-49 148 -137 148s-137 -63 -137 -148s49 -148 137 -148z" />
    <glyph glyph-name="uni043F" unicode="&#x43f;" horiz-adv-x="561" 
d="M491 0h-109v375h-203v-375h-109v466h421v-466z" />
    <glyph glyph-name="uni0440" unicode="&#x440;" horiz-adv-x="592" 
d="M335 478c133 0 222 -98 222 -245c0 -144 -94 -245 -229 -245c-62 0 -121 30 -149 75v-273h-109v676h109v-63c28 45 90 75 156 75zM312 85c80 0 136 61 136 148s-56 148 -136 148c-82 0 -138 -60 -138 -148s56 -148 138 -148z" />
    <glyph glyph-name="uni0441" unicode="&#x441;" horiz-adv-x="523" 
d="M267 -12c-145 0 -232 100 -232 245s87 245 232 245c130 0 211 -71 221 -178h-109c-12 53 -46 81 -112 81c-77 0 -123 -53 -123 -148s46 -148 123 -148c66 0 100 27 112 76h109c-10 -104 -91 -173 -221 -173z" />
    <glyph glyph-name="uni0442" unicode="&#x442;" horiz-adv-x="437" 
d="M407 466v-101h-135v-365h-109v365h-133v101h377z" />
    <glyph glyph-name="uni0443" unicode="&#x443;" horiz-adv-x="566" 
d="M387 466h109v-468c0 -73 -22 -128 -61 -166c-38 -35 -92 -54 -158 -54c-69 0 -123 17 -160 48c-33 29 -51 70 -52 121h110c5 -51 30 -79 100 -79c65 0 112 39 112 138v59c-29 -50 -81 -77 -150 -77c-115 0 -172 82 -172 194v284h109v-261c0 -69 23 -121 101 -121
c76 0 112 61 112 141v241z" />
    <glyph glyph-name="uni045E" unicode="&#x45e;" horiz-adv-x="566" 
d="M274 505c-107 0 -176 56 -182 147h92c3 -47 39 -68 90 -68s87 21 90 68h92c-6 -91 -75 -147 -182 -147zM387 466h109v-468c0 -73 -22 -128 -61 -166c-38 -35 -92 -54 -158 -54c-69 0 -123 17 -160 48c-33 29 -51 70 -52 121h110c5 -51 30 -79 100 -79
c65 0 112 39 112 138v59c-29 -50 -81 -77 -150 -77c-115 0 -172 82 -172 194v284h109v-261c0 -69 23 -121 101 -121c76 0 112 61 112 141v241z" />
    <glyph glyph-name="uni0444" unicode="&#x444;" horiz-adv-x="638" 
d="M603 233c0 -124 -94 -239 -229 -244v-199h-110v199c-135 5 -229 120 -229 244c0 123 94 239 229 244v223h110v-223c135 -5 229 -121 229 -244zM144 233c0 -78 44 -152 127 -153v306c-83 -1 -127 -74 -127 -153zM367 80c83 1 127 75 127 153c0 79 -44 152 -127 153v-306z
" />
    <glyph glyph-name="uni0445" unicode="&#x445;" horiz-adv-x="490" 
d="M10 0l172 235l-169 231h135l97 -151l97 151h135l-169 -231l172 -235h-135l-100 156l-100 -156h-135z" />
    <glyph glyph-name="uni0447" unicode="&#x447;" horiz-adv-x="509" 
d="M330 0v162c-37 -21 -80 -28 -116 -28c-116 0 -174 52 -174 157v175h109v-161c0 -54 30 -80 90 -80c30 0 61 0 91 30v211h109v-466h-109z" />
    <glyph glyph-name="uni0446" unicode="&#x446;" horiz-adv-x="575" 
d="M486 103h54v-223h-109v120h-361v466h109v-375h198v375h109v-363z" />
    <glyph glyph-name="uni0448" unicode="&#x448;" horiz-adv-x="777" 
d="M443 91h155v375h109v-466h-637v466h109v-375h155v375h109v-375z" />
    <glyph glyph-name="uni0449" unicode="&#x449;" horiz-adv-x="796" 
d="M707 103h54v-223h-109v120h-582v466h109v-375h155v375h109v-375h155v375h109v-363z" />
    <glyph glyph-name="uni045F" unicode="&#x45f;" horiz-adv-x="556" 
d="M486 466v-466h-150v-91h-109v91h-157v466h109v-375h198v375h109z" />
    <glyph glyph-name="uni044C" unicode="&#x44c;" horiz-adv-x="486" 
d="M70 466h109v-150h107c110 0 175 -71 175 -158c0 -85 -72 -158 -175 -158h-216v466zM179 230v-144h94c50 0 74 30 74 72c0 43 -24 72 -74 72h-94z" />
    <glyph glyph-name="uni044A" unicode="&#x44a;" horiz-adv-x="541" 
d="M341 316c110 0 175 -71 175 -158c0 -85 -72 -158 -175 -158h-216v368h-105v98h214v-150h107zM328 86c50 0 74 30 74 72c0 43 -24 72 -74 72h-94v-144h94z" />
    <glyph glyph-name="uni044B" unicode="&#x44b;" horiz-adv-x="695" 
d="M70 466h109v-150h107c110 0 175 -71 175 -158c0 -85 -72 -158 -175 -158h-216v466zM516 0v466h109v-466h-109zM179 230v-144h94c50 0 74 30 74 72c0 43 -24 72 -74 72h-94z" />
    <glyph glyph-name="uni0459" unicode="&#x459;" horiz-adv-x="794" 
d="M594 316c110 0 175 -71 175 -158c0 -85 -72 -158 -175 -158h-217v365h-147v-161c0 -128 -58 -209 -160 -209h-40v103h18c45 0 73 29 73 101v267h366v-150h107zM581 86c50 0 74 30 74 72c0 43 -24 72 -74 72h-94v-144h94z" />
    <glyph glyph-name="uni045A" unicode="&#x45a;" horiz-adv-x="808" 
d="M608 316c110 0 175 -71 175 -158c0 -85 -72 -158 -175 -158h-216v191h-213v-191h-109v466h109v-184h213v184h109v-150h107zM595 86c50 0 74 30 74 72c0 43 -24 72 -74 72h-94v-144h94z" />
    <glyph glyph-name="uni0455" unicode="&#x455;" horiz-adv-x="457" 
d="M233 -12c-120 0 -198 70 -198 155h109c0 -40 39 -68 95 -68c41 0 67 22 67 55c0 21 -8 42 -35 49l-120 33c-69 19 -101 67 -101 129c0 76 71 137 179 137c122 0 184 -62 184 -145h-107c0 39 -30 62 -81 62c-38 0 -67 -19 -67 -48c0 -26 16 -43 40 -50l111 -32
c63 -18 108 -65 108 -125c0 -89 -65 -152 -184 -152z" />
    <glyph glyph-name="uni0454" unicode="&#x454;" horiz-adv-x="534" 
d="M389 296c-8 49 -44 85 -119 85c-81 0 -119 -44 -124 -108h181v-81h-181c5 -65 43 -107 124 -107c76 0 112 31 120 75h109c-2 -96 -89 -172 -224 -172c-165 0 -240 118 -240 245c0 126 75 245 240 245c134 0 221 -81 223 -182h-109z" />
    <glyph glyph-name="uni044D" unicode="&#x44d;" horiz-adv-x="534" 
d="M145 296h-109c2 101 89 182 223 182c165 0 240 -119 240 -245c0 -127 -75 -245 -240 -245c-135 0 -222 76 -224 172h109c8 -44 44 -75 120 -75c81 0 119 42 124 107h-181v81h181c-5 64 -43 108 -124 108c-75 0 -111 -36 -119 -85z" />
    <glyph glyph-name="uni0456" unicode="&#x456;" horiz-adv-x="249" 
d="M125 533c-48 0 -81 36 -81 81s33 81 81 81s81 -36 81 -81s-33 -81 -81 -81zM70 0v466h109v-466h-109z" />
    <glyph glyph-name="uni0457" unicode="&#x457;" horiz-adv-x="249" 
d="M54 542c-35 0 -63 29 -63 63c0 36 28 64 63 64s64 -28 64 -64c0 -34 -29 -63 -64 -63zM195 542c-34 0 -63 29 -63 63c0 36 29 64 63 64c36 0 64 -28 64 -64c0 -34 -28 -63 -64 -63zM70 0v466h109v-466h-109z" />
    <glyph glyph-name="uni0458" unicode="&#x458;" horiz-adv-x="252" 
d="M128 533c-48 0 -81 36 -81 81s33 81 81 81s81 -36 81 -81s-33 -81 -81 -81zM54 -216c-31 0 -51 3 -64 10v97c14 -3 26 -4 41 -4c29 0 42 15 42 48v531h109v-563c0 -77 -45 -119 -128 -119z" />
    <glyph glyph-name="uni045B" unicode="&#x45b;" horiz-adv-x="566" 
d="M331 478c112 0 170 -63 170 -185v-293h-109v243c0 99 -26 142 -102 142c-71 0 -111 -47 -111 -129v-256h-109v541h-37v87h37v72h109v-72h182v-87h-182v-140c29 50 83 77 152 77z" />
    <glyph glyph-name="uni044E" unicode="&#x44e;" horiz-adv-x="763" 
d="M482 478c154 0 246 -108 246 -245s-92 -245 -246 -245c-137 0 -225 85 -243 200h-60v-188h-109v466h109v-187h61c18 114 106 199 242 199zM482 85c88 0 137 63 137 148s-49 148 -137 148s-137 -63 -137 -148s49 -148 137 -148z" />
    <glyph glyph-name="uni044F" unicode="&#x44f;" horiz-adv-x="531" 
d="M48 0l101 155c-64 22 -104 84 -104 150c0 88 65 161 165 161h251v-466h-107v143h-94l-86 -143h-126zM234 233h120v145h-120c-48 0 -78 -34 -78 -73s30 -72 78 -72z" />
    <glyph glyph-name="uni0452" unicode="&#x452;" horiz-adv-x="566" 
d="M331 478c112 0 170 -63 170 -185v-390c0 -77 -45 -119 -128 -119c-31 0 -51 3 -64 10v97c14 -3 26 -4 41 -4c29 0 42 15 42 48v308c0 99 -26 142 -102 142c-71 0 -111 -47 -111 -129v-256h-109v541h-37v87h37v72h109v-72h182v-87h-182v-140c29 50 83 77 152 77z" />
    <glyph glyph-name="uni0463" unicode="&#x463;" horiz-adv-x="486" 
d="M286 316c110 0 175 -71 175 -158c0 -85 -72 -158 -175 -158h-216v421h-53v87h53v192h109v-192h96v-87h-96v-105h107zM273 86c50 0 74 30 74 72c0 43 -24 72 -74 72h-94v-144h94z" />
    <glyph glyph-name="uni0473" unicode="&#x473;" horiz-adv-x="562" 
d="M281 478c154 0 246 -108 246 -245s-92 -245 -246 -245s-246 108 -246 245s92 245 246 245zM281 381c-75 0 -122 -46 -134 -112h268c-12 66 -59 112 -134 112zM281 85c75 0 122 46 134 112h-268c12 -66 59 -112 134 -112z" />
    <glyph glyph-name="uni0475" unicode="&#x475;" horiz-adv-x="489" 
d="M281 0h-73l-208 466h117l128 -320l87 217c27 74 56 108 122 108h35v-103h-14c-24 0 -36 -8 -53 -54z" />
    <glyph glyph-name="uni0493" unicode="&#x493;" horiz-adv-x="376" 
d="M356 365h-177v-77h109v-87h-109v-201h-109v201h-40v87h40v178h286v-101z" />
    <glyph glyph-name="uni0495" unicode="&#x495;" horiz-adv-x="525" 
d="M311 279c109 0 194 -79 194 -216c0 -148 -81 -225 -230 -225c-6 0 -29 1 -44 4v98c7 -1 30 -3 31 -3c87 0 134 39 134 124c0 83 -49 121 -108 121c-37 0 -72 -7 -109 -24v-158h-109v466h286v-101h-177v-107c41 14 88 21 132 21z" />
    <glyph glyph-name="uni0497" unicode="&#x497;" horiz-adv-x="793" 
d="M758 0h-26v-120h-109v121l-172 212v-213h-109v213l-173 -213h-134l205 246h-7c-27 0 -43 5 -72 46l-38 53c-18 25 -32 28 -52 28h-16v98h37c49 0 72 -12 105 -57l82 -112c18 -24 33 -31 53 -31h10v195h109v-195h10c20 0 35 7 53 31l82 112c33 45 56 57 105 57h37v-98h-16
c-20 0 -34 -3 -52 -28l-38 -53c-29 -41 -45 -46 -72 -46h-7l119 -143h60v-72z" />
    <glyph glyph-name="uni0499" unicode="&#x499;" horiz-adv-x="479" 
d="M439 126c0 -83 -80 -131 -177 -137v-48c7 6 24 11 41 11c39 0 76 -26 76 -79c0 -49 -31 -89 -93 -89c-50 0 -85 25 -90 74h55c1 -18 17 -28 34 -28c21 0 36 14 36 42c0 27 -14 40 -35 40c-14 0 -25 -6 -32 -16h-49v94c-105 10 -165 69 -165 154h108c0 -40 34 -67 99 -67
c57 0 86 20 86 62c0 31 -25 55 -75 55h-69v80h63c40 0 70 21 70 59c0 32 -31 59 -81 59c-62 0 -86 -30 -86 -67h-108c0 91 76 153 193 153c115 0 188 -54 188 -129c0 -65 -42 -100 -103 -108c63 -7 114 -46 114 -115z" />
    <glyph glyph-name="uni049B" unicode="&#x49b;" horiz-adv-x="534" 
d="M400 103h99v-223h-109v120h-38l-173 213v-213h-109v466h109v-195h10c20 0 35 7 53 31l82 112c33 45 56 57 105 57h37v-98h-16c-20 0 -34 -3 -52 -28l-38 -53c-29 -41 -45 -46 -72 -46h-7z" />
    <glyph glyph-name="uni049D" unicode="&#x49d;" horiz-adv-x="546" 
d="M511 0h-134l-150 192v-83h-25v105h-23v-214h-109v466h109v-195h23v105h25v-104c14 3 26 11 40 30l82 112c33 45 56 57 105 57h37v-98h-16c-20 0 -34 -3 -52 -28l-38 -53c-29 -41 -45 -46 -72 -46h-7z" />
    <glyph glyph-name="uni049F" unicode="&#x49f;" horiz-adv-x="521" 
d="M486 0h-134l-173 213v-213h-109v354h-37v62h37v50h109v-50h69v-62h-69v-83h10c20 0 35 7 53 31l82 112c33 45 56 57 105 57h37v-98h-16c-20 0 -34 -3 -52 -28l-38 -53c-29 -41 -45 -46 -72 -46h-7z" />
    <glyph glyph-name="uni04A1" unicode="&#x4a1;" horiz-adv-x="576" 
d="M541 0h-134l-173 213v-213h-109v368h-105v98h214v-195h10c20 0 35 7 53 31l82 112c33 45 56 57 105 57h37v-98h-16c-20 0 -34 -3 -52 -28l-38 -53c-29 -41 -45 -46 -72 -46h-7z" />
    <glyph glyph-name="uni04A3" unicode="&#x4a3;" horiz-adv-x="590" 
d="M501 103h54v-223h-109v120h-54v191h-213v-191h-109v466h109v-184h213v184h109v-363z" />
    <glyph glyph-name="uni04A5" unicode="&#x4a5;" horiz-adv-x="698" 
d="M678 466v-101h-177v-365h-109v191h-213v-191h-109v466h109v-184h213v184h286z" />
    <glyph glyph-name="uni04A7" unicode="&#x4a7;" horiz-adv-x="837" 
d="M623 279c109 0 194 -79 194 -216c0 -148 -81 -225 -230 -225c-6 0 -29 1 -44 4v98c7 -1 30 -3 31 -3c87 0 134 39 134 124c0 83 -49 121 -108 121c-37 0 -72 -7 -109 -24v-158h-109v375h-203v-375h-109v466h421v-208c41 14 88 21 132 21z" />
    <glyph glyph-name="uni0525" unicode="&#x525;" horiz-adv-x="580" 
d="M491 103h54v-223h-109v120h-54v375h-203v-375h-109v466h421v-363z" />
    <glyph glyph-name="uni04A9" unicode="&#x4a9;" horiz-adv-x="587" 
d="M484 61c34 2 61 9 88 20v-76c-33 -13 -64 -20 -103 -20c-34 0 -67 8 -90 21c-27 -15 -63 -21 -101 -21c-146 0 -243 85 -243 238c0 167 115 254 275 254c31 0 62 -2 93 -10v-92c-31 7 -62 9 -93 9c-91 0 -166 -44 -166 -161c0 -86 39 -145 122 -151
c-24 32 -37 71 -37 115c0 96 66 159 161 159c92 0 157 -51 157 -159c0 -50 -26 -94 -63 -126zM389 261c-40 0 -61 -30 -61 -72c0 -43 14 -81 45 -104c49 17 77 49 77 98c0 44 -17 78 -61 78z" />
    <glyph glyph-name="uni04AB" unicode="&#x4ab;" horiz-adv-x="523" 
d="M267 85c66 0 100 27 112 76h109c-9 -97 -80 -163 -195 -172v-48c7 6 24 11 41 11c39 0 76 -26 76 -79c0 -49 -31 -89 -93 -89c-50 0 -85 25 -90 74h55c1 -18 17 -28 34 -28c21 0 36 14 36 42c0 27 -14 40 -35 40c-14 0 -25 -6 -32 -16h-49v94c-126 13 -201 109 -201 243
c0 145 87 245 232 245c130 0 211 -71 221 -178h-109c-12 53 -46 81 -112 81c-77 0 -123 -53 -123 -148s46 -148 123 -148z" />
    <glyph glyph-name="uni04AD" unicode="&#x4ad;" horiz-adv-x="437" 
d="M407 365h-135v-262h54v-223h-109v120h-54v365h-133v101h377v-101z" />
    <glyph glyph-name="uni04AF" unicode="&#x4af;" horiz-adv-x="492" 
d="M492 466l-192 -443v-233h-109v235l-191 441h117l129 -320l129 320h117z" />
    <glyph glyph-name="uni04B1" unicode="&#x4b1;" horiz-adv-x="492" 
d="M300 23v-22h115v-87h-115v-124h-109v124h-113v87h113v24l-191 441h117l129 -320l129 320h117z" />
    <glyph glyph-name="uni04B3" unicode="&#x4b3;" horiz-adv-x="559" 
d="M430 103h94v-223h-109v120h-45l-100 156l-100 -156h-135l172 235l-169 231h135l97 -151l97 151h135l-169 -231z" />
    <glyph glyph-name="uni04B5" unicode="&#x4b5;" horiz-adv-x="648" 
d="M559 103h54v-223h-109v120h-361v365h-113v101h337v-101h-115v-274h198v375h109v-363z" />
    <glyph glyph-name="uni04B7" unicode="&#x4b7;" horiz-adv-x="528" 
d="M439 103h54v-223h-109v120h-54v162c-37 -21 -80 -28 -116 -28c-116 0 -174 52 -174 157v175h109v-161c0 -54 30 -80 90 -80c30 0 61 0 91 30v211h109v-363z" />
    <glyph glyph-name="uni04B9" unicode="&#x4b9;" horiz-adv-x="509" 
d="M330 466h109v-466h-109v162c-18 -10 -38 -17 -57 -22v-101h-46v95h-13c-116 0 -174 52 -174 157v175h109v-161c0 -50 26 -76 78 -80v113h46v-111c19 2 38 9 57 28v211z" />
    <glyph glyph-name="uni04BB" unicode="&#x4bb;" horiz-adv-x="566" 
d="M331 478c112 0 170 -63 170 -185v-293h-109v243c0 99 -26 142 -102 142c-71 0 -111 -47 -111 -129v-256h-109v700h109v-299c29 50 83 77 152 77z" />
    <glyph glyph-name="uni0527" unicode="&#x527;" horiz-adv-x="590" 
d="M501 103h54v-223h-109v120h-54v243c0 99 -26 142 -102 142c-71 0 -111 -47 -111 -129v-256h-109v700h109v-299c29 50 83 77 152 77c112 0 170 -63 170 -185v-190z" />
    <glyph glyph-name="uni04BD" unicode="&#x4bd;" horiz-adv-x="631" 
d="M596 257c0 -21 -1 -32 -3 -60h-346c3 -74 51 -114 130 -114c54 0 86 17 104 53h110c-14 -87 -102 -148 -214 -148c-135 0 -223 79 -236 209h-2c-80 0 -134 50 -134 125v49h93v-48c0 -28 17 -44 44 -44c17 122 104 199 231 199c133 0 223 -90 223 -221zM247 280h242
c-1 72 -43 112 -118 112c-77 0 -123 -46 -124 -112z" />
    <glyph glyph-name="uni04BF" unicode="&#x4bf;" horiz-adv-x="631" 
d="M596 257c0 -21 -1 -32 -3 -60h-346c3 -74 51 -114 130 -114c54 0 86 17 104 53h110c-12 -74 -78 -130 -167 -144c-41 -15 -55 -43 -55 -69c0 -31 24 -54 56 -54c16 0 32 3 51 12v-78c-21 -8 -46 -15 -81 -15c-76 0 -125 46 -125 102c0 37 21 72 64 101
c-110 15 -181 90 -193 206h-2c-80 0 -134 50 -134 125v49h93v-48c0 -28 17 -44 44 -44c17 122 104 199 231 199c133 0 223 -90 223 -221zM247 280h242c-1 72 -43 112 -118 112c-77 0 -123 -46 -124 -112z" />
    <glyph glyph-name="uni04CF" unicode="&#x4cf;" horiz-adv-x="249" 
d="M70 0v466h109v-466h-109z" />
    <glyph glyph-name="uni04C2" unicode="&#x4c2;" horiz-adv-x="793" 
d="M397 505c-107 0 -176 56 -182 147h92c3 -47 39 -68 90 -68s87 21 90 68h92c-6 -91 -75 -147 -182 -147zM758 0h-134l-173 213v-213h-109v213l-173 -213h-134l205 246h-7c-27 0 -43 5 -72 46l-38 53c-18 25 -32 28 -52 28h-16v98h37c49 0 72 -12 105 -57l82 -112
c18 -24 33 -31 53 -31h10v195h109v-195h10c20 0 35 7 53 31l82 112c33 45 56 57 105 57h37v-98h-16c-20 0 -34 -3 -52 -28l-38 -53c-29 -41 -45 -46 -72 -46h-7z" />
    <glyph glyph-name="uni04C4" unicode="&#x4c4;" horiz-adv-x="507" 
d="M339 266c84 -18 148 -86 148 -188c0 -146 -82 -223 -231 -223c-6 0 -29 1 -44 4v98c12 -2 24 -3 41 -3c75 0 125 38 125 122c0 77 -42 113 -118 113h-81v-189h-109v466h109v-195h10c20 0 35 7 53 31l82 112c33 45 56 57 105 57h37v-98h-16c-20 0 -34 -3 -52 -28l-38 -53
c-8 -11 -15 -19 -21 -26z" />
    <glyph glyph-name="uni04C6" unicode="&#x4c6;" horiz-adv-x="556" 
d="M486 103h62l-85 -223h-107l45 120h-24v365h-147v-161c0 -128 -58 -209 -160 -209h-40v103h18c45 0 73 29 73 101v267h365v-363z" />
    <glyph glyph-name="uni04C8" unicode="&#x4c8;" horiz-adv-x="571" 
d="M392 466h109v-563c0 -77 -45 -119 -128 -119c-31 0 -51 3 -64 10v97c14 -3 26 -4 41 -4c29 0 42 15 42 48v256h-213v-191h-109v466h109v-184h213v184z" />
    <glyph glyph-name="uni04CA" unicode="&#x4ca;" horiz-adv-x="571" 
d="M501 103h62l-85 -223h-107l45 120h-24v191h-213v-191h-109v466h109v-184h213v184h109v-363z" />
    <glyph glyph-name="uni04CC" unicode="&#x4cc;" horiz-adv-x="509" 
d="M439 466v-466h-52v-120h-115v223h58v59c-37 -21 -80 -28 -116 -28c-116 0 -174 52 -174 157v175h109v-161c0 -54 30 -80 90 -80c30 0 61 0 91 30v211h109z" />
    <glyph glyph-name="uni04CE" unicode="&#x4ce;" horiz-adv-x="722" 
d="M652 103h62l-85 -223h-107l45 120h-19v359l-150 -359h-74l-150 359v-359h-104v466h163l128 -319l128 319h163v-363z" />
    <glyph glyph-name="uni04D1" unicode="&#x4d1;" horiz-adv-x="592" 
d="M282 505c-107 0 -176 56 -182 147h92c3 -47 39 -68 90 -68s87 21 90 68h92c-6 -91 -75 -147 -182 -147zM264 -12c-150 0 -229 108 -229 245s87 245 232 245c62 0 118 -28 146 -75v63h109v-466h-109v63c-28 -47 -92 -75 -149 -75zM280 85c93 0 138 68 138 148
s-45 148 -138 148c-85 0 -136 -63 -136 -148s51 -148 136 -148z" />
    <glyph glyph-name="uni04D3" unicode="&#x4d3;" horiz-adv-x="592" 
d="M180 532c-42 0 -76 34 -76 76c0 43 34 77 76 77c43 0 77 -34 77 -77c0 -42 -34 -76 -77 -76zM383 532c-42 0 -76 34 -76 76c0 43 34 77 76 77c43 0 77 -34 77 -77c0 -42 -34 -76 -77 -76zM264 -12c-150 0 -229 108 -229 245s87 245 232 245c62 0 118 -28 146 -75v63h109
v-466h-109v63c-28 -47 -92 -75 -149 -75zM280 85c93 0 138 68 138 148s-45 148 -138 148c-85 0 -136 -63 -136 -148s51 -148 136 -148z" />
    <glyph glyph-name="uni04D5" unicode="&#x4d5;" horiz-adv-x="863" 
d="M828 255c0 -21 -1 -32 -3 -60h-346c3 -74 51 -114 130 -114c54 0 86 19 104 61h110c-14 -92 -102 -156 -214 -156c-78 0 -144 32 -185 88c-38 -51 -100 -86 -196 -86c-111 0 -188 54 -188 138c0 44 13 87 56 116c40 28 85 34 198 34h85v41c0 37 -24 74 -105 74
c-77 0 -105 -30 -108 -76h-109c7 99 94 163 219 163c85 0 139 -27 169 -66c41 41 97 64 160 64c133 0 223 -90 223 -221zM479 277h242c0 72 -43 115 -116 115c-74 0 -125 -48 -126 -115zM379 179v15v1h-121c-81 0 -108 -27 -108 -60c0 -44 39 -61 96 -61
c59 0 133 26 133 105z" />
    <glyph glyph-name="uni04D7" unicode="&#x4d7;" horiz-adv-x="527" 
d="M269 505c-107 0 -176 56 -182 147h92c3 -47 39 -68 90 -68s87 21 90 68h92c-6 -91 -75 -147 -182 -147zM492 257c0 -21 -1 -32 -3 -60h-346c3 -74 51 -114 130 -114c54 0 86 17 104 53h110c-14 -87 -102 -148 -214 -148c-147 0 -238 94 -238 245c0 149 92 245 234 245
c133 0 223 -90 223 -221zM143 280h242c-1 72 -43 112 -118 112c-77 0 -123 -46 -124 -112z" />
    <glyph glyph-name="uni04D9" unicode="&#x4d9;" horiz-adv-x="527" 
d="M254 478c147 0 238 -94 238 -245c0 -149 -92 -245 -234 -245c-133 0 -223 90 -223 221c0 21 1 32 3 60h346c-3 74 -51 114 -130 114c-54 0 -86 -17 -104 -53h-110c14 87 102 148 214 148zM260 74c77 0 123 46 124 112h-242c1 -72 43 -112 118 -112z" />
    <glyph glyph-name="uni04DB" unicode="&#x4db;" horiz-adv-x="527" 
d="M152 532c-42 0 -76 34 -76 76c0 43 34 77 76 77c43 0 77 -34 77 -77c0 -42 -34 -76 -77 -76zM355 532c-42 0 -76 34 -76 76c0 43 34 77 76 77c43 0 77 -34 77 -77c0 -42 -34 -76 -77 -76zM254 478c147 0 238 -94 238 -245c0 -149 -92 -245 -234 -245
c-133 0 -223 90 -223 221c0 21 1 32 3 60h346c-3 74 -51 114 -130 114c-54 0 -86 -17 -104 -53h-110c14 87 102 148 214 148zM260 74c77 0 123 46 124 112h-242c1 -72 43 -112 118 -112z" />
    <glyph glyph-name="uni04DD" unicode="&#x4dd;" horiz-adv-x="793" 
d="M295 532c-42 0 -76 34 -76 76c0 43 34 77 76 77c43 0 77 -34 77 -77c0 -42 -34 -76 -77 -76zM498 532c-42 0 -76 34 -76 76c0 43 34 77 76 77c43 0 77 -34 77 -77c0 -42 -34 -76 -77 -76zM758 0h-134l-173 213v-213h-109v213l-173 -213h-134l205 246h-7
c-27 0 -43 5 -72 46l-38 53c-18 25 -32 28 -52 28h-16v98h37c49 0 72 -12 105 -57l82 -112c18 -24 33 -31 53 -31h10v195h109v-195h10c20 0 35 7 53 31l82 112c33 45 56 57 105 57h37v-98h-16c-20 0 -34 -3 -52 -28l-38 -53c-29 -41 -45 -46 -72 -46h-7z" />
    <glyph glyph-name="uni04DF" unicode="&#x4df;" horiz-adv-x="479" 
d="M132 532c-42 0 -76 34 -76 76c0 43 34 77 76 77c43 0 77 -34 77 -77c0 -42 -34 -76 -77 -76zM335 532c-42 0 -76 34 -76 76c0 43 34 77 76 77c43 0 77 -34 77 -77c0 -42 -34 -76 -77 -76zM148 144c0 -40 34 -67 99 -67c57 0 86 20 86 62c0 31 -25 55 -75 55h-69v80h63
c40 0 70 21 70 59c0 32 -31 59 -81 59c-62 0 -86 -30 -86 -67h-108c0 91 76 153 193 153c115 0 188 -54 188 -129c0 -65 -42 -100 -103 -108c63 -7 114 -46 114 -115c0 -90 -93 -138 -200 -138c-126 0 -199 62 -199 156h108z" />
    <glyph glyph-name="uni04E1" unicode="&#x4e1;" horiz-adv-x="486" 
d="M213 -222c-128 0 -216 65 -218 192h107c4 -68 57 -102 113 -102c63 0 110 48 110 145c0 96 -60 136 -146 136h-84l175 225h-225v92h401l-185 -243c104 -15 172 -110 172 -212c0 -155 -93 -233 -220 -233z" />
    <glyph glyph-name="uni04E3" unicode="&#x4e3;" horiz-adv-x="565" 
d="M119 546v86h318v-86h-318zM386 300l-207 -261v-39h-109v466h109v-305l207 263v42h109v-466h-109v300z" />
    <glyph glyph-name="uni04E5" unicode="&#x4e5;" horiz-adv-x="565" 
d="M176 522c-42 0 -76 34 -76 76c0 43 34 77 76 77c43 0 77 -34 77 -77c0 -42 -34 -76 -77 -76zM379 522c-42 0 -76 34 -76 76c0 43 34 77 76 77c43 0 77 -34 77 -77c0 -42 -34 -76 -77 -76zM386 300l-207 -261v-39h-109v466h109v-305l207 263v42h109v-466h-109v300z" />
    <glyph glyph-name="uni04E7" unicode="&#x4e7;" horiz-adv-x="562" 
d="M179 532c-42 0 -76 34 -76 76c0 43 34 77 76 77c43 0 77 -34 77 -77c0 -42 -34 -76 -77 -76zM382 532c-42 0 -76 34 -76 76c0 43 34 77 76 77c43 0 77 -34 77 -77c0 -42 -34 -76 -77 -76zM281 -12c-154 0 -246 108 -246 245s92 245 246 245s246 -108 246 -245
s-92 -245 -246 -245zM281 85c88 0 137 63 137 148s-49 148 -137 148s-137 -63 -137 -148s49 -148 137 -148z" />
    <glyph glyph-name="uni04E9" unicode="&#x4e9;" horiz-adv-x="562" 
d="M281 478c154 0 246 -108 246 -245s-92 -245 -246 -245s-246 108 -246 245s92 245 246 245zM281 381c-75 0 -122 -46 -134 -112h268c-12 66 -59 112 -134 112zM281 85c75 0 122 46 134 112h-268c12 -66 59 -112 134 -112z" />
    <glyph glyph-name="uni04EB" unicode="&#x4eb;" horiz-adv-x="562" 
d="M179 532c-42 0 -76 34 -76 76c0 43 34 77 76 77c43 0 77 -34 77 -77c0 -42 -34 -76 -77 -76zM382 532c-42 0 -76 34 -76 76c0 43 34 77 76 77c43 0 77 -34 77 -77c0 -42 -34 -76 -77 -76zM281 478c154 0 246 -108 246 -245s-92 -245 -246 -245s-246 108 -246 245
s92 245 246 245zM281 381c-75 0 -122 -46 -134 -112h268c-12 66 -59 112 -134 112zM281 85c75 0 122 46 134 112h-268c12 -66 59 -112 134 -112z" />
    <glyph glyph-name="uni04ED" unicode="&#x4ed;" horiz-adv-x="534" 
d="M157 532c-42 0 -76 34 -76 76c0 43 34 77 76 77c43 0 77 -34 77 -77c0 -42 -34 -76 -77 -76zM360 532c-42 0 -76 34 -76 76c0 43 34 77 76 77c43 0 77 -34 77 -77c0 -42 -34 -76 -77 -76zM145 296h-109c2 101 89 182 223 182c165 0 240 -119 240 -245
c0 -127 -75 -245 -240 -245c-135 0 -222 76 -224 172h109c8 -44 44 -75 120 -75c81 0 119 42 124 107h-181v81h181c-5 64 -43 108 -124 108c-75 0 -111 -36 -119 -85z" />
    <glyph glyph-name="uni04EF" unicode="&#x4ef;" horiz-adv-x="566" 
d="M115 556v86h318v-86h-318zM387 466h109v-468c0 -73 -22 -128 -61 -166c-38 -35 -92 -54 -158 -54c-69 0 -123 17 -160 48c-33 29 -51 70 -52 121h110c5 -51 30 -79 100 -79c65 0 112 39 112 138v59c-29 -50 -81 -77 -150 -77c-115 0 -172 82 -172 194v284h109v-261
c0 -69 23 -121 101 -121c76 0 112 61 112 141v241z" />
    <glyph glyph-name="uni04F1" unicode="&#x4f1;" horiz-adv-x="566" 
d="M172 532c-42 0 -76 34 -76 76c0 43 34 77 76 77c43 0 77 -34 77 -77c0 -42 -34 -76 -77 -76zM375 532c-42 0 -76 34 -76 76c0 43 34 77 76 77c43 0 77 -34 77 -77c0 -42 -34 -76 -77 -76zM387 466h109v-468c0 -73 -22 -128 -61 -166c-38 -35 -92 -54 -158 -54
c-69 0 -123 17 -160 48c-33 29 -51 70 -52 121h110c5 -51 30 -79 100 -79c65 0 112 39 112 138v59c-29 -50 -81 -77 -150 -77c-115 0 -172 82 -172 194v284h109v-261c0 -69 23 -121 101 -121c76 0 112 61 112 141v241z" />
    <glyph glyph-name="uni04F3" unicode="&#x4f3;" horiz-adv-x="566" 
d="M158 491l-52 28l125 166l96 -48zM353 491l-52 28l125 166l96 -48zM387 466h109v-468c0 -73 -22 -128 -61 -166c-38 -35 -92 -54 -158 -54c-69 0 -123 17 -160 48c-33 29 -51 70 -52 121h110c5 -51 30 -79 100 -79c65 0 112 39 112 138v59c-29 -50 -81 -77 -150 -77
c-115 0 -172 82 -172 194v284h109v-261c0 -69 23 -121 101 -121c76 0 112 61 112 141v241z" />
    <glyph glyph-name="uni04F5" unicode="&#x4f5;" horiz-adv-x="509" 
d="M138 532c-42 0 -76 34 -76 76c0 43 34 77 76 77c43 0 77 -34 77 -77c0 -42 -34 -76 -77 -76zM341 532c-42 0 -76 34 -76 76c0 43 34 77 76 77c43 0 77 -34 77 -77c0 -42 -34 -76 -77 -76zM330 0v162c-37 -21 -80 -28 -116 -28c-116 0 -174 52 -174 157v175h109v-161
c0 -54 30 -80 90 -80c30 0 61 0 91 30v211h109v-466h-109z" />
    <glyph glyph-name="uni04F7" unicode="&#x4f7;" horiz-adv-x="376" 
d="M356 365h-177v-262h54v-223h-109v120h-54v466h286v-101z" />
    <glyph glyph-name="uni04F9" unicode="&#x4f9;" horiz-adv-x="695" 
d="M235 532c-42 0 -76 34 -76 76c0 43 34 77 76 77c43 0 77 -34 77 -77c0 -42 -34 -76 -77 -76zM438 532c-42 0 -76 34 -76 76c0 43 34 77 76 77c43 0 77 -34 77 -77c0 -42 -34 -76 -77 -76zM70 466h109v-150h107c110 0 175 -71 175 -158c0 -85 -72 -158 -175 -158h-216v466
zM516 0v466h109v-466h-109zM179 230v-144h94c50 0 74 30 74 72c0 43 -24 72 -74 72h-94z" />
    <glyph glyph-name="uni04FD" unicode="&#x4fd;" horiz-adv-x="487" 
d="M344 -216c-31 0 -51 3 -64 10v86c14 -3 26 -4 41 -4c32 0 47 16 47 51c0 44 -40 105 -80 163l-43 66l-100 -156h-135l172 235l-169 231h135l97 -151l97 151h135l-169 -231l77 -109c81 -114 87 -164 87 -218c0 -77 -45 -124 -128 -124z" />
    <glyph glyph-name="uni0511" unicode="&#x511;" horiz-adv-x="479" 
d="M331 144h108c0 -94 -73 -156 -199 -156c-107 0 -200 48 -200 138c0 69 51 108 114 115c-61 8 -103 43 -103 108c0 75 73 129 188 129c117 0 193 -62 193 -153h-108c0 37 -24 67 -86 67c-50 0 -81 -27 -81 -59c0 -38 30 -59 70 -59h63v-80h-69c-50 0 -75 -24 -75 -55
c0 -42 29 -62 86 -62c65 0 99 27 99 67z" />
    <glyph glyph-name="uni0513" unicode="&#x513;" horiz-adv-x="556" 
d="M121 466h365v-563c0 -77 -45 -119 -128 -119c-31 0 -51 3 -64 10v97c14 -3 26 -4 41 -4c29 0 42 15 42 48v430h-147v-161c0 -128 -58 -209 -160 -209h-40v103h18c45 0 73 29 73 101v267z" />
    <glyph glyph-name="uni051D" unicode="&#x51d;" horiz-adv-x="764" 
d="M177 0l-172 466h120l97 -308l101 308h118l101 -308l97 308h120l-172 -466h-92l-113 332l-113 -332h-92z" />
    <glyph glyph-name="uni048D" unicode="&#x48d;" horiz-adv-x="486" 
d="M286 316c110 0 175 -71 175 -158c0 -85 -72 -158 -175 -158h-216v421h-53v87h53v192h109v-192h96v-87h-96v-105h107zM273 86c50 0 74 30 74 72c0 43 -24 72 -74 72h-94v-144h94z" />
    <glyph glyph-name="uni048F" unicode="&#x48f;" horiz-adv-x="592" 
d="M557 233c0 -67 -21 -125 -56 -168l44 -44l-51 -51l-49 48c-33 -19 -73 -30 -117 -30c-62 0 -121 30 -149 75v-273h-109v676h109v-63c28 45 90 75 156 75c133 0 222 -98 222 -245zM312 85c20 0 39 4 55 11l-86 86l51 51l91 -90c16 24 25 55 25 90c0 87 -56 148 -136 148
c-82 0 -138 -60 -138 -148s56 -148 138 -148z" />
    <glyph glyph-name="uni0432.loclBGR" horiz-adv-x="579" 
d="M304 -12c-142 0 -226 104 -226 214v311c0 106 81 199 217 199s217 -93 217 -199c0 -56 -25 -117 -95 -145c78 -25 112 -101 112 -166c0 -110 -84 -214 -225 -214zM295 406c67 0 107 48 107 102c0 56 -40 106 -107 106s-107 -48 -107 -101v-107h107zM304 86
c72 0 115 57 115 116c0 57 -44 112 -124 112h-107v-117c0 -56 43 -111 116 -111z" />
    <glyph glyph-name="uni0433.loclBGR" horiz-adv-x="457" 
d="M224 -12c-119 0 -184 63 -184 152c0 60 45 107 108 125l111 32c24 7 40 24 40 50c0 29 -29 48 -67 48c-51 0 -81 -23 -81 -62h-107c0 83 62 145 184 145c108 0 179 -61 179 -137c0 -62 -32 -110 -101 -129l-120 -33c-27 -7 -35 -28 -35 -49c0 -33 26 -55 67 -55
c56 0 95 28 95 68h109c0 -85 -78 -155 -198 -155z" />
    <glyph glyph-name="uni0434.loclBGR" horiz-adv-x="592" 
d="M413 466h109v-446c0 -92 -29 -161 -84 -201c-39 -29 -93 -41 -160 -41c-62 0 -121 13 -164 42c-44 30 -72 75 -74 127h114c9 -48 48 -79 123 -79c89 0 136 39 136 144v51c-28 -47 -92 -75 -149 -75c-145 0 -229 108 -229 245s92 245 232 245c62 0 118 -28 146 -75v63z
M280 85c89 0 138 68 138 148s-49 148 -138 148c-82 0 -136 -63 -136 -148s54 -148 136 -148z" />
    <glyph glyph-name="uni0436.loclBGR" horiz-adv-x="787" 
d="M762 466l-202 -223l202 -243h-143l-171 212v-212h-109v212l-171 -212h-143l202 243l-202 223h138l176 -204v438h109v-438l176 204h138z" />
    <glyph glyph-name="uni0437.loclBGR" horiz-adv-x="505" 
d="M146 -30c4 -67 44 -100 103 -100c67 0 108 40 108 108c0 61 -20 134 -113 134h-31v76h32c62 0 93 41 93 108c0 63 -27 96 -81 96c-64 0 -85 -43 -85 -97h-106c0 109 77 183 193 183c133 0 183 -90 183 -179c0 -86 -55 -132 -110 -142c76 -14 133 -69 133 -176
c0 -139 -90 -203 -215 -203c-122 0 -208 65 -210 192h106z" />
    <glyph glyph-name="uni0438.loclBGR" horiz-adv-x="561" 
d="M238 -12c-102 0 -173 60 -173 185v293h109v-266c0 -75 24 -119 95 -119c83 0 113 55 113 122v263h109v-466h-109v65c-28 -50 -77 -77 -144 -77z" />
    <glyph glyph-name="uni0439.loclBGR" horiz-adv-x="561" 
d="M281 505c-107 0 -176 56 -182 147h92c3 -47 39 -68 90 -68s87 21 90 68h92c-6 -91 -75 -147 -182 -147zM238 -12c-102 0 -173 60 -173 185v293h109v-266c0 -75 24 -119 95 -119c83 0 113 55 113 122v263h109v-466h-109v65c-28 -50 -77 -77 -144 -77z" />
    <glyph glyph-name="uni043A.loclBGR" horiz-adv-x="518" 
d="M493 466l-202 -223l202 -243h-143l-171 212v-212h-109v700h109v-438l176 204h138z" />
    <glyph glyph-name="uni043B.loclBGR" horiz-adv-x="522" 
d="M219 466h84l214 -466h-117l-139 320l-139 -320h-117z" />
    <glyph glyph-name="uni043F.loclBGR" horiz-adv-x="566" 
d="M70 0v466h109v-65c29 50 83 77 152 77c112 0 170 -63 170 -185v-293h-109v243c0 99 -26 142 -102 142c-71 0 -111 -47 -111 -129v-256h-109z" />
    <glyph glyph-name="uni0442.loclBGR" horiz-adv-x="832" 
d="M70 0v466h109v-65c20 43 69 77 130 77c85 0 127 -37 147 -83c22 47 77 83 143 83c140 0 168 -96 168 -183v-295h-109v274c0 77 -30 111 -87 111c-55 0 -98 -27 -98 -138v-247h-109v275c0 77 -28 110 -85 110c-55 0 -100 -27 -100 -138v-247h-109z" />
    <glyph glyph-name="uni0446.loclBGR" horiz-adv-x="561" 
d="M491 103h62l-85 -223h-107l45 120h-24v65c-28 -50 -77 -77 -144 -77c-102 0 -173 60 -173 185v293h109v-266c0 -75 24 -119 95 -119c83 0 113 55 113 122v263h109v-363z" />
    <glyph glyph-name="uni0448.loclBGR" horiz-adv-x="832" 
d="M762 466v-466h-109v65c-20 -43 -69 -77 -130 -77c-85 0 -127 37 -147 83c-22 -47 -77 -83 -143 -83c-140 0 -168 96 -168 183v295h109v-274c0 -77 30 -111 87 -111c55 0 98 27 98 138v247h109v-275c0 -77 28 -110 85 -110c55 0 100 27 100 138v247h109z" />
    <glyph glyph-name="uni0449.loclBGR" horiz-adv-x="832" 
d="M762 103h62l-85 -223h-107l45 120h-24v65c-20 -43 -69 -77 -130 -77c-85 0 -127 37 -147 83c-22 -47 -77 -83 -143 -83c-140 0 -168 96 -168 183v295h109v-274c0 -77 30 -111 87 -111c55 0 98 27 98 138v247h109v-275c0 -77 28 -110 85 -110c55 0 100 27 100 138v247h109
v-363z" />
    <glyph glyph-name="uni044E.loclBGR" horiz-adv-x="763" 
d="M482 478c154 0 246 -108 246 -245s-92 -245 -246 -245c-137 0 -225 85 -243 200h-60v-188h-109v700h109v-421h61c18 114 106 199 242 199zM482 85c88 0 137 63 137 148s-49 148 -137 148s-137 -63 -137 -148s49 -148 137 -148z" />
    <glyph glyph-name="uni0431.loclSRB" horiz-adv-x="562" 
d="M414 445c72 -43 113 -121 113 -212c0 -137 -92 -245 -246 -245s-246 108 -246 245c0 110 59 201 161 233c-45 20 -74 53 -74 105c0 113 142 129 299 129h55v-105h-114c-83 0 -121 -8 -121 -49c0 -58 77 -42 173 -101zM281 85c88 0 137 63 137 148s-49 148 -137 148
s-137 -63 -137 -148s49 -148 137 -148z" />
    <glyph glyph-name="uni0430.ss03" horiz-adv-x="532" 
d="M206 -12c-100 0 -166 52 -166 142c0 47 18 87 55 113c36 27 92 41 175 44l88 3v26c0 52 -35 74 -91 74c-59 0 -97 -23 -101 -60h-109c8 83 71 148 214 148c144 0 196 -67 196 -195v-283h-110v56c-24 -38 -69 -68 -151 -68zM237 75c76 0 121 41 121 114v21l-114 -6
c-60 -3 -95 -28 -95 -70c0 -38 32 -59 88 -59z" />
    <glyph glyph-name="uni04D1.ss03" horiz-adv-x="532" 
d="M270 505c-107 0 -176 56 -182 147h92c3 -47 39 -68 90 -68s87 21 90 68h92c-6 -91 -75 -147 -182 -147zM206 -12c-100 0 -166 52 -166 142c0 47 18 87 55 113c36 27 92 41 175 44l88 3v26c0 52 -35 74 -91 74c-59 0 -97 -23 -101 -60h-109c8 83 71 148 214 148
c144 0 196 -67 196 -195v-283h-110v56c-24 -38 -69 -68 -151 -68zM237 75c76 0 121 41 121 114v21l-114 -6c-60 -3 -95 -28 -95 -70c0 -38 32 -59 88 -59z" />
    <glyph glyph-name="uni04D3.ss03" horiz-adv-x="532" 
d="M168 532c-42 0 -76 34 -76 76c0 43 34 77 76 77c43 0 77 -34 77 -77c0 -42 -34 -76 -77 -76zM371 532c-42 0 -76 34 -76 76c0 43 34 77 76 77c43 0 77 -34 77 -77c0 -42 -34 -76 -77 -76zM206 -12c-100 0 -166 52 -166 142c0 47 18 87 55 113c36 27 92 41 175 44l88 3v26
c0 52 -35 74 -91 74c-59 0 -97 -23 -101 -60h-109c8 83 71 148 214 148c144 0 196 -67 196 -195v-283h-110v56c-24 -38 -69 -68 -151 -68zM237 75c76 0 121 41 121 114v21l-114 -6c-60 -3 -95 -28 -95 -70c0 -38 32 -59 88 -59z" />
    <glyph glyph-name="uni0443.ss04" horiz-adv-x="507" 
d="M89 -222c-23 0 -34 2 -56 8v102c17 -5 39 -7 54 -7c42 0 88 19 106 75l7 22l-190 488h113l138 -368l120 368h116l-201 -536c-45 -121 -122 -152 -207 -152z" />
    <glyph glyph-name="uni045E.ss04" horiz-adv-x="507" 
d="M257 505c-107 0 -176 56 -182 147h92c3 -47 39 -68 90 -68s87 21 90 68h92c-6 -91 -75 -147 -182 -147zM89 -222c-23 0 -34 2 -56 8v102c17 -5 39 -7 54 -7c42 0 88 19 106 75l7 22l-190 488h113l138 -368l120 368h116l-201 -536c-45 -121 -122 -152 -207 -152z" />
    <glyph glyph-name="uni04EF.ss04" horiz-adv-x="507" 
d="M98 556v86h318v-86h-318zM89 -222c-23 0 -34 2 -56 8v102c17 -5 39 -7 54 -7c42 0 88 19 106 75l7 22l-190 488h113l138 -368l120 368h116l-201 -536c-45 -121 -122 -152 -207 -152z" />
    <glyph glyph-name="uni04F1.ss04" horiz-adv-x="507" 
d="M155 532c-42 0 -76 34 -76 76c0 43 34 77 76 77c43 0 77 -34 77 -77c0 -42 -34 -76 -77 -76zM358 532c-42 0 -76 34 -76 76c0 43 34 77 76 77c43 0 77 -34 77 -77c0 -42 -34 -76 -77 -76zM89 -222c-23 0 -34 2 -56 8v102c17 -5 39 -7 54 -7c42 0 88 19 106 75l7 22
l-190 488h113l138 -368l120 368h116l-201 -536c-45 -121 -122 -152 -207 -152z" />
    <glyph glyph-name="uni04F3.ss04" horiz-adv-x="507" 
d="M141 491l-52 28l125 166l96 -48zM336 491l-52 28l125 166l96 -48zM89 -222c-23 0 -34 2 -56 8v102c17 -5 39 -7 54 -7c42 0 88 19 106 75l7 22l-190 488h113l138 -368l120 368h116l-201 -536c-45 -121 -122 -152 -207 -152z" />
    <glyph glyph-name="uni24FF" unicode="&#x24ff;" horiz-adv-x="794" 
d="M397 -17c-225 0 -362 163 -362 367s137 367 362 367s362 -163 362 -367s-137 -367 -362 -367zM396 163c102 0 157 65 157 187s-55 187 -157 187c-101 0 -155 -65 -155 -187s54 -187 155 -187zM396 233c-49 0 -71 36 -71 117s22 117 71 117c50 0 72 -36 72 -117
s-22 -117 -72 -117z" />
    <glyph glyph-name="uni2776" unicode="&#x2776;" horiz-adv-x="794" 
d="M397 -17c-225 0 -362 163 -362 367s137 367 362 367s362 -163 362 -367s-137 -367 -362 -367zM360 171h83v358h-72c0 -43 -18 -64 -95 -64v-65h84v-229z" />
    <glyph glyph-name="uni2777" unicode="&#x2777;" horiz-adv-x="794" 
d="M397 -17c-225 0 -362 163 -362 367s137 367 362 367s362 -163 362 -367s-137 -367 -362 -367zM244 179h284v70h-177c6 25 18 35 51 53l55 29c47 24 74 63 74 109c0 65 -51 105 -135 105c-86 0 -143 -51 -143 -128h88c0 40 20 62 56 62c27 0 46 -16 46 -43
c0 -24 -14 -43 -42 -57l-60 -30c-68 -35 -97 -84 -97 -170z" />
    <glyph glyph-name="uni2778" unicode="&#x2778;" horiz-adv-x="794" 
d="M397 -17c-225 0 -362 163 -362 367s137 367 362 367s362 -163 362 -367s-137 -367 -362 -367zM397 163c89 0 145 44 145 110c0 44 -29 77 -76 85c47 12 70 41 70 80c0 61 -54 99 -135 99c-88 0 -142 -45 -142 -113h86c0 32 22 50 54 50c29 0 50 -17 50 -40
c0 -29 -18 -44 -54 -44h-38v-65h37c41 0 60 -17 60 -49c0 -28 -20 -46 -55 -46c-38 0 -61 21 -61 59h-86c0 -81 52 -126 145 -126z" />
    <glyph glyph-name="uni2779" unicode="&#x2779;" horiz-adv-x="794" 
d="M397 -17c-225 0 -362 163 -362 367s137 367 362 367s362 -163 362 -367s-137 -367 -362 -367zM409 171h85v102h45v73h-45v92h-85v-92h-71v183h-83v-256h154v-102z" />
    <glyph glyph-name="uni277A" unicode="&#x277a;" horiz-adv-x="794" 
d="M397 -17c-225 0 -362 163 -362 367s137 367 362 367s362 -163 362 -367s-137 -367 -362 -367zM394 154c91 0 147 54 147 133c0 71 -48 120 -121 120c-34 0 -63 -9 -82 -29v77h181v65h-257v-208h75c11 23 31 33 61 33c37 0 59 -24 59 -59c0 -39 -23 -63 -63 -63
c-31 0 -56 14 -58 40h-83c3 -70 58 -109 141 -109z" />
    <glyph glyph-name="uni277B" unicode="&#x277b;" horiz-adv-x="794" 
d="M397 -17c-225 0 -362 163 -362 367s137 367 362 367s362 -163 362 -367s-137 -367 -362 -367zM392 168c90 0 146 58 146 134s-52 132 -136 136l81 96h-98l-99 -131c-26 -35 -39 -66 -39 -101c0 -76 56 -134 145 -134zM392 236c-41 0 -64 28 -64 66c0 39 23 68 64 68
s64 -29 64 -68c0 -38 -23 -66 -64 -66z" />
    <glyph glyph-name="uni277C" unicode="&#x277c;" horiz-adv-x="794" 
d="M397 -17c-225 0 -362 163 -362 367s137 367 362 367s362 -163 362 -367s-137 -367 -362 -367zM273 169h95l184 358h-289v-72h164z" />
    <glyph glyph-name="uni277D" unicode="&#x277d;" horiz-adv-x="794" 
d="M397 -17c-225 0 -362 163 -362 367s137 367 362 367s362 -163 362 -367s-137 -367 -362 -367zM396 163c88 0 145 37 145 104c0 43 -22 78 -71 89c42 12 64 45 64 83c0 60 -56 98 -138 98c-83 0 -138 -38 -138 -98c0 -38 21 -71 63 -83c-49 -11 -71 -46 -71 -89
c0 -67 58 -104 146 -104zM396 386c-34 0 -57 20 -57 47c0 29 23 47 57 47c33 0 56 -18 56 -47c0 -27 -23 -47 -56 -47zM396 224c-38 0 -61 21 -61 52c0 30 24 50 61 50c36 0 61 -20 61 -50c0 -31 -24 -52 -61 -52z" />
    <glyph glyph-name="uni277E" unicode="&#x277e;" horiz-adv-x="794" 
d="M397 -17c-225 0 -362 163 -362 367s137 367 362 367s362 -163 362 -367s-137 -367 -362 -367zM306 166h98l107 140c19 25 31 57 31 92c0 76 -56 134 -145 134c-90 0 -146 -58 -146 -134s52 -132 136 -136zM397 330c-41 0 -64 29 -64 68c0 38 23 66 64 66s64 -28 64 -66
c0 -39 -23 -68 -64 -68z" />
    <glyph glyph-name="zero.case" horiz-adv-x="612" 
d="M306 -12c-171 0 -261 126 -261 364s90 365 261 365s261 -127 261 -365s-90 -364 -261 -364zM306 88c102 0 152 87 152 264s-50 264 -152 264s-152 -87 -152 -264s50 -264 152 -264z" />
    <glyph glyph-name="one.case" horiz-adv-x="388" 
d="M169 0v484h-144v96c127 0 154 33 154 120h104v-700h-114z" />
    <glyph glyph-name="two.case" horiz-adv-x="580" 
d="M50 0c0 156 50 250 168 317l100 57c56 32 85 77 85 135c0 64 -41 107 -100 107c-76 0 -119 -54 -119 -150h-119c0 153 93 251 238 251c137 0 222 -78 222 -202c0 -86 -50 -164 -133 -214l-98 -59c-75 -45 -96 -72 -108 -138h337v-104h-473z" />
    <glyph glyph-name="three.case" horiz-adv-x="572" 
d="M287 -12c-159 0 -252 90 -252 245h117c0 -94 49 -148 135 -148c71 0 119 47 119 115c0 78 -43 118 -128 118h-48v100h49c73 0 109 35 109 105c0 58 -43 98 -105 98c-73 0 -118 -46 -118 -124h-113c0 134 90 220 231 220c133 0 222 -78 222 -194c0 -75 -40 -128 -115 -152
c80 -14 132 -81 132 -170c0 -126 -97 -213 -235 -213z" />
    <glyph glyph-name="four.case" horiz-adv-x="580" 
d="M540 321v-104h-97v-217h-114v217h-269v483h114v-379h155v196h114v-196h97z" />
    <glyph glyph-name="five.case" horiz-adv-x="584" 
d="M294 -12c-127 0 -226 72 -234 199h116c4 -63 57 -97 120 -97c84 0 133 59 133 147c0 84 -46 140 -120 140c-65 0 -107 -23 -132 -78h-105v401h427v-103h-323v-185c38 46 93 63 149 63c131 0 214 -94 214 -234c0 -149 -94 -253 -245 -253z" />
    <glyph glyph-name="six.case" horiz-adv-x="572" 
d="M286 491c154 0 246 -111 246 -252c0 -140 -92 -251 -246 -251s-246 111 -246 251c0 64 19 122 54 166l211 295h137l-157 -209h1zM286 85c88 0 137 66 137 154c0 89 -49 155 -137 155s-137 -66 -137 -155c0 -88 49 -154 137 -154z" />
    <glyph glyph-name="seven.case" horiz-adv-x="517" 
d="M57 0l298 594h-310v106h482l-343 -700h-127z" />
    <glyph glyph-name="eight.case" horiz-adv-x="590" 
d="M295 -12c-149 0 -245 81 -245 208c0 84 38 145 116 170c-69 24 -106 88 -106 162c0 112 96 189 235 189s235 -77 235 -189c0 -74 -39 -138 -108 -162c78 -25 118 -86 118 -170c0 -127 -96 -208 -245 -208zM295 412c72 0 117 42 117 105c0 67 -45 107 -117 107
s-117 -40 -117 -107c0 -63 49 -105 117 -105zM295 85c77 0 128 47 128 118c0 72 -51 118 -128 118c-73 0 -128 -46 -128 -118c0 -71 51 -118 128 -118z" />
    <glyph glyph-name="nine.case" horiz-adv-x="567" 
d="M125 0l158 211c-1 -1 -1 -1 -2 -1c-154 0 -246 112 -246 253c0 142 92 254 246 254s246 -112 246 -254c0 -62 -18 -118 -57 -172l-208 -291h-137zM281 308c88 0 137 66 137 155c0 90 -49 156 -137 156s-137 -66 -137 -156c0 -89 49 -155 137 -155z" />
    <glyph glyph-name="zero.case.zero" horiz-adv-x="612" 
d="M306 717c171 0 261 -127 261 -365s-90 -364 -261 -364s-261 126 -261 364s90 365 261 365zM306 616c-102 0 -152 -87 -152 -264c0 -86 12 -151 36 -195l189 438c-20 14 -44 21 -73 21zM306 88c102 0 152 87 152 264c0 81 -11 143 -32 187l-187 -434c19 -11 41 -17 67 -17
z" />
    <glyph glyph-name="uni24EA" unicode="&#x24ea;" horiz-adv-x="794" 
d="M397 -17c-225 0 -362 163 -362 367s137 367 362 367s362 -163 362 -367s-137 -367 -362 -367zM397 58c170 0 274 131 274 292s-104 292 -274 292s-274 -131 -274 -292s104 -292 274 -292zM396 163c-101 0 -155 65 -155 187s54 187 155 187c102 0 157 -65 157 -187
s-55 -187 -157 -187zM396 233c50 0 72 36 72 117s-22 117 -72 117c-49 0 -71 -36 -71 -117s22 -117 71 -117z" />
    <glyph glyph-name="uni2460" unicode="&#x2460;" horiz-adv-x="794" 
d="M397 -17c-225 0 -362 163 -362 367s137 367 362 367s362 -163 362 -367s-137 -367 -362 -367zM397 58c170 0 274 131 274 292s-104 292 -274 292s-274 -131 -274 -292s104 -292 274 -292zM373 171v229h-84v65c77 0 95 21 95 64h72v-358h-83z" />
    <glyph glyph-name="uni2461" unicode="&#x2461;" horiz-adv-x="794" 
d="M397 -17c-225 0 -362 163 -362 367s137 367 362 367s362 -163 362 -367s-137 -367 -362 -367zM397 58c170 0 274 131 274 292s-104 292 -274 292s-274 -131 -274 -292s104 -292 274 -292zM244 179c0 86 29 135 97 170l60 30c28 14 42 33 42 57c0 27 -19 43 -46 43
c-36 0 -56 -22 -56 -62h-88c0 77 57 128 143 128c84 0 135 -40 135 -105c0 -46 -27 -85 -74 -109l-55 -29c-33 -18 -45 -28 -51 -53h177v-70h-284z" />
    </font>
</defs>
</svg>
