<?xml version="1.0" standalone="no"?>
<!DOCTYPE svg PUBLIC "-//W3C//DTD SVG 1.1//EN" "http://www.w3.org/Graphics/SVG/1.1/DTD/svg11.dtd" >
<svg xmlns="http://www.w3.org/2000/svg" xmlns:xlink="http://www.w3.org/1999/xlink" version="1.1">
<metadata>
Created by FontForge 20170910 at Fri Mar 24 13:02:10 2017
 By Jimmy Wärting
Copyright \(c\) 2015 by Noel Leu. All rights reserved.
</metadata>
<defs>
<font id="GTWalsheimPro-Bold" horiz-adv-x="640" >
  <font-face 
    font-family="GT Walsheim Pro Bold"
    font-weight="700"
    font-stretch="normal"
    units-per-em="1000"
    panose-1="0 0 8 0 0 0 0 0 0 0"
    ascent="700"
    descent="-300"
    x-height="482"
    cap-height="700"
    bbox="-529 -216 1178 905"
    underline-thickness="50"
    underline-position="-100"
    stemh="138"
    stemv="162"
    unicode-range="U+000D-FB02"
  />
<missing-glyph horiz-adv-x="800" 
d="M400 -17c-225 0 -364 177 -364 367s139 367 364 367s364 -177 364 -367s-139 -367 -364 -367zM400 6c187 0 339 153 339 344c0 180 -145 345 -339 345c-195 0 -340 -164 -340 -345c0 -191 151 -344 340 -344zM243 457c-23 0 -42 20 -42 43c0 24 19 43 42 43
c24 0 43 -19 43 -43c0 -23 -19 -43 -43 -43zM540 457c-23 0 -42 20 -42 43c0 24 19 43 42 43c24 0 43 -19 43 -43c0 -23 -19 -43 -43 -43zM219 259l179 268l-110 -243h178v-25h-247zM132 207c0 15 4 40 26 52l23 13c16 9 15 28 15 57h17c0 -49 -7 -61 -20 -69l-22 -13
c-21 -12 -23 -31 -23 -40h-16zM616 157l-16 4c6 23 6 32 -13 41l-41 20c-51 25 -40 71 -31 98l15 -5c-12 -37 -10 -65 27 -82l40 -19c30 -14 24 -38 19 -57zM366 66c-65 0 -129 46 -198 162c67 -40 113 -71 188 -71c55 0 158 5 220 37c1 0 2 1 3 2
c-30 -66 -135 -130 -213 -130zM366 92c70 0 156 60 166 68c-59 -13 -106 -28 -174 -28c-35 0 -99 14 -133 42c40 -63 114 -82 141 -82z" />
    <glyph glyph-name="fi" unicode="fi" horiz-adv-x="660" 
d="M521 524c-55 0 -95 42 -95 94c0 51 40 94 95 94c56 0 95 -43 95 -94c0 -52 -39 -94 -95 -94zM103 529c0 148 105 180 177 180c41 0 69 -5 88 -11v-109c-16 1 -28 3 -42 3c-33 0 -70 -8 -70 -61v-49h112v-121h-112v-361h-153v361h-86v121h86v47zM444 0v482h153v-482h-153z
" />
    <glyph glyph-name="fl" unicode="fl" horiz-adv-x="660" 
d="M103 529c0 148 105 180 177 180c41 0 69 -5 88 -11v-109c-16 1 -28 3 -42 3c-33 0 -70 -8 -70 -61v-49h112v-121h-112v-361h-153v361h-86v121h86v47zM444 700h153v-700h-153v700z" />
    <glyph glyph-name="f_f" unicode="ff" horiz-adv-x="784" 
d="M103 529c0 148 105 180 177 180c41 0 69 -5 88 -11v-109c-16 1 -28 3 -42 3c-33 0 -70 -8 -70 -61v-49h112v-121h-112v-361h-153v361h-86v121h86v47zM729 592c-33 0 -70 -8 -70 -61v-49h112v-121h-112v-361h-153v361h-86v121h86v47c0 148 105 180 177 180
c41 0 69 -5 88 -11v-109c-16 1 -28 3 -42 3z" />
    <glyph glyph-name="f_f_i" unicode="ffi" horiz-adv-x="1063" 
d="M924 524c-55 0 -95 42 -95 94c0 51 40 94 95 94c56 0 95 -43 95 -94c0 -52 -39 -94 -95 -94zM103 529c0 148 105 180 177 180c41 0 69 -5 88 -11v-109c-16 1 -28 3 -42 3c-33 0 -70 -8 -70 -61v-49h112v-121h-112v-361h-153v361h-86v121h86v47zM506 529
c0 148 105 180 177 180c41 0 69 -5 88 -11v-109c-16 1 -28 3 -42 3c-33 0 -70 -8 -70 -61v-49h112v-121h-112v-361h-153v361h-86v121h86v47zM847 0v482h153v-482h-153z" />
    <glyph glyph-name="f_f_l" unicode="ffl" horiz-adv-x="1063" 
d="M103 529c0 148 105 180 177 180c41 0 69 -5 88 -11v-109c-16 1 -28 3 -42 3c-33 0 -70 -8 -70 -61v-49h112v-121h-112v-361h-153v361h-86v121h86v47zM506 529c0 148 105 180 177 180c41 0 69 -5 88 -11v-109c-16 1 -28 3 -42 3c-33 0 -70 -8 -70 -61v-49h112v-121h-112
v-361h-153v361h-86v121h86v47zM847 700h153v-700h-153v700z" />
    <glyph glyph-name=".notdef" horiz-adv-x="800" 
d="M400 -17c-225 0 -364 177 -364 367s139 367 364 367s364 -177 364 -367s-139 -367 -364 -367zM400 6c187 0 339 153 339 344c0 180 -145 345 -339 345c-195 0 -340 -164 -340 -345c0 -191 151 -344 340 -344zM243 457c-23 0 -42 20 -42 43c0 24 19 43 42 43
c24 0 43 -19 43 -43c0 -23 -19 -43 -43 -43zM540 457c-23 0 -42 20 -42 43c0 24 19 43 42 43c24 0 43 -19 43 -43c0 -23 -19 -43 -43 -43zM219 259l179 268l-110 -243h178v-25h-247zM132 207c0 15 4 40 26 52l23 13c16 9 15 28 15 57h17c0 -49 -7 -61 -20 -69l-22 -13
c-21 -12 -23 -31 -23 -40h-16zM616 157l-16 4c6 23 6 32 -13 41l-41 20c-51 25 -40 71 -31 98l15 -5c-12 -37 -10 -65 27 -82l40 -19c30 -14 24 -38 19 -57zM366 66c-65 0 -129 46 -198 162c67 -40 113 -71 188 -71c55 0 158 5 220 37c1 0 2 1 3 2
c-30 -66 -135 -130 -213 -130zM366 92c70 0 156 60 166 68c-59 -13 -106 -28 -174 -28c-35 0 -99 14 -133 42c40 -63 114 -82 141 -82z" />
    <glyph glyph-name="CR" unicode="&#xd;" horiz-adv-x="250" 
 />
    <glyph glyph-name=".null" horiz-adv-x="0" 
 />
    <glyph glyph-name="space" unicode=" " horiz-adv-x="243" 
 />
    <glyph glyph-name="A" unicode="A" horiz-adv-x="658" 
d="M477 0l-24 85h-248l-24 -85h-171l237 700h163l238 -700h-171zM241 212h176l-88 311z" />
    <glyph glyph-name="B" unicode="B" horiz-adv-x="623" 
d="M447 358c81 -8 144 -67 144 -164c0 -120 -85 -194 -224 -194h-299v700h288c139 0 225 -69 225 -182c0 -91 -53 -145 -134 -160zM320 583h-90v-170h90c62 0 99 32 99 85s-36 85 -99 85zM331 123c60 0 97 34 97 92c0 52 -39 86 -97 86h-101v-178h101z" />
    <glyph glyph-name="C" unicode="C" horiz-adv-x="783" 
d="M403 -20c-230 0 -376 155 -376 370s146 370 376 370c205 0 338 -109 357 -274h-172c-18 79 -84 129 -184 129c-132 0 -208 -88 -208 -225s76 -225 208 -225c100 0 166 50 184 129h172c-19 -165 -152 -274 -357 -274z" />
    <glyph glyph-name="D" unicode="D" horiz-adv-x="713" 
d="M68 0v700h264c225 0 357 -161 357 -350s-131 -350 -357 -350h-264zM230 136h87c138 0 205 103 205 214s-67 214 -205 214h-87v-428z" />
    <glyph glyph-name="E" unicode="E" horiz-adv-x="556" 
d="M68 0v700h428v-130h-266v-159h266v-127h-266v-154h266v-130h-428z" />
    <glyph glyph-name="F" unicode="F" horiz-adv-x="541" 
d="M68 0v700h428v-136h-266v-189h266v-133h-266v-242h-162z" />
    <glyph glyph-name="G" unicode="G" horiz-adv-x="832" 
d="M817 368v-122h-66c-36 -167 -160 -266 -354 -266c-224 0 -371 156 -370 367c0 204 137 373 379 373c188 0 319 -101 331 -237h-177c-13 58 -68 101 -153 101c-143 0 -212 -102 -211 -234c-1 -131 79 -229 205 -229c96 0 159 41 183 125h-125v122h358z" />
    <glyph glyph-name="H" unicode="H" horiz-adv-x="702" 
d="M68 0v700h162v-283h242v283h162v-700h-162v278h-242v-278h-162z" />
    <glyph glyph-name="I" unicode="I" horiz-adv-x="298" 
d="M68 0v700h162v-700h-162z" />
    <glyph glyph-name="J" unicode="J" horiz-adv-x="578" 
d="M270 -18c-169 0 -255 109 -255 259h162c0 -72 30 -120 93 -120c64 0 95 47 95 116v463h161v-453c0 -172 -96 -265 -256 -265z" />
    <glyph glyph-name="K" unicode="K" horiz-adv-x="661" 
d="M653 700l-275 -347l275 -353h-193l-230 309v-309h-162v700h162v-311l231 311h192z" />
    <glyph glyph-name="L" unicode="L" horiz-adv-x="528" 
d="M68 0v700h162v-556h260v-144h-422z" />
    <glyph glyph-name="M" unicode="M" horiz-adv-x="880" 
d="M68 0v700h188l186 -497l186 497h184v-700h-155v454l-155 -454h-120l-159 457v-457h-155z" />
    <glyph glyph-name="N" unicode="N" horiz-adv-x="700" 
d="M68 0v700h166l243 -453v453h155v-700h-166l-243 453v-453h-155z" />
    <glyph glyph-name="O" unicode="O" horiz-adv-x="801" 
d="M401 -20c-235 0 -374 171 -374 370s139 370 374 370s374 -171 374 -370s-139 -370 -374 -370zM401 125c133 0 205 103 205 225s-72 225 -205 225c-134 0 -206 -103 -205 -225c-1 -122 71 -225 205 -225z" />
    <glyph glyph-name="P" unicode="P" horiz-adv-x="625" 
d="M366 700c146 0 251 -106 251 -253s-106 -253 -251 -253h-136v-194h-162v700h298zM341 326c65 0 112 51 112 121s-47 121 -112 121h-111v-242h111z" />
    <glyph glyph-name="Q" unicode="Q" horiz-adv-x="801" 
d="M775 350c0 -144 -73 -274 -203 -334l69 -90l-142 -72l-95 126h-3c-235 0 -374 171 -374 370s139 370 374 370s374 -171 374 -370zM401 125c133 0 205 103 205 225s-72 225 -205 225c-134 0 -206 -103 -205 -225c-1 -122 71 -225 205 -225z" />
    <glyph glyph-name="R" unicode="R" horiz-adv-x="650" 
d="M617 447c0 -102 -51 -185 -131 -225l123 -222h-184l-110 194h-85v-194h-162v700h298c146 0 251 -106 251 -253zM230 568v-242h111c65 0 112 51 112 121s-47 121 -112 121h-111z" />
    <glyph glyph-name="S" unicode="S" horiz-adv-x="581" 
d="M298 -20c-172 0 -275 92 -275 249h162c0 -76 43 -121 114 -121c60 0 94 28 94 77c0 43 -22 65 -85 90l-126 49c-94 35 -142 100 -142 191c0 123 97 205 249 205c154 0 256 -87 256 -222h-162c0 65 -34 101 -97 101c-53 0 -84 -27 -84 -69c0 -39 27 -63 96 -91l116 -46
c97 -38 141 -103 141 -197c0 -131 -102 -216 -257 -216z" />
    <glyph glyph-name="T" unicode="T" horiz-adv-x="556" 
d="M197 0v556h-192v144h546v-144h-193v-556h-161z" />
    <glyph glyph-name="U" unicode="U" horiz-adv-x="669" 
d="M334 -18c-172 0 -282 92 -282 255v463h161v-453c0 -80 48 -125 121 -125c74 0 121 45 121 125v453h162v-463c0 -163 -111 -255 -283 -255z" />
    <glyph glyph-name="V" unicode="V" horiz-adv-x="632" 
d="M232 0l-235 700h174l145 -494l145 494h174l-235 -700h-168z" />
    <glyph glyph-name="W" unicode="W" horiz-adv-x="1030" 
d="M244 0l-247 700h170l146 -465l139 465h126l139 -465l146 465h170l-247 -700h-132l-139 440l-139 -440h-132z" />
    <glyph glyph-name="X" unicode="X" horiz-adv-x="658" 
d="M12 0l224 350l-224 350h178l139 -229l139 229h178l-224 -350l224 -350h-178l-139 228l-139 -228h-178z" />
    <glyph glyph-name="Y" unicode="Y" horiz-adv-x="612" 
d="M453 700h179l-347 -700h-180l130 264l-248 436h188l149 -276z" />
    <glyph glyph-name="Z" unicode="Z" horiz-adv-x="620" 
d="M13 0l332 564h-289v136h546l-329 -564h311v-136h-571z" />
    <glyph glyph-name="Aacute" unicode="&#xc1;" horiz-adv-x="658" 
d="M460 819l-216 -90l-40 80l217 89zM477 0l-24 85h-248l-24 -85h-171l237 700h163l238 -700h-171zM241 212h176l-88 311z" />
    <glyph glyph-name="Abreve" unicode="&#x102;" horiz-adv-x="658" 
d="M329 735c-99 0 -173 61 -179 142h95c7 -45 42 -63 84 -63s77 18 84 63h95c-6 -81 -80 -142 -179 -142zM477 0l-24 85h-248l-24 -85h-171l237 700h163l238 -700h-171zM241 212h176l-88 311z" />
    <glyph glyph-name="Acircumflex" unicode="&#xc2;" horiz-adv-x="658" 
d="M326 799l-80 -68l-61 56l141 112l142 -112l-61 -56zM477 0l-24 85h-248l-24 -85h-171l237 700h163l238 -700h-171zM241 212h176l-88 311z" />
    <glyph glyph-name="Adieresis" unicode="&#xc4;" horiz-adv-x="658" 
d="M210 733c-45 0 -82 37 -82 80c0 45 37 81 82 81c47 0 82 -36 82 -81c0 -43 -35 -80 -82 -80zM446 733c-46 0 -81 37 -81 80c0 45 35 81 81 81s83 -36 83 -81c0 -43 -37 -80 -83 -80zM477 0l-24 85h-248l-24 -85h-171l237 700h163l238 -700h-171zM241 212h176l-88 311z
" />
    <glyph glyph-name="AE" unicode="&#xc6;" horiz-adv-x="900" 
d="M840 570h-249v-159h249v-127h-249v-154h249v-130h-409v88h-215l-39 -88h-170l345 700h488v-130zM271 212h160v362z" />
    <glyph glyph-name="AEacute" unicode="&#x1fc;" horiz-adv-x="900" 
d="M754 819l-216 -90l-40 80l217 89zM840 570h-249v-159h249v-127h-249v-154h249v-130h-409v88h-215l-39 -88h-170l345 700h488v-130zM271 212h160v362z" />
    <glyph glyph-name="Agrave" unicode="&#xc0;" horiz-adv-x="658" 
d="M453 809l-40 -80l-216 90l39 79zM477 0l-24 85h-248l-24 -85h-171l237 700h163l238 -700h-171zM241 212h176l-88 311z" />
    <glyph glyph-name="Amacron" unicode="&#x100;" horiz-adv-x="658" 
d="M527 853v-92h-396v92h396zM477 0l-24 85h-248l-24 -85h-171l237 700h163l238 -700h-171zM241 212h176l-88 311z" />
    <glyph glyph-name="Aogonek" unicode="&#x104;" horiz-adv-x="658" 
d="M606 -119c15 0 31 4 49 12v-83c-28 -10 -54 -16 -95 -16c-86 0 -134 45 -134 100c0 42 23 77 72 106h-21l-24 85h-248l-24 -85h-171l237 700h163l238 -700c-75 -7 -95 -41 -95 -69s22 -50 53 -50zM241 212h176l-88 311z" />
    <glyph glyph-name="Aring" unicode="&#xc5;" horiz-adv-x="658" 
d="M477 0l-24 85h-248l-24 -85h-171l227 669c-28 25 -46 59 -46 98c0 73 61 132 138 132c78 0 141 -61 141 -132c0 -40 -19 -75 -49 -99l227 -668h-171zM329 828c-33 0 -60 -26 -60 -61c0 -34 27 -59 60 -59c35 0 61 25 61 59c0 35 -25 61 -61 61zM241 212h176l-88 311z" />
    <glyph glyph-name="Atilde" unicode="&#xc3;" horiz-adv-x="658" 
d="M246 788c-30 0 -49 -12 -75 -44l-49 55c45 68 84 80 113 80c66 0 117 -59 167 -59c29 0 48 7 87 45l46 -60c-41 -63 -92 -74 -122 -76c-68 -4 -120 59 -167 59zM477 0l-24 85h-248l-24 -85h-171l237 700h163l238 -700h-171zM241 212h176l-88 311z" />
    <glyph glyph-name="Cacute" unicode="&#x106;" horiz-adv-x="783" 
d="M319 729l-40 80l217 89l39 -79zM403 -20c-230 0 -376 155 -376 370s146 370 376 370c205 0 338 -109 357 -274h-172c-18 79 -84 129 -184 129c-132 0 -208 -88 -208 -225s76 -225 208 -225c100 0 166 50 184 129h172c-19 -165 -152 -274 -357 -274z" />
    <glyph glyph-name="Ccaron" unicode="&#x10c;" horiz-adv-x="783" 
d="M404 734l-142 112l61 56l81 -68l80 68l61 -56zM403 -20c-230 0 -376 155 -376 370s146 370 376 370c205 0 338 -109 357 -274h-172c-18 79 -84 129 -184 129c-132 0 -208 -88 -208 -225s76 -225 208 -225c100 0 166 50 184 129h172c-19 -165 -152 -274 -357 -274z" />
    <glyph glyph-name="Ccedilla" unicode="&#xc7;" horiz-adv-x="783" 
d="M404 125c100 0 166 50 184 129h172c-18 -156 -138 -262 -325 -273v-40c7 6 24 11 42 11c44 0 78 -30 78 -77s-33 -87 -97 -87c-54 0 -92 28 -96 73h63c1 -15 16 -24 31 -24c20 0 33 13 33 38c0 24 -13 36 -32 36c-13 0 -23 -6 -29 -15h-57v85c-211 14 -344 164 -344 369
c0 215 146 370 376 370c205 0 338 -109 357 -274h-172c-18 79 -84 129 -184 129c-132 0 -208 -88 -208 -225s76 -225 208 -225z" />
    <glyph glyph-name="Ccircumflex" unicode="&#x108;" horiz-adv-x="783" 
d="M401 899l142 -112l-61 -56l-81 68l-80 -68l-61 56zM403 -20c-230 0 -376 155 -376 370s146 370 376 370c205 0 338 -109 357 -274h-172c-18 79 -84 129 -184 129c-132 0 -208 -88 -208 -225s76 -225 208 -225c100 0 166 50 184 129h172c-19 -165 -152 -274 -357 -274z
" />
    <glyph glyph-name="Cdotaccent" unicode="&#x10a;" horiz-adv-x="783" 
d="M404 736c-46 0 -78 34 -78 78c0 43 32 78 78 78c47 0 78 -35 78 -78c0 -44 -31 -78 -78 -78zM403 -20c-230 0 -376 155 -376 370s146 370 376 370c205 0 338 -109 357 -274h-172c-18 79 -84 129 -184 129c-132 0 -208 -88 -208 -225s76 -225 208 -225
c100 0 166 50 184 129h172c-19 -165 -152 -274 -357 -274z" />
    <glyph glyph-name="Dcaron" unicode="&#x10e;" horiz-adv-x="713" 
d="M329 734l-142 112l61 56l81 -68l80 68l61 -56zM68 0v700h264c225 0 357 -161 357 -350s-131 -350 -357 -350h-264zM230 136h87c138 0 205 103 205 214s-67 214 -205 214h-87v-428z" />
    <glyph glyph-name="Dcroat" unicode="&#x110;" horiz-adv-x="713" 
d="M332 700c225 0 357 -161 357 -350s-131 -350 -357 -350h-264v301h-65v98h65v301h264zM317 136c138 0 205 103 205 214s-67 214 -205 214h-87v-165h104v-98h-104v-165h87z" />
    <glyph glyph-name="Eacute" unicode="&#xc9;" horiz-adv-x="556" 
d="M204 729l-40 80l217 89l39 -79zM68 0v700h428v-130h-266v-159h266v-127h-266v-154h266v-130h-428z" />
    <glyph glyph-name="Ebreve" unicode="&#x114;" horiz-adv-x="556" 
d="M289 735c-99 0 -173 61 -179 142h95c7 -45 42 -63 84 -63s77 18 84 63h95c-6 -81 -80 -142 -179 -142zM68 0v700h428v-130h-266v-159h266v-127h-266v-154h266v-130h-428z" />
    <glyph glyph-name="Ecaron" unicode="&#x11a;" horiz-adv-x="556" 
d="M289 734l-142 112l61 56l81 -68l80 68l61 -56zM68 0v700h428v-130h-266v-159h266v-127h-266v-154h266v-130h-428z" />
    <glyph glyph-name="Ecircumflex" unicode="&#xca;" horiz-adv-x="556" 
d="M286 899l142 -112l-61 -56l-81 68l-80 -68l-61 56zM68 0v700h428v-130h-266v-159h266v-127h-266v-154h266v-130h-428z" />
    <glyph glyph-name="Edieresis" unicode="&#xcb;" horiz-adv-x="556" 
d="M170 733c-45 0 -82 37 -82 80c0 45 37 81 82 81c47 0 82 -36 82 -81c0 -43 -35 -80 -82 -80zM406 733c-46 0 -81 37 -81 80c0 45 35 81 81 81s83 -36 83 -81c0 -43 -37 -80 -83 -80zM68 0v700h428v-130h-266v-159h266v-127h-266v-154h266v-130h-428z" />
    <glyph glyph-name="Edotaccent" unicode="&#x116;" horiz-adv-x="556" 
d="M289 736c-46 0 -78 34 -78 78c0 43 32 78 78 78c47 0 78 -35 78 -78c0 -44 -31 -78 -78 -78zM68 0v700h428v-130h-266v-159h266v-127h-266v-154h266v-130h-428z" />
    <glyph glyph-name="Egrave" unicode="&#xc8;" horiz-adv-x="556" 
d="M373 729l-216 90l39 79l217 -89zM68 0v700h428v-130h-266v-159h266v-127h-266v-154h266v-130h-428z" />
    <glyph glyph-name="Emacron" unicode="&#x112;" horiz-adv-x="556" 
d="M91 761v92h396v-92h-396zM68 0v700h428v-130h-266v-159h266v-127h-266v-154h266v-130h-428z" />
    <glyph glyph-name="Eogonek" unicode="&#x118;" horiz-adv-x="556" 
d="M454 -119c15 0 31 4 49 12v-83c-28 -10 -54 -16 -95 -16c-86 0 -134 45 -134 100c0 42 23 77 72 106h-278v700h428v-130h-266v-159h266v-127h-266v-154h266v-130c-75 -7 -95 -41 -95 -69s22 -50 53 -50z" />
    <glyph glyph-name="Eth" unicode="&#xd0;" horiz-adv-x="713" 
d="M332 700c225 0 357 -161 357 -350s-131 -350 -357 -350h-264v301h-65v98h65v301h264zM317 136c138 0 205 103 205 214s-67 214 -205 214h-87v-165h104v-98h-104v-165h87z" />
    <glyph glyph-name="Gbreve" unicode="&#x11e;" horiz-adv-x="832" 
d="M407 735c-99 0 -173 61 -179 142h95c7 -45 42 -63 84 -63s77 18 84 63h95c-6 -81 -80 -142 -179 -142zM817 368v-122h-66c-36 -167 -160 -266 -354 -266c-224 0 -371 156 -370 367c0 204 137 373 379 373c188 0 319 -101 331 -237h-177c-13 58 -68 101 -153 101
c-143 0 -212 -102 -211 -234c-1 -131 79 -229 205 -229c96 0 159 41 183 125h-125v122h358z" />
    <glyph glyph-name="Gcircumflex" unicode="&#x11c;" horiz-adv-x="832" 
d="M404 799l-80 -68l-61 56l141 112l142 -112l-61 -56zM817 368v-122h-66c-36 -167 -160 -266 -354 -266c-224 0 -371 156 -370 367c0 204 137 373 379 373c188 0 319 -101 331 -237h-177c-13 58 -68 101 -153 101c-143 0 -212 -102 -211 -234c-1 -131 79 -229 205 -229
c96 0 159 41 183 125h-125v122h358z" />
    <glyph glyph-name="Gcommaaccent" unicode="&#x122;" horiz-adv-x="832" 
d="M817 368v-122h-66c-36 -167 -160 -266 -354 -266c-224 0 -371 156 -370 367c0 204 137 373 379 373c188 0 319 -101 331 -237h-177c-13 58 -68 101 -153 101c-143 0 -212 -102 -211 -234c-1 -131 79 -229 205 -229c96 0 159 41 183 125h-125v122h358zM404 -30
c42 0 71 -29 71 -74c0 -75 -41 -109 -115 -109v37c24 0 40 5 51 12c11 8 15 19 16 33c-4 -6 -13 -10 -23 -10c-36 0 -59 24 -59 54c0 33 25 57 59 57z" />
    <glyph glyph-name="Gdotaccent" unicode="&#x120;" horiz-adv-x="832" 
d="M407 736c-46 0 -78 34 -78 78c0 43 32 78 78 78c47 0 78 -35 78 -78c0 -44 -31 -78 -78 -78zM817 368v-122h-66c-36 -167 -160 -266 -354 -266c-224 0 -371 156 -370 367c0 204 137 373 379 373c188 0 319 -101 331 -237h-177c-13 58 -68 101 -153 101
c-143 0 -212 -102 -211 -234c-1 -131 79 -229 205 -229c96 0 159 41 183 125h-125v122h358z" />
    <glyph glyph-name="Hbar" unicode="&#x126;" horiz-adv-x="702" 
d="M669 585v-75h-35v-510h-162v278h-242v-278h-162v510h-34v75h34v115h162v-115h242v115h162v-115h35zM472 417v93h-242v-93h242z" />
    <glyph glyph-name="Hcircumflex" unicode="&#x124;" horiz-adv-x="702" 
d="M348 899l142 -112l-61 -56l-81 68l-80 -68l-61 56zM68 0v700h162v-283h242v283h162v-700h-162v278h-242v-278h-162z" />
    <glyph glyph-name="Iacute" unicode="&#xcd;" horiz-adv-x="298" 
d="M76 728l-46 78l194 99l46 -78zM68 0v700h162v-700h-162z" />
    <glyph glyph-name="Ibreve" unicode="&#x12c;" horiz-adv-x="298" 
d="M150 732c-68 0 -136 32 -136 147h89c1 -48 20 -68 47 -68s46 20 47 68h89c0 -115 -68 -147 -136 -147zM68 0v700h162v-700h-162z" />
    <glyph glyph-name="Icircumflex" unicode="&#xce;" horiz-adv-x="298" 
d="M224 730l-73 62l-76 -62l-52 56l128 105l128 -105zM68 0v700h162v-700h-162z" />
    <glyph glyph-name="Idieresis" unicode="&#xcf;" horiz-adv-x="298" 
d="M66 737c-42 0 -75 31 -75 73c0 43 33 74 75 74s74 -31 74 -74c0 -42 -32 -73 -74 -73zM234 737c-43 0 -74 31 -74 73c0 43 31 74 74 74c42 0 75 -31 75 -74c0 -42 -33 -73 -75 -73zM68 0v700h162v-700h-162z" />
    <glyph glyph-name="Idotaccent" unicode="&#x130;" horiz-adv-x="298" 
d="M150 736c-46 0 -78 34 -78 78c0 43 32 78 78 78c47 0 78 -35 78 -78c0 -44 -31 -78 -78 -78zM68 0v700h162v-700h-162z" />
    <glyph glyph-name="Igrave" unicode="&#xcc;" horiz-adv-x="298" 
d="M218 729l-182 90l46 79l182 -90zM68 0v700h162v-700h-162z" />
    <glyph glyph-name="IJ" unicode="&#x132;" horiz-adv-x="876" 
d="M68 0v700h162v-700h-162zM568 -18c-169 0 -255 109 -255 259h162c0 -72 30 -120 93 -120c64 0 95 47 95 116v463h161v-453c0 -172 -96 -265 -256 -265z" />
    <glyph glyph-name="Imacron" unicode="&#x12a;" horiz-adv-x="298" 
d="M38 764v89h224v-89h-224zM68 0v700h162v-700h-162z" />
    <glyph glyph-name="Iogonek" unicode="&#x12e;" horiz-adv-x="298" 
d="M188 -119c15 0 31 4 49 12v-83c-28 -10 -54 -16 -95 -16c-86 0 -134 45 -134 100c0 42 23 77 72 106h-12v700h162v-700c-75 -7 -95 -41 -95 -69s22 -50 53 -50z" />
    <glyph glyph-name="Itilde" unicode="&#x128;" horiz-adv-x="298" 
d="M200 746c-45 0 -66 41 -96 41c-18 0 -32 -12 -48 -33l-29 60c25 46 50 58 74 58c44 0 65 -42 95 -42c17 0 29 7 51 32l28 -61c-23 -43 -52 -55 -75 -55zM68 0v700h162v-700h-162z" />
    <glyph glyph-name="Jcircumflex" unicode="&#x134;" horiz-adv-x="578" 
d="M520 730l-73 62l-76 -62l-52 56l128 105l128 -105zM270 -18c-169 0 -255 109 -255 259h162c0 -72 30 -120 93 -120c64 0 95 47 95 116v463h161v-453c0 -172 -96 -265 -256 -265z" />
    <glyph glyph-name="Kcommaaccent" unicode="&#x136;" horiz-adv-x="661" 
d="M653 700l-275 -347l275 -353h-193l-230 309v-309h-162v700h162v-311l231 311h192zM321 -30c42 0 71 -29 71 -74c0 -75 -41 -109 -115 -109v37c24 0 40 5 51 12c11 8 15 19 16 33c-4 -6 -13 -10 -23 -10c-36 0 -59 24 -59 54c0 33 25 57 59 57z" />
    <glyph glyph-name="Lacute" unicode="&#x139;" horiz-adv-x="528" 
d="M76 728l-46 78l194 99l46 -78zM68 0v700h162v-556h260v-144h-422z" />
    <glyph glyph-name="Lcaron" unicode="&#x13d;" horiz-adv-x="528" 
d="M351 498c-7 0 -14 0 -20 1v45c6 -1 12 -1 18 -1c22 0 38 6 48 18c8 10 12 24 12 42c-8 -10 -23 -16 -41 -16c-34 0 -58 27 -58 64c0 39 28 66 70 66c47 0 82 -32 82 -98c0 -74 -40 -121 -111 -121zM68 0v700h162v-556h260v-144h-422z" />
    <glyph glyph-name="Lcommaaccent" unicode="&#x13b;" horiz-adv-x="528" 
d="M68 0v700h162v-556h260v-144h-422zM237 -213v37c24 0 40 5 51 12c11 8 15 19 16 33c-4 -6 -13 -10 -23 -10c-36 0 -59 24 -59 54c0 33 25 57 59 57c42 0 71 -29 71 -74c0 -75 -41 -109 -115 -109z" />
    <glyph glyph-name="Ldot" unicode="&#x13f;" horiz-adv-x="528" 
d="M68 0v700h162v-556h260v-144h-422zM402 307c-57 0 -101 45 -101 101c0 54 44 99 101 99s102 -45 102 -99c0 -56 -45 -101 -102 -101z" />
    <glyph glyph-name="Lslash" unicode="&#x141;" horiz-adv-x="514" 
d="M230 144h260v-144h-422v253l-44 -20v96l44 20v351h162v-276l141 65v-96l-141 -65v-184z" />
    <glyph glyph-name="Nacute" unicode="&#x143;" horiz-adv-x="700" 
d="M272 729l-40 80l217 89l39 -79zM68 0v700h166l243 -453v453h155v-700h-166l-243 453v-453h-155z" />
    <glyph glyph-name="Ncaron" unicode="&#x147;" horiz-adv-x="700" 
d="M357 734l-142 112l61 56l81 -68l80 68l61 -56zM68 0v700h166l243 -453v453h155v-700h-166l-243 453v-453h-155z" />
    <glyph glyph-name="Ncommaaccent" unicode="&#x145;" horiz-adv-x="700" 
d="M68 0v700h166l243 -453v453h155v-700h-166l-243 453v-453h-155zM310 -213v37c24 0 40 5 51 12c11 8 15 19 16 33c-4 -6 -13 -10 -23 -10c-36 0 -59 24 -59 54c0 33 25 57 59 57c42 0 71 -29 71 -74c0 -75 -41 -109 -115 -109z" />
    <glyph glyph-name="Ntilde" unicode="&#xd1;" horiz-adv-x="700" 
d="M441 729c-68 -4 -120 59 -167 59c-30 0 -49 -12 -75 -44l-49 55c45 68 84 80 113 80c66 0 117 -59 167 -59c29 0 48 7 87 45l46 -60c-41 -63 -92 -74 -122 -76zM68 0v700h166l243 -453v453h155v-700h-166l-243 453v-453h-155z" />
    <glyph glyph-name="Eng" unicode="&#x14a;" horiz-adv-x="700" 
d="M477 700h155v-751c0 -106 -65 -155 -181 -155c-35 0 -58 4 -79 12v116c13 -2 29 -4 47 -4c34 0 51 13 51 56v26h-4l-243 453v-453h-155v700h166l243 -453v453z" />
    <glyph glyph-name="Oacute" unicode="&#xd3;" horiz-adv-x="801" 
d="M316 729l-40 80l217 89l39 -79zM401 -20c-235 0 -374 171 -374 370s139 370 374 370s374 -171 374 -370s-139 -370 -374 -370zM401 125c133 0 205 103 205 225s-72 225 -205 225c-134 0 -206 -103 -205 -225c-1 -122 71 -225 205 -225z" />
    <glyph glyph-name="Obreve" unicode="&#x14e;" horiz-adv-x="801" 
d="M401 735c-99 0 -173 61 -179 142h95c7 -45 42 -63 84 -63s77 18 84 63h95c-6 -81 -80 -142 -179 -142zM401 -20c-235 0 -374 171 -374 370s139 370 374 370s374 -171 374 -370s-139 -370 -374 -370zM401 125c133 0 205 103 205 225s-72 225 -205 225
c-134 0 -206 -103 -205 -225c-1 -122 71 -225 205 -225z" />
    <glyph glyph-name="Ocircumflex" unicode="&#xd4;" horiz-adv-x="801" 
d="M398 899l142 -112l-61 -56l-81 68l-80 -68l-61 56zM401 -20c-235 0 -374 171 -374 370s139 370 374 370s374 -171 374 -370s-139 -370 -374 -370zM401 125c133 0 205 103 205 225s-72 225 -205 225c-134 0 -206 -103 -205 -225c-1 -122 71 -225 205 -225z" />
    <glyph glyph-name="Odieresis" unicode="&#xd6;" horiz-adv-x="801" 
d="M282 733c-45 0 -82 37 -82 80c0 45 37 81 82 81c47 0 82 -36 82 -81c0 -43 -35 -80 -82 -80zM518 733c-46 0 -81 37 -81 80c0 45 35 81 81 81s83 -36 83 -81c0 -43 -37 -80 -83 -80zM401 -20c-235 0 -374 171 -374 370s139 370 374 370s374 -171 374 -370
s-139 -370 -374 -370zM401 125c133 0 205 103 205 225s-72 225 -205 225c-134 0 -206 -103 -205 -225c-1 -122 71 -225 205 -225z" />
    <glyph glyph-name="OE" unicode="&#x152;" horiz-adv-x="904" 
d="M844 570h-236v-159h236v-127h-236v-154h236v-130h-467c-220 0 -350 161 -350 350s130 350 350 350h467v-130zM387 138h60v424h-60c-124 0 -191 -96 -191 -212s66 -212 191 -212z" />
    <glyph glyph-name="Ograve" unicode="&#xd2;" horiz-adv-x="801" 
d="M485 729l-216 90l39 79l217 -89zM401 -20c-235 0 -374 171 -374 370s139 370 374 370s374 -171 374 -370s-139 -370 -374 -370zM401 125c133 0 205 103 205 225s-72 225 -205 225c-134 0 -206 -103 -205 -225c-1 -122 71 -225 205 -225z" />
    <glyph glyph-name="Ohungarumlaut" unicode="&#x150;" horiz-adv-x="801" 
d="M319 737l-63 26l133 132l103 -40zM500 736l-62 27l133 132l102 -42zM401 -20c-235 0 -374 171 -374 370s139 370 374 370s374 -171 374 -370s-139 -370 -374 -370zM401 125c133 0 205 103 205 225s-72 225 -205 225c-134 0 -206 -103 -205 -225c-1 -122 71 -225 205 -225
z" />
    <glyph glyph-name="Omacron" unicode="&#x14c;" horiz-adv-x="801" 
d="M203 761v92h396v-92h-396zM401 -20c-235 0 -374 171 -374 370s139 370 374 370s374 -171 374 -370s-139 -370 -374 -370zM401 125c133 0 205 103 205 225s-72 225 -205 225c-134 0 -206 -103 -205 -225c-1 -122 71 -225 205 -225z" />
    <glyph glyph-name="Oslash" unicode="&#xd8;" horiz-adv-x="801" 
d="M590 676c118 -64 185 -188 185 -326c0 -199 -139 -370 -374 -370c-38 0 -74 5 -108 13l-36 -84l-74 34l34 79c-122 63 -190 188 -190 328c0 199 139 370 374 370c41 0 80 -5 115 -15l36 83l72 -33zM196 350c-1 -77 28 -147 83 -187l177 405c-17 5 -35 7 -55 7
c-134 0 -206 -103 -205 -225zM401 125c133 0 205 103 205 225c0 75 -27 142 -78 183l-175 -403c15 -3 31 -5 48 -5z" />
    <glyph glyph-name="Oslashacute" unicode="&#x1fe;" horiz-adv-x="801" 
d="M535 819l-216 -90l-40 80l217 89zM590 676c118 -64 185 -188 185 -326c0 -199 -139 -370 -374 -370c-38 0 -74 5 -108 13l-36 -84l-74 34l34 79c-122 63 -190 188 -190 328c0 199 139 370 374 370c41 0 80 -5 115 -15l36 83l72 -33zM196 350c-1 -77 28 -147 83 -187
l177 405c-17 5 -35 7 -55 7c-134 0 -206 -103 -205 -225zM401 125c133 0 205 103 205 225c0 75 -27 142 -78 183l-175 -403c15 -3 31 -5 48 -5z" />
    <glyph glyph-name="Otilde" unicode="&#xd5;" horiz-adv-x="801" 
d="M485 729c-68 -4 -120 59 -167 59c-30 0 -49 -12 -75 -44l-49 55c45 68 84 80 113 80c66 0 117 -59 167 -59c29 0 48 7 87 45l46 -60c-41 -63 -92 -74 -122 -76zM401 -20c-235 0 -374 171 -374 370s139 370 374 370s374 -171 374 -370s-139 -370 -374 -370zM401 125
c133 0 205 103 205 225s-72 225 -205 225c-134 0 -206 -103 -205 -225c-1 -122 71 -225 205 -225z" />
    <glyph glyph-name="Racute" unicode="&#x154;" horiz-adv-x="650" 
d="M454 819l-216 -90l-40 80l217 89zM617 447c0 -102 -51 -185 -131 -225l123 -222h-184l-110 194h-85v-194h-162v700h298c146 0 251 -106 251 -253zM230 568v-242h111c65 0 112 51 112 121s-47 121 -112 121h-111z" />
    <glyph glyph-name="Rcaron" unicode="&#x158;" horiz-adv-x="650" 
d="M464 846l-141 -112l-142 112l61 56l81 -68l80 68zM617 447c0 -102 -51 -185 -131 -225l123 -222h-184l-110 194h-85v-194h-162v700h298c146 0 251 -106 251 -253zM230 568v-242h111c65 0 112 51 112 121s-47 121 -112 121h-111z" />
    <glyph glyph-name="Rcommaaccent" unicode="&#x156;" horiz-adv-x="650" 
d="M617 447c0 -102 -51 -185 -131 -225l123 -222h-184l-110 194h-85v-194h-162v700h298c146 0 251 -106 251 -253zM230 568v-242h111c65 0 112 51 112 121s-47 121 -112 121h-111zM320 -30c42 0 71 -29 71 -74c0 -75 -41 -109 -115 -109v37c24 0 40 5 51 12
c11 8 15 19 16 33c-4 -6 -13 -10 -23 -10c-36 0 -59 24 -59 54c0 33 25 57 59 57z" />
    <glyph glyph-name="Sacute" unicode="&#x15a;" horiz-adv-x="581" 
d="M202 729l-40 80l217 89l39 -79zM298 -20c-172 0 -275 92 -275 249h162c0 -76 43 -121 114 -121c60 0 94 28 94 77c0 43 -22 65 -85 90l-126 49c-94 35 -142 100 -142 191c0 123 97 205 249 205c154 0 256 -87 256 -222h-162c0 65 -34 101 -97 101c-53 0 -84 -27 -84 -69
c0 -39 27 -63 96 -91l116 -46c97 -38 141 -103 141 -197c0 -131 -102 -216 -257 -216z" />
    <glyph glyph-name="Scaron" unicode="&#x160;" horiz-adv-x="581" 
d="M287 734l-142 112l61 56l81 -68l80 68l61 -56zM298 -20c-172 0 -275 92 -275 249h162c0 -76 43 -121 114 -121c60 0 94 28 94 77c0 43 -22 65 -85 90l-126 49c-94 35 -142 100 -142 191c0 123 97 205 249 205c154 0 256 -87 256 -222h-162c0 65 -34 101 -97 101
c-53 0 -84 -27 -84 -69c0 -39 27 -63 96 -91l116 -46c97 -38 141 -103 141 -197c0 -131 -102 -216 -257 -216z" />
    <glyph glyph-name="Scedilla" unicode="&#x15e;" horiz-adv-x="581" 
d="M555 196c0 -125 -93 -208 -237 -216v-39c7 6 24 11 42 11c44 0 78 -30 78 -77s-33 -87 -97 -87c-54 0 -92 28 -96 73h63c1 -15 16 -24 31 -24c20 0 33 13 33 38c0 24 -13 36 -32 36c-13 0 -23 -6 -29 -15h-57v86c-145 15 -231 104 -231 247h162c0 -76 43 -121 114 -121
c60 0 94 28 94 77c0 43 -22 65 -85 90l-126 49c-94 35 -142 100 -142 191c0 123 97 205 249 205c154 0 256 -87 256 -222h-162c0 65 -34 101 -97 101c-53 0 -84 -27 -84 -69c0 -39 27 -63 96 -91l116 -46c97 -38 141 -103 141 -197z" />
    <glyph glyph-name="Scircumflex" unicode="&#x15c;" horiz-adv-x="581" 
d="M284 899l142 -112l-61 -56l-81 68l-80 -68l-61 56zM298 -20c-172 0 -275 92 -275 249h162c0 -76 43 -121 114 -121c60 0 94 28 94 77c0 43 -22 65 -85 90l-126 49c-94 35 -142 100 -142 191c0 123 97 205 249 205c154 0 256 -87 256 -222h-162c0 65 -34 101 -97 101
c-53 0 -84 -27 -84 -69c0 -39 27 -63 96 -91l116 -46c97 -38 141 -103 141 -197c0 -131 -102 -216 -257 -216z" />
    <glyph glyph-name="Scommaaccent" unicode="&#x218;" horiz-adv-x="581" 
d="M298 -20c-172 0 -275 92 -275 249h162c0 -76 43 -121 114 -121c60 0 94 28 94 77c0 43 -22 65 -85 90l-126 49c-94 35 -142 100 -142 191c0 123 97 205 249 205c154 0 256 -87 256 -222h-162c0 65 -34 101 -97 101c-53 0 -84 -27 -84 -69c0 -39 27 -63 96 -91l116 -46
c97 -38 141 -103 141 -197c0 -131 -102 -216 -257 -216zM240 -213v37c24 0 40 5 51 12c11 8 15 19 16 33c-4 -6 -13 -10 -23 -10c-36 0 -59 24 -59 54c0 33 25 57 59 57c42 0 71 -29 71 -74c0 -75 -41 -109 -115 -109z" />
    <glyph glyph-name="Tbar" unicode="&#x166;" horiz-adv-x="556" 
d="M551 556h-193v-132h128v-89h-128v-335h-161v335h-127v89h127v132h-192v144h546v-144z" />
    <glyph glyph-name="Tcaron" unicode="&#x164;" horiz-adv-x="556" 
d="M278 734l-142 112l61 56l81 -68l80 68l61 -56zM197 0v556h-192v144h546v-144h-193v-556h-161z" />
    <glyph glyph-name="uni0162" unicode="&#x162;" horiz-adv-x="556" 
d="M358 0h-49v-59c7 6 24 11 42 11c44 0 78 -30 78 -77s-33 -87 -97 -87c-54 0 -92 28 -96 73h63c1 -15 16 -24 31 -24c20 0 33 13 33 38c0 24 -13 36 -32 36c-13 0 -23 -6 -29 -15h-57v104h-48v556h-192v144h546v-144h-193v-556z" />
    <glyph glyph-name="uni021A" unicode="&#x21a;" horiz-adv-x="556" 
d="M197 0v556h-192v144h546v-144h-193v-556h-161zM231 -213v37c24 0 40 5 51 12c11 8 15 19 16 33c-4 -6 -13 -10 -23 -10c-36 0 -59 24 -59 54c0 33 25 57 59 57c42 0 71 -29 71 -74c0 -75 -41 -109 -115 -109z" />
    <glyph glyph-name="Thorn" unicode="&#xde;" horiz-adv-x="626" 
d="M367 603c155 0 250 -117 250 -253s-95 -253 -250 -253h-137v-97h-162v700h162v-97h137zM342 229c68 0 112 56 112 121s-44 121 -112 121h-112v-242h112z" />
    <glyph glyph-name="Uacute" unicode="&#xda;" horiz-adv-x="669" 
d="M249 729l-40 80l217 89l39 -79zM334 -18c-172 0 -282 92 -282 255v463h161v-453c0 -80 48 -125 121 -125c74 0 121 45 121 125v453h162v-463c0 -163 -111 -255 -283 -255z" />
    <glyph glyph-name="Ubreve" unicode="&#x16c;" horiz-adv-x="669" 
d="M334 735c-99 0 -173 61 -179 142h95c7 -45 42 -63 84 -63s77 18 84 63h95c-6 -81 -80 -142 -179 -142zM334 -18c-172 0 -282 92 -282 255v463h161v-453c0 -80 48 -125 121 -125c74 0 121 45 121 125v453h162v-463c0 -163 -111 -255 -283 -255z" />
    <glyph glyph-name="Ucircumflex" unicode="&#xdb;" horiz-adv-x="669" 
d="M331 899l142 -112l-61 -56l-81 68l-80 -68l-61 56zM334 -18c-172 0 -282 92 -282 255v463h161v-453c0 -80 48 -125 121 -125c74 0 121 45 121 125v453h162v-463c0 -163 -111 -255 -283 -255z" />
    <glyph glyph-name="Udieresis" unicode="&#xdc;" horiz-adv-x="669" 
d="M215 733c-45 0 -82 37 -82 80c0 45 37 81 82 81c47 0 82 -36 82 -81c0 -43 -35 -80 -82 -80zM451 733c-46 0 -81 37 -81 80c0 45 35 81 81 81s83 -36 83 -81c0 -43 -37 -80 -83 -80zM334 -18c-172 0 -282 92 -282 255v463h161v-453c0 -80 48 -125 121 -125
c74 0 121 45 121 125v453h162v-463c0 -163 -111 -255 -283 -255z" />
    <glyph glyph-name="Ugrave" unicode="&#xd9;" horiz-adv-x="669" 
d="M418 729l-216 90l39 79l217 -89zM334 -18c-172 0 -282 92 -282 255v463h161v-453c0 -80 48 -125 121 -125c74 0 121 45 121 125v453h162v-463c0 -163 -111 -255 -283 -255z" />
    <glyph glyph-name="Uhungarumlaut" unicode="&#x170;" horiz-adv-x="669" 
d="M252 737l-63 26l133 132l103 -40zM433 736l-62 27l133 132l102 -42zM334 -18c-172 0 -282 92 -282 255v463h161v-453c0 -80 48 -125 121 -125c74 0 121 45 121 125v453h162v-463c0 -163 -111 -255 -283 -255z" />
    <glyph glyph-name="Umacron" unicode="&#x16a;" horiz-adv-x="669" 
d="M136 761v92h396v-92h-396zM334 -18c-172 0 -282 92 -282 255v463h161v-453c0 -80 48 -125 121 -125c74 0 121 45 121 125v453h162v-463c0 -163 -111 -255 -283 -255z" />
    <glyph glyph-name="Uogonek" unicode="&#x172;" horiz-adv-x="669" 
d="M455 700h162v-463c0 -141 -83 -229 -218 -250c-30 -14 -40 -37 -40 -56c0 -28 22 -50 53 -50c15 0 31 4 49 12v-83c-28 -10 -54 -16 -95 -16c-86 0 -134 45 -134 100c0 35 16 65 50 91c-142 17 -230 106 -230 252v463h161v-453c0 -80 48 -125 121 -125
c74 0 121 45 121 125v453z" />
    <glyph glyph-name="Uring" unicode="&#x16e;" horiz-adv-x="669" 
d="M334 663c-70 0 -125 54 -125 118c0 65 55 118 125 118s125 -53 125 -118c0 -64 -55 -118 -125 -118zM334 726c31 0 55 24 55 55c0 32 -24 55 -55 55s-55 -23 -55 -55c0 -31 24 -55 55 -55zM334 -18c-172 0 -282 92 -282 255v463h161v-453c0 -80 48 -125 121 -125
c74 0 121 45 121 125v453h162v-463c0 -163 -111 -255 -283 -255z" />
    <glyph glyph-name="Utilde" unicode="&#x168;" horiz-adv-x="669" 
d="M418 729c-68 -4 -120 59 -167 59c-30 0 -49 -12 -75 -44l-49 55c45 68 84 80 113 80c66 0 117 -59 167 -59c29 0 48 7 87 45l46 -60c-41 -63 -92 -74 -122 -76zM334 -18c-172 0 -282 92 -282 255v463h161v-453c0 -80 48 -125 121 -125c74 0 121 45 121 125v453h162v-463
c0 -163 -111 -255 -283 -255z" />
    <glyph glyph-name="Wacute" unicode="&#x1e82;" horiz-adv-x="1030" 
d="M430 729l-40 80l217 89l39 -79zM244 0l-247 700h170l146 -465l139 465h126l139 -465l146 465h170l-247 -700h-132l-139 440l-139 -440h-132z" />
    <glyph glyph-name="Wcircumflex" unicode="&#x174;" horiz-adv-x="1030" 
d="M512 899l142 -112l-61 -56l-81 68l-80 -68l-61 56zM244 0l-247 700h170l146 -465l139 465h126l139 -465l146 465h170l-247 -700h-132l-139 440l-139 -440h-132z" />
    <glyph glyph-name="Wdieresis" unicode="&#x1e84;" horiz-adv-x="1030" 
d="M396 733c-45 0 -82 37 -82 80c0 45 37 81 82 81c47 0 82 -36 82 -81c0 -43 -35 -80 -82 -80zM632 733c-46 0 -81 37 -81 80c0 45 35 81 81 81s83 -36 83 -81c0 -43 -37 -80 -83 -80zM244 0l-247 700h170l146 -465l139 465h126l139 -465l146 465h170l-247 -700h-132
l-139 440l-139 -440h-132z" />
    <glyph glyph-name="Wgrave" unicode="&#x1e80;" horiz-adv-x="1030" 
d="M599 729l-216 90l39 79l217 -89zM244 0l-247 700h170l146 -465l139 465h126l139 -465l146 465h170l-247 -700h-132l-139 440l-139 -440h-132z" />
    <glyph glyph-name="Yacute" unicode="&#xdd;" horiz-adv-x="612" 
d="M447 819l-216 -90l-40 80l217 89zM453 700h179l-347 -700h-180l130 264l-248 436h188l149 -276z" />
    <glyph glyph-name="Ycircumflex" unicode="&#x176;" horiz-adv-x="612" 
d="M313 799l-80 -68l-61 56l141 112l142 -112l-61 -56zM453 700h179l-347 -700h-180l130 264l-248 436h188l149 -276z" />
    <glyph glyph-name="Ydieresis" unicode="&#x178;" horiz-adv-x="612" 
d="M197 733c-45 0 -82 37 -82 80c0 45 37 81 82 81c47 0 82 -36 82 -81c0 -43 -35 -80 -82 -80zM433 733c-46 0 -81 37 -81 80c0 45 35 81 81 81s83 -36 83 -81c0 -43 -37 -80 -83 -80zM453 700h179l-347 -700h-180l130 264l-248 436h188l149 -276z" />
    <glyph glyph-name="Ygrave" unicode="&#x1ef2;" horiz-adv-x="612" 
d="M440 809l-40 -80l-216 90l39 79zM453 700h179l-347 -700h-180l130 264l-248 436h188l149 -276z" />
    <glyph glyph-name="Zacute" unicode="&#x179;" horiz-adv-x="620" 
d="M241 729l-40 80l217 89l39 -79zM13 0l332 564h-289v136h546l-329 -564h311v-136h-571z" />
    <glyph glyph-name="Zcaron" unicode="&#x17d;" horiz-adv-x="620" 
d="M326 734l-142 112l61 56l81 -68l80 68l61 -56zM13 0l332 564h-289v136h546l-329 -564h311v-136h-571z" />
    <glyph glyph-name="Zdotaccent" unicode="&#x17b;" horiz-adv-x="620" 
d="M326 736c-46 0 -78 34 -78 78c0 43 32 78 78 78c47 0 78 -35 78 -78c0 -44 -31 -78 -78 -78zM13 0l332 564h-289v136h546l-329 -564h311v-136h-571z" />
    <glyph glyph-name="a" unicode="a" horiz-adv-x="624" 
d="M255 -13c-144 0 -227 109 -227 254c0 144 89 254 229 254c70 0 125 -33 151 -82v69h152v-482h-152v68c-26 -48 -86 -81 -153 -81zM299 114c76 0 115 57 115 127c0 69 -39 126 -115 126c-71 0 -115 -53 -115 -126s44 -127 115 -127z" />
    <glyph glyph-name="b" unicode="b" horiz-adv-x="624" 
d="M373 495c132 0 222 -102 222 -254c0 -151 -93 -254 -226 -254c-71 0 -129 36 -153 81v-68h-153v701h153v-288c25 46 85 82 157 82zM325 114c67 0 114 52 114 127c0 74 -47 126 -114 126c-69 0 -116 -51 -116 -126c0 -76 48 -127 116 -127z" />
    <glyph glyph-name="c" unicode="c" horiz-adv-x="558" 
d="M283 -15c-159 0 -258 104 -258 256s99 255 258 255c144 0 238 -77 250 -197h-153c-11 45 -40 68 -96 68c-66 0 -106 -46 -106 -126s40 -126 106 -126c56 0 85 22 96 64h153c-12 -117 -106 -194 -250 -194z" />
    <glyph glyph-name="d" unicode="d" horiz-adv-x="624" 
d="M407 700h153v-700h-152v68c-26 -48 -86 -81 -153 -81c-144 0 -227 109 -227 254c0 144 89 254 229 254c70 0 125 -33 151 -82v41h-1v246zM299 114c76 0 115 57 115 127c0 69 -39 126 -115 126c-71 0 -115 -53 -115 -126s44 -127 115 -127z" />
    <glyph glyph-name="e" unicode="e" horiz-adv-x="562" 
d="M537 266c0 -26 -1 -39 -4 -67h-356c3 -63 45 -99 113 -99c47 0 77 15 90 45h150c-15 -95 -112 -160 -240 -160c-164 0 -265 95 -265 256c0 158 103 255 260 255c150 0 252 -94 252 -230zM177 294h209c-1 64 -37 100 -102 100c-66 0 -106 -41 -107 -100z" />
    <glyph glyph-name="f" unicode="f" horiz-adv-x="381" 
d="M326 592c-33 0 -70 -8 -70 -61v-49h112v-121h-112v-361h-153v361h-86v121h86v47c0 148 105 180 177 180c41 0 69 -5 88 -11v-109c-16 1 -28 3 -42 3z" />
    <glyph glyph-name="g" unicode="g" horiz-adv-x="624" 
d="M408 482h153v-449c0 -95 -34 -164 -93 -205c-44 -31 -103 -43 -172 -43s-127 11 -174 39c-49 30 -84 82 -86 134h156c7 -38 40 -61 102 -61c71 0 114 31 114 117v64c-24 -48 -88 -78 -151 -78c-143 0 -229 104 -229 246s92 249 231 249c66 0 125 -32 149 -82v69zM299 118
c73 0 116 56 116 126s-43 126 -116 126c-69 0 -114 -53 -114 -126s45 -126 114 -126z" />
    <glyph glyph-name="h" unicode="h" horiz-adv-x="607" 
d="M372 495c117 0 176 -66 176 -197v-298h-154v248c0 81 -23 118 -85 118c-61 0 -93 -40 -93 -114v-252h-153v700h153v-288c28 54 83 83 156 83z" />
    <glyph glyph-name="i" unicode="i" horiz-adv-x="279" 
d="M140 524c-55 0 -95 42 -95 94c0 51 40 94 95 94c56 0 95 -43 95 -94c0 -52 -39 -94 -95 -94zM63 0v482h153v-482h-153z" />
    <glyph glyph-name="j" unicode="j" horiz-adv-x="281" 
d="M142 524c-55 0 -95 42 -95 94c0 51 40 94 95 94c56 0 95 -43 95 -94c0 -52 -39 -94 -95 -94zM62 -206c-33 0 -52 3 -73 10v118c13 -3 23 -4 37 -4c26 0 39 14 39 46v518h153v-537c0 -101 -56 -151 -156 -151z" />
    <glyph glyph-name="k" unicode="k" horiz-adv-x="576" 
d="M556 0h-187l-153 209v-209h-153v700h153v-419l157 201h180l-192 -228z" />
    <glyph glyph-name="l" unicode="l" horiz-adv-x="279" 
d="M63 0v700h153v-700h-153z" />
    <glyph glyph-name="m" unicode="m" horiz-adv-x="888" 
d="M63 0v482h153v-70c21 48 71 83 138 83c86 0 130 -38 151 -89c26 52 83 89 154 89c138 0 171 -95 171 -196v-299h-154v271c0 67 -25 95 -72 95c-48 0 -81 -27 -81 -118v-248h-154v272c0 67 -24 94 -71 94c-49 0 -82 -27 -82 -118v-248h-153z" />
    <glyph glyph-name="n" unicode="n" horiz-adv-x="607" 
d="M63 0v482h153v-70c28 54 83 83 156 83c117 0 176 -66 176 -197v-298h-154v248c0 81 -23 118 -85 118c-61 0 -93 -40 -93 -114v-252h-153z" />
    <glyph glyph-name="o" unicode="o" horiz-adv-x="585" 
d="M293 -15c-166 0 -268 109 -268 256s102 255 268 255c165 0 267 -108 267 -255s-102 -256 -267 -256zM293 115c72 0 115 53 115 126s-43 126 -115 126c-73 0 -115 -53 -115 -126s42 -126 115 -126z" />
    <glyph glyph-name="p" unicode="p" horiz-adv-x="624" 
d="M373 495c132 0 222 -102 222 -254c0 -151 -93 -254 -226 -254c-71 0 -129 36 -153 81v-268h-153v682h153v-69c25 46 85 82 157 82zM325 114c67 0 114 52 114 127c0 74 -47 126 -114 126c-69 0 -116 -51 -116 -126c0 -76 48 -127 116 -127z" />
    <glyph glyph-name="q" unicode="q" horiz-adv-x="624" 
d="M408 482h152v-682h-153v242h1v26c-26 -48 -86 -81 -153 -81c-144 0 -227 109 -227 254c0 144 89 254 229 254c70 0 125 -33 151 -82v69zM299 114c76 0 115 57 115 127c0 69 -39 126 -115 126c-71 0 -115 -53 -115 -126s44 -127 115 -127z" />
    <glyph glyph-name="r" unicode="r" horiz-adv-x="408" 
d="M63 0v482h153v-101c17 72 74 109 133 109c18 0 28 -1 40 -4v-142c-18 2 -27 3 -46 3c-75 0 -127 -45 -127 -161v-186h-153z" />
    <glyph glyph-name="s" unicode="s" horiz-adv-x="499" 
d="M256 -15c-141 0 -228 69 -228 160h152c0 -33 32 -57 79 -57c33 0 56 17 56 45c0 19 -9 35 -35 41l-118 30c-80 20 -121 70 -121 139c0 90 79 153 206 153c141 0 215 -59 215 -150h-151c0 34 -25 53 -66 53c-33 0 -55 -16 -55 -40c0 -22 15 -36 41 -43l114 -31
c74 -20 122 -65 122 -134c0 -99 -79 -166 -211 -166z" />
    <glyph glyph-name="t" unicode="t" horiz-adv-x="394" 
d="M316 119c19 0 39 1 53 3v-122c-22 -4 -58 -8 -102 -8c-72 0 -171 16 -171 177v192h-76v121h76v143h153v-143h109v-121h-109v-160c0 -71 29 -82 67 -82z" />
    <glyph glyph-name="u" unicode="u" horiz-adv-x="602" 
d="M236 -13c-116 0 -178 72 -178 197v298h155v-264c0 -66 22 -102 80 -102c65 0 93 42 93 107v259h152v-482h-152v69c-27 -51 -77 -82 -150 -82z" />
    <glyph glyph-name="v" unicode="v" horiz-adv-x="549" 
d="M205 0l-208 482h169l108 -303l108 303h170l-209 -482h-138z" />
    <glyph glyph-name="w" unicode="w" horiz-adv-x="813" 
d="M177 0l-174 482h160l87 -292l82 292h149l82 -292l87 292h159l-173 -482h-137l-93 293l-92 -293h-137z" />
    <glyph glyph-name="x" unicode="x" horiz-adv-x="555" 
d="M8 0l176 243l-173 239h183l83 -140l84 140h183l-173 -239l176 -243h-183l-87 144l-86 -144h-183z" />
    <glyph glyph-name="y" unicode="y" horiz-adv-x="605" 
d="M389 482h153v-467c0 -78 -28 -137 -69 -174c-43 -37 -96 -56 -177 -56c-82 0 -138 17 -178 50c-35 30 -59 75 -60 127h154c3 -41 26 -65 84 -65c56 0 93 33 93 108v75c-27 -51 -80 -80 -153 -80c-123 0 -178 82 -178 202v280h153v-257c0 -62 21 -104 85 -104
c62 0 93 48 93 122v239z" />
    <glyph glyph-name="z" unicode="z" horiz-adv-x="479" 
d="M5 0l237 355h-214v127h446l-233 -356h215v-126h-451z" />
    <glyph glyph-name="aacute" unicode="&#xe1;" horiz-adv-x="624" 
d="M164 516l-33 90l288 99l33 -89zM255 -13c-144 0 -227 109 -227 254c0 144 89 254 229 254c70 0 125 -33 151 -82v69h152v-482h-152v68c-26 -48 -86 -81 -153 -81zM299 114c76 0 115 57 115 127c0 69 -39 126 -115 126c-71 0 -115 -53 -115 -126s44 -127 115 -127z" />
    <glyph glyph-name="abreve" unicode="&#x103;" horiz-adv-x="624" 
d="M298 522c-112 0 -180 58 -186 154h113c2 -44 30 -66 73 -66c44 0 72 22 74 66h112c-5 -96 -77 -154 -186 -154zM255 -13c-144 0 -227 109 -227 254c0 144 89 254 229 254c70 0 125 -33 151 -82v69h152v-482h-152v68c-26 -48 -86 -81 -153 -81zM299 114
c76 0 115 57 115 127c0 69 -39 126 -115 126c-71 0 -115 -53 -115 -126s44 -127 115 -127z" />
    <glyph glyph-name="acircumflex" unicode="&#xe2;" horiz-adv-x="624" 
d="M299 714l169 -136l-65 -64l-104 87l-104 -87l-66 64zM255 -13c-144 0 -227 109 -227 254c0 144 89 254 229 254c70 0 125 -33 151 -82v69h152v-482h-152v68c-26 -48 -86 -81 -153 -81zM299 114c76 0 115 57 115 127c0 69 -39 126 -115 126c-71 0 -115 -53 -115 -126
s44 -127 115 -127z" />
    <glyph glyph-name="adieresis" unicode="&#xe4;" horiz-adv-x="624" 
d="M189 537c-49 0 -86 38 -86 85s37 85 86 85s86 -38 86 -85s-37 -85 -86 -85zM408 537c-48 0 -86 38 -86 85s38 85 86 85c49 0 87 -38 87 -85s-38 -85 -87 -85zM255 -13c-144 0 -227 109 -227 254c0 144 89 254 229 254c70 0 125 -33 151 -82v69h152v-482h-152v68
c-26 -48 -86 -81 -153 -81zM299 114c76 0 115 57 115 127c0 69 -39 126 -115 126c-71 0 -115 -53 -115 -126s44 -127 115 -127z" />
    <glyph glyph-name="ae" unicode="&#xe6;" horiz-adv-x="916" 
d="M891 264c0 -25 -1 -37 -4 -65h-356c2 -64 44 -100 111 -100c48 0 79 18 92 55h150c-15 -102 -112 -170 -240 -170c-83 0 -152 30 -196 84c-44 -52 -111 -83 -210 -83c-121 0 -206 57 -206 145c0 50 16 93 59 122c45 31 103 38 212 38h81v38c0 32 -19 65 -87 65
c-65 0 -90 -27 -92 -69h-154c8 104 99 172 247 172c84 0 140 -23 175 -61c43 39 100 60 166 60c150 0 252 -94 252 -231zM531 291h209c0 64 -38 103 -101 103s-107 -43 -108 -103zM385 181v19h-99c-67 0 -92 -24 -92 -55c0 -38 33 -55 82 -55c51 0 109 25 109 91z" />
    <glyph glyph-name="aeacute" unicode="&#x1fd;" horiz-adv-x="916" 
d="M635 616l-288 -100l-33 90l288 99zM891 264c0 -25 -1 -37 -4 -65h-356c2 -64 44 -100 111 -100c48 0 79 18 92 55h150c-15 -102 -112 -170 -240 -170c-83 0 -152 30 -196 84c-44 -52 -111 -83 -210 -83c-121 0 -206 57 -206 145c0 50 16 93 59 122c45 31 103 38 212 38
h81v38c0 32 -19 65 -87 65c-65 0 -90 -27 -92 -69h-154c8 104 99 172 247 172c84 0 140 -23 175 -61c43 39 100 60 166 60c150 0 252 -94 252 -231zM531 291h209c0 64 -38 103 -101 103s-107 -43 -108 -103zM385 181v19h-99c-67 0 -92 -24 -92 -55c0 -38 33 -55 82 -55
c51 0 109 25 109 91z" />
    <glyph glyph-name="agrave" unicode="&#xe0;" horiz-adv-x="624" 
d="M417 514l-288 100l33 89l288 -99zM255 -13c-144 0 -227 109 -227 254c0 144 89 254 229 254c70 0 125 -33 151 -82v69h152v-482h-152v68c-26 -48 -86 -81 -153 -81zM299 114c76 0 115 57 115 127c0 69 -39 126 -115 126c-71 0 -115 -53 -115 -126s44 -127 115 -127z" />
    <glyph glyph-name="amacron" unicode="&#x101;" horiz-adv-x="624" 
d="M128 563v95h342v-95h-342zM255 -13c-144 0 -227 109 -227 254c0 144 89 254 229 254c70 0 125 -33 151 -82v69h152v-482h-152v68c-26 -48 -86 -81 -153 -81zM299 114c76 0 115 57 115 127c0 69 -39 126 -115 126c-71 0 -115 -53 -115 -126s44 -127 115 -127z" />
    <glyph glyph-name="aogonek" unicode="&#x105;" horiz-adv-x="624" 
d="M528 -119c15 0 31 4 49 12v-83c-28 -10 -54 -16 -95 -16c-86 0 -134 45 -134 100c0 42 23 77 72 106h-12v68c-26 -48 -86 -81 -153 -81c-144 0 -227 109 -227 254c0 144 89 254 229 254c70 0 125 -33 151 -82v69h152v-482h10c-75 -7 -95 -41 -95 -69s22 -50 53 -50z
M299 114c76 0 115 57 115 127c0 69 -39 126 -115 126c-71 0 -115 -53 -115 -126s44 -127 115 -127z" />
    <glyph glyph-name="aring" unicode="&#xe5;" horiz-adv-x="624" 
d="M299 515c-64 0 -114 45 -114 109c0 65 50 109 114 109s114 -44 114 -109c0 -64 -50 -109 -114 -109zM299 571c28 0 49 21 49 53s-21 54 -49 54s-49 -22 -49 -54s21 -53 49 -53zM255 -13c-144 0 -227 109 -227 254c0 144 89 254 229 254c70 0 125 -33 151 -82v69h152v-482
h-152v68c-26 -48 -86 -81 -153 -81zM299 114c76 0 115 57 115 127c0 69 -39 126 -115 126c-71 0 -115 -53 -115 -126s44 -127 115 -127z" />
    <glyph glyph-name="atilde" unicode="&#xe3;" horiz-adv-x="624" 
d="M376 529c-61 0 -95 53 -142 53c-25 0 -47 -10 -74 -36l-38 70c38 54 76 64 103 64c61 0 94 -53 142 -53c25 0 47 9 74 36l38 -70c-38 -53 -76 -64 -103 -64zM255 -13c-144 0 -227 109 -227 254c0 144 89 254 229 254c70 0 125 -33 151 -82v69h152v-482h-152v68
c-26 -48 -86 -81 -153 -81zM299 114c76 0 115 57 115 127c0 69 -39 126 -115 126c-71 0 -115 -53 -115 -126s44 -127 115 -127z" />
    <glyph glyph-name="cacute" unicode="&#x107;" horiz-adv-x="558" 
d="M146 516l-33 90l288 99l33 -89zM283 -15c-159 0 -258 104 -258 256s99 255 258 255c144 0 238 -77 250 -197h-153c-11 45 -40 68 -96 68c-66 0 -106 -46 -106 -126s40 -126 106 -126c56 0 85 22 96 64h153c-12 -117 -106 -194 -250 -194z" />
    <glyph glyph-name="ccaron" unicode="&#x10d;" horiz-adv-x="558" 
d="M281 512l-170 136l66 64l104 -87l104 87l65 -64zM283 -15c-159 0 -258 104 -258 256s99 255 258 255c144 0 238 -77 250 -197h-153c-11 45 -40 68 -96 68c-66 0 -106 -46 -106 -126s40 -126 106 -126c56 0 85 22 96 64h153c-12 -117 -106 -194 -250 -194z" />
    <glyph glyph-name="ccedilla" unicode="&#xe7;" horiz-adv-x="558" 
d="M284 115c56 0 85 22 96 64h153c-11 -110 -95 -184 -224 -193v-45c7 6 24 11 42 11c44 0 78 -30 78 -77s-33 -87 -97 -87c-54 0 -92 28 -96 73h63c1 -15 16 -24 31 -24c20 0 33 13 33 38c0 24 -13 36 -32 36c-13 0 -23 -6 -29 -15h-57v91c-137 15 -220 115 -220 254
c0 152 99 255 258 255c144 0 238 -77 250 -197h-153c-11 45 -40 68 -96 68c-66 0 -106 -46 -106 -126s40 -126 106 -126z" />
    <glyph glyph-name="ccircumflex" unicode="&#x109;" horiz-adv-x="558" 
d="M281 714l169 -136l-65 -64l-104 87l-104 -87l-66 64zM283 -15c-159 0 -258 104 -258 256s99 255 258 255c144 0 238 -77 250 -197h-153c-11 45 -40 68 -96 68c-66 0 -106 -46 -106 -126s40 -126 106 -126c56 0 85 22 96 64h153c-12 -117 -106 -194 -250 -194z" />
    <glyph glyph-name="cdotaccent" unicode="&#x10b;" horiz-adv-x="558" 
d="M281 532c-54 0 -92 39 -92 92c0 52 38 91 92 91s93 -39 93 -91c0 -53 -39 -92 -93 -92zM283 -15c-159 0 -258 104 -258 256s99 255 258 255c144 0 238 -77 250 -197h-153c-11 45 -40 68 -96 68c-66 0 -106 -46 -106 -126s40 -126 106 -126c56 0 85 22 96 64h153
c-12 -117 -106 -194 -250 -194z" />
    <glyph glyph-name="dcaron" unicode="&#x10f;" horiz-adv-x="759" 
d="M680 717c47 0 82 -32 82 -98c0 -74 -40 -121 -111 -121c-7 0 -14 0 -20 1v45c6 -1 12 -1 18 -1c22 0 38 6 48 18c8 10 12 24 12 42c-8 -10 -23 -16 -41 -16c-34 0 -58 27 -58 64c0 39 28 66 70 66zM407 454v246h153v-700h-152v68c-26 -48 -86 -81 -153 -81
c-144 0 -227 109 -227 254c0 144 89 254 229 254c70 0 125 -33 151 -82v41h-1zM299 114c76 0 115 57 115 127c0 69 -39 126 -115 126c-71 0 -115 -53 -115 -126s44 -127 115 -127z" />
    <glyph glyph-name="dcroat" unicode="&#x111;" horiz-adv-x="631" 
d="M610 615v-82h-50v-533h-152v68c-26 -48 -86 -81 -153 -81c-144 0 -227 109 -227 254c0 144 89 254 229 254c70 0 125 -33 151 -82v41h-1v79h-121v82h121v85h153v-85h50zM299 114c76 0 115 57 115 127c0 69 -39 126 -115 126c-71 0 -115 -53 -115 -126s44 -127 115 -127z
" />
    <glyph glyph-name="eacute" unicode="&#xe9;" horiz-adv-x="562" 
d="M438 616l-288 -100l-33 90l288 99zM537 266c0 -26 -1 -39 -4 -67h-356c3 -63 45 -99 113 -99c47 0 77 15 90 45h150c-15 -95 -112 -160 -240 -160c-164 0 -265 95 -265 256c0 158 103 255 260 255c150 0 252 -94 252 -230zM177 294h209c-1 64 -37 100 -102 100
c-66 0 -106 -41 -107 -100z" />
    <glyph glyph-name="ebreve" unicode="&#x115;" horiz-adv-x="562" 
d="M284 522c-112 0 -180 58 -186 154h113c2 -44 30 -66 73 -66c44 0 72 22 74 66h112c-5 -96 -77 -154 -186 -154zM537 266c0 -26 -1 -39 -4 -67h-356c3 -63 45 -99 113 -99c47 0 77 15 90 45h150c-15 -95 -112 -160 -240 -160c-164 0 -265 95 -265 256
c0 158 103 255 260 255c150 0 252 -94 252 -230zM177 294h209c-1 64 -37 100 -102 100c-66 0 -106 -41 -107 -100z" />
    <glyph glyph-name="ecaron" unicode="&#x11b;" horiz-adv-x="562" 
d="M454 648l-169 -136l-170 136l66 64l104 -87l104 87zM537 266c0 -26 -1 -39 -4 -67h-356c3 -63 45 -99 113 -99c47 0 77 15 90 45h150c-15 -95 -112 -160 -240 -160c-164 0 -265 95 -265 256c0 158 103 255 260 255c150 0 252 -94 252 -230zM177 294h209
c-1 64 -37 100 -102 100c-66 0 -106 -41 -107 -100z" />
    <glyph glyph-name="ecircumflex" unicode="&#xea;" horiz-adv-x="562" 
d="M285 601l-104 -87l-66 64l170 136l169 -136l-65 -64zM537 266c0 -26 -1 -39 -4 -67h-356c3 -63 45 -99 113 -99c47 0 77 15 90 45h150c-15 -95 -112 -160 -240 -160c-164 0 -265 95 -265 256c0 158 103 255 260 255c150 0 252 -94 252 -230zM177 294h209
c-1 64 -37 100 -102 100c-66 0 -106 -41 -107 -100z" />
    <glyph glyph-name="edieresis" unicode="&#xeb;" horiz-adv-x="562" 
d="M175 537c-49 0 -86 38 -86 85s37 85 86 85s86 -38 86 -85s-37 -85 -86 -85zM394 537c-48 0 -86 38 -86 85s38 85 86 85c49 0 87 -38 87 -85s-38 -85 -87 -85zM537 266c0 -26 -1 -39 -4 -67h-356c3 -63 45 -99 113 -99c47 0 77 15 90 45h150c-15 -95 -112 -160 -240 -160
c-164 0 -265 95 -265 256c0 158 103 255 260 255c150 0 252 -94 252 -230zM177 294h209c-1 64 -37 100 -102 100c-66 0 -106 -41 -107 -100z" />
    <glyph glyph-name="edotaccent" unicode="&#x117;" horiz-adv-x="562" 
d="M285 532c-54 0 -92 39 -92 92c0 52 38 91 92 91s93 -39 93 -91c0 -53 -39 -92 -93 -92zM537 266c0 -26 -1 -39 -4 -67h-356c3 -63 45 -99 113 -99c47 0 77 15 90 45h150c-15 -95 -112 -160 -240 -160c-164 0 -265 95 -265 256c0 158 103 255 260 255
c150 0 252 -94 252 -230zM177 294h209c-1 64 -37 100 -102 100c-66 0 -106 -41 -107 -100z" />
    <glyph glyph-name="egrave" unicode="&#xe8;" horiz-adv-x="562" 
d="M436 604l-33 -90l-288 100l33 89zM537 266c0 -26 -1 -39 -4 -67h-356c3 -63 45 -99 113 -99c47 0 77 15 90 45h150c-15 -95 -112 -160 -240 -160c-164 0 -265 95 -265 256c0 158 103 255 260 255c150 0 252 -94 252 -230zM177 294h209c-1 64 -37 100 -102 100
c-66 0 -106 -41 -107 -100z" />
    <glyph glyph-name="emacron" unicode="&#x113;" horiz-adv-x="562" 
d="M456 658v-95h-342v95h342zM537 266c0 -26 -1 -39 -4 -67h-356c3 -63 45 -99 113 -99c47 0 77 15 90 45h150c-15 -95 -112 -160 -240 -160c-164 0 -265 95 -265 256c0 158 103 255 260 255c150 0 252 -94 252 -230zM177 294h209c-1 64 -37 100 -102 100
c-66 0 -106 -41 -107 -100z" />
    <glyph glyph-name="eogonek" unicode="&#x119;" horiz-adv-x="562" 
d="M537 266c0 -26 -1 -39 -4 -67h-356c3 -63 45 -99 113 -99c47 0 77 15 90 45h150c-11 -68 -63 -121 -139 -145h-1c-15 -5 -32 -9 -50 -12c-34 -14 -44 -37 -44 -57c0 -28 22 -50 53 -50c15 0 31 4 49 12v-83c-28 -10 -54 -16 -95 -16c-86 0 -134 45 -134 100
c0 37 18 69 57 96c-126 22 -201 112 -201 251c0 158 103 255 260 255c150 0 252 -94 252 -230zM177 294h209c-1 64 -37 100 -102 100c-66 0 -106 -41 -107 -100z" />
    <glyph glyph-name="gbreve" unicode="&#x11f;" horiz-adv-x="624" 
d="M300 522c-112 0 -180 58 -186 154h113c2 -44 30 -66 73 -66c44 0 72 22 74 66h112c-5 -96 -77 -154 -186 -154zM408 482h153v-449c0 -95 -34 -164 -93 -205c-44 -31 -103 -43 -172 -43s-127 11 -174 39c-49 30 -84 82 -86 134h156c7 -38 40 -61 102 -61
c71 0 114 31 114 117v64c-24 -48 -88 -78 -151 -78c-143 0 -229 104 -229 246s92 249 231 249c66 0 125 -32 149 -82v69zM299 118c73 0 116 56 116 126s-43 126 -116 126c-69 0 -114 -53 -114 -126s45 -126 114 -126z" />
    <glyph glyph-name="gcircumflex" unicode="&#x11d;" horiz-adv-x="624" 
d="M301 601l-104 -87l-66 64l170 136l169 -136l-65 -64zM408 482h153v-449c0 -95 -34 -164 -93 -205c-44 -31 -103 -43 -172 -43s-127 11 -174 39c-49 30 -84 82 -86 134h156c7 -38 40 -61 102 -61c71 0 114 31 114 117v64c-24 -48 -88 -78 -151 -78
c-143 0 -229 104 -229 246s92 249 231 249c66 0 125 -32 149 -82v69zM299 118c73 0 116 56 116 126s-43 126 -116 126c-69 0 -114 -53 -114 -126s45 -126 114 -126z" />
    <glyph glyph-name="gcommaaccent" unicode="&#x123;" horiz-adv-x="624" 
d="M278 521c-41 0 -68 33 -68 81c0 65 44 102 115 103v-37c-23 0 -39 -5 -50 -13c-12 -8 -17 -20 -18 -33c3 6 13 10 25 10c34 0 54 -25 54 -55s-24 -56 -58 -56zM408 482h153v-449c0 -95 -34 -164 -93 -205c-44 -31 -103 -43 -172 -43s-127 11 -174 39
c-49 30 -84 82 -86 134h156c7 -38 40 -61 102 -61c71 0 114 31 114 117v64c-24 -48 -88 -78 -151 -78c-143 0 -229 104 -229 246s92 249 231 249c66 0 125 -32 149 -82v69zM299 118c73 0 116 56 116 126s-43 126 -116 126c-69 0 -114 -53 -114 -126s45 -126 114 -126z" />
    <glyph glyph-name="gdotaccent" unicode="&#x121;" horiz-adv-x="624" 
d="M301 532c-54 0 -92 39 -92 92c0 52 38 91 92 91s93 -39 93 -91c0 -53 -39 -92 -93 -92zM408 482h153v-449c0 -95 -34 -164 -93 -205c-44 -31 -103 -43 -172 -43s-127 11 -174 39c-49 30 -84 82 -86 134h156c7 -38 40 -61 102 -61c71 0 114 31 114 117v64
c-24 -48 -88 -78 -151 -78c-143 0 -229 104 -229 246s92 249 231 249c66 0 125 -32 149 -82v69zM299 118c73 0 116 56 116 126s-43 126 -116 126c-69 0 -114 -53 -114 -126s45 -126 114 -126z" />
    <glyph glyph-name="hbar" unicode="&#x127;" horiz-adv-x="607" 
d="M372 495c117 0 176 -66 176 -197v-298h-154v248c0 81 -23 118 -85 118c-61 0 -93 -40 -93 -114v-252h-153v533h-38v82h38v85h153v-85h134v-82h-134v-121c28 54 83 83 156 83z" />
    <glyph glyph-name="hcircumflex" unicode="&#x125;" horiz-adv-x="607" 
d="M141 792l-76 -62l-52 56l128 105l128 -105l-55 -56zM372 495c117 0 176 -66 176 -197v-298h-154v248c0 81 -23 118 -85 118c-61 0 -93 -40 -93 -114v-252h-153v700h153v-288c28 54 83 83 156 83z" />
    <glyph glyph-name="iacute" unicode="&#xed;" horiz-adv-x="279" 
d="M68 521l-44 84l183 98l44 -84zM63 0v482h153v-482h-153z" />
    <glyph glyph-name="ibreve" unicode="&#x12d;" horiz-adv-x="279" 
d="M140 517c-68 0 -130 34 -130 146h86c1 -44 15 -67 44 -67s42 23 44 67h85c0 -112 -62 -146 -129 -146zM63 0v482h153v-482h-153z" />
    <glyph glyph-name="icircumflex" unicode="&#xee;" horiz-adv-x="279" 
d="M69 520l-66 64l137 114l136 -114l-65 -64l-71 62zM63 0v482h153v-482h-153z" />
    <glyph glyph-name="idieresis" unicode="&#xef;" horiz-adv-x="279" 
d="M60 546c-40 0 -73 34 -73 73c0 41 33 73 73 73c41 0 74 -32 74 -73c0 -39 -33 -73 -74 -73zM220 546c-41 0 -74 34 -74 73c0 41 33 73 74 73s73 -32 73 -73c0 -39 -32 -73 -73 -73zM63 0v482h153v-482h-153z" />
    <glyph glyph-name="dotlessi" unicode="&#x131;" horiz-adv-x="279" 
d="M63 0v482h153v-482h-153z" />
    <glyph glyph-name="igrave" unicode="&#xec;" horiz-adv-x="279" 
d="M213 521l-182 98l43 84l183 -98zM63 0v482h153v-482h-153z" />
    <glyph glyph-name="ij" unicode="&#x133;" horiz-adv-x="560" 
d="M140 524c-55 0 -95 42 -95 94c0 51 40 94 95 94c56 0 95 -43 95 -94c0 -52 -39 -94 -95 -94zM421 524c-55 0 -95 42 -95 94c0 51 40 94 95 94c56 0 95 -43 95 -94c0 -52 -39 -94 -95 -94zM63 0v482h153v-482h-153zM341 -206c-33 0 -52 3 -73 10v118c13 -3 23 -4 37 -4
c26 0 39 14 39 46v518h153v-537c0 -101 -56 -151 -156 -151z" />
    <glyph glyph-name="imacron" unicode="&#x12b;" horiz-adv-x="279" 
d="M25 553v99h229v-99h-229zM63 0v482h153v-482h-153z" />
    <glyph glyph-name="iogonek" unicode="&#x12f;" horiz-adv-x="279" 
d="M140 524c-55 0 -95 42 -95 94c0 51 40 94 95 94c56 0 95 -43 95 -94c0 -52 -39 -94 -95 -94zM121 -69c0 -28 22 -50 53 -50c15 0 31 4 49 12v-83c-28 -10 -54 -16 -95 -16c-86 0 -134 45 -134 100c0 42 23 77 72 106h-3v482h153v-482c-75 -7 -95 -41 -95 -69z" />
    <glyph glyph-name="itilde" unicode="&#x129;" horiz-adv-x="279" 
d="M186 527c-44 0 -63 52 -96 52c-18 0 -30 -10 -45 -36l-26 68c20 60 51 75 72 75c45 0 72 -52 101 -52c16 0 25 4 45 31l24 -71c-19 -57 -54 -67 -75 -67zM63 0v482h153v-482h-153z" />
    <glyph glyph-name="jcircumflex" unicode="&#x135;" horiz-adv-x="281" 
d="M71 520l-66 64l137 114l136 -114l-65 -64l-71 62zM62 -206c-33 0 -52 3 -73 10v118c13 -3 23 -4 37 -4c26 0 39 14 39 46v518h153v-537c0 -101 -56 -151 -156 -151z" />
    <glyph glyph-name="uni0237" unicode="&#x237;" horiz-adv-x="281" 
d="M62 -206c-33 0 -52 3 -73 10v118c13 -3 23 -4 37 -4c26 0 39 14 39 46v518h153v-537c0 -101 -56 -151 -156 -151z" />
    <glyph glyph-name="kcommaaccent" unicode="&#x137;" horiz-adv-x="576" 
d="M361 254l195 -254h-187l-153 209v-209h-153v700h153v-419l157 201h180zM291 -30c42 0 71 -29 71 -74c0 -75 -41 -109 -115 -109v37c24 0 40 5 51 12c11 8 15 19 16 33c-4 -6 -13 -10 -23 -10c-36 0 -59 24 -59 54c0 33 25 57 59 57z" />
    <glyph glyph-name="kgreenlandic" unicode="&#x138;" horiz-adv-x="576" 
d="M556 0h-187l-153 209v-209h-153v482h153v-201l157 201h180l-192 -228z" />
    <glyph glyph-name="lacute" unicode="&#x13a;" horiz-adv-x="279" 
d="M66 728l-46 78l194 99l46 -78zM63 0v700h153v-700h-153z" />
    <glyph glyph-name="lcaron" unicode="&#x13e;" horiz-adv-x="419" 
d="M315 498c-7 0 -14 0 -20 1v45c6 -1 12 -1 18 -1c22 0 38 6 48 18c8 10 12 24 12 42c-8 -10 -23 -16 -41 -16c-34 0 -58 27 -58 64c0 39 28 66 70 66c47 0 82 -32 82 -98c0 -74 -40 -121 -111 -121zM63 0v700h153v-700h-153z" />
    <glyph glyph-name="lcommaaccent" unicode="&#x13c;" horiz-adv-x="279" 
d="M63 0v700h153v-700h-153zM93 -213v37c24 0 40 5 51 12c11 8 15 19 16 33c-4 -6 -13 -10 -23 -10c-36 0 -59 24 -59 54c0 33 25 57 59 57c42 0 71 -29 71 -74c0 -75 -41 -109 -115 -109z" />
    <glyph glyph-name="ldot" unicode="&#x140;" horiz-adv-x="451" 
d="M63 0v700h153v-700h-153zM351 252c-57 0 -100 44 -100 99c0 53 43 98 100 98c56 0 100 -45 100 -98c0 -55 -44 -99 -100 -99z" />
    <glyph glyph-name="lslash" unicode="&#x142;" horiz-adv-x="279" 
d="M278 486v-91l-64 -35v-360h-153v277l-59 -32v90l59 32v333h153v-249z" />
    <glyph glyph-name="nacute" unicode="&#x144;" horiz-adv-x="607" 
d="M168 516l-33 90l288 99l33 -89zM63 0v482h153v-70c28 54 83 83 156 83c117 0 176 -66 176 -197v-298h-154v248c0 81 -23 118 -85 118c-61 0 -93 -40 -93 -114v-252h-153z" />
    <glyph glyph-name="napostrophe" unicode="&#x149;" horiz-adv-x="632" 
d="M54 498c-7 0 -14 0 -20 1v45c6 -1 12 -1 18 -1c22 0 38 6 48 18c8 10 12 24 12 42c-8 -10 -23 -16 -41 -16c-34 0 -58 27 -58 64c0 39 28 66 70 66c47 0 82 -32 82 -98c0 -74 -40 -121 -111 -121zM88 0v482h153v-70c28 54 83 83 156 83c117 0 176 -66 176 -197v-298h-154
v248c0 81 -23 118 -85 118c-61 0 -93 -40 -93 -114v-252h-153z" />
    <glyph glyph-name="ncaron" unicode="&#x148;" horiz-adv-x="607" 
d="M303 512l-170 136l66 64l104 -87l104 87l65 -64zM63 0v482h153v-70c28 54 83 83 156 83c117 0 176 -66 176 -197v-298h-154v248c0 81 -23 118 -85 118c-61 0 -93 -40 -93 -114v-252h-153z" />
    <glyph glyph-name="ncommaaccent" unicode="&#x146;" horiz-adv-x="607" 
d="M63 0v482h153v-70c28 54 83 83 156 83c117 0 176 -66 176 -197v-298h-154v248c0 81 -23 118 -85 118c-61 0 -93 -40 -93 -114v-252h-153zM256 -213v37c24 0 40 5 51 12c11 8 15 19 16 33c-4 -6 -13 -10 -23 -10c-36 0 -59 24 -59 54c0 33 25 57 59 57c42 0 71 -29 71 -74
c0 -75 -41 -109 -115 -109z" />
    <glyph glyph-name="ntilde" unicode="&#xf1;" horiz-adv-x="607" 
d="M380 529c-61 0 -95 53 -142 53c-25 0 -47 -10 -74 -36l-38 70c38 54 76 64 103 64c61 0 94 -53 142 -53c25 0 47 9 74 36l38 -70c-38 -53 -76 -64 -103 -64zM63 0v482h153v-70c28 54 83 83 156 83c117 0 176 -66 176 -197v-298h-154v248c0 81 -23 118 -85 118
c-61 0 -93 -40 -93 -114v-252h-153z" />
    <glyph glyph-name="eng" unicode="&#x14b;" horiz-adv-x="607" 
d="M372 495c117 0 176 -66 176 -197v-363c0 -93 -58 -141 -164 -141c-31 0 -52 3 -70 12v109c16 -3 23 -4 36 -4c29 0 44 14 44 46v291c0 81 -23 118 -85 118c-61 0 -93 -40 -93 -114v-252h-153v482h153v-70c28 54 83 83 156 83z" />
    <glyph glyph-name="oacute" unicode="&#xf3;" horiz-adv-x="585" 
d="M158 516l-33 90l288 99l33 -89zM293 -15c-166 0 -268 109 -268 256s102 255 268 255c165 0 267 -108 267 -255s-102 -256 -267 -256zM293 115c72 0 115 53 115 126s-43 126 -115 126c-73 0 -115 -53 -115 -126s42 -126 115 -126z" />
    <glyph glyph-name="obreve" unicode="&#x14f;" horiz-adv-x="585" 
d="M292 522c-112 0 -180 58 -186 154h113c2 -44 30 -66 73 -66c44 0 72 22 74 66h112c-5 -96 -77 -154 -186 -154zM293 -15c-166 0 -268 109 -268 256s102 255 268 255c165 0 267 -108 267 -255s-102 -256 -267 -256zM293 115c72 0 115 53 115 126s-43 126 -115 126
c-73 0 -115 -53 -115 -126s42 -126 115 -126z" />
    <glyph glyph-name="ocircumflex" unicode="&#xf4;" horiz-adv-x="585" 
d="M293 714l169 -136l-65 -64l-104 87l-104 -87l-66 64zM293 -15c-166 0 -268 109 -268 256s102 255 268 255c165 0 267 -108 267 -255s-102 -256 -267 -256zM293 115c72 0 115 53 115 126s-43 126 -115 126c-73 0 -115 -53 -115 -126s42 -126 115 -126z" />
    <glyph glyph-name="odieresis" unicode="&#xf6;" horiz-adv-x="585" 
d="M183 537c-49 0 -86 38 -86 85s37 85 86 85s86 -38 86 -85s-37 -85 -86 -85zM402 537c-48 0 -86 38 -86 85s38 85 86 85c49 0 87 -38 87 -85s-38 -85 -87 -85zM293 -15c-166 0 -268 109 -268 256s102 255 268 255c165 0 267 -108 267 -255s-102 -256 -267 -256zM293 115
c72 0 115 53 115 126s-43 126 -115 126c-73 0 -115 -53 -115 -126s42 -126 115 -126z" />
    <glyph glyph-name="oe" unicode="&#x153;" horiz-adv-x="945" 
d="M920 266c0 -26 -1 -39 -4 -67h-356c3 -63 45 -99 113 -99c47 0 77 15 90 45h150c-15 -95 -112 -160 -240 -160c-81 0 -146 23 -192 66c-46 -42 -110 -66 -188 -66c-166 0 -268 109 -268 256s102 255 268 255c79 0 143 -24 189 -66c45 43 109 66 186 66
c150 0 252 -94 252 -230zM560 294h209c-1 64 -37 100 -102 100c-66 0 -106 -41 -107 -100zM293 115c72 0 115 53 115 126s-43 126 -115 126c-73 0 -115 -53 -115 -126s42 -126 115 -126z" />
    <glyph glyph-name="ograve" unicode="&#xf2;" horiz-adv-x="585" 
d="M411 514l-288 100l33 89l288 -99zM293 -15c-166 0 -268 109 -268 256s102 255 268 255c165 0 267 -108 267 -255s-102 -256 -267 -256zM293 115c72 0 115 53 115 126s-43 126 -115 126c-73 0 -115 -53 -115 -126s42 -126 115 -126z" />
    <glyph glyph-name="ohungarumlaut" unicode="&#x151;" horiz-adv-x="585" 
d="M189 509l-60 31l126 160l96 -55zM384 509l-60 31l126 160l96 -55zM293 -15c-166 0 -268 109 -268 256s102 255 268 255c165 0 267 -108 267 -255s-102 -256 -267 -256zM293 115c72 0 115 53 115 126s-43 126 -115 126c-73 0 -115 -53 -115 -126s42 -126 115 -126z" />
    <glyph glyph-name="omacron" unicode="&#x14d;" horiz-adv-x="585" 
d="M122 563v95h342v-95h-342zM293 -15c-166 0 -268 109 -268 256s102 255 268 255c165 0 267 -108 267 -255s-102 -256 -267 -256zM293 115c72 0 115 53 115 126s-43 126 -115 126c-73 0 -115 -53 -115 -126s42 -126 115 -126z" />
    <glyph glyph-name="ordfeminine" unicode="&#xaa;" horiz-adv-x="394" 
d="M158 394c-83 0 -136 60 -136 145s55 148 137 148c45 0 79 -22 94 -50v42h104v-279h-104v41c-15 -28 -50 -47 -95 -47zM193 477c40 0 64 28 64 62c0 35 -24 62 -64 62c-39 0 -64 -26 -64 -62c0 -35 25 -62 64 -62z" />
    <glyph glyph-name="ordmasculine" unicode="&#xba;" horiz-adv-x="380" 
d="M189 392c-103 0 -168 62 -168 149c0 85 65 147 168 147c104 0 170 -62 170 -147c0 -87 -66 -149 -170 -149zM189 478c40 0 65 26 65 63c0 35 -25 60 -65 60c-39 0 -64 -25 -64 -60c0 -37 25 -63 64 -63z" />
    <glyph glyph-name="oslash" unicode="&#xf8;" horiz-adv-x="585" 
d="M430 466c82 -42 130 -125 130 -225c0 -147 -102 -256 -267 -256c-25 0 -49 3 -71 7l-31 -70l-57 26l28 64c-87 42 -137 126 -137 229c0 147 102 255 268 255c28 0 54 -3 78 -9l32 74l57 -26zM178 241c0 -42 14 -78 40 -101l99 225c-8 1 -16 2 -24 2
c-73 0 -115 -53 -115 -126zM293 115c72 0 115 53 115 126c0 39 -12 73 -35 95l-97 -220c6 -1 11 -1 17 -1z" />
    <glyph glyph-name="oslashacute" unicode="&#x1ff;" horiz-adv-x="585" 
d="M446 616l-288 -100l-33 90l288 99zM430 466c82 -42 130 -125 130 -225c0 -147 -102 -256 -267 -256c-25 0 -49 3 -71 7l-31 -70l-57 26l28 64c-87 42 -137 126 -137 229c0 147 102 255 268 255c28 0 54 -3 78 -9l32 74l57 -26zM178 241c0 -42 14 -78 40 -101l99 225
c-8 1 -16 2 -24 2c-73 0 -115 -53 -115 -126zM293 115c72 0 115 53 115 126c0 39 -12 73 -35 95l-97 -220c6 -1 11 -1 17 -1z" />
    <glyph glyph-name="otilde" unicode="&#xf5;" horiz-adv-x="585" 
d="M370 529c-61 0 -95 53 -142 53c-25 0 -47 -10 -74 -36l-38 70c38 54 76 64 103 64c61 0 94 -53 142 -53c25 0 47 9 74 36l38 -70c-38 -53 -76 -64 -103 -64zM293 -15c-166 0 -268 109 -268 256s102 255 268 255c165 0 267 -108 267 -255s-102 -256 -267 -256zM293 115
c72 0 115 53 115 126s-43 126 -115 126c-73 0 -115 -53 -115 -126s42 -126 115 -126z" />
    <glyph glyph-name="racute" unicode="&#x155;" horiz-adv-x="408" 
d="M62 516l-33 90l288 99l33 -89zM63 0v482h153v-101c17 72 74 109 133 109c18 0 28 -1 40 -4v-142c-18 2 -27 3 -46 3c-75 0 -127 -45 -127 -161v-186h-153z" />
    <glyph glyph-name="rcaron" unicode="&#x159;" horiz-adv-x="408" 
d="M197 512l-170 136l66 64l104 -87l104 87l65 -64zM63 0v482h153v-101c17 72 74 109 133 109c18 0 28 -1 40 -4v-142c-18 2 -27 3 -46 3c-75 0 -127 -45 -127 -161v-186h-153z" />
    <glyph glyph-name="rcommaaccent" unicode="&#x157;" horiz-adv-x="408" 
d="M63 0v482h153v-101c17 72 74 109 133 109c18 0 28 -1 40 -4v-142c-18 2 -27 3 -46 3c-75 0 -127 -45 -127 -161v-186h-153zM97 -213v37c24 0 40 5 51 12c11 8 15 19 16 33c-4 -6 -13 -10 -23 -10c-36 0 -59 24 -59 54c0 33 25 57 59 57c42 0 71 -29 71 -74
c0 -75 -41 -109 -115 -109z" />
    <glyph glyph-name="sacute" unicode="&#x15b;" horiz-adv-x="499" 
d="M112 516l-33 90l288 99l33 -89zM256 -15c-141 0 -228 69 -228 160h152c0 -33 32 -57 79 -57c33 0 56 17 56 45c0 19 -9 35 -35 41l-118 30c-80 20 -121 70 -121 139c0 90 79 153 206 153c141 0 215 -59 215 -150h-151c0 34 -25 53 -66 53c-33 0 -55 -16 -55 -40
c0 -22 15 -36 41 -43l114 -31c74 -20 122 -65 122 -134c0 -99 -79 -166 -211 -166z" />
    <glyph glyph-name="scaron" unicode="&#x161;" horiz-adv-x="499" 
d="M247 512l-170 136l66 64l104 -87l104 87l65 -64zM256 -15c-141 0 -228 69 -228 160h152c0 -33 32 -57 79 -57c33 0 56 17 56 45c0 19 -9 35 -35 41l-118 30c-80 20 -121 70 -121 139c0 90 79 153 206 153c141 0 215 -59 215 -150h-151c0 34 -25 53 -66 53
c-33 0 -55 -16 -55 -40c0 -22 15 -36 41 -43l114 -31c74 -20 122 -65 122 -134c0 -99 -79 -166 -211 -166z" />
    <glyph glyph-name="scedilla" unicode="&#x15f;" horiz-adv-x="499" 
d="M467 151c0 -92 -69 -157 -185 -165v-45c7 6 24 11 42 11c44 0 78 -30 78 -77s-33 -87 -97 -87c-54 0 -92 28 -96 73h63c1 -15 16 -24 31 -24c20 0 33 13 33 38c0 24 -13 36 -32 36c-13 0 -23 -6 -29 -15h-57v91c-118 11 -190 75 -190 158h152c0 -33 32 -57 79 -57
c33 0 56 17 56 45c0 19 -9 35 -35 41l-118 30c-80 20 -121 70 -121 139c0 90 79 153 206 153c141 0 215 -59 215 -150h-151c0 34 -25 53 -66 53c-33 0 -55 -16 -55 -40c0 -22 15 -36 41 -43l114 -31c74 -20 122 -65 122 -134z" />
    <glyph glyph-name="scircumflex" unicode="&#x15d;" horiz-adv-x="499" 
d="M247 714l169 -136l-65 -64l-104 87l-104 -87l-66 64zM256 -15c-141 0 -228 69 -228 160h152c0 -33 32 -57 79 -57c33 0 56 17 56 45c0 19 -9 35 -35 41l-118 30c-80 20 -121 70 -121 139c0 90 79 153 206 153c141 0 215 -59 215 -150h-151c0 34 -25 53 -66 53
c-33 0 -55 -16 -55 -40c0 -22 15 -36 41 -43l114 -31c74 -20 122 -65 122 -134c0 -99 -79 -166 -211 -166z" />
    <glyph glyph-name="scommaaccent" unicode="&#x219;" horiz-adv-x="499" 
d="M256 -15c-141 0 -228 69 -228 160h152c0 -33 32 -57 79 -57c33 0 56 17 56 45c0 19 -9 35 -35 41l-118 30c-80 20 -121 70 -121 139c0 90 79 153 206 153c141 0 215 -59 215 -150h-151c0 34 -25 53 -66 53c-33 0 -55 -16 -55 -40c0 -22 15 -36 41 -43l114 -31
c74 -20 122 -65 122 -134c0 -99 -79 -166 -211 -166zM204 -213v37c24 0 40 5 51 12c11 8 15 19 16 33c-4 -6 -13 -10 -23 -10c-36 0 -59 24 -59 54c0 33 25 57 59 57c42 0 71 -29 71 -74c0 -75 -41 -109 -115 -109z" />
    <glyph glyph-name="tbar" unicode="&#x167;" horiz-adv-x="402" 
d="M324 119c19 0 39 1 53 3v-122c-22 -4 -58 -8 -102 -8c-72 0 -171 16 -171 177v50h-84v66h84v76h-76v121h76v143h153v-143h109v-121h-109v-76h101v-66h-101v-18c0 -71 29 -82 67 -82z" />
    <glyph glyph-name="tcaron" unicode="&#x165;" horiz-adv-x="415" 
d="M351 718c44 0 77 -30 77 -92c0 -69 -38 -113 -104 -113c-7 0 -13 0 -19 1v42c6 -1 11 -1 17 -1c21 0 36 6 45 17c8 9 11 23 11 39c-7 -9 -21 -15 -38 -15c-32 0 -54 26 -54 60c0 37 26 62 65 62zM249 201c0 -71 29 -82 67 -82c19 0 39 1 53 3v-122c-22 -4 -58 -8 -102 -8
c-72 0 -171 16 -171 177v192h-76v121h76v143h153v-143h109v-121h-109v-160z" />
    <glyph glyph-name="uni0163" unicode="&#x163;" horiz-adv-x="394" 
d="M323 -48c44 0 78 -30 78 -77s-33 -87 -97 -87c-54 0 -92 28 -96 73h63c1 -15 16 -24 31 -24c20 0 33 13 33 38c0 24 -13 36 -32 36c-13 0 -23 -6 -29 -15h-57v100c-61 10 -121 47 -121 173v192h-76v121h76v143h153v-143h109v-121h-109v-160c0 -71 29 -82 67 -82
c19 0 39 1 53 3v-122c-20 -4 -50 -7 -88 -8v-51c7 6 24 11 42 11z" />
    <glyph glyph-name="uni021B" unicode="&#x21b;" horiz-adv-x="394" 
d="M316 119c19 0 39 1 53 3v-122c-22 -4 -58 -8 -102 -8c-72 0 -171 16 -171 177v192h-76v121h76v143h153v-143h109v-121h-109v-160c0 -71 29 -82 67 -82zM247 -30c42 0 71 -29 71 -74c0 -75 -41 -109 -115 -109v37c24 0 40 5 51 12c11 8 15 19 16 33c-4 -6 -13 -10 -23 -10
c-36 0 -59 24 -59 54c0 33 25 57 59 57z" />
    <glyph glyph-name="thorn" unicode="&#xfe;" horiz-adv-x="624" 
d="M373 495c132 0 222 -102 222 -254c0 -151 -93 -254 -226 -254c-71 0 -129 36 -153 81v-268h-153v901h153v-288c25 46 85 82 157 82zM325 114c67 0 114 52 114 127c0 74 -47 126 -114 126c-69 0 -116 -51 -116 -126c0 -76 48 -127 116 -127z" />
    <glyph glyph-name="uacute" unicode="&#xfa;" horiz-adv-x="602" 
d="M167 516l-33 90l288 99l33 -89zM236 -13c-116 0 -178 72 -178 197v298h155v-264c0 -66 22 -102 80 -102c65 0 93 42 93 107v259h152v-482h-152v69c-27 -51 -77 -82 -150 -82z" />
    <glyph glyph-name="ubreve" unicode="&#x16d;" horiz-adv-x="602" 
d="M301 522c-112 0 -180 58 -186 154h113c2 -44 30 -66 73 -66c44 0 72 22 74 66h112c-5 -96 -77 -154 -186 -154zM236 -13c-116 0 -178 72 -178 197v298h155v-264c0 -66 22 -102 80 -102c65 0 93 42 93 107v259h152v-482h-152v69c-27 -51 -77 -82 -150 -82z" />
    <glyph glyph-name="ucircumflex" unicode="&#xfb;" horiz-adv-x="602" 
d="M302 714l169 -136l-65 -64l-104 87l-104 -87l-66 64zM236 -13c-116 0 -178 72 -178 197v298h155v-264c0 -66 22 -102 80 -102c65 0 93 42 93 107v259h152v-482h-152v69c-27 -51 -77 -82 -150 -82z" />
    <glyph glyph-name="udieresis" unicode="&#xfc;" horiz-adv-x="602" 
d="M192 537c-49 0 -86 38 -86 85s37 85 86 85s86 -38 86 -85s-37 -85 -86 -85zM411 537c-48 0 -86 38 -86 85s38 85 86 85c49 0 87 -38 87 -85s-38 -85 -87 -85zM236 -13c-116 0 -178 72 -178 197v298h155v-264c0 -66 22 -102 80 -102c65 0 93 42 93 107v259h152v-482h-152
v69c-27 -51 -77 -82 -150 -82z" />
    <glyph glyph-name="ugrave" unicode="&#xf9;" horiz-adv-x="602" 
d="M420 514l-288 100l33 89l288 -99zM236 -13c-116 0 -178 72 -178 197v298h155v-264c0 -66 22 -102 80 -102c65 0 93 42 93 107v259h152v-482h-152v69c-27 -51 -77 -82 -150 -82z" />
    <glyph glyph-name="uhungarumlaut" unicode="&#x171;" horiz-adv-x="602" 
d="M198 509l-60 31l126 160l96 -55zM393 509l-60 31l126 160l96 -55zM236 -13c-116 0 -178 72 -178 197v298h155v-264c0 -66 22 -102 80 -102c65 0 93 42 93 107v259h152v-482h-152v69c-27 -51 -77 -82 -150 -82z" />
    <glyph glyph-name="umacron" unicode="&#x16b;" horiz-adv-x="602" 
d="M131 563v95h342v-95h-342zM236 -13c-116 0 -178 72 -178 197v298h155v-264c0 -66 22 -102 80 -102c65 0 93 42 93 107v259h152v-482h-152v69c-27 -51 -77 -82 -150 -82z" />
    <glyph glyph-name="uogonek" unicode="&#x173;" horiz-adv-x="602" 
d="M496 -119c15 0 31 4 49 12v-83c-28 -10 -54 -16 -95 -16c-86 0 -134 45 -134 100c0 42 23 77 72 106h-2v69c-27 -51 -77 -82 -150 -82c-116 0 -178 72 -178 197v298h155v-264c0 -66 22 -102 80 -102c65 0 93 42 93 107v259h152v-482c-75 -7 -95 -41 -95 -69
s22 -50 53 -50z" />
    <glyph glyph-name="uring" unicode="&#x16f;" horiz-adv-x="602" 
d="M302 515c-64 0 -114 45 -114 109c0 65 50 109 114 109s114 -44 114 -109c0 -64 -50 -109 -114 -109zM302 571c28 0 49 21 49 53s-21 54 -49 54s-49 -22 -49 -54s21 -53 49 -53zM236 -13c-116 0 -178 72 -178 197v298h155v-264c0 -66 22 -102 80 -102c65 0 93 42 93 107
v259h152v-482h-152v69c-27 -51 -77 -82 -150 -82z" />
    <glyph glyph-name="utilde" unicode="&#x169;" horiz-adv-x="602" 
d="M379 529c-61 0 -95 53 -142 53c-25 0 -47 -10 -74 -36l-38 70c38 54 76 64 103 64c61 0 94 -53 142 -53c25 0 47 9 74 36l38 -70c-38 -53 -76 -64 -103 -64zM236 -13c-116 0 -178 72 -178 197v298h155v-264c0 -66 22 -102 80 -102c65 0 93 42 93 107v259h152v-482h-152
v69c-27 -51 -77 -82 -150 -82z" />
    <glyph glyph-name="wacute" unicode="&#x1e83;" horiz-adv-x="813" 
d="M271 516l-33 90l288 99l33 -89zM177 0l-174 482h160l87 -292l82 292h149l82 -292l87 292h159l-173 -482h-137l-93 293l-92 -293h-137z" />
    <glyph glyph-name="wcircumflex" unicode="&#x175;" horiz-adv-x="813" 
d="M406 714l169 -136l-65 -64l-104 87l-104 -87l-66 64zM177 0l-174 482h160l87 -292l82 292h149l82 -292l87 292h159l-173 -482h-137l-93 293l-92 -293h-137z" />
    <glyph glyph-name="wdieresis" unicode="&#x1e85;" horiz-adv-x="813" 
d="M296 537c-49 0 -86 38 -86 85s37 85 86 85s86 -38 86 -85s-37 -85 -86 -85zM515 537c-48 0 -86 38 -86 85s38 85 86 85c49 0 87 -38 87 -85s-38 -85 -87 -85zM177 0l-174 482h160l87 -292l82 292h149l82 -292l87 292h159l-173 -482h-137l-93 293l-92 -293h-137z" />
    <glyph glyph-name="wgrave" unicode="&#x1e81;" horiz-adv-x="813" 
d="M524 514l-288 100l33 89l288 -99zM177 0l-174 482h160l87 -292l82 292h149l82 -292l87 292h159l-173 -482h-137l-93 293l-92 -293h-137z" />
    <glyph glyph-name="yacute" unicode="&#xfd;" horiz-adv-x="605" 
d="M160 516l-33 90l288 99l33 -89zM389 482h153v-467c0 -78 -28 -137 -69 -174c-43 -37 -96 -56 -177 -56c-82 0 -138 17 -178 50c-35 30 -59 75 -60 127h154c3 -41 26 -65 84 -65c56 0 93 33 93 108v75c-27 -51 -80 -80 -153 -80c-123 0 -178 82 -178 202v280h153v-257
c0 -62 21 -104 85 -104c62 0 93 48 93 122v239z" />
    <glyph glyph-name="ycircumflex" unicode="&#x177;" horiz-adv-x="605" 
d="M295 714l169 -136l-65 -64l-104 87l-104 -87l-66 64zM389 482h153v-467c0 -78 -28 -137 -69 -174c-43 -37 -96 -56 -177 -56c-82 0 -138 17 -178 50c-35 30 -59 75 -60 127h154c3 -41 26 -65 84 -65c56 0 93 33 93 108v75c-27 -51 -80 -80 -153 -80
c-123 0 -178 82 -178 202v280h153v-257c0 -62 21 -104 85 -104c62 0 93 48 93 122v239z" />
    <glyph glyph-name="ydieresis" unicode="&#xff;" horiz-adv-x="605" 
d="M185 537c-49 0 -86 38 -86 85s37 85 86 85s86 -38 86 -85s-37 -85 -86 -85zM404 537c-48 0 -86 38 -86 85s38 85 86 85c49 0 87 -38 87 -85s-38 -85 -87 -85zM389 482h153v-467c0 -78 -28 -137 -69 -174c-43 -37 -96 -56 -177 -56c-82 0 -138 17 -178 50
c-35 30 -59 75 -60 127h154c3 -41 26 -65 84 -65c56 0 93 33 93 108v75c-27 -51 -80 -80 -153 -80c-123 0 -178 82 -178 202v280h153v-257c0 -62 21 -104 85 -104c62 0 93 48 93 122v239z" />
    <glyph glyph-name="ygrave" unicode="&#x1ef3;" horiz-adv-x="605" 
d="M413 514l-288 100l33 89l288 -99zM389 482h153v-467c0 -78 -28 -137 -69 -174c-43 -37 -96 -56 -177 -56c-82 0 -138 17 -178 50c-35 30 -59 75 -60 127h154c3 -41 26 -65 84 -65c56 0 93 33 93 108v75c-27 -51 -80 -80 -153 -80c-123 0 -178 82 -178 202v280h153v-257
c0 -62 21 -104 85 -104c62 0 93 48 93 122v239z" />
    <glyph glyph-name="zacute" unicode="&#x17a;" horiz-adv-x="479" 
d="M102 516l-33 90l288 99l33 -89zM5 0l237 355h-214v127h446l-233 -356h215v-126h-451z" />
    <glyph glyph-name="zcaron" unicode="&#x17e;" horiz-adv-x="479" 
d="M237 512l-170 136l66 64l104 -87l104 87l65 -64zM5 0l237 355h-214v127h446l-233 -356h215v-126h-451z" />
    <glyph glyph-name="zdotaccent" unicode="&#x17c;" horiz-adv-x="479" 
d="M237 532c-54 0 -92 39 -92 92c0 52 38 91 92 91s93 -39 93 -91c0 -53 -39 -92 -93 -92zM5 0l237 355h-214v127h446l-233 -356h215v-126h-451z" />
    <glyph glyph-name="germandbls" unicode="&#xdf;" horiz-adv-x="604" 
d="M346 -13c-41 0 -73 6 -98 13v117c21 -5 49 -7 66 -7c58 0 100 31 100 96c0 45 -26 102 -108 102h-49v114h41c76 0 107 42 107 92c0 52 -36 88 -93 88c-65 0 -98 -44 -98 -107v-495h-152v476c0 133 72 242 252 242c153 0 242 -75 242 -190c0 -87 -59 -147 -135 -159
c86 -7 151 -94 151 -187c0 -129 -101 -195 -226 -195z" />
    <glyph glyph-name="ampersand" unicode="&#x26;" horiz-adv-x="621" 
d="M614 352v-123h-43c-4 -153 -108 -247 -269 -247c-153 0 -270 79 -270 211c0 92 67 156 134 173c-65 19 -120 70 -120 154c0 124 110 198 252 198c177 0 258 -92 258 -226h-165c0 61 -24 108 -92 108c-49 0 -90 -30 -90 -83c0 -51 24 -89 93 -89h23v-124h-20
c-76 0 -103 -44 -103 -99c0 -50 36 -96 102 -96c55 0 103 36 106 120h-49v123h253z" />
    <glyph glyph-name="grave" unicode="`" horiz-adv-x="600" 
d="M304 514l-288 100l33 89l288 -99z" />
    <glyph glyph-name="acute" unicode="&#xb4;" horiz-adv-x="600" 
d="M98 516l-33 90l288 99l33 -89z" />
    <glyph glyph-name="circumflex" unicode="&#x2c6;" horiz-adv-x="600" 
d="M227 714l169 -136l-65 -64l-104 87l-104 -87l-66 64z" />
    <glyph glyph-name="tilde" unicode="&#x2dc;" horiz-adv-x="600" 
d="M303 529c-61 0 -95 53 -142 53c-25 0 -47 -10 -74 -36l-38 70c38 54 76 64 103 64c61 0 94 -53 142 -53c25 0 47 9 74 36l38 -70c-38 -53 -76 -64 -103 -64z" />
    <glyph glyph-name="caron" unicode="&#x2c7;" horiz-adv-x="600" 
d="M227 512l-170 136l66 64l104 -87l104 87l65 -64z" />
    <glyph glyph-name="dieresis" unicode="&#xa8;" horiz-adv-x="600" 
d="M139 537c-49 0 -86 38 -86 85s37 85 86 85s86 -38 86 -85s-37 -85 -86 -85zM358 537c-48 0 -86 38 -86 85s38 85 86 85c49 0 87 -38 87 -85s-38 -85 -87 -85z" />
    <glyph glyph-name="macron" unicode="&#xaf;" horiz-adv-x="600" 
d="M53 563v95h342v-95h-342z" />
    <glyph glyph-name="breve" unicode="&#x2d8;" horiz-adv-x="600" 
d="M242 522c-112 0 -180 58 -186 154h113c2 -44 30 -66 73 -66c44 0 72 22 74 66h112c-5 -96 -77 -154 -186 -154z" />
    <glyph glyph-name="ring" unicode="&#x2da;" horiz-adv-x="600" 
d="M155 461c-64 0 -114 45 -114 109c0 65 50 109 114 109s114 -44 114 -109c0 -64 -50 -109 -114 -109zM155 517c28 0 49 21 49 53s-21 54 -49 54s-49 -22 -49 -54s21 -53 49 -53z" />
    <glyph glyph-name="hungarumlaut" unicode="&#x2dd;" horiz-adv-x="600" 
d="M101 509l-60 31l126 160l96 -55zM296 509l-60 31l126 160l96 -55z" />
    <glyph glyph-name="dotaccent" unicode="&#x2d9;" horiz-adv-x="600" 
d="M300 531c-54 0 -92 39 -92 92c0 52 38 91 92 91s93 -39 93 -91c0 -53 -39 -92 -93 -92z" />
    <glyph glyph-name="cedilla" unicode="&#xb8;" horiz-adv-x="600" 
d="M144 -212c-54 0 -92 28 -96 73h63c1 -15 16 -24 31 -24c20 0 33 13 33 38c0 24 -13 36 -32 36c-13 0 -23 -6 -29 -15h-57v107h64v-62c7 6 24 11 42 11c44 0 78 -30 78 -77s-33 -87 -97 -87z" />
    <glyph glyph-name="ogonek" unicode="&#x2db;" horiz-adv-x="600" 
d="M174 -206c-86 0 -134 45 -134 100c0 42 23 77 72 106h150c-75 -7 -95 -41 -95 -69s22 -50 53 -50c15 0 31 4 49 12v-83c-28 -10 -54 -16 -95 -16z" />
    <glyph glyph-name="comma" unicode="," horiz-adv-x="321" 
d="M93 -140c-12 0 -27 1 -38 3v59c16 -2 25 -3 44 -3c31 0 54 11 69 27c16 17 24 39 26 62c-10 -12 -29 -17 -48 -17c-55 0 -93 40 -93 96c0 55 42 96 99 96c58 0 114 -44 114 -141c0 -114 -61 -182 -173 -182z" />
    <glyph glyph-name="semicolon" unicode=";" horiz-adv-x="321" 
d="M156 300c-56 0 -99 45 -99 98c0 54 43 98 99 98s99 -44 99 -98c0 -53 -43 -98 -99 -98zM93 -140c-12 0 -27 1 -38 3v59c16 -2 25 -3 44 -3c31 0 54 11 69 27c16 17 24 39 26 62c-10 -12 -29 -17 -48 -17c-55 0 -93 40 -93 96c0 55 42 96 99 96c58 0 114 -44 114 -141
c0 -114 -61 -182 -173 -182z" />
    <glyph glyph-name="colon" unicode=":" horiz-adv-x="312" 
d="M156 301c-56 0 -99 45 -99 98c0 54 43 98 99 98s99 -44 99 -98c0 -53 -43 -98 -99 -98zM156 -10c-56 0 -99 45 -99 98c0 54 43 98 99 98s99 -44 99 -98c0 -53 -43 -98 -99 -98z" />
    <glyph glyph-name="period" unicode="." horiz-adv-x="312" 
d="M156 -10c-56 0 -99 45 -99 98c0 54 43 98 99 98s99 -44 99 -98c0 -53 -43 -98 -99 -98z" />
    <glyph glyph-name="ellipsis" unicode="&#x2026;" horiz-adv-x="859" 
d="M156 -14c-56 0 -99 45 -99 98c0 54 43 98 99 98s99 -44 99 -98c0 -53 -43 -98 -99 -98zM428 -14c-56 0 -99 45 -99 98c0 54 43 98 99 98s99 -44 99 -98c0 -53 -43 -98 -99 -98zM703 -14c-56 0 -99 45 -99 98c0 54 43 98 99 98s99 -44 99 -98c0 -53 -43 -98 -99 -98z" />
    <glyph glyph-name="hyphen" unicode="-" horiz-adv-x="407" 
d="M45 216v122h317v-122h-317z" />
    <glyph glyph-name="exclam" unicode="!" horiz-adv-x="309" 
d="M76 244v456h157v-456h-157zM154 -9c-58 0 -103 47 -103 103s45 102 103 102c59 0 104 -46 104 -102s-45 -103 -104 -103z" />
    <glyph glyph-name="exclamdown" unicode="&#xa1;" horiz-adv-x="309" 
d="M154 509c59 0 104 -47 104 -103s-45 -102 -104 -102c-58 0 -103 46 -103 102s45 103 103 103zM76 256h157v-456h-157v456z" />
    <glyph glyph-name="question" unicode="?" horiz-adv-x="504" 
d="M157 245v10c0 62 12 98 72 138l47 31c39 26 56 52 56 94c0 48 -32 78 -78 78c-56 0 -97 -31 -97 -104h-160c0 127 83 226 262 226c138 0 235 -68 235 -193c0 -87 -47 -136 -99 -175l-41 -30c-30 -23 -39 -37 -39 -63v-12h-158zM236 -9c-59 0 -104 47 -104 103
s45 102 104 102c58 0 104 -46 104 -102s-46 -103 -104 -103z" />
    <glyph glyph-name="questiondown" unicode="&#xbf;" horiz-adv-x="504" 
d="M268 544c59 0 104 -47 104 -103s-45 -102 -104 -102c-58 0 -104 46 -104 102s46 103 104 103zM347 290v-10c0 -62 -12 -98 -72 -138l-47 -31c-39 -26 -56 -52 -56 -94c0 -48 32 -78 78 -78c56 0 97 31 97 104h160c0 -127 -83 -226 -262 -226c-138 0 -235 68 -235 193
c0 87 47 136 99 175l41 30c30 23 39 37 39 63v12h158z" />
    <glyph glyph-name="quoteleft" unicode="&#x2018;" horiz-adv-x="295" 
d="M157 440c-52 0 -104 41 -104 130c0 105 56 169 159 169c11 0 25 -1 35 -3v-55c-15 2 -20 3 -37 3c-29 0 -51 -10 -65 -26c-15 -15 -24 -35 -26 -57c10 12 27 17 44 17c50 0 85 -38 85 -89s-37 -89 -91 -89z" />
    <glyph glyph-name="quoteright" unicode="&#x2019;" horiz-adv-x="295" 
d="M138 721c52 0 104 -41 104 -130c0 -105 -56 -169 -159 -169c-11 0 -25 1 -35 3v55c15 -2 20 -3 37 -3c29 0 51 10 65 26c15 15 24 35 26 57c-10 -12 -27 -17 -44 -17c-50 0 -85 38 -85 89s37 89 91 89z" />
    <glyph glyph-name="quotedblleft" unicode="&#x201c;" horiz-adv-x="517" 
d="M157 440c-52 0 -104 41 -104 130c0 105 56 169 159 169c11 0 25 -1 35 -3v-55c-15 2 -20 3 -37 3c-29 0 -51 -10 -65 -26c-15 -15 -24 -35 -26 -57c10 12 27 17 44 17c50 0 85 -38 85 -89s-37 -89 -91 -89zM379 440c-52 0 -104 41 -104 130c0 105 56 169 159 169
c11 0 25 -1 35 -3v-55c-15 2 -20 3 -37 3c-29 0 -51 -10 -65 -26c-15 -15 -24 -35 -26 -57c10 12 27 17 44 17c50 0 85 -38 85 -89s-37 -89 -91 -89z" />
    <glyph glyph-name="quotedblright" unicode="&#x201d;" horiz-adv-x="517" 
d="M138 721c52 0 104 -41 104 -130c0 -105 -56 -169 -159 -169c-11 0 -25 1 -35 3v55c15 -2 20 -3 37 -3c29 0 51 10 65 26c15 15 24 35 26 57c-10 -12 -27 -17 -44 -17c-50 0 -85 38 -85 89s37 89 91 89zM360 721c52 0 104 -41 104 -130c0 -105 -56 -169 -159 -169
c-11 0 -25 1 -35 3v55c15 -2 20 -3 37 -3c29 0 51 10 65 26c15 15 24 35 26 57c-10 -12 -27 -17 -44 -17c-50 0 -85 38 -85 89s37 89 91 89z" />
    <glyph glyph-name="quotesinglbase" unicode="&#x201a;" horiz-adv-x="295" 
d="M138 152c52 0 104 -41 104 -130c0 -105 -56 -169 -159 -169c-11 0 -25 1 -35 3v55c15 -2 20 -3 37 -3c29 0 51 10 65 26c15 15 24 35 26 57c-10 -12 -27 -17 -44 -17c-50 0 -85 38 -85 89s37 89 91 89z" />
    <glyph glyph-name="quotedblbase" unicode="&#x201e;" horiz-adv-x="517" 
d="M138 152c52 0 104 -41 104 -130c0 -105 -56 -169 -159 -169c-11 0 -25 1 -35 3v55c15 -2 20 -3 37 -3c29 0 51 10 65 26c15 15 24 35 26 57c-10 -12 -27 -17 -44 -17c-50 0 -85 38 -85 89s37 89 91 89zM360 152c52 0 104 -41 104 -130c0 -105 -56 -169 -159 -169
c-11 0 -25 1 -35 3v55c15 -2 20 -3 37 -3c29 0 51 10 65 26c15 15 24 35 26 57c-10 -12 -27 -17 -44 -17c-50 0 -85 38 -85 89s37 89 91 89z" />
    <glyph glyph-name="guilsinglleft" unicode="&#x2039;" horiz-adv-x="305" 
d="M221 62l-218 207l218 207l74 -78l-137 -129l137 -128z" />
    <glyph glyph-name="guilsinglright" unicode="&#x203a;" horiz-adv-x="305" 
d="M84 62l-74 79l137 128l-137 129l74 78l218 -207z" />
    <glyph glyph-name="slash" unicode="/" horiz-adv-x="473" 
d="M126 -72l-116 50l337 782l116 -50z" />
    <glyph glyph-name="bar" unicode="|" horiz-adv-x="247" 
d="M68 -192v925h110v-925h-110z" />
    <glyph glyph-name="endash" unicode="&#x2013;" horiz-adv-x="628" 
d="M45 233v102h538v-102h-538z" />
    <glyph glyph-name="emdash" unicode="&#x2014;" horiz-adv-x="814" 
d="M45 233v102h724v-102h-724z" />
    <glyph glyph-name="bullet" unicode="&#x2022;" horiz-adv-x="366" 
d="M183 179c-75 0 -135 60 -135 133c0 74 60 134 135 134c76 0 135 -60 135 -134c0 -73 -59 -133 -135 -133z" />
    <glyph glyph-name="parenleft" unicode="(" horiz-adv-x="352" 
d="M270 -203c-126 112 -227 257 -227 475c0 219 101 364 227 476l95 -83c-116 -115 -178 -225 -178 -393s62 -277 178 -392z" />
    <glyph glyph-name="parenright" unicode=")" horiz-adv-x="352" 
d="M82 -203l-95 83c116 115 178 224 178 392s-62 278 -178 393l95 83c126 -112 227 -257 227 -476c0 -218 -101 -363 -227 -475z" />
    <glyph glyph-name="bracketleft" unicode="[" horiz-adv-x="323" 
d="M68 -193v926h242v-122h-109v-683h109v-121h-242z" />
    <glyph glyph-name="bracketright" unicode="]" horiz-adv-x="323" 
d="M255 -193h-242v121h109v683h-109v122h242v-926z" />
    <glyph glyph-name="asterisk" unicode="*" horiz-adv-x="433" 
d="M136 330l-80 57l92 116l-131 34l31 90l129 -52l-9 142h97l-9 -142l129 52l31 -90l-132 -34l93 -116l-80 -57l-81 130z" />
    <glyph glyph-name="dagger" unicode="&#x2020;" horiz-adv-x="455" 
d="M166 -182v531h-116v112h116v256h124v-256h115v-112h-115v-531h-124z" />
    <glyph glyph-name="asciitilde" unicode="~" horiz-adv-x="591" 
d="M419 180c-43 0 -80 15 -119 33c-37 18 -81 35 -134 35c-45 0 -86 -29 -116 -55v120c36 44 85 59 122 59c39 0 85 -15 130 -32c42 -16 87 -36 118 -36c50 0 91 29 121 55v-120c-36 -44 -85 -59 -122 -59z" />
    <glyph glyph-name="brokenbar" unicode="&#xa6;" horiz-adv-x="247" 
d="M68 324v410h110v-410h-110zM68 -192v420h110v-420h-110z" />
    <glyph glyph-name="backslash" unicode="\" horiz-adv-x="473" 
d="M347 -72l-337 782l116 50l337 -782z" />
    <glyph glyph-name="underscore" unicode="_" horiz-adv-x="527" 
d="M0 -200v92h527v-92h-527z" />
    <glyph glyph-name="quotesingle" unicode="'" horiz-adv-x="269" 
d="M226 602c0 -15 -3 -29 -8 -43l-54 -193h-59l-54 193c-4 14 -8 28 -8 43c0 52 40 93 92 93c51 0 91 -42 91 -93z" />
    <glyph glyph-name="quotedbl" unicode="&#x22;" horiz-adv-x="479" 
d="M226 602c0 -15 -3 -29 -8 -43l-54 -193h-59l-54 193c-4 14 -8 28 -8 43c0 52 40 93 92 93c51 0 91 -42 91 -93zM436 602c0 -15 -3 -29 -8 -43l-54 -193h-59l-54 193c-4 14 -8 28 -8 43c0 52 40 93 92 93c51 0 91 -42 91 -93z" />
    <glyph glyph-name="at" unicode="@" horiz-adv-x="903" 
d="M468 -191c-286 0 -441 187 -441 424c0 255 175 416 433 416c243 0 417 -135 417 -399c0 -178 -78 -262 -196 -262c-83 0 -136 38 -154 107c-19 -34 -64 -66 -129 -66c-109 0 -188 89 -188 201c0 115 83 204 189 204c59 0 105 -29 126 -66v56h116v-259
c0 -59 16 -88 53 -88c39 0 79 33 79 161c0 223 -122 320 -316 320c-201 0 -325 -124 -325 -325c0 -188 111 -328 338 -328c59 0 133 9 204 46l42 -85c-85 -43 -172 -57 -248 -57zM428 128c58 0 98 47 98 103c0 57 -40 104 -98 104s-96 -47 -96 -104c0 -56 38 -103 96 -103z
" />
    <glyph glyph-name="copyright" unicode="&#xa9;" horiz-adv-x="795" 
d="M397 -20c-231 0 -370 165 -370 370s139 370 370 370s371 -165 371 -370s-140 -370 -371 -370zM397 65c169 0 272 123 272 285s-103 285 -272 285c-168 0 -272 -123 -272 -285s104 -285 272 -285zM401 152c-126 0 -200 93 -200 198s74 198 200 198c109 0 174 -66 183 -149
h-94c-8 38 -38 68 -89 68c-68 0 -108 -55 -108 -117s40 -117 108 -117c51 0 81 30 89 68h94c-9 -83 -74 -149 -183 -149z" />
    <glyph glyph-name="registered" unicode="&#xae;" horiz-adv-x="613" 
d="M307 162c-175 0 -280 125 -280 279c0 155 105 280 280 280c174 0 280 -125 280 -280c0 -154 -106 -279 -280 -279zM307 226c128 0 205 93 205 215c0 123 -77 216 -205 216c-127 0 -206 -93 -206 -216c0 -122 79 -215 206 -215zM209 313v266h118c59 0 97 -44 97 -96
c0 -37 -20 -70 -56 -86l56 -84h-72l-49 77h-31v-77h-63zM274 439h44c25 0 40 21 40 44c0 24 -15 44 -40 44h-44v-88z" />
    <glyph glyph-name="trademark" unicode="&#x2122;" horiz-adv-x="855" 
d="M90 293v317h-85v90h274v-90h-86v-317h-103zM323 293v407h157l76 -259l76 259h155v-407h-101v302l-88 -302h-83l-91 302v-302h-101z" />
    <glyph glyph-name="dollar" unicode="$" horiz-adv-x="568" 
d="M541 192c0 -113 -78 -194 -208 -208v-84h-89v85c-143 16 -221 105 -221 243h162c0 -75 40 -120 107 -120c57 0 88 27 88 74c0 34 -17 60 -76 80l-123 38c-90 29 -141 97 -141 193c0 109 88 186 204 199v88h89v-90c134 -18 196 -106 196 -213h-162c0 64 -32 99 -88 99
c-48 0 -77 -26 -77 -67c0 -39 19 -67 84 -90l123 -40c87 -29 132 -93 132 -187z" />
    <glyph glyph-name="cent" unicode="&#xa2;" horiz-adv-x="558" 
d="M284 213c56 0 85 22 96 64h153c-11 -104 -86 -176 -204 -191v-86h-89v86c-134 17 -215 115 -215 253s81 235 215 252v89h89v-89c118 -15 193 -87 204 -194h-153c-11 45 -40 68 -96 68c-66 0 -106 -46 -106 -126s40 -126 106 -126z" />
    <glyph glyph-name="sterling" unicode="&#xa3;" horiz-adv-x="570" 
d="M250 270c0 -64 -19 -120 -41 -139h323v-131h-498v103c29 23 54 75 54 151v53h-56v92h56v70c0 159 102 226 235 226c152 0 235 -83 235 -211h-161c0 60 -25 89 -74 89c-45 0 -73 -27 -73 -99v-75h148v-92h-148v-37z" />
    <glyph glyph-name="florin" unicode="&#x192;" horiz-adv-x="444" 
d="M395 582c-47 0 -70 -20 -78 -72l-5 -28h111l-20 -114h-111l-71 -395c-24 -131 -96 -181 -201 -181c-38 0 -72 6 -93 13l19 110c15 -4 28 -6 46 -6c46 0 68 18 76 65l71 394h-87l20 114h88l5 29c21 130 99 184 208 184c36 0 69 -6 87 -13l-19 -107c-15 5 -28 7 -46 7z" />
    <glyph glyph-name="yen" unicode="&#xa5;" horiz-adv-x="599" 
d="M599 680l-214 -395h126v-80h-130v-50h130v-80h-130v-75h-162v75h-131v80h131v50h-130v80h125l-214 395h167l133 -280l132 280h167z" />
    <glyph glyph-name="Euro" unicode="&#x20ac;" 
d="M347 112c52 0 85 35 93 90h158c-19 -120 -99 -217 -251 -217c-175 0 -246 111 -266 257h-64l23 77h35v21v23h-58l23 77h41c21 145 92 255 266 255c154 0 235 -97 254 -217h-158c-9 55 -40 90 -95 90c-69 0 -100 -49 -112 -128h169l-24 -77h-151v-23v-21h175l-24 -77h-146
c12 -82 42 -130 112 -130z" />
    <glyph glyph-name="uni20A9" unicode="&#x20a9;" horiz-adv-x="809" 
d="M792 358h-83l-12 -61h95v-89h-113l-42 -208h-139l-94 467l-94 -467h-139l-42 208h-112v89h94l-12 61h-82v89h64l-47 233h145l70 -485l98 485h115l97 -485l71 485h144l-47 -233h65v-89z" />
    <glyph glyph-name="uni20B4" unicode="&#x20b4;" horiz-adv-x="589" 
d="M388 314l-11 -5h200l-20 -60h-307c-42 -22 -56 -36 -56 -72c0 -43 33 -70 92 -70c66 0 105 28 105 75h155c0 -117 -97 -197 -263 -197c-147 0 -243 74 -243 190c0 28 5 53 14 74h-42l20 60h65c22 20 49 36 82 50l38 17h-205l20 60h309c29 22 35 46 35 76
c0 39 -28 67 -78 67c-59 0 -89 -26 -89 -69h-155c0 104 94 185 244 185c142 0 235 -69 235 -184c0 -28 -5 -53 -14 -75h58l-20 -60h-77c-24 -25 -55 -45 -92 -62z" />
    <glyph glyph-name="uni20B8" unicode="&#x20b8;" horiz-adv-x="556" 
d="M5 571v109h546v-109h-546zM197 0v383h-192v134h546v-134h-193v-383h-161z" />
    <glyph glyph-name="uni20AE" unicode="&#x20ae;" horiz-adv-x="556" 
d="M551 540h-193v-101l106 47v-85l-106 -47v-49l106 47v-85l-106 -47v-220h-161v149l-105 -47v85l105 47v49l-105 -47v85l105 47v172h-192v140h546v-140z" />
    <glyph glyph-name="dollar.tf" 
d="M578 192c0 -113 -78 -194 -208 -208v-84h-89v85c-143 16 -221 105 -221 243h162c0 -75 40 -120 107 -120c57 0 88 27 88 74c0 34 -17 60 -76 80l-123 38c-90 29 -141 97 -141 193c0 109 88 186 204 199v88h89v-90c134 -18 196 -106 196 -213h-162c0 64 -32 99 -88 99
c-48 0 -77 -26 -77 -67c0 -39 19 -67 84 -90l123 -40c87 -29 132 -93 132 -187z" />
    <glyph glyph-name="cent.tf" 
d="M325 213c56 0 85 22 96 64h153c-11 -104 -86 -176 -204 -191v-86h-89v86c-134 17 -215 115 -215 253s81 235 215 252v89h89v-89c118 -15 193 -87 204 -194h-153c-11 45 -40 68 -96 68c-66 0 -106 -46 -106 -126s40 -126 106 -126z" />
    <glyph glyph-name="sterling.tf" 
d="M275 270c0 -64 -19 -120 -41 -139h323v-131h-498v103c29 23 54 75 54 151v53h-56v92h56v70c0 159 102 226 235 226c152 0 235 -83 235 -211h-161c0 60 -25 89 -74 89c-45 0 -73 -27 -73 -99v-75h148v-92h-148v-37z" />
    <glyph glyph-name="florin.tf" 
d="M521 582c-47 0 -70 -20 -78 -72l-5 -28h111l-20 -114h-111l-71 -395c-24 -131 -96 -181 -201 -181c-38 0 -72 6 -93 13l19 110c15 -4 28 -6 46 -6c46 0 68 18 76 65l71 394h-87l20 114h88l5 29c21 130 99 184 208 184c36 0 69 -6 87 -13l-19 -107c-15 5 -28 7 -46 7z" />
    <glyph glyph-name="yen.tf" 
d="M619 680l-214 -395h126v-80h-130v-50h130v-80h-130v-75h-162v75h-131v80h131v50h-130v80h125l-214 395h167l133 -280l132 280h167z" />
    <glyph glyph-name="Euro.tf" 
d="M356 112c49 0 80 35 88 90h160c-19 -120 -97 -217 -248 -217c-171 0 -241 111 -261 257h-62l23 77h33v21v23h-56l23 77h39c20 145 91 255 261 255c153 0 232 -97 251 -217h-160c-8 55 -38 90 -90 90c-65 0 -94 -49 -105 -128h161l-23 -77h-144v-23v-21h167l-23 -77h-139
c11 -82 40 -130 105 -130z" />
    <glyph glyph-name="uni20A9.tf" 
d="M618 360h-53l-10 -63h63v-87h-77l-32 -210h-134l-55 476l-56 -476h-133l-32 210h-76v87h62l-10 63h-52v87h39l-36 233h133l47 -493l58 493h111l58 -493l48 493h133l-36 -233h40v-87z" />
    <glyph glyph-name="uni20B4.tf" 
d="M500 376c-23 -24 -53 -43 -88 -60l-14 -7h193v-60h-316c-42 -22 -55 -36 -55 -72c0 -43 32 -70 91 -70c66 0 106 28 106 75h155c0 -117 -97 -197 -263 -197c-143 0 -237 74 -237 190c0 28 5 53 13 74h-48v60h91c21 19 47 35 78 49l39 18h-208v60h329c30 22 36 46 36 76
c0 39 -29 67 -78 67c-59 0 -90 -26 -90 -69h-155c0 104 93 185 243 185c137 0 230 -69 230 -184c0 -28 -5 -53 -13 -75h52v-60h-91z" />
    <glyph glyph-name="uni20B8.tf" 
d="M47 571v109h546v-109h-546zM239 0v383h-192v134h546v-134h-193v-383h-161z" />
    <glyph glyph-name="uni20AE.tf" 
d="M593 540h-193v-101l106 47v-85l-106 -47v-49l106 47v-85l-106 -47v-220h-161v149l-105 -47v85l105 47v49l-105 -47v85l105 47v172h-192v140h546v-140z" />
    <glyph glyph-name="currency" unicode="&#xa4;" horiz-adv-x="609" 
d="M102 95l-70 69l59 59c-29 42 -45 93 -45 147c0 55 16 106 45 147l-58 59l69 70l60 -61c40 26 88 41 142 41c55 0 103 -15 143 -41l60 60l70 -69l-59 -59c30 -41 46 -92 46 -147c0 -54 -16 -106 -46 -147l59 -58l-70 -70l-60 60c-40 -26 -88 -40 -143 -40
c-54 0 -101 14 -141 40zM304 247c71 0 116 56 116 123c0 68 -45 123 -116 123c-69 0 -114 -55 -114 -123c0 -67 45 -123 114 -123z" />
    <glyph glyph-name="fraction" unicode="&#x2044;" horiz-adv-x="175" 
d="M-107 -27l-83 54l472 682l83 -54z" />
    <glyph glyph-name="onequarter" unicode="&#xbc;" horiz-adv-x="897" 
d="M588 709l83 -54l-472 -682l-83 54zM122 286v235h-89v86c86 0 106 25 106 73h94v-394h-111zM859 199v-94h-44v-105h-112v105h-172v289h111v-195h61v96h112v-96h44z" />
    <glyph glyph-name="onehalf" unicode="&#xbd;" horiz-adv-x="870" 
d="M199 -27l-83 54l472 682l83 -54zM122 286v235h-89v86c86 0 106 25 106 73h94v-394h-111zM494 0c0 101 32 156 108 194l69 33c28 14 41 31 41 55s-16 39 -42 39c-33 0 -51 -20 -51 -58h-115c0 85 66 141 165 141s158 -44 158 -118c0 -53 -28 -93 -81 -120l-61 -31
c-28 -14 -41 -25 -48 -46h185v-89h-328z" />
    <glyph glyph-name="threequarters" unicode="&#xbe;" horiz-adv-x="981" 
d="M672 709l83 -54l-472 -682l-83 54zM370 397c0 -72 -64 -121 -170 -121c-108 0 -165 49 -165 139h113c0 -34 21 -53 55 -53c32 0 50 16 50 42c0 30 -19 45 -56 45h-49v82h49c36 0 53 14 53 41c0 23 -18 38 -45 38c-31 0 -50 -17 -50 -46h-113c0 75 61 126 166 126
c94 0 156 -41 156 -110c0 -43 -26 -77 -80 -89c54 -10 86 -45 86 -94zM943 199v-94h-44v-105h-112v105h-172v289h111v-195h61v96h112v-96h44z" />
    <glyph glyph-name="percent" unicode="%" horiz-adv-x="811" 
d="M207 -21l-76 44l474 684l75 -44zM203 347c-115 0 -182 80 -182 170s67 170 182 170s183 -80 183 -170s-68 -170 -183 -170zM203 439c50 0 76 34 76 78s-26 79 -76 79s-76 -35 -76 -79s26 -78 76 -78zM607 -7c-115 0 -182 80 -182 170s67 170 182 170s183 -80 183 -170
s-68 -170 -183 -170zM607 85c50 0 76 34 76 78s-26 79 -76 79s-76 -35 -76 -79s26 -78 76 -78z" />
    <glyph glyph-name="perthousand" unicode="&#x2030;" horiz-adv-x="1199" 
d="M207 -21l-76 44l474 684l75 -44zM203 347c-115 0 -182 80 -182 170s67 170 182 170s183 -80 183 -170s-68 -170 -183 -170zM203 439c50 0 76 34 76 78s-26 79 -76 79s-76 -35 -76 -79s26 -78 76 -78zM607 -7c-115 0 -182 80 -182 170s67 170 182 170s183 -80 183 -170
s-68 -170 -183 -170zM995 -7c-115 0 -182 80 -182 170s67 170 182 170s183 -80 183 -170s-68 -170 -183 -170zM607 85c50 0 76 34 76 78s-26 79 -76 79s-76 -35 -76 -79s26 -78 76 -78zM995 85c50 0 76 34 76 78s-26 79 -76 79s-76 -35 -76 -79s26 -78 76 -78z" />
    <glyph glyph-name="perthousand.tf" 
d="M394 692l25 -13l-334 -690l-26 13zM256 511c0 -100 -45 -170 -123 -170c-77 0 -123 70 -123 170s46 170 123 170s123 -70 123 -170zM93 511c0 -61 14 -92 40 -92s40 31 40 92c0 63 -14 93 -40 93s-40 -31 -40 -93zM507 335c77 0 123 -70 123 -170s-46 -170 -123 -170
c-34 0 -62 13 -82 37c-21 -24 -48 -37 -82 -37c-78 0 -124 70 -124 170s45 170 124 170c34 0 61 -13 82 -37c20 24 48 37 82 37zM343 72c26 0 40 31 40 93c0 61 -14 92 -40 92s-40 -31 -40 -92c0 -62 14 -93 40 -93zM507 72c26 0 40 31 40 93c0 61 -14 92 -40 92
s-40 -31 -40 -92c0 -62 14 -93 40 -93z" />
    <glyph glyph-name="zero.zero" horiz-adv-x="644" 
d="M322 695c185 0 284 -124 284 -355s-99 -355 -284 -355s-284 124 -284 355s99 355 284 355zM322 565c-88 0 -130 -72 -130 -225c0 -70 9 -124 27 -160l160 371c-16 9 -35 14 -57 14zM322 115c88 0 130 72 130 225c0 73 -9 127 -29 164l-161 -374c17 -10 37 -15 60 -15z
" />
    <glyph glyph-name="zero" unicode="0" horiz-adv-x="644" 
d="M322 -15c-185 0 -284 124 -284 355s99 355 284 355s284 -124 284 -355s-99 -355 -284 -355zM322 115c88 0 130 72 130 225s-42 225 -130 225s-130 -72 -130 -225c0 -154 42 -225 130 -225z" />
    <glyph glyph-name="one" unicode="1" horiz-adv-x="432" 
d="M176 0v430h-144v127c135 0 165 39 165 123h140v-680h-161z" />
    <glyph glyph-name="two" unicode="2" horiz-adv-x="615" 
d="M42 0c0 164 51 258 176 323l109 57c50 26 75 62 75 108c0 49 -33 82 -82 82c-63 0 -98 -42 -98 -118h-165c0 147 104 243 262 243c156 0 249 -76 249 -201c0 -88 -47 -161 -135 -207l-101 -54c-58 -32 -78 -54 -91 -101h321v-132h-520z" />
    <glyph glyph-name="three" unicode="3" horiz-adv-x="602" 
d="M297 -15c-174 0 -269 86 -269 239h163c0 -72 40 -112 109 -112c59 0 97 35 97 88c0 61 -37 91 -107 91h-68v124h69c64 0 96 27 96 83c0 46 -35 77 -87 77c-60 0 -97 -36 -97 -96h-160c0 130 98 216 261 216c147 0 245 -73 245 -189c0 -74 -42 -128 -125 -151
c85 -16 137 -77 137 -162c0 -123 -104 -208 -264 -208z" />
    <glyph glyph-name="four" unicode="4" horiz-adv-x="615" 
d="M578 330v-137h-81v-193h-159v193h-283v487h159v-350h124v176h159v-176h81z" />
    <glyph glyph-name="five" unicode="5" horiz-adv-x="613" 
d="M309 -15c-152 0 -250 80 -259 206h157c5 -49 48 -76 102 -76c71 0 112 47 112 120c0 69 -39 116 -103 116c-54 0 -90 -20 -110 -67h-142v396h474v-125h-329v-145c35 38 88 54 145 54c134 0 220 -92 220 -226c0 -145 -102 -253 -267 -253z" />
    <glyph glyph-name="six" unicode="6" horiz-adv-x="599" 
d="M330 495c148 -13 237 -116 237 -254c0 -147 -103 -256 -268 -256s-267 109 -267 256c0 62 18 117 51 160l202 279h185zM299 114c73 0 115 54 115 127s-42 126 -115 126c-72 0 -115 -53 -115 -126s43 -127 115 -127z" />
    <glyph glyph-name="seven" unicode="7" horiz-adv-x="565" 
d="M52 0l279 542h-298v138h532l-333 -680h-180z" />
    <glyph glyph-name="eight" unicode="8" horiz-adv-x="617" 
d="M309 -15c-162 0 -267 76 -267 203c0 81 40 141 112 164c-59 22 -99 83 -99 156c0 115 102 187 254 187c151 0 254 -72 254 -187c0 -73 -42 -134 -101 -156c72 -23 114 -83 114 -164c0 -127 -106 -203 -267 -203zM309 409c61 0 100 34 100 85c0 53 -40 86 -100 86
c-61 0 -100 -33 -100 -86c0 -51 41 -85 100 -85zM309 105c65 0 109 37 109 94c0 56 -44 93 -109 93c-63 0 -109 -37 -109 -93c0 -57 44 -94 109 -94z" />
    <glyph glyph-name="nine" unicode="9" horiz-adv-x="595" 
d="M563 439c0 -62 -18 -117 -51 -160l-202 -279h-185l140 185c-148 13 -237 116 -237 254c0 147 103 256 268 256s267 -109 267 -256zM181 439c0 -73 42 -126 115 -126c72 0 115 53 115 126s-43 127 -115 127c-73 0 -115 -54 -115 -127z" />
    <glyph glyph-name="zero.tf.zero" 
d="M320 695c155 0 267 -105 267 -257v-203c0 -147 -112 -250 -267 -250s-267 103 -267 250v203c0 152 112 257 267 257zM205 438v-203c0 -18 4 -35 10 -50l158 365c-16 8 -34 12 -53 12c-67 0 -115 -52 -115 -124zM435 235v203c0 21 -4 40 -12 57l-157 -365
c16 -8 34 -12 54 -12c67 0 115 50 115 117z" />
    <glyph glyph-name="zero.tf" 
d="M320 -15c-155 0 -267 103 -267 250v203c0 152 112 257 267 257s267 -105 267 -257v-203c0 -147 -112 -250 -267 -250zM320 118c67 0 115 50 115 117v203c0 72 -48 124 -115 124s-115 -52 -115 -124v-203c0 -67 48 -117 115 -117z" />
    <glyph glyph-name="one.tf" 
d="M404 132h189v-132h-546v132h196v298h-175v127h28c113 0 160 45 172 123h136v-548z" />
    <glyph glyph-name="two.tf" 
d="M46 0c0 164 53 257 184 323l114 57c53 26 79 62 79 108c0 49 -34 82 -87 82c-66 0 -105 -40 -105 -114h-168c0 145 109 239 275 239c159 0 255 -76 255 -201c0 -88 -46 -164 -143 -214l-101 -52c-67 -34 -89 -48 -99 -96h348v-132h-552z" />
    <glyph glyph-name="three.tf" 
d="M322 -15c-176 0 -274 84 -274 236h166c0 -69 41 -109 113 -109c60 0 99 33 99 86c0 63 -40 93 -126 93h-59v124h60c78 0 114 26 114 86c0 45 -36 74 -91 74c-62 0 -100 -34 -100 -93h-163c0 131 103 213 266 213c153 0 251 -74 251 -189c0 -76 -45 -129 -129 -151
c87 -15 143 -76 143 -162c0 -125 -108 -208 -270 -208z" />
    <glyph glyph-name="four.tf" 
d="M592 330v-137h-107v-193h-154v193h-283v487h163v-350h120v176h154v-176h107z" />
    <glyph glyph-name="five.tf" 
d="M315 -15c-158 0 -258 73 -267 206h160c5 -49 49 -76 106 -76c72 0 116 47 116 120c0 67 -41 112 -107 112c-56 0 -93 -19 -113 -63h-145v396h500v-125h-355v-145c36 38 90 54 152 54c139 0 229 -89 229 -228c0 -150 -106 -251 -276 -251z" />
    <glyph glyph-name="six.tf" 
d="M344 495c156 -9 252 -114 252 -254c0 -147 -106 -256 -276 -256c-169 0 -276 109 -276 256c0 62 19 117 53 159l206 280h187zM320 114c76 0 121 54 121 127s-45 126 -121 126s-120 -53 -120 -126s44 -127 120 -127z" />
    <glyph glyph-name="seven.tf" 
d="M73 0l294 542h-320v138h552l-347 -680h-179z" />
    <glyph glyph-name="eight.tf" 
d="M320 -15c-167 0 -275 76 -275 203c0 81 43 141 129 164c-75 22 -116 83 -116 156c0 115 105 187 262 187c156 0 262 -72 262 -187c0 -73 -43 -134 -117 -156c85 -23 130 -83 130 -164c0 -127 -109 -203 -275 -203zM320 407c67 0 108 35 108 85c0 53 -41 86 -108 86
s-109 -33 -109 -86c0 -50 44 -85 109 -85zM320 105c71 0 118 38 118 95s-47 94 -118 94c-69 0 -118 -37 -118 -94s47 -95 118 -95z" />
    <glyph glyph-name="nine.tf" 
d="M596 439c0 -62 -19 -117 -53 -159l-206 -280h-187l146 185c-156 9 -252 114 -252 254c0 147 106 256 276 256c169 0 276 -109 276 -256zM199 439c0 -73 45 -126 121 -126s120 53 120 126s-44 127 -120 127s-121 -54 -121 -127z" />
    <glyph glyph-name="uni03BC" unicode="&#x3bc;" horiz-adv-x="607" 
d="M391 482h152v-482h-152v69c-27 -51 -77 -82 -150 -82c-9 0 -17 0 -25 1v-188h-153v682h155v-264c0 -66 22 -102 80 -102c65 0 93 42 93 107v259z" />
    <glyph glyph-name="uni02BC" unicode="&#x2bc;" horiz-adv-x="295" 
d="M145 719c52 0 104 -41 104 -130c0 -105 -56 -169 -159 -169c-11 0 -25 1 -35 3v55c15 -2 20 -3 37 -3c29 0 51 10 65 26c15 15 24 35 26 57c-10 -12 -27 -17 -44 -17c-50 0 -85 38 -85 89s37 89 91 89z" />
    <glyph glyph-name="eth" unicode="&#xf0;" horiz-adv-x="585" 
d="M518 388c27 -41 42 -91 42 -147c0 -147 -102 -256 -267 -256c-166 0 -268 109 -268 256c0 137 88 240 235 253l-37 52l-83 -35l-27 60l71 29l-71 100h185l29 -41l82 34l27 -59l-71 -29zM293 115c72 0 115 53 115 126s-43 126 -115 126c-73 0 -115 -53 -115 -126
s42 -126 115 -126z" />
    <glyph glyph-name="numbersign" unicode="#" horiz-adv-x="569" 
d="M77 0l24 180h-86v108h102l17 124h-89v108h104l25 180h111l-25 -180h103l25 180h112l-25 -180h79v-108h-94l-17 -124h81v-108h-97l-25 -180h-111l25 180h-103l-25 -180h-111zM228 288h103l17 124h-103z" />
    <glyph glyph-name="uni2116" unicode="&#x2116;" horiz-adv-x="1188" 
d="M68 0v700h166l243 -453v453h155v-700h-166l-243 453v-453h-155zM898 140c-139 0 -221 94 -221 206c0 113 82 206 221 206c140 0 222 -93 222 -206c0 -112 -82 -206 -222 -206zM898 256c52 0 85 40 85 90s-33 90 -85 90c-51 0 -84 -40 -84 -90s33 -90 84 -90zM677 0v109
h443v-109h-443z" />
    <glyph glyph-name="uni0394" unicode="&#x394;" horiz-adv-x="672" 
d="M10 0l250 700h149l253 -700h-652zM224 127h221l-110 373z" />
    <glyph glyph-name="uni03A9" unicode="&#x3a9;" horiz-adv-x="698" 
d="M42 0v127h150v15c-105 48 -165 147 -165 262c0 162 121 308 322 308s322 -146 322 -308c0 -115 -61 -215 -166 -262v-15h151v-127h-275v218c89 20 129 95 129 180c0 90 -55 169 -161 169s-161 -79 -161 -169c0 -85 40 -160 129 -180v-218h-275z" />
    <glyph glyph-name="pi" unicode="&#x3c0;" horiz-adv-x="677" 
d="M127 0v367h-64v115h551v-115h-63v-367h-153v367h-119v-367h-152z" />
    <glyph glyph-name="periodcentered" unicode="&#xb7;" horiz-adv-x="322" 
d="M161 209c-59 0 -104 47 -104 104c0 56 45 103 104 103s105 -47 105 -103c0 -57 -46 -104 -105 -104z" />
    <glyph glyph-name="braceleft" unicode="{" horiz-adv-x="358" 
d="M266 -189c-91 0 -162 55 -162 159v149c0 61 -50 82 -87 82v136c37 0 87 21 87 82v155c0 103 71 159 162 159h86v-119h-48c-53 0 -68 -43 -68 -82v-146c0 -90 -65 -113 -95 -117c30 -4 95 -27 95 -117v-141c0 -38 15 -81 68 -81h48v-119h-86z" />
    <glyph glyph-name="braceright" unicode="}" horiz-adv-x="358" 
d="M92 -189h-86v119h48c53 0 68 43 68 81v141c0 90 65 113 95 117c-30 4 -95 27 -95 117v146c0 39 -15 82 -68 82h-48v119h86c91 0 162 -56 162 -159v-155c0 -61 50 -82 87 -82v-136c-37 0 -87 -21 -87 -82v-149c0 -104 -71 -159 -162 -159z" />
    <glyph glyph-name="uni00AD" unicode="&#xad;" horiz-adv-x="407" 
d="M45 216v122h317v-122h-317z" />
    <glyph glyph-name="guillemotleft" unicode="&#xab;" horiz-adv-x="551" 
d="M221 62l-218 207l218 207l74 -78l-137 -129l137 -128zM467 62l-218 207l218 207l74 -78l-137 -129l137 -128z" />
    <glyph glyph-name="guillemotright" unicode="&#xbb;" horiz-adv-x="551" 
d="M84 62l-74 79l137 128l-137 129l74 78l218 -207zM330 62l-74 79l137 128l-137 129l74 78l218 -207z" />
    <glyph glyph-name="plus" unicode="+" horiz-adv-x="535" 
d="M202 98v157h-157v122h157v158h131v-158h157v-122h-157v-157h-131z" />
    <glyph glyph-name="minus" unicode="&#x2212;" horiz-adv-x="535" 
d="M45 255v122h445v-122h-445z" />
    <glyph glyph-name="plusminus" unicode="&#xb1;" horiz-adv-x="535" 
d="M200 286v97h-155v123h155v97h134v-97h156v-123h-156v-97h-134zM45 111v123h445v-123h-445z" />
    <glyph glyph-name="multiply" unicode="&#xd7;" horiz-adv-x="531" 
d="M486 450l-134 -134l134 -134l-87 -87l-134 134l-133 -133l-87 86l134 134l-134 134l86 87l134 -134l134 134z" />
    <glyph glyph-name="divide" unicode="&#xf7;" horiz-adv-x="535" 
d="M267 405c-50 0 -90 40 -90 89c0 50 40 90 90 90c51 0 91 -40 91 -90c0 -49 -40 -89 -91 -89zM45 251v122h445v-122h-445zM267 45c-50 0 -90 41 -90 90c0 50 40 90 90 90c51 0 91 -40 91 -90c0 -49 -40 -90 -91 -90z" />
    <glyph glyph-name="equal" unicode="=" horiz-adv-x="548" 
d="M45 356v123h458v-123h-458zM45 155v123h458v-123h-458z" />
    <glyph glyph-name="less" unicode="&#x3c;" horiz-adv-x="524" 
d="M479 76l-434 178v120l434 178v-139l-247 -99l247 -99v-139z" />
    <glyph glyph-name="greater" unicode="&#x3e;" horiz-adv-x="524" 
d="M45 76v139l247 99l-247 99v139l434 -178v-120z" />
    <glyph glyph-name="degree" unicode="&#xb0;" horiz-adv-x="377" 
d="M189 351c-97 0 -172 75 -172 171s75 171 172 171c96 0 171 -75 171 -171s-75 -171 -171 -171zM189 448c43 0 70 31 70 74s-27 73 -70 73c-44 0 -71 -30 -71 -73s27 -74 71 -74z" />
    <glyph glyph-name="approxequal" unicode="&#x2248;" horiz-adv-x="548" 
d="M386 313c-88 0 -131 68 -229 68c-42 0 -83 -29 -112 -55v119c35 44 82 59 118 59c68 0 171 -68 225 -68c46 0 87 29 114 55v-119c-34 -44 -80 -59 -116 -59zM386 126c-86 0 -133 68 -229 68c-42 0 -83 -29 -111 -55v120c34 44 81 59 117 59c68 0 170 -68 225 -68
c46 0 86 29 115 55v-120c-35 -44 -81 -59 -117 -59z" />
    <glyph glyph-name="greaterequal" unicode="&#x2265;" horiz-adv-x="535" 
d="M47 205v122l243 50l-243 48v122l440 -117v-107zM46 54v113h444v-113h-444z" />
    <glyph glyph-name="infinity" unicode="&#x221e;" horiz-adv-x="903" 
d="M270 75c-146 0 -220 104 -220 214s74 214 220 214c65 0 127 -33 181 -104c54 71 117 104 182 104c144 0 220 -100 220 -214s-76 -214 -220 -214c-65 0 -128 32 -182 104c-54 -72 -116 -104 -181 -104zM272 197c35 0 81 28 116 92c-35 63 -81 92 -116 92
c-60 0 -92 -43 -92 -92s32 -92 92 -92zM631 197c61 0 92 43 92 92s-31 92 -92 92c-35 0 -81 -29 -116 -92c35 -64 81 -92 116 -92z" />
    <glyph glyph-name="lessequal" unicode="&#x2264;" horiz-adv-x="535" 
d="M488 205l-440 118v107l440 117v-122l-243 -48l243 -50v-122zM489 54h-444v113h444v-113z" />
    <glyph glyph-name="logicalnot" unicode="&#xac;" horiz-adv-x="534" 
d="M359 170v173h-314v122h444v-295h-130z" />
    <glyph glyph-name="notequal" unicode="&#x2260;" horiz-adv-x="548" 
d="M503 356h-156l-33 -78h189v-123h-242l-42 -97h-110l42 97h-106v123h159l34 78h-193v123h246l39 90h109l-39 -90h103v-123z" />
    <glyph glyph-name="integral" unicode="&#x222b;" horiz-adv-x="411" 
d="M153 -209c-39 0 -84 6 -103 12v114c19 -5 28 -6 39 -6c27 0 41 13 41 48v680c0 126 58 155 128 155c39 0 84 -6 103 -12v-114c-18 5 -27 6 -39 6c-27 0 -40 -13 -40 -48v-680c0 -126 -59 -155 -129 -155z" />
    <glyph glyph-name="partialdiff" unicode="&#x2202;" horiz-adv-x="629" 
d="M310 718c153 0 269 -85 269 -373c0 -275 -105 -365 -272 -365c-170 0 -257 98 -257 231c0 149 107 240 240 240c50 0 94 -13 130 -37c-7 145 -39 184 -107 184c-69 0 -98 -41 -98 -99h-162c0 112 77 219 257 219zM307 108c82 0 108 60 113 185c-27 21 -64 33 -102 33
c-79 0 -111 -53 -111 -115c0 -52 24 -103 100 -103z" />
    <glyph glyph-name="product" unicode="&#x220f;" horiz-adv-x="806" 
d="M120 -200v853h-70v141h706v-141h-70v-853h-162v853h-242v-853h-162z" />
    <glyph glyph-name="radical" unicode="&#x221a;" horiz-adv-x="885" 
d="M310 -200l-130 356h-130v136h247l88 -286l273 788h177l-376 -994h-149z" />
    <glyph glyph-name="summation" unicode="&#x2211;" horiz-adv-x="653" 
d="M50 -199v138l346 362l-346 355v138h553v-143h-353l335 -345l-335 -362h353v-143h-553z" />
    <glyph glyph-name="lozenge" unicode="&#x25ca;" horiz-adv-x="651" 
d="M240 0l-190 396l190 398h172l189 -398l-189 -396h-172zM325 150l113 246l-112 246l-113 -246z" />
    <glyph glyph-name="paragraph" unicode="&#xb6;" horiz-adv-x="708" 
d="M274 -159v457c-126 0 -224 76 -224 207c0 162 144 212 246 212h362v-107h-55v-769h-120v769h-89v-769h-120z" />
    <glyph glyph-name="section" unicode="&#xa7;" horiz-adv-x="603" 
d="M546 245c0 -60 -31 -102 -96 -133c45 -32 78 -76 78 -148c0 -113 -95 -179 -237 -179c-160 0 -241 79 -241 196h139c0 -57 33 -93 102 -93c62 0 96 29 96 72c0 140 -331 96 -331 308c0 58 30 100 94 130c-43 31 -75 74 -75 143c0 106 94 178 235 178
c162 0 243 -79 243 -195h-140c0 57 -33 92 -102 92c-62 0 -95 -28 -95 -71c0 -137 330 -94 330 -300zM189 279c0 -64 80 -86 162 -118c37 15 63 38 63 73c0 64 -83 85 -167 116c-35 -15 -58 -37 -58 -71z" />
    <glyph glyph-name="asciicircum" unicode="^" horiz-adv-x="599" 
d="M50 287l205 413h87l207 -413h-147l-103 243l-104 -243h-145z" />
    <glyph glyph-name="daggerdbl" unicode="&#x2021;" horiz-adv-x="455" 
d="M166 -182v182h-116v109h116v263h-116v110h116v235h124v-235h115v-110h-115v-263h115v-109h-115v-182h-124z" />
    <glyph glyph-name="uni0243" unicode="&#x243;" horiz-adv-x="623" 
d="M591 188c0 -105 -70 -174 -186 -186v-102h-89v100h-54v-100h-89v100h-105v680h105v100h89v-100h54v100h89v-103c110 -14 176 -78 176 -174c0 -88 -52 -143 -134 -156c81 -8 144 -65 144 -159zM230 564v-162h90c62 0 99 31 99 81s-36 81 -99 81h-90zM331 123
c60 0 97 32 97 87c0 49 -39 82 -97 82h-101v-169h101z" />
    <glyph glyph-name="Jacute" horiz-adv-x="578" 
d="M361 729l-40 80l217 89l39 -79zM270 -18c-169 0 -255 109 -255 259h162c0 -72 30 -120 93 -120c64 0 95 47 95 116v463h161v-453c0 -172 -96 -265 -256 -265z" />
    <glyph glyph-name="uni0243.case" horiz-adv-x="623" 
d="M591 193c0 -108 -70 -179 -186 -191v-105h-89v103h-54v-103h-89v103h-105v700h105v103h89v-103h54v103h89v-106c110 -15 176 -80 176 -179c0 -91 -52 -147 -134 -161c81 -8 144 -67 144 -164zM230 583v-171h90c62 0 99 33 99 86s-36 85 -99 85h-90zM331 124
c60 0 97 33 97 91c0 52 -39 87 -97 87h-101v-178h101z" />
    <glyph glyph-name="uni0243.tf" 
d="M571 188c0 -105 -64 -174 -176 -186v-102h-89v100h-54v-100h-89v100h-95v680h95v100h89v-100h54v100h89v-103c106 -15 166 -78 166 -174c0 -88 -52 -143 -134 -156c81 -8 144 -65 144 -159zM220 564v-162h90c62 0 99 31 99 81s-36 81 -99 81h-90zM321 123
c60 0 97 32 97 87c0 49 -39 82 -97 82h-101v-169h101z" />
    <glyph glyph-name="uni0243.tf.tf.case" 
d="M571 193c0 -107 -64 -178 -176 -191v-105h-89v103h-54v-103h-89v103h-95v700h95v103h89v-103h54v103h89v-106c106 -15 166 -80 166 -179c0 -91 -52 -147 -134 -161c81 -8 144 -67 144 -164zM220 583v-171h90c62 0 99 33 99 86s-36 85 -99 85h-90zM321 124
c60 0 97 33 97 91c0 52 -39 87 -97 87h-101v-178h101z" />
    <glyph glyph-name="Y.ss02" horiz-adv-x="655" 
d="M246 0v268l-253 432h184l150 -280l151 280h183l-253 -432v-268h-162z" />
    <glyph glyph-name="Yacute.ss02" horiz-adv-x="655" 
d="M242 729l-40 80l217 89l39 -79zM246 0v268l-253 432h184l150 -280l151 280h183l-253 -432v-268h-162z" />
    <glyph glyph-name="Ycircumflex.ss02" horiz-adv-x="655" 
d="M324 899l142 -112l-61 -56l-81 68l-80 -68l-61 56zM246 0v268l-253 432h184l150 -280l151 280h183l-253 -432v-268h-162z" />
    <glyph glyph-name="Ydieresis.ss02" horiz-adv-x="655" 
d="M208 733c-45 0 -82 37 -82 80c0 45 37 81 82 81c47 0 82 -36 82 -81c0 -43 -35 -80 -82 -80zM444 733c-46 0 -81 37 -81 80c0 45 35 81 81 81s83 -36 83 -81c0 -43 -37 -80 -83 -80zM246 0v268l-253 432h184l150 -280l151 280h183l-253 -432v-268h-162z" />
    <glyph glyph-name="Ygrave.ss02" horiz-adv-x="655" 
d="M411 729l-216 90l39 79l217 -89zM246 0v268l-253 432h184l150 -280l151 280h183l-253 -432v-268h-162z" />
    <glyph glyph-name="Adieresis.ss05" horiz-adv-x="658" 
d="M385 847l-87 -111h-101l87 111h101zM444 736h-101l87 111h101zM477 0l-24 85h-248l-24 -85h-171l237 700h163l238 -700h-171zM241 212h176l-88 311z" />
    <glyph glyph-name="Edieresis.ss05" horiz-adv-x="556" 
d="M258 736h-101l87 111h101zM404 736h-101l87 111h101zM68 0v700h428v-130h-266v-159h266v-127h-266v-154h266v-130h-428z" />
    <glyph glyph-name="Odieresis.ss05" horiz-adv-x="801" 
d="M370 736h-101l87 111h101zM516 736h-101l87 111h101zM401 -20c-235 0 -374 171 -374 370s139 370 374 370s374 -171 374 -370s-139 -370 -374 -370zM401 125c133 0 205 103 205 225s-72 225 -205 225c-134 0 -206 -103 -205 -225c-1 -122 71 -225 205 -225z" />
    <glyph glyph-name="Udieresis.ss05" horiz-adv-x="669" 
d="M303 736h-101l87 111h101zM449 736h-101l87 111h101zM334 -18c-172 0 -282 92 -282 255v463h161v-453c0 -80 48 -125 121 -125c74 0 121 45 121 125v453h162v-463c0 -163 -111 -255 -283 -255z" />
    <glyph glyph-name="jacute" horiz-adv-x="281" 
d="M70 521l-44 84l183 98l44 -84zM62 -206c-33 0 -52 3 -73 10v118c13 -3 23 -4 37 -4c26 0 39 14 39 46v518h153v-537c0 -101 -56 -151 -156 -151z" />
    <glyph glyph-name="a.ss03" horiz-adv-x="577" 
d="M207 -13c-106 0 -175 57 -175 148c0 51 19 93 60 121c38 27 103 43 198 46l74 2v27c0 42 -28 62 -76 62c-50 0 -82 -20 -84 -53h-155c9 92 89 156 242 156c164 0 228 -67 228 -204v-292h-155v61c-25 -43 -76 -74 -157 -74zM265 97c62 0 100 34 100 94v23l-89 -4
c-57 -2 -86 -26 -86 -61c0 -33 28 -52 75 -52z" />
    <glyph glyph-name="aacute.ss03" horiz-adv-x="577" 
d="M155 516l-33 90l288 99l33 -89zM207 -13c-106 0 -175 57 -175 148c0 51 19 93 60 121c38 27 103 43 198 46l74 2v27c0 42 -28 62 -76 62c-50 0 -82 -20 -84 -53h-155c9 92 89 156 242 156c164 0 228 -67 228 -204v-292h-155v61c-25 -43 -76 -74 -157 -74zM265 97
c62 0 100 34 100 94v23l-89 -4c-57 -2 -86 -26 -86 -61c0 -33 28 -52 75 -52z" />
    <glyph glyph-name="abreve.ss03" horiz-adv-x="577" 
d="M289 522c-112 0 -180 58 -186 154h113c2 -44 30 -66 73 -66c44 0 72 22 74 66h112c-5 -96 -77 -154 -186 -154zM207 -13c-106 0 -175 57 -175 148c0 51 19 93 60 121c38 27 103 43 198 46l74 2v27c0 42 -28 62 -76 62c-50 0 -82 -20 -84 -53h-155c9 92 89 156 242 156
c164 0 228 -67 228 -204v-292h-155v61c-25 -43 -76 -74 -157 -74zM265 97c62 0 100 34 100 94v23l-89 -4c-57 -2 -86 -26 -86 -61c0 -33 28 -52 75 -52z" />
    <glyph glyph-name="acircumflex.ss03" horiz-adv-x="577" 
d="M290 714l169 -136l-65 -64l-104 87l-104 -87l-66 64zM207 -13c-106 0 -175 57 -175 148c0 51 19 93 60 121c38 27 103 43 198 46l74 2v27c0 42 -28 62 -76 62c-50 0 -82 -20 -84 -53h-155c9 92 89 156 242 156c164 0 228 -67 228 -204v-292h-155v61
c-25 -43 -76 -74 -157 -74zM265 97c62 0 100 34 100 94v23l-89 -4c-57 -2 -86 -26 -86 -61c0 -33 28 -52 75 -52z" />
    <glyph glyph-name="adieresis.ss03" horiz-adv-x="577" 
d="M180 537c-49 0 -86 38 -86 85s37 85 86 85s86 -38 86 -85s-37 -85 -86 -85zM399 537c-48 0 -86 38 -86 85s38 85 86 85c49 0 87 -38 87 -85s-38 -85 -87 -85zM207 -13c-106 0 -175 57 -175 148c0 51 19 93 60 121c38 27 103 43 198 46l74 2v27c0 42 -28 62 -76 62
c-50 0 -82 -20 -84 -53h-155c9 92 89 156 242 156c164 0 228 -67 228 -204v-292h-155v61c-25 -43 -76 -74 -157 -74zM265 97c62 0 100 34 100 94v23l-89 -4c-57 -2 -86 -26 -86 -61c0 -33 28 -52 75 -52z" />
    <glyph glyph-name="agrave.ss03" horiz-adv-x="577" 
d="M408 514l-288 100l33 89l288 -99zM207 -13c-106 0 -175 57 -175 148c0 51 19 93 60 121c38 27 103 43 198 46l74 2v27c0 42 -28 62 -76 62c-50 0 -82 -20 -84 -53h-155c9 92 89 156 242 156c164 0 228 -67 228 -204v-292h-155v61c-25 -43 -76 -74 -157 -74zM265 97
c62 0 100 34 100 94v23l-89 -4c-57 -2 -86 -26 -86 -61c0 -33 28 -52 75 -52z" />
    <glyph glyph-name="amacron.ss03" horiz-adv-x="577" 
d="M119 563v95h342v-95h-342zM207 -13c-106 0 -175 57 -175 148c0 51 19 93 60 121c38 27 103 43 198 46l74 2v27c0 42 -28 62 -76 62c-50 0 -82 -20 -84 -53h-155c9 92 89 156 242 156c164 0 228 -67 228 -204v-292h-155v61c-25 -43 -76 -74 -157 -74zM265 97
c62 0 100 34 100 94v23l-89 -4c-57 -2 -86 -26 -86 -61c0 -33 28 -52 75 -52z" />
    <glyph glyph-name="aogonek.ss03" horiz-adv-x="577" 
d="M477 -119c15 0 31 4 49 12v-83c-28 -10 -54 -16 -95 -16c-86 0 -134 45 -134 100c0 42 23 77 72 106h-5v61c-25 -43 -76 -74 -157 -74c-106 0 -175 57 -175 148c0 51 19 93 60 121c38 27 103 43 198 46l74 2v27c0 42 -28 62 -76 62c-50 0 -82 -20 -84 -53h-155
c9 92 89 156 242 156c164 0 228 -67 228 -204v-292c-75 -7 -95 -41 -95 -69s22 -50 53 -50zM365 191v23l-89 -4c-57 -2 -86 -26 -86 -61c0 -33 28 -52 75 -52c62 0 100 34 100 94z" />
    <glyph glyph-name="aring.ss03" horiz-adv-x="577" 
d="M290 515c-64 0 -114 45 -114 109c0 65 50 109 114 109s114 -44 114 -109c0 -64 -50 -109 -114 -109zM290 571c28 0 49 21 49 53s-21 54 -49 54s-49 -22 -49 -54s21 -53 49 -53zM207 -13c-106 0 -175 57 -175 148c0 51 19 93 60 121c38 27 103 43 198 46l74 2v27
c0 42 -28 62 -76 62c-50 0 -82 -20 -84 -53h-155c9 92 89 156 242 156c164 0 228 -67 228 -204v-292h-155v61c-25 -43 -76 -74 -157 -74zM265 97c62 0 100 34 100 94v23l-89 -4c-57 -2 -86 -26 -86 -61c0 -33 28 -52 75 -52z" />
    <glyph glyph-name="atilde.ss03" horiz-adv-x="577" 
d="M367 529c-61 0 -95 53 -142 53c-25 0 -47 -10 -74 -36l-38 70c38 54 76 64 103 64c61 0 94 -53 142 -53c25 0 47 9 74 36l38 -70c-38 -53 -76 -64 -103 -64zM207 -13c-106 0 -175 57 -175 148c0 51 19 93 60 121c38 27 103 43 198 46l74 2v27c0 42 -28 62 -76 62
c-50 0 -82 -20 -84 -53h-155c9 92 89 156 242 156c164 0 228 -67 228 -204v-292h-155v61c-25 -43 -76 -74 -157 -74zM265 97c62 0 100 34 100 94v23l-89 -4c-57 -2 -86 -26 -86 -61c0 -33 28 -52 75 -52z" />
    <glyph glyph-name="y.ss04" horiz-adv-x="560" 
d="M104 -215c-25 0 -43 2 -69 10v122c25 -4 43 -6 63 -6c45 0 86 17 102 63l6 18l-203 490h159l123 -344l112 344h160l-212 -531c-58 -143 -153 -166 -241 -166z" />
    <glyph glyph-name="yacute.ss04" horiz-adv-x="560" 
d="M147 516l-33 90l288 99l33 -89zM104 -215c-25 0 -43 2 -69 10v122c25 -4 43 -6 63 -6c45 0 86 17 102 63l6 18l-203 490h159l123 -344l112 344h160l-212 -531c-58 -143 -153 -166 -241 -166z" />
    <glyph glyph-name="ycircumflex.ss04" horiz-adv-x="560" 
d="M282 714l169 -136l-65 -64l-104 87l-104 -87l-66 64zM104 -215c-25 0 -43 2 -69 10v122c25 -4 43 -6 63 -6c45 0 86 17 102 63l6 18l-203 490h159l123 -344l112 344h160l-212 -531c-58 -143 -153 -166 -241 -166z" />
    <glyph glyph-name="ydieresis.ss04" horiz-adv-x="560" 
d="M172 537c-49 0 -86 38 -86 85s37 85 86 85s86 -38 86 -85s-37 -85 -86 -85zM391 537c-48 0 -86 38 -86 85s38 85 86 85c49 0 87 -38 87 -85s-38 -85 -87 -85zM104 -215c-25 0 -43 2 -69 10v122c25 -4 43 -6 63 -6c45 0 86 17 102 63l6 18l-203 490h159l123 -344l112 344
h160l-212 -531c-58 -143 -153 -166 -241 -166z" />
    <glyph glyph-name="ygrave.ss04" horiz-adv-x="560" 
d="M400 514l-288 100l33 89l288 -99zM104 -215c-25 0 -43 2 -69 10v122c25 -4 43 -6 63 -6c45 0 86 17 102 63l6 18l-203 490h159l123 -344l112 344h160l-212 -531c-58 -143 -153 -166 -241 -166z" />
    <glyph glyph-name="a.sups" horiz-adv-x="394" 
d="M158 394c-83 0 -136 60 -136 145s55 148 137 148c45 0 79 -22 94 -50v42h104v-279h-104v41c-15 -28 -50 -47 -95 -47zM193 477c40 0 64 28 64 62c0 35 -24 62 -64 62c-39 0 -64 -26 -64 -62c0 -35 25 -62 64 -62z" />
    <glyph glyph-name="b.sups" horiz-adv-x="394" 
d="M238 687c79 0 135 -60 135 -148c0 -87 -56 -145 -136 -145c-47 0 -82 22 -96 47v-41h-105v394h105v-157c15 26 52 50 97 50zM202 477c37 0 63 26 63 62c0 37 -26 62 -63 62c-38 0 -65 -25 -65 -62c0 -36 27 -62 65 -62z" />
    <glyph glyph-name="c.sups" horiz-adv-x="366" 
d="M184 392c-99 0 -164 60 -164 149c0 88 65 147 164 147c92 0 153 -49 162 -124h-105c-6 25 -24 37 -57 37c-37 0 -61 -22 -61 -60c0 -39 24 -63 61 -63c33 0 51 13 57 37h105c-9 -75 -70 -123 -162 -123z" />
    <glyph glyph-name="d.sups" horiz-adv-x="396" 
d="M254 794h104v-394h-104v41c-15 -28 -50 -47 -96 -47c-83 0 -135 60 -135 145s54 148 137 148c45 0 79 -22 94 -50v157zM195 477c39 0 63 28 63 62c0 35 -24 62 -63 62c-40 0 -65 -26 -65 -62c0 -35 25 -62 65 -62z" />
    <glyph glyph-name="e.sups" horiz-adv-x="383" 
d="M347 555c0 -17 0 -24 -2 -40h-222c1 -32 25 -49 64 -49c29 0 48 8 55 23h101c-10 -59 -72 -97 -155 -97c-104 0 -169 54 -169 149c0 91 67 146 167 146c95 0 161 -53 161 -132zM123 570h122c0 33 -22 54 -60 54c-37 0 -62 -23 -62 -54z" />
    <glyph glyph-name="f.sups" horiz-adv-x="260" 
d="M210 726c-26 0 -43 -11 -43 -34v-18h70v-76h-70v-198h-105v198h-48v76h48v17c0 72 53 110 118 110c25 0 42 -3 57 -7v-70c-10 1 -17 2 -27 2z" />
    <glyph glyph-name="g.sups" horiz-adv-x="396" 
d="M254 678h105v-255c0 -52 -23 -90 -58 -115c-27 -18 -66 -25 -110 -25c-43 0 -77 5 -106 21c-34 19 -58 53 -59 84h106c5 -21 25 -32 58 -32c40 0 64 13 64 53v42c-14 -27 -54 -46 -94 -46c-85 0 -137 58 -137 139c0 82 54 141 137 141c43 0 80 -19 94 -48v41zM195 480
c39 0 63 28 63 62c0 35 -24 62 -63 62c-40 0 -65 -26 -65 -62s25 -62 65 -62z" />
    <glyph glyph-name="h.sups" horiz-adv-x="378" 
d="M235 686c72 0 110 -39 110 -116v-170h-106v141c0 39 -12 57 -48 57s-55 -20 -55 -58v-140h-104v394h104v-158c16 34 52 50 99 50z" />
    <glyph glyph-name="i.sups" horiz-adv-x="232" 
d="M107 700c-38 0 -62 27 -62 58c0 33 24 59 62 59c37 0 62 -26 62 -59c0 -31 -25 -58 -62 -58zM54 400v278h105v-278h-105z" />
    <glyph glyph-name="j.sups" horiz-adv-x="209" 
d="M100 700c-39 0 -62 27 -62 58c0 33 23 59 62 59c37 0 62 -26 62 -59c0 -31 -25 -58 -62 -58zM44 289c-23 0 -36 2 -52 6v79c9 -2 15 -2 26 -2c20 0 30 7 30 25v281h103v-289c0 -69 -39 -100 -107 -100z" />
    <glyph glyph-name="k.sups" horiz-adv-x="352" 
d="M357 400h-126l-95 119v-119h-104v394h104v-231l99 115h120l-121 -131z" />
    <glyph glyph-name="l.sups" horiz-adv-x="206" 
d="M53 400v394h107v-394h-107z" />
    <glyph glyph-name="m.sups" horiz-adv-x="526" 
d="M32 400v278h104v-42c13 30 43 50 86 50c50 0 77 -22 90 -53c17 32 52 53 96 53c80 0 102 -53 102 -116v-170h-106v151c0 33 -13 47 -38 47c-27 0 -43 -15 -43 -59v-139h-106v151c0 34 -13 47 -38 47c-27 0 -43 -15 -43 -59v-139h-104z" />
    <glyph glyph-name="n.sups" horiz-adv-x="376" 
d="M33 400v278h103v-42c16 34 52 50 100 50c72 0 109 -39 109 -116v-170h-105v141c0 39 -14 57 -49 57c-36 0 -55 -20 -55 -58v-140h-103z" />
    <glyph glyph-name="o.sups" horiz-adv-x="380" 
d="M189 392c-103 0 -168 62 -168 149c0 85 65 147 168 147c104 0 170 -62 170 -147c0 -87 -66 -149 -170 -149zM189 478c40 0 65 26 65 63c0 35 -25 60 -65 60c-39 0 -64 -25 -64 -60c0 -37 25 -63 64 -63z" />
    <glyph glyph-name="p.sups" horiz-adv-x="396" 
d="M238 686c79 0 135 -58 135 -146c0 -89 -56 -147 -136 -147c-47 0 -82 23 -96 48v-149h-105v386h105v-41c15 26 51 49 97 49zM202 476c37 0 63 26 63 64c0 35 -26 61 -63 61c-38 0 -65 -26 -65 -61c0 -38 27 -64 65 -64z" />
    <glyph glyph-name="q.sups" horiz-adv-x="396" 
d="M254 678h105v-386h-105v149c-15 -28 -50 -48 -96 -48c-83 0 -135 62 -135 147c0 83 54 146 137 146c45 0 79 -21 94 -49v41zM195 476c39 0 63 28 63 64c0 34 -24 61 -63 61c-40 0 -65 -26 -65 -61c0 -37 25 -64 65 -64z" />
    <glyph glyph-name="r.sups" horiz-adv-x="269" 
d="M37 400v278h104v-61c12 42 50 67 93 67c11 0 18 -2 25 -3v-98c-12 1 -19 1 -31 1c-52 0 -87 -19 -87 -87v-97h-104z" />
    <glyph glyph-name="s.sups" horiz-adv-x="321" 
d="M161 392c-88 0 -148 37 -148 95h103c0 -19 21 -31 47 -31c23 0 35 9 35 22c0 10 -7 15 -28 20l-64 14c-56 12 -86 42 -86 87c0 55 52 88 141 88c83 0 137 -30 137 -86h-103c0 16 -15 26 -39 26c-21 0 -34 -8 -34 -20c0 -10 10 -17 33 -22l64 -15c57 -13 82 -40 82 -81
c0 -58 -52 -97 -140 -97z" />
    <glyph glyph-name="t.sups" horiz-adv-x="263" 
d="M205 478c12 0 24 0 33 3v-81c-15 -2 -38 -4 -69 -4c-49 0 -112 12 -112 105v96h-49v82h49v81h104v-81h71v-82h-71v-76c0 -36 20 -43 44 -43z" />
    <glyph glyph-name="u.sups" horiz-adv-x="377" 
d="M142 394c-76 0 -112 45 -112 115v170h106v-148c0 -32 14 -50 47 -50c36 0 53 18 53 54v144h104v-279h-104v42c-14 -30 -49 -48 -94 -48z" />
    <glyph glyph-name="v.sups" horiz-adv-x="357" 
d="M131 400l-129 278h116l61 -162l62 162h117l-130 -278h-97z" />
    <glyph glyph-name="w.sups" horiz-adv-x="488" 
d="M104 400l-102 278h105l50 -158l44 158h91l46 -158l49 158h106l-102 -278h-97l-46 149l-49 -149h-95z" />
    <glyph glyph-name="x.sups" horiz-adv-x="350" 
d="M1 400l109 140l-107 138h122l50 -73l49 73h123l-108 -138l111 -140h-124l-51 76l-52 -76h-122z" />
    <glyph glyph-name="y.sups" horiz-adv-x="379" 
d="M238 678h104v-262c0 -46 -19 -80 -44 -100c-28 -24 -60 -34 -114 -34s-87 10 -114 30c-23 17 -40 44 -40 73h105c1 -19 15 -30 49 -30s54 15 54 48v49c-16 -30 -50 -47 -95 -47c-80 0 -113 47 -113 118v155h104v-142c0 -32 14 -51 49 -51c37 0 55 21 55 59v134z" />
    <glyph glyph-name="z.sups" horiz-adv-x="309" 
d="M5 400l142 191h-129v87h283l-139 -192h127v-86h-284z" />
    <glyph glyph-name="uni0410" unicode="&#x410;" horiz-adv-x="658" 
d="M477 0l-24 85h-248l-24 -85h-171l237 700h163l238 -700h-171zM241 212h176l-88 311z" />
    <glyph glyph-name="uni0411" unicode="&#x411;" horiz-adv-x="615" 
d="M68 0v700h462v-130h-300v-155h156c123 0 205 -91 205 -205c0 -116 -83 -210 -205 -210h-318zM230 122h114c51 0 84 39 84 89c0 49 -33 87 -84 87h-114v-176z" />
    <glyph glyph-name="uni0412" unicode="&#x412;" horiz-adv-x="623" 
d="M447 358c81 -8 144 -67 144 -164c0 -120 -85 -194 -224 -194h-299v700h288c139 0 225 -69 225 -182c0 -91 -53 -145 -134 -160zM320 583h-90v-170h90c62 0 99 32 99 85s-36 85 -99 85zM331 123c60 0 97 34 97 92c0 52 -39 86 -97 86h-101v-178h101z" />
    <glyph glyph-name="uni0413" unicode="&#x413;" horiz-adv-x="492" 
d="M68 700h419v-144h-257v-556h-162v700z" />
    <glyph glyph-name="uni0403" unicode="&#x403;" horiz-adv-x="492" 
d="M199 729l-40 80l217 89l39 -79zM68 700h419v-144h-257v-556h-162v700z" />
    <glyph glyph-name="uni0490" unicode="&#x490;" horiz-adv-x="492" 
d="M334 791h153v-235h-257v-556h-162v700h266v91z" />
    <glyph glyph-name="uni0414" unicode="&#x414;" horiz-adv-x="690" 
d="M609 135h54v-255h-149v120h-344v-120h-153v255h40c43 0 66 42 66 149v416h486v-565zM278 564v-272c0 -64 -12 -116 -32 -157h209v429h-177z" />
    <glyph glyph-name="uni0415" unicode="&#x415;" horiz-adv-x="556" 
d="M68 0v700h428v-130h-266v-159h266v-127h-266v-154h266v-130h-428z" />
    <glyph glyph-name="uni0401" unicode="&#x401;" horiz-adv-x="556" 
d="M170 733c-45 0 -82 37 -82 80c0 45 37 81 82 81c47 0 82 -36 82 -81c0 -43 -35 -80 -82 -80zM406 733c-46 0 -81 37 -81 80c0 45 35 81 81 81s83 -36 83 -81c0 -43 -37 -80 -83 -80zM68 0v700h428v-130h-266v-159h266v-127h-266v-154h266v-130h-428z" />
    <glyph glyph-name="uni0416" unicode="&#x416;" horiz-adv-x="1028" 
d="M742 354l278 -354h-192l-233 321v-321h-162v321l-233 -321h-192l278 354h-8c-20 0 -46 13 -59 36l-75 120c-25 39 -43 53 -68 53h-33v142h67c64 0 103 -26 147 -96l103 -162c15 -26 35 -38 55 -38h18v291h162v-291h18c20 0 40 12 55 38l103 162c44 70 83 96 147 96h67
v-142h-33c-25 0 -43 -14 -68 -53l-75 -120c-13 -23 -39 -36 -59 -36h-8z" />
    <glyph glyph-name="uni0417" unicode="&#x417;" horiz-adv-x="605" 
d="M197 229c0 -73 40 -114 108 -114c65 0 97 44 97 92c0 59 -28 92 -106 92h-67v123h67c77 0 100 41 100 86c0 49 -35 85 -91 85c-62 0 -102 -37 -102 -102h-166c0 121 79 227 264 227c139 0 261 -58 261 -199c0 -82 -56 -142 -117 -157c67 -14 125 -73 125 -167
c0 -135 -114 -213 -260 -213c-190 0 -280 100 -280 247h167z" />
    <glyph glyph-name="uni0418" unicode="&#x418;" horiz-adv-x="702" 
d="M472 436l-242 -388v-48h-162v700h162v-436l242 388v48h162v-700h-162v436z" />
    <glyph glyph-name="uni0419" unicode="&#x419;" horiz-adv-x="702" 
d="M354 718c-103 0 -180 49 -185 128h95c7 -37 45 -52 90 -52s83 15 90 52h95c-5 -79 -82 -128 -185 -128zM472 436l-242 -388v-48h-162v700h162v-436l242 388v48h162v-700h-162v436z" />
    <glyph glyph-name="uni048A" unicode="&#x48a;" horiz-adv-x="715" 
d="M354 718c-103 0 -180 49 -185 128h95c7 -37 45 -52 90 -52s83 15 90 52h95c-5 -79 -82 -128 -185 -128zM634 135h54v-255h-149v120h-67v436l-242 -388v-48h-162v700h162v-436l242 388v48h162v-565z" />
    <glyph glyph-name="uni041A" unicode="&#x41a;" horiz-adv-x="663" 
d="M377 354l278 -354h-192l-233 321v-321h-162v700h162v-291h18c20 0 40 12 55 38l103 162c44 70 83 96 147 96h67v-142h-33c-25 0 -43 -14 -68 -53l-75 -120c-13 -23 -39 -36 -59 -36h-8z" />
    <glyph glyph-name="uni040C" unicode="&#x40c;" horiz-adv-x="663" 
d="M472 819l-216 -90l-40 80l217 89zM377 354l278 -354h-192l-233 321v-321h-162v700h162v-291h18c20 0 40 12 55 38l103 162c44 70 83 96 147 96h67v-142h-33c-25 0 -43 -14 -68 -53l-75 -120c-13 -23 -39 -36 -59 -36h-8z" />
    <glyph glyph-name="uni041B" unicode="&#x41b;" horiz-adv-x="706" 
d="M18 132h25c55 0 85 45 85 154v414h510v-700h-162v563h-186v-276c0 -208 -84 -296 -212 -296h-60v141z" />
    <glyph glyph-name="uni041C" unicode="&#x41c;" horiz-adv-x="880" 
d="M68 0v700h188l186 -497l186 497h184v-700h-155v454l-155 -454h-120l-159 457v-457h-155z" />
    <glyph glyph-name="uni041D" unicode="&#x41d;" horiz-adv-x="702" 
d="M68 0v700h162v-283h242v283h162v-700h-162v278h-242v-278h-162z" />
    <glyph glyph-name="uni041E" unicode="&#x41e;" horiz-adv-x="801" 
d="M401 -20c-235 0 -374 171 -374 370s139 370 374 370s374 -171 374 -370s-139 -370 -374 -370zM401 125c133 0 205 103 205 225s-72 225 -205 225c-134 0 -206 -103 -205 -225c-1 -122 71 -225 205 -225z" />
    <glyph glyph-name="uni041F" unicode="&#x41f;" horiz-adv-x="701" 
d="M230 562v-562h-162v700h565v-700h-162v562h-241z" />
    <glyph glyph-name="uni0420" unicode="&#x420;" horiz-adv-x="625" 
d="M366 700c146 0 251 -106 251 -253s-106 -253 -251 -253h-136v-194h-162v700h298zM341 326c65 0 112 51 112 121s-47 121 -112 121h-111v-242h111z" />
    <glyph glyph-name="uni0421" unicode="&#x421;" horiz-adv-x="783" 
d="M403 -20c-230 0 -376 155 -376 370s146 370 376 370c205 0 338 -109 357 -274h-172c-18 79 -84 129 -184 129c-132 0 -208 -88 -208 -225s76 -225 208 -225c100 0 166 50 184 129h172c-19 -165 -152 -274 -357 -274z" />
    <glyph glyph-name="uni0422" unicode="&#x422;" horiz-adv-x="556" 
d="M197 0v556h-192v144h546v-144h-193v-556h-161z" />
    <glyph glyph-name="uni0423" unicode="&#x423;" horiz-adv-x="612" 
d="M453 700h179l-347 -700h-180l130 264l-248 436h188l149 -276z" />
    <glyph glyph-name="uni040E" unicode="&#x40e;" horiz-adv-x="612" 
d="M316 735c-99 0 -173 61 -179 142h95c7 -45 42 -63 84 -63s77 18 84 63h95c-6 -81 -80 -142 -179 -142zM453 700h179l-347 -700h-180l130 264l-248 436h188l149 -276z" />
    <glyph glyph-name="uni0424" unicode="&#x424;" horiz-adv-x="760" 
d="M480 623c170 0 272 -128 272 -272c0 -145 -102 -274 -272 -274h-19v-77h-162v77h-18c-171 0 -273 129 -273 274s102 272 273 272h18v77h162v-77h19zM166 351c0 -79 44 -140 115 -140h29v278h-29c-71 0 -115 -60 -115 -138zM479 211c71 0 116 61 116 140
c0 78 -45 138 -116 138h-28v-278h28z" />
    <glyph glyph-name="uni0425" unicode="&#x425;" horiz-adv-x="658" 
d="M12 0l224 350l-224 350h178l139 -229l139 229h178l-224 -350l224 -350h-178l-139 228l-139 -228h-178z" />
    <glyph glyph-name="uni0427" unicode="&#x427;" horiz-adv-x="625" 
d="M395 0v231c-44 -24 -96 -29 -143 -29c-132 0 -217 96 -217 218v280h162v-242c0 -94 45 -129 109 -129c29 0 59 0 89 24v347h161v-700h-161z" />
    <glyph glyph-name="uni0426" unicode="&#x426;" horiz-adv-x="703" 
d="M622 135h54v-255h-149v120h-459v700h162v-562h230v562h162v-565z" />
    <glyph glyph-name="uni0428" unicode="&#x428;" horiz-adv-x="970" 
d="M68 0v700h162v-562h174v562h162v-562h174v562h162v-700h-834z" />
    <glyph glyph-name="uni0429" unicode="&#x429;" horiz-adv-x="983" 
d="M902 135h54v-255h-149v120h-739v700h162v-562h174v562h162v-562h174v562h162v-565z" />
    <glyph glyph-name="uni040F" unicode="&#x40f;" horiz-adv-x="690" 
d="M622 700v-700h-202v-120h-153v120h-199v700h162v-562h230v562h162z" />
    <glyph glyph-name="uni042C" unicode="&#x42c;" horiz-adv-x="615" 
d="M68 0v700h162v-280h150c124 0 211 -95 211 -210c0 -114 -88 -210 -211 -210h-312zM230 122h114c51 0 84 38 84 89c0 49 -33 87 -84 87h-114v-176z" />
    <glyph glyph-name="uni042A" unicode="&#x42a;" horiz-adv-x="720" 
d="M485 420c124 0 211 -95 211 -210c0 -114 -88 -210 -211 -210h-312v558h-168v142h330v-280h150zM449 122c51 0 84 38 84 89c0 49 -33 87 -84 87h-114v-176h114z" />
    <glyph glyph-name="uni042B" unicode="&#x42b;" horiz-adv-x="872" 
d="M68 0v700h162v-280h150c124 0 211 -95 211 -210c0 -114 -88 -210 -211 -210h-312zM642 0v700h162v-700h-162zM230 122h114c51 0 84 38 84 89c0 49 -33 87 -84 87h-114v-176z" />
    <glyph glyph-name="uni0409" unicode="&#x409;" horiz-adv-x="1021" 
d="M787 420c124 0 211 -95 211 -210c0 -114 -88 -210 -211 -210h-312v563h-185v-276c0 -208 -84 -296 -212 -296h-60v141h25c55 0 85 45 85 154v414h510v-280h149zM751 122c51 0 84 38 84 89c0 49 -33 87 -84 87h-113v-176h113z" />
    <glyph glyph-name="uni040A" unicode="&#x40a;" horiz-adv-x="1018" 
d="M784 420c124 0 211 -95 211 -210c0 -114 -88 -210 -211 -210h-312v278h-242v-278h-162v700h162v-283h242v283h162v-280h150zM748 122c51 0 84 38 84 89c0 49 -33 87 -84 87h-114v-176h114z" />
    <glyph glyph-name="uni0405" unicode="&#x405;" horiz-adv-x="581" 
d="M298 -20c-172 0 -275 92 -275 249h162c0 -76 43 -121 114 -121c60 0 94 28 94 77c0 43 -22 65 -85 90l-126 49c-94 35 -142 100 -142 191c0 123 97 205 249 205c154 0 256 -87 256 -222h-162c0 65 -34 101 -97 101c-53 0 -84 -27 -84 -69c0 -39 27 -63 96 -91l116 -46
c97 -38 141 -103 141 -197c0 -131 -102 -216 -257 -216z" />
    <glyph glyph-name="uni0404" unicode="&#x404;" horiz-adv-x="755" 
d="M389 125c94 0 157 49 169 123h174c-17 -157 -149 -268 -337 -268c-220 0 -368 147 -368 370s148 370 368 370c182 0 318 -105 337 -266h-175c-12 72 -76 121 -168 121c-101 0 -172 -65 -190 -171h262v-108h-262c18 -106 89 -171 190 -171z" />
    <glyph glyph-name="uni042D" unicode="&#x42d;" horiz-adv-x="755" 
d="M360 720c220 0 368 -147 368 -370s-148 -370 -368 -370c-188 0 -320 111 -337 268h174c12 -74 75 -123 169 -123c101 0 172 65 190 171h-262v108h262c-18 106 -89 171 -190 171c-92 0 -156 -49 -168 -121h-175c19 161 155 266 337 266z" />
    <glyph glyph-name="uni0406" unicode="&#x406;" horiz-adv-x="298" 
d="M68 0v700h162v-700h-162z" />
    <glyph glyph-name="uni0407" unicode="&#x407;" horiz-adv-x="298" 
d="M66 737c-42 0 -75 31 -75 73c0 43 33 74 75 74s74 -31 74 -74c0 -42 -32 -73 -74 -73zM234 737c-43 0 -74 31 -74 73c0 43 31 74 74 74c42 0 75 -31 75 -74c0 -42 -33 -73 -75 -73zM68 0v700h162v-700h-162z" />
    <glyph glyph-name="uni0408" unicode="&#x408;" horiz-adv-x="578" 
d="M270 -18c-169 0 -255 109 -255 259h162c0 -72 30 -120 93 -120c64 0 95 47 95 116v463h161v-453c0 -172 -96 -265 -256 -265z" />
    <glyph glyph-name="uni040B" unicode="&#x40b;" horiz-adv-x="776" 
d="M501 468c132 0 217 -96 217 -218v-250h-162v212c0 94 -45 129 -109 129c-29 0 -59 0 -89 -24v-317h-161v556h-192v144h546v-144h-193v-117c44 24 96 29 143 29z" />
    <glyph glyph-name="uni042E" unicode="&#x42e;" horiz-adv-x="1075" 
d="M674 720c235 0 374 -171 374 -370s-139 -370 -374 -370c-205 0 -337 130 -367 296h-77v-276h-162v700h162v-278h76c30 167 162 298 368 298zM674 125c133 0 205 103 205 225s-72 225 -205 225c-134 0 -206 -103 -205 -225c-1 -122 71 -225 205 -225z" />
    <glyph glyph-name="uni042F" unicode="&#x42f;" horiz-adv-x="650" 
d="M284 700h298v-700h-162v194h-85l-110 -194h-184l123 222c-80 40 -131 123 -131 225c0 147 105 253 251 253zM309 326h111v242h-111c-65 0 -112 -51 -112 -121s47 -121 112 -121z" />
    <glyph glyph-name="uni0402" unicode="&#x402;" horiz-adv-x="748" 
d="M492 474c137 0 231 -89 231 -239c0 -169 -92 -246 -245 -246c-14 0 -39 1 -60 7v123c7 -2 26 -4 30 -4c65 0 111 36 111 118s-48 113 -110 113c-32 0 -59 -4 -91 -25v-321h-161v556h-192v144h546v-144h-193v-110c43 23 88 28 134 28z" />
    <glyph glyph-name="uni0462" unicode="&#x462;" horiz-adv-x="743" 
d="M509 420c124 0 211 -95 211 -210c0 -114 -88 -210 -211 -210h-312v556h-192v144h546v-144h-192v-136h150zM473 122c51 0 84 38 84 89c0 49 -33 87 -84 87h-114v-176h114z" />
    <glyph glyph-name="uni0472" unicode="&#x472;" horiz-adv-x="801" 
d="M401 720c235 0 374 -171 374 -370s-139 -370 -374 -370s-374 171 -374 370s139 370 374 370zM401 575c-120 0 -191 -83 -203 -188h406c-13 105 -84 188 -203 188zM401 125c120 0 190 84 203 190h-406c12 -106 82 -190 203 -190z" />
    <glyph glyph-name="uni0474" unicode="&#x474;" horiz-adv-x="645" 
d="M389 0h-151l-241 700h171l145 -497l114 383c25 88 60 119 149 119h65v-137h-19c-28 0 -43 -13 -58 -57z" />
    <glyph glyph-name="uni0492" unicode="&#x492;" horiz-adv-x="492" 
d="M487 556h-257v-149h140v-87h-140v-320h-162v320h-53v87h53v293h419v-144z" />
    <glyph glyph-name="uni0494" unicode="&#x494;" horiz-adv-x="648" 
d="M373 418c135 0 217 -92 217 -218v-251c0 -106 -65 -155 -181 -155c-35 0 -58 4 -79 12v116c13 -2 29 -4 47 -4c34 0 51 13 51 56v188c0 94 -45 129 -110 129c-28 0 -58 0 -88 -24v-267h-162v700h419v-144h-257v-167c44 24 99 29 143 29z" />
    <glyph glyph-name="uni0496" unicode="&#x496;" horiz-adv-x="1048" 
d="M914 135h126v-255h-149v120h-63l-233 321v-321h-162v321l-233 -321h-192l278 354h-8c-20 0 -46 13 -59 36l-75 120c-25 39 -43 53 -68 53h-33v142h67c64 0 103 -26 147 -96l103 -162c15 -26 35 -38 55 -38h18v291h162v-291h18c20 0 40 12 55 38l103 162
c44 70 83 96 147 96h67v-142h-33c-25 0 -43 -14 -68 -53l-75 -120c-13 -23 -39 -36 -59 -36h-8z" />
    <glyph glyph-name="uni0498" unicode="&#x498;" horiz-adv-x="605" 
d="M570 195c0 -125 -98 -201 -229 -212v-42c7 6 24 11 42 11c44 0 78 -30 78 -77s-33 -87 -97 -87c-54 0 -92 28 -96 73h63c1 -15 16 -24 31 -24c20 0 33 13 33 38c0 24 -13 36 -32 36c-13 0 -23 -6 -29 -15h-57v87c-167 11 -247 108 -247 246h167c0 -73 40 -114 108 -114
c65 0 97 44 97 92c0 59 -28 92 -106 92h-67v123h67c77 0 100 41 100 86c0 49 -35 85 -91 85c-62 0 -102 -37 -102 -102h-166c0 121 79 227 264 227c139 0 261 -58 261 -199c0 -82 -56 -142 -117 -157c67 -14 125 -73 125 -167z" />
    <glyph glyph-name="uni049A" unicode="&#x49a;" horiz-adv-x="690" 
d="M549 135h133v-255h-149v120h-70l-233 321v-321h-162v700h162v-291h18c20 0 40 12 55 38l103 162c44 70 83 96 147 96h67v-142h-33c-25 0 -43 -14 -68 -53l-75 -120c-13 -23 -39 -36 -59 -36h-8z" />
    <glyph glyph-name="uni049C" unicode="&#x49c;" horiz-adv-x="726" 
d="M718 0h-192l-218 300v-131h-44v151h-34v-320h-162v700h162v-291h34v151h44v-151h3c20 0 40 13 56 38l102 162c45 70 84 96 148 96h70v-138h-34c-24 0 -42 -4 -70 -53l-77 -124c-13 -23 -38 -36 -58 -36h-8z" />
    <glyph glyph-name="uni049E" unicode="&#x49e;" horiz-adv-x="704" 
d="M418 354l278 -354h-192l-233 321v-321h-162v529h-41v94h41v77h162v-77h89v-94h-89v-120h18c20 0 40 12 55 38l103 162c44 70 83 96 147 96h67v-142h-33c-25 0 -43 -14 -68 -53l-75 -120c-13 -23 -39 -36 -59 -36h-8z" />
    <glyph glyph-name="uni04A0" unicode="&#x4a0;" horiz-adv-x="768" 
d="M482 354l278 -354h-192l-233 321v-321h-162v558h-168v142h330v-291h18c20 0 40 12 55 38l103 162c44 70 83 96 147 96h67v-142h-33c-25 0 -43 -14 -68 -53l-75 -120c-13 -23 -39 -36 -59 -36h-8z" />
    <glyph glyph-name="uni04A2" unicode="&#x4a2;" horiz-adv-x="715" 
d="M634 135h54v-255h-149v120h-67v278h-242v-278h-162v700h162v-283h242v283h162v-565z" />
    <glyph glyph-name="uni04A4" unicode="&#x4a4;" horiz-adv-x="896" 
d="M891 700v-144h-257v-556h-162v278h-242v-278h-162v700h162v-283h242v283h419z" />
    <glyph glyph-name="uni04A6" unicode="&#x4a6;" horiz-adv-x="1051" 
d="M776 471c135 0 217 -93 217 -218v-304c0 -106 -65 -155 -181 -155c-35 0 -58 4 -79 12v116c13 -2 29 -4 47 -4c34 0 51 13 51 56v241c0 90 -42 130 -110 130c-30 0 -59 -1 -88 -25v-320h-162v562h-241v-562h-162v700h565v-258c43 24 98 29 143 29z" />
    <glyph glyph-name="uni0524" unicode="&#x524;" horiz-adv-x="701" 
d="M633 135h54v-255h-149v120h-67v562h-241v-562h-162v700h565v-565z" />
    <glyph glyph-name="uni04A8" unicode="&#x4a8;" horiz-adv-x="788" 
d="M666 99c34 1 68 10 95 22v-119c-32 -12 -66 -21 -116 -21c-48 0 -96 9 -132 25c-37 -18 -84 -26 -136 -26c-219 0 -350 147 -350 357c0 237 152 383 419 383c43 0 89 -5 135 -18v-135c-38 13 -82 18 -123 18c-162 0 -266 -95 -266 -245c0 -123 64 -220 179 -238
c-42 50 -65 116 -65 191c0 151 98 227 224 227c131 0 219 -76 219 -210c0 -77 -30 -155 -83 -211zM530 392c-52 0 -84 -37 -84 -110c0 -71 34 -122 83 -151c53 34 84 92 84 160c0 65 -30 101 -83 101z" />
    <glyph glyph-name="uni04AA" unicode="&#x4aa;" horiz-adv-x="783" 
d="M404 125c100 0 166 50 184 129h172c-18 -156 -138 -262 -325 -273v-40c7 6 24 11 42 11c44 0 78 -30 78 -77s-33 -87 -97 -87c-54 0 -92 28 -96 73h63c1 -15 16 -24 31 -24c20 0 33 13 33 38c0 24 -13 36 -32 36c-13 0 -23 -6 -29 -15h-57v85c-211 14 -344 164 -344 369
c0 215 146 370 376 370c205 0 338 -109 357 -274h-172c-18 79 -84 129 -184 129c-132 0 -208 -88 -208 -225s76 -225 208 -225z" />
    <glyph glyph-name="uni04AC" unicode="&#x4ac;" horiz-adv-x="556" 
d="M551 556h-193v-421h54v-255h-149v120h-66v556h-192v144h546v-144z" />
    <glyph glyph-name="uni04AE" unicode="&#x4ae;" horiz-adv-x="655" 
d="M246 0v268l-253 432h184l150 -280l151 280h183l-253 -432v-268h-162z" />
    <glyph glyph-name="uni04B0" unicode="&#x4b0;" horiz-adv-x="655" 
d="M408 268v-29h111v-96h-111v-143h-162v143h-109v96h109v29l-253 432h184l150 -280l151 280h183z" />
    <glyph glyph-name="uni04B2" unicode="&#x4b2;" horiz-adv-x="700" 
d="M560 135h113v-255h-149v120h-56l-139 228l-139 -228h-178l224 350l-224 350h178l139 -229l139 229h178l-224 -350z" />
    <glyph glyph-name="uni04B4" unicode="&#x4b4;" horiz-adv-x="786" 
d="M705 139h54v-259h-149v120h-459v556h-146v144h454v-144h-146v-418h230v562h162v-561z" />
    <glyph glyph-name="uni04B6" unicode="&#x4b6;" horiz-adv-x="634" 
d="M556 135h51v-255h-149v120h-63v231c-44 -24 -96 -29 -143 -29c-132 0 -217 96 -217 218v280h162v-242c0 -94 45 -129 109 -129c29 0 59 0 89 24v347h161v-565z" />
    <glyph glyph-name="uni04B8" unicode="&#x4b8;" horiz-adv-x="625" 
d="M395 700h161v-700h-161v231c-17 -9 -36 -16 -55 -20v-87h-72v78h-16c-132 0 -217 96 -217 218v280h162v-242c0 -74 28 -111 71 -124v89h72v-93c18 3 37 8 55 23v347z" />
    <glyph glyph-name="uni04BA" unicode="&#x4ba;" horiz-adv-x="625" 
d="M230 700v-231c44 24 96 29 143 29c132 0 217 -96 217 -218v-280h-162v242c0 94 -45 129 -109 129c-29 0 -59 0 -89 -24v-347h-161v700h161z" />
    <glyph glyph-name="uni0526" unicode="&#x526;" horiz-adv-x="671" 
d="M590 135h54v-255h-149v120h-67v242c0 94 -45 129 -109 129c-30 0 -59 0 -89 -24v-347h-162v700h162v-231c44 24 95 29 142 29c133 0 218 -96 218 -218v-145z" />
    <glyph glyph-name="uni04BC" unicode="&#x4bc;" horiz-adv-x="926" 
d="M899 363v-65h-556c12 -101 70 -175 195 -175c109 0 154 46 176 102h178c-21 -125 -149 -245 -353 -245c-213 0 -340 138 -361 315h-25c-81 0 -133 55 -133 138v50h113v-48c0 -24 14 -40 37 -40h7c19 182 149 321 368 321c209 0 354 -151 354 -353zM344 396h387
c-6 111 -80 180 -191 180c-107 0 -191 -62 -196 -180z" />
    <glyph glyph-name="uni04BE" unicode="&#x4be;" horiz-adv-x="926" 
d="M412 733c-45 0 -82 37 -82 80c0 45 37 81 82 81c47 0 82 -36 82 -81c0 -43 -35 -80 -82 -80zM648 733c-46 0 -81 37 -81 80c0 45 35 81 81 81s83 -36 83 -81c0 -43 -37 -80 -83 -80zM899 363v-65h-556c12 -101 70 -175 195 -175c109 0 154 46 176 102h178
c-21 -125 -149 -245 -353 -245c-213 0 -340 138 -361 315h-25c-81 0 -133 55 -133 138v50h113v-48c0 -24 14 -40 37 -40h7c19 182 149 321 368 321c209 0 354 -151 354 -353zM344 396h387c-6 111 -80 180 -191 180c-107 0 -191 -62 -196 -180z" />
    <glyph glyph-name="uni04C0" unicode="&#x4c0;" horiz-adv-x="298" 
d="M68 0v700h162v-700h-162z" />
    <glyph glyph-name="uni04C1" unicode="&#x4c1;" horiz-adv-x="1028" 
d="M515 735c-103 0 -180 49 -185 128h95c7 -37 45 -52 90 -52s83 15 90 52h95c-5 -79 -82 -128 -185 -128zM742 354l278 -354h-192l-233 321v-321h-162v321l-233 -321h-192l278 354h-8c-20 0 -46 13 -59 36l-75 120c-25 39 -43 53 -68 53h-33v142h67c64 0 103 -26 147 -96
l103 -162c15 -26 35 -38 55 -38h18v291h162v-291h18c20 0 40 12 55 38l103 162c44 70 83 96 147 96h67v-142h-33c-25 0 -43 -14 -68 -53l-75 -120c-13 -23 -39 -36 -59 -36h-8z" />
    <glyph glyph-name="uni04C3" unicode="&#x4c3;" horiz-adv-x="670" 
d="M469 432c106 -19 176 -100 176 -225c0 -146 -86 -222 -239 -222c-27 0 -50 1 -76 7v123c12 -2 29 -3 45 -3c68 0 108 30 108 96c0 72 -48 104 -106 104h-140l21 26h-28v-338h-162v700h162v-291h18c20 0 39 12 55 38l103 162c44 70 83 96 147 96h71v-138h-34
c-25 0 -42 -4 -71 -53z" />
    <glyph glyph-name="uni04C5" unicode="&#x4c5;" horiz-adv-x="716" 
d="M638 139h73l-90 -259h-140l41 120h-46v563h-186v-276c0 -208 -84 -296 -212 -296h-60v141h25c55 0 85 45 85 154v414h510v-561z" />
    <glyph glyph-name="uni04C7" unicode="&#x4c7;" horiz-adv-x="702" 
d="M472 700h162v-751c0 -106 -65 -155 -181 -155c-35 0 -58 4 -79 12v116c13 -2 29 -4 47 -4c34 0 51 13 51 56v304h-242v-278h-162v700h162v-283h242v283z" />
    <glyph glyph-name="uni04C9" unicode="&#x4c9;" horiz-adv-x="713" 
d="M634 139h74l-90 -259h-140l41 120h-47v278h-242v-278h-162v700h162v-283h242v283h162v-561z" />
    <glyph glyph-name="uni04CB" unicode="&#x4cb;" horiz-adv-x="625" 
d="M556 700v-700h-85v-120h-153v222h77v129c-44 -24 -96 -29 -143 -29c-132 0 -217 96 -217 218v280h162v-242c0 -94 45 -129 109 -129c29 0 59 0 89 24v347h161z" />
    <glyph glyph-name="uni04CD" unicode="&#x4cd;" horiz-adv-x="891" 
d="M812 139h74l-90 -259h-140l41 120h-40v454l-155 -454h-120l-159 457v-457h-155v700h188l186 -497l186 497h184v-561z" />
    <glyph glyph-name="uni04D0" unicode="&#x4d0;" horiz-adv-x="658" 
d="M329 735c-103 0 -180 49 -185 128h95c7 -37 45 -52 90 -52s83 15 90 52h95c-5 -79 -82 -128 -185 -128zM477 0l-24 85h-248l-24 -85h-171l237 700h163l238 -700h-171zM241 212h176l-88 311z" />
    <glyph glyph-name="uni04D2" unicode="&#x4d2;" horiz-adv-x="658" 
d="M210 733c-45 0 -82 37 -82 80c0 45 37 81 82 81c47 0 82 -36 82 -81c0 -43 -35 -80 -82 -80zM446 733c-46 0 -81 37 -81 80c0 45 35 81 81 81s83 -36 83 -81c0 -43 -37 -80 -83 -80zM477 0l-24 85h-248l-24 -85h-171l237 700h163l238 -700h-171zM241 212h176l-88 311z
" />
    <glyph glyph-name="uni04D4" unicode="&#x4d4;" horiz-adv-x="900" 
d="M840 570h-249v-159h249v-127h-249v-154h249v-130h-409v88h-215l-39 -88h-170l345 700h488v-130zM271 212h160v362z" />
    <glyph glyph-name="uni04D6" unicode="&#x4d6;" horiz-adv-x="556" 
d="M289 735c-103 0 -180 49 -185 128h95c7 -37 45 -52 90 -52s83 15 90 52h95c-5 -79 -82 -128 -185 -128zM68 0v700h428v-130h-266v-159h266v-127h-266v-154h266v-130h-428z" />
    <glyph glyph-name="uni04D8" unicode="&#x4d8;" horiz-adv-x="778" 
d="M381 -16c-209 0 -354 151 -354 353v65h556c-12 101 -70 175 -195 175c-109 0 -154 -46 -176 -102h-178c21 125 149 245 353 245c234 0 364 -166 364 -368c0 -205 -133 -368 -370 -368zM386 124c107 0 191 62 196 180h-387c6 -111 80 -180 191 -180z" />
    <glyph glyph-name="uni04DA" unicode="&#x4da;" horiz-adv-x="778" 
d="M263 733c-45 0 -82 37 -82 80c0 45 37 81 82 81c47 0 82 -36 82 -81c0 -43 -35 -80 -82 -80zM499 733c-46 0 -81 37 -81 80c0 45 35 81 81 81s83 -36 83 -81c0 -43 -37 -80 -83 -80zM381 -16c-209 0 -354 151 -354 353v65h556c-12 101 -70 175 -195 175
c-109 0 -154 -46 -176 -102h-178c21 125 149 245 353 245c234 0 364 -166 364 -368c0 -205 -133 -368 -370 -368zM386 124c107 0 191 62 196 180h-387c6 -111 80 -180 191 -180z" />
    <glyph glyph-name="uni04DC" unicode="&#x4dc;" horiz-adv-x="1028" 
d="M396 733c-45 0 -82 37 -82 80c0 45 37 81 82 81c47 0 82 -36 82 -81c0 -43 -35 -80 -82 -80zM632 733c-46 0 -81 37 -81 80c0 45 35 81 81 81s83 -36 83 -81c0 -43 -37 -80 -83 -80zM742 354l278 -354h-192l-233 321v-321h-162v321l-233 -321h-192l278 354h-8
c-20 0 -46 13 -59 36l-75 120c-25 39 -43 53 -68 53h-33v142h67c64 0 103 -26 147 -96l103 -162c15 -26 35 -38 55 -38h18v291h162v-291h18c20 0 40 12 55 38l103 162c44 70 83 96 147 96h67v-142h-33c-25 0 -43 -14 -68 -53l-75 -120c-13 -23 -39 -36 -59 -36h-8z" />
    <glyph glyph-name="uni04DE" unicode="&#x4de;" horiz-adv-x="605" 
d="M181 733c-45 0 -82 37 -82 80c0 45 37 81 82 81c47 0 82 -36 82 -81c0 -43 -35 -80 -82 -80zM417 733c-46 0 -81 37 -81 80c0 45 35 81 81 81s83 -36 83 -81c0 -43 -37 -80 -83 -80zM197 229c0 -73 40 -114 108 -114c65 0 97 44 97 92c0 59 -28 92 -106 92h-67v123h67
c77 0 100 41 100 86c0 49 -35 85 -91 85c-62 0 -102 -37 -102 -102h-166c0 121 79 227 264 227c139 0 261 -58 261 -199c0 -82 -56 -142 -117 -157c67 -14 125 -73 125 -167c0 -135 -114 -213 -260 -213c-190 0 -280 100 -280 247h167z" />
    <glyph glyph-name="uni04E0" unicode="&#x4e0;" horiz-adv-x="607" 
d="M309 -15c-186 0 -279 97 -279 244h167c0 -68 46 -111 112 -111c64 0 96 50 96 101c0 69 -31 107 -113 107h-99l152 238h-257v136h491l-181 -280c96 -12 172 -89 172 -201c0 -146 -122 -234 -261 -234z" />
    <glyph glyph-name="uni04E2" unicode="&#x4e2;" horiz-adv-x="702" 
d="M156 744v92h396v-92h-396zM472 436l-242 -388v-48h-162v700h162v-436l242 388v48h162v-700h-162v436z" />
    <glyph glyph-name="uni04E4" unicode="&#x4e4;" horiz-adv-x="702" 
d="M235 716c-45 0 -82 37 -82 80c0 45 37 81 82 81c47 0 82 -36 82 -81c0 -43 -35 -80 -82 -80zM471 716c-46 0 -81 37 -81 80c0 45 35 81 81 81s83 -36 83 -81c0 -43 -37 -80 -83 -80zM472 436l-242 -388v-48h-162v700h162v-436l242 388v48h162v-700h-162v436z" />
    <glyph glyph-name="uni04E6" unicode="&#x4e6;" horiz-adv-x="801" 
d="M282 733c-45 0 -82 37 -82 80c0 45 37 81 82 81c47 0 82 -36 82 -81c0 -43 -35 -80 -82 -80zM518 733c-46 0 -81 37 -81 80c0 45 35 81 81 81s83 -36 83 -81c0 -43 -37 -80 -83 -80zM401 -20c-235 0 -374 171 -374 370s139 370 374 370s374 -171 374 -370
s-139 -370 -374 -370zM401 125c133 0 205 103 205 225s-72 225 -205 225c-134 0 -206 -103 -205 -225c-1 -122 71 -225 205 -225z" />
    <glyph glyph-name="uni04E8" unicode="&#x4e8;" horiz-adv-x="801" 
d="M401 720c235 0 374 -171 374 -370s-139 -370 -374 -370s-374 171 -374 370s139 370 374 370zM401 575c-120 0 -191 -83 -203 -188h406c-13 105 -84 188 -203 188zM401 125c120 0 190 84 203 190h-406c12 -106 82 -190 203 -190z" />
    <glyph glyph-name="uni04EA" unicode="&#x4ea;" horiz-adv-x="801" 
d="M282 733c-45 0 -82 37 -82 80c0 45 37 81 82 81c47 0 82 -36 82 -81c0 -43 -35 -80 -82 -80zM518 733c-46 0 -81 37 -81 80c0 45 35 81 81 81s83 -36 83 -81c0 -43 -37 -80 -83 -80zM401 720c235 0 374 -171 374 -370s-139 -370 -374 -370s-374 171 -374 370
s139 370 374 370zM401 575c-120 0 -191 -83 -203 -188h406c-13 105 -84 188 -203 188zM401 125c120 0 190 84 203 190h-406c12 -106 82 -190 203 -190z" />
    <glyph glyph-name="uni04EC" unicode="&#x4ec;" horiz-adv-x="755" 
d="M239 733c-45 0 -82 37 -82 80c0 45 37 81 82 81c47 0 82 -36 82 -81c0 -43 -35 -80 -82 -80zM475 733c-46 0 -81 37 -81 80c0 45 35 81 81 81s83 -36 83 -81c0 -43 -37 -80 -83 -80zM360 720c220 0 368 -147 368 -370s-148 -370 -368 -370c-188 0 -320 111 -337 268h174
c12 -74 75 -123 169 -123c101 0 172 65 190 171h-262v108h262c-18 106 -89 171 -190 171c-92 0 -156 -49 -168 -121h-175c19 161 155 266 337 266z" />
    <glyph glyph-name="uni04EE" unicode="&#x4ee;" horiz-adv-x="612" 
d="M514 853v-92h-396v92h396zM453 700h179l-347 -700h-180l130 264l-248 436h188l149 -276z" />
    <glyph glyph-name="uni04F0" unicode="&#x4f0;" horiz-adv-x="612" 
d="M197 733c-45 0 -82 37 -82 80c0 45 37 81 82 81c47 0 82 -36 82 -81c0 -43 -35 -80 -82 -80zM433 733c-46 0 -81 37 -81 80c0 45 35 81 81 81s83 -36 83 -81c0 -43 -37 -80 -83 -80zM453 700h179l-347 -700h-180l130 264l-248 436h188l149 -276z" />
    <glyph glyph-name="uni04F2" unicode="&#x4f2;" horiz-adv-x="612" 
d="M407 855l-173 -118l-63 26l133 132zM415 736l-62 27l133 132l102 -42zM453 700h179l-347 -700h-180l130 264l-248 436h188l149 -276z" />
    <glyph glyph-name="uni04F4" unicode="&#x4f4;" horiz-adv-x="625" 
d="M173 733c-45 0 -82 37 -82 80c0 45 37 81 82 81c47 0 82 -36 82 -81c0 -43 -35 -80 -82 -80zM409 733c-46 0 -81 37 -81 80c0 45 35 81 81 81s83 -36 83 -81c0 -43 -37 -80 -83 -80zM395 0v231c-44 -24 -96 -29 -143 -29c-132 0 -217 96 -217 218v280h162v-242
c0 -94 45 -129 109 -129c29 0 59 0 89 24v347h161v-700h-161z" />
    <glyph glyph-name="uni04F6" unicode="&#x4f6;" horiz-adv-x="492" 
d="M487 556h-257v-421h54v-255h-149v120h-67v700h419v-144z" />
    <glyph glyph-name="uni04F8" unicode="&#x4f8;" horiz-adv-x="872" 
d="M323 733c-45 0 -82 37 -82 80c0 45 37 81 82 81c47 0 82 -36 82 -81c0 -43 -35 -80 -82 -80zM559 733c-46 0 -81 37 -81 80c0 45 35 81 81 81s83 -36 83 -81c0 -43 -37 -80 -83 -80zM68 0v700h162v-280h150c124 0 211 -95 211 -210c0 -114 -88 -210 -211 -210h-312z
M642 0v700h162v-700h-162zM230 122h114c51 0 84 38 84 89c0 49 -33 87 -84 87h-114v-176z" />
    <glyph glyph-name="uni04FC" unicode="&#x4fc;" horiz-adv-x="651" 
d="M444 -203c-34 0 -57 4 -79 11v116c13 -2 30 -3 44 -3c40 0 54 13 54 43c0 33 -17 65 -53 124l-84 140l-136 -228h-178l221 350l-221 350h178l136 -229l135 229h179l-222 -350l132 -210c61 -96 75 -136 75 -188c0 -108 -62 -155 -181 -155z" />
    <glyph glyph-name="uni0510" unicode="&#x510;" horiz-adv-x="605" 
d="M408 229h167c0 -147 -90 -247 -280 -247c-146 0 -260 78 -260 213c0 94 58 153 125 167c-61 15 -117 75 -117 157c0 141 122 199 261 199c185 0 264 -106 264 -227h-166c0 65 -40 102 -102 102c-56 0 -91 -36 -91 -85c0 -45 23 -86 100 -86h67v-123h-67
c-78 0 -106 -33 -106 -92c0 -48 32 -92 97 -92c68 0 108 41 108 114z" />
    <glyph glyph-name="uni0512" unicode="&#x512;" horiz-adv-x="706" 
d="M128 700h510v-751c0 -106 -65 -155 -181 -155c-35 0 -58 4 -79 12v116c13 -2 29 -4 47 -4c34 0 51 13 51 56v589h-186v-276c0 -208 -84 -296 -212 -296h-60v141h25c55 0 85 45 85 154v414z" />
    <glyph glyph-name="uni051C" unicode="&#x51c;" horiz-adv-x="1030" 
d="M244 0l-247 700h170l146 -465l139 465h126l139 -465l146 465h170l-247 -700h-132l-139 440l-139 -440h-132z" />
    <glyph glyph-name="uni048C" unicode="&#x48c;" horiz-adv-x="615" 
d="M380 420c124 0 211 -95 211 -210c0 -114 -88 -210 -211 -210h-312v529h-40v87h40v84h162v-84h153v-87h-153v-109h150zM344 122c51 0 84 38 84 89c0 49 -33 87 -84 87h-114v-176h114z" />
    <glyph glyph-name="uni048E" unicode="&#x48e;" horiz-adv-x="625" 
d="M617 447c0 -89 -39 -163 -101 -207l43 -43l-48 -48l-59 59c-27 -9 -55 -14 -86 -14h-136v-194h-162v700h298c146 0 251 -106 251 -253zM230 326h102l-48 48l48 48l75 -75c29 22 46 57 46 100c0 70 -47 121 -112 121h-111v-242z" />
    <glyph glyph-name="uni0414.loclBGR" horiz-adv-x="703" 
d="M10 -120v259h71l195 561h150l196 -561h71v-259h-154v120h-375v-120h-154zM242 129h218l-109 374z" />
    <glyph glyph-name="uni041B.loclBGR" horiz-adv-x="660" 
d="M181 0h-171l245 700h150l245 -700h-171l-149 493z" />
    <glyph glyph-name="uni0424.loclBGR" horiz-adv-x="760" 
d="M480 623c170 0 272 -128 272 -272c0 -145 -102 -274 -272 -274h-19v-77h-162v77h-18c-171 0 -273 129 -273 274s102 272 273 272h18v77h162v-77h19zM166 351c0 -79 44 -140 115 -140h29v278h-29c-71 0 -115 -60 -115 -138zM479 211c71 0 116 61 116 140
c0 78 -45 138 -116 138h-28v-278h28z" />
    <glyph glyph-name="uni0430" unicode="&#x430;" horiz-adv-x="624" 
d="M255 -13c-144 0 -227 109 -227 254c0 144 89 254 229 254c70 0 125 -33 151 -82v69h152v-482h-152v68c-26 -48 -86 -81 -153 -81zM299 114c76 0 115 57 115 127c0 69 -39 126 -115 126c-71 0 -115 -53 -115 -126s44 -127 115 -127z" />
    <glyph glyph-name="uni0431" unicode="&#x431;" horiz-adv-x="607" 
d="M319 -15c-187 0 -282 147 -282 340c0 250 126 375 365 375h120v-129h-135c-143 0 -206 -65 -214 -201c23 73 105 112 179 112c152 0 230 -109 230 -245c0 -134 -101 -252 -263 -252zM315 111c72 0 114 56 114 126s-42 126 -114 126c-74 0 -116 -53 -116 -126
s42 -126 116 -126z" />
    <glyph glyph-name="uni0432" unicode="&#x432;" horiz-adv-x="542" 
d="M63 482h277c132 0 158 -78 158 -126c0 -61 -53 -103 -122 -108c77 -3 131 -42 131 -116c0 -48 -33 -132 -179 -132h-265v482zM288 285c34 0 55 23 55 53c0 31 -20 54 -55 54h-74v-107h74zM214 202v-112h77c35 0 58 25 58 56s-23 56 -58 56h-77z" />
    <glyph glyph-name="uni0433" unicode="&#x433;" horiz-adv-x="404" 
d="M384 482v-140h-168v-342h-153v482h321z" />
    <glyph glyph-name="uni0453" unicode="&#x453;" horiz-adv-x="404" 
d="M119 516l-33 90l288 99l33 -89zM384 482v-140h-168v-342h-153v482h321z" />
    <glyph glyph-name="uni0491" unicode="&#x491;" horiz-adv-x="404" 
d="M231 572h153v-230h-168v-342h-153v482h168v90z" />
    <glyph glyph-name="uni0434" unicode="&#x434;" 
d="M555 135h55v-255h-149v120h-291v-120h-153v255h53c29 14 45 50 45 98v249h440v-347zM264 369v-132c0 -48 -13 -87 -34 -118h173v250h-139z" />
    <glyph glyph-name="uni0435" unicode="&#x435;" horiz-adv-x="562" 
d="M537 266c0 -26 -1 -39 -4 -67h-356c3 -63 45 -99 113 -99c47 0 77 15 90 45h150c-15 -95 -112 -160 -240 -160c-164 0 -265 95 -265 256c0 158 103 255 260 255c150 0 252 -94 252 -230zM177 294h209c-1 64 -37 100 -102 100c-66 0 -106 -41 -107 -100z" />
    <glyph glyph-name="uni0451" unicode="&#x451;" horiz-adv-x="562" 
d="M175 537c-49 0 -86 38 -86 85s37 85 86 85s86 -38 86 -85s-37 -85 -86 -85zM394 537c-48 0 -86 38 -86 85s38 85 86 85c49 0 87 -38 87 -85s-38 -85 -87 -85zM537 266c0 -26 -1 -39 -4 -67h-356c3 -63 45 -99 113 -99c47 0 77 15 90 45h150c-15 -95 -112 -160 -240 -160
c-164 0 -265 95 -265 256c0 158 103 255 260 255c150 0 252 -94 252 -230zM177 294h209c-1 64 -37 100 -102 100c-66 0 -106 -41 -107 -100z" />
    <glyph glyph-name="uni0436" unicode="&#x436;" horiz-adv-x="887" 
d="M856 0h-180l-156 210v-210h-153v210l-156 -210h-180l194 250h-8c-26 0 -42 6 -64 38l-32 46c-16 23 -30 27 -49 27h-14v126h43c68 0 93 -13 127 -63l75 -110c17 -24 30 -32 52 -32h12v200h153v-200h12c22 0 35 8 52 32l75 110c34 50 59 63 127 63h43v-126h-14
c-19 0 -33 -4 -49 -27l-32 -46c-22 -32 -38 -38 -64 -38h-8z" />
    <glyph glyph-name="uni0437" unicode="&#x437;" horiz-adv-x="526" 
d="M185 153c0 -37 28 -61 83 -61c47 0 71 19 71 56c0 31 -24 51 -71 51h-66v90h62c40 0 67 20 67 55c0 29 -25 51 -66 51c-52 0 -72 -25 -72 -59h-152c0 85 67 159 227 159c125 0 215 -49 215 -136c0 -71 -50 -103 -110 -110c65 -6 118 -44 118 -118
c0 -97 -110 -146 -226 -146c-163 0 -232 72 -232 168h152z" />
    <glyph glyph-name="uni0438" unicode="&#x438;" horiz-adv-x="608" 
d="M392 283l-176 -246v-37h-153v482h153v-290l176 247v43h152v-482h-152v283z" />
    <glyph glyph-name="uni0439" unicode="&#x439;" horiz-adv-x="608" 
d="M299 509c-112 0 -180 55 -186 146h113c2 -40 30 -60 73 -60c44 0 72 20 74 60h112c-5 -91 -77 -146 -186 -146zM392 283l-176 -246v-37h-153v482h153v-290l176 247v43h152v-482h-152v283z" />
    <glyph glyph-name="uni048B" unicode="&#x48b;" horiz-adv-x="629" 
d="M299 509c-112 0 -180 55 -186 146h113c2 -40 30 -60 73 -60c44 0 72 20 74 60h112c-5 -91 -77 -146 -186 -146zM544 135h55v-255h-149v120h-58v283l-176 -246v-37h-153v482h153v-290l176 247v43h152v-347z" />
    <glyph glyph-name="uni043A" unicode="&#x43a;" horiz-adv-x="583" 
d="M552 0h-180l-156 210v-210h-153v482h153v-200h12c22 0 35 8 52 32l75 110c34 50 59 63 127 63h43v-126h-14c-19 0 -33 -4 -49 -27l-32 -46c-22 -32 -38 -38 -64 -38h-8z" />
    <glyph glyph-name="uni045C" unicode="&#x45c;" horiz-adv-x="583" 
d="M470 616l-288 -100l-33 90l288 99zM552 0h-180l-156 210v-210h-153v482h153v-200h12c22 0 35 8 52 32l75 110c34 50 59 63 127 63h43v-126h-14c-19 0 -33 -4 -49 -27l-32 -46c-22 -32 -38 -38 -64 -38h-8z" />
    <glyph glyph-name="uni043B" unicode="&#x43b;" horiz-adv-x="601" 
d="M27 124h18c40 0 61 29 61 91v267h432v-482h-153v352h-127v-132c0 -139 -62 -226 -185 -226h-46v130z" />
    <glyph glyph-name="uni043C" unicode="&#x43c;" horiz-adv-x="808" 
d="M63 0v482h229l113 -308l114 308h226v-482h-146v354l-136 -354h-115l-139 354v-354h-146z" />
    <glyph glyph-name="uni043D" unicode="&#x43d;" horiz-adv-x="612" 
d="M63 0v482h153v-177h180v177h152v-482h-152v182h-180v-182h-153z" />
    <glyph glyph-name="uni043E" unicode="&#x43e;" horiz-adv-x="585" 
d="M293 -15c-166 0 -268 109 -268 256s102 255 268 255c165 0 267 -108 267 -255s-102 -256 -267 -256zM293 115c72 0 115 53 115 126s-43 126 -115 126c-73 0 -115 -53 -115 -126s42 -126 115 -126z" />
    <glyph glyph-name="uni043F" unicode="&#x43f;" horiz-adv-x="605" 
d="M542 0h-153v359h-173v-359h-153v482h479v-482z" />
    <glyph glyph-name="uni0440" unicode="&#x440;" horiz-adv-x="624" 
d="M373 495c132 0 222 -102 222 -254c0 -151 -93 -254 -226 -254c-71 0 -129 36 -153 81v-268h-153v682h153v-69c25 46 85 82 157 82zM325 114c67 0 114 52 114 127c0 74 -47 126 -114 126c-69 0 -116 -51 -116 -126c0 -76 48 -127 116 -127z" />
    <glyph glyph-name="uni0441" unicode="&#x441;" horiz-adv-x="558" 
d="M283 -15c-159 0 -258 104 -258 256s99 255 258 255c144 0 238 -77 250 -197h-153c-11 45 -40 68 -96 68c-66 0 -106 -46 -106 -126s40 -126 106 -126c56 0 85 22 96 64h153c-12 -117 -106 -194 -250 -194z" />
    <glyph glyph-name="uni0442" unicode="&#x442;" horiz-adv-x="478" 
d="M450 482v-133h-135v-349h-153v349h-134v133h422z" />
    <glyph glyph-name="uni0443" unicode="&#x443;" horiz-adv-x="605" 
d="M389 482h153v-467c0 -78 -28 -137 -69 -174c-43 -37 -96 -56 -177 -56c-82 0 -138 17 -178 50c-35 30 -59 75 -60 127h154c3 -41 26 -65 84 -65c56 0 93 33 93 108v75c-27 -51 -80 -80 -153 -80c-123 0 -178 82 -178 202v280h153v-257c0 -62 21 -104 85 -104
c62 0 93 48 93 122v239z" />
    <glyph glyph-name="uni045E" unicode="&#x45e;" horiz-adv-x="605" 
d="M295 519c-112 0 -180 55 -186 146h113c2 -40 30 -60 73 -60c44 0 72 20 74 60h112c-5 -91 -77 -146 -186 -146zM389 482h153v-467c0 -78 -28 -137 -69 -174c-43 -37 -96 -56 -177 -56c-82 0 -138 17 -178 50c-35 30 -59 75 -60 127h154c3 -41 26 -65 84 -65
c56 0 93 33 93 108v75c-27 -51 -80 -80 -153 -80c-123 0 -178 82 -178 202v280h153v-257c0 -62 21 -104 85 -104c62 0 93 48 93 122v239z" />
    <glyph glyph-name="uni0444" unicode="&#x444;" horiz-adv-x="683" 
d="M658 241c0 -127 -90 -243 -240 -252v-189h-153v189c-148 9 -240 125 -240 252c0 126 92 242 240 251v208h153v-208c148 -9 240 -125 240 -251zM175 241c0 -67 38 -128 109 -128v256c-71 0 -109 -60 -109 -128zM400 113c70 0 109 61 109 128c0 68 -39 128 -109 128v-256z
" />
    <glyph glyph-name="uni0445" unicode="&#x445;" horiz-adv-x="555" 
d="M8 0l176 243l-173 239h183l83 -140l84 140h183l-173 -239l176 -243h-183l-87 144l-86 -144h-183z" />
    <glyph glyph-name="uni0447" unicode="&#x447;" horiz-adv-x="557" 
d="M341 0v158c-37 -19 -79 -26 -116 -26c-124 0 -190 56 -190 166v184h154v-162c0 -52 27 -76 77 -76c27 0 51 1 75 23v215h152v-482h-152z" />
    <glyph glyph-name="uni0446" unicode="&#x446;" horiz-adv-x="623" 
d="M538 135h55v-255h-149v120h-381v482h153v-359h170v359h152v-347z" />
    <glyph glyph-name="uni0448" unicode="&#x448;" horiz-adv-x="847" 
d="M500 123h131v359h152v-482h-720v482h153v-359h131v359h153v-359z" />
    <glyph glyph-name="uni0449" unicode="&#x449;" horiz-adv-x="868" 
d="M783 135h55v-255h-149v120h-626v482h153v-359h131v359h153v-359h131v359h152v-347z" />
    <glyph glyph-name="uni045F" unicode="&#x45f;" horiz-adv-x="602" 
d="M538 482v-482h-160v-91h-149v91h-166v482h153v-359h170v359h152z" />
    <glyph glyph-name="uni044C" unicode="&#x44c;" horiz-adv-x="531" 
d="M63 482h153v-151h100c136 0 195 -79 195 -166c0 -79 -64 -165 -195 -165h-253v482zM216 229v-130h72c44 0 67 28 67 65c0 38 -23 65 -66 65h-73z" />
    <glyph glyph-name="uni044A" unicode="&#x44a;" horiz-adv-x="593" 
d="M378 331c136 0 195 -79 195 -166c0 -79 -64 -165 -195 -165h-253v357h-105v125h258v-151h100zM350 99c44 0 67 28 67 65c0 38 -23 65 -66 65h-73v-130h72z" />
    <glyph glyph-name="uni044B" unicode="&#x44b;" horiz-adv-x="773" 
d="M63 482h153v-151h100c136 0 195 -79 195 -166c0 -79 -64 -165 -195 -165h-253v482zM557 0v482h153v-482h-153zM216 229v-130h72c44 0 67 28 67 65c0 38 -23 65 -66 65h-73z" />
    <glyph glyph-name="uni0459" unicode="&#x459;" horiz-adv-x="854" 
d="M638 331c136 0 195 -79 195 -166c0 -79 -64 -165 -195 -165h-253v352h-127v-132c0 -139 -62 -226 -185 -226h-46v130h18c40 0 61 29 61 91v267h432v-151h100zM610 99c44 0 67 28 67 65c0 38 -23 65 -66 65h-73v-130h72z" />
    <glyph glyph-name="uni045A" unicode="&#x45a;" horiz-adv-x="863" 
d="M648 331c136 0 195 -79 195 -166c0 -79 -64 -165 -195 -165h-253v182h-179v-182h-153v482h153v-177h179v177h153v-151h100zM620 99c44 0 67 28 67 65c0 38 -23 65 -66 65h-73v-130h72z" />
    <glyph glyph-name="uni0455" unicode="&#x455;" horiz-adv-x="499" 
d="M256 -15c-141 0 -228 69 -228 160h152c0 -33 32 -57 79 -57c33 0 56 17 56 45c0 19 -9 35 -35 41l-118 30c-80 20 -121 70 -121 139c0 90 79 153 206 153c141 0 215 -59 215 -150h-151c0 34 -25 53 -66 53c-33 0 -55 -16 -55 -40c0 -22 15 -36 41 -43l114 -31
c74 -20 122 -65 122 -134c0 -99 -79 -166 -211 -166z" />
    <glyph glyph-name="uni0454" unicode="&#x454;" horiz-adv-x="567" 
d="M388 296c-8 48 -39 79 -105 79c-70 0 -102 -38 -107 -95h158v-81h-158c5 -58 39 -92 107 -92c66 0 98 26 106 70h153c-7 -110 -102 -192 -253 -192c-181 0 -264 121 -264 256c0 134 83 255 264 255c150 0 245 -86 252 -200h-153z" />
    <glyph glyph-name="uni044D" unicode="&#x44d;" horiz-adv-x="567" 
d="M179 296h-153c7 114 102 200 252 200c181 0 264 -121 264 -255c0 -135 -83 -256 -264 -256c-151 0 -246 82 -253 192h153c8 -44 40 -70 106 -70c68 0 102 34 107 92h-158v81h158c-5 57 -37 95 -107 95c-66 0 -97 -31 -105 -79z" />
    <glyph glyph-name="uni0456" unicode="&#x456;" horiz-adv-x="279" 
d="M140 524c-55 0 -95 42 -95 94c0 51 40 94 95 94c56 0 95 -43 95 -94c0 -52 -39 -94 -95 -94zM63 0v482h153v-482h-153z" />
    <glyph glyph-name="uni0457" unicode="&#x457;" horiz-adv-x="279" 
d="M60 546c-40 0 -73 34 -73 73c0 41 33 73 73 73c41 0 74 -32 74 -73c0 -39 -33 -73 -74 -73zM220 546c-41 0 -74 34 -74 73c0 41 33 73 74 73s73 -32 73 -73c0 -39 -32 -73 -73 -73zM63 0v482h153v-482h-153z" />
    <glyph glyph-name="uni0458" unicode="&#x458;" horiz-adv-x="281" 
d="M142 524c-55 0 -95 42 -95 94c0 51 40 94 95 94c56 0 95 -43 95 -94c0 -52 -39 -94 -95 -94zM62 -206c-33 0 -52 3 -73 10v118c13 -3 23 -4 37 -4c26 0 39 14 39 46v518h153v-537c0 -101 -56 -151 -156 -151z" />
    <glyph glyph-name="uni045B" unicode="&#x45b;" horiz-adv-x="607" 
d="M372 495c117 0 176 -66 176 -197v-298h-154v248c0 81 -23 118 -85 118c-61 0 -93 -40 -93 -114v-252h-153v548h-38v87h38v65h153v-65h164v-87h-164v-136c28 54 83 83 156 83z" />
    <glyph glyph-name="uni044E" unicode="&#x44e;" horiz-adv-x="820" 
d="M527 496c165 0 267 -108 267 -255s-102 -256 -267 -256c-144 0 -240 82 -263 200h-48v-185h-153v482h153v-183h49c23 117 119 197 262 197zM527 115c72 0 115 53 115 126s-43 126 -115 126c-73 0 -115 -53 -115 -126s42 -126 115 -126z" />
    <glyph glyph-name="uni044F" unicode="&#x44f;" horiz-adv-x="575" 
d="M37 0l107 155c-68 27 -104 90 -104 157c0 92 74 170 181 170h291v-482h-152v135h-63l-84 -135h-176zM265 241h95v135h-95c-42 0 -69 -31 -69 -68c0 -36 27 -67 69 -67z" />
    <glyph glyph-name="uni0452" unicode="&#x452;" horiz-adv-x="607" 
d="M372 495c117 0 176 -66 176 -197v-363c0 -93 -58 -141 -164 -141c-31 0 -52 3 -70 12v109c16 -3 23 -4 36 -4c29 0 44 14 44 46v291c0 81 -23 118 -85 118c-61 0 -93 -40 -93 -114v-252h-153v548h-38v87h38v65h153v-65h164v-87h-164v-136c28 54 83 83 156 83z" />
    <glyph glyph-name="uni0463" unicode="&#x463;" horiz-adv-x="531" 
d="M316 331c136 0 195 -79 195 -166c0 -79 -64 -165 -195 -165h-253v440h-42v87h42v173h153v-173h93v-87h-93v-109h100zM288 99c44 0 67 28 67 65c0 38 -23 65 -66 65h-73v-130h72z" />
    <glyph glyph-name="uni0473" unicode="&#x473;" horiz-adv-x="585" 
d="M293 496c165 0 267 -108 267 -255s-102 -256 -267 -256c-166 0 -268 109 -268 256s102 255 268 255zM293 367c-62 0 -102 -38 -112 -95h224c-10 57 -51 95 -112 95zM293 115c61 0 102 38 112 95h-224c10 -57 50 -95 112 -95z" />
    <glyph glyph-name="uni0475" unicode="&#x475;" horiz-adv-x="541" 
d="M334 0h-122l-215 482h160l116 -310l80 210c28 79 67 106 140 106h51v-129h-14c-24 0 -40 -7 -58 -52z" />
    <glyph glyph-name="uni0493" unicode="&#x493;" horiz-adv-x="404" 
d="M384 342h-168v-66h99v-87h-99v-189h-153v189h-36v87h36v206h321v-140z" />
    <glyph glyph-name="uni0495" unicode="&#x495;" horiz-adv-x="574" 
d="M346 275c131 0 213 -84 213 -225c0 -148 -84 -225 -236 -223c-14 0 -40 1 -61 6v122c8 -1 24 -3 30 -3c63 0 103 29 103 96c0 65 -37 96 -88 96c-32 0 -59 -6 -91 -22v-122h-153v482h321v-140h-168v-89c40 15 86 22 130 22z" />
    <glyph glyph-name="uni0497" unicode="&#x497;" horiz-adv-x="896" 
d="M856 0h-8v-120h-149v120h-23l-156 210v-210h-153v210l-156 -210h-180l194 250h-8c-26 0 -42 6 -64 38l-32 46c-16 23 -30 27 -49 27h-14v126h43c68 0 93 -13 127 -63l75 -110c17 -24 30 -32 52 -32h12v200h153v-200h12c22 0 35 8 52 32l75 110c34 50 59 63 127 63h43
v-126h-14c-19 0 -33 -4 -49 -27l-32 -46c-22 -32 -38 -38 -64 -38h-8l89 -115h97v-125z" />
    <glyph glyph-name="uni0499" unicode="&#x499;" horiz-adv-x="526" 
d="M491 131c0 -89 -93 -138 -198 -145v-45c7 6 24 11 42 11c44 0 78 -30 78 -77s-33 -87 -97 -87c-54 0 -92 28 -96 73h63c1 -15 16 -24 31 -24c20 0 33 13 33 38c0 24 -13 36 -32 36c-13 0 -23 -6 -29 -15h-57v90c-137 10 -196 78 -196 167h152c0 -37 28 -61 83 -61
c47 0 71 19 71 56c0 31 -24 51 -71 51h-66v90h62c40 0 67 20 67 55c0 29 -25 51 -66 51c-52 0 -72 -25 -72 -59h-152c0 85 67 159 227 159c125 0 215 -49 215 -136c0 -71 -50 -103 -110 -110c65 -6 118 -44 118 -118z" />
    <glyph glyph-name="uni049B" unicode="&#x49b;" horiz-adv-x="609" 
d="M447 135h132v-255h-149v120h-58l-156 210v-210h-153v482h153v-200h12c22 0 35 8 52 32l75 110c34 50 59 63 127 63h43v-126h-14c-19 0 -33 -4 -49 -27l-32 -46c-22 -32 -38 -38 -64 -38h-8z" />
    <glyph glyph-name="uni049D" unicode="&#x49d;" horiz-adv-x="610" 
d="M578 0h-179l-133 190v-81h-28v102h-22v-211h-153v482h153v-200h22v102h28v-101c16 2 27 11 41 31l75 110c33 50 59 63 127 63h46v-126h-16c-20 0 -34 -4 -50 -27l-33 -46c-22 -32 -37 -38 -63 -38h-8z" />
    <glyph glyph-name="uni049F" unicode="&#x49f;" horiz-adv-x="583" 
d="M552 0h-180l-156 210v-210h-153v363h-38v68h38v51h153v-51h69v-68h-69v-81h12c22 0 35 8 52 32l75 110c34 50 59 63 127 63h43v-126h-14c-19 0 -33 -4 -49 -27l-32 -46c-22 -32 -38 -38 -64 -38h-8z" />
    <glyph glyph-name="uni04A1" unicode="&#x4a1;" horiz-adv-x="645" 
d="M614 0h-180l-156 210v-210h-153v357h-105v125h258v-200h12c22 0 35 8 52 32l75 110c34 50 59 63 127 63h43v-126h-14c-19 0 -33 -4 -49 -27l-32 -46c-22 -32 -38 -38 -64 -38h-8z" />
    <glyph glyph-name="uni04A3" unicode="&#x4a3;" horiz-adv-x="633" 
d="M548 135h55v-255h-149v120h-58v182h-180v-182h-153v482h153v-177h180v177h152v-347z" />
    <glyph glyph-name="uni04A5" unicode="&#x4a5;" horiz-adv-x="737" 
d="M716 482v-140h-168v-342h-153v182h-179v-182h-153v482h153v-177h179v177h321z" />
    <glyph glyph-name="uni04A7" unicode="&#x4a7;" horiz-adv-x="900" 
d="M672 301c131 0 213 -88 213 -238c0 -157 -84 -236 -237 -236c-14 0 -39 1 -60 6v122c8 -1 24 -3 29 -3c64 0 104 33 104 109c0 73 -37 110 -88 110c-32 0 -60 -6 -91 -22v-149h-153v359h-173v-359h-153v482h479v-202c40 15 86 21 130 21z" />
    <glyph glyph-name="uni0525" unicode="&#x525;" horiz-adv-x="626" 
d="M542 135h54v-255h-149v120h-58v359h-173v-359h-153v482h479v-347z" />
    <glyph glyph-name="uni04A9" unicode="&#x4a9;" horiz-adv-x="609" 
d="M518 68c28 3 53 9 79 19v-83c-32 -13 -60 -21 -97 -21s-71 9 -99 27c-31 -20 -75 -28 -119 -28c-155 0 -257 88 -257 248c0 178 125 266 293 266c32 0 65 -3 97 -10v-112c-28 6 -57 8 -85 8c-91 0 -163 -45 -163 -151c0 -74 33 -128 101 -143c-19 29 -29 65 -29 103
c0 98 71 157 170 157s171 -49 171 -153c0 -52 -25 -95 -62 -127zM411 246c-36 0 -56 -25 -56 -67c0 -34 13 -63 37 -83c43 14 70 43 70 86c0 36 -15 64 -51 64z" />
    <glyph glyph-name="uni04AB" unicode="&#x4ab;" horiz-adv-x="558" 
d="M284 115c56 0 85 22 96 64h153c-11 -110 -95 -184 -224 -193v-45c7 6 24 11 42 11c44 0 78 -30 78 -77s-33 -87 -97 -87c-54 0 -92 28 -96 73h63c1 -15 16 -24 31 -24c20 0 33 13 33 38c0 24 -13 36 -32 36c-13 0 -23 -6 -29 -15h-57v91c-137 15 -220 115 -220 254
c0 152 99 255 258 255c144 0 238 -77 250 -197h-153c-11 45 -40 68 -96 68c-66 0 -106 -46 -106 -126s40 -126 106 -126z" />
    <glyph glyph-name="uni04AD" unicode="&#x4ad;" horiz-adv-x="478" 
d="M450 349h-135v-214h54v-255h-149v120h-58v349h-134v133h422v-133z" />
    <glyph glyph-name="uni04AF" unicode="&#x4af;" horiz-adv-x="549" 
d="M552 482l-202 -466v-216h-152v216l-201 466h169l108 -303l108 303h170z" />
    <glyph glyph-name="uni04B1" unicode="&#x4b1;" horiz-adv-x="549" 
d="M350 16v-15h94v-96h-94v-105h-152v105h-93v96h93v15l-201 466h169l108 -303l108 303h170z" />
    <glyph glyph-name="uni04B3" unicode="&#x4b3;" horiz-adv-x="621" 
d="M466 135h125v-255h-149v120h-61l-87 144l-86 -144h-183l176 243l-173 239h183l83 -140l84 140h183l-173 -239z" />
    <glyph glyph-name="uni04B5" unicode="&#x4b5;" horiz-adv-x="684" 
d="M600 139h54v-259h-149v120h-380v349h-97v133h348v-133h-98v-226h169v359h153v-343z" />
    <glyph glyph-name="uni04B7" unicode="&#x4b7;" horiz-adv-x="576" 
d="M493 135h53v-255h-149v120h-56v158c-37 -19 -79 -26 -116 -26c-124 0 -190 56 -190 166v184h154v-162c0 -52 27 -76 77 -76c27 0 51 1 75 23v215h152v-347z" />
    <glyph glyph-name="uni04B9" unicode="&#x4b9;" horiz-adv-x="557" 
d="M341 482h152v-482h-152v158c-15 -8 -30 -13 -46 -17v-92h-43v84c-9 -1 -18 -1 -27 -1c-124 0 -190 56 -190 166v184h154v-162c0 -47 22 -71 63 -75v103h43v-103c16 3 31 8 46 22v215z" />
    <glyph glyph-name="uni04BB" unicode="&#x4bb;" horiz-adv-x="607" 
d="M372 495c117 0 176 -66 176 -197v-298h-154v248c0 81 -23 118 -85 118c-61 0 -93 -40 -93 -114v-252h-153v700h153v-288c28 54 83 83 156 83z" />
    <glyph glyph-name="uni0527" unicode="&#x527;" horiz-adv-x="633" 
d="M548 135h55v-255h-149v120h-60v248c0 81 -23 118 -85 118c-61 0 -93 -40 -93 -114v-252h-153v700h153v-288c28 54 83 83 156 83c117 0 176 -66 176 -197v-163z" />
    <glyph glyph-name="uni04BD" unicode="&#x4bd;" horiz-adv-x="681" 
d="M656 266c0 -26 -1 -39 -4 -67h-356c3 -63 45 -99 113 -99c47 0 77 15 90 45h150c-15 -95 -112 -160 -240 -160c-149 0 -246 79 -263 214c-84 3 -141 55 -141 132v49h107v-41c0 -25 14 -40 37 -43c21 125 117 200 255 200c150 0 252 -94 252 -230zM296 294h209
c-1 64 -37 100 -102 100c-66 0 -106 -41 -107 -100z" />
    <glyph glyph-name="uni04BF" unicode="&#x4bf;" horiz-adv-x="681" 
d="M656 266c0 -26 -1 -39 -4 -67h-356c3 -63 45 -99 113 -99c47 0 77 15 90 45h150c-13 -83 -88 -142 -191 -157c-34 -14 -44 -37 -44 -57c0 -28 22 -50 53 -50c15 0 31 4 49 12v-83c-28 -10 -54 -16 -95 -16c-86 0 -134 45 -134 100c0 37 18 69 57 96
c-112 20 -184 94 -198 209c-84 3 -141 55 -141 132v49h107v-41c0 -25 14 -40 37 -43c21 125 117 200 255 200c150 0 252 -94 252 -230zM296 294h209c-1 64 -37 100 -102 100c-66 0 -106 -41 -107 -100z" />
    <glyph glyph-name="uni04CF" unicode="&#x4cf;" horiz-adv-x="279" 
d="M63 0v482h153v-482h-153z" />
    <glyph glyph-name="uni04C2" unicode="&#x4c2;" horiz-adv-x="887" 
d="M445 519c-112 0 -180 55 -186 146h113c2 -40 30 -60 73 -60c44 0 72 20 74 60h112c-5 -91 -77 -146 -186 -146zM856 0h-180l-156 210v-210h-153v210l-156 -210h-180l194 250h-8c-26 0 -42 6 -64 38l-32 46c-16 23 -30 27 -49 27h-14v126h43c68 0 93 -13 127 -63l75 -110
c17 -24 30 -32 52 -32h12v200h153v-200h12c22 0 35 8 52 32l75 110c34 50 59 63 127 63h43v-126h-14c-19 0 -33 -4 -49 -27l-32 -46c-22 -32 -38 -38 -64 -38h-8z" />
    <glyph glyph-name="uni04C4" unicode="&#x4c4;" horiz-adv-x="562" 
d="M415 269c82 -25 132 -90 132 -184c0 -149 -85 -228 -237 -228c-14 0 -39 1 -60 7v121c11 -2 20 -3 36 -3c57 0 101 32 101 105c0 65 -33 99 -99 99h-72v-186h-153v482h153v-200h12c22 0 35 8 52 32l75 110c34 50 59 63 127 63h46v-126h-15c-20 0 -34 -4 -51 -27l-32 -46
c-5 -8 -10 -14 -15 -19z" />
    <glyph glyph-name="uni04C6" unicode="&#x4c6;" horiz-adv-x="614" 
d="M538 139h74l-90 -259h-140l41 120h-38v352h-127v-132c0 -139 -62 -226 -185 -226h-46v130h18c40 0 61 29 61 91v267h432v-343z" />
    <glyph glyph-name="uni04C8" unicode="&#x4c8;" horiz-adv-x="612" 
d="M396 482h152v-547c0 -93 -56 -141 -162 -141c-32 0 -52 3 -70 12v109c16 -3 22 -4 36 -4c29 0 44 14 44 46v225h-180v-182h-153v482h153v-177h180v177z" />
    <glyph glyph-name="uni04CA" unicode="&#x4ca;" horiz-adv-x="624" 
d="M548 139h75l-90 -259h-140l41 120h-38v182h-180v-182h-153v482h153v-177h180v177h152v-343z" />
    <glyph glyph-name="uni04CC" unicode="&#x4cc;" horiz-adv-x="557" 
d="M493 482v-482h-76v-120h-153v222h77v56c-37 -19 -79 -26 -116 -26c-124 0 -190 56 -190 166v184h154v-162c0 -52 27 -76 77 -76c27 0 51 1 75 23v215h152z" />
    <glyph glyph-name="uni04CE" unicode="&#x4ce;" horiz-adv-x="821" 
d="M745 139h74l-90 -259h-140l41 120h-31v354l-136 -354h-115l-139 354v-354h-146v482h229l113 -308l114 308h226v-343z" />
    <glyph glyph-name="uni04D1" unicode="&#x4d1;" horiz-adv-x="624" 
d="M299 519c-112 0 -180 55 -186 146h113c2 -40 30 -60 73 -60c44 0 72 20 74 60h112c-5 -91 -77 -146 -186 -146zM255 -13c-144 0 -227 109 -227 254c0 144 89 254 229 254c70 0 125 -33 151 -82v69h152v-482h-152v68c-26 -48 -86 -81 -153 -81zM299 114
c76 0 115 57 115 127c0 69 -39 126 -115 126c-71 0 -115 -53 -115 -126s44 -127 115 -127z" />
    <glyph glyph-name="uni04D3" unicode="&#x4d3;" horiz-adv-x="624" 
d="M189 537c-49 0 -86 38 -86 85s37 85 86 85s86 -38 86 -85s-37 -85 -86 -85zM408 537c-48 0 -86 38 -86 85s38 85 86 85c49 0 87 -38 87 -85s-38 -85 -87 -85zM255 -13c-144 0 -227 109 -227 254c0 144 89 254 229 254c70 0 125 -33 151 -82v69h152v-482h-152v68
c-26 -48 -86 -81 -153 -81zM299 114c76 0 115 57 115 127c0 69 -39 126 -115 126c-71 0 -115 -53 -115 -126s44 -127 115 -127z" />
    <glyph glyph-name="uni04D5" unicode="&#x4d5;" horiz-adv-x="916" 
d="M891 264c0 -25 -1 -37 -4 -65h-356c2 -64 44 -100 111 -100c48 0 79 18 92 55h150c-15 -102 -112 -170 -240 -170c-83 0 -152 30 -196 84c-44 -52 -111 -83 -210 -83c-121 0 -206 57 -206 145c0 50 16 93 59 122c45 31 103 38 212 38h81v38c0 32 -19 65 -87 65
c-65 0 -90 -27 -92 -69h-154c8 104 99 172 247 172c84 0 140 -23 175 -61c43 39 100 60 166 60c150 0 252 -94 252 -231zM531 291h209c0 64 -38 103 -101 103s-107 -43 -108 -103zM385 181v19h-99c-67 0 -92 -24 -92 -55c0 -38 33 -55 82 -55c51 0 109 25 109 91z" />
    <glyph glyph-name="uni04D7" unicode="&#x4d7;" horiz-adv-x="562" 
d="M285 519c-112 0 -180 55 -186 146h113c2 -40 30 -60 73 -60c44 0 72 20 74 60h112c-5 -91 -77 -146 -186 -146zM537 266c0 -26 -1 -39 -4 -67h-356c3 -63 45 -99 113 -99c47 0 77 15 90 45h150c-15 -95 -112 -160 -240 -160c-164 0 -265 95 -265 256
c0 158 103 255 260 255c150 0 252 -94 252 -230zM177 294h209c-1 64 -37 100 -102 100c-66 0 -106 -41 -107 -100z" />
    <glyph glyph-name="uni04D9" unicode="&#x4d9;" horiz-adv-x="562" 
d="M272 497c164 0 265 -95 265 -256c0 -158 -103 -255 -260 -255c-150 0 -252 94 -252 230c0 26 1 39 4 67h356c-3 63 -45 99 -113 99c-47 0 -77 -15 -90 -45h-150c15 95 112 160 240 160zM278 88c66 0 106 41 107 100h-209c1 -64 37 -100 102 -100z" />
    <glyph glyph-name="uni04DB" unicode="&#x4db;" horiz-adv-x="562" 
d="M162 537c-49 0 -86 38 -86 85s37 85 86 85s86 -38 86 -85s-37 -85 -86 -85zM381 537c-48 0 -86 38 -86 85s38 85 86 85c49 0 87 -38 87 -85s-38 -85 -87 -85zM272 497c164 0 265 -95 265 -256c0 -158 -103 -255 -260 -255c-150 0 -252 94 -252 230c0 26 1 39 4 67h356
c-3 63 -45 99 -113 99c-47 0 -77 -15 -90 -45h-150c15 95 112 160 240 160zM278 88c66 0 106 41 107 100h-209c1 -64 37 -100 102 -100z" />
    <glyph glyph-name="uni04DD" unicode="&#x4dd;" horiz-adv-x="887" 
d="M335 537c-49 0 -86 38 -86 85s37 85 86 85s86 -38 86 -85s-37 -85 -86 -85zM554 537c-48 0 -86 38 -86 85s38 85 86 85c49 0 87 -38 87 -85s-38 -85 -87 -85zM856 0h-180l-156 210v-210h-153v210l-156 -210h-180l194 250h-8c-26 0 -42 6 -64 38l-32 46
c-16 23 -30 27 -49 27h-14v126h43c68 0 93 -13 127 -63l75 -110c17 -24 30 -32 52 -32h12v200h153v-200h12c22 0 35 8 52 32l75 110c34 50 59 63 127 63h43v-126h-14c-19 0 -33 -4 -49 -27l-32 -46c-22 -32 -38 -38 -64 -38h-8z" />
    <glyph glyph-name="uni04DF" unicode="&#x4df;" horiz-adv-x="526" 
d="M151 537c-49 0 -86 38 -86 85s37 85 86 85s86 -38 86 -85s-37 -85 -86 -85zM370 537c-48 0 -86 38 -86 85s38 85 86 85c49 0 87 -38 87 -85s-38 -85 -87 -85zM185 153c0 -37 28 -61 83 -61c47 0 71 19 71 56c0 31 -24 51 -71 51h-66v90h62c40 0 67 20 67 55
c0 29 -25 51 -66 51c-52 0 -72 -25 -72 -59h-152c0 85 67 159 227 159c125 0 215 -49 215 -136c0 -71 -50 -103 -110 -110c65 -6 118 -44 118 -118c0 -97 -110 -146 -226 -146c-163 0 -232 72 -232 168h152z" />
    <glyph glyph-name="uni04E1" unicode="&#x4e1;" horiz-adv-x="543" 
d="M252 -215c-161 0 -256 71 -257 212h160c2 -59 44 -89 94 -89c54 0 92 40 92 119c0 82 -49 115 -134 115h-83l153 211h-230v129h461l-175 -259c100 -17 165 -106 165 -207c0 -149 -101 -231 -246 -231z" />
    <glyph glyph-name="uni04E3" unicode="&#x4e3;" horiz-adv-x="608" 
d="M128 553v95h342v-95h-342zM392 283l-176 -246v-37h-153v482h153v-290l176 247v43h152v-482h-152v283z" />
    <glyph glyph-name="uni04E5" unicode="&#x4e5;" horiz-adv-x="608" 
d="M189 527c-49 0 -86 38 -86 85s37 85 86 85s86 -38 86 -85s-37 -85 -86 -85zM408 527c-48 0 -86 38 -86 85s38 85 86 85c49 0 87 -38 87 -85s-38 -85 -87 -85zM392 283l-176 -246v-37h-153v482h153v-290l176 247v43h152v-482h-152v283z" />
    <glyph glyph-name="uni04E7" unicode="&#x4e7;" horiz-adv-x="585" 
d="M183 537c-49 0 -86 38 -86 85s37 85 86 85s86 -38 86 -85s-37 -85 -86 -85zM402 537c-48 0 -86 38 -86 85s38 85 86 85c49 0 87 -38 87 -85s-38 -85 -87 -85zM293 -15c-166 0 -268 109 -268 256s102 255 268 255c165 0 267 -108 267 -255s-102 -256 -267 -256zM293 115
c72 0 115 53 115 126s-43 126 -115 126c-73 0 -115 -53 -115 -126s42 -126 115 -126z" />
    <glyph glyph-name="uni04E9" unicode="&#x4e9;" horiz-adv-x="585" 
d="M293 496c165 0 267 -108 267 -255s-102 -256 -267 -256c-166 0 -268 109 -268 256s102 255 268 255zM293 367c-62 0 -102 -38 -112 -95h224c-10 57 -51 95 -112 95zM293 115c61 0 102 38 112 95h-224c10 -57 50 -95 112 -95z" />
    <glyph glyph-name="uni04EB" unicode="&#x4eb;" horiz-adv-x="585" 
d="M183 537c-49 0 -86 38 -86 85s37 85 86 85s86 -38 86 -85s-37 -85 -86 -85zM402 537c-48 0 -86 38 -86 85s38 85 86 85c49 0 87 -38 87 -85s-38 -85 -87 -85zM293 496c165 0 267 -108 267 -255s-102 -256 -267 -256c-166 0 -268 109 -268 256s102 255 268 255zM293 367
c-62 0 -102 -38 -112 -95h224c-10 57 -51 95 -112 95zM293 115c61 0 102 38 112 95h-224c10 -57 50 -95 112 -95z" />
    <glyph glyph-name="uni04ED" unicode="&#x4ed;" horiz-adv-x="567" 
d="M168 537c-49 0 -86 38 -86 85s37 85 86 85s86 -38 86 -85s-37 -85 -86 -85zM387 537c-48 0 -86 38 -86 85s38 85 86 85c49 0 87 -38 87 -85s-38 -85 -87 -85zM179 296h-153c7 114 102 200 252 200c181 0 264 -121 264 -255c0 -135 -83 -256 -264 -256
c-151 0 -246 82 -253 192h153c8 -44 40 -70 106 -70c68 0 102 34 107 92h-158v81h158c-5 57 -37 95 -107 95c-66 0 -97 -31 -105 -79z" />
    <glyph glyph-name="uni04EF" unicode="&#x4ef;" horiz-adv-x="605" 
d="M124 563v95h342v-95h-342zM389 482h153v-467c0 -78 -28 -137 -69 -174c-43 -37 -96 -56 -177 -56c-82 0 -138 17 -178 50c-35 30 -59 75 -60 127h154c3 -41 26 -65 84 -65c56 0 93 33 93 108v75c-27 -51 -80 -80 -153 -80c-123 0 -178 82 -178 202v280h153v-257
c0 -62 21 -104 85 -104c62 0 93 48 93 122v239z" />
    <glyph glyph-name="uni04F1" unicode="&#x4f1;" horiz-adv-x="605" 
d="M185 537c-49 0 -86 38 -86 85s37 85 86 85s86 -38 86 -85s-37 -85 -86 -85zM404 537c-48 0 -86 38 -86 85s38 85 86 85c49 0 87 -38 87 -85s-38 -85 -87 -85zM389 482h153v-467c0 -78 -28 -137 -69 -174c-43 -37 -96 -56 -177 -56c-82 0 -138 17 -178 50
c-35 30 -59 75 -60 127h154c3 -41 26 -65 84 -65c56 0 93 33 93 108v75c-27 -51 -80 -80 -153 -80c-123 0 -178 82 -178 202v280h153v-257c0 -62 21 -104 85 -104c62 0 93 48 93 122v239z" />
    <glyph glyph-name="uni04F3" unicode="&#x4f3;" horiz-adv-x="605" 
d="M191 509l-60 31l126 160l96 -55zM386 509l-60 31l126 160l96 -55zM389 482h153v-467c0 -78 -28 -137 -69 -174c-43 -37 -96 -56 -177 -56c-82 0 -138 17 -178 50c-35 30 -59 75 -60 127h154c3 -41 26 -65 84 -65c56 0 93 33 93 108v75c-27 -51 -80 -80 -153 -80
c-123 0 -178 82 -178 202v280h153v-257c0 -62 21 -104 85 -104c62 0 93 48 93 122v239z" />
    <glyph glyph-name="uni04F5" unicode="&#x4f5;" horiz-adv-x="557" 
d="M155 537c-49 0 -86 38 -86 85s37 85 86 85s86 -38 86 -85s-37 -85 -86 -85zM374 537c-48 0 -86 38 -86 85s38 85 86 85c49 0 87 -38 87 -85s-38 -85 -87 -85zM341 0v158c-37 -19 -79 -26 -116 -26c-124 0 -190 56 -190 166v184h154v-162c0 -52 27 -76 77 -76
c27 0 51 1 75 23v215h152v-482h-152z" />
    <glyph glyph-name="uni04F7" unicode="&#x4f7;" horiz-adv-x="404" 
d="M384 342h-168v-207h54v-255h-149v120h-58v482h321v-140z" />
    <glyph glyph-name="uni04F9" unicode="&#x4f9;" horiz-adv-x="773" 
d="M263 537c-49 0 -86 38 -86 85s37 85 86 85s86 -38 86 -85s-37 -85 -86 -85zM482 537c-48 0 -86 38 -86 85s38 85 86 85c49 0 87 -38 87 -85s-38 -85 -87 -85zM63 482h153v-151h100c136 0 195 -79 195 -166c0 -79 -64 -165 -195 -165h-253v482zM557 0v482h153v-482h-153z
M216 229v-130h72c44 0 67 28 67 65c0 38 -23 65 -66 65h-73z" />
    <glyph glyph-name="uni04FD" unicode="&#x4fd;" horiz-adv-x="552" 
d="M373 -206c-33 0 -63 3 -81 12v102c16 -3 23 -4 36 -4c33 0 47 15 47 49c0 37 -29 86 -63 138l-35 53l-86 -144h-183l176 243l-173 239h183l83 -140l84 140h183l-173 -239l61 -85c83 -115 94 -169 94 -228c0 -84 -47 -136 -153 -136z" />
    <glyph glyph-name="uni0511" unicode="&#x511;" horiz-adv-x="526" 
d="M341 153h152c0 -96 -69 -168 -232 -168c-116 0 -226 49 -226 146c0 74 53 112 118 118c-60 7 -110 39 -110 110c0 87 90 136 215 136c160 0 227 -74 227 -159h-152c0 34 -20 59 -72 59c-41 0 -66 -22 -66 -51c0 -35 27 -55 67 -55h62v-90h-66c-47 0 -71 -20 -71 -51
c0 -37 24 -56 71 -56c55 0 83 24 83 61z" />
    <glyph glyph-name="uni0513" unicode="&#x513;" horiz-adv-x="601" 
d="M106 482h432v-547c0 -93 -58 -141 -163 -141c-31 0 -52 3 -70 12v109c16 -3 23 -4 36 -4c29 0 44 14 44 46v395h-127v-132c0 -139 -62 -226 -185 -226h-46v130h18c40 0 61 29 61 91v267z" />
    <glyph glyph-name="uni051D" unicode="&#x51d;" horiz-adv-x="813" 
d="M177 0l-174 482h160l87 -292l82 292h149l82 -292l87 292h159l-173 -482h-137l-93 293l-92 -293h-137z" />
    <glyph glyph-name="uni048D" unicode="&#x48d;" horiz-adv-x="531" 
d="M316 331c136 0 195 -79 195 -166c0 -79 -64 -165 -195 -165h-253v440h-42v87h42v173h153v-173h93v-87h-93v-109h100zM288 99c44 0 67 28 67 65c0 38 -23 65 -66 65h-73v-130h72z" />
    <glyph glyph-name="uni048F" unicode="&#x48f;" horiz-adv-x="624" 
d="M595 241c0 -74 -22 -136 -60 -180l41 -41l-48 -48l-45 45c-33 -19 -71 -30 -114 -30c-71 0 -129 36 -153 81v-268h-153v682h153v-69c25 46 85 82 157 82c132 0 222 -102 222 -254zM325 114c18 0 34 4 49 11l-73 72l48 48l74 -73c10 19 16 43 16 69c0 74 -47 126 -114 126
c-69 0 -116 -51 -116 -126c0 -76 48 -127 116 -127z" />
    <glyph glyph-name="uni0432.loclBGR" horiz-adv-x="618" 
d="M324 -15c-164 0 -254 96 -254 214v315c0 115 91 200 246 201c154 -1 243 -87 243 -201c0 -68 -39 -126 -105 -149c72 -21 122 -88 122 -166c0 -117 -90 -214 -252 -214zM315 419c58 0 92 41 92 87c0 49 -34 92 -91 92s-91 -41 -91 -87v-92h90zM324 102c61 0 97 50 97 101
c0 50 -38 97 -106 97h-90v-100c0 -49 37 -98 99 -98z" />
    <glyph glyph-name="uni0433.loclBGR" horiz-adv-x="499" 
d="M243 -15c-132 0 -211 67 -211 166c0 69 48 114 122 134l114 31c26 7 41 21 41 43c0 24 -22 40 -55 40c-41 0 -66 -19 -66 -53h-151c0 91 74 150 215 150c127 0 206 -63 206 -153c0 -69 -41 -119 -121 -139l-118 -30c-26 -6 -35 -22 -35 -41c0 -28 23 -45 56 -45
c47 0 79 24 79 57h152c0 -91 -87 -160 -228 -160z" />
    <glyph glyph-name="uni0434.loclBGR" horiz-adv-x="624" 
d="M408 482h153v-449c0 -95 -34 -164 -93 -205c-44 -31 -103 -43 -172 -43s-127 11 -174 39c-49 30 -84 82 -86 134h156c7 -38 40 -61 102 -61c71 0 114 31 114 117v64c-24 -48 -88 -78 -151 -78c-143 0 -229 104 -229 246s92 249 231 249c66 0 125 -32 149 -82v69zM299 118
c73 0 116 56 116 126s-43 126 -116 126c-69 0 -114 -53 -114 -126s45 -126 114 -126z" />
    <glyph glyph-name="uni0436.loclBGR" horiz-adv-x="873" 
d="M853 0h-187l-153 209v-209h-153v209l-153 -209h-187l195 254l-192 228h180l157 -201v419h153v-419l157 201h180l-192 -228z" />
    <glyph glyph-name="uni0437.loclBGR" horiz-adv-x="549" 
d="M185 -11c3 -59 36 -88 85 -88c57 0 88 34 88 94c0 59 -20 115 -96 115h-36v103h36c56 0 84 36 84 97c0 55 -23 82 -68 82c-53 0 -72 -38 -72 -88h-151c0 116 86 191 224 191c151 0 216 -82 216 -181c0 -86 -57 -138 -123 -147c84 -11 142 -69 142 -174
c0 -137 -90 -208 -247 -208c-141 0 -232 68 -234 204h152z" />
    <glyph glyph-name="uni0438.loclBGR" horiz-adv-x="602" 
d="M236 -13c-116 0 -178 72 -178 197v298h155v-264c0 -66 22 -102 80 -102c65 0 93 42 93 107v259h152v-482h-152v69c-27 -51 -77 -82 -150 -82z" />
    <glyph glyph-name="uni0439.loclBGR" horiz-adv-x="602" 
d="M302 519c-112 0 -180 55 -186 146h113c2 -40 30 -60 73 -60c44 0 72 20 74 60h112c-5 -91 -77 -146 -186 -146zM236 -13c-116 0 -178 72 -178 197v298h155v-264c0 -66 22 -102 80 -102c65 0 93 42 93 107v259h152v-482h-152v69c-27 -51 -77 -82 -150 -82z" />
    <glyph glyph-name="uni043A.loclBGR" horiz-adv-x="576" 
d="M556 0h-187l-153 209v-209h-153v700h153v-419l157 201h180l-192 -228z" />
    <glyph glyph-name="uni043B.loclBGR" horiz-adv-x="572" 
d="M218 482h136l213 -482h-160l-121 306l-121 -306h-160z" />
    <glyph glyph-name="uni043F.loclBGR" horiz-adv-x="607" 
d="M63 0v482h153v-70c28 54 83 83 156 83c117 0 176 -66 176 -197v-298h-154v248c0 81 -23 118 -85 118c-61 0 -93 -40 -93 -114v-252h-153z" />
    <glyph glyph-name="uni0442.loclBGR" horiz-adv-x="888" 
d="M63 0v482h153v-70c21 48 71 83 138 83c86 0 130 -38 151 -89c26 52 83 89 154 89c138 0 171 -95 171 -196v-299h-154v271c0 67 -25 95 -72 95c-48 0 -81 -27 -81 -118v-248h-154v272c0 67 -24 94 -71 94c-49 0 -82 -27 -82 -118v-248h-153z" />
    <glyph glyph-name="uni0446.loclBGR" horiz-adv-x="613" 
d="M538 139h73l-90 -259h-140l41 120h-36v69c-27 -51 -77 -82 -150 -82c-116 0 -178 72 -178 197v298h155v-264c0 -66 22 -102 80 -102c65 0 93 42 93 107v259h152v-343z" />
    <glyph glyph-name="uni0448.loclBGR" horiz-adv-x="888" 
d="M825 482v-482h-153v70c-21 -48 -71 -83 -138 -83c-86 0 -130 38 -151 89c-26 -52 -83 -89 -154 -89c-138 0 -171 95 -171 196v299h154v-271c0 -67 25 -95 72 -95c48 0 81 27 81 118v248h154v-272c0 -67 24 -94 71 -94c49 0 82 27 82 118v248h153z" />
    <glyph glyph-name="uni0449.loclBGR" horiz-adv-x="899" 
d="M825 139h73l-90 -259h-140l41 120h-37v70c-21 -48 -71 -83 -138 -83c-86 0 -130 38 -151 89c-26 -52 -83 -89 -154 -89c-138 0 -171 95 -171 196v299h154v-271c0 -67 25 -95 72 -95c48 0 81 27 81 118v248h154v-272c0 -67 24 -94 71 -94c49 0 82 27 82 118v248h153v-343z
" />
    <glyph glyph-name="uni044E.loclBGR" horiz-adv-x="820" 
d="M527 496c165 0 267 -108 267 -255s-102 -256 -267 -256c-144 0 -240 82 -263 200h-48v-185h-153v701h153v-402h49c23 117 119 197 262 197zM527 115c72 0 115 53 115 126s-43 126 -115 126c-73 0 -115 -53 -115 -126s42 -126 115 -126z" />
    <glyph glyph-name="uni0431.loclSRB" horiz-adv-x="585" 
d="M416 460c91 -39 144 -123 144 -226c0 -143 -102 -249 -267 -249c-166 0 -268 106 -268 249c0 111 62 200 168 234c-44 23 -75 57 -75 103c0 112 137 129 289 129h92v-129h-116c-64 0 -89 -9 -89 -38c0 -40 49 -34 122 -73zM293 111c72 0 115 52 115 123s-43 123 -115 123
c-73 0 -115 -52 -115 -123s42 -123 115 -123z" />
    <glyph glyph-name="uni0430.ss03" horiz-adv-x="577" 
d="M207 -13c-106 0 -175 57 -175 148c0 51 19 93 60 121c38 27 103 43 198 46l74 2v27c0 42 -28 62 -76 62c-50 0 -82 -20 -84 -53h-155c9 92 89 156 242 156c164 0 228 -67 228 -204v-292h-155v61c-25 -43 -76 -74 -157 -74zM265 97c62 0 100 34 100 94v23l-89 -4
c-57 -2 -86 -26 -86 -61c0 -33 28 -52 75 -52z" />
    <glyph glyph-name="uni04D1.ss03" horiz-adv-x="577" 
d="M290 519c-112 0 -180 55 -186 146h113c2 -40 30 -60 73 -60c44 0 72 20 74 60h112c-5 -91 -77 -146 -186 -146zM207 -13c-106 0 -175 57 -175 148c0 51 19 93 60 121c38 27 103 43 198 46l74 2v27c0 42 -28 62 -76 62c-50 0 -82 -20 -84 -53h-155c9 92 89 156 242 156
c164 0 228 -67 228 -204v-292h-155v61c-25 -43 -76 -74 -157 -74zM265 97c62 0 100 34 100 94v23l-89 -4c-57 -2 -86 -26 -86 -61c0 -33 28 -52 75 -52z" />
    <glyph glyph-name="uni04D3.ss03" horiz-adv-x="577" 
d="M180 537c-49 0 -86 38 -86 85s37 85 86 85s86 -38 86 -85s-37 -85 -86 -85zM399 537c-48 0 -86 38 -86 85s38 85 86 85c49 0 87 -38 87 -85s-38 -85 -87 -85zM207 -13c-106 0 -175 57 -175 148c0 51 19 93 60 121c38 27 103 43 198 46l74 2v27c0 42 -28 62 -76 62
c-50 0 -82 -20 -84 -53h-155c9 92 89 156 242 156c164 0 228 -67 228 -204v-292h-155v61c-25 -43 -76 -74 -157 -74zM265 97c62 0 100 34 100 94v23l-89 -4c-57 -2 -86 -26 -86 -61c0 -33 28 -52 75 -52z" />
    <glyph glyph-name="uni0443.ss04" horiz-adv-x="560" 
d="M104 -215c-25 0 -43 2 -69 10v122c25 -4 43 -6 63 -6c45 0 86 17 102 63l6 18l-203 490h159l123 -344l112 344h160l-212 -531c-58 -143 -153 -166 -241 -166z" />
    <glyph glyph-name="uni045E.ss04" horiz-adv-x="560" 
d="M282 519c-112 0 -180 55 -186 146h113c2 -40 30 -60 73 -60c44 0 72 20 74 60h112c-5 -91 -77 -146 -186 -146zM104 -215c-25 0 -43 2 -69 10v122c25 -4 43 -6 63 -6c45 0 86 17 102 63l6 18l-203 490h159l123 -344l112 344h160l-212 -531c-58 -143 -153 -166 -241 -166z
" />
    <glyph glyph-name="uni04EF.ss04" horiz-adv-x="560" 
d="M111 563v95h342v-95h-342zM104 -215c-25 0 -43 2 -69 10v122c25 -4 43 -6 63 -6c45 0 86 17 102 63l6 18l-203 490h159l123 -344l112 344h160l-212 -531c-58 -143 -153 -166 -241 -166z" />
    <glyph glyph-name="uni04F1.ss04" horiz-adv-x="560" 
d="M172 537c-49 0 -86 38 -86 85s37 85 86 85s86 -38 86 -85s-37 -85 -86 -85zM391 537c-48 0 -86 38 -86 85s38 85 86 85c49 0 87 -38 87 -85s-38 -85 -87 -85zM104 -215c-25 0 -43 2 -69 10v122c25 -4 43 -6 63 -6c45 0 86 17 102 63l6 18l-203 490h159l123 -344l112 344
h160l-212 -531c-58 -143 -153 -166 -241 -166z" />
    <glyph glyph-name="uni04F3.ss04" horiz-adv-x="560" 
d="M178 509l-60 31l126 160l96 -55zM373 509l-60 31l126 160l96 -55zM104 -215c-25 0 -43 2 -69 10v122c25 -4 43 -6 63 -6c45 0 86 17 102 63l6 18l-203 490h159l123 -344l112 344h160l-212 -531c-58 -143 -153 -166 -241 -166z" />
    <glyph glyph-name="uni24FF" unicode="&#x24ff;" horiz-adv-x="795" 
d="M397 -20c-231 0 -370 165 -370 370s139 370 370 370s371 -165 371 -370s-140 -370 -371 -370zM396 162c106 0 163 66 163 188s-57 188 -163 188c-105 0 -161 -66 -161 -188s56 -188 161 -188zM396 243c-43 0 -61 32 -61 107s18 108 61 108c44 0 63 -33 63 -108
s-19 -107 -63 -107z" />
    <glyph glyph-name="uni2776" unicode="&#x2776;" horiz-adv-x="795" 
d="M397 -20c-231 0 -370 165 -370 370s139 370 370 370s371 -165 371 -370s-140 -370 -371 -370zM353 171h101v358h-85c0 -43 -19 -66 -97 -66v-78h81v-214z" />
    <glyph glyph-name="uni2777" unicode="&#x2777;" horiz-adv-x="795" 
d="M397 -20c-231 0 -370 165 -370 370s139 370 370 370s371 -165 371 -370s-140 -370 -371 -370zM237 179h298v81h-168c6 19 17 29 43 42l55 28c49 24 74 61 74 109c0 67 -53 108 -143 108c-91 0 -150 -51 -150 -128h104c0 34 17 52 47 52c23 0 38 -13 38 -35
s-12 -38 -37 -50l-63 -31c-70 -34 -98 -84 -98 -176z" />
    <glyph glyph-name="uni2778" unicode="&#x2778;" horiz-adv-x="795" 
d="M397 -20c-231 0 -370 165 -370 370s139 370 370 370s371 -165 371 -370s-140 -370 -371 -370zM395 162c96 0 155 45 155 110c0 47 -29 78 -82 85c53 10 76 40 76 82c0 62 -56 99 -142 99c-95 0 -151 -46 -151 -114h103c0 26 18 41 45 41c25 0 42 -13 42 -34
c0 -27 -16 -41 -48 -41h-45v-68h44c34 0 51 -14 51 -43c0 -24 -16 -39 -45 -39c-31 0 -50 17 -50 48h-103c0 -82 52 -126 150 -126z" />
    <glyph glyph-name="uni2779" unicode="&#x2779;" horiz-adv-x="795" 
d="M397 -20c-231 0 -370 165 -370 370s139 370 370 370s371 -165 371 -370s-140 -370 -371 -370zM406 168h102v96h40v85h-40v87h-102v-87h-55v177h-100v-262h155v-96z" />
    <glyph glyph-name="uni277A" unicode="&#x277a;" horiz-adv-x="795" 
d="M397 -20c-231 0 -370 165 -370 370s139 370 370 370s371 -165 371 -370s-140 -370 -371 -370zM395 154c95 0 154 55 154 136c0 70 -49 118 -122 118c-33 0 -61 -7 -78 -25v64h180v75h-272v-211h89c9 20 27 29 52 29c31 0 51 -21 51 -51c0 -34 -20 -55 -55 -55
c-26 0 -46 11 -48 34h-100c5 -74 58 -114 149 -114z" />
    <glyph glyph-name="uni277B" unicode="&#x277b;" horiz-adv-x="795" 
d="M397 -20c-231 0 -370 165 -370 370s139 370 370 370s371 -165 371 -370s-140 -370 -371 -370zM392 168c93 0 152 58 152 138c0 75 -49 130 -130 138l74 91h-115l-97 -133c-24 -33 -35 -63 -35 -96c0 -80 59 -138 151 -138zM392 248c-34 0 -54 24 -54 58s20 59 54 59
s55 -25 55 -59s-21 -58 -55 -58z" />
    <glyph glyph-name="uni277C" unicode="&#x277c;" horiz-adv-x="795" 
d="M397 -20c-231 0 -370 165 -370 370s139 370 370 370s371 -165 371 -370s-140 -370 -371 -370zM265 166h116l176 359h-304v-85h157z" />
    <glyph glyph-name="uni277D" unicode="&#x277d;" horiz-adv-x="795" 
d="M397 -20c-231 0 -370 165 -370 370s139 370 370 370s371 -165 371 -370s-140 -370 -371 -370zM394 162c92 0 152 37 152 106c0 43 -22 77 -72 88c41 11 64 43 64 82c0 63 -57 100 -144 100c-86 0 -143 -37 -143 -100c0 -39 22 -71 64 -82c-50 -11 -72 -45 -72 -88
c0 -69 59 -106 151 -106zM394 390c-29 0 -48 17 -48 43c0 25 20 42 48 42c29 0 49 -17 49 -42c0 -26 -20 -43 -49 -43zM394 229c-31 0 -52 20 -52 47s21 46 52 46c32 0 53 -19 53 -46s-21 -47 -53 -47z" />
    <glyph glyph-name="uni277E" unicode="&#x277e;" horiz-adv-x="795" 
d="M397 -20c-231 0 -370 165 -370 370s139 370 370 370s371 -165 371 -370s-140 -370 -371 -370zM301 168h116l101 137c20 28 31 59 31 92c0 80 -59 138 -152 138s-152 -58 -152 -138c0 -75 50 -130 130 -138zM397 338c-34 0 -54 25 -54 59s20 58 54 58c35 0 55 -24 55 -58
s-20 -59 -55 -59z" />
    <glyph glyph-name="zero.case" horiz-adv-x="644" 
d="M322 -15c-185 0 -284 128 -284 367s99 368 284 368s284 -129 284 -368s-99 -367 -284 -367zM322 115c88 0 130 76 130 237s-42 237 -130 237s-130 -76 -130 -237c0 -162 42 -237 130 -237z" />
    <glyph glyph-name="one.case" horiz-adv-x="425" 
d="M169 0v447h-144v127c136 0 166 39 166 126h139v-700h-161z" />
    <glyph glyph-name="two.case" horiz-adv-x="615" 
d="M42 0c0 169 51 266 176 333l109 58c50 28 75 66 75 115c0 53 -33 88 -82 88c-63 0 -98 -45 -98 -125h-165c0 152 104 251 262 251c156 0 249 -79 249 -208c0 -90 -48 -165 -135 -214l-101 -56c-58 -34 -78 -58 -91 -109h321v-133h-520z" />
    <glyph glyph-name="three.case" horiz-adv-x="602" 
d="M297 -15c-174 0 -269 88 -269 246h163c0 -76 40 -119 109 -119c59 0 97 38 97 94c0 65 -37 98 -107 98h-68v124h69c64 0 96 29 96 88c0 50 -35 83 -87 83c-60 0 -97 -38 -97 -102h-160c0 134 98 223 261 223c147 0 245 -76 245 -196c0 -77 -42 -133 -125 -156
c85 -16 137 -80 137 -169c0 -127 -104 -214 -264 -214z" />
    <glyph glyph-name="four.case" horiz-adv-x="615" 
d="M578 337v-136h-81v-201h-159v201h-283v499h159v-363h124v183h159v-183h81z" />
    <glyph glyph-name="five.case" horiz-adv-x="613" 
d="M309 -15c-152 0 -250 75 -259 211h157c5 -53 48 -81 102 -81c71 0 112 50 112 127c0 70 -39 118 -103 118c-54 0 -90 -21 -110 -67h-142v407h474v-126h-329v-154c35 40 88 57 145 57c134 0 220 -94 220 -233c0 -154 -102 -259 -267 -259z" />
    <glyph glyph-name="six.case" horiz-adv-x="599" 
d="M331 508c147 -14 236 -121 236 -261c0 -150 -103 -262 -268 -262s-267 112 -267 262c0 59 16 112 45 155l208 298h185zM299 114c73 0 115 56 115 133c0 76 -42 133 -115 133c-72 0 -115 -57 -115 -133c0 -77 43 -133 115 -133z" />
    <glyph glyph-name="seven.case" horiz-adv-x="554" 
d="M52 0l279 562h-298v138h532l-333 -700h-180z" />
    <glyph glyph-name="eight.case" horiz-adv-x="617" 
d="M309 -15c-162 0 -267 78 -267 210c0 84 40 146 119 170c-66 23 -106 85 -106 161c0 119 102 194 254 194c151 0 254 -75 254 -194c0 -76 -42 -138 -108 -161c79 -24 121 -86 121 -170c0 -132 -106 -210 -267 -210zM309 422c61 0 100 36 100 90c0 57 -40 92 -100 92
c-61 0 -100 -35 -100 -92c0 -54 41 -90 100 -90zM309 104c65 0 109 40 109 100c0 61 -44 101 -109 101c-63 0 -109 -40 -109 -101c0 -60 44 -100 109 -100z" />
    <glyph glyph-name="nine.case" horiz-adv-x="595" 
d="M125 0l142 196h-2c-147 9 -237 118 -237 260c0 151 103 264 268 264s268 -113 268 -264c0 -63 -19 -120 -55 -171l-199 -285h-185zM296 322c73 0 115 57 115 134c0 78 -42 134 -115 134s-115 -56 -115 -134c0 -77 42 -134 115 -134z" />
    <glyph glyph-name="zero.case.zero" horiz-adv-x="644" 
d="M322 720c185 0 284 -129 284 -368s-99 -367 -284 -367s-284 128 -284 367s99 368 284 368zM322 589c-88 0 -130 -76 -130 -237c0 -75 9 -132 28 -171l167 388c-18 14 -39 20 -65 20zM322 115c88 0 130 76 130 237c0 70 -8 124 -24 163l-166 -384c17 -11 37 -16 60 -16z
" />
    <glyph glyph-name="uni24EA" unicode="&#x24ea;" horiz-adv-x="795" 
d="M397 -20c-231 0 -370 165 -370 370s139 370 370 370s371 -165 371 -370s-140 -370 -371 -370zM397 65c169 0 272 123 272 285s-103 285 -272 285c-168 0 -272 -123 -272 -285s104 -285 272 -285zM396 162c-104 0 -161 66 -161 188s57 188 161 188c107 0 163 -66 163 -188
c0 -123 -56 -188 -163 -188zM396 243c45 0 63 33 63 107c0 75 -18 107 -63 107c-42 0 -61 -31 -61 -107c0 -75 19 -107 61 -107z" />
    </font>
</defs>
</svg>
